<svg version="1.2" xmlns="http://www.w3.org/2000/svg" viewBox="0 0 200 170" width="200" height="170" style="width: 100%;height: 100%;">
	<style>
		.map-metropolitana.s0 { fill: none;stroke: #757575;stroke-width: 0.7 }
		.map-metropolitana.s1 { fill: #ffffff;stroke: #757575;stroke-width: .5 }
		.map-metropolitana.s2 { fill: none;stroke: #3c3c3c;stroke-width: 0.9 }
	</style>
	<g id="layer_mapa_metropolitano" class="layer_mapa_comuna" data-siglaregion="RM">
		<path id="map_metropolitana_Cerrillos" fill-rule="evenodd" class="map-metropolitana s1" data-siglaregion="RM" data-sigla="cerrillos" data-nombre="Cerrillos" d="m100.9 69.3l-0.2 1.2h-0.6l-0.1 1.5q-0.1 0-0.3 0.6l-0.5 1.2h1.7l0.6 0.5-0.9 1.3 2.1 0.9v-1.1l2-5.3-0.1-0.4-2.7 0.7z"/>
		<path id="map_metropolitana_Estacion_Central" fill-rule="evenodd" class="map-metropolitana s1" data-siglaregion="RM" data-sigla="estacion_central" data-nombre="Estación Central" d="m100 67.2v1.6h-0.1v0.2l1 0.3 1 1.1 2.8-0.7h1.2v-0.7l-0.7 0.1c0.2-0.5 0.1-1.7 0.2-2.5l-0.2-0.1v-0.7l-1.3 0.1v0.4h-1.4v1.1c-0.6 0.3-0.7 0.2-1 0.2z"/>
		<path id="map_metropolitana_Lo_Prado" fill-rule="evenodd" class="map-metropolitana s1" data-siglaregion="RM" data-sigla="lo_prado" data-nombre="Lo Prado" d="m98.9 64.9v1.2h0.2v0.9l2.4 0.5c0.5 0.2 0.8 0 1-0.1v-1.1l-0.1-1.2-1.5-0.2v0.3l-0.8-0.3z"/>
		<path id="map_metropolitana_Cerro_Navia" fill-rule="evenodd" class="map-metropolitana s1" data-siglaregion="RM" data-sigla="cerro_navia" data-nombre="Cerro Navia" d="m94.6 62.7v-0.5l1.1 0.1v0.1h0.4l0.6-0.3h0.9 2.4l0.3 0.1 0.4-0.2h0.2l0.5 0.3-0.5 2.9-0.8-0.3h-1.2l0.1-0.7h-0.3-0.7l-0.3-0.2h-0.8l-0.4-0.2-0.2-0.3-0.1 0.3-0.5-0.1-0.3-0.2-0.2-0.3-0.2-0.3-0.1-0.2z"/>
		<path id="map_metropolitana_Santiago" fill-rule="evenodd" class="map-metropolitana s1" data-siglaregion="RM" data-sigla="santiago" data-nombre="Santiago" d="m105.1 70h1v-0.3h-0.2 3.2l1.7-0.7-1.2-4.4-3.7-1 0.1 0.2c-0.4 0-0.9-0.4-0.9 0.2v1.1l-1.2 0.1v0.7l1.3-0.1v0.7l0.2 0.1c-0.1 0.8 0 2-0.2 2.5l0.7-0.1v0.7h-0.8"/>
		<path id="map_metropolitana_Renca" fill-rule="evenodd" class="map-metropolitana s1" data-siglaregion="RM" data-sigla="renca" data-nombre="Renca" d="m97.6 58.8l-0.4-0.2-2.5 2.6-0.1 1 1.1 0.1v0.1h0.4l0.6-0.3h0.9 2.4l0.3 0.1 0.4-0.2h0.2v-0.2h0.3l0.5-0.3h1l0.7 0.5 0.5 0.6 0.7 0.4 1.3 0.6 0.1-0.2-0.8-0.8-0.2-1.5-0.1-0.3-0.9-1.7-0.4-0.9-0.1 0.2h-0.1l-0.1-0.2-0.5 0.3h-0.3l-0.6 0.9h-0.3l-0.2-0.1-0.5 0.3h-0.4v-0.1h-0.3v0.1h-0.3v-0.1h-0.2l-0.1 0.1h-0.2l-0.1 0.1-0.3-0.4h-0.2l-0.1-0.1-0.1 0.1h-0.5l-0.3-0.3v-0.2z"/>
		<path id="map_metropolitana_Quinta_Normal" fill-rule="evenodd" class="map-metropolitana s1" data-siglaregion="RM" data-sigla="quinta_normal" data-nombre="Quinta Normal" d="m106 63.8l-0.1-0.2-1.3-0.6-0.7-0.4-0.5-0.6-0.7-0.5h-1l-0.5 0.3h-0.3v0.2l0.5 0.3-0.5 2.6 1.5 0.2 0.1 1.2h1.4v-0.4-0.7l1.2-0.1v-1.1c0-0.6 0.5-0.2 0.9-0.2z"/>
		<path id="map_metropolitana_Recoleta" fill-rule="evenodd" class="map-metropolitana s1" data-siglaregion="RM" data-sigla="recoleta" data-nombre="Recoleta" d="m109.6 64.6l-1.6-0.4 0.1-1.7h-0.3v-1.4h-0.2l-0.3-0.2 0.1-0.4-0.2-0.2h0.1v-2.2-0.3l0.1-0.3 1.9 0.9 2.9 2.3v0.5l-0.8 0.5-0.1 0.3-0.7 0.7h-0.3l-0.4 0.3-0.1 0.5-0.3 0.6h0.1z"/>
		<path id="map_metropolitana_Independencia" fill-rule="evenodd" class="map-metropolitana s1" data-siglaregion="RM" data-sigla="independencia" data-nombre="Independencia" d="m105.7 60.4l-0.8 0.4 0.1 0.3 0.2 1.5 0.8 0.8-0.1 0.2 2.1 0.6 0.1-1.7h-0.3v-1.4h-0.2l-0.3-0.2 0.1-0.4-0.2-0.2h-0.9z"/>
		<path id="map_metropolitana_Conchali" fill-rule="evenodd" class="map-metropolitana s1" data-siglaregion="RM" data-sigla="conchali" data-nombre="Conchalí" d="m107.2 60.3h0.1v-2.2-0.3l0.1-0.3-2.7-1.2-0.6-0.1-1.2 0.1v0.2l0.7 1.7 0.4 0.9 0.9 1.7 0.8-0.4 0.6-0.1z"/>
		<path id="map_metropolitana_El_Bosque" fill-rule="evenodd" class="map-metropolitana s1" data-siglaregion="RM" data-sigla="el_bosque" data-nombre="El Bosque" d="m104.8 77.4l1.9 0.8 1.4 0.2-1 4.6-1.2-0.3-2.7-1.1 0.5-1.2v-1l0.3 0.1z"/>
		<path id="map_metropolitana_La_Cisterna" fill-rule="evenodd" class="map-metropolitana s1" data-siglaregion="RM" data-sigla="la_cisterna" data-nombre="La Cisterna" d="m108.1 78.4l-1.4-0.2-1.9-0.8 1.4-3.6 2.8 0.8z"/>
		<path id="map_metropolitana_Lo_Espejo" fill-rule="evenodd" class="map-metropolitana s1" data-siglaregion="RM" data-sigla="lo_espejo" data-nombre="Lo Espejo" d="m102.7 75.4v1.1l2.1 0.9 1.4-3.6-2.5-1z"/>
		<path id="map_metropolitana_Pedro_Aguirre_Cerda" fill-rule="evenodd" class="map-metropolitana s1" data-siglaregion="RM" data-sigla="pedro_aguirre_cerda" data-nombre="Pedro Aguirre Cerda" d="m106.1 69.7h1.7l-1.6 4.1-2.5-1 1-2.7-0.1-0.4h0.5v0.3h1v-0.3z"/>
		<path id="map_metropolitana_San_Miguel" fill-rule="evenodd" class="map-metropolitana s1" data-siglaregion="RM" data-sigla="san_miguel" data-nombre="San Miguel" d="m106.2 73.8l1.6-4.1h1.3l0.6 5h-0.4z"/>
		<path id="map_metropolitana_San_Ramon" fill-rule="evenodd" class="map-metropolitana s1" data-siglaregion="RM" data-sigla="san_ramon" data-nombre="San Ramón" d="m109.7 74.7h-0.4l-0.3-0.1-0.9 3.8-0.2 0.9 2.5 0.2z"/>
		<path id="map_metropolitana_La_Granja" fill-rule="evenodd" class="map-metropolitana s1" data-siglaregion="RM" data-sigla="la_granja" data-nombre="La Granja" d="m109.7 74.7l0.7 4.9h0.3l1.5-0.4-0.2-1.1h0.4l-0.1-4.1h-0.6l-1.1 0.6z"/>
		<path id="map_metropolitana_San_Joaquin" fill-rule="evenodd" class="map-metropolitana s1" data-siglaregion="RM" data-sigla="san_joaquin" data-nombre="San Joaquín" d="m109.7 74.7l-0.6-5 1.7-0.7 0.2 0.5 0.3 1 0.3 1 0.4 2 0.2 0.2 0.1 0.3h-0.6l-1.1 0.6z"/>
		<path id="map_metropolitana_La_Pintana" fill-rule="evenodd" class="map-metropolitana s1" data-siglaregion="RM" data-sigla="la_pintana" data-nombre="La Pintana" d="m112.2 79.2l-1.5 0.4-2.8-0.3-0.8 3.7-0.6 2.7 2.6 0.2-0.2 1.4h0.2l-0.1 0.7h1.8l0.2-1v-1.7l2-0.4-0.1-0.6-0.1-1.2-0.2-0.4-0.1-1.7h-0.1l-0.2-1h0.2z"/>
		<path id="map_metropolitana_Providencia" fill-rule="evenodd" class="map-metropolitana s1" data-siglaregion="RM" data-sigla="providencia" data-nombre="Providencia" d="m111.9 61.4l-0.5 0.3-0.1 0.3-0.7 0.7h-0.3l-0.4 0.3-0.1 0.5-0.3 0.6h0.1v0.5l0.5 1.8 1.3-0.4v0.2h0.3l0.7-0.4 1.1-0.1 0.5 0.4 1.1-1.8-0.3-0.3-1.7-1.5-0.7-0.3 0.3-0.8z"/>
		<path id="map_metropolitana_Nunoa" fill-rule="evenodd" class="map-metropolitana s1" data-siglaregion="RM" data-sigla="nunoa" data-nombre="Ñuñoa" d="m110.1 66.4l1.3-0.4v0.2h0.3l0.7-0.4 1.1-0.1 0.5 0.4 1.1-1.8 0.8 0.6 0.4 1.5-0.2 1-0.4 1.3-0.9 0.6h-2.1l-1.7 0.2-0.2-0.5z"/>
		<path id="map_metropolitana_La_Reina" fill-rule="evenodd" class="map-metropolitana s1" data-siglaregion="RM" data-sigla="la_reina" data-nombre="La Reina" d="m115.1 64.3l0.8 0.6 0.4 1.5-0.2 1 0.9 0.4 1.6 0.1 0.9-0.1 0.8 0.3 0.2-0.7 4.4 0.2v-0.2l-0.3-0.5-0.4-0.3-0.1-0.2-0.3-0.2v-0.6l-1.2-1.1-0.9-0.1-0.7-0.4-1.4 0.2-0.1-0.5-2 0.3h-2.7z"/>
		<path id="map_metropolitana_Macul" fill-rule="evenodd" class="map-metropolitana s1" data-siglaregion="RM" data-sigla="macul" data-nombre="Macul" d="m112 73.5l-0.4-2-0.3-1-0.3-1 1.7-0.2h2.1l0.9-0.6-0.4 2.4-0.8 1.8v0.7z"/>
		<path id="map_metropolitana_Penalolen" fill-rule="evenodd" class="map-metropolitana s1" data-siglaregion="RM" data-sigla="penalolen" data-nombre="Peñalolén" d="m124.9 67.6l-4.4-0.2-0.2 0.7-0.8-0.3-0.9 0.1-1.6-0.1-0.9-0.4-0.4 1.3-0.4 2.4-0.8 1.8v0.7l3 0.2 2.1 0.1 0.3-0.2 0.3-0.2h0.5l0.2-0.3h0.2l0.9-0.8h0.9l0.3-0.3h0.6v-0.3l0.9 0.4 0.6 0.1 0.9-0.8h0.7l0.4-0.2 0.3-0.1 0.9 0.4h0.6l0.7-0.4h0.5v-0.4l-0.2-0.4-0.7-0.1-0.2-0.2h-0.4l-0.5-0.6h-0.2l-0.2-0.2-1.2-0.1-0.5-0.4v-0.3l-0.5-0.5z"/>
		<path id="map_metropolitana_Las_Condes" fill-rule="evenodd" class="map-metropolitana s1" data-siglaregion="RM" data-sigla="las_condes" data-nombre="Las Condes" d="m130.1 70.4l-0.7-0.1-0.2-0.2h-0.4l-0.5-0.6h-0.2l-0.2-0.2-1.2-0.1-0.5-0.4v-0.3l-0.5-0.5-0.8-0.4v-0.2l-0.3-0.5-0.4-0.3-0.1-0.2-0.3-0.2v-0.6l-1.2-1.1-0.9-0.1-0.7-0.4-1.4 0.2-0.1-0.5-2 0.3h-2.7l-1.7-1.5-0.7-0.3 0.3-0.8 7-3 0.7-0.9 1.6-0.7 0.9-0.1 0.6-0.4h0.4l0.4-0.3 0.9 0.1h0.7v0.5l-0.5 0.4-0.2 0.5v0.2l0.5 0.6 0.1 0.3v0.4l0.2 0.1h0.2l0.7 0.5 1.4 0.3 0.2 0.3v1.8l0.1 0.1v0.4l1 0.7 0.9 0.1 0.3 1.4-0.1 0.5 0.4 0.7 0.1 1.5-0.6 0.4-0.1 0.6 0.2 0.3-0.1 1.1h-0.1z"/>
		<path id="map_metropolitana_Vitacura" fill-rule="evenodd" class="map-metropolitana s1" data-siglaregion="RM" data-sigla="vitacura" data-nombre="Vitacura" d="m112.2 59.9c0 0.3 0 0.6 0 0.8v0.5l-0.3 0.2h0.8l7-3 0.7-0.9 1-0.5-0.2-0.3-2.1 0.2-0.6-0.5-0.8-0.7-0.5-0.3h-0.6l-0.1-0.1h-0.2l-0.2-0.2h-0.2l-0.3 0.2-0.2-0.5-0.5-0.3-0.2 0.4-0.2 0.1-0.6 0.1-0.5 0.5-0.4 0.4 0.4 0.3-0.1 0.9-0.2 0.2v0.6l-0.3 0.2v0.3l0.1 0.2v0.4l-0.4 0.3z"/>
		<path id="map_metropolitana_La_Florida" fill-rule="evenodd" class="map-metropolitana s1" data-siglaregion="RM" data-sigla="la_florida" data-nombre="La Florida" d="m129.8 71.2l-0.7 0.4h-0.6l-0.9-0.4-0.3 0.1-0.4 0.2h-0.7l-0.9 0.8-0.6-0.1-0.9-0.4v0.3h-0.6l-0.3 0.3h-0.9l-0.9 0.8h-0.2l-0.2 0.3h-0.5l-0.3 0.2-0.3 0.2-2.1-0.1-3-0.2-2.5-0.1 0.2 0.2 0.1 0.3 0.1 4.1h-0.4l0.2 1.1 0.2 0.8h-0.2l0.2 1h0.1l1-0.3 0.7 0.3 1-0.1-0.1-0.6 2.8-0.5-1.1-1.6h1.6l0.6 0.5 0.4-0.4c0.4-0.3 0.5-0.3 0.9-0.4 0.2-0.1 0.2-0.3 0.3-0.3q0.2-0.1 0.4-0.1c0.2 0 0.1-0.1 0.3-0.1 0.2 0 0.2 0.1 0.4 0.2 0.1 0 0.3 0 0.5 0 0.1 0 0.4 0 0.5 0.1 0.1 0 0.2 0.1 0.3 0.1 0.1-0.1 0.3-0.1 0.4-0.1 0.1 0 0.3-0.1 0.3-0.2 0.2 0 0.6 0 0.9 0 0.1 0 0.2 0 0.3-0.1 0.1-0.2 0.2-0.3 0.3-0.5 0.2-0.1 0.4-0.2 0.6-0.4 0.1-0.2 0.1-0.4 0.1-0.6q0.2-0.3 0.5-0.3c0.3 0 0.4 0 0.4-0.3 0.1-0.2 0.1-0.5 0.2-0.7 0.1-0.3 0.2-0.3 0.4-0.4 0.1 0 0.3-0.1 0.3-0.1-0.1-0.2 0-0.3 0-0.5 0.2 0 0.4-0.1 0.6-0.2 0.2 0 0.3-0.1 0.4-0.3 0-0.1 0.3 0 0.4 0 0.3-0.1 0.4-0.3 0.6-0.5q0.3-0.1 0.5-0.3c0.3-0.2 0-0.6 0.1-1.1z"/>
		<path id="map_metropolitana_Huechuraba" fill-rule="evenodd" class="map-metropolitana s1" data-siglaregion="RM" data-sigla="huechuraba" data-nombre="Huechuraba" d="m113.6 53.2c0.1 0 0.6 0.8 0.6 0.8 0.2 0 0.4 0 0.5 0.1 0.1 0.1 0.2 0.2 0.2 0.4l-0.2 0.4-0.2 0.1-0.6 0.1-0.5 0.5-0.4 0.4 0.4 0.3-0.1 0.9-0.2 0.2v0.6l-0.3 0.2v0.3l0.1 0.2v0.4l-0.4 0.3-0.3 0.5c0 0.3 0 0.6 0 0.8l-2.9-2.3-1.9-0.9-2.7-1.2-0.6-0.1-0.4-1.2v-0.5l0.1-0.1v-0.3h0.2c0.5-1.3 0.5-0.6 0.9-1.1 0-0.1 0-0.3-0.2-0.3v-0.4c0.2 0 0.4 0 0.6 0q0.2 0 0.3 0.2c0.1-0.3 0.3-0.4 0.6-0.4 0.1 0 0.3 0.1 0.3 0.2 0.2 0.2 0.4-0.1 0.5-0.1 0.3-0.1 0.4 0.3 0.7 0.5 0.2 0.1 0.2 0.4 0.4 0.5 0.1 0.1 0 0.3-0.1 0.5 0.3 0.1 0.1 0.2 0.5 0 0.1 0 0.3 0.1 0.4 0.2 0.2 0.2 0.1 0.1 0.3-0.1q0.2-0.2 0.4-0.4c0.1-0.1 0.1 0.2 0.2 0.2q0.3 0 0.6 0c0.2 0 0.3 0.3 0.9 0.1 0.2 0 0.2-0.2 0.5-0.3 0.3 0 0.6 0.1 0.8-0.2 0.1 0.1 0.4 0.2 1 0z"/>
		<path id="map_metropolitana_Quilicura" fill-rule="evenodd" class="map-metropolitana s1" data-siglaregion="RM" data-sigla="quilicura" data-nombre="Quilicura" d="m94.2 55.7l1.7 1.6 0.5 0.6 0.8 0.7 0.4 0.2h0.2v0.2l0.3 0.3h0.5l0.1-0.1 0.1 0.1h0.2l0.3 0.4 0.1-0.1h0.2l0.1-0.1h0.2v0.1h0.3v-0.1h0.3v0.1h0.4l0.5-0.3 0.2 0.1h0.3l0.6-0.9h0.3l0.5-0.3 0.1 0.2h0.1l0.1-0.2-0.7-1.7v-0.2l1.2-0.1-0.4-1.2v-0.5l0.1-0.1v-0.3h0.2c0.5-1.3 0.5-0.6 0.9-1.1 0-0.1 0-0.3-0.2-0.3v-0.4-0.5h-0.4l-0.1-0.3c-0.1-0.2 0-0.2 0.1-0.1l0.1 0.2c-0.1-0.2 0.2-0.6-0.6-0.5-0.2-0.2-0.2-0.5-0.7-0.4l-0.2 0.1h-0.3l-0.5-0.4h-0.6l-0.2 0.9-0.6 0.1-7.2 2-0.2-0.3h-0.7c-0.2 0.2 0 0.8 0.2 1.3z"/>
		<path id="map_metropolitana_Pudahuel" fill-rule="evenodd" class="map-metropolitana s1" data-siglaregion="RM" data-sigla="pudahuel" data-nombre="Pudahuel" d="m80.9 71.6c1.4-0.4 0.5-0.8 1.5-0.7 0.9-0.1 0.4-0.7 1.3-0.7 0.5 0.2 1.1 0.7 1.5 0 0.1 0.4 0.9-0.2 1.7 0 0.1 0.2 0.7-0.2 1 0 0.4 0.2 0.5-0.1 0.5-0.5 1.2-1.8 0.9-0.7 2.6-1.1 0.8 0 0.6-0.2 0.8-0.3 0.2 0 0.3-0.1 0.3-0.3 0.2-0.2 0.6 0.2 1.2 0.2l0.1-0.4c0.5 0.1 1.2 0.1 1.4 0.5 0.4-0.2 0.8-0.4 0.7-0.9 0.4 0.1 0.9-0.2 1.1 0.3v0.5l2.8 0.6-0.1 0.5 0.6-0.5h0.1v-1.6l-0.9-0.2v-0.9h-0.2l0.1-1.9h-0.3-0.7l-0.3-0.2h-0.8l-0.4-0.2-0.2-0.3-0.1 0.3-0.5-0.1-0.3-0.2-0.2-0.3-0.2-0.3-0.1-0.2h-0.3l0.1-1.5 2.5-2.6-0.8-0.7-0.5-0.6-1.7-1.6-1.4-1.3c-0.5 0.8-0.9 1.9-1.4 1.9-1.1 0-0.9 1.8-2.7 3.1-0.9-1-0.3-0.2-1.6-1.1-1.6-0.8-2.4 0.5-4.1-0.1l-1.1-0.7c-1.2 0.1-1.6 1.4-2.1 1.1-0.3-0.4-0.1 0.1-1.7 0.7-0.2 0-0.1 0.3-0.3 0.4 0.2 1.6-1 1.2-0.1 2.1-0.4 0.9 0.5 1.3 0.2 2.6-0.1 1.3-0.8 1.2-0.5 1.6 0.2 0.5 0 0.8-0.1 0.9-0.3 0.4 0.3 0.6 0.5 0.9l0.1 1.2c0.3 0.6 0.2 1.2 2.1 1.4 0.2 0.5 0.6 0.8 0.9 1.2z"/>
		<path id="map_metropolitana_Maipu" fill-rule="evenodd" class="map-metropolitana s1" data-siglaregion="RM" data-sigla="maipu" data-nombre="Maipú" d="m99.9 68.8l-0.6 0.5 0.1-0.5-2.8-0.6v-0.5c-0.2-0.5-0.7-0.2-1.1-0.3 0.1 0.5-0.3 0.7-0.7 0.9-0.2-0.4-0.9-0.4-1.4-0.5l-0.1 0.4c-0.6 0-1-0.4-1.2-0.2 0 0.2-0.1 0.3-0.3 0.3-0.2 0.1 0 0.3-0.8 0.3-1.7 0.4-1.4-0.7-2.6 1.1 0 0.4-0.1 0.7-0.5 0.5-0.3-0.2-0.9 0.2-1 0-0.8-0.2-1.6 0.4-1.7 0-0.4 0.7-1 0.2-1.5 0-0.9 0-0.4 0.6-1.3 0.7-1-0.1-0.1 0.3-1.5 0.7 0.1 0.1 0 0.2 0 0.2 0 0.1-0.3 0.3-0.4 0.5q0 0.2-0.1 0.5c-0.1 0.1-0.3 0.2-0.3 0.4-0.1 0.3-0.2 0.5 0 0.7 0.1 0 0.3 0 0.4 0.1 0.2 0.1 0.3 0.2 0.4 0.4 0.3-0.1 0.7-0.3 1.1-0.3 0.4 0.1 0.7 0.1 1 0.5 0 0.3 0.1 0.6 0.6 0.6 0.1 0 0.3 0.1 0.3 0.2 0.1 0.1 0.2 0.3 0.3 0.4 0.2 0.1 0.3 0.1 0.3 0.3-0.1 0.2 0 0.3 0.2 0.4 0.1-0.1 0.1-0.1 0.2-0.2 0.2 0 0.3 0 0.5 0.1 0.2 0.1 0.4 0.3 0.5 0.4 0.4 0.2 0.8-0.2 1.2-0.4 0.4 0.2 0.7 0.8 1.3 0.8 0.5-0.1 0.8-0.3 1.3-0.2 0.2 0 0.4 0 0.6-0.1q0.5 0.1 1 0.3c0.6 0 0.6-1.2 1.2-0.9q0.4 0.3 0.3 0.8c-0.1 0.1-0.2 0.1-0.4 0.1-0.2 0.1-0.3 0.1-0.3 0.3 0 0.2 0 0.2-0.1 0.3-0.1 0.1-0.2 0.2-0.4 0.2l1.8 1.6 1.5 1.5 1.7 0.4 4.9-7.2-0.6-0.5h-1.7l0.5-1.2q0.2-0.6 0.3-0.6l0.1-1.5h0.6l0.2-1.2-1-0.3z"/>
		<path id="map_metropolitana_Lo_Barnechea" fill-rule="evenodd" class="map-metropolitana s1" data-siglaregion="RM" data-sigla="lo_barnechea" data-nombre="Lo Barnechea" d="m136 23.7c-0.2 1-0.1 2.4-1.4 2.1-0.1 0.3 0.1 1-0.5 0.7-0.2 0.6-0.5 0.4-0.7 0.5-0.4 0.4-1.1 0.4-1.8 0.3-0.2 0.6-2.1 1-2.3 2.8-0.4 0.1-0.6 0-1 1 0 0.3 0.2 1-0.1 0.9-0.5 0.3-0.8 0.5-0.7 0.7-0.2 0.5-0.3 1-0.7 1 0.3 3-0.8 1.4-0.6 2.6 0.2 0.6 0.4 1.1-0.6 2.8-1.2-0.5-2.6 0.4-4.1 0.2-0.1 0.6 0 1.6-0.7 1.6-0.4 0.9-0.8 0.2-1.5 0.8-0.4-0.2-0.7-0.2-1.2 0.1h-0.9c-0.3 0.5-0.6 0.9-0.5 1.4-0.6 0.2-0.1 0.5-1 1.7 0.3 0.9 0.2 2.3-0.5 2.6-0.7 0.3-0.8 0.6-1.4 1 0.4 1.8-1.9 0.4-0.8 2v1c0.4 1.1 1 1 0.6 1.7 0.1 0 0.6 0.8 0.6 0.8 0.2 0 0.4 0 0.5 0.1 0.1 0.1 0.2 0.2 0.2 0.4l0.5 0.3 0.2 0.5 0.3-0.2h0.2l0.2 0.2h0.2l0.1 0.1h0.6l0.5 0.3 0.8 0.7 0.6 0.5 2.1-0.2 0.2 0.3 0.6-0.2 0.9-0.1 0.6-0.4h0.4l0.4-0.3 0.9 0.1h0.7v0.5l-0.5 0.4-0.2 0.5v0.2l0.5 0.6 0.1 0.3v0.4l0.2 0.1h0.2l0.7 0.5 1.4 0.3 0.2 0.3v1.8l0.1 0.1v0.4l1 0.7 0.9 0.1 0.3 1.4-0.1 0.5 0.4 0.7 0.1 1.5-0.6 0.4-0.1 0.6 0.2 0.3-0.1 1.1 0.1 0.5 1.1-0.2 0.7 0.6h0.4l0.4 0.4h1l1-0.8h1.4l0.4 0.4h1.2l0.3 0.4h0.5l0.7-1 0.8-1h0.8l0.7-0.9 0.2-0.1 1.3-0.2-0.1-0.7h0.3v-0.7l2 0.3 0.5-0.3v-0.5l0.9-0.1v-0.3l0.8-0.1 0.4-0.4h0.6l0.5-0.3 0.1-0.7 0.7-0.7v-0.5l0.5 0.1 1.3-1.1 0.1-2.1 1.6-0.7 0.1-0.5 0.7-0.5 0.1-2.1 0.5-0.4h0.5l0.6-0.6v-1.4l-0.6-0.9-0.2-2.7-0.6-0.5 0.1-0.9-1.1-1.6-0.3-3-0.9-1-0.1-1.3-1.7-1.4 0.1-0.6c1-1.5 0-1.6-0.4-2.2v-0.7l-1.1-0.6v-2.2l-0.4-1c-3.3 0.4-0.8-1.5-2.3-2.7l-0.3-1v-2.9h-1.6l-1.5-1.5v-0.6l-1-0.5-1 0.1c-0.4-0.8-0.7-0.9-1-1l-1.1-0.5c-0.5 1.2-1.8 1.4-3.3 1.3z"/>
		<path id="map_metropolitana_Puente_Alto" fill-rule="evenodd" class="map-metropolitana s1" data-siglaregion="RM" data-sigla="puente_alto" data-nombre="Puente Alto" d="m121.3 77.4c-0.2 0-0.1 0.1-0.3 0.1q-0.2 0-0.4 0.1c-0.1 0-0.1 0.2-0.3 0.3-0.4 0.1-0.5 0.1-0.9 0.4l-0.4 0.4-0.6-0.5h-1.6l1.1 1.6-2.8 0.5 0.1 0.6-1 0.1-0.7-0.3-1 0.3 0.1 1.7 0.2 0.4 0.1 1.2 0.1 0.6-2 0.4v1.7l-0.2 1-0.1 1-0.3 0.5q0 0 0 0c0.3-0.2 0.6-0.2 0.9-0.1q0.3 0.1 0.6 0.1 0.2 0 0.3 0 0.1-0.1 0.3-0.1 0.1 0 0.2 0 0.1 0 0.2 0c0.3-0.1 0.5-0.3 0.7-0.2 0.3 0 0.5-0.3 0.6 0.1 0.5 0.1 0.6-0.6 0.9-0.7q0.2 0 0.3 0.1 0.1 0 0.1 0 0.1 0 0.1 0 0-0.1 0.1-0.2 0.1-0.2 0.2-0.6c0.2-0.4 0.7-0.3 1-0.3 0-0.4 0.4-0.9 0.7-0.5q0.2 0 0.3 0 0.1 0 0.2 0c0.2-0.1 0.4-0.3 0.6-0.4 0.4-0.1 0.9 0.1 1.2 0.2 0.4-0.1 0.6-0.8 1-0.4 0.2 0.1 0.4 0.2 0.7 0.1q0 0 0.1 0 0-0.1 0.1-0.1c0-0.2 0-0.3 0-0.4-0.1-0.2 0.2-0.2 0.2-0.2 0.1 0 0.1 0.3 0.1 0.4 0.1 0.1 0.2 0.1 0.4 0.1 0.1 0 0.3-0.2 0.3-0.3 0-0.2 0.2-0.1 0.2-0.4q0 0-0.1-0.1 0 0 0 0c0-0.1 0-0.1 0-0.3 0-0.2 0.2 0 0.3 0q0.1 0 0.1 0 0.1 0 0.1 0 0 0 0.1 0 0 0 0.1-0.1c0.1 0 0.1-0.2 0.2-0.3q-0.1 0 0-0.1c0-0.1 0-0.2-0.1-0.4 0 0 0-0.1 0.1-0.1q0-0.1 0.1-0.1 0.1 0 0.1 0v-0.5c0.3 0 0-1 0-1.3 0-0.2 0.1-0.5-0.4-0.5 0.2-0.5-0.2-1.3 0.6-1.6 0.1-1.2 0.4-0.7 0.7-0.8v-1c0.5-0.6-0.2-0.7-0.3-1-0.3 0-0.7 0-0.9 0 0 0.1-0.2 0.2-0.3 0.2-0.1 0-0.3 0-0.4 0.1-0.1 0-0.2-0.1-0.3-0.1-0.1-0.1-0.4-0.1-0.5-0.1-0.2 0-0.4 0-0.5 0-0.2-0.1-0.2-0.2-0.4-0.2z"/>
		<path id="map_metropolitana_San_Jose_de_Maipo" fill-rule="evenodd" class="map-metropolitana s1" data-siglaregion="RM" data-sigla="san_jose_de_maipo" data-nombre="San José de Maipo" d="m171.9 167v-1l2.5-2.7 1.6-0.4c1.8-2.1 3-0.5 2.5-0.3q1.1 0.7 2.5 2.3c0.1 0.2 1 0.6 1.4 1.5 0.5 0.9 0.9 1.2 1.6 0.6l0.8-0.8c0.1-2.6 0.3-1 2.2-1.5 1-0.5 1.9-1 2.7-1.2 0.8-0.1 1.2 0.4 2.4 0.1 0.3-0.4 0.8-1.3 1.7-1.2 0.9-1.7 1.3-0.3 1.5-3.2 0.7-2.9-0.4-2.8-0.6-4.1-1.1-1.6-6.5-5.8-5.6-6.6-0.5-0.7 0-0.4 1.3-3.9 0.6 0.2 1 0 1.5-0.3 0.4-1.8 2-2.3 0.7-3.4-3.2-0.6-1-2.6-0.4-4.2 2.4-1.9 2-2.8 0.2-3.3 0.4-0.7 0.1-2.9-2.3-3.7-0.2-0.9-0.7-1.3-2.4 0-0.8-0.1-1.6 0-1.9-1.5l1.4-3.3-0.1-1.5 1.1-0.9 2.2-2.9-0.1-1-1.2-0.9-0.7-1.7-2-1.5-0.1-1.5 0.4-0.5 0.4-4c-1.5-2.1-1.9-4 0.7-5.5v-0.8c3.5-4.7-0.1-5.5 0-8.2 1.1-3.5 0.8-3.9 0.4-7-0.5-1.7 0.4-2.6 0.6-3.9v-3.4c-1-2.6 0-2.3 0.2-3.1 0.3-0.8 0.1-1.9 1.6-2.1 1.3-1.1 1.3-1.5 1.5-2.1 0.4-1.5-0.3-4.4 1.5-4.4v-1.3c0.1-1.9-0.3-4.5 1.7-4.5l-0.4-2.6-0.9-1c0.8-0.3 1 0.9 3.1-1.1l0.9-2.7-0.1-2.6-2-2.7c-0.9-1.2 0.4-3.5-2.6-3.6-1.5-0.2-1.7-3.1-4.4-0.5l-3.6-0.1-1.4-0.8-1.1-2.2c-1 3.8-2.6 1.9-2.6 3.8-0.7-0.2-1.6-0.7-1.5 0.9l-0.7 0.6-1.1 1.5-1.3 0.6-1.7 0.1-0.8-1.4 0.5-0.7-0.2-1.6-1.7-0.6-0.8-0.6-0.1-1.9 0.5-0.9 0.1-1.9-3.2-1.6-0.6-1.7 0.4-3.9c-2.3-3.3 1.4-1.9 0.3-4.7-2.7-0.9-2.3-2.1-1.2-3.4-0.6-1.9 0-4.3-2.3-5.2 0.3-0.4-0.2-0.8-0.6-1.1l1-2.2h-1.7c-1.7 0.6-2.3 1.8-3.4 2.7-0.5 0.1-1.1 0-1.1 2-1.8 1.1-1.5 1.8-3.7 2l-1.9 1.1-0.6 1.5c-1 0.1-1.8 1-2.7 2-0.2 0.1-0.1 0.5 0.8 1.4-0.5 0.9-1.1 1.4-1.7 2l-0.1 1.9 0.4 1v2.2l1.1 0.6v0.7c0.4 0.6 1.4 0.7 0.4 2.2l-0.1 0.6 1.7 1.4 0.1 1.3 0.9 1 0.3 3 1.1 1.6-0.1 0.9 0.6 0.5 0.2 2.7 0.6 0.9v1.4l-0.6 0.6h-0.5l-0.5 0.4-0.1 2.1-0.7 0.5-0.1 0.5-1.6 0.7-0.1 2.1-1.3 1.1-0.5-0.1v0.5l-0.7 0.7-0.1 0.7-0.5 0.3h-0.6l-0.4 0.4-0.8 0.1v0.3l-0.9 0.1v0.5l-0.5 0.3-2-0.3v0.7h-0.3l0.1 0.7-1.3 0.2-0.2 0.1-0.7 0.9h-0.8l-0.8 1-0.7 1h-0.5l-0.3-0.4h-1.2l-0.4-0.4h-1.4l-1 0.8h-1l-0.4-0.4h-0.4l-0.7-0.6-1.1 0.2-0.1-0.5h-0.1l-0.4 0.6 0.2 0.4v0.4c-0.1 0.5 0.2 0.9-0.1 1.1q-0.2 0.2-0.5 0.3c-0.2 0.2-0.3 0.4-0.6 0.5-0.1 0-0.4-0.1-0.4 0-0.1 0.2-0.2 0.3-0.4 0.3-0.2 0.1-0.4 0.2-0.6 0.2 0 0.2-0.1 0.3 0 0.5 0 0-0.2 0.1-0.3 0.1-0.2 0.1-0.3 0.1-0.4 0.4-0.1 0.2-0.1 0.5-0.2 0.7 0 0.3-0.1 0.3-0.4 0.3q-0.3 0-0.5 0.3c0 0.2 0 0.4-0.1 0.6-0.2 0.2-0.4 0.3-0.6 0.4-0.1 0.2-0.2 0.3-0.3 0.5-0.1 0.1-0.2 0.1-0.3 0.1 0.1 0.3 0.8 0.4 0.3 1v1c-0.3 0.1-0.6-0.4-0.7 0.8-0.8 0.3-0.4 1.1-0.6 1.6 0.5 0 0.4 0.3 0.4 0.5 0 0.3 0.3 1.3 0 1.3v0.5c0 0.1 0.6 0 0.7-0.5q0.1-0.2 0.2-0.3c0.2-0.2 0.3 0 0.4 0 0.2 0.1 0.2 0 0.2-0.1 0-0.1 0-0.3 0.1-0.4 0.1-0.1 0.3-0.1 0.4-0.1 0.2 0.1 0.3 0.2 0.4 0.3 0.1 0 0.3 0.1 0.4-0.1 0.1-0.1 0.3-0.2 0.4-0.1 0.2-0.1 0.3 0 0.4 0v-0.2c0-0.1-0.3-0.3-0.1-0.4v-0.2c-0.1-0.1-0.2-0.1-0.1-0.2q0.1 0 0.3 0c0.1 0.1 0.2 0.2 0.3 0.2 0.1 0 0.2-0.1 0.3-0.2 0-0.1 0.1-0.3 0.2-0.4 0-0.1 0.1-0.1 0.2-0.1q0.2 0 0.3 0.1 0.1 0.2 0.2 0.3l0.1 0.1c0.1 1.5 0.2 2 0.4 2.2 0.3 0 0.3 1.3 0.4 2.3 0 0.6 0.5 0.2 1 0.1 0.5-0.1 0 1.6 0.6 2.1 1.1 0.2 0.5 0.9 1.3 1.2-0.1 0.8-0.7 0.4-0.8 1.6-1.8 0-1.2 0.2-1.5 1.6-2.9 2.5 2.2 2.7 3.3 4 0 0.4-0.1 0.6-0.2 0.9-0.1 0.9 0.2 0.7-0.3 1.8-0.2 0.4 0.4 0.7 0.3 1.5 0 0.2 0.5 0.2 0.5 0.7-0.8 0.9 0.2 0.8-0.9 2.8 0.3 0.4 0.2 0.9 0.2 1.3 0.3 0.5 0.5 1 0.2 1.4 0.2 1.1 0.5 2.1-0.2 3.2l-0.1 1.8c-0.4 0.6-0.6 0.3-0.8 0.3-1 0 0.1 0.9-2.4 1.9q0.2 0.5 1.3 0.5c0.1 0.3 0.2 0.6 0.9 1 0.1 0.7 0.7 1.5 2.1 2.3 0.5-1 0.6-0.4 1.8-0.1 0 1.1 0.3 1.1 0.4 1.4-0.1 0.3-0.3 0.7 0.3 1.5-0.3 0.3-0.8 0.4-0.6 1.3-1-0.2-0.4 0.3-0.3 1.5 0.7 0.4 1.1 0.9 1.1 1.7l0.9 1c1.8-0.1 0.8 1.3 0.8 2.2l0.9 0.9 1.3 0.1 0.2 1.7c0.7 0.7 0.6 1.2 0 1.6 0.6 0.6 0.9 1.2-0.6 1.7l-0.6 0.7c0.8 1.4-1.4 1.4 0 1.9-0.3 0.8-0.1 1.5 1.5 1.9 0.5-0.6 0.9-0.9 1.3 0.1l0.6 0.4 0.2-0.5c0.4 0.5 0.8-0.1 1.7-0.4 0.6 0.7 1.2 0.9 2.1 1.5 0.7 0.1 0.9-0.9 1.8-1.3-0.2-1.5 0.9-1.8 0.7-3.2l3.1-0.3 1 0.2 1.7 0.1 1.2 1.4-0.2 1.5 0.2 2.1 1.1 2c-0.8 0.5-0.8 1.4 0 1.9 0.1 0.6 0.3 1.1 0.9 1 2.3-0.1-0.6 1.6-1.3 2.6 0.2 0.8 0.9 1.8-0.3 2.2 0 0.2-0.1 0.5 0.5 0.6 1.1-0.4 1.7 1.4 1.7 2.4l1.4 1.2c1.9-0.9 1.8 0.3 1.9 1.2 0.8 0.5 1.9 0.2 2.9 0.2l0.5-0.6 1.2 0.6 0.1 0.8c1.4 0.1-0.5 0.4 1.7 2.1-0.4 0.7-0.2 1.4 0 2.1-0.4 0.5-0.2 1.8 0.5 3.6q1 1.1 2 2.1z"/>
		<path id="map_metropolitana_Pirque" fill-rule="evenodd" class="map-metropolitana s1" data-siglaregion="RM" data-sigla="pirque" data-nombre="Pirque" d="m129.2 81.8l0.1 0.1c0.1 1.5 0.2 2 0.4 2.2 0.3 0 0.3 1.3 0.4 2.3 0 0.6 0.5 0.2 1 0.1 0.5-0.1 0 1.6 0.6 2.1 1.1 0.2 0.5 0.9 1.3 1.2-0.1 0.8-0.7 0.4-0.8 1.6-1.8 0-1.2 0.2-1.5 1.6-2.9 2.5 2.2 2.7 3.3 4 0 0.4-0.1 0.6-0.2 0.9-0.1 0.9 0.2 0.7-0.3 1.8-0.2 0.4 0.4 0.7 0.3 1.5 0 0.2 0.5 0.2 0.5 0.7-0.8 0.9 0.2 0.8-0.9 2.8 0.3 0.4 0.2 0.9 0.2 1.3 0.3 0.5 0.5 1 0.2 1.4 0.2 1.1 0.5 2.1-0.2 3.2l-0.1 1.8c-0.4 0.6-0.6 0.3-0.8 0.3-1 0 0.1 0.9-2.4 1.9-0.1 0.5-0.3-0.9-1.1 1-1 0.8-0.8-0.5-1.7 0l-0.4 0.4c-0.2-0.6-0.6-1.2-0.1-2-0.5 0.1-0.5-0.8-0.5-1.7-0.3 0.1-0.6 0.2-0.5-0.6-1.7-0.5-1.6 1-3.4-0.1-0.9 1-0.4-0.7-1.6-1.4q0.4-1-0.7-1c0.3-0.4 1.3-1.1 0.1-1.1 0.3-0.4-0.3-0.4-0.8-0.4-0.2-0.7-0.5-0.6-0.8-0.7-0.2 0-0.4-0.4-0.5-0.9-1.2 0.8-0.9-0.4-2.2-0.1-0.5 0.3-0.9 0.7-1.6 0.1l-0.2-2.7c-0.7-1.1-2-0.4-1.7-4.4l-0.8-0.3-0.1-1.2c-0.9 0.3-0.4-0.3-0.5-0.6-0.5 0.3-0.7 0.1-1-0.2q-0.4-0.8-0.9-0.7l0.1-0.8c-0.4 0-0.3-0.8-0.9-1.7-0.4-0.5-0.1-1 0-1.4 1.2-0.7 1-0.5 1.2-0.5v-0.4c0.7-0.7 0.2-1.2 0.3-1.2 0.1-0.1 0.2-0.1 0.2-0.2 0 0 0.2-0.3 0.2-0.3q0 0 0 0c0.3-0.2 0.6-0.2 0.9-0.1q0.3 0.1 0.6 0.1 0.2 0 0.3 0 0.1-0.1 0.3-0.1 0.1 0 0.2 0 0.1 0 0.2 0c0.3-0.1 0.5-0.3 0.7-0.2 0.3 0 0.5-0.3 0.6 0.1 0.5 0.1 0.6-0.6 0.9-0.7q0.2 0 0.3 0.1 0.1 0 0.1 0 0.1 0 0.1 0 0-0.1 0.1-0.2 0.1-0.2 0.2-0.6c0.2-0.4 0.7-0.3 1-0.3 0-0.4 0.4-0.9 0.7-0.5q0.2 0 0.3 0 0.1 0 0.2 0c0.2-0.1 0.4-0.3 0.6-0.4 0.4-0.1 0.9 0.1 1.2 0.2 0.4-0.1 0.6-0.8 1-0.4 0.2 0.1 0.4 0.2 0.7 0.1q0 0 0.1 0 0-0.1 0.1-0.1c0-0.2 0-0.3 0-0.4-0.1-0.2 0.2-0.2 0.2-0.2 0.1 0 0.1 0.3 0.1 0.4 0.1 0.1 0.2 0.1 0.4 0.1 0.1 0 0.3-0.2 0.3-0.3 0-0.2 0.2-0.1 0.2-0.4q0 0-0.1-0.1 0 0 0 0c0-0.1 0-0.1 0-0.3 0-0.2 0.2 0 0.3 0q0.1 0 0.1 0 0.1 0 0.1 0 0 0 0.1 0 0 0 0.1-0.1c0.1 0 0.1-0.2 0.2-0.3q-0.1 0 0-0.1c0-0.1 0-0.2-0.1-0.4 0 0 0-0.1 0.1-0.1q0-0.1 0.1-0.1 0.1 0 0.1 0c0 0.1 0.6 0 0.7-0.5q0.1-0.2 0.2-0.3c0.2-0.2 0.3 0 0.4 0 0.2 0.1 0.2 0 0.2-0.1 0-0.1 0-0.3 0.1-0.4 0.1-0.1 0.3-0.1 0.4-0.1 0.2 0.1 0.3 0.2 0.4 0.3 0.1 0 0.3 0.1 0.4-0.1 0.1-0.1 0.3-0.2 0.4-0.1 0.2-0.1 0.3 0 0.4 0v-0.1c0-0.2-0.3-0.4-0.1-0.5v-0.2c-0.1-0.1-0.2-0.1-0.1-0.2q0.1 0 0.3 0c0.1 0.1 0.2 0.2 0.3 0.2 0.1 0 0.2-0.1 0.3-0.2 0-0.1 0.1-0.3 0.2-0.4 0-0.1 0.1-0.1 0.2-0.1q0.2 0 0.3 0.1 0.1 0.2 0.2 0.3z"/>
		<path id="map_metropolitana_San_Bernardo" fill-rule="evenodd" class="map-metropolitana s1" data-siglaregion="RM" data-sigla="san_bernardo" data-nombre="San Bernardo" d="m100.6 75.6l2.1 0.9 2.1 0.9-0.8 2.1-0.3-0.1v1l-0.5 1.2 2.7 1.1 1.2 0.3-0.6 2.7 2.6 0.2-0.2 1.4h0.2l-0.1 0.7h1.8l-0.1 1-0.3 0.5c0 0-0.2 0.3-0.2 0.3 0 0.1-0.1 0.1-0.2 0.2-0.2 0.2-0.3 0.2-0.5 0.2-0.2 0-0.1 0.1-0.2 0.1-0.3 0.1-0.6 0-0.8 0.1-0.1 0.1-0.1 0.2-0.1 0.3-0.2 0-0.4 0-0.6 0-0.1 0 0 0.1-0.1 0.1 0 0.1-0.1 0.1-0.1 0.1-0.1 0.2-0.1 0.2-0.3 0.3-0.1 0.3-0.4 0.5-0.6 0.6-0.1-0.1-0.1-0.1-0.2-0.1q-0.2 0-0.3 0c-0.1 0 0 0.4-0.3 0.3 0 0-0.1-0.2-0.1-0.2-0.1 0.3-0.2 0.2-0.3 0.2q-0.1 0.2-0.2 0.3c-0.1 0.1-0.3 0.1-0.4 0.1-0.4-0.1-0.2-0.1-0.3-0.2-0.1 0-0.6-0.1-0.6-0.1l-1.2 0.6c-1.1 0.3-0.6 1.3-0.8 2.1-1 1.5-1.5 0.2-3.6 2.2l-1.8 1.2c-1.1-0.1-0.9 1-1.8 1.8-0.3 0.6-0.7-0.2-1 1.1-0.9-0.3-1.6 2.4-2.2 2.1-1-0.9-0.3-1.6-0.2-1.6 0.6-0.5 0.3-0.9 0.2-1.3 0.3-0.4 0-0.8-0.1-1.2 0-1 1.4 1.1 1.6-0.5-0.1-0.7 0.4-1 1.2-1.9 0.5-0.4 0.1-0.6 0-0.8-0.2-2-1.2-2-0.6-3.2 1.9-3.6 2.8-0.7 4.2-0.4h1.5c0.5-0.4 0.4-1.1 0.5-1.6l0.2-0.7c-0.9-0.3-0.6-0.4-0.7-0.5l-0.2-0.8h-0.3c-0.5-0.1-0.3-0.9-0.9-1.2v-0.3l0.9-0.3c-1-1.2 0.1-1.7-0.9-1.9 0.9-0.7 1.3-0.6 1.3-0.9-0.7 0-0.9-1.8-1.3-1.7v-0.5c-0.8-0.4-1.1-0.2-1.3-0.4z"/>
		<path id="map_metropolitana_Calera_de_Tango" fill-rule="evenodd" class="map-metropolitana s1" data-siglaregion="RM" data-sigla="calera_de_tango" data-nombre="Calera de Tango" d="m91 85.2l0.4-0.6 0.4-0.4 0.6-0.1 1.2-2.2h1.1l0.2-0.8 1.8 0.4c0.2 0.2 0.5 0 1.3 0.4v0.5c0.4-0.1 0.6 1.7 1.3 1.7 0 0.3-0.4 0.2-1.3 0.9 1 0.2-0.1 0.7 0.9 1.9l-0.9 0.3v0.3c0.6 0.3 0.4 1.1 0.9 1.2h0.3l0.2 0.8c0.1 0.1-0.2 0.2 0.7 0.5l-0.2 0.7c-0.1 0.5 0 1.2-0.5 1.6h-1.5c-1.4-0.3-2.3-3.2-4.2 0.4l-1-0.4-0.4-2.3h-0.8l-1.3 2.3-3.4-1.4 1.8-1.8 2.6-3.3z"/>
		<path id="map_metropolitana_Buin" fill-rule="evenodd" class="map-metropolitana s1" data-siglaregion="RM" data-sigla="buin" data-nombre="Buin" d="m107 103.2c0.5 0.1 0.6-0.8 1-1.1 0.1 0 0.4-0.6 0.5-0.6 0.4 0 0.4 0.3 0.7 0.5 0.2 0.1 0.8 0.1 0.9 0.3 0.2 0.5 0.3 0 0.6 0 0.4-0.1 0.2-0.3 0.3-0.7 0.5-0.1 0.3-0.5 0.5-0.6q0.6 0 1.1 0c-0.1-0.5-0.1-1.2 0-2l-0.8-0.3-0.1-1.2c-0.9 0.3-0.4-0.3-0.5-0.6-0.5 0.3-0.7 0.1-1-0.2q-0.4-0.8-0.9-0.7l0.1-0.8c-0.4 0-0.3-0.8-0.9-1.7-0.4-0.5-0.1-1 0-1.4 1.2-0.7 1-0.5 1.2-0.5v-0.4c0.7-0.7 0.2-1.2 0.3-1.2-0.2 0.2-0.3 0.2-0.5 0.2-0.2 0-0.1 0.1-0.2 0.1-0.3 0.1-0.6 0-0.8 0.1-0.1 0.1-0.1 0.2-0.1 0.3-0.2 0-0.4 0-0.6 0-0.1 0 0 0.1-0.1 0.1 0 0.1-0.1 0.1-0.1 0.1-0.1 0.2-0.1 0.2-0.3 0.3-0.1 0.3-0.4 0.5-0.6 0.6-0.1-0.1-0.1-0.1-0.2-0.1q-0.2 0-0.3 0c-0.1 0 0 0.4-0.3 0.3 0 0-0.1-0.2-0.1-0.2-0.1 0.3-0.2 0.2-0.3 0.2q-0.1 0.2-0.2 0.3c-0.1 0.1-0.3 0.1-0.4 0.1-0.4-0.1-0.2-0.1-0.3-0.2-0.1 0-0.6-0.1-0.6-0.1l-1.2 0.6c-1.1 0.3-0.6 1.3-0.8 2.1-1 1.5-1.5 0.2-3.6 2.2l-1.8 1.2c-1.1-0.1-0.9 1-1.8 1.8-0.3 0.6-0.7-0.2-1 1.1-0.9-0.3-1.6 2.4-2.2 2.1-0.2 0.3-0.3 0.3-0.4 0.6-0.3 0.6-0.2 0.8-0.8 1.1-0.6 0.3-0.5 0.8-0.7 1.2-0.5 0.2-0.6 0.6-0.9 1.5-0.1 0.2-0.6 0-0.7 0.1-0.3 0.7-0.7 1.9-1.6 1.1-0.2 0.1-1 0.3-1.2 0.3-0.4-0.2-0.8-0.2-1.5 0.3 0.2 0.4 1.1 0.7 1.5 0.8 0.8 0.3 0.5-0.9 1.2-0.3 0.5 0.4 1 0.3 1.5 0.8 0.4 0.5 0.8 0.6 1.5 0.7 0.4 0.3 0.4 1 1 1 0.5 0 1-0.2 1.5-0.4 0.5-0.2 1.1 0 1.7-0.1 0.6-0.2 1.5 0.5 1.7 0.5l2.2-2.6 0.5 0.6 0.1-1.1 0.6-3.9h1.4l-0.1 1.6 3.7 0.1v0.5l1.3-0.4 0.1-4z"/>
		<path id="map_metropolitana_Paine" fill-rule="evenodd" class="map-metropolitana s1" data-siglaregion="RM" data-sigla="paine" data-nombre="Paine" d="m112.6 101c0.2 1.8 1.1 1.6 1.7 2.4l0.2 2.7c0.7 0.6 1.1 0.2 1.6-0.1 1.3-0.3 1 0.9 2.2 0.1 0.1 0.5 0.3 0.9 0.5 0.9 0.3 0.1 0.6 0 0.8 0.7 0.5 0 1.1 0 0.8 0.4 1.2 0 0.2 0.7-0.1 1.1q1.1 0 0.7 1c1.2 0.7 0.7 2.4 1.6 1.4 1.8 1.1 1.7-0.4 3.4 0.1-0.1 0.8 0.2 0.7 0.5 0.6 0 0.9 0 1.8 0.5 1.7-0.5 0.8-0.1 1.4 0.1 2 0.3 0.6 0.1-0.2-1-0.2-1.1 0.1-2.9-0.1-2.5 1.5-0.5 0.8-1.3 2.3-2.3 1.5-0.8 1.1-1.4-1.1-2.5-0.4-0.8 0.2-1.1 0-1.5 1-0.8 0.5-1.6 1.3-2.4 0.4-1.6 0-1.7 0.2-2.3 1.1-0.2 0.3-0.6 0-0.9 0.2-0.5 0.4 0.2 1.3-0.8 1.5-1.1 0-1.2 0.8-1.2 1.5-0.9 0.7-2.1 2.3-3 0.7-0.7-0.9-1.8-1.4-1.8-2.5-0.6-0.9-2.1-1.6-2.7 0.1-0.6 0.4-0.4 0.6-1.1 0.7-0.3 0.7-1.9-0.3-1.9 1.1-1.5 1.8-1.9 2.3-2.9 1.4-1.2-0.2-2.7-2.2-3.2-0.3 0.1 1.3-1.1 1.5-2 1.9-0.2-0.5-0.4-0.7-0.6-0.4-0.1 0.2-0.4 0.3-0.8 0.3-0.4 0-0.4 0.2-0.5 0.4-0.1 0.2-0.3 0.5-0.4 0.7-0.1 0.3-0.2 0.2-0.1 0.6 0.1 0.4-0.2 0.3-0.5 0.3-0.1 0-0.3 0.3-0.4 0.4-0.1 0-0.5 0.4-0.5 0.4-0.1 0.2-0.3 0.4-0.5 0.4-0.2 0-0.5 0.2-0.6 0.2-0.2 0.2-0.1 0.3-0.5 0.3-0.2 0-0.3 0.3-0.6 0.3-0.3 0-0.4 0-0.8-0.2-0.5-0.2-0.2-0.2-0.5-0.6-0.2-0.2-0.2-0.3-0.5-0.5-0.2-0.1-0.5 0.1-0.8 0-0.3-0.1-0.6-0.2-0.9-0.2-0.1 0-0.5 0.2-0.6 0.3-0.3 0.1-0.6-0.3-0.9-0.3-0.5 0-0.6-0.1-1-0.1-0.4 0-0.7-0.1-1.1-0.4q-0.1-0.1-0.2-0.2c-0.4-0.2-0.1-0.3 0-0.5 0.4-0.4 0.6-0.3 0.6-0.6 0-0.1-0.5-0.5-0.5-0.6-0.1-0.1 0.3-0.2 0.4-0.4 0-0.3 0.2-0.5 0.3-0.8 0.1-0.4 0.3-0.4 0-0.7-0.4-0.3-0.5-0.1-0.3-0.5 0.2-0.3 0.1-0.7 0-0.9-0.1-0.1-0.2-0.4-0.3-0.6 0-0.1-0.2-0.3-0.3-0.4-0.1-0.1 0-0.2-0.2-0.4-0.2-0.2-0.9-0.7-0.9-1 0.2-0.2-0.3-0.9 0.1-1.3-0.1-0.5-0.3-0.7 0-1.2 0.3-0.6-0.8-0.5-0.5-1.1 0.3-0.2 0.1-1.2 0-1.5-0.4-0.6-0.4-0.5-0.2-1.1-0.1-0.5 0.2-1.2-0.2-1.6-0.4-0.1-1-0.6-0.7-1.1-0.1-0.3 0.1-0.7 0.2-1.1-0.1-0.4-0.2-0.9 0.2-1.4-0.4-0.2-0.1-0.7 0.1-1.1 0.2-0.3-0.3-0.3 0.1-0.3 0.4 0.1 0.6 0 0.8-0.4 0.2-0.2 0.7-0.3 1-0.3 0.3 0 0.6 0.2 0.9 0.4-0.2 0.3 0.5 0.4 0.6 0.1 0.1-0.4 0.7-0.1 1-0.1 0.4-0.1 0.4 0.6 0.8 0.5 0.3-0.2 0.7-0.2 1-0.3 0.1-0.3 0.4-0.6 0.4-1-0.1-0.3-0.1-0.7 0-1.1 0.1-0.3 0.3-0.7 0.2-1.1-0.1-0.3 0.3-0.4 0.5-0.1 0.3 0.2 0.2 0.6 0.4 0.9 0.3 0.3-0.2 0.4-0.3 0.5 0.1 0.3 0.7 0.2 0.4 0.5 0 0.3-0.7 0.4-0.4 0.7 0.3 0.2 0.7 0.4 0.9 0.7 0.2 0.3-0.3 0.3-0.1 0.8 0.2 0.4 1.1 0.7 1.5 0.8 0.8 0.3 0.5-0.9 1.2-0.3 0.5 0.4 1 0.3 1.5 0.8 0.4 0.5 0.8 0.6 1.5 0.7 0.4 0.3 0.4 1 1 1 0.5 0 1-0.2 1.5-0.4 0.5-0.2 1.1 0 1.7-0.1 0.6-0.2 1.5 0.5 1.7 0.5l2.2-2.6 0.5 0.6 0.1-1.1 0.6-3.9h1.4l-0.1 1.6 3.7 0.1v0.5l1.3-0.4 0.1-4h1.8c0.5 0.1 0.6-0.8 1-1.1 0.1 0 0.4-0.6 0.5-0.6 0.4 0 0.4 0.3 0.7 0.5 0.2 0.1 0.8 0.1 0.9 0.3 0.2 0.5 0.3 0 0.6 0 0.4-0.1 0.2-0.3 0.3-0.7 0.5-0.1 0.3-0.5 0.5-0.6q0.6 0 1.1 0z"/>
		<path id="map_metropolitana_Padre_Hurtado" fill-rule="evenodd" class="map-metropolitana s1" data-siglaregion="RM" data-sigla="padre_hurtado" data-nombre="Padre Hurtado" d="m90 82.8v0.5l1.4 1.3 0.4-0.4 0.6-0.1 1.2-2.2h1.1l0.2-0.8-1.5-1.5-1.8-1.6c0.2 0 0.3-0.1 0.4-0.2 0.1-0.1 0.1-0.1 0.1-0.3 0-0.2 0.1-0.2 0.3-0.3 0.2 0 0.3 0 0.4-0.1q0.1-0.5-0.3-0.8c-0.6-0.3-0.6 0.9-1.2 0.9q-0.5-0.2-1-0.3c-0.2 0.1-0.4 0.1-0.6 0.1-0.5-0.1-0.8 0.1-1.3 0.2-0.6 0-0.9-0.6-1.3-0.8-0.4 0.2-0.8 0.6-1.2 0.4-0.1-0.1-0.3-0.3-0.5-0.4-0.2-0.1-0.3-0.1-0.5-0.1-0.1 0.1-0.1 0.1-0.2 0.2-0.2-0.1-0.3-0.2-0.2-0.4 0-0.2-0.1-0.2-0.3-0.3-0.1-0.1-0.2-0.3-0.3-0.4 0-0.1-0.2-0.2-0.3-0.2-0.5 0-0.6-0.3-0.6-0.6-0.3-0.4-0.6-0.4-1-0.5-0.4 0-0.8 0.2-1.1 0.3 0.1 0.1 0.1 0.2 0 0.3-0.1 0.1 0 0.3 0 0.5 0 0.2 0 0.3-0.1 0.5-0.1 0.4-0.2 0.5-0.3 0.9 0 0.3-0.1 0.3-0.1 0.9 0 0.3-0.2 0.6-0.3 1 0 0.5-0.2 0.5-0.5 0.8-0.2 0.4-0.4 0.2-0.7 0.5 0 0.1-0.2 0.5-0.5 0.4-0.2 0.1-0.1 0.6 0 0.9 0 0.1 0.2 0 0.3 0.1 0.1 0.1 0 0.4 0.1 0.5 0.2 0.2 0 0.1 0.2 0.3 0.1 0.1 0.4-0.1 0.4 0.1 0 0.1-0.1 0.5-0.2 0.5-0.1 0.1 0.3 0.4 0.3 0.5 0.1 0.1 0 0.3 0.2 0.3 0.2 0.1 0.3 0.2 0.5 0.2 0-0.1 0.3-0.1 0.4-0.2 0.2-0.1 0.6 0 0.9 0.1 0.7-0.1 1.3-0.1 2 0 0.1 0 0.2 0.1 0.3 0.2 0.1-0.1 0.2-0.3 0.2-0.7 0.2-0.1 0.4-0.3 0.6-0.5 0.3-0.1 0 0.4 0.3 0.2 0.2-0.2 0.4-0.2 0.5-0.4 0.3 0 0.2 0.4 0.5 0.4 0.1-0.2 0.4-0.6 0.5-0.6h1.9l0.1 0.5 0.3 0.1z"/>
		<path id="map_metropolitana_Penaflor" fill-rule="evenodd" class="map-metropolitana s1" data-siglaregion="RM" data-sigla="penaflor" data-nombre="Peñaflor" d="m88.6 89.1l2.6-3.3-0.2-0.6 0.4-0.6-1.4-1.3v-0.5l-1.3-0.1-0.3-0.1-0.1-0.5h-1.9c-0.1 0-0.4 0.4-0.5 0.6-0.3 0-0.2-0.4-0.5-0.4-0.1 0.2-0.3 0.2-0.5 0.4-0.3 0.2 0-0.3-0.3-0.2-0.2 0.2-0.4 0.4-0.6 0.5 0 0.4-0.1 0.6-0.2 0.7-0.1-0.1-0.2-0.2-0.3-0.2-0.7-0.1-1.3-0.1-2 0-0.3-0.1-0.7-0.2-0.9-0.1-0.1 0.1-0.4 0.1-0.4 0.2l-0.5-0.1c-0.4 0.5-0.6 1.8-1.5 1.3l-0.4 0.8c-0.2 0.8 0.1 1.6-1.4 2.3-0.2 1.3 1 1.2 0.9 2.4l2.4 0.3 0.2-0.9 1.2-0.1v0.4h0.7l0.3-0.8h1.1l2.8-0.6 1.5 0.6z"/>
		<path id="map_metropolitana_Talagante" fill-rule="evenodd" class="map-metropolitana s1" data-siglaregion="RM" data-sigla="talagante" data-nombre="Talagante" d="m91.5 99.1c0-1 1.4 1.1 1.6-0.5-0.1-0.7 0.4-1 1.2-1.9 0.5-0.4 0.1-0.6 0-0.8-0.2-2-1.2-2-0.6-3.2l-1-0.4-0.4-2.3h-0.8l-1.3 2.3-3.4-1.4 1.8-1.8-1.1 0.1-1.5-0.6-2.8 0.6h-1.1l-0.3 0.8h-0.7v-0.4l-1.2 0.1-0.2 0.9-2.4-0.3c0.3 1.1 1.4 0.4 2.4 1.7 0 1.5-1.5 1.1-3.2 2.5-0.8-0.1-1.8 2.5-2.8 2.1-0.5 0-0.9 0.3-1.2 1-0.5-0.1-1 0-1 0.9 1 0.2 2.4 1.7 3 0.7h1.6c0.5 0.4 1.8 0.3 1.8-0.1l4.1-0.3c0.4-1.8 1.5-1.1 1.5-2.4l5.2 2.1 0.4-0.9 1.2 1 0.2 0.3z"/>
		<path id="map_metropolitana_El_Monte" fill-rule="evenodd" class="map-metropolitana s1" data-siglaregion="RM" data-sigla="el_monte" data-nombre="El Monte" d="m76.4 87.9c-0.2 1.3 1 1.2 0.9 2.4 0.3 1.1 1.4 0.4 2.4 1.7 0 1.5-1.5 1.1-3.2 2.5-0.8-0.1-1.8 2.5-2.8 2.1-0.5 0-0.9 0.3-1.2 1-0.6-0.1-1 0.2-1 0.9-0.7 0.2-1.7 0.3-2.5 1.2h-2.5c-1.7-0.1-0.9-0.8-2.8-1.2 0.6-1-0.2-1.2-0.7-1.3l0.2-1.1-1.1-0.5-0.1-0.6h0.8l0.6-5.9c0.9 0.2 1.2-0.3 1.8-0.8 0.2-0.1 0.5-0.1 0.8 0 0.4 0.4 0.6 0.5 1.1 0.7 0.4 0 0.2 0.3 0.4 0.4 0.6 0 1.2 0.1 1.8 0.3 0.2 0 0.4 0.2 0.7 0.2 0-0.5-0.1-0.7 0.4-1.2 0.2-0.2 0.3-0.5 0.3-0.6 0.6-0.1 0.9 0.3 1.5-0.2 0.6-0.1 0.6-0.7 1-1 1.1-0.2 2.4 0.3 3.2 1z"/>
		<path id="map_metropolitana_Isla_de_Maipo" fill-rule="evenodd" class="map-metropolitana s1" data-siglaregion="RM" data-sigla="isla_de_maipo" data-nombre="Isla de Maipo" d="m75.7 108.7c0.4 0.1 0.6 0 0.8-0.4 0.2-0.2 0.7-0.3 1-0.3 0.3 0 0.6 0.2 0.9 0.4-0.2 0.3 0.5 0.4 0.6 0.1 0.1-0.4 0.7-0.1 1-0.1 0.4-0.1 0.4 0.6 0.8 0.5 0.3-0.2 0.7-0.2 1-0.3 0.1-0.3 0.4-0.6 0.4-1-0.1-0.3-0.1-0.7 0-1.1 0.1-0.3 0.3-0.7 0.2-1.1-0.1-0.3 0.3-0.4 0.5-0.1 0.3 0.2 0.2 0.6 0.4 0.9 0.3 0.3-0.2 0.4-0.3 0.5 0.1 0.3 0.7 0.2 0.4 0.5 0 0.3-0.7 0.4-0.4 0.7 0.3 0.2 0.7 0.4 0.9 0.7 0.2 0.3-0.3 0.3-0.1 0.8 0.7-0.5 1.1-0.5 1.5-0.3 0.2 0 1-0.2 1.2-0.3 0.9 0.8 1.3-0.4 1.6-1.1 0.1-0.1 0.6 0.1 0.7-0.1 0.3-0.9 0.4-1.3 0.9-1.5 0.2-0.4 0.1-0.9 0.7-1.2 0.6-0.3 0.5-0.5 0.8-1.1 0.1-0.3 0.2-0.3 0.4-0.6-1-0.9-0.3-1.6-0.2-1.6 0.6-0.5 0.3-0.9 0.2-1.3 0.3-0.4 0-0.8-0.1-1.2l-1-0.2-0.2-0.3-1.2-1-0.4 0.9-5.2-2.1c0 1.3-1.1 0.6-1.5 2.4l-4.1 0.3c0 0.4-1.3 0.5-1.8 0.1h-1.6c-0.6 1-2-0.5-3-0.7-0.7 0.2-1.7 0.3-2.5 1.2h-2.5c-1.7-0.1-0.9-0.8-2.8-1.2-0.1 0.7-0.9 1.1-1.4 1.5-0.5 0.2-1.5 1.3-0.1 2.4 0.9 0.2 1.7-0.2 2.8 0.9 0.7 0.2 0.2 1.7 2.4 0.6 0-0.5 0.3-0.7 1.4-0.1 1.1 0 1.6 0.2 1.4 0.6 1-0.2 1.3 0.8 1.9 1.4 0.1 0.6 0.9 0 1.4 0 0.1 0.9 0.6 0.8 1.2 0.5 1.4 0 0.7 1.6 1 2.4z"/>
		<path id="map_metropolitana_Colina" fill-rule="evenodd" class="map-metropolitana s1" data-siglaregion="RM" data-sigla="colina" data-nombre="Colina" d="m92.9 33.9c1.3-0.6 2.3 0.5 3.5 0.7 0.7 0.1 1.2-0.8 1.7-1 1.1-0.1 0.6-0.8 0.3-1.3-0.3-2-1.3-1.6-1.9-3.3-0.4-1 1.2-1.8 0.2-2.9-1-1.2 0.7-1.9 0.8-3.1 0.5-1.2-1.1-2.8-2.1-3.3-0.8-0.3 1.7-1.3 0.5-2.3 1-1.5 0.6-1.5 0.6-2 0.7-0.8 0.6-0.9-0.3-1.4-0.3-1-0.2-2.2-0.9-2.9 0.7-0.5 1.3-1.1 1.8-1.8 0.9-0.4 2.4-0.5 2.6-1.8 0.1-0.6 1.1-0.3 0.9-0.9l-0.1-0.9c0.4 1.8 1.7 0.2 2.6 0.1 2 1 1.1-0.2 3.9-0.4 0.9-0.8 2.1-1.3 3.3-1.1 0.5 0.9 0.8 0.1 1.2-0.2 1.1 0.2 1.5 1 1.9 1.6 0.1 0.6-0.4 1.8 0.1 1.9 0.5 0.2 1.5 0 1.8 1.3 1 1.1 1.9 2.4 2.9 3.5-0.3 1.2-1.5 2.9 0.3 3.5 1.4 0.5 2.3 1.9 2.1 3.3 0.6 0.5 1.1 1.6 1.4 2.2 0.3 0.6 1.2-0.1 1.9-0.2 1.7-0.4 0.5-1.9 1-1.9 2 0.1 1-0.6 1.1-1.4 0.7-1.1 1.1-2.4 2.1-3.1 0-1.1 1.2-2 2.2-1.4 1.4 0.3 3.1 0.7 2.7 2.5 0.9 1.2-1.4 2.1-0.3 3.3 1.2 0.7 0.8 2.5 2.3 2.9l1 1.6c-0.2 1-0.1 2.4-1.4 2.1-0.1 0.3 0.1 1-0.5 0.7-0.2 0.6-0.5 0.4-0.7 0.5-0.4 0.4-1.1 0.4-1.8 0.3-0.2 0.6-2.1 1-2.3 2.8-0.4 0.1-0.6 0-1 1 0 0.3 0.2 1-0.1 0.9-0.5 0.3-0.8 0.5-0.7 0.7-0.2 0.5-0.3 1-0.7 1 0.3 3-0.8 1.4-0.6 2.6 0.2 0.6 0.4 1.1-0.6 2.8-1.2-0.5-2.6 0.4-4.1 0.2-0.1 0.6 0 1.6-0.7 1.6-0.4 0.9-0.8 0.2-1.5 0.8-0.4-0.2-0.7-0.2-1.2 0.1h-0.9c-0.3 0.5-0.6 0.9-0.5 1.4-0.6 0.2-0.1 0.5-1 1.7 0.3 0.9 0.2 2.3-0.5 2.6-0.7 0.3-0.8 0.6-1.4 1 0.4 1.8-1.9 0.4-0.8 2v1c0.4 1.1 1 1 0.6 1.7-0.6 0.2-0.9 0.1-1 0-0.2 0.3-0.5 0.2-0.8 0.2-0.3 0.1-0.3 0.3-0.5 0.3-0.6 0.2-0.7-0.1-0.9-0.1q-0.3 0-0.6 0c-0.1 0-0.1-0.3-0.2-0.2q-0.2 0.2-0.4 0.4c-0.2 0.2-0.1 0.3-0.3 0.1-0.1-0.1-0.3-0.2-0.4-0.2-0.4 0.2-0.2 0.1-0.5 0 0.1-0.2 0.2-0.4 0.1-0.5-0.2-0.1-0.2-0.4-0.4-0.5-0.3-0.2-0.4-0.6-0.7-0.5-0.1 0-0.3 0.3-0.5 0.1 0-0.1-0.2-0.2-0.3-0.2-0.3 0-0.5 0.1-0.6 0.4q-0.1-0.2-0.3-0.2c-0.2 0-0.4 0-0.6 0v-0.5h-0.4l-0.1-0.3c-0.1-0.2 0-0.2 0.1-0.1l0.1 0.2c-0.1-0.2 0.2-0.6-0.6-0.5-0.2-0.2-0.2-0.5-0.7-0.4l-0.2 0.1h-0.3l-0.5-0.4h-0.6l-0.2 0.9-0.6 0.1-6.6-16.5c-0.7 0-0.9-0.6-1.2-1z"/>
		<path id="map_metropolitana_Lampa" fill-rule="evenodd" class="map-metropolitana s1" data-siglaregion="RM" data-sigla="lampa" data-nombre="Lampa" d="m77.8 59.7c0.2-0.1 0.1-0.4 0.3-0.4 1.6-0.6 1.4-1.1 1.7-0.7 0.5 0.3 0.9-1 2.1-1.1l1.1 0.7c1.7 0.6 2.5-0.7 4.1 0.1 1.3 0.9 0.7 0.1 1.6 1.1 1.8-1.3 1.6-3.1 2.7-3.1 0.5 0 0.9-1.1 1.4-1.9-0.2-0.5-0.4-1.1-0.2-1.3h0.7l0.2 0.3 7.2-2-6.6-16.5c-0.7 0-0.9-0.6-1.2-1-0.4-0.5-2.8 0.2-2.7 1.3-1.1 0.4-1.8-0.7-2.9-0.1-1.1 0.5 0.8 1.4-0.4 2.1-1.2 0.9-0.2 2.9-1.9 3.5-2.1 0.4-0.8-1.9-1.8-1.8-0.7 0-0.1 0.3-0.1-1.1 0.2-0.7 0.4-1.4 0-2.3-0.6-1.4-2.3 0-3.4 0.1-0.9 0.6-1.1-1.2-2.6-1.3-1 0.1-1.8 1-2.7 0-1.8-0.6-0.1 2-1.9 0.7 0.1 0.6 0 0.9-0.8 1.3-0.1 0.2 0.4 0.7 0.6 1 0.4 1.2-1.4 2.7 0.1 3.6 0.3 0 0-0.4 0.3 0.7 0.2 0.9 1.4 2.2 1.4 3.3 0.1 0.6-0.1 1.1 0.1 1.2 1.1 0.4 0.3 1.6 0.7 2.1 0.8 0 0.9 1.1-0.4 0.9-0.9 0.1-0.9 1.2-1.8 1-0.2 0.8-0.3 1.7-0.9 2.2-0.4 0.3 0.6 1 0.7 1.5-0.2 1.6 1.7 1.3 1.7 2.8-0.2 1 1.9 0.7 1.5 2.3 0.5 0.2-0.4 0.2 2.1 0.8z"/>
		<path id="map_metropolitana_Tiltil" fill-rule="evenodd" class="map-metropolitana s1" data-siglaregion="RM" data-sigla="til_til" data-nombre="Til Til" d="m100.5 5.7l-0.6-0.3c-0.1-0.1 0.1-1.7 0-2.1-0.3-0.5-1.1-1.5-2.6-1.2-2.4 0.7-2.1 2.1-2.7 0.7-1.1-0.2-2.1-0.9-3.5-0.4-0.5 0.2-0.6 0.4-1.2 0.4-0.9 0-1.7-0.4-2.5-0.3-0.2 0.2-0.8 0.5-0.9 0.5-3.2-0.2-1.7 0.5-2.4 0.5-0.3 0.5-1 0.4-1.6 0.4-0.9-0.3-1.3-0.6-2 0.9-0.2 0.7-0.7 1-1 1.8-0.3 0.7-0.3 1.8-1.4 1.6-0.7-0.2-1.3-0.9-1.9-0.4-0.7 0.4-1.3 0.9-2.2 1-0.8 0-1.6 0-2.4-0.1-0.7 0-1.6-0.2-2.2 0.1 0 0.8-0.4 1.2-0.7 1.8 0.5 0.5 0.5 1.1 0.1 1.6 0.8 0.5 0.8 1.6 1.6 3.2 0.1 1.8 1.3 1.5 0.9 2.3-0.3 1-0.7 1.1-1 2.7-1.2 0.7-1.2 0.9-1.2 1.8 0.5 0.5 1.3 0.7 1.2 1.5-0.8 2.4-0.1 2.1 0.1 4.4 0.8 0.8 0 1.3 0.3 2.1 0.6 0.3 0.8 0.9 1 1.3 0.4 0.7 0.8 1.3 1.1 2 0.9 0.8-0.5 0.5-0.3 1.5 1.8 1.3 0.1-1.3 1.9-0.7 0.9 1 1.7 0.1 2.7 0 1.5 0.1 1.7 1.9 2.6 1.3 1.1-0.1 2.8-1.5 3.4-0.1 0.4 0.9 0.2 1.6 0 2.3 0 1.4-0.6 1.1 0.1 1.1 1-0.1-0.3 2.2 1.8 1.8 1.7-0.6 0.7-2.6 1.9-3.5 1.2-0.7-0.7-1.6 0.4-2.1 1.1-0.6 1.8 0.5 2.9 0.1-0.1-1.1 2.3-1.8 2.7-1.3 1.3-0.6 2.3 0.5 3.5 0.7 0.7 0.1 1.2-0.8 1.7-1 1.1-0.1 0.6-0.8 0.3-1.3-0.3-2-1.3-1.6-1.9-3.3-0.4-1 1.2-1.8 0.2-2.9-1-1.2 0.7-1.9 0.8-3.1 0.5-1.2-1.1-2.8-2.1-3.3-0.8-0.3 1.7-1.3 0.5-2.3 1-1.5 0.6-1.5 0.6-2 0.7-0.8 0.6-0.9-0.3-1.4-0.3-1-0.2-2.2-0.9-2.9 0.7-0.5 1.3-1.1 1.8-1.8 0.9-0.4 2.4-0.5 2.6-1.8 0.1-0.6 1.1-0.3 0.9-0.9z"/>
		<path id="map_metropolitana_Alhue" fill-rule="evenodd" class="map-metropolitana s1" data-siglaregion="RM" data-sigla="alhue" data-nombre="Alhué" d="m77.5 122.5c-0.2-0.2 0.2 0.8-0.1 0.7-0.3-0.1-0.6-0.1-0.9-0.4-1.3-0.7-1.8-2.7-3.4-2.7-0.6-0.8-1.3-0.6-1.9 0.2-0.3 1.4-2.7-0.2-4.1-0.3-2.3-0.3-2.2 0.5-2.3 1.8 0.3 1.1-0.2 1.8-0.6 2.7-1 0.4-0.8 1.8-1.9 1.9-2.2 0-2.5 0.7-3.7 0.4-1.6-0.9-0.6 2.7-3.1 1.6-0.3-1-0.7 0.1-1.4 0-0.4-0.2-0.7-0.1-1 0-0.4 0.3-0.7 0.9-0.9 1.4 1.3 0.6 1.3 2.9-0.2 2.9-0.3 0.5-0.7 1-1.1 1.5-0.5 0.7-1.1 1.2-1.9 0.6-0.5 0.5-1 0.3-1.5 0.5 0.2-0.4-1-0.8-3.8 1.8 1.5 3.1 3.1 0.6 3.6 4-0.2 3.1 1 3 2.3 3.3 2.2 1.3 0.6 4.5 3.8 5.1 1.1 3 6.1 3.4 8.7 3.4 2.4-0.7 4.4 4.3 6 1.6 1.8-0.6 2.6-1.9 2.7-1.8 0.6 0.1 1.1 1.1 3.3 0.8 1.2 0.1 2.5 0.6 2.8 0.6 0.5 0.1 2.5-2.4 3-2.1 1.4-1.4 3.5-1.5 2.6-1.9-0.3-0.2-1.2-1.5-1.4-1.9-1.8-2.3-0.8-6.8 2.7-6 2.9 0.3-0.4-4.5 2.3-4.6 1.8-1.2 3.7-1.8 5.7-0.7 2.4-0.9 1.2-3.1 1.5-3.2 0.9-0.5 1.4-1.3 0.5-2.2-0.3-1.3 0.7-2.1-1.4-2.4-0.3-0.2-0.7-0.8-1-1-0.3-0.2-0.2-0.5-0.3-0.9-0.2-0.5-0.4-0.7-0.6-0.4-0.1 0.2-0.4 0.3-0.8 0.3-0.4 0-0.4 0.2-0.5 0.4-0.1 0.2-0.3 0.5-0.4 0.7-0.1 0.3-0.2 0.2-0.1 0.6 0.1 0.4-0.2 0.3-0.5 0.3-0.1 0-0.3 0.3-0.4 0.4-0.1 0-0.5 0.4-0.5 0.4-0.1 0.2-0.3 0.4-0.5 0.4-0.2 0-0.5 0.2-0.6 0.2-0.2 0.2-0.1 0.3-0.5 0.3-0.2 0-0.3 0.3-0.6 0.3-0.3 0-0.4 0-0.8-0.2-0.5-0.2-0.2-0.2-0.5-0.6-0.2-0.2-0.2-0.3-0.5-0.5-0.2-0.1-0.5 0.1-0.8 0-0.3-0.1-0.6-0.2-0.9-0.2-0.1 0-0.5 0.2-0.6 0.3-0.3 0.1-0.6-0.3-0.9-0.3-0.5 0-0.6-0.1-1-0.1-0.4 0-0.7-0.1-1.1-0.4q-0.1-0.1-0.2-0.2c-0.4-0.2-0.1-0.3 0-0.5 0.4-0.4 0.6-0.3 0.6-0.6 0-0.1-0.5-0.5-0.5-0.6-0.1-0.1 0.3-0.2 0.4-0.4 0-0.3 0.2-0.5 0.3-0.8 0.1-0.4 0.3-0.4 0-0.7-0.4-0.3-0.5-0.1-0.3-0.5 0.2-0.3 0.1-0.7 0-0.9-0.1-0.1-0.2-0.4-0.3-0.6 0-0.1-0.2-0.3-0.3-0.4-0.1-0.1 0-0.2-0.2-0.4z"/>
		<path id="map_metropolitana_San_Pedro" fill-rule="evenodd" class="map-metropolitana s1" data-siglaregion="RM" data-sigla="san_pedro" data-nombre="San Pedro" d="m53.2 128.4c-0.5 0.3-0.8 0.9-1 1.4 1.3 0.6 1.3 2.9-0.2 2.9-0.3 0.5-0.7 1-1.1 1.5-0.5 0.7-1.1 1.2-1.9 0.6-0.5 0.5-1 0.3-1.5 0.5 0.2-0.4-1-0.8-3.8 1.8 0 1.4-0.7 1.7-1.6 1.9-1 0.1-1.3 1.2-2.5 0.7-0.6 0.6 0.8 2-0.8 1.7-1.2-0.3-2.7-1-3.5 0.4 0 1.2-1.9-0.7-2.3-1.2-0.8-0.7-1.1-2.4-0.6-2.9-1.6 0.1-2.8-1.1-3.6-2.2-0.5 0.9-2.6-0.2-3.4-0.7-1.7-0.4-3.6-0.3-5.2 0.5-1.3-0.5-1.9-2.5-3.3-3.1-0.2 1.2-0.4 2.5-1.4 3.3 0.9 0.6 1.5 1.9 0 2-1 1.5-1.6-1.9-2.7-2.2-0.8-1.4-2.6-0.3-3.2-1.2-0.6-1-2.4-0.6-3-0.6-0.4-0.6-0.2-1.6 0.2-2.1-0.8-1.1-2.8 0-3.8-1.1-1.4-0.1 0.8-1.5-0.7-2-1-1.2 1-2.1 2-2.4 0.8-0.8 1.9-1.4 2.8-2.2q3.6-2.7 7.1-5.4c0.7 0.6 0.7 1.4 1.1 1l1.4-0.1 0.2-12c1.1-2.1 2.3-1.3 3.7 0.3l0.7-0.6h2.1l2 1.5h2.4c0 0 1.8-0.2 2.9 0.8 1.4 0.1 0.2 1.5 0 1.9 0.5 1.1 1.3 2 2 2.9 0 0.7 0.6 1.5 0.8 1.9-0.5 1.3 1.5 1.8 1.3 3 0.5 1 1.7 1.6 2.8 1.9 0.4-1.3 0.9-1.4 1.1-1.3 0.5 0.2 0-0.9-0.4-1.3 0-0.8 1.5-0.3 2-0.8 0.9 0.1 1.9 0.1 2.7-0.2 1.1 0.1 0.9 1.2 0.6 1.9 0.2 0.8 1.2 0.9 1.2 1.8 0.7 0.6-0.9 1.1 0 1.7 1.3 0 2.4 0.5 3.2 1.6 0.8 0.8 1.4 1.5 2.6 1.6 0.7-0.2-0.1 1.1 0.6 1.3 0.6 0.3 1.3 1.3 2 1.3z"/>
		<path id="map_metropolitana_Melipilla" fill-rule="evenodd" class="map-metropolitana s1" data-siglaregion="RM" data-sigla="melipilla" data-nombre="Melipilla" d="m78.4 80.2c0.1-0.2-0.5 0.4-0.6-0.6 0-0.9-1.2-0.8-1.8-1.1-1.9 1.1-1.5-0.4-2.4-0.6-1.4-0.6-2.4 0.6-3.6 1.3-1.1 0.6-2.3 0.6-3.5 0.6-1.4-0.3-2.7-0.6-4.1-0.7-0.4 1-1.1-0.2-1.9 0.1-1 0.5-3.2-0.5-3.4 1-0.4-0.3-1.9-0.3-2.6-0.6-1.3 0.1-3-2.1-3.5-0.1-0.3 1.2-1.4 1.4-2.1 2.3 0 1.3-1.4 0.6-1.8 1.1 1 0.7-0.1 0.9-0.8 1-1.2-1.3-1.6 0.8-2.8 0.7-1.4-0.4-4.3 0.1-3.9-0.7l-0.6 0.8c-0.2 1.3-0.5 2.5-1.3 2.4l-1.3 1.1c-1.4 0-3.4-0.6-2.4 1.9-2 0.7-1.2 2.2-1.6 3.4l-1.5-1.3-1.5 1.2 0.1 0.5c-2.1 2.8-0.2 2.5 0.9 2.9-0.1 0.9-1.1 1.2 0.7 3l1.8 1.2c0.5 2.4 1.4 1.1 3.3 2.9l-0.1 1.8c0 0.8-0.4 1.6-1.1 2.4-1.5 0.3-3.3-0.4-4.3 1.1 1.4 0.1 0.2 1.5 0 1.9 0.5 1.1 1.3 2 2 2.9 0 0.7 0.6 1.5 0.8 1.9-0.5 1.3 1.5 1.8 1.3 3 0.5 1 1.7 1.6 2.8 1.9 0.4-1.3 0.9-1.4 1.1-1.3 0.5 0.2 0-0.9-0.4-1.3 0-0.8 1.5-0.3 2-0.8 0.9 0.1 1.9 0.1 2.7-0.2 1.1 0.1 0.9 1.2 0.6 1.9 0.2 0.8 1.2 0.9 1.2 1.8 0.7 0.6-0.9 1.1 0 1.7 1.3 0 2.4 0.5 3.2 1.6 0.8 0.8 1.4 1.5 2.6 1.6 0.7-0.2-0.1 1.1 0.6 1.3 0.6 0.3 1.3 1.3 1.9 1.3 0.3-0.1 0.6-0.2 1 0 0.7 0.1 1.1-1 1.4 0 2.5 1.1 1.5-2.5 3.1-1.6 1.2 0.3 1.5-0.4 3.7-0.4 1.1-0.1 0.9-1.5 1.9-1.9 0.4-0.9 0.9-1.6 0.6-2.7 0.1-1.3 0-2.1 2.3-1.8 1.4 0.1 3.8 1.7 4.1 0.3 0.6-0.8 1.3-1 1.9-0.2 1.6 0 2.1 2 3.4 2.7 0.3 0.3 0.6 0.3 0.9 0.4 0.3 0.1-0.1-0.9 0.1-0.7-0.2-0.2-0.9-0.7-0.9-1 0.2-0.2-0.3-0.9 0.1-1.3-0.1-0.5-0.3-0.7 0-1.2 0.3-0.6-0.8-0.5-0.5-1.1 0.3-0.2 0.1-1.2 0-1.5-0.4-0.6-0.4-0.5-0.2-1.1-0.1-0.5 0.2-1.2-0.2-1.6-0.4-0.1-1-0.6-0.7-1.1-0.1-0.3 0.1-0.7 0.2-1.1-0.1-0.4-0.2-0.9 0.2-1.4-0.4-0.2-0.1-0.7 0.1-1.1 0.2-0.3-0.3-0.3 0.1-0.3-0.3-0.8 0.4-2.4-1-2.4-0.6 0.3-1.1 0.4-1.2-0.5-0.5 0-1.3 0.6-1.4 0-0.6-0.6-0.9-1.6-1.9-1.4 0.2-0.4-0.3-0.6-1.4-0.6-1.1-0.6-1.4-0.4-1.4 0.1-2.2 1.1-1.7-0.4-2.4-0.6-1.1-1.1-1.9-0.7-2.8-0.9-1.4-1.1-0.4-2.2 0.1-2.4 0.5-0.4 1.3-0.8 1.4-1.5 0.6-1-0.2-1.2-0.7-1.3l0.2-1.1-1.1-0.5-0.1-0.6h0.8l0.6-5.9c0.9 0.2 1.2-0.3 1.8-0.8 0.2-0.1 0.5-0.1 0.8 0 0.4 0.4 0.6 0.5 1.1 0.7 0.4 0 0.2 0.3 0.4 0.4 0.6 0 1.2 0.1 1.8 0.3 0.2 0 0.4 0.2 0.7 0.2 0-0.5-0.1-0.7 0.4-1.2 0.2-0.2 0.3-0.5 0.3-0.6 0.6-0.1 0.9 0.3 1.5-0.2 0.6-0.1 0.6-0.7 1-1 1.1-0.2 2.4 0.3 3.2 1 1.5-0.7 1.2-1.5 1.4-2.3l0.4-0.8c0.9 0.5 1.1-0.8 1.5-1.3 0.5-0.5 0.1-0.1 0-0.1-0.2 0-0.1-0.2-0.2-0.3 0-0.1-0.4-0.4-0.3-0.5 0.1 0 0.2-0.4 0.2-0.5 0-0.2-0.3 0-0.4-0.1-0.2-0.2 0-0.1-0.2-0.3-0.1-0.1 0-0.4-0.1-0.5-0.1-0.1-0.3 0-0.3-0.1-0.1-0.3-0.2-0.8 0-0.9z"/>
		<path id="map_metropolitana_Maria_Pinto" fill-rule="evenodd" class="map-metropolitana s1" data-siglaregion="RM" data-sigla="maria_pinto" data-nombre="María Pinto" d="m43.8 62.2c0.5-0.7-0.4 1.1 1.2 0.5 1 0.9 2.8 0.7 3.4 1.9 0.2 1 1.4 1 2.2 1.3 1 0.2 2.6 0.8 3.3 1.6 0.6 0.8 1.1 0.1 1.8-0.4 1.4 0.1 2.7 0.2 4 0.3 0.9 0 1.6-1.1 2.6-0.8 0.7 0.9 1.7 0 2.4-0.4 0.6-0.6 2.4-1.5 1.9 0.1-0.4 0.9-0.1 2.2-1.2 2.5-0.2 1 0.9 1.7 1.2 2.5-0.1 1 0.4 1.8 1.2 2.2 1 0.4 1.1 1.6 1.8 2.3 0.4 0.4 1 0.8 1.5 1.3 0.5 0.5 1.6 0.5 0.9 0.8-0.7 0.3-1.3 0.9-2 1.3-1.1 0.6-2.3 0.6-3.5 0.6-1.4-0.3-2.7-0.6-4.1-0.7-0.4 1-1.1-0.2-1.9 0.1-1 0.5-3.2-0.5-3.4 1-0.4-0.3-1.9-0.3-2.6-0.6-1.3 0.1-3-2.1-3.5-0.1-0.3 1.2-1.4 1.4-2.1 2.3 0 1.3-1.4 0.6-1.8 1.1 1 0.7-0.1 0.9-0.8 1-1.2-1.3-1.6 0.8-2.8 0.7-1.4-0.4-4.3 0.1-3.9-0.7-0.4-0.8-0.6-1.5-0.2-2.3-0.2-2.3-0.5-3.4-1-4.1-2.3 0-0.7-1.8-1-2.7-1.1-1.4-0.8-2.9 0.7-4.3-0.6-0.7 0.1-2.4 0.1-4.1 0-1.1-1.5-2.7 0.1-3.4 0.2-0.8 0.6-1.3 1.6-0.5 1.9 0.3 3.3 0.4 3.9-0.3z"/>
		<path id="map_metropolitana_Curacavi" fill-rule="evenodd" class="map-metropolitana s1" data-siglaregion="RM" data-sigla="curacavi" data-nombre="Curacaví" d="m49.4 43.4c0.1 0.6 0 2.4 0.3 2.5 0.1 0.1 0.1 0.9 0.9 1.9-0.3 1.7 1.1 2.8 1.5 2.9 0.2 0-0.3 0.2-0.5 1.6-0.6 0.2-1.1 0.5-0.5 1.9l-0.5 1.2c-1.4 1 0.3 1.7-1.1 3-0.5-0.6-1.9 0.8-2.2 1.2-0.5-0.1-0.9-0.7-1.6 0.1l-1.9 2.4v0.1c0.5-0.7-0.4 1.1 1.2 0.5 1 0.9 2.8 0.7 3.4 1.9 0.2 1 1.4 1 2.2 1.3 1 0.2 2.6 0.8 3.3 1.6 0.6 0.8 1.1 0.1 1.8-0.4 1.4 0.1 2.7 0.2 4 0.3 0.9 0 1.6-1.1 2.6-0.8 0.7 0.9 1.7 0 2.4-0.4 0.6-0.6 2.4-1.5 1.9 0.1-0.4 0.9-0.1 2.2-1.2 2.5-0.2 1 0.9 1.7 1.2 2.5-0.1 1 0.4 1.8 1.2 2.2 1 0.4 1.1 1.6 1.8 2.3 0.4 0.4 1 0.8 1.5 1.3 0.5 0.5 1.6 0.5 0.9 0.8 0.4-0.1 1.1-0.2 1.6 0 0.9 0.2 0.5 1.7 2.4 0.6 0.6 0.3 1.8 0.2 1.8 1.1 0.1 1 0.7 0.4 0.6 0.6 0.3 0.1 0.5-0.3 0.5-0.4 0.3-0.3 0.5-0.1 0.7-0.5 0.3-0.3 0.5-0.3 0.5-0.8 0.1-0.4 0.3-0.7 0.3-1 0-0.6 0.1-0.6 0.1-0.9 0.1-0.4 0.2-0.5 0.3-0.9 0.1-0.2 0.1-0.3 0.1-0.5 0-0.2-0.1-0.4 0-0.5 0.1-0.1 0.1-0.2 0-0.3-0.1-0.2-0.2-0.3-0.4-0.4-0.1-0.1-0.3-0.1-0.4-0.1-0.2-0.2-0.1-0.4 0-0.7 0-0.2 0.2-0.3 0.3-0.4q0.1-0.3 0.1-0.5c0.1-0.2 0.4-0.4 0.4-0.5 0 0 0.1-0.1 0-0.2-0.3-0.4-0.7-0.7-0.9-1.2-1.9-0.2-1.8-0.8-2.1-1.4l-0.1-1.2c-0.2-0.3-0.8-0.5-0.5-0.9 0.1-0.1 0.3-0.4 0.1-0.9-0.3-0.4 0.4-0.3 0.5-1.6 0.3-1.3-0.6-1.7-0.2-2.6-0.9-0.9 0.3-0.5 0.1-2.1-2.5-0.6-1.6-0.6-2.1-0.8 0.4-1.6-1.7-1.3-1.5-2.3 0-1.5-1.9-1.2-1.7-2.8-0.1-0.5-1.1-1.2-0.7-1.5 0.6-0.5 0.7-1.4 0.9-2.2 0.9 0.2 0.9-0.9 1.8-1 1.3 0.2 1.2-0.9 0.4-0.9-0.4-0.5 0.4-1.7-0.7-2.1-0.2-0.1 0-0.6-0.1-1.2 0-1.1-1.2-2.4-1.4-3.3-0.3-1.1 0-0.7-0.3-0.7-1.5-0.9 0.3-2.4-0.1-3.6-0.2-0.3-0.7-0.8-0.6-1-1.5-0.3-1.4 0.8-2.4 0.5 0.5 2.2-0.3 1.5-1.3 0.4-0.5 0.5-1 0.1-1.5-0.2-0.4 0.5-0.2 1.5-0.3 2.2-1.3 1.5-2.1 1-2.9-0.1-1.1 0-3-0.7-2.9 0.6-0.5 0.9-1.5 1.2-3 0.6l-1.3-0.5c-1.4 1-1.6 0.4-2 0.1l-1.3-0.1c-0.5 0.5-1.2 0.8-2.2 0.6 0 0.7-0.5 1.1-1.3 1.3-0.7 0.4-0.2 1.1 0.1 1.7z"/>
		<path id="map_metropolitana_limite_Valparaiso" fill-rule="evenodd" class="map-metropolitana s0" d="m165.2 16.4h-1.7c-1.7 0.6-2.3 1.8-3.4 2.7-0.5 0.1-1.1 0-1.1 2-1.8 1.1-1.5 1.8-3.7 2l-1.9 1.1-0.6 1.5c-1 0.1-1.8 1-2.7 2-0.2 0.2-0.1 0.5 0.8 1.4-0.5 0.9-1.1 1.4-1.7 2l-0.1 1.9c-3.3 0.4-0.8-1.5-2.3-2.7l-0.3-1v-2.9h-1.6l-1.5-1.5v-0.6l-1-0.5-1 0.1c-0.3-0.8-0.7-0.9-1-1l-1.1-0.5c-0.5 1.2-1.8 1.4-3.3 1.3l-1-1.6c-1.5-0.4-1.1-2.2-2.3-2.9-1.1-1.2 1.2-2.1 0.3-3.3 0.4-1.8-1.3-2.2-2.7-2.5-1-0.6-2.2 0.3-2.2 1.4-1 0.7-1.4 2-2.1 3.1-0.1 0.8 0.9 1.5-1.1 1.4-0.5 0 0.7 1.5-1 1.9-0.7 0.1-1.6 0.8-1.9 0.2-0.3-0.6-0.8-1.7-1.4-2.2 0.2-1.4-0.7-2.8-2.1-3.3-1.8-0.6-0.6-2.3-0.3-3.5-1-1.1-1.9-2.4-2.9-3.5-0.3-1.3-1.3-1.1-1.8-1.3-0.5-0.1 0-1.3-0.1-1.9-0.4-0.6-0.8-1.4-1.9-1.6-0.4 0.3-0.7 1.1-1.2 0.2-1.2-0.2-2.4 0.3-3.3 1.1-2.8 0.2-1.9 1.4-3.9 0.4-0.9 0.1-2.2 1.7-2.6-0.1l-0.6-0.3c-0.1-0.1 0.1-1.7 0-2.1-0.2-0.4-0.9-1.3-2.1-1.3q-0.2 0-0.5 0.1c-2.4 0.7-2.2 2.1-2.7 0.7-1.1-0.2-2.1-0.9-3.5-0.4-0.5 0.2-0.6 0.4-1.2 0.4-0.9 0-1.7-0.4-2.5-0.3-0.2 0.2-0.8 0.5-0.9 0.5-3.2-0.2-1.7 0.5-2.4 0.5-0.3 0.5-1 0.4-1.6 0.4-0.9-0.3-1.3-0.6-2 0.9-0.2 0.7-0.7 1-1 1.8-0.3 0.7-0.3 1.8-1.4 1.6-0.7-0.2-1.3-0.9-1.9-0.4-0.7 0.4-1.3 0.9-2.1 1q-1.3 0-2.5-0.1c-0.7 0-1.6-0.2-2.2 0.1 0 0.8-0.4 1.3-0.7 1.8 0.5 0.5 0.5 1.1 0.1 1.6 0.8 0.5 0.8 1.6 1.6 3.2 0.1 1.8 1.3 1.5 0.9 2.3-0.3 1-0.7 1.1-1 2.7-1.2 0.7-1.2 0.9-1.2 1.8 0.5 0.5 1.3 0.7 1.2 1.5-0.8 2.4-0.1 2.1 0.1 4.4 0.8 0.8 0 1.3 0.3 2.1 0.6 0.3 0.8 0.9 1 1.3 0.4 0.7 0.8 1.3 1.1 2 0.9 0.8-0.5 0.5-0.3 1.5 0.1 0.6 0 0.9-0.8 1.3-1.6-0.3-1.4 0.8-2.4 0.5 0.5 2.2-0.3 1.5-1.3 0.4-0.5 0.5-1 0.1-1.5-0.2-0.4 0.5-0.2 1.5-0.3 2.2-1.3 1.5-2.1 1-2.9-0.1-1.1 0-3-0.7-2.9 0.5-0.5 1-1.5 1.3-3 0.7l-1.3-0.5c-1.4 1-1.6 0.4-2 0.1l-1.3-0.1c-0.5 0.5-1.2 0.8-2.2 0.6 0 0.7-0.5 1.1-1.3 1.3-0.7 0.4-0.2 1.1 0.1 1.7 0.1 0.6 0 2.4 0.3 2.5 0.1 0.1 0.1 0.9 0.9 1.9-0.3 1.7 1.1 2.8 1.5 2.9 0.2 0-0.3 0.2-0.5 1.6-0.6 0.2-1.1 0.5-0.5 1.9l-0.5 1.2c-1.4 1 0.3 1.7-1.1 3-0.5-0.6-1.9 0.8-2.2 1.2-0.5-0.1-0.9-0.7-1.6 0.1l-1.8 2.3q0 0-0.1 0.2c-0.6 0.7-2 0.6-3.9 0.3-1-0.8-1.4-0.3-1.6 0.5-1.6 0.7-0.1 2.3-0.1 3.4 0 1.7-0.7 3.4-0.1 4.1-1.5 1.4-1.8 2.9-0.7 4.3 0.3 0.9-1.3 2.7 1 2.7 0.5 0.7 0.8 1.8 1 4.1-0.4 0.8-0.2 1.5 0.2 2.3l-0.6 0.8c-0.2 1.4-0.5 2.5-1.3 2.4l-1.3 1.1c-1.4 0-3.4-0.6-2.4 1.9-2 0.7-1.2 2.2-1.6 3.4l-1.5-1.3-1.5 1.2 0.1 0.5c-2.1 2.8-0.2 2.5 0.9 2.9-0.1 0.9-1.1 1.2 0.7 3l1.8 1.2c0.5 2.4 1.4 1.1 3.3 2.9l-0.1 1.8c0 0.8-0.4 1.6-1.1 2.4-1.5 0.3-3.3-0.4-4.3 1.1-1.1-1-2.9-0.8-2.9-0.8h-2.4l-2-1.5h-2.1l-0.7 0.6c-1.4-1.6-2.6-2.4-3.7-0.3l-0.2 12-1.4 0.1c-0.4 0.4-0.5-0.4-1.1-1q-3.5 2.7-7.1 5.4c-0.9 0.8-2 1.4-2.8 2.2-1 0.3-3 1.2-2 2.4"/>
		<path id="map_metropolitana_limite_OHiggins" fill-rule="evenodd" class="map-metropolitana s0" d="m2.3 128.3c1.5 0.5-0.7 1.9 0.7 2 1 1.1 3 0 3.8 1.1-0.4 0.6-0.6 1.5-0.2 2.1 0.6 0 2.4-0.4 3 0.6 0.6 0.9 2.4-0.2 3.2 1.2 1.1 0.4 1.7 3.7 2.7 2.2 1.5-0.1 0.9-1.4 0-2 1-0.8 1.2-2.1 1.4-3.3 1.4 0.5 2 2.6 3.3 3.1 1.5-0.8 3.5-0.9 5.2-0.5 0.8 0.5 2.9 1.6 3.4 0.7 0.8 1.1 2.1 2.3 3.6 2.2-0.5 0.5-0.2 2.2 0.6 2.9 0.4 0.5 2.3 2.4 2.3 1.2 0.8-1.4 2.3-0.7 3.5-0.4 1.6 0.3 0.2-1.1 0.8-1.7 1.2 0.5 1.5-0.6 2.5-0.7 0.9-0.2 1.6-0.5 1.6-1.9 1.5 3.1 3.1 0.6 3.6 4-0.3 3.1 1 3 2.3 3.3 2.2 1.3 0.6 4.5 3.8 5.1 1.1 3 6.1 3.4 8.7 3.4 2.4-0.7 4.5 4.3 6 1.6 1.8-0.6 2.6-1.8 2.7-1.8 0.6 0.1 1.1 1.1 3.3 0.8 1.2 0.1 2.5 0.6 2.8 0.6 0.5 0.1 2.5-2.4 3-2.1 1.4-1.4 3.5-1.5 2.6-1.9-0.3-0.2-1.2-1.5-1.4-1.9-1.8-2.3-0.8-6.8 2.7-6 2.9 0.3-0.4-4.5 2.3-4.6 1.8-1.2 3.7-1.8 5.7-0.8 2.4-0.8 1.2-2.9 1.5-3.1 0.9-0.5 1.4-1.3 0.5-2.2-0.3-1.3 0.7-2.1-1.4-2.4-0.3-0.2-0.7-0.8-1-1-0.3-0.2-0.2-0.5-0.3-0.9 0.9-0.4 2.1-0.6 2-1.9 0.5-1.9 2 0.1 3.2 0.3 1 0.9 1.4 0.4 2.9-1.4 0-1.4 1.6-0.4 1.9-1.1 0.7-0.1 0.5-0.3 1.1-0.8 0.6-1.6 2.1-0.9 2.7 0 0 1.1 1.1 1.6 1.8 2.5 0.9 1.6 2.1 0 3-0.7 0-0.7 0.1-1.5 1.2-1.5 1-0.2 0.3-1.1 0.8-1.5 0.3-0.2 0.7 0.1 0.9-0.2 0.6-0.9 0.7-1.1 2.3-1.1 0.8 0.9 1.6 0.1 2.4-0.4 0.4-1 0.7-0.8 1.5-1 1.1-0.7 1.7 1.5 2.5 0.4 1 0.8 1.8-0.7 2.3-1.5-0.4-1.6 1.4-1.4 2.5-1.5 1.1 0 1.3 0.8 1 0.2l0.4-0.4c0.9-0.5 0.7 0.8 1.7 0 0.8-1.9 1-0.5 1.1-1.1q0.2 0.6 1.3 0.6 0 0.2 0.1 0.3 0.1 0.2 0.3 0.3 0.2 0.2 0.6 0.4c0 0.7 0.6 1.5 2 2.3 0.5-1 0.6-0.4 1.8-0.1 0 1.1 0.3 1.1 0.4 1.4-0.1 0.3-0.3 0.7 0.3 1.5-0.3 0.3-0.8 0.4-0.6 1.3-1-0.2-0.4 0.3-0.3 1.5 0.7 0.4 1.1 0.9 1.1 1.7l0.9 1c1.8-0.1 0.8 1.3 0.8 2.2l0.9 0.9 1.3 0.1 0.2 1.7c0.7 0.7 0.6 1.2 0 1.6 0.6 0.6 0.9 1.2-0.6 1.7l-0.6 0.7c0.8 1.4-1.4 1.4 0 1.9-0.3 0.8-0.1 1.5 1.5 1.9 0.5-0.6 0.9-0.9 1.3 0.1l0.6 0.4 0.2-0.5c0.2 0.2 0.3 0.2 0.5 0.2q0.1-0.1 0.2-0.1c0.2-0.1 0.6-0.4 1-0.5 0.6 0.7 1.2 0.9 2.1 1.5q0.1 0 0.2 0 0.1-0.1 0.1-0.1c0.4-0.1 0.7-0.8 1.3-1.2q0.1 0 0.2 0c-0.2-1.5 0.9-1.8 0.7-3.2l3.1-0.3 1 0.2 1.7 0.1 1.2 1.4-0.2 1.5 0.2 2.1 1.1 2c-0.8 0.5-0.8 1.4 0 1.9 0.1 0.6 0.3 1.1 0.9 1 2.3-0.1-0.6 1.6-1.3 2.6 0.2 0.8 0.9 1.8-0.3 2.2 0 0.3-0.1 0.5 0.5 0.6 1.1-0.4 1.7 1.4 1.7 2.4l1.4 1.2c1.9-0.9 1.8 0.3 1.9 1.2 0.8 0.5 1.9 0.2 2.9 0.2l0.5-0.6 1.2 0.6 0.1 0.8c1.4 0.1-0.5 0.4 1.7 2.1-0.4 0.7-0.2 1.4 0 2.1-0.4 0.5-0.2 1.8 0.5 3.6q1 1.1 2 2.1"/>
		<path id="map_metropolitana_limite_Internacional" fill-rule="evenodd" class="map-metropolitana s2" d="m171.9 167v-1l2.5-2.7 1.6-0.4c1.8-2.1 3-0.5 2.5-0.3q1.1 0.7 2.5 2.3c0.1 0.2 1 0.6 1.4 1.5 0.5 0.9 0.9 1.2 1.6 0.6l0.8-0.8c0-0.6 0-1 0.1-1.2q0-0.1 0.1-0.2c0.2-0.4 0.6 0.1 1.7 0q0.1 0 0.3-0.1c1-0.5 2-1 2.7-1.2 0.5 0 0.9 0.1 1.3 0.2q0.2 0 0.3 0 0.2 0 0.4 0 0.2 0 0.4-0.1c0.3-0.4 0.8-1.3 1.7-1.2 0.9-1.7 1.3-0.3 1.5-3.2 0.2-0.9 0.2-1.5 0.2-2q0-0.1-0.1-0.2c-0.1-0.8-0.6-1.1-0.7-1.9-1-1.4-5.5-5.1-5.7-6.3q0-0.1 0-0.1 0-0.2 0.1-0.2c-0.2-0.2-0.2-0.3-0.2-0.4q0-0.1 0-0.1c0.1-0.4 0.6-0.9 1.5-3.4q0.3 0.1 0.6 0.1 0.1 0 0.2 0c0.2-0.1 0.4-0.2 0.7-0.4 0.4-1.8 2-2.3 0.7-3.4-1.8-0.4-1.9-1.1-1.5-2q0-0.2 0.1-0.4c0.3-0.6 0.8-1.2 1-1.8 1-0.8 1.6-1.5 1.7-2q0-0.1 0-0.2c0-0.5-0.6-0.9-1.5-1.1 0.4-0.7 0.1-2.9-2.3-3.7-0.2-0.7-0.5-1.2-1.6-0.6q-0.1 0.1-0.2 0.2-0.3 0.2-0.6 0.4c-0.8-0.1-1.6 0-1.9-1.5l1.4-3.3-0.1-1.5 1.1-1 2.2-2.8-0.1-1-1.2-0.9-0.7-1.7-2-1.5-0.1-1.5 0.4-0.5 0.4-3.9c-1.5-2.2-1.9-4.1 0.7-5.6v-0.8c0.8-1.2 1.3-2.1 1.4-2.9q0.1-0.1 0.1-0.2c0.1-1.1-0.3-1.8-0.7-2.5q-0.2-0.4-0.4-0.8c-0.2-0.5-0.4-1.1-0.4-1.8 1.1-3.5 0.8-3.9 0.4-6.9-0.5-1.8 0.4-2.7 0.6-4v-3.4c-0.3-0.8-0.4-1.4-0.4-1.7q0-0.1 0-0.2c0-0.6 0.5-0.7 0.6-1.2 0.4-0.8 0.1-1.9 1.6-2.1 1.3-1.1 1.3-1.5 1.5-2.1q0-0.1 0-0.3 0.1-0.2 0.1-0.3c0.2-1.4-0.1-3.3 0.9-3.7q0.1 0 0.2 0 0.1-0.1 0.3-0.1v-1.3c0.1-1.9-0.3-4.5 1.7-4.5l-0.4-2.6-0.9-1c0.8-0.2 1 0.9 3.1-1.1l0.9-2.7-0.1-2.6-2-2.7c-0.9-1.2 0.4-3.5-2.6-3.6-1.5-0.2-1.7-3.1-4.4-0.5l-3.6-0.1-1.4-0.8-1.1-2.2c-1 3.8-2.6 1.9-2.6 3.8-0.7-0.2-1.6-0.7-1.5 0.9l-0.7 0.6-1.1 1.5-1.3 0.6-1.7 0.1-0.8-1.4 0.5-0.7-0.2-1.6-1.7-0.6-0.8-0.6-0.1-1.9 0.5-0.9 0.1-1.8-3.2-1.7-0.6-1.6 0.4-4c-2.3-3.2 1.2-2 0.4-4.5q-0.1-0.1-0.1-0.2c-2.7-0.9-2.3-2.1-1.2-3.4-0.6-1.9 0-4.3-2.3-5.2 0.2-0.2 0.1-0.4 0-0.6q-0.1 0-0.1-0.1-0.2-0.2-0.5-0.4l1-2.2"/>
	</g>
</svg>