<svg version="1.2" xmlns="http://www.w3.org/2000/svg" viewBox="0 0 200 155" width="200" height="155" style="width: 80%;height: 80%;">
	<style>
		.map-nuble.s0 { fill: none;stroke: #757575;stroke-width: 0.85 }
		.map-nuble.s1 { fill: #ffffff;stroke: #757575; stroke-width: .6 }
		.map-nuble.s2 { fill: none;stroke: #3c3c3c;stroke-width: 1.25 }
	</style>
	<g id="layer_mapa_nuble" class="layer_mapa_comuna" data-siglaregion="NB">
		<path id="map_nuble_Quillon" fill-rule="evenodd" class="map-nuble s1" data-siglaregion="NB" data-sigla="quillon" data-nombre="Quillon" d="m27.5 118c0.3 0 0.5 0 0.9 0.1 0.6 0 1.4 0.1 1.9 0.3 0.6 0.1 1.2 0.2 1.9 0.2 0.6 0 1.2 0 1.8 0.2 0.7 0.1 1.1 0.4 1.4 0.4q0.3 0.1 0.5 0 0.3-0.1 0.6-0.4 0.1-0.2 0.3-0.3 0.2 0 0.3 0 0.4 0 0.7 0.1c0.4 0.3 0.7 0.6 0.8 0.7q0.2 0.2 0.5 0.2 0.3 0 0.6-0.1 0.4-0.1 0.7-0.1 0.3-0.1 0.5 0 0.2 0.1 0.3 0.3 0.1 0.1 0.2 0.2c0 0.2 0 0.4 0 0.5q0 0.1 0.1 0.1 0 0.1 0.1 0c0-0.1 0.2-0.3 0.5-0.7q0.3-0.4 0.5-0.9 0.1-0.6 0.3-1.2 0.1-0.4 0-0.6c-0.1-0.2-0.2-0.3-0.2-0.4q-0.1-0.2-0.1-0.5 0-0.2 0.3-0.6c0.3-0.5 0.4-0.7 0.7-1h2l1.1 2.3 1.2-1.3 1.3 1.1-1.7 1.4 0.4 1 0.8-1 3.1 0.6 0.2 0.9 0.9-0.4 0.2-1.5q0.4-0.2 0.8-0.4c0.5-0.3 0.8-0.3 0.9-0.5 0.2-0.2 0.3-0.5 0.4-1.2q0.1-0.3 0.3-0.5 0.1-0.2 0.3-0.3 0.2-0.2 0.3-0.5 0.1-0.2 0.1-0.7c0-0.1-0.1-0.5-0.3-1-0.1-0.5-0.3-1.1-0.3-1.7q0-0.4-0.1-0.7-0.1-0.3-0.2-0.6c-0.2-0.4-0.5-0.7-0.8-1-0.2-0.2-0.5-0.8-0.7-1.4-0.2-0.6-0.4-1.2-0.5-1.5q-0.1-0.3-0.3-0.6-0.2-0.3-0.4-0.5c-0.3-0.3-0.7-0.6-1-0.8q-0.4-0.3-0.6-0.5-0.2-0.2-0.3-0.5-0.2-0.3-0.2-0.6-0.1-0.3-0.1-0.7c0-0.6 0.1-0.9 0.2-1.3q0-0.2 0-0.4 0-0.3-0.2-0.6-0.2-0.4-0.1-0.8 0-0.3 0.2-0.6c0.2-0.5 0.5-0.8 0.7-1q0.2-0.2 0.2-0.4 0.1-0.3-0.1-0.5c-0.1-0.3-0.4-0.6-0.7-0.8-0.4-0.4-0.6-0.7-0.8-1-0.1-0.4-0.2-0.7-0.4-1.3q0-0.4-0.2-0.7-0.2-0.3-0.4-0.5c-0.3-0.4-0.6-0.7-0.9-1q-0.3-0.3-0.4-0.6-0.1-0.3 0-0.5c0.1-0.3 0.4-0.6 0.6-1q0.2-0.3 0.2-0.6 0-0.3-0.1-0.6-0.1-0.2-0.2-0.4-0.2-0.3-0.5-0.5-0.2-0.2-0.3-0.4c-0.2 0.2-1.2 1-1.3 1.1q0 0.3-0.1 0.5-0.1 0.2-0.2 0.3-0.2 0.1-0.4 0.1-0.3 0.1-0.7 0.1c-0.3 0-0.8-0.1-1.2-0.1q-0.4-0.1-0.7-0.1-0.3 0.1-0.5 0.2-0.4 0.1-0.5 0.3-0.1 0.3-0.2 0.5 0 0.2 0 0.3 0 0.2-0.1 0.3c-0.2 0.2-0.4 0.4-0.6 0.7q-0.2 0.2-0.3 0.3-0.2 0.1-0.4 0.1c-0.4 0-0.9 0.1-1.5 0q-0.3 0-0.7-0.1-0.3 0-0.5-0.2c-0.5-0.3-0.8-0.5-1.1-0.6-0.3-0.1-0.6-0.2-0.9-0.2q-0.5 0-0.7 0.1-0.2 0.1-0.2 0.3 0 0.2 0.1 0.4 0.1 0.3 0 0.5c0 0.2-0.2 0.6-0.3 1.1q-0.1 0.3 0 0.6 0 0.3 0.2 0.5c0.2 0.3 0.3 0.4 0.3 0.5 0 0-0.1 0-0.3 0-0.1 0-0.3 0-0.4 0-0.2 0.1-0.4 0.2-0.5 0.4q-0.1 0.2-0.3 0.4-0.3 0.1-0.6 0.1 0 0-0.1 0.1c0.1 0 0.1 0.1 0.1 0.1q0.1 0.1 0.1 0c0.1-0.1 0.4-0.2 0.7-0.3q0.2 0 0.3 0 0.2 0 0.1 0.2c0 0.1-0.3 0.3-0.5 0.5q-0.2 0.2-0.3 0.3-0.1 0.2-0.1 0.3 0.1 0.1 0.3 0.2 0.2 0.1 0.4 0.1 0.2 0 0.3 0.1 0.2 0 0.1 0.1-0.1 0.2-0.3 0.4-0.2 0.3-0.2 0.5c-0.1 0.4-0.4 0.8-0.6 1.2-0.1 0.2-0.3 0.4-0.5 0.5q-0.1 0.2-0.2 0.3 0 0.1 0.1 0.2c0.1 0.1 0 0.1 0.2 0.3q0.2 0.2 0.4 0.5 0.2 0.3 0.2 0.6c0 0.2 0 0.5 0.1 0.8 0 0.3 0.1 0.6 0.2 0.7 0.1 0.1 0.3 0.3 0.4 0.4 0.1 0.2 0.1 0.4 0 0.7-0.1 0.4-0.1 0.6-0.3 1.1 0 0.3-0.1 0.5-0.1 0.6q0 0.1 0.1 0.2 0.1 0.1 0.3 0.1 0.3 0.1 0.4 0.2 0.1 0.1 0.2 0.2c0.1 0.1 0.2 0.3 0.4 0.6q0.2 0.2 0.3 0.3 0.2 0.1 0.4 0.1c0.2 0.1 0.4 0.2 0.6 0.3 0.3 0.4 0.7 0.6 1 0.8 0.2 0 0.4 0.2 0.6 0.4q0.1 0.2 0.2 0.3 0.2 0.1 0.3 0.1c0.2 0 0.6 0 0.8 0.1q0.2 0.1 0.2 0.2 0 0.2-0.3 0.3-0.2 0.1-0.5 0.1-0.3 0.1-0.7 0.1c-0.4 0-0.6 0-0.7 0.1-0.2 0-0.2 0.2-0.3 0.5q0 0.2-0.2 0.3-0.1 0.1-0.3 0.2-0.1 0.1-0.2 0.2-0.1 0.1-0.1 0.3 0.1 0.3 0.2 0.6 0.2 0.4 0.4 0.7c0.2 0.2 0.4 0.3 0.5 0.5q0.1 0.3 0.1 0.6c0 0.3-0.1 0.5-0.2 0.6-0.1 0.1-0.2 0.2-0.3 0.4q0 0.2-0.1 0.3-0.1 0.1-0.2 0.2c-0.2 0.1-0.4 0.1-0.7 0.1q-0.7 0-1.4 0-0.3 0-0.7 0-0.4 0-0.7 0c-0.2-0.1-0.4-0.3-0.7-0.4q-0.2-0.1-0.4-0.2-0.2-0.1-0.4-0.1-0.3 0-0.7 0.1-0.3 0-0.6-0.1c-0.2 0-0.7-0.6-0.8-0.6-0.1 0.1-0.3 0.2-0.5 0.3-0.3 0.1-0.5 0.3-0.5 0.5q-0.1 0.1-0.3 0.2-0.2 0.1-0.4 0.2-0.2 0-0.3 0.1-0.2 0.1-0.1 0.2c0 0.2 0.2 0.4 0.4 0.7q0.1 0.2 0.2 0.3 0 0.2 0 0.4 0 0.1-0.2 0.2-0.2 0.1-0.3 0.2-0.2 0.1-0.3 0.2-0.1 0.1 0 0.2 0.2 0.2 0.4 0.4 0.1 0.2 0.2 0.4z"/>
		<path id="map_nuble_Yungay" fill-rule="evenodd" class="map-nuble s1" data-siglaregion="NB" data-sigla="yungay" data-nombre="Yungay" d="m76 130.7c-0.1 0.2-0.1 0.3-0.1 0.4q0 0.3 0.2 0.5 0.2 0.3 0.4 0.7 0.2 0.3 0.4 0.6 0.2 0.3 0.2 0.5 0 0.6-0.2 0.8c0 0.2-0.2 0.3-0.3 0.3q-0.2 0.1-0.5 0.3-0.3 0.1-0.6 0.4c-0.3 0.3-0.7 0.5-0.9 0.7q-0.3 0.2-0.5 0.3-0.2 0.2-0.3 0.5-0.3 0.6-0.4 0.9c-0.1 0.1-0.2 0.2-0.3 0.2-0.2 0.1-0.5-0.1-1.2-0.1q-0.3 0-0.5 0.1-0.2 0.1-0.4 0.2c-0.3 0.2-0.5 0.4-1.1 0.7q-0.4 0.2-0.7 0.4l0.5 1.7-1.7 2.3 1 0.4 0.3 3.1h-0.9l0.4 1-1.4 0.3 1 5.3c0.4-0.2 0.7-0.5 0.9-0.6 0.5-0.2 1-0.3 1.4-0.4q0.3-0.1 0.5-0.3 0.2-0.1 0.3-0.5 0-0.1 0.1-0.2 0.1-0.1 0.2-0.1 0.3-0.1 0.8-0.1c0.5 0 1.1 0 1.4 0q0.3 0 0.6 0.2 0.3 0.1 0.5 0.2c0.4 0.2 0.8 0.5 1 0.6q0.4 0.2 0.8 0.4 0.4 0.2 0.7 0.3 0.3 0.1 0.5-0.1 0.3-0.1 0.5-0.6 0.1-0.1 0.2-0.2 0.1-0.1 0.3-0.1 0.3-0.1 0.7 0 0.4 0 0.7 0 0.4-0.1 0.6-0.3c0.4-0.3 0.5-0.6 0.8-0.8q0.2-0.2 0.5-0.3 0.3 0 0.9 0 0.3 0 0.6-0.2 0.3-0.1 0.6-0.2c0.4-0.2 0.6-0.4 0.7-0.4q0.2-0.1 0.3-0.1 0 0.1 0 0.3 0 0.2 0 0.4 0.1 0.3 0.3 0.6 0.1 0.1 0.4 0.3 0.3 0.1 0.7 0.2c0.5 0.1 1 0.2 1.2 0.2 0.5 0 1.1 0.1 1.7 0.2 0.1 0 0.2 0 0.3 0.1 0-0.3 0.1-0.5 0.1-0.8 0.2-0.4 0.3-0.8 0.4-1.2 0.1-0.2 0-0.4-0.1-0.5-0.1-0.2-0.2-0.3-0.3-0.5q0-0.1 0-0.1 0-0.1 0.1-0.2c0.1 0 0.3-0.1 0.7-0.1 0.5 0 1 0 1.5 0.1 0.4 0 0.9 0 1.2 0.1 0.2 0.1 0.7 0.5 1.2 0.9 0.4 0.4 0.9 0.9 1.1 1.1 0.5 0.4 0.8 0.7 1.1 0.9q0.2 0.1 0.4 0.1 0.2 0 0.4-0.1 0.4-0.1 0.5-0.2 0.2-0.1 0.4-0.2 0.2-0.2 0.5-0.3 0.3 0 0.8 0c0.5 0 0.9 0.1 1.3 0.1q0.2 0.1 0.5 0 0.3-0.1 0.7-0.3c0.4-0.3 0.6-0.5 0.9-0.6 0.3-0.1 0.5-0.3 0.8-0.6q0.1-0.1 0.4-0.1 0.4 0 0.7 0.1c0.6 0 1.1 0.1 1.2 0q0.4-0.2 0.8-0.3 0.3-0.1 0.7-0.1 0.3-0.1 0.5-0.2 0.3-0.1 0.6-0.4c0.2-0.2 0.5-0.4 0.8-0.6 0.3-0.2 0.6-0.4 0.9-0.5 0.5-0.3 0.8-0.5 1-0.7 0.2-0.2 0.3-0.4 0.5-0.9q0.2-0.3 0.2-0.6 0.1-0.4 0.1-0.7 0-0.4 0-0.7 0-0.3 0.1-0.5c0.3-0.5 0.3-0.8 0.5-1q0-0.2 0.2-0.3 0.2-0.1 0.7-0.2 0.2-0.1 0.5-0.3 0.2-0.2 0.4-0.4c0.3-0.3 0.5-0.6 0.8-0.7q0.4-0.2 0.8-0.2 0.5-0.1 1-0.1c0.7 0 1.3 0.1 1.9 0.1q0.5 0 0.9 0.2 0.5 0.2 0.9 0.5c0.6 0.3 1.2 0.7 1.7 0.9q0.2 0.1 0.5 0.1 0.3 0 0.5-0.1c0.4-0.1 0.8-0.3 1.1-0.4q0.1-0.1 0.3 0 0.2 0 0.4 0.2c0.2 0.2 0.5 0.5 0.7 0.8 0.5 0.7 1 1.5 1.1 1.7q0.3 0.3 0.6 0.4 0.3 0.1 0.6 0 0.4-0.2 0.6-0.4 0.2-0.2 0.3-0.4 0.2-0.3 0.4-0.5 0.2-0.2 0.3-0.3c0.3-0.1 0.6-0.1 1.1-0.4q0.2-0.1 0.6-0.1 0.4 0 0.8 0.1c0.6 0 1.2 0.2 1.5 0.2q0.4 0.1 0.8 0.1 0.3 0 0.6-0.1 0.3-0.2 0.5-0.3 0.2-0.2 0.4-0.4 0.1-0.2 0.4-0.3 0.3-0.1 0.6-0.1c0.5-0.1 1 0 1.5 0 0.3 0 0.6 0.1 0.8 0.2 0.2 0.1 0.3 0.3 0.4 0.4q0.3 0.2 0.5 0.3 0.2 0 0.4 0 0.2 0 0.4-0.2c0.1 0 0.1-0.2 0.1-0.4-0.1-0.2-0.1-0.5-0.2-0.8-0.2-0.6-0.5-1.3-0.5-1.5 0-0.3 0.2-0.6 0.3-1 0.2-0.4 0.3-0.9 0.3-1.3 0-0.1 0.3-0.5 0.5-0.8 0.3-0.4 0.6-0.8 0.7-0.9q0.2-0.4 0.2-0.7 0-0.2 0-0.4c-0.1-0.3-0.4-0.5-0.6-1q-0.1-0.2 0-0.5 0.1-0.2 0.3-0.5 0.2-0.3 0.3-0.6 0.2-0.3 0.2-0.6c0-0.1-1.4-1.7-1.6-2.1-0.2-0.5-0.5-0.8-0.7-1.1q-0.1-0.2-0.2-0.5c0-0.1 0-0.3 0-0.4q-0.2 0-0.4-0.1-0.4-0.1-0.7-0.4-0.1-0.1-0.2-0.3-0.1-0.1-0.1-0.3c0-0.2-0.3-0.9-0.6-1.5-0.1-0.3-0.3-0.6-0.4-0.7q-0.1-0.2-0.2-0.2-0.1 0-0.2 0.1-0.1 0.5-0.3 0.7-0.1 0.2-0.3 0.3-0.2 0.1-0.5 0.3-0.2 0.2-0.4 0.6-0.2 0.3-0.4 0.4-0.2 0.2-0.5 0.2-0.2 0.1-0.5 0.2-0.2 0.1-0.3 0.4c-0.2 0.3-0.3 0.7-0.5 1.1q-0.2 0.3-0.4 0.4-0.2 0.2-0.5 0.2c-1.1 0-1.6 0.2-2.7 0.2-0.3 0-0.5 0.1-0.6 0.1q-0.2 0.2-0.4 0.3c-0.1 0.1-0.2 0.2-0.3 0.3q-0.3 0.1-0.8 0.1c-0.4 0-1 0.1-1.4 0.2-0.5 0.1-0.9 0.2-1.1 0.2q-0.5 0-0.8 0.1-0.3 0.1-0.5 0.3c-0.2 0.3-0.4 0.6-0.7 0.9-0.3 0.4-0.5 0.7-0.7 0.8q-0.2 0.1-0.5 0.1-0.3 0-0.9-0.1c-0.4-0.1-1-0.3-1.6-0.3q-0.4-0.1-0.8 0-0.2 0-0.3 0.1-0.1 0.1-0.2 0.2-0.2 0.4-0.4 0.5-0.2 0.2-0.5 0.2c-0.3 0.1-0.8 0.1-1.4 0.1-0.2 0-0.9-0.1-1.6-0.1-0.4-0.1-0.7-0.1-1 0q-0.4 0-0.5 0.1c-0.3 0.3-0.4 0.6-0.6 0.8q-0.1 0.2-0.4 0.2-0.2 0.1-0.7 0.1-0.6 0-0.9 0.2-0.4 0.1-0.7 0.2-0.2 0.2-0.5 0.3-0.2 0.1-0.5 0.1c-0.2 0-1-0.1-1.8-0.2-0.8-0.1-1.6-0.2-1.8-0.4-0.7-0.3-1.2-0.5-1.7-0.7-0.6-0.1-1.1-0.3-1.8-0.4q-0.5-0.1-0.9-0.1-0.4 0-0.8 0.1-0.4 0.1-0.8 0.2-0.3 0-0.6 0c-0.2-0.1-0.5-0.2-0.7-0.4q-0.4-0.3-0.8-0.7-0.4-0.3-0.8-0.6-0.4-0.3-0.8-0.3-0.4 0-0.7 0.1-0.3 0.2-0.6 0.3-0.3 0.2-0.5 0.3-0.2 0.1-0.3 0.1-0.5 0-0.9 0.1-0.3 0.1-0.7 0.3c-0.4 0.2-0.7 0.4-0.9 0.4-1.2 0-2.1-0.2-3.3-0.2q-0.5 0-0.8-0.2-0.4-0.2-0.7-0.4c-0.3-0.3-0.6-0.6-0.6-0.6q-0.3 0-0.7 0.2-0.3 0.2-0.6 0.3-0.3 0.2-0.6 0.3-0.3 0.1-0.5 0-0.5-0.4-1.1-0.8-0.6 0.2-1.2 0.2-0.7 0-1.3 0-0.9 0-1.7-0.1-0.5 0-0.8-0.2-0.4-0.1-0.8-0.3c-0.3-0.1-0.6-0.1-0.9-0.2z"/>
		<path id="map_nuble_Pemuco" fill-rule="evenodd" class="map-nuble s1" data-siglaregion="NB" data-sigla="pemuco" data-nombre="Pemuco" d="m138 123.8c-0.2-0.3-0.5-0.8-0.9-1.3-0.2-0.4-0.5-0.7-0.8-0.9q-0.2-0.1-0.4-0.2-0.2-0.1-0.5-0.1c-0.6 0-1.1 0-1.5 0.1-0.4 0.1-0.9 0.2-1.4 0.3q-0.2 0-0.4 0.2-0.3 0.2-0.5 0.4c-0.3 0.4-0.6 0.7-0.8 0.9-0.4 0.3-0.7 0.5-1 0.6-0.2 0.1-0.4 0.3-0.7 0.6-0.4 0.3-0.6 0.4-0.8 0.6q-0.1 0.1-0.2 0.4 0 0.3 0 0.9 0 0.1-0.3 0.3-0.3 0.1-0.7 0.2c-0.6 0.2-1.2 0.4-1.3 0.5q-0.2 0.1-0.4 0.1-0.2 0-0.4 0-0.4-0.1-0.8-0.4c-0.6-0.3-1-0.7-1.3-0.9-0.5-0.3-0.6-0.5-0.9-0.6-0.2 0-0.5 0-1.3 0.2q-0.3 0.1-0.8 0.1-0.5 0.1-1 0c-0.6 0-1.2 0-1.6 0.1-1.1 0.3-1.7 0.4-2.7 0.6q-0.8 0.1-1.5 0.2-0.8 0-1.6 0c-0.7 0-1.3-0.1-1.8-0.2-0.5-0.1-1.1-0.2-1.7-0.4q-0.5-0.1-0.8-0.4c-0.2-0.1-0.3-0.3-0.5-0.4q-0.2-0.3-0.5-0.4-0.4-0.1-0.9 0c-0.5 0.2-0.9 0.3-1.4 0.4q-0.7 0.2-1.5 0.2c-0.6 0-1.1 0-1.6 0q-0.3-0.1-0.7-0.2-0.3-0.1-0.6-0.4c-0.2-0.1-0.3-0.1-0.4-0.1-0.1 0-0.2 0.1-0.3 0.1-0.1 0-0.2 0-0.4 0-0.2-0.1-0.4-0.2-0.6-0.5q-0.2-0.2-0.4-0.2-0.2 0-0.4 0.1c-0.3 0.2-0.7 0.3-1.2 0.5q-0.2 0-0.5-0.1-0.3-0.2-0.7-0.4c-0.5-0.3-0.9-0.6-1.3-0.7q-0.1 0-0.3 0-0.1 0-0.2-0.1-0.3-0.2-0.4-0.6-0.2-0.3-0.4-0.6-0.2-0.4-0.4-0.6-0.2-0.2-0.5-0.3-0.4-0.1-0.8-0.2-0.4-0.1-0.8-0.2-0.4-0.1-0.6-0.3-0.4-0.3-0.8-0.5-0.4-0.1-0.7-0.2-0.4-0.1-0.8-0.2-0.3 0-0.6 0.1-0.3 0.1-0.6-0.1-0.3-0.2-0.6-0.4-0.3-0.3-0.6-0.6-0.3-0.3-0.6-0.4c-0.4-0.3-0.8-0.4-1.1-0.7q-0.2-0.1-0.4-0.3-0.2-0.3-0.4-0.6c0 0-0.2-0.1-0.5-0.1-0.3-0.1-0.7-0.1-1.1-0.2-0.4-0.1-0.8-0.1-1.1-0.2-0.4-0.1-0.6-0.1-0.8-0.2-0.2-0.3-0.6-0.6-0.9-0.9-0.3-0.3-0.5-0.6-0.6-0.7-0.1-0.1-0.6 0-1.1-0.1q-0.4 0-0.8-0.1-0.4-0.1-0.6-0.4-0.3-0.2-0.6-0.3-0.3-0.1-0.7-0.1c-0.5 0-1.1 0-1.6 0q-0.5 0-0.8-0.1-0.4-0.2-0.7-0.4-0.3-0.3-0.6-0.4-0.3-0.2-0.6-0.2c-0.2 0-0.4 0.1-0.7 0.2-0.2 0.1-0.4 0.3-0.6 0.4q-0.2 0.1-0.4 0.1-0.2 0.1-0.5 0-0.2 0-0.4-0.1-0.3-0.2-0.5-0.4-0.2-0.2-0.5-0.3-0.2-0.2-0.5-0.2c-0.3-0.1-0.6-0.2-0.9-0.2q-0.3-0.1-0.4-0.2-0.2 0-0.3-0.2-0.2-0.1-0.2-0.3 0-0.2 0.1-0.6 0-0.1-0.1-0.2-0.1-0.1-0.2-0.1c-0.2-0.1-0.6-0.1-0.9 0-0.6 0-1.3 0.1-1.3 0.2q-0.5 0.1-0.8 0.1-0.4 0-0.6 0-0.3-0.1-0.5-0.2-0.3-0.1-0.5-0.3 0-0.1-0.1-0.1-0.1 0-0.1 0.1-0.2 0.1-0.3 0.4-0.1 0.2-0.3 0.4-0.1 0.2-0.3 0.1c-0.6-0.3-0.9-0.4-1.2-0.4q0 0.1 0 0.2c0 0.6 0.2 1.2 0.3 1.7 0.2 0.5 0.3 0.9 0.3 1q0 0.5-0.1 0.7-0.1 0.3-0.3 0.5-0.2 0.1-0.3 0.3-0.2 0.2-0.3 0.5c-0.1 0.4-0.1 0.5-0.2 0.7 0.2 0.1 0.5 0.2 0.8 0.4 0.4 0.2 0.8 0.4 1.1 0.7q0.2 0.3 0.3 0.5 0.2 0.3 0.2 0.6c0 0.4 0 0.6 0.1 0.8 0.1 0.1 0.2 0.2 0.3 0.3 0.1 0 0.3 0.1 0.4 0.2 0.1 0.2 0.2 0.4 0.3 0.8 0.1 0.4 0.3 0.8 0.6 1.2 0.2 0.4 0.4 0.8 0.6 1.1q0.2 0.4 0.4 0.5 0.2 0.2 0.5 0.4 0.2 0.1 0.5 0.4 0.2 0.3 0.3 0.8 0.1 0.5 0.4 0.7 0.2 0.1 0.5 0.1c0.4 0 1-0.2 1.6-0.2q0.3 0 0.6 0.2 0.3 0.1 0.6 0.3 0.3 0.2 0.7 0.4 0.4 0.2 0.8 0.3c1 0.2 1.9 0.3 2.9 0.6 0.5 0.1 1 0.3 1.4 0.5 0.5 0.3 1 0.6 1.3 0.8 0.4 0.3 0.8 0.6 1.2 1 0.4 0.3 0.7 0.5 1.2 0.8q0.3 0.1 0.6 0.2 0.3 0.1 0.6 0.1c0.4 0 0.8 0.1 1.1 0.2q0.4 0.2 0.8 0.3 0.3 0.2 0.8 0.2 0.8 0.1 1.7 0.1 0.6 0 1.3 0 0.6 0 1.2-0.2 0.6 0.4 1.1 0.8 0.2 0.1 0.5 0 0.3-0.1 0.6-0.3 0.3-0.1 0.6-0.3 0.4-0.2 0.7-0.2c0 0 0.3 0.3 0.6 0.6q0.3 0.2 0.7 0.4 0.3 0.2 0.8 0.2c1.2 0 2.1 0.2 3.3 0.2 0.2 0 0.5-0.2 0.9-0.4q0.4-0.2 0.7-0.3 0.4-0.1 0.9-0.1 0.1 0 0.3-0.1 0.2-0.1 0.5-0.3 0.3-0.1 0.6-0.3 0.3-0.1 0.7-0.1 0.4 0 0.8 0.3 0.4 0.3 0.8 0.6 0.4 0.4 0.8 0.7c0.2 0.2 0.5 0.3 0.7 0.4q0.3 0 0.6 0 0.4-0.1 0.8-0.2 0.4-0.1 0.8-0.1 0.4 0 0.9 0.1c0.7 0.1 1.2 0.3 1.8 0.4 0.5 0.2 1 0.4 1.7 0.7 0.2 0.2 1 0.3 1.8 0.4 0.8 0.1 1.6 0.2 1.8 0.2q0.3 0 0.5-0.1 0.3-0.1 0.5-0.3 0.3-0.1 0.7-0.2 0.3-0.2 0.9-0.2 0.5 0 0.7-0.1 0.3 0 0.4-0.2c0.2-0.2 0.3-0.5 0.6-0.8q0.1-0.1 0.5-0.1c0.3-0.1 0.6-0.1 1 0 0.7 0 1.4 0.1 1.6 0.1 0.6 0 1.1 0 1.4-0.1q0.3 0 0.5-0.2 0.2-0.1 0.4-0.5 0.1-0.1 0.2-0.2 0.1-0.1 0.3-0.1 0.4-0.1 0.8 0c0.6 0 1.2 0.2 1.6 0.3q0.6 0.1 0.9 0.1 0.3 0 0.5-0.1c0.2-0.1 0.4-0.4 0.7-0.8 0.3-0.3 0.5-0.6 0.7-0.9q0.2-0.2 0.5-0.3 0.3-0.1 0.8-0.1c0.2 0 0.6-0.1 1.1-0.2 0.4-0.1 1-0.2 1.4-0.2q0.5 0 0.8-0.1c0.1-0.1 0.2-0.2 0.3-0.3q0.2-0.1 0.4-0.3c0.1 0 0.3-0.1 0.6-0.1 1.1 0 1.6-0.2 2.7-0.2q0.3 0 0.5-0.2 0.2-0.1 0.4-0.4c0.2-0.4 0.3-0.8 0.5-1.1q0.1-0.3 0.3-0.4 0.3-0.1 0.5-0.2 0.3 0 0.5-0.2 0.2-0.1 0.4-0.4 0.2-0.4 0.4-0.6 0.3-0.2 0.5-0.3 0.2-0.1 0.3-0.3c0.1-0.1 0.2-0.3 0.2-0.5z"/>
		<path id="map_nuble_El_Carmen" fill-rule="evenodd" class="map-nuble s1" data-siglaregion="NB" data-sigla="el_carmen" data-nombre="El Carmen" d="m138 123.7c0.1-0.4 0.2-0.8 0.2-1.2q0.1-0.3 0.1-0.6-0.1-0.4-0.2-0.8 0-0.3 0-0.6 0-0.4 0.1-0.7 0.1-0.3 0.1-0.6 0-0.3-0.2-0.6c-0.2-0.5-0.4-0.9-0.5-1.3-0.2-0.5-0.2-0.9-0.2-1.6 0-0.4 0-1.1-0.1-1.7q0-0.4-0.2-0.8-0.1-0.1-0.2-0.3-0.1-0.1-0.3-0.1-0.7-0.2-1.3-0.6-0.6-0.3-1-0.8c-0.2-0.2-0.5-0.6-0.9-1q-0.2-0.3-0.5-0.5-0.3-0.3-0.6-0.4c-1.1-0.6-1.9-0.8-3-1.4q-0.8-0.4-1.6-0.7-0.8-0.4-1.5-0.6c-0.4-0.1-0.5-0.2-0.7-0.3q-0.1-0.2-0.2-0.5 0-0.2-0.1-0.5-0.1-0.3-0.4-0.6c-0.1-0.1-0.8-0.6-1.4-1.1-0.4-0.2-0.7-0.4-1-0.5-0.3-0.2-0.4-0.2-0.5-0.2q-0.3 0.3-0.6 0.3-0.3 0.1-0.5 0c-0.2-0.1-0.4-0.2-0.6-0.2q-0.3-0.1-0.6 0.1c-0.3 0.1-0.7 0.5-1 0.8-0.4 0.4-0.8 0.7-0.9 0.8-0.4 0-0.8 0-1.2 0q-0.3 0-0.6 0-0.3 0-0.6 0.1-0.2 0.2-0.4 0.4-0.1 0.2-0.3 0.5-0.2 0.2-0.4 0.4-0.2 0.1-0.4 0.1c-0.4-0.1-1.1-0.3-1.8-0.4q-0.5-0.2-1-0.2-0.5 0-0.9 0.2c-0.4 0.2-0.7 0.3-0.9 0.5-0.3 0.1-0.5 0.3-0.8 0.7q-0.3 0.3-0.6 0.4-0.3 0.1-0.6 0.1c-0.4 0-0.9-0.2-1.5-0.3-0.5-0.1-1.1-0.3-1.8-0.5q-0.6-0.1-1-0.1-0.5 0-0.9 0.2c-0.5 0.3-1 0.5-1.4 0.7-0.4 0.2-0.8 0.3-1.3 0.4-0.3 0.1-0.8 0.1-1.3 0.2q-0.3 0-0.6 0.1-0.3 0.1-0.4 0.3-0.2 0.4-0.4 0.5-0.3 0.1-0.6 0.2c-0.4 0-0.9-0.1-1.5-0.1q-0.5 0-0.9 0-0.3 0.1-0.5 0.2-0.2 0.2-0.4 0.4-0.2 0.2-0.4 0.6c-0.1 0.2-0.4 0.8-0.7 1.3q-0.2 0.4-0.4 0.6-0.2 0.3-0.4 0.4c-0.1 0-0.6-0.2-1-0.4-0.5-0.3-1-0.5-1.1-0.4-0.3 0.1-0.6 0.4-0.8 0.7q-0.3 0.2-0.5 0.3-0.2 0.2-0.5 0.2-0.3 0-0.7 0-0.3 0.1-0.7 0.2c-0.4 0.2-0.7 0.3-0.9 0.3-0.4 0-0.7-0.1-1.2-0.2-0.4 0-0.9-0.1-1.5-0.1q-0.4 0-0.7 0.1-0.3 0.1-0.6 0.2-0.3 0.1-0.6 0-0.4-0.1-0.8-0.5-0.2-0.3-0.5-0.5-0.3-0.2-0.7-0.3-0.3-0.2-0.7-0.3-0.4 0-0.8 0.1-0.4 0.1-0.7 0.2-0.2 0.2-0.4 0.3-0.2 0.1-0.4 0.2-0.3 0.1-0.8 0.1c-0.2 0-0.5 0.1-0.7 0.2q-0.2 0.1-0.4 0.3 0.3 0 0.5 0.1 0.3 0.1 0.6 0.3 0.2 0.3 0.6 0.4 0.4 0.1 0.8 0.1c0.5 0.1 1 0 1.1 0.1 0.1 0.1 0.3 0.4 0.6 0.7 0.3 0.3 0.7 0.6 0.9 0.9 0.2 0.1 0.4 0.1 0.8 0.2 0.3 0.1 0.7 0.1 1.1 0.2 0.4 0.1 0.8 0.1 1.1 0.2 0.3 0 0.5 0.1 0.5 0.1q0.2 0.3 0.4 0.6 0.2 0.2 0.4 0.3c0.3 0.3 0.7 0.4 1.1 0.7q0.3 0.1 0.6 0.4 0.3 0.3 0.6 0.6 0.3 0.2 0.6 0.4 0.3 0.2 0.6 0.1 0.3-0.1 0.6-0.1 0.4 0.1 0.8 0.2 0.3 0.1 0.7 0.2 0.4 0.2 0.8 0.5 0.2 0.2 0.6 0.3 0.4 0.1 0.8 0.2 0.4 0.1 0.8 0.2 0.3 0.1 0.5 0.3 0.2 0.2 0.4 0.6 0.2 0.3 0.4 0.6 0.1 0.4 0.4 0.6 0.1 0.1 0.2 0.1 0.2 0 0.3 0c0.4 0.1 0.8 0.4 1.3 0.7q0.4 0.2 0.7 0.4 0.3 0.1 0.5 0.1c0.5-0.2 0.9-0.3 1.2-0.5q0.2-0.1 0.4-0.1 0.2 0 0.4 0.2c0.2 0.3 0.4 0.4 0.6 0.5 0.2 0 0.3 0 0.4 0 0.1 0 0.2-0.1 0.3-0.1 0.1 0 0.2 0 0.4 0.1q0.3 0.3 0.6 0.4 0.4 0.1 0.7 0.2c0.5 0 1 0 1.6 0q0.8 0 1.5-0.2c0.5-0.1 0.9-0.2 1.4-0.4q0.5-0.1 0.9 0 0.3 0.1 0.5 0.4c0.2 0.1 0.3 0.3 0.5 0.4q0.3 0.3 0.8 0.4c0.6 0.2 1.2 0.3 1.7 0.4 0.5 0.1 1.1 0.2 1.8 0.2q0.8 0 1.6 0 0.7-0.1 1.5-0.2c1-0.2 1.6-0.3 2.7-0.6 0.4-0.1 1-0.1 1.6-0.1q0.5 0.1 1 0 0.5 0 0.8-0.1c0.8-0.2 1.1-0.2 1.3-0.2 0.3 0.1 0.4 0.3 0.9 0.6 0.3 0.2 0.7 0.6 1.3 0.9q0.4 0.3 0.8 0.4 0.2 0 0.4 0 0.2 0 0.4-0.1c0.1-0.1 0.7-0.3 1.3-0.5q0.4-0.1 0.7-0.2 0.3-0.2 0.3-0.3 0-0.6 0-0.9 0.1-0.3 0.2-0.4c0.2-0.2 0.4-0.3 0.8-0.6 0.3-0.3 0.5-0.5 0.7-0.6 0.3-0.1 0.6-0.3 1-0.6 0.2-0.2 0.5-0.5 0.8-0.9q0.2-0.2 0.5-0.4 0.2-0.2 0.4-0.2c0.5-0.1 1-0.2 1.4-0.3 0.4-0.1 0.9-0.1 1.5-0.1q0.3 0 0.5 0.1 0.2 0.1 0.4 0.2c0.3 0.2 0.6 0.5 0.8 0.9 0.4 0.5 0.7 0.9 0.9 1.2z"/>
		<path id="map_nuble_San_Ignacio" fill-rule="evenodd" class="map-nuble s1" data-siglaregion="NB" data-sigla="san_ignacio" data-nombre="San Ignacio" d="m81.1 92.5c0 0 0.1 0.1 0.1 0.1q0.1 0.3 0.1 0.6-0.1 0.4-0.2 0.8-0.1 0.4 0 0.7 0 0.2 0 0.5c0.1 0.4 0.3 0.8 0.4 1.3q0.1 0.3 0.4 0.7 0.2 0.3 0.6 0.6 0.3 0.3 0.5 0.6 0.3 0.3 0.3 0.7 0 0.4 0 0.9l-3.1-0.9-1.4 3.2-0.6-0.3-1.5 2.3v1.5h0.8l-1.2 0.8-2 6.4q0.4-0.1 0.7-0.1 0.2-0.1 0.4-0.2 0.2-0.1 0.4-0.3 0.3-0.1 0.7-0.2 0.4-0.1 0.8-0.1 0.4 0.1 0.7 0.3 0.4 0.1 0.7 0.3 0.3 0.2 0.5 0.5 0.4 0.4 0.8 0.5 0.3 0.1 0.6 0 0.3-0.1 0.6-0.2 0.3-0.1 0.7-0.1c0.6 0 1.1 0.1 1.5 0.1 0.5 0.1 0.8 0.2 1.2 0.2 0.2 0 0.5-0.1 0.9-0.3q0.4-0.1 0.7-0.2 0.4 0 0.7 0 0.3 0 0.5-0.2 0.2-0.1 0.5-0.3c0.2-0.3 0.5-0.6 0.8-0.7 0.1-0.1 0.6 0.1 1.1 0.4 0.4 0.2 0.9 0.4 1 0.4q0.2-0.1 0.4-0.4 0.2-0.2 0.4-0.6c0.3-0.5 0.6-1.1 0.7-1.3q0.2-0.4 0.4-0.6 0.2-0.2 0.4-0.4 0.2-0.1 0.5-0.2 0.4 0 0.9 0c0.6 0 1.1 0.1 1.5 0.1q0.3-0.1 0.6-0.2 0.2-0.1 0.4-0.5 0.1-0.2 0.4-0.3 0.3-0.1 0.6-0.1c0.5-0.1 1-0.1 1.3-0.2 0.5-0.1 0.9-0.2 1.3-0.4 0.4-0.2 0.9-0.4 1.4-0.7q0.4-0.2 0.9-0.2 0.4 0 1 0.1c0.7 0.2 1.3 0.4 1.8 0.5 0.6 0.1 1.1 0.3 1.5 0.3q0.3 0 0.6-0.1 0.3-0.1 0.6-0.4c0.3-0.4 0.5-0.6 0.8-0.7 0.2-0.2 0.5-0.3 0.9-0.5q0.4-0.2 0.9-0.2 0.5 0 1 0.2c0.7 0.1 1.4 0.3 1.8 0.4q0.2 0 0.4-0.1 0.2-0.2 0.4-0.4 0.2-0.3 0.3-0.5 0.2-0.2 0.4-0.4 0.3-0.1 0.6-0.1 0.3 0 0.6 0c0.4 0 0.8 0 1.2 0 0.1-0.1 0.5-0.4 0.9-0.8 0.3-0.3 0.7-0.7 1-0.8 0 0 0.1 0 0.1 0-0.1-0.5-0.2-0.9-0.1-1 0.3-0.1 1.1-0.5 1.6-0.7 0.3-0.1 0.4-0.2 0.5-0.3 0 0-0.2 0-0.6 0.1-0.1 0-1 0.4-1.8 0.8-0.4 0.1-0.9 0.3-1.2 0.4-0.3 0.1-0.6 0.2-0.6 0.1-0.3-0.1-0.8-0.4-1.2-0.5-0.5-0.2-0.9-0.3-1-0.2-0.1 0.3-0.4 0.6-0.7 0.9q-0.5 0.5-1 1-0.3 0.3-0.6 0.4-0.3 0-0.6-0.1-0.3-0.2-0.6-0.4-0.4-0.3-0.7-0.7c-0.3-0.3-0.6-0.5-1-0.8q-0.6-0.4-1.1-0.9c-0.5-0.5-0.9-0.9-1.3-1.3q-0.2-0.2-0.5-0.4-0.3-0.2-0.8-0.3c-0.9-0.2-1.9-0.3-2.7-0.5q-0.8-0.2-1.5-0.6-0.7-0.3-1.4-0.8-0.3-0.3-0.7-0.4-0.3-0.1-0.6-0.2-0.3-0.1-0.6-0.3-0.2-0.1-0.4-0.4-0.2-0.5-0.6-1-0.5-0.5-1.1-0.8-0.3-0.1-0.8-0.2c-0.3 0-0.6 0-0.9 0-0.1 0-0.2 0-0.3 0q0 0 0 0 0 0.1-0.2 0.1c-0.1 0-0.4-0.2-0.7-0.3-0.3-0.1-0.6-0.3-1-0.3q-0.2-0.1-0.4-0.1-0.2 0-0.3 0c-0.4 0.2-0.9 0.3-1.4 0.4-0.5 0-0.9 0.1-1.2 0.2q-0.2 0.1-0.6 0-0.3-0.1-0.7-0.3c-0.6-0.2-1.2-0.5-1.4-0.6-0.5-0.3-0.9-0.4-1.3-0.5q-0.2 0-0.5-0.1-0.3-0.2-0.7-0.4-0.2-0.2-0.5-0.3-0.3-0.1-0.6-0.1c-0.4 0-0.8 0.1-1.2 0.2-0.3 0.1-0.7 0.2-1 0.4z"/>
		<path id="map_nuble_Bulnes" fill-rule="evenodd" class="map-nuble s1" data-siglaregion="NB" data-sigla="bulnes" data-nombre="Bulnes" d="m48.4 87.3q-0.1 0-0.1 0 0 0.2 0 0.5 0 0.3-0.2 0.6c-0.2 0.4-0.5 0.7-0.6 1q-0.1 0.2 0 0.5 0.1 0.3 0.4 0.6c0.3 0.3 0.6 0.6 0.9 1q0.2 0.2 0.4 0.5 0.2 0.3 0.2 0.7c0.2 0.6 0.3 0.9 0.4 1.3 0.2 0.3 0.4 0.6 0.8 1 0.3 0.2 0.6 0.5 0.7 0.8q0.2 0.2 0.1 0.5 0 0.2-0.2 0.4c-0.2 0.2-0.5 0.5-0.7 1q-0.2 0.3-0.2 0.6-0.1 0.4 0.1 0.8 0.2 0.3 0.2 0.6 0 0.2 0 0.4c-0.1 0.4-0.2 0.7-0.2 1.3q0 0.4 0.1 0.7 0 0.3 0.2 0.6 0.1 0.3 0.3 0.5 0.2 0.2 0.6 0.5c0.3 0.2 0.7 0.5 1 0.8q0.2 0.2 0.4 0.5 0.2 0.3 0.3 0.6c0.1 0.3 0.3 0.9 0.5 1.5 0.2 0.6 0.5 1.2 0.7 1.4 0.3 0.3 0.6 0.6 0.8 1q0.1 0.3 0.2 0.6 0.1 0.2 0.1 0.5c0.3 0 0.6 0.1 1.2 0.4q0.2 0.1 0.3-0.1 0.2-0.2 0.3-0.4 0.1-0.3 0.3-0.4 0-0.1 0.1-0.1 0.1 0 0.1 0.1 0.2 0.2 0.5 0.3 0.2 0.1 0.5 0.2 0.2 0 0.6 0 0.3 0 0.8-0.1c0-0.1 0.7-0.2 1.3-0.2 0.3-0.1 0.7-0.1 0.9 0q0.1 0 0.2 0.1 0.1 0.1 0.1 0.2-0.1 0.4-0.1 0.6 0 0.2 0.2 0.3 0.1 0.2 0.3 0.2 0.1 0.1 0.4 0.2c0.3 0 0.6 0.1 0.9 0.2q0.3 0 0.5 0.2 0.3 0.1 0.5 0.3 0.2 0.2 0.5 0.4 0.2 0.1 0.4 0.1 0.3 0.1 0.5 0 0.2 0 0.4-0.1c0.2-0.1 0.4-0.3 0.6-0.4 0.3-0.1 0.5-0.2 0.7-0.2q0.3 0 0.6 0.2 0.3 0.1 0.6 0.4 0.3 0.2 0.7 0.4 0.3 0.1 0.8 0.1c0.5 0 1.1 0 1.6 0q0.1 0 0.2 0 0.2-0.2 0.4-0.3c0.2-0.1 0.5-0.2 0.7-0.2 0 0 0 0 0.1 0l2-6.4 1.2-0.8h-0.8v-1.5l1.5-2.3 0.6 0.3 1.4-3.2 3.1 0.9q0-0.5 0-0.9 0-0.4-0.3-0.7-0.2-0.3-0.5-0.6-0.4-0.3-0.6-0.6-0.3-0.4-0.4-0.7c-0.1-0.5-0.3-0.9-0.4-1.3q0-0.3 0-0.5-0.1-0.3 0-0.7 0.1-0.4 0.2-0.8 0-0.3-0.1-0.6c0 0-0.1-0.1-0.1-0.1-0.4 0.1-0.8 0.2-1.1 0.4q-0.3 0.1-0.6 0.1-0.4 0-0.8 0c-0.6-0.1-1.2-0.1-1.5-0.1q-0.4 0-0.7 0.1-0.2 0.1-0.4 0.2-0.2 0.1-0.4 0.1-0.2 0-0.6-0.2-0.5-0.2-0.8-0.2-0.3 0-0.7 0.1-0.3 0.1-0.6 0.1-0.4 0.1-0.8 0c-0.5-0.1-0.9-0.3-1.3-0.4q-0.3-0.1-0.6-0.3-0.3-0.1-0.5-0.3 0-0.1-0.2 0-0.1 0.2-0.3 0.3-0.2 0.2-0.4 0.3-0.3 0.1-0.6 0-0.4-0.2-0.7-0.5-0.4-0.3-0.8-0.7c-0.5-0.4-0.9-0.9-1-1-0.6-0.2-0.8-0.5-1.1-0.6q-0.1-0.1-0.3-0.1-0.1 0-0.4 0.2-0.2 0.1-0.3 0.1-0.2 0-0.4-0.1c-0.2-0.1-0.4-0.3-0.6-0.6-0.2-0.2-0.3-0.5-0.4-0.8-0.1-0.2-0.2-0.5-0.2-0.6q0-0.1-0.1-0.1 0 0-0.1 0.1c-0.2 0-0.4 0.2-0.6 0.3-0.4 0.3-0.8 0.7-0.9 0.7-0.9 0-1.8-0.2-2.9-0.2q-0.3 0-0.6 0.1-0.3 0.1-0.6 0.3c-0.4 0.2-0.7 0.5-1.2 0.6q-0.4 0.1-0.7 0.1-0.4 0-0.7-0.1-0.4-0.1-0.6-0.3-0.3-0.1-0.5-0.3-0.3-0.3-0.5-0.4-0.3-0.1-0.6-0.1c-0.3 0-0.8 0.1-1.4 0.1q-0.2 0-0.3-0.1-0.2-0.1-0.3-0.2c-0.2-0.3-0.4-0.6-0.7-1q-0.1-0.2-0.3-0.2z"/>
		<path id="map_nuble_Pinto" fill-rule="evenodd" class="map-nuble s1" data-siglaregion="NB" data-sigla="pinto" data-nombre="Pinto" d="m100.9 82.9l-1.4 2.8-2.7-1.7-2.3 4.2 2.3 1.6q0.1 0.4 0.2 0.7 0.1 0.5 0 0.8-0.1 0.3-0.4 0.4-0.3 0.2-0.6 0.3-0.3 0-0.6 0.1-0.3 0.1-0.5 0.3-0.2 0.1-0.2 0.4-0.1 0.2 0 0.6 0.1 0.3 0.2 0.6 0 0.1-0.1 0.2c0.1 0 0.2 0 0.3 0 0.3 0 0.6 0 0.9 0q0.5 0.1 0.8 0.2 0.6 0.3 1.1 0.8 0.4 0.5 0.6 1 0.2 0.3 0.4 0.4 0.3 0.2 0.6 0.3 0.3 0.1 0.6 0.2 0.4 0.1 0.7 0.4 0.7 0.5 1.4 0.8 0.7 0.4 1.5 0.6c0.8 0.2 1.8 0.3 2.7 0.5q0.5 0.1 0.8 0.3 0.3 0.2 0.5 0.4c0.4 0.4 0.8 0.8 1.3 1.3q0.5 0.5 1.1 0.9c0.4 0.3 0.7 0.5 1 0.8q0.3 0.4 0.7 0.7 0.3 0.2 0.6 0.4 0.3 0.1 0.6 0.1 0.3-0.1 0.6-0.4 0.5-0.5 1-1c0.3-0.3 0.6-0.6 0.7-0.9 0.1-0.1 0.5 0 1 0.2 0.4 0.1 0.9 0.4 1.2 0.5 0 0.1 0.3 0 0.6-0.1 0.3-0.1 0.8-0.3 1.2-0.4 0.8-0.4 1.7-0.8 1.8-0.8 0.4-0.1 0.6-0.1 0.6-0.1-0.1 0.1-0.2 0.2-0.5 0.3-0.5 0.2-1.3 0.6-1.6 0.7-0.1 0.1 0 0.5 0.1 1q0.3-0.1 0.5-0.1c0.2 0 0.4 0.1 0.6 0.2q0.2 0.1 0.5 0 0.3 0 0.6-0.3c0.1 0 0.2 0 0.5 0.2 0.3 0.1 0.6 0.3 1 0.5 0.6 0.5 1.3 1 1.4 1.1q0.3 0.3 0.4 0.6 0.1 0.3 0.1 0.5 0.1 0.3 0.2 0.5c0.2 0.1 0.3 0.2 0.7 0.3q0.7 0.2 1.5 0.6 0.8 0.3 1.6 0.7c1.1 0.6 1.9 0.8 3 1.4q0.3 0.1 0.6 0.4 0.3 0.2 0.5 0.5c0.4 0.4 0.7 0.8 0.9 1q0.4 0.5 1 0.8 0.6 0.4 1.3 0.6 0.2 0 0.3 0.1 0.1 0.2 0.2 0.3 0.2 0.4 0.2 0.8c0.1 0.6 0.1 1.3 0.1 1.7 0 0.7 0 1.1 0.2 1.6 0.1 0.4 0.3 0.8 0.5 1.3q0.2 0.3 0.2 0.6 0 0.3-0.1 0.6-0.1 0.3-0.1 0.7 0 0.3 0 0.6 0.1 0.4 0.2 0.8 0 0.3-0.1 0.6c0 0.4-0.1 0.8-0.2 1.2 0 0 0 0.1 0 0.1 0.1-0.1 0.1-0.1 0.1-0.2q0.1-0.1 0.2-0.1 0.1 0 0.2 0.2c0.1 0.1 0.3 0.4 0.4 0.7 0.3 0.6 0.6 1.3 0.6 1.5q0 0.2 0.1 0.3 0.1 0.2 0.2 0.3 0.3 0.3 0.7 0.4 0.5 0.2 0.9 0.3 0.5 0.1 0.8 0.1 0.2 0 0.4-0.1 0.3-0.2 0.6-0.3c0.3-0.2 0.7-0.5 0.9-0.6q0.3-0.1 0.6-0.1 0.4 0 0.8 0c0.6 0 1.2 0.1 1.5 0.1 0-0.1 0.3-0.1 0.6-0.1 0.2 0 0.6 0.1 1 0.3q0.3 0.1 0.5 0.3 0.2 0.2 0.4 0.4 0.1 0.2 0.2 0.5 0 0.2-0.2 0.5-0.1 0.1-0.1 0.2 0 0 0.1 0.2c0.1 0.1 0.3 0.3 0.5 0.6 0.4 0.4 0.9 0.8 0.9 0.8q0.2 0.2 0.4 0.4 0.1 0.3 0.2 0.6c0.1 0.4 0.2 0.8 0.4 1.3q0.1 0.4 0.3 0.6 0.2 0.3 0.5 0.5c0.5 0.3 1 0.6 1.5 0.8 0.5 0.3 1 0.5 1.4 0.6q0.3 0.2 0.6 0.3 0.2 0.2 0.5 0.5 0.2 0.1 0.3 0.2 0.1 0 0.3-0.1c0.2-0.1 0.3-0.3 0.5-0.5 0.2-0.4 0.4-1 0.4-1.2q0.1-0.1 0.2-0.2 0.1-0.1 0.3-0.2c0.2 0 0.5 0 0.8 0 0.2 0.1 0.6 0.1 0.9 0.2q0.4 0 0.7-0.2 0.3-0.1 0.6 0.1 0.3 0.1 0.7 0.3 0.3 0.2 0.7 0.4 0.4 0.2 0.7 0.2 0.6 0 0.9 0.1 0.4 0.1 0.6 0.2 0.3 0.2 0.5 0.4 0.2 0.3 0.4 0.7 0.2 0.3 0.4 0.5c0.1 0.1 0.3 0.2 0.5 0.3 0.1 0 0.3 0.1 0.4 0.3q0.3 0.3 0.4 0.8 0 0.2 0.1 0.2 0.2 0.1 0.3 0.1 0.3 0.1 0.7 0 0.5-0.1 0.9-0.2c0.2 0 0.5 0 0.7 0.1q0.6 0.3 0.8 0.4 0.3 0.2 0.5 0.1 0.1 0 0.3-0.2 0.2-0.1 0.5-0.5 0.1-0.1 0.3-0.1 0.1 0 0.3 0.1c0.2 0.1 0.4 0.3 0.6 0.4q0.4 0.1 0.8 0.1 0.4 0 0.7-0.1c0.5-0.1 1-0.3 1.2-0.4 0.3-0.1 0.7-0.3 1.2-0.3 0.4-0.1 0.8-0.2 1.1-0.3 0.3-0.1 0.5-0.2 0.6-0.3 0.2-0.1 0.2-0.1 0.3-0.2 0.1-0.1 0.2-0.1 0.4 0 0.2 0 0.4 0.1 0.8 0.3q0.3 0.1 0.5 0.4 0.2 0.2 0.4 0.5c0.3 0.4 0.6 0.8 0.9 1.1q0.2 0.1 0.6 0.2 0.3 0 0.8 0c0.5 0 1.1-0.1 1.5-0.1q1.4 0 2.9 0 0.6 0 1.3 0c-0.3-0.6-0.8-1.1-1.1-1.1-0.3 0-1.4-2.1-1.8-3.4-0.1-0.5 0.7-1.1 0.3-1.4-0.6-0.5-1.9-0.2-1.7-0.7 0.1-0.4 0-2-0.3-2.7-0.2-0.8 0.1-1.3 0-1.7-0.3-1.1-2.6-4.1-3.8-4.7-0.6-0.3-3.1-1.3-3.6-1.6-0.2 0-0.3 0-0.5 0q-0.5 0-0.8-0.1-0.3-0.1-0.5-0.2-0.2-0.1-0.2-0.2-0.1-0.1-0.1-0.3c0-0.2 0-0.4 0-0.6q-0.1-0.1-0.2-0.2-0.1-0.1-0.4-0.2-0.3-0.1-0.7-0.3-0.4-0.3-0.7-0.6c-0.5-0.5-0.9-1-1.1-1.4q-0.1-0.4-0.2-0.6 0-0.3 0-0.5c0.1-0.3 0.2-0.5 0.2-0.6 0-0.6 0-1.1-0.1-1.5q-0.1-0.4-0.3-0.7-0.1-0.3-0.3-0.5-0.4-0.4-0.6-0.6-0.3-0.1-0.6-0.2-0.2 0-0.6 0.1-0.3 0.1-0.8 0.3c-0.3 0.1-0.6 0.4-0.9 0.6q-0.3 0.1-0.6 0.2-0.3 0.1-0.8 0.1c-0.6 0-1.4 0.1-2.2 0q-0.5-0.1-1-0.3-0.2-0.1-0.4-0.3-0.1-0.1-0.2-0.3-0.1-0.3-0.2-0.4 0-0.2 0.1-0.4c0-0.2 0.2-0.3 0.3-0.5 0.1-0.1 0.2-0.3 0.3-0.4q0-0.1 0-0.2 0-0.1-0.2-0.3c0 0-0.1-0.2-0.3-0.5-0.3-0.3-0.5-0.6-0.8-0.8q-0.6-0.4-1.1-0.8c-0.3-0.3-0.7-0.6-1-1q-0.6-0.5-1.1-1.1-0.6-0.5-1.1-1.2-0.1-0.2-0.1-0.5-0.1-0.3-0.1-0.6 0-0.4 0-0.6-0.1-0.3-0.3-0.4c-0.1 0-0.8-0.4-1.5-0.8-0.3-0.2-0.6-0.4-0.8-0.5-0.3-0.2-0.4-0.4-0.4-0.4 0-0.2 0-0.3 0-0.4-0.2-0.4-0.4-0.6-0.5-0.7q-0.1-0.1-0.2 0c0 0.1-0.1 0.2-0.2 0.3 0 0.1-0.2 0.2-0.3 0.2q-0.5 0-0.9 0.2-0.3 0.2-0.5 0.5-0.2 0.2-0.4 0.4-0.2 0.2-0.3 0.2c-0.2 0-0.3 0-0.4 0-0.2 0.1-0.5 0.1-0.9 0.1-0.3-0.1-0.7-0.2-1.1-0.2-0.4-0.1-0.8-0.2-1.1-0.2q-0.3 0-0.5 0-0.2 0-0.3 0.1c-0.1 0.2-0.5 0.4-0.8 0.7-0.3 0.3-0.7 0.6-0.7 0.7-0.1 0.1-0.3 0.2-0.5 0.4q-0.4 0.2-0.8 0.4c-0.7 0.3-1.3 0.6-1.4 0.6-0.5 0-1 0-1.6 0q-0.5 0-0.9-0.1-0.4 0-0.6-0.1c-0.4-0.2-0.9-0.4-1.5-0.6-0.6-0.2-1.1-0.4-1.6-0.6-0.2-0.1-0.9-0.4-1.5-0.8-0.4-0.1-0.7-0.3-0.9-0.6q-0.4-0.3-0.5-0.5-0.1-0.5-0.3-0.9-0.1-0.3-0.4-0.5-0.3-0.2-0.7-0.3-0.3-0.1-0.9-0.1-0.5 0-1-0.1-0.4-0.1-0.9-0.2-0.4-0.1-0.8-0.2-0.5 0-1-0.1c-1.2 0-2.5-0.1-3.5-0.1q-0.6-0.1-1.1-0.2-0.4-0.1-0.8-0.3-0.4-0.2-0.9-0.4-0.4-0.1-1.1-0.1-0.4 0-0.7-0.2-0.3-0.2-0.6-0.4-0.3-0.3-0.6-0.5-0.3-0.3-0.8-0.5c-0.2-0.1-0.8-0.3-1.3-0.6q-0.3-0.2-0.6-0.4-0.3-0.3-0.4-0.5c0-0.2-0.2-0.8-0.3-1.3q-0.2-0.4-0.4-0.7-0.2-0.3-0.4-0.3c-0.5-0.2-0.9-0.3-1.3-0.5q-0.2-0.2-0.5-0.4-0.2-0.3-0.4-0.7c-0.1-0.3-0.3-0.7-0.5-1q-0.1-0.3-0.3-0.5-0.2-0.1-0.5-0.2-0.5-0.1-0.8-0.3-0.4-0.2-0.6-0.4c-0.4-0.3-0.7-0.6-1.3-0.9-0.3-0.1-0.9-0.3-1.5-0.5q-0.5-0.1-0.9-0.3-0.4-0.1-0.7-0.3c-0.2-0.2-0.5-0.7-0.9-1.3q-0.2-0.4-0.5-0.7-0.2-0.3-0.4-0.3c-0.5-0.2-0.8-0.3-1.1-0.5-0.3-0.2-0.6-0.4-1-0.7-0.1-0.1-0.3-0.2-0.5-0.3z"/>
		<path id="map_nuble_Chillan_Viejo" fill-rule="evenodd" class="map-nuble s1" data-siglaregion="NB" data-sigla="chillan_viejo" data-nombre="Chill치n Viejo" d="m88.3 93.9c0-0.1 0-0.1 0-0.3q0-0.8 0.1-1.4 0-0.6 0.3-1.1c0.1-0.3 0.3-0.7 0.4-1.1q0-0.3 0-0.7-0.1-0.3-0.2-0.7c-0.2-0.3-0.4-0.7-0.7-1.1-0.2-0.4-0.4-0.8-0.5-1.2-0.1-0.4-0.2-0.8-0.3-1.3q-0.1-0.3-0.3-0.7-0.1-0.3-0.4-0.5c-0.3-0.3-0.5-0.7-0.7-1.1q-0.2-0.3-0.3-0.5-0.2-0.2-0.5-0.4c-0.3-0.1-0.7-0.4-1.1-0.8q-0.3-0.4-0.5-0.7-0.2-0.4-0.3-0.8c-0.1 0-0.3-0.6-0.6-1.2-0.3-0.5-0.5-1.1-0.6-1.1-0.5 0-1.1-0.2-1.7-0.3q-0.4-0.1-0.7 0-0.2 0-0.3 0.1-0.1 0.1-0.2 0.2c-0.2 0.4-0.3 0.6-0.4 0.7-0.1 0.1-0.2 0.2-0.3 0.2-0.1-0.1-0.2-0.1-0.4-0.1-0.1 0-0.4 0-0.6 0.2q-0.2 0.1-0.6 0.1-0.3 0-0.7-0.1-0.4 0-0.8 0-0.3 0.1-0.4 0.2c-0.7 0.5-1 0.7-1.2 0.8-0.1 0.1-0.3 0.1-0.4 0.1q-0.3 0-0.8-0.2-0.3 0-0.4 0c-0.1 0-0.2 0-0.3 0.1q-0.2 0-0.5 0.1-0.3 0-0.9 0c-0.9 0-2.3 0.2-2.5 0.2-0.4 0-0.8 0-1.3 0q-0.4 0-0.7-0.1-0.4-0.1-0.7-0.3c-0.3-0.1-0.5-0.1-0.7-0.1-0.1 0-0.2 0.1-0.3 0.3-0.1 0.1-0.2 0.3-0.3 0.4q-0.2 0.1-0.3 0.2-0.2 0-0.5 0-0.5 0-0.8 0.1-0.4 0.2-0.8 0.3-0.3 0.2-0.6 0.3-0.4 0.1-0.7 0.1c-0.4 0-0.7 0.1-0.9 0.2q-0.2 0.2-0.4 0.4c-0.1 0.2-0.2 0.4-0.3 0.6q-0.3 0.2-0.8 0.3-0.2 0.1-0.4 0.4-0.2 0.3-0.2 0.7-0.1 0.3 0 0.7 0.1 0.3 0.3 0.6 0.1 0.1 0.2 0.3 0.1 0.2 0.1 0.4 0 0.3-0.2 0.6-0.1 0.3-0.3 0.5-0.1 0.2 0 0.3c0 0 0.1 0.4 0.2 0.8q0.1 0.4 0.1 0.7 0 0.4-0.1 0.6 0 0 0 0c1 0 1.8 0.2 2.7 0.2 0.1 0 0.5-0.4 0.9-0.7 0.2-0.1 0.4-0.3 0.6-0.3q0.1-0.1 0.1-0.1 0.1 0 0.1 0.1c0 0.1 0.1 0.4 0.2 0.6 0.1 0.3 0.2 0.6 0.4 0.8 0.2 0.3 0.4 0.5 0.6 0.6q0.2 0.1 0.4 0.1 0.1 0 0.3-0.1 0.3-0.2 0.4-0.2 0.2 0 0.3 0.1c0.3 0.1 0.5 0.4 1.1 0.6 0.1 0.1 0.5 0.6 1 1q0.4 0.4 0.8 0.7 0.3 0.3 0.7 0.5 0.3 0.1 0.6 0 0.2-0.1 0.4-0.3 0.2-0.1 0.3-0.3 0.2-0.1 0.2 0 0.2 0.2 0.5 0.3 0.3 0.2 0.6 0.3c0.4 0.1 0.8 0.3 1.3 0.4q0.4 0.1 0.8 0 0.3 0 0.6-0.1 0.4-0.1 0.7-0.1 0.3 0 0.8 0.2 0.4 0.2 0.6 0.2 0.2 0 0.4-0.1 0.2-0.1 0.4-0.2 0.3-0.1 0.7-0.1c0.3 0 0.9 0 1.5 0.1q0.4 0 0.8 0 0.3 0 0.6-0.1c0.6-0.4 1.4-0.6 2.1-0.8 0.4-0.1 0.8-0.2 1.2-0.2q0.3 0 0.6 0.1 0.3 0.1 0.5 0.3 0.4 0.2 0.7 0.4 0.3 0.1 0.5 0.1c0.4 0.1 0.8 0.2 1.3 0.5 0.2 0.1 0.8 0.4 1.4 0.6q0 0 0 0z"/>
		<path id="map_nuble_Chillan" fill-rule="evenodd" class="map-nuble s1" data-siglaregion="NB" data-sigla="chillan" data-nombre="Chill치n" d="m94.4 62.5q-0.3 0-0.5 0.2c-0.4 0.4-0.6 0.9-1.1 1.4-0.3 0.3-0.5 0.5-0.7 0.6-0.2 0.1-0.5 0.1-1.1 0.1-0.5 0-1 0-1.3 0q-0.2 0-0.4 0.1-0.2 0-0.2 0.2c-0.2 0.3-0.3 0.8-0.5 1.1q-0.2 0.3-0.4 0.5-0.2 0.2-0.6 0.2-0.4 0-0.7 0.1-0.3 0-0.5 0.1c-0.2 0.2-0.4 0.4-0.7 0.4-0.7 0.2-1.6 0.4-2.1 0.7q-0.5 0.1-1.1 0.2-0.7 0.1-1.5 0.1c-0.4 0-0.8 0-1.2 0-0.4 0-0.8 0-1 0.1q-0.3 0.2-0.5 0.1-0.3 0-0.5 0-0.2-0.1-0.4 0-0.2 0-0.2 0.3-0.1 0.2-0.4 0.4-0.2 0.1-0.5 0.2c-0.5 0-1 0-1.4 0-0.4 0-0.7 0.1-1 0.2-0.2 0.1-0.4 0.3-0.6 0.6-0.2 0.3-0.3 0.5-0.4 0.8-0.2 0.3-0.3 0.6-0.6 0.8-0.2 0.3-0.4 0.5-0.6 0.7q-0.1 0.1-0.4 0.2-0.2 0.1-0.6 0.1c-0.9 0-1.7-0.2-2.4-0.2-0.2 0-0.5 0.1-0.7 0.2-0.3 0.1-0.6 0.2-0.7 0.5-0.1 0.1-0.4 0.4-0.6 0.8-0.3 0.3-0.5 0.6-0.6 0.6q-0.5 0.2-1.1 0.2-0.6 0-1.3-0.2c-0.5-0.1-0.7-0.2-0.9-0.2-0.2 0.1-0.4 0.2-0.8 0.4-0.3 0.1-0.6 0.2-0.9 0.3-0.3 0.2-0.5 0.3-0.8 0.5-0.2 0.3-0.4 0.5-0.6 0.6q-0.1 0.1-0.3 0.1-0.3 0-0.7-0.1-0.5-0.1-0.8 0-0.3 0-0.5 0.2-0.2 0.1-0.4 0.4-0.3 0.2-0.7 0.4-0.4 0.2-0.7 0.4c-0.3 0.1-0.5 0.3-0.7 0.6q-0.2 0.1-0.5 0.2-0.2 0-0.5 0-0.2 0.1-0.5 0.1-0.2 0.1-0.3 0.3c-0.2 0.4-1.1 1.5-1.1 1.5q-0.4 0-0.6 0.1-0.3 0.2-0.4 0.4-0.2 0.2-0.4 0.4-0.1 0.2-0.2 0.2-1.2 0-2.5 0-0.2 0-0.4 0.1-0.3 0.2-0.5 0.5-0.2 0.2-0.3 0.4 0 0.2 0.1 0.3 0 0.1 0.2 0.1c0.1 0.1 2 1.4 1.9 1.5-0.2 0.3-0.4 0.5-0.6 0.7-0.2 0.2-0.4 0.3-0.7 0.6 0 0 0 0 0 0q0.1 0.2 0.3 0.4 0.3 0.2 0.5 0.5 0.1 0.2 0.2 0.4 0 0.1 0.1 0.1 0 0 0.1 0 0.2 0 0.3 0.2c0.3 0.4 0.5 0.7 0.7 1q0.1 0.1 0.3 0.2 0.1 0.1 0.3 0.1c0.6 0 1.1-0.1 1.4-0.1q0.3 0 0.6 0.1 0.2 0.1 0.5 0.4 0.2 0.2 0.5 0.3 0.2 0.2 0.6 0.3 0.3 0.1 0.7 0.1 0.3 0 0.7-0.1c0.5-0.1 0.8-0.4 1.2-0.6q0.3-0.2 0.6-0.3 0.3-0.1 0.6-0.1 0.1 0 0.2 0 0 0 0 0 0.1-0.2 0.1-0.6 0-0.3-0.1-0.7c-0.1-0.4-0.2-0.8-0.2-0.8q-0.1-0.1 0-0.3 0.2-0.2 0.3-0.5 0.2-0.3 0.2-0.6 0-0.2-0.1-0.4-0.1-0.2-0.2-0.3-0.2-0.3-0.3-0.6-0.1-0.4 0-0.7 0-0.4 0.2-0.7 0.2-0.3 0.4-0.4 0.5-0.1 0.8-0.3c0.1-0.2 0.2-0.4 0.3-0.6q0.2-0.2 0.4-0.4c0.2-0.1 0.5-0.2 0.9-0.2q0.3 0 0.7-0.1 0.3-0.1 0.6-0.3 0.4-0.1 0.8-0.3 0.3-0.1 0.8-0.1 0.3 0 0.5 0 0.1-0.1 0.3-0.2c0.1-0.1 0.2-0.3 0.3-0.4 0.1-0.2 0.2-0.3 0.3-0.3 0.2 0 0.4 0 0.7 0.1q0.3 0.2 0.7 0.3 0.3 0.1 0.7 0.1c0.5 0 0.9 0 1.3 0 0.2 0 1.6-0.2 2.5-0.2q0.6 0 0.9 0 0.3-0.1 0.5-0.1c0.1-0.1 0.2-0.1 0.3-0.1q0.1 0 0.4 0 0.5 0.2 0.8 0.2c0.1 0 0.3 0 0.4-0.1 0.2-0.1 0.5-0.3 1.2-0.8q0.1-0.1 0.4-0.2 0.4 0 0.8 0 0.4 0.1 0.7 0.1 0.4 0 0.6-0.1c0.2-0.2 0.5-0.2 0.6-0.2 0.2 0 0.3 0 0.4 0.1 0.1 0 0.2-0.1 0.3-0.2 0.1-0.1 0.2-0.3 0.4-0.7q0.1-0.1 0.2-0.2 0.1-0.1 0.3-0.1 0.3-0.1 0.7 0c0.6 0.1 1.2 0.3 1.7 0.3 0.1 0 0.3 0.6 0.6 1.1 0.3 0.6 0.5 1.2 0.6 1.2q0.1 0.4 0.3 0.8 0.2 0.3 0.5 0.7c0.4 0.4 0.8 0.7 1.1 0.8q0.3 0.2 0.5 0.4 0.1 0.2 0.3 0.5c0.2 0.4 0.4 0.8 0.7 1.1q0.3 0.2 0.4 0.5 0.2 0.4 0.3 0.7c0.1 0.5 0.2 0.9 0.3 1.3 0.1 0.4 0.3 0.8 0.5 1.2 0.3 0.4 0.5 0.8 0.7 1.1q0.1 0.4 0.2 0.7 0 0.4 0 0.7c-0.1 0.4-0.3 0.8-0.4 1.1q-0.3 0.5-0.3 1.1-0.1 0.6-0.1 1.4c0 0.2 0 0.2 0 0.3q0.4 0.2 0.7 0.3 0.4 0.1 0.6 0c0.3-0.1 0.7-0.2 1.2-0.2 0.5-0.1 1-0.2 1.4-0.4q0.1 0 0.3 0 0.2 0 0.4 0.1c0.4 0 0.7 0.2 1 0.3 0.3 0.1 0.6 0.3 0.7 0.3q0.2 0 0.2-0.1 0.1 0 0.1-0.2-0.1-0.3-0.2-0.6-0.1-0.4 0-0.6 0-0.3 0.2-0.4 0.2-0.2 0.5-0.3 0.3-0.1 0.6-0.1 0.3-0.1 0.6-0.3 0.3-0.1 0.4-0.4 0.1-0.3 0-0.8-0.1-0.3-0.2-0.7l-2.3-1.6 2.3-4.2 2.7 1.7 1.4-2.8q-0.4-0.2-0.8-0.4-0.4-0.1-0.6-0.4 0-0.1-0.1-0.2 0-0.1 0.1-0.2c0.2-0.5 0.4-0.8 0.4-1q0.1-0.2 0-0.4 0-0.2-0.2-0.4c-0.4-0.3-0.6-0.5-0.8-0.7-0.3-0.2-0.5-0.4-1-0.6-0.1-0.1-0.7-0.3-1.3-0.6-0.5-0.2-1.1-0.5-1.2-0.6q-0.1-0.3-0.3-0.5-0.2-0.2-0.4-0.3c-0.3-0.1-0.8-0.2-1.4-0.4q-0.5-0.1-1-0.3-0.4-0.1-0.8-0.4-0.3-0.2-0.3-0.4-0.1-0.2 0-0.3 0-0.1 0.2-0.3 0.2-0.2 0.3-0.4 0.1-0.2 0.1-0.4c0-0.3 0-0.6 0.2-1.1q0-0.2-0.2-0.3-0.1-0.2-0.3-0.3-0.2-0.1-0.4-0.3-0.1-0.1-0.1-0.3 0.1-0.3 0.2-0.6 0.1-0.2 0.3-0.4 0.2-0.2 0.5-0.3 0.2-0.2 0.5-0.2 0.2-0.1 0.2-0.3 0.1-0.2 0.1-0.4 0-0.2 0.1-0.4 0.1-0.1 0.2-0.1c0 0 0.3 0.2 0.6 0.4 0.4 0.2 0.8 0.5 1.2 0.6 0.4 0.1 0.9 0.2 1.3 0.2q0.3 0 0.6-0.1 0.3-0.1 0.6-0.3 0.2-0.2 0.3-0.3 0.2-0.1 0.3-0.1c0.1 0.1 0.2 0.2 0.3 0.4 0.1 0.2 0.2 0.4 0.4 0.5q0.2 0.1 0.4 0.1 0.2 0 0.6 0c0.5-0.2 0.9-0.3 1.4-0.4q0.3 0 0.7 0 0.3 0.1 0.8 0.2 0.4 0.1 0.6 0c0.2-0.1 0.3-0.2 0.4-0.3 0.1-0.1 0.2-0.1 0.4-0.2 0.2 0 0.5 0 0.9 0.1 0.4 0.1 1 0.3 1.4 0.4q0.4 0.1 0.7 0.1 0.1 0 0.2-0.1 0-0.1 0-0.2c0-0.3 0-0.7 0-1.2q0-0.3 0.1-0.6 0.1-0.3 0.3-0.5c0.3-0.4 0.6-0.6 0.7-0.9 0.2-0.2 0.3-0.6 0.5-1.1 0.1-0.5 0.4-0.9 0.5-1.4q0.2-0.3 0.1-0.8c0-0.1-0.1-0.2-0.1-0.4-0.4 0.2-0.6 0.2-0.8 0.4q-0.1 0.1-0.1 0 0 0 0-0.1c0 0 0.1 0-0.2 0.2-0.3 0.3-0.4 0.6-0.5 0.7q-0.1 0.2-0.4 0.2-0.2 0.1-0.7 0.1c-0.9 0-1.5-0.2-2.2-0.2-0.3 0-0.9 0-1.4-0.1-0.5 0-1-0.1-1.1 0q-0.2 0.1-0.5 0.2-0.3 0-0.5 0c-0.4 0-0.8-0.1-1.4-0.1q-0.6 0-0.9-0.1-0.4-0.1-0.7-0.2c-0.4-0.2-0.8-0.5-1.4-0.8-0.3-0.1-0.8-0.3-1.3-0.4q-0.4-0.1-0.8-0.1z"/>
		<path id="map_nuble_Coihueco" fill-rule="evenodd" class="map-nuble s1" data-siglaregion="NB" data-sigla="coihueco" data-nombre="Coihueco" d="m119.1 58.5q-0.4 0-0.6 0.2c-0.1 0.1-0.3 0.4-0.5 0.6q-0.1 0.2-0.3 0.4-0.2 0.1-0.5 0.1-0.2 0-0.3 0.1-0.2 0.1-0.3 0.3-0.2 0.2-0.3 0.3-0.2 0.1-0.4 0.1c-0.5 0-1.9 0.4-2.1 0.3 0 0-0.6-0.2-1.1-0.3-0.3 0-0.6-0.1-0.8-0.1q-0.2 0-0.3 0.1-0.1 0.1-0.2 0.2c-0.1 0.3-0.2 0.5-0.4 0.7-0.2 0.3-0.4 0.4-0.7 0.7q-0.3 0.3-0.5 0.4-0.3 0.2-0.5 0.2 0 0 0 0c0 0.2 0.1 0.3 0.1 0.4q0.1 0.5-0.1 0.8c-0.1 0.5-0.4 0.9-0.5 1.4-0.2 0.5-0.3 0.9-0.5 1.1-0.1 0.3-0.4 0.5-0.7 0.9q-0.2 0.2-0.3 0.5-0.1 0.3-0.1 0.6c0 0.5 0 0.9 0 1.2q0 0.1 0 0.2-0.1 0.1-0.2 0.1-0.3 0-0.7-0.1c-0.4-0.1-1-0.3-1.4-0.4-0.4-0.1-0.7-0.1-0.9-0.1-0.2 0.1-0.3 0.1-0.4 0.2-0.1 0.1-0.2 0.2-0.4 0.3q-0.2 0.1-0.6 0-0.5-0.1-0.8-0.2-0.4 0-0.7 0c-0.5 0.1-0.9 0.2-1.4 0.4q-0.4 0-0.6 0-0.2 0-0.4-0.1c-0.2-0.1-0.3-0.3-0.4-0.5-0.1-0.2-0.2-0.3-0.3-0.4q-0.1 0-0.3 0.1-0.1 0.1-0.3 0.3-0.3 0.2-0.6 0.3-0.3 0.1-0.6 0.1c-0.4 0-0.9-0.1-1.3-0.2-0.4-0.1-0.8-0.4-1.2-0.6-0.3-0.2-0.6-0.4-0.6-0.4q-0.1 0-0.2 0.1-0.1 0.2-0.1 0.4 0 0.2-0.1 0.4 0 0.2-0.2 0.3-0.3 0-0.5 0.2-0.3 0.1-0.5 0.3-0.2 0.2-0.3 0.4-0.1 0.3-0.2 0.6 0 0.2 0.1 0.3 0.2 0.2 0.4 0.3 0.2 0.1 0.3 0.3 0.2 0.1 0.2 0.3c-0.2 0.5-0.2 0.8-0.2 1.1q0 0.2-0.1 0.4-0.1 0.2-0.3 0.4-0.2 0.2-0.2 0.3-0.1 0.1 0 0.3 0 0.2 0.3 0.4 0.4 0.3 0.8 0.4 0.5 0.2 1 0.3c0.6 0.2 1.1 0.3 1.4 0.4q0.2 0.1 0.4 0.3 0.2 0.2 0.3 0.5c0.1 0.1 0.7 0.4 1.2 0.6 0.6 0.3 1.2 0.5 1.3 0.6 0.5 0.2 0.7 0.4 1 0.6 0.2 0.2 0.4 0.4 0.8 0.7q0.2 0.2 0.2 0.4 0.1 0.2 0 0.4c0 0.2-0.2 0.5-0.4 1q-0.1 0.1-0.1 0.2 0.1 0.1 0.1 0.2 0.2 0.3 0.6 0.4c0.4 0.3 1 0.5 1.3 0.7 0.4 0.3 0.7 0.5 1 0.7 0.3 0.2 0.6 0.3 1.1 0.5q0.2 0 0.4 0.3 0.3 0.3 0.5 0.7c0.4 0.6 0.7 1.1 0.9 1.3q0.3 0.2 0.7 0.3 0.4 0.2 0.9 0.3c0.6 0.2 1.2 0.4 1.5 0.5 0.6 0.3 0.9 0.6 1.3 0.9q0.2 0.2 0.6 0.4 0.3 0.2 0.8 0.3 0.3 0.1 0.5 0.2 0.2 0.2 0.3 0.5c0.2 0.3 0.4 0.7 0.5 1q0.2 0.4 0.4 0.7 0.3 0.2 0.5 0.4c0.3 0.2 0.8 0.3 1.3 0.5q0.2 0 0.4 0.3 0.2 0.3 0.4 0.7c0.1 0.5 0.3 1.1 0.3 1.3q0.1 0.3 0.4 0.5 0.3 0.2 0.6 0.4c0.5 0.3 1.1 0.5 1.3 0.6q0.5 0.2 0.8 0.5 0.3 0.2 0.6 0.5 0.3 0.2 0.6 0.4 0.3 0.2 0.7 0.2 0.7 0 1.1 0.1 0.5 0.2 0.9 0.4 0.4 0.2 0.8 0.3 0.5 0.1 1.1 0.2c1 0 2.3 0.1 3.5 0.1q0.5 0.1 1 0.1 0.4 0.1 0.8 0.2 0.5 0.1 0.9 0.2 0.5 0.1 1 0.1 0.6 0 0.9 0.1 0.4 0.1 0.7 0.3 0.2 0.2 0.4 0.5 0.2 0.4 0.3 0.9 0.1 0.2 0.5 0.5c0.2 0.3 0.5 0.5 0.9 0.6 0.6 0.4 1.3 0.7 1.5 0.8 0.5 0.2 1 0.4 1.6 0.6 0.6 0.2 1.1 0.4 1.5 0.6q0.2 0.1 0.6 0.1 0.4 0.1 0.9 0.1c0.6 0 1.1 0 1.6 0 0.1 0 0.7-0.3 1.4-0.6q0.4-0.2 0.8-0.4c0.2-0.2 0.4-0.3 0.5-0.4 0-0.1 0.4-0.4 0.7-0.7 0.3-0.3 0.7-0.5 0.8-0.7q0.1-0.1 0.3-0.1 0.2 0 0.5 0c0.3 0 0.7 0.1 1.1 0.2 0.4 0 0.8 0.1 1.1 0.2 0.4 0 0.7 0 0.9-0.1 0.1 0 0.2 0 0.4 0q0.1 0 0.3-0.2 0.2-0.2 0.4-0.4 0.2-0.3 0.5-0.5 0.4-0.2 0.9-0.2c0.1 0 0.3-0.1 0.3-0.2 0.1-0.1 0.2-0.2 0.2-0.3q0.1-0.1 0.2 0c0.1 0.1 0.3 0.3 0.5 0.7 0 0.1 0 0.2 0 0.4 0 0 0.1 0.2 0.4 0.4 0.2 0.1 0.5 0.3 0.8 0.5 0.7 0.4 1.4 0.8 1.5 0.8q0.2 0.1 0.3 0.4 0 0.2 0 0.6 0 0.3 0.1 0.6 0 0.3 0.1 0.5 0.5 0.7 1.1 1.2 0.5 0.6 1.1 1.1c0.3 0.4 0.7 0.7 1 1q0.5 0.4 1.1 0.8c0.3 0.2 0.5 0.5 0.7 0.8 0.3 0.3 0.4 0.5 0.4 0.5q0.2 0.2 0.2 0.3 0 0.1 0 0.2c-0.1 0.1-0.2 0.3-0.3 0.4-0.1 0.2-0.3 0.3-0.3 0.5q-0.1 0.2-0.1 0.4 0.1 0.1 0.2 0.4 0.1 0.2 0.2 0.3 0.2 0.2 0.4 0.3 0.5 0.2 1 0.3c0.8 0.1 1.6 0 2.2 0q0.5 0 0.8-0.1 0.3-0.1 0.6-0.2c0.3-0.2 0.6-0.5 0.9-0.6q0.5-0.2 0.8-0.3 0.4-0.1 0.6-0.1 0.3 0.1 0.6 0.2 0.2 0.2 0.6 0.6 0.2 0.2 0.3 0.5 0.2 0.3 0.3 0.7c0.1 0.4 0.1 0.9 0.1 1.5 0 0.1-0.1 0.3-0.2 0.6q0 0.2 0 0.5 0.1 0.2 0.2 0.6c0.2 0.4 0.6 0.9 1.1 1.4q0.3 0.3 0.7 0.6 0.4 0.2 0.7 0.3 0.3 0.1 0.4 0.2 0.1 0.1 0.2 0.2c0 0.2 0 0.4 0 0.6q0 0.2 0.1 0.3 0 0.1 0.2 0.2 0.2 0.1 0.5 0.2 0.3 0.1 0.8 0.1c0.2 0 0.3 0 0.5 0 0-0.1-0.3-0.2-0.3-0.2 0-0.3 0.8-0.7 1.9-1 0.9-0.2 2.1-0.4 2.4-0.2 0.9 0.9 2.4 1.8 3.9 1.1 0.6-0.3 1.1-0.9 1.7-1.1 1.1-0.2 1.5 0.7 2.9-2.1 0.5-0.9 0.6-1.6 0.5-2.1q-0.1 0-0.2 0-0.6 0-1 0.2-0.5 0.1-0.7 0.4-0.3 0.2-0.5 0.4-0.3 0.2-0.4 0.2-0.7 0-1.1 0.1-0.4 0.1-0.7 0.1-0.4 0.1-0.7 0-0.3-0.2-0.8-0.6c-0.4-0.5-0.8-0.8-1.2-1.1-0.4-0.3-0.8-0.5-1.2-0.9q-0.7-0.7-1.3-1.2c-0.4-0.3-0.8-0.6-1.4-0.9-0.3-0.1-0.5-0.3-0.6-0.5q-0.1-0.3-0.1-0.6-0.1-0.4-0.1-0.7 0-0.4-0.2-0.8c-0.2-0.4-0.4-1-0.7-1.5q-0.2-0.4-0.5-0.7-0.3-0.3-0.6-0.4c-0.2-0.2-1.3-1.3-1.6-1.5-0.2-0.1-0.3-0.2-0.4-0.4q0-0.2 0-0.4 0-0.3-0.1-0.5-0.1-0.2-0.5-0.3-0.4-0.1-0.6-0.3-0.2-0.2-0.4-0.5c-0.2-0.4-0.3-0.9-0.5-1.4-0.1-0.4-0.2-0.9-0.2-1.4q0-0.3 0.1-0.7 0.1-0.3 0.4-0.5 0.2-0.3 0.4-0.6 0.1-0.2 0.2-0.5 0-0.4-0.1-0.7-0.1-0.4-0.3-0.9-0.4-0.5-0.7-1.2c-0.3-0.4-0.5-0.8-0.6-1.2-0.1-0.5-0.2-1-0.3-1.4 0-0.5-0.1-0.9-0.1-1.4 0-0.7 0.1-1.2 0-1.8q0-0.4-0.1-0.9-0.1-0.4-0.3-0.8c-0.1-0.3-0.6-0.7-1-1.2q-0.3-0.3-0.5-0.6-0.2-0.3-0.1-0.6c0.1-0.5 0.1-0.7 0.1-0.9q-0.1-0.3-0.3-0.4c-0.1 0-0.3-0.1-0.4-0.2q-0.2-0.1-0.4-0.3c-0.1-0.3-0.5-0.7-0.9-1.1-0.3-0.3-0.7-0.6-0.7-0.8-0.2-0.3-0.4-0.8-0.7-1.1q-0.2-0.3-0.5-0.4-0.3-0.1-0.6 0.1-0.2 0.1-0.5 0.2-0.4 0-0.7 0-0.4 0-0.7-0.1-0.1-0.1-0.2-0.2-0.1-0.1-0.2-0.3-0.1-0.4-0.3-0.6-0.1-0.2-0.4-0.3-0.2-0.1-0.5 0-0.3 0-0.6 0c-0.3 0.1-0.8 0.3-1.2 0.3q-0.3 0-0.5 0-0.3 0-0.5-0.2-0.1 0-0.2 0.1 0 0.2-0.1 0.2 0 0.1-0.1 0.1-0.2 0-0.4-0.2c-0.7-0.5-1.2-0.9-1.7-1.2-0.6-0.4-1.1-0.7-1.8-1-0.5-0.3-0.7-0.4-0.9-0.5-0.2-0.1-0.2-0.2-0.2-0.2 0-0.1 0.1-0.2 0.1-0.3 0-0.1 0-0.3-0.2-0.7-0.2-0.3-0.3-0.5-0.4-0.5-0.1-0.1-0.2 0-0.2 0.1-0.1 0.1-0.2 0.2-0.3 0.3q-0.2 0-0.3-0.1-0.2-0.1-0.4-0.4c-0.4-0.4-0.6-0.6-0.9-0.7-0.3-0.1-0.6-0.1-1.2-0.3-0.8-0.2-0.6-0.2-0.4-0.1 0.1 0 0.2 0 0.3 0 0 0-0.1 0-0.5-0.1-0.4-0.1-0.9-0.2-1.6-0.4-0.5-0.1-1.1-0.2-1.7-0.3q-0.4-0.1-0.7-0.3-0.3-0.2-0.4-0.6-0.1-0.5-0.3-0.8-0.2-0.2-0.4-0.3-0.2-0.1-0.5-0.3-0.3-0.1-0.6-0.4-0.3-0.2-0.6-0.4-0.3-0.1-0.6-0.2-0.3 0-0.6-0.1-0.3-0.1-0.5-0.3c-0.2-0.3-0.4-0.6-0.6-1-0.2-0.3-0.4-0.7-0.8-1.1q-0.2-0.2-0.5-0.4-0.3-0.1-0.6-0.3-0.3-0.1-0.6-0.3-0.2-0.2-0.3-0.4c-0.4-0.7-0.4-0.9-0.5-1.2 0-0.2 0-0.4-0.3-1q-0.2-0.4-0.4-0.6-0.2-0.2-0.5-0.2c-0.4-0.1-0.8 0-1.6-0.2q-0.4-0.1-0.8-0.1-0.4 0.1-0.7 0.3c-0.4 0.2-0.7 0.4-0.9 0.4-0.5 0-1.4 0-2.2 0-0.8 0-1.5 0-1.5 0.1q-0.1-0.2-0.1-0.4-0.1 0.1-0.2 0-0.1-0.3-0.1-0.5-0.1-0.3 0-0.4 0-0.2 0-0.5 0-0.2-0.2-0.5c-0.2-0.4-0.3-0.9-0.5-1.3q-0.1-0.4-0.3-0.6-0.2-0.3-0.5-0.4c-0.7-0.2-1.7-0.4-2.6-0.6-0.2-0.1-0.8 0-1.3 0.1-0.5 0.1-0.9 0.2-0.9 0.2-0.3-0.1-0.8-0.3-1.3-0.5q-0.4-0.1-0.7 0z"/>
		<path id="map_nuble_San_Fabian" fill-rule="evenodd" class="map-nuble s1" data-siglaregion="NB" data-sigla="san_fabian" data-nombre="San Fabi치n" d="m185.1 42c-0.2-0.2-0.1 0.5-0.3 0.6-0.5 0.1-1.1-0.2-1.1 0.4-0.3 0.4-0.8 0.8-1.2 1.2-1.4 0.4 0.3 1-0.9 2.3-0.3 0.4-0.5 0.7-0.5 1.1 0 0.3-1.1-0.1-1.1-0.1-0.3-0.2-0.8 0.2-1.1 0.2-0.8 0-1.2 0.6-1.6 1.2-0.5 0.7-0.4 1-0.6 1.7 0 0.3-0.1 1.3-0.1 1.5-0.3 0.7-1 1.3-1.7 1.6-0.8 0-0.9 0.9-1.4 1.5-0.8 0.5-1.4 0.1-2.1-0.5-0.3-0.2-0.8-0.3-0.9-0.7-0.1-0.4-0.9-1.1-1.2-1.3-0.6-0.3-0.6 0.6-1.3 0.8-0.2 0.8-0.3 1.2-1 1.8-0.6 0.5-0.4 1.3-0.4 2-0.2 0.5-0.9 0.6-1.4 0.9-0.5 0.6 0 1.5-0.4 2.2-0.7 1.2-0.2 2-0.9 3-0.2 0.4-0.6 0.7-0.7 1.1-0.1 0.6 0.1 0.9-0.2 1.2-0.5 0.5-1.1 0.2-1.7 0-0.1 0 0.4-0.7 0-1-0.3-0.1 0-0.6-0.2-0.8-0.5-0.5-0.3-1.4-0.9-1.8-0.7 0-1.8-0.1-2-0.3-0.8-0.1-1.6 0-2.4 0-0.6-0.3-1-1-1.4-1.5-0.3-0.4-0.4-0.5-0.7-0.7-0.1 0 0-1.3 0-1.4-0.6-1.3-1.7-1.6-1.6-3.1 0.1-0.7-0.7-0.5-0.5-1.1-0.5-1.4 0.2-1.2-0.3-1.7-0.4-0.4-0.6-0.5-0.8-0.7-0.5-0.8-1.2-1.3-1.8-1.9-0.2-0.2-0.5-0.5-0.8-0.5-0.9-0.2-1.2 0.1-1.3 0.5 0 0.3-0.5 0.5-1.9 0.5-0.5-0.4-0.6-0.8-1.2-1.1-0.3-0.4-1.2-0.2-1.6-0.2-0.6 0-1.1-0.6-1.6-0.7-0.7 0-1.5-0.1-2.3 0.1-0.9 0.3-1-0.2-1-0.7-0.7-0.5-1.4-0.8-2-1.3-0.4-0.2-0.6-0.1-1.1-0.2-0.4-0.1-0.5-0.7-1.1-0.6-0.5 0.1-0.8-0.7-0.9-1 0 0-0.1 0-0.2-0.1 0 0.1 0 0.2 0 0.3-0.1 0.3-0.1 0.7 0 1.1q0 0.3 0.1 0.5 0.2 0.2 0.4 0.3 0.4 0.2 0.8 0.3l-4.8 3.9-0.5 1 0.1 2c0.1 0 0.4 0 0.6 0.1 0.3 0 0.5 0 0.4 0.1-0.2 0.3-0.6 0.4-0.9 0.5q-0.2 0.1-0.4 0.3-0.2 0.1-0.3 0.3-0.1 0.3-0.1 0.4 0 0.2 0 0.3c0.1 0.1 0.2 0.2 0.4 0.2 0.2 0.1 0.4 0.2 0.6 0.3q0.1 0.1 0.2 0.3 0 0.2 0 0.5c0 0.1-0.1 0.5-0.1 0.9q-0.1 0.4-0.1 0.7 0.1 0.3 0.2 0.5 0.4 0.3 0.8 0.6l-1.3 3.7q0 0-0.1 0 0 0.2 0.1 0.4c0-0.1 0.7-0.1 1.5-0.1 0.8 0 1.7 0 2.2 0 0.2 0 0.5-0.2 0.9-0.4q0.3-0.2 0.7-0.3 0.4 0 0.8 0.1c0.8 0.2 1.2 0.1 1.6 0.2q0.3 0 0.5 0.2 0.2 0.2 0.4 0.6c0.3 0.6 0.3 0.8 0.3 1 0.1 0.3 0.1 0.5 0.5 1.2q0.1 0.2 0.3 0.4 0.3 0.2 0.6 0.3 0.3 0.2 0.6 0.3 0.3 0.2 0.5 0.4c0.4 0.4 0.6 0.8 0.8 1.1 0.2 0.4 0.4 0.7 0.6 1q0.2 0.2 0.5 0.3 0.3 0.1 0.6 0.1 0.3 0.1 0.6 0.2 0.3 0.2 0.6 0.4 0.3 0.3 0.6 0.4 0.3 0.2 0.5 0.3 0.2 0.1 0.4 0.3 0.2 0.3 0.3 0.8 0.1 0.4 0.4 0.6 0.3 0.2 0.7 0.3c0.6 0.1 1.2 0.2 1.7 0.3 0.7 0.2 1.2 0.3 1.6 0.4 0.4 0.1 0.5 0.1 0.5 0.1-0.1 0-0.2 0-0.3 0-0.2-0.1-0.4-0.1 0.4 0.1 0.6 0.2 0.9 0.2 1.2 0.3 0.3 0.1 0.5 0.3 0.9 0.7q0.2 0.3 0.4 0.4 0.1 0.1 0.3 0.1c0.1-0.1 0.2-0.2 0.3-0.3 0-0.1 0.1-0.2 0.2-0.1 0.1 0 0.2 0.2 0.4 0.5 0.2 0.4 0.2 0.6 0.2 0.7 0 0.1-0.1 0.2-0.1 0.3 0 0 0 0.1 0.2 0.2 0.2 0.1 0.4 0.2 0.9 0.5 0.7 0.3 1.2 0.6 1.8 1 0.5 0.3 1 0.7 1.7 1.2q0.2 0.2 0.4 0.2 0.1 0 0.1-0.1 0.1 0 0.1-0.2 0.1-0.1 0.2-0.1 0.2 0.2 0.5 0.2 0.2 0 0.5 0c0.4 0 0.9-0.2 1.2-0.3q0.3 0 0.6 0 0.3-0.1 0.5 0 0.3 0.1 0.4 0.3 0.2 0.2 0.3 0.6 0.1 0.2 0.2 0.3 0.1 0.1 0.2 0.2 0.3 0.1 0.7 0.1 0.3 0 0.7 0 0.3-0.1 0.5-0.2 0.3-0.2 0.6-0.1 0.3 0.1 0.5 0.4c0.3 0.3 0.5 0.8 0.7 1.1 0 0.2 0.4 0.5 0.7 0.8 0.4 0.4 0.8 0.8 0.9 1.1 0.1 0.2 0.2 0.3 0.4 0.3 0.1 0.1 0.3 0.2 0.4 0.2q0.2 0.1 0.3 0.4c0 0.2 0 0.4-0.1 0.9q-0.1 0.3 0.1 0.6 0.2 0.3 0.5 0.6c0.4 0.5 0.9 0.9 1 1.2q0.2 0.4 0.3 0.8 0.1 0.5 0.1 0.9c0.1 0.6 0 1.1 0 1.8 0 0.5 0.1 0.9 0.1 1.4 0.1 0.4 0.2 0.9 0.3 1.4 0.1 0.4 0.3 0.8 0.6 1.2q0.3 0.7 0.7 1.2 0.2 0.5 0.3 0.9 0.1 0.3 0.1 0.7-0.1 0.3-0.2 0.5-0.2 0.3-0.4 0.6-0.3 0.2-0.4 0.5-0.1 0.4-0.1 0.7c0 0.5 0.1 1 0.2 1.4 0.2 0.5 0.3 1 0.5 1.4q0.2 0.3 0.4 0.5 0.2 0.2 0.6 0.3 0.4 0.1 0.5 0.3 0.1 0.2 0.1 0.5 0 0.2 0 0.4c0.1 0.2 0.2 0.3 0.4 0.4 0.3 0.2 1.4 1.3 1.6 1.5q0.3 0.1 0.6 0.4 0.3 0.3 0.5 0.7c0.3 0.5 0.5 1.1 0.7 1.5q0.2 0.4 0.2 0.8 0 0.3 0.1 0.7 0 0.3 0.1 0.6c0.1 0.2 0.3 0.4 0.6 0.5 0.6 0.3 1 0.6 1.4 0.9q0.6 0.5 1.3 1.2c0.4 0.4 0.8 0.6 1.2 0.9 0.4 0.3 0.8 0.6 1.2 1.1q0.5 0.4 0.8 0.6 0.3 0.1 0.7 0 0.3 0 0.7-0.1 0.4-0.1 1.1-0.1 0.1 0 0.4-0.2 0.2-0.2 0.5-0.4 0.2-0.3 0.7-0.4 0.4-0.2 1-0.2 0.1 0 0.2 0-0.1-0.5-0.2-0.8c-0.5-1.2 0.4-0.1-1.9-0.1-1.8 0-3.2-0.6-3.5-1.2-0.2-0.5-0.2-1.3 0.4-2.6 0.5-1 1-2.6 1.1-2.8 0.4-0.4 0.9-0.5 0.5-1.5-0.5-0.9-1.3-1.3-2.8-1.2-1.1 0-1.9-0.4-1.9-1.1-0.1-0.4-0.1-2.2 0.4-2.9 1.9 0.2 0.9 0.6 2.6-1.1 1.8-1.8-0.1-4.8 1.9-7.9 0.5-1.2 0.2-0.8 0.2-4.3l-0.2-4.6c1.5 0.5 2.7-1.2 3.2 0.4 0.7 2.6 0.7 4.3 3 3.1 0.6-0.3 1.2-0.9 1.9-1.2 0.7-0.3 2-0.9 2.2-1 1.1-1.5 0.6-2.5-1.4-4.2-1.1-1-1.7-3.2-1.8-4.2-0.1-0.6-1.2-1-1.4-1.3-0.3-0.4 0.6-0.7 0.8-1.9 0.2-1-0.3-2.3-0.5-3.2-0.2-1-0.2-1.7 0.1-2.7 0.2-0.7 0.5-1.4 0.4-2.3-0.1-0.9-0.8-1.9-0.6-2.2 0.2-0.7 0.7-1 1.3-1.4-0.5-1.3-0.5-3.7 0.5-3.7l0.4-0.4c-0.4-0.6-1.3-1.2-1.9-1.5-0.6-0.6-1.3-0.9-2.1-1-0.6 0-0.7-0.7-0.8-1.3-0.1-0.4-0.1-0.8 0.1-1.2 0.3-0.6 0.2-0.5-0.3-0.8-0.3-0.1-0.2-0.8-0.1-0.9-0.1-0.8 0-0.6 0.1-1.4 0-0.3 0-1.4 0-1.7-0.1-0.7-0.4-0.7-0.1-1.5 0-0.3-0.1-1.1 0-1.4 0.2-0.5-0.5-0.9-0.7-0.9-0.8-0.3-1.2-1.1-1.9-1.4-0.3-0.1-0.8 0-1.1 0-0.8 0.1-1.2-0.6-1.7-1z"/>
		<path id="map_nuble_San_Nicolas" fill-rule="evenodd" class="map-nuble s1" data-siglaregion="NB" data-sigla="san_nicolas" data-nombre="San Nicol치s" d="m87.6 66.9q-0.1-0.2-0.3-0.3-0.3-0.4-0.5-0.6-0.2-0.3-0.2-0.6c-0.1-0.3 0-0.7 0-1.3q0-0.2 0.1-0.3 0.1-0.1 0.3-0.3 0.2-0.1 0.3-0.2 0.1-0.1 0-0.3c0-0.3-0.1-0.7-0.1-1.1q0-0.3 0.1-0.5 0.1-0.2 0.4-0.3 0.5-0.1 0.5-0.2c0.1 0 0 0-0.1-0.1-0.1 0-0.2 0-0.4-0.1q-0.2-0.1-0.4-0.4c0 0-0.4-0.4-0.8-0.7-0.2-0.2-0.4-0.4-0.5-0.5q-0.1-0.2-0.1-0.2 0-0.1 0-0.1c0.4-0.1 0.6-0.2 0.7-0.3 0.2-0.1 0.4-0.2 0.9-0.4 0.4-0.1 0.8 0 1.1-0.1q0.2-0.1 0.3-0.3 0.1-0.2 0-0.7c0-0.1-0.3-0.5-0.6-0.8q-0.3-0.3-0.6-0.4-0.1 0-0.3 0-0.1 0-0.2 0.1-0.4 0.4-0.7 0.6-0.2 0.1-0.6-0.1-0.1-0.1-0.4-0.2-0.2-0.2-0.3-0.5-0.2-0.2-0.2-0.5 0-0.3 0.1-0.7c0.2-0.4 0.4-0.6 0.6-0.7 0.2-0.2 0.5-0.2 1-0.4 0.4-0.1 0.6-0.2 0.7-0.3 0.1-0.1 0.1-0.2 0-0.3 0-0.1-0.1-0.2-0.1-0.3 0-0.2 0-0.3 0.2-0.5q0.2-0.2 0.3-0.3 0.1-0.2 0.1-0.4-0.1-0.1-0.4-0.3-0.2-0.1-0.8-0.2c-0.4-0.1-0.8-0.3-1.1-0.5-0.4-0.2-0.7-0.4-1.1-0.5-0.5-0.1-1.1-0.3-1.7-0.4q-0.8-0.2-1.7-0.2c-0.5 0-1 0-1.4 0q-0.3 0-0.6-0.1-0.3-0.1-0.5-0.4c-0.5-0.4-0.7-0.7-0.8-1-0.2-0.3-0.3-0.6-0.7-1q-0.1-0.3-0.4-0.5-0.3-0.3-0.7-0.5-0.4-0.2-0.8-0.3-0.4-0.1-0.7-0.1-0.4 0-0.5 0.1c-0.2 0.1-0.2 0.2-0.3 0.3q-0.1 0.2-0.4 0.2-0.2 0-0.6-0.2c-0.5-0.2-0.8-0.4-1.2-0.5-0.4-0.1-0.8-0.1-1.4-0.1q-0.3 0-0.6-0.1-0.3-0.1-0.6-0.3c-0.4-0.2-0.8-0.4-1-0.7q-0.2-0.2-0.4-0.3-0.2-0.1-0.5-0.1c-0.3-0.1-0.6-0.1-1.2-0.1-0.3 0-0.4 0.1-0.6 0.1-0.1 0.1-0.2 0.2-0.3 0.3q0 0.1-0.2 0.2-0.2 0.1-0.6 0.1c-0.3 0-0.8-0.1-1.2-0.1q-0.4 0-0.7 0-0.3 0.1-0.4 0.2-0.2 0.2-0.5 0.3-0.2 0.1-0.5 0.2c-0.1 0-0.3 0-0.5 0 0.2 0.2 0.5 0.4 0.8 0.6q0.3 0.3 0.6 0.6 0.3 0.2 0.3 0.4c0.2 0.6 0.3 0.9 0.4 1.1q0 0.2 0 0.5 0 0.2-0.2 0.5-0.1 0.3-0.4 0.4-0.2 0.2-0.5 0.4c-0.4 0.2-0.8 0.4-1 0.7-0.2 0.1-2 1-2 1.1q0 0.8-0.1 1.4 0 0.6-0.2 1.2c-0.1 0.4-0.1 0.9-0.1 1.3q0 0.4-0.1 0.6-0.2 0.3-0.4 0.3c-0.4 0.1-0.8 0.1-1 0.2q-0.2 0.1-0.4 0.2-0.2 0.2-0.2 0.6c-0.1 0.2-0.3 0.6-0.5 1-0.2 0.3-0.4 0.7-0.3 0.8 0.1 0.5 0.2 1.2 0.3 1.7q0.3 0 0.6 0.1 0.3 0.1 0.5 0.2 0.2 0.1 0.2 0.4-0.1 0.3-0.1 0.5 0.1 0.2 0.2 0.5 0 0.2 0.1 0.5 0.1 0.2 0.1 0.6c0 0.4-0.1 0.8-0.2 1.2q-0.1 0.3-0.2 0.5 0 0.3 0.1 0.5c0 0.3 0.1 0.7 0.1 1.1 0.1 0.4 0.1 0.8 0 1.2q-0.1 0-0.1 0.1-0.1 0.1-0.1 0.2c-0.1 0.3-0.1 0.5-0.1 0.8 0 0.6 0.1 1.2 0.2 1.3q0.1 0.3 0.2 0.5 0.1 0.1 0.1 0.2 0.1 0.1 0 0.2-0.1 0.2-0.3 0.5l-2.1 2.3-0.7-0.2v3.1q0.1 0.3 0.2 0.6 0.1 0.4-0.1 0.6-0.1 0.1-0.2 0.3-0.2 0.1-0.3 0.3c-0.1 0.1 0 0.2 0 0.3q0 0 0.1-0.1 0.3 0 0.5 0 0.3-0.1 0.5-0.2c0.2-0.3 0.4-0.5 0.7-0.6q0.3-0.2 0.7-0.4 0.4-0.2 0.7-0.4 0.2-0.3 0.4-0.4 0.2-0.2 0.5-0.2 0.3-0.1 0.8 0 0.4 0.1 0.7 0.1 0.2 0 0.3-0.1c0.2-0.1 0.4-0.3 0.6-0.6 0.3-0.2 0.5-0.3 0.8-0.5 0.3-0.1 0.6-0.2 0.9-0.3 0.4-0.2 0.6-0.3 0.8-0.4 0.2 0 0.4 0.1 0.9 0.2q0.7 0.2 1.3 0.2 0.6 0 1.1-0.2c0.1 0 0.3-0.3 0.6-0.6 0.2-0.4 0.5-0.7 0.6-0.8 0.1-0.3 0.4-0.4 0.7-0.5 0.2-0.1 0.5-0.2 0.7-0.2 0.7 0 1.5 0.2 2.4 0.2q0.4 0 0.6-0.1 0.3-0.1 0.4-0.2c0.2-0.2 0.4-0.4 0.6-0.7 0.3-0.2 0.4-0.5 0.6-0.8 0.1-0.3 0.2-0.5 0.4-0.8 0.2-0.3 0.4-0.5 0.6-0.6 0.3-0.1 0.6-0.2 1-0.2 0.4 0 0.9 0 1.4 0q0.3-0.1 0.5-0.2 0.3-0.2 0.4-0.4 0-0.3 0.2-0.3 0.2-0.1 0.4 0 0.2 0 0.5 0 0.2 0.1 0.5-0.1c0.2-0.1 0.6-0.1 1-0.1 0.4 0 0.8 0 1.2 0q0.8 0 1.5-0.1 0.6-0.1 1.1-0.2c0.5-0.3 1.4-0.5 2.1-0.7 0.3 0 0.5-0.2 0.7-0.4q0.2-0.1 0.5-0.1 0.3-0.1 0.7-0.1z"/>
		<path id="map_nuble_San_Carlos" fill-rule="evenodd" class="map-nuble s1" data-siglaregion="NB" data-sigla="san_carlos" data-nombre="San Carlos" d="m127.8 53.4q0 0-0.1 0-0.5-0.1-0.9-0.3-0.4-0.3-0.7-0.5-0.4-0.3-0.7-0.6-0.3-0.2-0.7-0.3-0.3-0.1-0.5-0.3-0.2-0.2-0.5-0.4-0.2-0.2-0.4-0.2-0.3-0.1-0.5 0-0.5 0.2-1.1 0.3c-0.5 0-0.9 0-1.4 0-0.5 0-0.9-0.1-1.3-0.2q-0.3 0-0.5-0.2-0.3-0.2-0.6-0.4c-0.5-0.5-0.9-0.9-1.5-1.6-0.3-0.3-0.5-0.5-0.5-0.6q-0.2-0.3-0.2-0.3 0 0 0 0.3-0.1 0.2-0.4 0.8c-0.4 0.6-0.6 0.9-0.8 1q-0.1 0.1-0.2 0.1 0-0.1 0-0.2c0-0.2 0-0.4 0-0.6q0-0.2 0-0.3-0.1-0.1-0.1 0c-0.3 0.1-0.6 0.3-0.8 0.5-0.2 0.2-0.4 0.5-0.6 0.7q-0.4 0.4-0.6 0.4-0.2 0-0.3-0.1-0.2-0.1-0.4-0.3c-0.2-0.1-0.4-0.1-0.6-0.1q-0.4 0-0.6-0.2-0.2-0.1-0.4-0.3c-0.3-0.2-0.5-0.5-0.7-0.8-0.4-0.4-0.7-0.8-1.3-1.4-0.2-0.2-0.6-0.4-1-0.7q-0.3-0.2-0.5-0.4-0.2-0.2-0.2-0.5 0-0.1-0.2-0.3-0.1-0.1-0.3-0.2-0.2-0.2-0.3-0.4-0.2-0.1-0.2-0.3 0-0.4 0-0.7-0.1-0.2-0.2-0.4c-0.2-0.3-0.4-0.6-0.5-1-0.3-0.4-0.4-0.7-0.6-1-0.2-0.3-0.4-0.5-0.7-0.8-0.2-0.2-0.4-0.5-0.6-0.9-0.2-0.3-0.5-0.6-0.8-0.9-0.4-0.3-0.9-0.5-1.3-0.8q-0.4-0.2-0.6-0.5-0.2-0.2-0.3-0.5-0.1-0.3-0.2-0.6-0.1-0.3-0.3-0.6-0.2-0.2-0.4-0.2-0.3-0.1-0.7 0.1c-0.2 0.1-0.4 0.3-0.7 0.4q-0.3 0.1-0.6 0.2-0.3 0-0.6-0.1c-0.2-0.1-0.6-0.2-1-0.3-0.5-0.1-0.9-0.2-1-0.4q-0.3-0.3-0.5-0.4-0.2-0.1-0.3 0c-0.2 0-0.4 0.1-0.8 0.1q-0.4 0-0.6 0-0.2-0.1-0.4-0.2-0.3-0.1-0.5-0.2-0.3 0-0.7 0c-0.4 0-0.8-0.1-1.1 0q-0.3 0-0.5 0.1-0.2 0.1-0.4 0.3-0.2 0.2-0.4 0.3-0.2 0.1-0.4 0.1-0.2 0-0.4-0.1-0.3-0.2-0.5-0.4-0.3-0.3-0.6-0.4-0.3-0.1-0.7-0.2c-0.5-0.2-1-0.2-1.4-0.2-0.4 0-0.8 0-1.2 0q-0.3-0.1-0.5-0.2-0.3-0.1-0.5-0.3c-0.1-0.1-0.6-0.4-1.1-0.7-0.5-0.2-0.9-0.4-0.9-0.5-0.2-0.3-0.3-0.9-0.4-1.5q-0.1-0.4-0.2-0.8-0.1-0.3-0.2-0.4c-0.5-0.4-0.9-0.7-1.1-1 0 0.2 0 0.4-0.1 0.6 0 0.2-0.7 0.2-0.9 0.3-0.4 0.3-0.7-0.3-0.7-0.7 0-0.4-0.3-0.7-0.6-0.8-0.5 0-1.1-0.4-1.1-0.5 0.2-0.3-0.8-0.4-1.3-0.4-0.6 0 0.1-0.9-1.1-0.8-0.4 0.1-0.2-0.7-1.4-0.7-0.3 0.1-0.6-0.8-0.8-0.5-0.2 0.3 0 1.1-0.7 0.7-0.3-0.1-0.2-0.7-0.1-0.9 0.2-0.3-1.5-0.2-1.6-0.2-0.4 0-0.1 1-0.3 0.7 0 0-0.5-0.1-0.4 0.8 0.1 0.2-0.4 0.4-0.5 0.6-0.1 0.3-0.2 0.9-0.5 1.1-0.2 0.1-0.2 1.1-0.5 1.2-0.7 0.4-0.4 0.9-0.6 1.1-0.3 0.5-0.3 0.6-0.7 1-0.2 0.2-0.1 0.6-0.1 0.9-0.1 0.2-0.2 0.2-0.4 0.1l-0.1 1.6-1.1 1.1-0.2 0.8-2.1-1.3 0.2 2.9-1.3 4.2c0 0.1-0.2 0.3-0.3 0.4q0 0.1-0.1 0.2 0 0.1 0.1 0.2 0.3 0.3 0.6 0.6c0.2 0.2 0.3 0.4 0.4 0.6 0.1 0.3 0.2 0.5 0.4 0.7 0.1 0.1 0.3 0.2 0.4 0.3 0.2 0 0.4 0 0.5 0q0.3-0.1 0.5-0.2 0.3-0.1 0.5-0.3 0.1-0.1 0.4-0.2 0.3 0 0.7 0c0.4 0 0.9 0.1 1.2 0.1q0.4 0 0.6-0.1 0.2-0.1 0.2-0.2c0.1-0.1 0.2-0.2 0.3-0.3 0.2 0 0.3-0.1 0.6-0.1 0.6 0 0.9 0 1.2 0.1q0.3 0 0.5 0.1 0.2 0.1 0.4 0.3c0.2 0.3 0.6 0.5 1 0.7q0.3 0.2 0.6 0.3 0.3 0.1 0.6 0.1c0.6 0 1 0 1.4 0.1 0.4 0.1 0.7 0.3 1.2 0.5q0.4 0.2 0.6 0.2 0.3 0 0.4-0.2c0.1-0.1 0.1-0.2 0.3-0.3q0.1-0.1 0.5-0.1 0.3 0 0.7 0.1 0.4 0.1 0.8 0.3 0.4 0.2 0.7 0.5 0.3 0.2 0.4 0.5c0.4 0.4 0.5 0.7 0.7 1 0.1 0.3 0.3 0.6 0.8 1q0.2 0.3 0.5 0.4 0.3 0.1 0.6 0.1c0.4 0 0.9 0 1.4 0q0.9 0 1.7 0.2c0.6 0.1 1.2 0.3 1.7 0.4 0.4 0.1 0.7 0.3 1.1 0.5 0.3 0.2 0.7 0.4 1.1 0.5q0.6 0.1 0.8 0.2 0.3 0.2 0.4 0.3 0 0.2-0.1 0.4-0.1 0.1-0.3 0.3c-0.2 0.2-0.2 0.3-0.2 0.5 0 0.1 0.1 0.2 0.1 0.3 0.1 0.1 0.1 0.2 0 0.3-0.1 0.1-0.3 0.2-0.7 0.3-0.5 0.2-0.8 0.2-1 0.4-0.2 0.1-0.4 0.3-0.6 0.7q-0.1 0.4-0.1 0.7 0 0.3 0.2 0.5 0.1 0.3 0.3 0.5 0.3 0.1 0.4 0.2 0.4 0.2 0.6 0.1 0.3-0.2 0.7-0.6 0.1-0.1 0.2-0.1 0.2 0 0.3 0 0.3 0.1 0.6 0.4c0.3 0.3 0.6 0.7 0.6 0.8q0.1 0.5 0 0.7-0.1 0.2-0.3 0.3c-0.3 0.1-0.7 0-1.1 0.1-0.5 0.2-0.7 0.3-0.9 0.4-0.1 0.1-0.3 0.2-0.7 0.3q0 0 0 0.1 0 0 0.1 0.1c0.1 0.2 0.3 0.4 0.5 0.6 0.4 0.3 0.8 0.7 0.8 0.7q0.2 0.3 0.4 0.4c0.2 0.1 0.3 0.1 0.4 0.1 0.1 0.1 0.2 0.1 0.1 0.1q0 0.1-0.5 0.2-0.3 0.1-0.4 0.3-0.1 0.2-0.1 0.5c0 0.4 0.1 0.8 0.1 1.1q0.1 0.2 0 0.3-0.1 0.1-0.3 0.2-0.2 0.2-0.3 0.3-0.1 0.1-0.1 0.3c0 0.6-0.1 1 0 1.3q0 0.3 0.2 0.6 0.2 0.2 0.5 0.6 0.2 0.1 0.3 0.3 0 0 0 0 0.4 0 0.6-0.2 0.2-0.2 0.4-0.5c0.2-0.3 0.3-0.8 0.5-1.1q0-0.2 0.2-0.2 0.2-0.1 0.4-0.1c0.3 0 0.8 0 1.3 0 0.6 0 0.9 0 1.1-0.1 0.2-0.1 0.4-0.3 0.7-0.6 0.5-0.5 0.7-1 1.1-1.4q0.2-0.2 0.5-0.2 0.4 0 0.8 0.1c0.5 0.1 1 0.3 1.3 0.4 0.6 0.3 1 0.6 1.4 0.8q0.3 0.1 0.7 0.2 0.3 0.1 0.9 0.1c0.6 0 1 0.1 1.4 0.1q0.2 0 0.5 0 0.3-0.1 0.5-0.2c0.1-0.1 0.6 0 1.1 0 0.5 0.1 1.1 0.1 1.4 0.1 0.7 0 1.3 0.2 2.2 0.2q0.5 0 0.7-0.1 0.3 0 0.4-0.2c0.1-0.1 0.2-0.4 0.5-0.7 0.3-0.2 0.2-0.2 0.2-0.2q0 0.1 0 0.1 0 0.1 0.1 0c0.2-0.2 0.5-0.2 0.8-0.4q0.2 0 0.5-0.2 0.2-0.1 0.5-0.4c0.3-0.3 0.5-0.4 0.7-0.7 0.2-0.2 0.3-0.4 0.4-0.7q0.1-0.1 0.2-0.2 0.1-0.1 0.3-0.1c0.2 0 0.5 0.1 0.8 0.1 0.5 0.1 1.1 0.3 1.1 0.3 0.2 0.1 1.6-0.3 2.1-0.3q0.2 0 0.4-0.1 0.1-0.1 0.3-0.3 0.1-0.2 0.3-0.3 0.1-0.1 0.3-0.1 0.3 0 0.5-0.1 0.2-0.2 0.3-0.4c0.2-0.2 0.4-0.5 0.5-0.6q0.2-0.2 0.6-0.2 0.3-0.1 0.7 0c0.5 0.2 1 0.4 1.3 0.5 0 0 0.4-0.1 0.9-0.2 0.5-0.1 1.1-0.2 1.3-0.1 0.9 0.2 1.9 0.4 2.6 0.6q0.3 0.1 0.5 0.4 0.2 0.2 0.3 0.6c0.2 0.4 0.3 0.9 0.5 1.3q0.2 0.3 0.2 0.5 0 0.3 0 0.5-0.1 0.1 0 0.4 0 0.2 0.1 0.5 0.1 0.1 0.2 0 0.1 0 0.1 0l1.3-3.7q-0.4-0.3-0.8-0.6-0.1-0.2-0.2-0.5 0-0.3 0.1-0.7c0-0.4 0.1-0.8 0.1-0.9q0-0.3 0-0.5-0.1-0.2-0.2-0.3c-0.2-0.1-0.4-0.2-0.6-0.3-0.2 0-0.3-0.1-0.4-0.2q0-0.1 0-0.3 0-0.1 0.1-0.4 0.1-0.2 0.3-0.3 0.2-0.2 0.4-0.3c0.3-0.1 0.7-0.2 0.9-0.5 0.1-0.1-0.1-0.1-0.4-0.1-0.2-0.1-0.5-0.1-0.6-0.1z"/>
		<path id="map_nuble_Niquen" fill-rule="evenodd" class="map-nuble s1" data-siglaregion="NB" data-sigla="niquen" data-nombre="칌iqu칠n" d="m83 14.1c-0.4-0.2-0.4 0.6-0.7 0.8-0.4 0.2-0.3 0.7-0.8 0.2-0.4-0.4 0-0.4 0-0.9-0.1 0-0.7 0-0.8 0-0.4-0.1-0.5 0.5-0.4 0.7 0.1 0.4 0.7 0.6 0.9 0.9 0.2 0.2 0.3 0.5 0.4 0.8 0.3 0.9 0.1 1.4-0.3 2.2-0.3 0.4 0.1 1.2-0.5 1.1-0.4-0.1-0.5 0.5-0.4 1 0.1 0.2-0.6 0.2-0.8 0.3-0.2 0.2-0.1 0.8-0.2 1.1-0.2 0.3-0.8 0-0.6 0.5 0 0.2-0.1 0.9 0 1.2 0 0.8-0.5 0.7-0.3 1.5 0.1 0.4 0.4 0.6 0.4 1 0 0.3-0.6 0.3-0.8 0.3-0.3 0.1-0.2 0.7 0 0.8 0.6 0.4 0.4 0.4-0.1 0.8-0.2 0.1-0.2 0.3-0.2 0.5 0.2 0.3 0.6 0.6 1.1 1q0.1 0.1 0.2 0.4 0.1 0.4 0.2 0.8c0.1 0.6 0.2 1.2 0.4 1.5 0 0.1 0.4 0.3 0.9 0.5 0.5 0.3 1 0.6 1.1 0.7q0.2 0.2 0.5 0.3 0.2 0.1 0.5 0.2c0.4 0 0.8 0 1.2 0 0.4 0 0.9 0 1.4 0.2q0.4 0.1 0.7 0.2 0.3 0.1 0.6 0.4 0.2 0.2 0.5 0.4 0.2 0.1 0.4 0.1 0.2 0 0.4-0.1 0.2-0.1 0.4-0.3 0.2-0.2 0.4-0.3 0.2-0.1 0.5-0.1c0.3-0.1 0.7 0 1.1 0q0.4 0 0.7 0 0.2 0.1 0.5 0.2 0.2 0.1 0.4 0.2 0.2 0 0.6 0c0.4 0 0.6-0.1 0.8-0.1q0.1-0.1 0.3 0 0.2 0.1 0.5 0.4c0.1 0.2 0.5 0.3 1 0.4 0.4 0.1 0.8 0.2 1 0.3q0.3 0.1 0.6 0.1 0.3-0.1 0.6-0.2c0.3-0.1 0.5-0.3 0.7-0.4q0.4-0.2 0.7-0.1 0.2 0 0.4 0.2 0.2 0.3 0.3 0.6 0.1 0.3 0.2 0.6 0.1 0.3 0.3 0.5 0.2 0.3 0.6 0.5c0.4 0.3 0.9 0.5 1.3 0.8 0.3 0.3 0.6 0.6 0.8 0.9 0.2 0.4 0.4 0.7 0.6 0.9 0.3 0.3 0.5 0.5 0.7 0.8 0.2 0.3 0.3 0.6 0.6 1 0.1 0.4 0.3 0.7 0.5 1q0.1 0.2 0.2 0.4 0 0.3 0 0.7 0 0.2 0.2 0.3 0.1 0.2 0.3 0.4 0.2 0.1 0.3 0.2 0.2 0.2 0.2 0.3 0 0.3 0.2 0.5 0.2 0.2 0.5 0.4c0.4 0.3 0.8 0.5 1 0.7 0.6 0.6 0.9 1 1.3 1.4 0.2 0.3 0.4 0.6 0.7 0.8q0.2 0.2 0.4 0.3 0.2 0.2 0.6 0.2c0.2 0 0.4 0 0.6 0.1q0.2 0.2 0.4 0.3 0.1 0.1 0.3 0.1 0.2 0 0.6-0.4c0.2-0.2 0.4-0.5 0.6-0.7 0.2-0.2 0.5-0.4 0.8-0.5q0-0.1 0.1 0 0 0.1 0 0.3c0 0.2 0 0.4 0 0.6q0 0.1 0 0.2 0.1 0 0.2-0.1c0.2-0.1 0.4-0.4 0.8-1q0.3-0.6 0.4-0.8 0-0.3 0-0.3 0 0 0.2 0.3c0 0.1 0.2 0.3 0.5 0.6 0.6 0.7 1 1.1 1.5 1.6q0.3 0.2 0.6 0.4 0.2 0.2 0.5 0.2c0.4 0.1 0.8 0.2 1.3 0.2 0.5 0 0.9 0 1.4 0q0.6-0.1 1.1-0.3 0.2-0.1 0.5 0 0.2 0 0.4 0.2 0.3 0.2 0.5 0.4 0.2 0.2 0.5 0.3 0.4 0.1 0.7 0.3 0.3 0.3 0.7 0.6 0.3 0.2 0.7 0.5 0.4 0.2 0.9 0.3 0.1 0 0.1 0l-0.1-1.6 0.5-1 4.8-3.9q-0.4-0.1-0.8-0.3-0.2-0.1-0.4-0.3-0.1-0.2-0.1-0.5c-0.1-0.4-0.1-0.8 0-1.1 0-0.1 0-0.2 0-0.3-0.8-0.6-2-0.2-3-0.3-0.9-0.4-1.2-0.2-1.6-0.4-1-0.5-1.8-1.2-2.8-1.8-1-1.2-2.8-1.1-3.3-2.8-0.1-0.1-1-0.3-1.3-0.3-0.5 0-0.5-0.2-1-0.2-0.6 0-0.9-0.3-1.1-0.6-0.1-0.3 0-1-0.6-1.2-0.3-0.6-1.2-0.6-0.7-1.3-0.2-0.2-0.7-0.2-0.9-0.4-0.4-0.4-1-0.5-1.2-1-0.1-0.4 0.2-1.2 0-1.3-0.3 0-1.3-0.3-1.2-0.8 0-0.3-0.3-0.8-0.4-1-0.4-0.5-1.1-0.8-1.7-0.8-0.4 0-0.6-0.4-0.9-0.6-0.6-0.4-1.2 0.2-1.8 0.3-0.4-0.3-0.1-0.7-0.6-0.9-0.4 0-1.2 0-1.6 0.1-0.4 0.1 0.1 0.3 0.5 0.5 0.2 0.5-0.7 0.6-1.2 0.8-1-0.3-1.6 0.6-2.4 0.7-0.9 0.9-0.9 1.2-1.8 0-0.6-0.5-1.4-0.3-2-0.6-1.5-1.3-0.6 1.9-1.7-0.6-0.1-0.4-0.2-0.3-0.9-0.3-1.2 0.4 0.4 2.6-1.7 0.8-0.3-0.6-0.9-0.4-0.2-1 0.2-0.3 0.3-0.9 0.3-1 0-0.4-1.1 0.4-1.5 0.4-0.5-0.4-0.5-1.4-0.6-2 0-0.5-0.3-0.6-0.5-0.9-0.2-0.4 0.5-0.3 0.8-0.5 0.4-0.7-0.2-1.4-0.9-1.6-0.5 0-0.6 0.5-1.1 0.1-0.3-0.2-0.2-0.7-0.2-1.1 0-0.4-0.3-0.6-0.6-0.7-0.4-0.2-1-0.5-0.8-0.9 0.4-0.7 0.1-1.1-1.1-0.8-0.4 0.1 0.1-0.7-0.2-1-0.2-0.3-0.9 0-1.1-0.2-0.2-0.5-0.2-0.5-0.6-1.2-0.3-0.4-0.2-0.4-0.8-0.3-0.3 0.1-0.8 0-0.8 0-0.7-0.1-0.2-0.5 0-0.7-0.2-0.5-0.7-0.9-1-1.4 0.1-0.8 1.1-0.9 0.1-1.5-0.1 0-0.5 0.2-1 0z"/>
		<path id="map_nuble_Ranquil" fill-rule="evenodd" class="map-nuble s1" data-siglaregion="NB" data-sigla="ranquil" data-nombre="R치nquil" d="m46.7 82.1q-0.2-0.2-0.4-0.4c-0.2-0.3-0.3-0.6-0.5-0.7-0.4-0.1-0.8-0.2-1.1-0.3q-0.2-0.1-0.4-0.2-0.2-0.1-0.3-0.4c0-0.2-0.2-0.6-0.5-1q-0.1-0.2-0.3-0.4-0.2-0.2-0.3-0.2c-0.5 0-0.9-0.1-1.3-0.1-0.4-0.1-0.7-0.2-1.1-0.3-0.5-0.1-0.9-0.2-1.3-0.3-0.3-0.1-0.7-0.2-1-0.5-0.3-0.2-0.5-0.4-0.6-0.6-0.2-0.3-0.3-0.5-0.5-0.8-0.4-0.5-1-1.3-1.6-1.9-0.3-0.3-0.5-0.5-0.8-0.7-0.3-0.1-0.6-0.1-1.2-0.1q-0.3 0-0.6-0.1-0.3-0.1-0.6-0.3-0.2-0.2-0.4-0.5-0.1-0.2-0.1-0.6c0-0.4 0-0.8-0.2-1.1q-0.1-0.2-0.3-0.4-0.2-0.1-0.5-0.1 0 0 0 0c-0.1 0.2-0.3 0.5-0.4 0.6-0.1 0.1-0.4 0.2-0.6 0.4q-0.2 0.1-0.3 0.2-0.1 0.2-0.2 0.4 0 0.3-0.1 0.4-0.1 0.2-0.2 0.2c-0.2 0.1-0.4 0.1-0.7 0.3q-0.2 0.2-0.4 0.5-0.2 0.2-0.4 0.6c-0.2 0.4-0.3 1-0.5 1.5-0.1 0.1-0.1 0.5-0.1 0.9q-0.1 0.2-0.1 0.5-0.1 0.2-0.2 0.3-0.3 0.2-0.7 0.4-0.4 0.2-0.7 0.6c-0.2 0.1-0.3 0.3-0.5 0.4-0.1 0.1-0.4 0.2-0.7 0.2-0.6 0-0.9 0-1.1 0.1-0.3 0.1-0.5 0.3-0.9 0.5q-0.3 0.1-0.7 0.1-0.4 0-0.9-0.1c-0.5-0.1-0.6-0.2-0.7-0.1-0.2 0-0.3 0.1-0.6 0.3q-0.4 0.2-0.7 0.5-0.1 0.1-0.2 0.3c0.1-0.1 0.2-0.1 0.2 0q0.1 0 0.2 0.4c0.1 0.2 0.1 0.4 0.1 0.7 0 0.2 0 0.5-0.1 0.6-0.1 0.2-0.3 0.5-0.4 0.7q0 0.2 0 0.3 0 0.2 0 0.3c0.3 0.3 0.5 0.6 0.8 0.9 0.1 0.1 0.2 0.3 0.4 0.5q0.1 0.1 0.2 0.1 0.2 0.1 0.4 0 0.5-0.1 0.9-0.3 0.5-0.1 0.9-0.1c0.2 0 0.5-0.1 0.7-0.1q0.2 0 0.4 0.1 0.2 0 0.3 0.1c0.1 0.2 0.3 0.3 0.5 0.5 0.2 0.2 0.4 0.4 0.5 0.5q0.1 0.3 0.3 0.4 0.1 0.2 0.3 0.2c0.2 0.1 0.5 0.2 0.8 0.2 0.1 0 0.4-0.1 0.7-0.1q0.2 0 0.3 0 0.1 0.1 0.1 0.2 0 0.2 0 0.3 0.1 0.2 0.2 0.3c0.1 0.2 0.3 0.4 0.4 0.6 0.1 0.1 0.3 0.3 0.5 0.5 0.2 0.2 0.4 0.4 0.5 0.4 0.3 0 0.5 0 0.7 0 0.2 0.1 0.4 0.1 0.7 0.3 0.2 0.1 0.4 0.1 0.5 0.2q0.2 0.1 0.2 0.2 0.1 0.1 0.1 0.4c0 0.3 0 0.5 0.1 0.7 0.1 0.2 0.3 0.4 0.5 0.6 0.1 0.1 0.2 0.4 0.3 0.7 0 0.2 0 0.4 0.1 0.5q0.1 0.1 0.2 0.3c0.3 0.1 0.4 0.2 0.5 0.4q0.2 0.2 0.2 0.6c0 0.3 0 0.7 0.1 1q0 0.1 0 0.2 0.1-0.1 0.1-0.1 0.3 0 0.6-0.1 0.2-0.2 0.3-0.4c0.1-0.2 0.3-0.3 0.5-0.4 0.1 0 0.3 0 0.4 0 0.2 0 0.3 0 0.3 0 0-0.1-0.1-0.2-0.3-0.5q-0.2-0.2-0.2-0.5-0.1-0.3 0-0.6c0.1-0.5 0.3-0.9 0.3-1.1q0.1-0.2 0-0.5-0.1-0.2-0.1-0.4 0-0.2 0.2-0.3 0.2-0.1 0.7-0.1c0.3 0 0.6 0.1 0.9 0.2 0.3 0.1 0.6 0.3 1.1 0.6q0.2 0.2 0.5 0.2 0.4 0.1 0.7 0.1c0.6 0.1 1.1 0 1.5 0q0.2 0 0.4-0.1 0.1-0.1 0.3-0.3c0.2-0.3 0.4-0.5 0.6-0.7q0.1-0.1 0.1-0.3 0-0.1 0-0.3 0.1-0.2 0.2-0.5 0.1-0.2 0.5-0.3 0.2-0.1 0.5-0.2 0.3 0 0.7 0.1c0.4 0 0.9 0.1 1.2 0.1q0.4 0 0.7-0.1 0.2 0 0.4-0.1 0.1-0.1 0.2-0.3 0.1-0.2 0.1-0.5c0.1-0.1 1.2-1 1.3-1.1 0.3-0.3 0.5-0.4 0.7-0.6 0.2-0.2 0.4-0.4 0.6-0.7 0.1-0.1-1.8-1.4-1.9-1.5q-0.2 0-0.2-0.1-0.1-0.1-0.1-0.3 0.1-0.2 0.3-0.4 0-0.1 0.1-0.2z"/>
		<path id="map_nuble_Portezuelo" fill-rule="evenodd" class="map-nuble s1" data-siglaregion="NB" data-sigla="portezuelo" data-nombre="Portezuelo" d="m53.4 78.8c0-0.1-0.1-0.2 0-0.3q0.1-0.2 0.3-0.3 0.1-0.2 0.2-0.3 0.2-0.2 0.1-0.6-0.1-0.3-0.2-0.6v-3.1l0.7 0.2 2.1-2.3q0.2-0.3 0.3-0.5 0.1-0.1 0-0.2 0-0.1-0.1-0.2-0.1-0.2-0.2-0.5c-0.1-0.1-0.2-0.7-0.2-1.3 0-0.3 0-0.5 0.1-0.8q0-0.1 0.1-0.2 0-0.1 0.1-0.1c0.1-0.4 0.1-0.8 0-1.2 0-0.4-0.1-0.8-0.1-1.1q-0.1-0.2-0.1-0.5 0.1-0.2 0.2-0.5c0.1-0.4 0.2-0.8 0.2-1.2q0-0.4-0.1-0.6-0.1-0.3-0.1-0.5-0.1-0.3-0.2-0.5 0-0.2 0.1-0.5 0-0.3-0.2-0.4-0.2-0.1-0.5-0.2c-0.4-0.1-0.9-0.1-1.3-0.2q-0.4-0.1-0.7 0-0.2 0.1-0.4 0.2-0.2 0.2-0.5 0.4-0.2 0.2-0.6 0.3-0.3 0.1-0.6 0-0.2-0.1-0.5-0.3-0.2-0.2-0.5-0.4-0.2-0.1-0.5-0.2-0.1-0.4-0.2-0.8 0-0.2-0.1-0.2-0.1-0.1-0.2-0.1c-0.2 0-0.4 0.1-0.6 0.1q-0.4 0.1-0.7 0.2-0.4 0.1-0.6 0-0.4-0.2-0.6-0.2-0.2 0.1-0.3 0.2-0.2 0.1-0.3 0.1-0.2 0.1-0.6 0c-0.4-0.1-0.7-0.1-0.9-0.1-0.3 0-0.5 0-0.9-0.2-0.3-0.2-0.7-0.4-0.9-0.7-0.3-0.3-0.5-0.6-0.7-0.9q-0.1-0.2 0-0.4 0-0.2 0-0.4 0.1-0.3 0.1-0.5 0-0.3-0.1-0.5-0.1-0.2-0.4-0.4-0.4-0.1-0.7-0.1c-0.5 0-1 0-1.3 0.1 0 0 0.2 0 0.2 0q0.2 0.1 0.2 0.3 0 0.1 0 0.3c0 0.2 0.1 0.3 0.2 0.6 0.1 0.2 0.2 0.5 0.2 0.7q0.1 0.2 0 0.4 0 0.3-0.1 0.5c-0.3 0.6-0.4 0.7-0.5 0.8 0 0-0.1 0-0.5 0.4-0.1 0.1-0.3 0.3-0.4 0.5-0.2 0.2-0.4 0.5-0.4 0.7-0.2 0.6-0.1 1.1-0.3 1.6q0 0.2-0.2 0.4-0.1 0.1-0.3 0.2-0.2 0.1-0.4 0.2-0.1 0.1-0.3 0.4-0.1 0.3-0.1 0.4 0 0.1 0.1 0.2 0.1 0.1 0.1 0.3 0.1 0.1 0 0.3 0 0.3-0.2 0.4-0.1 0.2-0.2 0.2-0.2 0.1-0.3 0.2-0.1 0.1-0.1 0.2c-0.1 0.3-0.1 0.5-0.2 0.7 0 0.3-0.1 0.5-0.2 0.7-0.2 0.5-0.3 0.6-0.4 0.6-0.1 0-0.2 0-0.6 0.2-0.3 0.1-0.4 0.2-0.6 0.3-0.2 0-0.4 0-0.8 0-0.7 0-1.2-0.1-1.8-0.1-0.4 0-0.8 0.1-1.2 0q-0.3 0-0.5-0.1-0.3-0.1-0.5-0.4c-0.1-0.1-0.4-0.2-0.7-0.3q-0.2-0.1-0.4-0.1-0.2 0.1-0.3 0.3 0 0.2 0.1 0.4 0 0.1 0.2 0.2c0.2 0.1 0.5 0.2 0.8 0.5 0.1 0 1.1 0.8 1.1 0.9 0 0.1-0.1 0.3-0.2 0.6q0 0 0 0 0 0 0 0 0.3 0 0.5 0.1 0.2 0.2 0.3 0.4c0.2 0.3 0.2 0.7 0.2 1.1q0 0.4 0.1 0.6 0.2 0.3 0.4 0.5 0.2 0.2 0.6 0.3 0.3 0.1 0.6 0.1c0.6 0 0.9 0 1.2 0.1 0.3 0.2 0.5 0.4 0.8 0.7 0.6 0.6 1.2 1.4 1.6 1.9 0.2 0.3 0.3 0.5 0.5 0.8 0.1 0.2 0.3 0.4 0.6 0.6 0.3 0.3 0.7 0.4 1 0.5 0.4 0.1 0.8 0.2 1.3 0.3 0.4 0.1 0.7 0.2 1.1 0.3 0.4 0 0.8 0.1 1.3 0.1q0.1 0 0.3 0.2 0.2 0.2 0.3 0.4c0.3 0.4 0.5 0.8 0.5 1q0.1 0.3 0.3 0.4 0.2 0.1 0.4 0.2c0.3 0.1 0.7 0.2 1.1 0.3 0.2 0.1 0.3 0.4 0.5 0.7q0.2 0.2 0.4 0.4 0 0 0 0 0.2-0.1 0.4-0.3 0.2-0.1 0.4-0.1 1.3 0 2.5 0 0.1 0 0.2-0.2 0.2-0.2 0.4-0.4 0.1-0.2 0.4-0.4 0.2-0.1 0.6-0.1c0 0 0.9-1.1 1.1-1.5q0.1-0.2 0.3-0.3 0.2 0 0.4 0z"/>
		<path id="map_nuble_Ninhue" fill-rule="evenodd" class="map-nuble s1" data-siglaregion="NB" data-sigla="ninhue" data-nombre="Ninhue" d="m55.3 60.4c-0.1-0.5-0.2-1.2-0.3-1.7-0.1-0.1 0.1-0.5 0.3-0.8 0.2-0.4 0.4-0.8 0.5-1q0-0.4 0.2-0.6 0.2-0.1 0.4-0.2c0.2-0.1 0.6-0.1 1-0.2q0.2 0 0.4-0.3 0.1-0.2 0.1-0.6c0-0.4 0-0.9 0.1-1.3q0.2-0.6 0.2-1.2 0.1-0.6 0.1-1.4c0-0.1 1.8-1 2-1.1 0.2-0.3 0.6-0.5 1-0.7q0.3-0.2 0.5-0.4 0.3-0.1 0.4-0.4 0.2-0.3 0.2-0.5 0-0.3 0-0.5c-0.1-0.2-0.2-0.5-0.4-1.1q0-0.2-0.3-0.4-0.3-0.3-0.6-0.6c-0.5-0.4-1-0.7-1.2-0.9-0.2-0.2-0.3-0.4-0.4-0.7-0.1-0.2-0.2-0.4-0.4-0.6q-0.3-0.3-0.6-0.6-0.1-0.1-0.1-0.2 0.1-0.1 0.1-0.2c0.1-0.1 0.3-0.3 0.3-0.4l1.3-4.2-0.2-2.9 2.1 1.3 0.2-0.8 1.1-1.1 0.1-1.6c-0.3-0.1-0.7-0.3-0.9-0.4-0.2-0.3-0.1-0.8-0.4-1-0.2-0.2-0.9 0.1-1.1-0.3-0.1-0.3-0.5-1.2-0.7-1.3-0.5-0.2-0.3-0.7-0.7-0.8-0.2-0.1-1.1 0-1.4 0-0.3 0-0.5 0.2-0.8 0.2q-0.6 0.1-1 0.6c-0.3 0.4-0.8 0-0.9 0.6-0.1 0.5-0.6 0.3-0.8 0.6-0.3 0.2-0.5 0.3-0.6 0.5-0.4 0.4-0.3 0.4-0.4 0.8 0 0.2-0.5-0.4-0.9-0.6-0.6-0.2-0.6-0.5-0.9-0.8-0.4-0.3-0.4-0.5-0.3-0.9 0.1-0.3-0.4-1-0.5-1.1-0.1-0.2-0.3-0.3-0.5-0.3-0.2 0.1-0.5 0-0.8 0-0.3 0-0.7 0-0.9 0.1-0.2 0.1-0.5 0.1-0.8 0.1-0.4 0-0.7 0-1 0.2q-0.4 0.2-0.4 0.3-0.1 0.1 0.1 0.2 0.1 0.2 0.3 0.4 0.2 0.1 0.2 0.4 0.1 0.4 0.1 0.5 0 0.2-0.1 0.2c-0.2 0-0.4-0.1-0.7-0.4 0 0-1.2-1.1-1.2-1q-0.1 0.3 0 0.5 0.1 0.2 0.2 0.4 0.1 0.2 0.2 0.4 0.1 0.1 0.1 0.3c-0.2 0.5-0.1 0.4-0.1 1.2 0 0.4 0 0.7-0.1 0.9q-0.1 0.2-0.2 0.4-0.1 0.2-0.4 0.4-0.1 0.1 0 0.2 0 0.2 0 0.4 0.1 0.2 0.1 0.3-0.1 0.1-0.2 0.2c-0.2 0-0.4 0.2-0.5 0.3-0.2 0.2-0.4 0.4-0.6 0.5q-0.2 0.2-0.5 0.4l-0.6 1.3 1.4 1.5v2.2l0.7 0.8h0.6l-0.1 2.5c-0.1-0.1-0.5-0.2-0.9-0.3-0.3-0.2-0.7-0.3-0.8-0.3-0.3 0-0.5-0.1-0.8-0.1q-0.2-0.1-0.3 0-0.2 0-0.3 0.2 0 0.1-0.2 0.2-0.2 0.1-0.4 0.2-0.2 0.1-0.4 0.2-0.1 0.2-0.2 0.4c-0.1 0.6-0.2 0.8-0.2 0.9-0.1 0-0.3-0.1-0.7-0.1q-0.5 0-0.8 0.1-0.3 0.1-0.6 0.4c-0.1 0.1-0.4 0.3-0.6 0.6q-0.2 0.2-0.4 0.4-0.1 0.2-0.2 0.3c-0.1 0.3-0.2 0.6-0.4 0.9q-0.2 0.4-0.3 1c-0.1 0.3-0.2 0.5-0.2 0.7q0 0.2 0 0.4 0.1 0.1 0.3 0.3 0.2 0.2 0.2 0.4 0.1 0.1 0 0.2-0.1 0.1-0.1 0.3-0.1 0.1-0.1 0.3 0 0.4-0.1 0.6-0.1 0.1-0.2 0.2-0.1 0.1 0 0.2 0 0.1 0.2 0.4c0.2 0.3 0.3 0.6 0.5 0.9q0.1 0.3 0.2 0.5 0.1 0.2 0.4 0.3 0.3 0.2 0.5 0.2 0.2 0.1 0.4 0c0.3 0 0.6 0 1 0 0.2 0.1 0.3 0.1 0.4 0.2 0.3-0.1 0.8-0.1 1.3-0.1q0.3 0 0.7 0.1 0.3 0.2 0.4 0.4 0.1 0.2 0.1 0.5 0 0.2-0.1 0.5 0 0.2 0 0.4-0.1 0.2 0 0.4c0.2 0.3 0.4 0.6 0.7 0.9 0.2 0.3 0.6 0.5 0.9 0.7 0.4 0.2 0.6 0.2 0.9 0.2 0.2 0 0.5 0 0.9 0.1q0.4 0.1 0.6 0 0.1 0 0.3-0.1 0.1-0.1 0.3-0.2 0.2 0 0.6 0.2 0.2 0.1 0.6 0 0.3-0.1 0.7-0.2c0.2 0 0.4-0.1 0.6-0.1q0.1 0 0.2 0.1 0.1 0 0.1 0.2 0.1 0.4 0.2 0.8 0.3 0.1 0.5 0.2 0.3 0.2 0.5 0.4 0.3 0.2 0.5 0.3 0.3 0.1 0.6 0 0.4-0.1 0.6-0.3 0.3-0.2 0.5-0.4 0.2-0.1 0.4-0.2 0.3-0.1 0.7 0c0.2 0 0.5 0.1 0.7 0.1z"/>
		<path id="map_nuble_Coelemu" fill-rule="evenodd" class="map-nuble s1" data-siglaregion="NB" data-sigla="coelemu" data-nombre="Coelemu" d="m28.8 67.7q-0.3-0.1-0.9-0.1-0.3-0.1-0.6-0.2-0.3-0.1-0.3-0.2-0.2-0.5-0.5-0.9-0.2-0.2-0.4-0.3-0.3-0.2-0.6-0.2-0.3-0.1-0.6-0.3-0.3-0.1-0.5-0.3-0.2-0.1-0.3-0.4-0.1-0.2-0.2-0.5-0.1-0.3-0.3-0.5-0.2-0.3-0.5-0.5c-0.4-0.2-0.8-0.5-1.1-0.8q-0.2-0.1-0.3-0.3-0.1-0.2-0.2-0.5c0-0.3-0.1-0.7-0.2-1.1-0.1-0.5-0.1-0.7-0.1-0.9 0.1-0.2 0.2-0.3 0.3-0.7q0-0.2-0.1-0.4-0.1-0.2-0.2-0.3-0.1-0.2-0.2-0.4-0.1-0.2 0-0.4c0.2-0.4 0.4-0.5 0.5-0.7q0-0.1-0.1-0.2-0.1-0.2-0.4-0.5c-0.2-0.2-0.5-0.3-0.8-0.4q-0.2-0.1-0.4-0.2-0.1-0.1-0.2-0.4-0.2-0.2-0.5-0.3-0.2 0-0.5 0c-0.4 0-0.8 0.1-0.8 0-0.1-0.2-0.1-0.7-0.2-1.2q0-0.4-0.1-0.6-0.1-0.3-0.2-0.4c-0.2-0.3-0.4-0.4-0.5-0.4q-0.1 0-0.2 0.1c-0.1 0.1-0.1 0.2-0.2 0.3q-0.2 0.2-0.6 0.3c-0.3 0.1-0.6 0.1-0.9 0.1q-0.2 0-0.4-0.1-0.2-0.1-0.4-0.3-0.2-0.3-0.5-0.4-0.2-0.1-0.5-0.1c-0.4 0-0.8 0-1.4 0-0.6 0-0.8-0.1-1-0.2-0.2-0.1-0.4-0.3-0.8-0.5q-0.5-0.2-1.1-0.3-0.6-0.1-1.3-0.3-0.3-0.1-0.6 0-0.3 0.1-0.6 0.2c-0.3 0.1-0.7 0.3-0.8 0.3-0.1-0.1-0.6-0.2-1.1-0.4q-0.3-0.1-0.6-0.1-0.4 0-0.5 0.1c-0.2 0.3-0.4 0.4-0.7 0.6-0.1 1.5-0.2 3.1-0.4 4.5 0.2 0.3-0.5 1.1-1.2 1.4q0 0 0 0c0.1 0.1 0.3 0.2 0.4 0.2q0.2 0 0.4 0.1 0.1 0.1 0.1 0.3c-0.1 0.1 0 0.7 0.1 1.2q0 0.3 0.1 0.6 0.1 0.1 0.2 0.1 0 0 0.1 0c0.1-0.2 0.3-0.4 0.5-0.5q0.1-0.1 0.2-0.1 0.1-0.1 0.1 0c0.1 0.2 0.2 0.4 0.4 0.5 0.1 0 0.3 0.1 0.6 0.1 0.2 0 0.4-0.1 0.6-0.2 0.2 0 0.4-0.1 0.6 0 0.3 0.1 0.5 0.2 0.7 0.3q0.1 0.1 0.3 0.2 0.2 0 0.4 0 0.2 0 0.4-0.1 0.1 0 0.2-0.2c0.1-0.1 0.3-0.3 0.5-0.3 0.4-0.1 0.5-0.3 0.7-0.4q0.1 0 0.2 0.1 0.2 0 0.5 0.3l-0.2 3.2 0.9 1.5c0.1 0 0.1 0 0.1 0-0.1-0.1-0.1-0.1 0 0.1q0.3 0.2 0.3 0.4-0.1 0.1-0.2 0.3-0.1 0.1-0.1 0.2-0.1 0.1 0 0.1 0.3 0.3 0.4 0.4 0.1 0.1 0 0.1 0 0-0.2 0.1-0.1 0-0.2 0.2c0 0.1 0 0.4-0.2 0.5q0 0.1-0.2 0.2-0.1 0-0.4-0.1-0.1-0.1-0.3-0.1-0.1 0-0.2 0.1c-0.1 0.1-0.2 0.3-0.4 0.5 0 0.1-0.2 0.3-0.3 0.5-0.1 0.2-0.1 0.5-0.1 0.6 0 0.3 0.2 0.5 0.3 0.6 0 0.2 0.1 0.4 0 0.6 0 0.1-0.1 0.3-0.2 0.5q0 0.2 0 0.3 0.1 0.1 0.2 0.2c0.1 0 0.4 0.1 0.7 0.3q0.2 0.1 0.4 0.2 0.1 0.2 0.1 0.3 0 0.2 0.1 0.3 0.1 0.1 0.2 0.2c0.2 0.2 0.4 0.2 0.5 0.4 0.3 0.2 0.4 0.3 0.5 0.4 0.1 0.1 0.1 0.2 0.1 0.5 0 0.2 0.1 0.5 0.2 0.7 0.2 0.2 0.3 0.4 0.2 0.4q-0.2-0.1-0.3-0.1v3.9c0.1 0.1 0.2 0.2 0.3 0.3q0.1 0.1 0.3 0.1 0.3 0.2 0.6 0.3 0.4 0 0.8 0c0.3-0.1 0.5-0.2 0.6-0.3 0.1 0 0.3-0.1 0.6-0.1q0.4 0 0.5 0.1 0 0.2-0.2 0.4c-0.3 0.3-0.4 0.7-0.7 0.9-0.2 0.3-0.3 0.4-0.2 0.4 0 0 0.2 0.1 0.4 0.2 0.3 0.1 0.5 0.2 0.7 0.3 0.2 0 0.4 0 0.7-0.1 0.2-0.1 0.3-0.3 0.5-0.3q0.1-0.1 0.3-0.1 0.1 0 0.3 0.1c0.2 0.1 0.4 0.2 0.6 0.3q0.2 0.1 0.4 0.1 0.1 0 0.2-0.1c0.1-0.2 0.3-0.4 0.5-0.5q0 0 0 0 0.1-0.2 0.2-0.3 0.3-0.3 0.7-0.5c0.3-0.2 0.4-0.3 0.6-0.3 0.1-0.1 0.2 0 0.7 0.1q0.5 0.1 0.9 0.1 0.4 0 0.7-0.1c0.4-0.2 0.6-0.4 0.9-0.5 0.2-0.1 0.5-0.1 1.1-0.1 0.3 0 0.6-0.1 0.7-0.2 0.2-0.1 0.3-0.3 0.5-0.4q0.3-0.4 0.7-0.6 0.4-0.2 0.7-0.4 0.1-0.1 0.2-0.3 0-0.3 0.1-0.5c0-0.4 0-0.8 0.1-0.9 0.2-0.5 0.3-1.1 0.5-1.5q0.2-0.4 0.4-0.6 0.2-0.3 0.4-0.5c0.3-0.2 0.5-0.2 0.7-0.3q0.1 0 0.2-0.2 0.1-0.1 0.1-0.4 0.1-0.2 0.2-0.4 0.1-0.1 0.3-0.2c0.2-0.2 0.5-0.3 0.6-0.4 0.1-0.2 0.3-0.4 0.4-0.6 0.1-0.3 0.2-0.5 0.2-0.6 0-0.1-1-0.9-1.1-0.9-0.3-0.3-0.6-0.4-0.8-0.5q-0.2-0.1-0.2-0.2c-0.1-0.1-0.1-0.2-0.1-0.2z"/>
		<path id="map_nuble_Trehuaco" fill-rule="evenodd" class="map-nuble s1" data-siglaregion="NB" data-sigla="trehuaco" data-nombre="Trehuaco" d="m36.7 53.2h-0.1q0.1 0 0.1 0.1 0 0 0 0.1-0.2 0-0.6 0.2c-0.2 0-0.5 0.1-0.7 0.2q-0.4 0.2-0.6 0.4-0.3 0.3-0.5 0.4-0.3 0.1-0.4 0c-0.3-0.1-0.6-0.4-1-0.8-0.1 0 0-0.1 0-0.3q0.2-0.2 0.4-0.5c0.3-0.3 0.7-0.6 0.7-0.8q0.1-0.2 0-0.4-0.1-0.2-0.4-0.4c-0.2-0.3-0.6-0.5-0.9-0.8q-0.3-0.3-0.5-0.3-0.3-0.1-0.5 0.1c-0.2 0.1-0.5 0.5-0.7 0.9-0.2 0.2-1.6 1-2 1.3q-0.2 0.2-0.5 0.2-0.3 0.1-0.5 0.1-0.2-0.1-0.4-0.2-0.2-0.2-0.3-0.5c-0.3-0.4-0.3-0.7-0.4-0.9q-0.1-0.1-0.3-0.3-0.2-0.1-0.6-0.4-0.1 0-0.1-0.1 0-0.1 0-0.2 0.1-0.2 0.2-0.4c0.1-0.1 0.3-0.3 0.3-0.5q0.2-0.2 0.1-0.4c-0.3-0.5-0.4-0.8-0.5-1.2-0.1-0.4-0.2-0.9-0.3-1.5-0.1-0.2-1.2-1.1-1.5-1.3q-0.1-0.1-0.1-0.4 0-0.3 0.1-0.6c0-0.4 0.1-0.9 0.2-1.1q0-0.2 0-0.3-0.1-0.1-0.2-0.2c-0.1-0.1-0.3-0.1-0.6 0-0.4 0-1 0.2-1.2 0.2-0.5-0.1-0.8-0.1-1-0.1-0.3 0.1-0.5 0.3-0.7 0.6-0.1 0.1-0.1 0.2-0.1 0.3 0.1 0.1 0.1 0.3 0.2 0.4 0 0.1 0 0.2-0.1 0.3-0.2 0-0.4 0.1-0.8 0.1q-0.2 0-0.3 0.2-0.1 0.1-0.3 0.3-0.1 0.2-0.3 0.3-0.2 0.1-0.6 0c-0.4-0.1-0.6-0.3-0.8-0.3q-0.1 0-0.2 0.1-0.1 0.1-0.3 0.5-0.1 0.4-0.2 0.5-0.1 0.2-0.2 0.3c-0.2 0.1-0.5 0-1.2 0q-0.1 0-0.4-0.2-0.2-0.1-0.4-0.4-0.3-0.2-0.5-0.4-0.2-0.2-0.4-0.3c-0.1 0-1.3-1.5-1.3-1.6q-0.2-0.2-0.6-0.1-0.3 0-0.6 0.2c-0.5 0.1-0.9 0.4-0.9 0.4-0.4 0.2-0.7 0.3-1 0.5q-0.1 0.2-0.2 0.4-0.1 0.2-0.1 0.6c0 0.5 0.1 0.7 0 0.9q0 0.1-0.2 0.2-0.1 0.1-0.5 0.3-0.2 0.1-0.5 0.1-0.2-0.1-0.5-0.2c-0.3-0.2-0.7-0.5-1-0.5q-0.2-0.1-0.5 0-0.3 0.1-0.6 0.2-0.3 0.2-0.7 0.2-0.3 0.1-0.6 0-0.5 0.8-1.1 1.6c-0.1 1.1-0.2 2.3-0.3 3.5 0.3-0.2 0.5-0.3 0.7-0.6q0.1-0.1 0.5-0.1 0.3 0 0.6 0.1c0.5 0.2 1 0.3 1.1 0.4 0.1 0 0.5-0.2 0.8-0.3q0.3-0.1 0.6-0.2 0.3-0.1 0.6 0 0.7 0.2 1.3 0.3 0.6 0.1 1.1 0.3c0.4 0.2 0.6 0.4 0.8 0.5 0.2 0.1 0.4 0.2 1 0.2 0.6 0 1 0 1.4 0q0.3 0 0.5 0.1 0.3 0.1 0.5 0.4 0.2 0.2 0.4 0.3 0.2 0.1 0.4 0.1c0.3 0 0.6 0 0.9-0.1q0.4-0.1 0.6-0.3c0.1-0.1 0.1-0.2 0.2-0.3q0.1-0.1 0.2-0.1c0.1 0 0.3 0.1 0.5 0.4q0.1 0.1 0.2 0.4 0.1 0.2 0.1 0.6c0.1 0.5 0.1 1 0.2 1.2 0 0.1 0.4 0 0.8 0q0.3 0 0.5 0 0.3 0.1 0.5 0.3 0.1 0.2 0.2 0.4 0.2 0.1 0.4 0.2c0.3 0.1 0.6 0.2 0.8 0.4q0.3 0.3 0.4 0.5 0.1 0.1 0.1 0.2c-0.1 0.2-0.3 0.3-0.5 0.7q-0.1 0.2 0 0.4 0.1 0.2 0.2 0.4 0.1 0.1 0.2 0.3 0.1 0.2 0.1 0.4c-0.1 0.4-0.2 0.5-0.3 0.7 0 0.2 0 0.4 0.1 0.9 0.1 0.4 0.2 0.8 0.2 1.1q0.1 0.3 0.2 0.5 0.1 0.2 0.3 0.3c0.3 0.3 0.7 0.6 1.1 0.8q0.3 0.2 0.5 0.5 0.2 0.2 0.3 0.5 0.1 0.3 0.2 0.5 0.1 0.3 0.3 0.4 0.2 0.2 0.5 0.3 0.3 0.2 0.6 0.3 0.3 0 0.6 0.2 0.2 0.1 0.4 0.3 0.3 0.4 0.5 0.9 0 0.1 0.3 0.2 0.3 0.1 0.6 0.2 0.6 0 0.9 0.1c0-0.1 0-0.1 0-0.2q0.1-0.2 0.3-0.3 0.2 0 0.4 0.1c0.3 0.1 0.6 0.2 0.7 0.3q0.2 0.3 0.5 0.4 0.2 0.1 0.5 0.1c0.4 0.1 0.8 0 1.2 0 0.6 0 1.1 0.1 1.8 0.1 0.4 0 0.6 0 0.8 0 0.2-0.1 0.3-0.2 0.7-0.3 0.3-0.2 0.4-0.2 0.5-0.2 0.1 0 0.2-0.1 0.4-0.6 0.1-0.2 0.2-0.4 0.2-0.7 0.1-0.2 0.1-0.4 0.2-0.7q0-0.1 0.1-0.2 0.1-0.1 0.3-0.2 0.1 0 0.2-0.2 0.2-0.1 0.2-0.4 0.1-0.2 0-0.3 0-0.2-0.1-0.3-0.1-0.1-0.1-0.2 0-0.1 0.1-0.4 0.2-0.3 0.3-0.4 0.2-0.1 0.4-0.2 0.2-0.1 0.3-0.2 0.2-0.2 0.2-0.4c0.2-0.5 0.1-1 0.3-1.6 0-0.2 0.2-0.5 0.4-0.7 0.1-0.2 0.3-0.4 0.4-0.5 0.4-0.4 0.5-0.4 0.5-0.4 0.1-0.1 0.2-0.2 0.5-0.8q0.1-0.2 0.1-0.5 0.1-0.2 0-0.4c0-0.2-0.1-0.5-0.2-0.7-0.1-0.3-0.2-0.4-0.2-0.6q0-0.2 0-0.3 0-0.2-0.2-0.3-0.2-0.1-0.6-0.2c-0.4 0-0.7 0-1 0q-0.2 0.1-0.4 0-0.2 0-0.5-0.2-0.3-0.1-0.4-0.3-0.1-0.2-0.2-0.5c-0.2-0.3-0.3-0.6-0.5-0.9-0.1-0.1-0.1-0.2-0.2-0.2z"/>
		<path id="map_nuble_Quirihue" fill-rule="evenodd" class="map-nuble s1" data-siglaregion="NB" data-sigla="quirihue" data-nombre="Quirihue" d="m30.6 9q-0.1 0-0.1 0.1c-0.1 0.3-0.3 0.7-0.5 1.1q-0.1 0.3 0 0.5 0.1 0.1 0.2 0.2 0.1 0.1 0.3 0.1c0.1 0.1 0.5 0 0.8 0q0.3-0.1 0.5 0 0.2 0 0.3 0c0.2 0.2 0.3 0.5 0.5 0.8q0.1 0.3 0.2 0.5 0.2 0.2 0.4 0.3c0.2 0.1 0.7 0.5 1.1 0.8 0.2 0.2 0.3 0.4 0.3 0.5q0 0.1-0.2 0.1-0.1 0.1-0.4 0.1-1.2 0-2.4 0c-0.2 0-0.7-0.1-1.2-0.1q-0.4 0-0.8 0-0.3 0-0.4 0.1c-0.2 0.2-0.4 0.4-0.6 0.7-0.3 0.3-0.5 0.6-0.8 0.7-0.3 0.2-0.5 0.4-0.8 0.6-0.2 0.2-0.4 0.4-0.7 0.6-0.3 0.1-0.6 0.4-1 0.6-0.4 0.3-0.8 0.5-1.1 0.7-0.3 0.1-0.7 0.2-1.2 0.3q-0.4 0.1-0.8 0.1-0.4 0-0.7-0.1c-0.1 0-0.6-0.4-1.1-0.5q-0.3-0.2-0.6-0.2-0.2 0-0.3 0.1-0.1 0.1-0.1 0.3-0.1 0.3-0.1 0.7 0.1 0.3 0.2 0.6 0 0.3 0.1 0.7 0.1 0.3 0.1 0.7 0 0.4 0.1 0.6 0.1 0.1 0.3 0.1c0.3 0.1 0.6 0 1.1 0.1 0.3 0.1 0.7 0.2 1.1 0.3q0.3 0.2 0.5 0.3 0.3 0.2 0.4 0.4c0.2 0.2 0.4 0.5 0.5 0.9 0.2 0.3 0.3 0.7 0.5 0.8q0.2 0.2 0.4 0.3 0.3 0.1 0.6 0.2 0.2 0.1 0.4 0.2 0.1 0.2 0.1 0.5c-0.1 0.2-0.3 0.5-0.4 0.9q-0.1 0.2-0.2 0.5 0 0.3 0.1 0.5c0.1 0.2 0.4 0.7 0.7 1.2 0.3 0.6 0.6 1.1 0.6 1.2q0 0.3-0.1 0.6-0.2 0.3-0.3 0.6-0.1 0.3-0.2 0.5-0.1 0.2-0.1 0.4c0.1 0.3 0.2 0.5 0.3 0.6 0.1 0.1 0.2 0.2 0.4 0.2q0.2 0 0.4 0 0.3 0.1 0.5 0.3 0.5 0.5 0.6 1 0.1 0.3 0.1 0.5 0 0.3 0 0.6c-0.1 0.2-0.2 0.6-0.3 1-0.1 0.4-0.2 0.8-0.2 0.9 0.1 0.4 0.2 0.6 0.2 0.8 0.1 0.2 0.1 0.4 0 0.9q-0.1 0.2-0.2 0.3-0.2 0.1-0.4 0.2c-0.2 0.2-0.5 0.2-0.6 0.3-0.5 0.1-0.6 0.1-0.7 0.2-0.1 0.1-0.2 0.2-0.6 0.7-0.3 0.5-0.5 0.7-0.5 0.8-0.1 0.1 0 0.2-0.1 0.4 0 0.1-0.2 0.4-0.4 0.6q-0.2 0.1-0.4 0.3c0.1 0 0.3 0 0.3 0q0.1 0.1 0.2 0.2 0 0.1 0 0.3c-0.1 0.2-0.2 0.7-0.2 1.1q-0.1 0.3-0.1 0.6 0 0.3 0.1 0.4c0.3 0.2 1.4 1.1 1.5 1.3 0.1 0.6 0.2 1.1 0.3 1.5 0.1 0.4 0.2 0.7 0.5 1.2q0.1 0.2-0.1 0.4c0 0.2-0.2 0.4-0.3 0.5q-0.1 0.2-0.2 0.4 0 0.1 0 0.2 0 0.1 0.1 0.1 0.4 0.3 0.6 0.4 0.2 0.2 0.3 0.3c0.1 0.2 0.1 0.5 0.4 0.9q0.1 0.3 0.3 0.5 0.2 0.1 0.4 0.2 0.2 0 0.5-0.1 0.3 0 0.5-0.2c0.4-0.3 1.8-1.1 2-1.3 0.2-0.4 0.5-0.8 0.7-0.9q0.2-0.2 0.5-0.1 0.2 0 0.5 0.3c0.3 0.3 0.7 0.5 0.9 0.8q0.3 0.2 0.4 0.4 0.1 0.2 0 0.4c0 0.2-0.4 0.5-0.7 0.8q-0.2 0.3-0.4 0.5c0 0.2-0.1 0.3 0 0.3 0.4 0.4 0.7 0.7 1 0.8q0.1 0.1 0.4 0 0.2-0.1 0.5-0.4 0.2-0.2 0.6-0.4c0.2-0.1 0.5-0.2 0.7-0.2q0.4-0.2 0.6-0.2 0-0.1 0-0.1 0-0.1-0.1-0.1h0.1c0-0.1 0-0.1 0-0.2q-0.1-0.1 0-0.2 0.1-0.1 0.2-0.2 0.1-0.2 0.1-0.6 0-0.2 0.1-0.3 0-0.2 0.1-0.3 0.1-0.1 0-0.2 0-0.2-0.2-0.4-0.2-0.2-0.3-0.3 0-0.2 0-0.4c0-0.2 0.1-0.4 0.2-0.7q0.1-0.6 0.3-1c0.2-0.3 0.3-0.6 0.4-0.9q0.1-0.1 0.2-0.3 0.2-0.2 0.4-0.4c0.2-0.3 0.5-0.5 0.6-0.6q0.3-0.3 0.6-0.4 0.3-0.1 0.8-0.1c0.4 0 0.6 0.1 0.7 0.1 0-0.1 0.1-0.3 0.2-0.9q0.1-0.2 0.2-0.4 0.2-0.1 0.4-0.2 0.2-0.1 0.4-0.2 0.2-0.1 0.2-0.2 0.1-0.2 0.3-0.2 0.1-0.1 0.3 0c0.3 0 0.5 0.1 0.8 0.1 0.1 0 0.5 0.1 0.8 0.3 0.4 0.1 0.8 0.2 0.9 0.3l0.1-2.5h-0.6l-0.7-0.8v-2.2l-1.4-1.5 0.6-1.3q0.3-0.2 0.5-0.4c0.2-0.1 0.4-0.3 0.6-0.5 0.1-0.1 0.3-0.3 0.5-0.3q0.1-0.1 0.2-0.2 0-0.1-0.1-0.3 0-0.2 0-0.4-0.1-0.1 0-0.2 0.3-0.2 0.4-0.4 0.1-0.2 0.2-0.4c0.1-0.2 0.1-0.5 0.1-0.9 0-0.8-0.1-0.7 0.1-1.2q0-0.2-0.1-0.3-0.1-0.2-0.2-0.4-0.1-0.2-0.2-0.4-0.1-0.2 0-0.5c0-0.1 1.2 1 1.2 1 0.3 0.3 0.5 0.4 0.7 0.4q0.1 0 0.1-0.2 0-0.1-0.1-0.5 0-0.3-0.2-0.4-0.2-0.2-0.3-0.4-0.2-0.1-0.1-0.2 0-0.1 0.4-0.3c0.3-0.2 0.6-0.2 1-0.2 0.3 0 0.6 0 0.8-0.1 0.2-0.1 0.6-0.1 0.9-0.1 0.3 0 0.6 0.1 0.8 0-0.3 0-0.6 0-0.6-0.2-0.2-0.7-0.9 0-0.7-0.8 0.4-0.6-0.4-0.7-0.1-1.4 0-0.3 0.9-0.2 1.2-0.2 0.6 0 0.9 0.3 1.4 0.4 0.5 0.1 1.5 0.1 1.5 0.1 0.4 0.1 0.6 0.5 0.9 0.6 0.3-0.3 0.4-0.7 1.1-0.9 0.3-0.4 0.6-0.2 0.7-0.5 0.1-0.5 0.7 0 0.7-0.4 0-0.5-0.1-0.7 0.1-1-0.1-1.6 0.4-1.7 0.1-2.3-0.3-0.3-0.3-0.4-0.7-0.8-1.3-0.4-1.3-1.5-2.1-1.6-0.5 0.5-0.9 1.4-1.6 1.3-0.5 0.2-1 0.4-1.4 0.7-0.9 0.1-1.7 0-2.5-0.4-0.6-0.4-0.7-1.2-1.3-1.8-0.6-0.2-1.3 0-1.9-0.2-0.2-0.1-0.1-0.7-1.2-0.4-0.8-0.3-1.3-0.3-1.9 0.1-0.3 0.3-1.1-0.3-1.3-0.4-0.4-0.4-0.6-0.1-1-0.5-0.2-0.3-0.5-1-0.3-1.2 0.8-0.3 0.8-0.8 1-1.5 0.2-0.7-0.5-0.8-0.2-1.8 0-0.5-0.4-1.1-0.8-1.5-0.4-0.5 0.3-0.1 0.2-1.7 0-0.1 0.7-0.5 0.8-0.6 0.2-0.2-0.1-1-0.2-1.1-0.7-0.2-1.5 0.1-2.1 0.5-0.4 0.5-1.2-0.5-1.8-0.7-0.5-0.4-0.5 0-0.9 0-0.4 0.1-0.5 0.5-1.1 0.5-0.8 0-1.5 0.1-2.8-0.1-0.2 0-0.9 0.4-1.1 0.6 0 0-0.1-0.1-0.1-0.1z"/>
		<path id="map_nuble_Cobquecura" fill-rule="evenodd" class="map-nuble s1" data-siglaregion="NB" data-sigla="cobquecura" data-nombre="Cobquecura" d="m12.3 1q-0.4 0-0.6 0c-0.2 0.1-0.3 0.2-0.2 0.5-0.7 1.2-1.3 0.6-1.7 1.1-0.2 0.3-0.7 0.5-1 0.7-0.4 0.2-0.9 0.2-1.3 0.2v-0.1c-0.3 1.3 2.3 2.6 0.5 3.3 1.2 0.8 1.5 3.8 0.1 3.7-0.5 0.8-1.3 1.5-1.3 2.3 0 1.4 1.3 2.9 1.5 4.6 0.5 1.5-0.4 2.8-0.3 4.6-3.2 5.6 2.6 9.7 0 15.9-1.8 2.8-2.2 5.7-4 8.6q0.3 0.1 0.6 0 0.4 0 0.7-0.2 0.3-0.1 0.6-0.2 0.3-0.1 0.5 0c0.3 0 0.7 0.3 1 0.5q0.3 0.1 0.5 0.2 0.3 0 0.5-0.1 0.4-0.2 0.5-0.3 0.2-0.1 0.2-0.2c0.1-0.2 0-0.4 0-0.9q0-0.4 0.1-0.6 0.1-0.2 0.2-0.4c0.3-0.2 0.6-0.3 1-0.5 0 0 0.4-0.3 0.9-0.4q0.3-0.2 0.6-0.2 0.4-0.1 0.6 0.1c0 0.1 1.2 1.6 1.3 1.6q0.2 0.1 0.4 0.3 0.2 0.2 0.5 0.4 0.2 0.3 0.4 0.4 0.3 0.2 0.4 0.2c0.7 0 1 0.1 1.2 0q0.1-0.1 0.2-0.3 0.1-0.1 0.2-0.5 0.2-0.4 0.3-0.5 0.1-0.1 0.2-0.1c0.2 0 0.4 0.2 0.8 0.3q0.4 0.1 0.6 0 0.2-0.1 0.3-0.3 0.2-0.2 0.3-0.3 0.1-0.2 0.3-0.2c0.4 0 0.6-0.1 0.8-0.1 0.1-0.1 0.1-0.2 0.1-0.3-0.1-0.1-0.1-0.3-0.2-0.4 0-0.1 0-0.2 0.1-0.3 0.2-0.3 0.4-0.5 0.7-0.6 0.2 0 0.5 0 1 0.1 0.2 0 0.8-0.2 1.2-0.2 0.1-0.1 0.2 0 0.3 0q0.2-0.2 0.4-0.3c0.2-0.2 0.4-0.5 0.4-0.6 0.1-0.2 0-0.3 0.1-0.4 0-0.1 0.2-0.3 0.5-0.8 0.4-0.5 0.5-0.6 0.6-0.7 0.1-0.1 0.2-0.1 0.7-0.2 0.1-0.1 0.4-0.1 0.6-0.3q0.2-0.1 0.4-0.2 0.1-0.1 0.2-0.3c0.1-0.5 0.1-0.7 0-0.9 0-0.2-0.1-0.4-0.2-0.8 0-0.1 0.1-0.5 0.2-0.9 0.1-0.4 0.2-0.8 0.3-1q0-0.3 0-0.6 0-0.2-0.1-0.5-0.1-0.5-0.6-1-0.2-0.2-0.5-0.3-0.2 0-0.4 0c-0.2 0-0.3-0.1-0.4-0.2-0.1-0.1-0.2-0.3-0.3-0.6q0-0.2 0.1-0.4 0.1-0.2 0.2-0.5 0.1-0.3 0.3-0.6 0.1-0.3 0.1-0.6c0-0.1-0.3-0.6-0.6-1.2-0.3-0.5-0.6-1-0.7-1.2q-0.1-0.2-0.1-0.5 0.1-0.3 0.2-0.5c0.1-0.4 0.3-0.7 0.4-0.9q0-0.3-0.1-0.5-0.2-0.1-0.4-0.2-0.3-0.1-0.6-0.2-0.2-0.1-0.4-0.3c-0.2-0.1-0.3-0.5-0.5-0.8-0.1-0.4-0.3-0.7-0.5-0.9q-0.1-0.2-0.4-0.4-0.2-0.1-0.5-0.3c-0.4-0.1-0.8-0.2-1.1-0.3-0.5-0.1-0.8 0-1.1-0.1q-0.2 0-0.3-0.1-0.1-0.2-0.1-0.6 0-0.4-0.1-0.7-0.1-0.4-0.1-0.7-0.1-0.3-0.2-0.6 0-0.4 0.1-0.7 0-0.2 0.1-0.3 0.1-0.1 0.3-0.1 0.3 0 0.6 0.2c0.5 0.1 1 0.5 1.1 0.5q0.3 0.1 0.7 0.1 0.4 0 0.8-0.1c0.5-0.1 0.9-0.2 1.2-0.3 0.3-0.2 0.7-0.4 1.1-0.7 0.4-0.2 0.7-0.5 1-0.6 0.3-0.2 0.5-0.4 0.7-0.6 0.3-0.2 0.5-0.4 0.8-0.6 0.3-0.1 0.5-0.4 0.8-0.7 0.2-0.3 0.4-0.5 0.6-0.7q0.1-0.1 0.4-0.1 0.4 0 0.8 0c0.5 0 1 0.1 1.2 0.1q1.2 0 2.4 0 0.3 0 0.4-0.1 0.2 0 0.2-0.1c0-0.1-0.1-0.3-0.3-0.5-0.4-0.3-0.9-0.7-1.1-0.8q-0.2-0.1-0.4-0.3-0.1-0.2-0.2-0.5c-0.2-0.3-0.3-0.6-0.5-0.8q-0.1 0-0.3 0-0.2-0.1-0.5 0c-0.3 0-0.7 0.1-0.8 0q-0.2 0-0.3-0.1-0.1-0.1-0.2-0.2-0.1-0.2 0-0.5c0.2-0.4 0.4-0.8 0.5-1.1q0-0.1 0.1-0.1c-0.3-0.1-0.6-0.4-0.8-0.5-0.2-0.2 0.8-0.1 0.7-1-0.1-0.5-0.8-0.3-1-0.3-0.3 0-0.5-0.4-0.6-0.5-0.2-0.4-0.2-0.4-2.1-0.5-0.4-0.7-0.3-1.1 0-1.9 0.1-0.9-1-0.5-1.2-1.5 0-0.3-0.8-0.6-0.9-0.7-0.8-0.6-0.7-0.5-0.7 0.3-0.2 0.7 0.1 1.2-0.4 1.7-0.3 0.4-0.6 0.5-0.2 1 0.1 0.2-0.2 0.8-0.6 0.2-0.2-0.5-0.3-0.7-0.6-1-0.1-0.1 0.3-0.7-0.3-0.8-0.8 0-1.1 0-1.2-0.2 0.1-0.8-0.6-1.2-1.3-1.1-0.3 0.9-0.8 0-1.6-0.3-0.3 0.7-0.3 1.3-1.3 0.9 0 0-0.3-0.9-0.6-0.8-0.7 0.2-1.4 0-1.3-0.6-0.6 0-1.6-0.3-2.3-0.4z"/>
		<path id="map_nuble_limite_Internacional" fill-rule="evenodd" class="map-nuble s2" d="m189.5 139.2l-0.7-1.1c0 0-1.4-2.1-1.8-3.4-0.1-0.5 0.7-1.1 0.3-1.4-0.6-0.5-1.8-0.2-1.7-0.7 0.1-0.4 0-2-0.3-2.7-0.2-0.8 0.1-1.3 0-1.7-0.3-1.1-2.6-4.1-3.8-4.7-0.7-0.4-3.9-1.6-3.9-1.8 0-0.3 0.8-0.7 1.9-1 0.9-0.2 2.1-0.4 2.4-0.2 0.9 0.9 2.4 1.8 3.9 1.1 0.6-0.3 1.1-0.9 1.7-1.1 1.1-0.2 1.5 0.7 2.9-2.1 0.7-1.3 0.6-2.2 0.3-2.9-0.5-1.2 0.4-0.1-1.9-0.1-1.7 0-3.2-0.6-3.5-1.2-0.2-0.5-0.2-1.3 0.4-2.6 0.5-1 1-2.6 1.1-2.8 0.4-0.4 0.9-0.5 0.5-1.5-0.5-0.9-1.3-1.3-2.8-1.2-1.1 0-1.8-0.4-1.9-1.1-0.1-0.4-0.1-2.2 0.4-2.9 1.9 0.2 0.9 0.6 2.6-1.1 1.8-1.8-0.1-4.8 1.9-7.9 0.5-1.3 0.2-0.8 0.2-4.3l-0.2-4.6c1.5 0.5 2.7-1.2 3.2 0.4 0.7 2.6 0.7 4.3 3 3.1 0.6-0.3 1.2-0.9 1.9-1.2 0.7-0.3 2-0.8 2.2-1 1.1-1.4 0.6-2.5-1.4-4.2-1.1-1-1.7-3.2-1.8-4.2-0.1-0.6-1.2-1-1.4-1.3-0.3-0.4 0.6-0.7 0.8-1.9 0.2-1-0.3-2.3-0.5-3.2-0.2-1-0.2-1.7 0.1-2.7 0.2-0.7 0.5-1.4 0.4-2.3-0.1-0.9-0.8-1.9-0.6-2.2 0.2-0.7 0.7-1 1.3-1.4-0.5-1.3-0.5-3.7 0.5-3.7"/>
		<path id="map_nuble_limite_Maule" fill-rule="evenodd" class="map-nuble s0" d="m195.6 58c-0.4-0.6-1.3-1.2-1.9-1.5-0.6-0.6-1.3-0.9-2.1-1-0.6 0-0.7-0.7-0.8-1.3-0.1-0.4-0.1-0.8 0.1-1.2 0.3-0.6 0.3-0.5-0.3-0.8-0.3-0.1-0.2-0.8-0.1-0.9-0.1-0.8 0-0.6 0.1-1.4 0-0.3 0-1.4 0.1-1.7-0.2-0.7-0.5-0.7-0.2-1.5 0-0.3-0.1-1.1 0-1.4 0.2-0.5-0.5-0.9-0.7-0.9-0.8-0.3-1.2-1.1-1.9-1.4-0.3-0.1-0.8 0-1.1 0-0.8 0.1-1.2-0.6-1.7-1-0.2-0.2-0.1 0.5-0.3 0.6-0.5 0.1-1.1-0.2-1.1 0.4-0.3 0.4-0.8 0.8-1.2 1.2-1.4 0.4 0.3 1-0.9 2.3-0.3 0.4-0.5 0.7-0.5 1.1 0 0.3-1.1-0.1-1.1-0.1-0.3-0.2-0.8 0.2-1.1 0.2-0.8 0-1.2 0.6-1.6 1.2-0.4 0.7-0.4 1-0.6 1.7 0 0.3-0.1 1.3-0.1 1.5-0.3 0.7-1 1.3-1.7 1.6-0.8 0-0.9 0.9-1.4 1.5-0.8 0.5-1.4 0.1-2.1-0.5-0.3-0.2-0.8-0.3-0.9-0.7-0.1-0.4-0.9-1.1-1.2-1.3-0.6-0.3-0.6 0.6-1.3 0.8-0.2 0.8-0.3 1.2-1 1.8-0.6 0.5-0.4 1.3-0.4 2-0.2 0.5-0.9 0.6-1.4 0.9-0.5 0.6 0 1.5-0.4 2.2-0.7 1.2-0.2 2-0.9 3-0.2 0.4-0.6 0.7-0.7 1.1-0.1 0.6 0.1 0.9-0.2 1.2-0.5 0.5-1.1 0.2-1.7 0-0.1 0 0.4-0.7 0-1-0.3-0.1 0-0.6-0.2-0.8-0.5-0.5-0.3-1.4-0.9-1.8-0.7 0-1.8-0.1-2-0.3-0.8-0.1-1.6 0-2.4 0-0.6-0.3-1-1-1.3-1.5-0.4-0.4-0.5-0.5-0.8-0.7-0.1-0.1 0-1.3 0-1.4-0.6-1.3-1.7-1.6-1.6-3.1 0.1-0.7-0.7-0.5-0.5-1.1-0.5-1.4 0.2-1.2-0.3-1.7-0.4-0.3-0.6-0.5-0.8-0.8-0.5-0.7-1.2-1.2-1.8-1.8-0.2-0.2-0.5-0.5-0.8-0.5-0.9-0.2-1.2 0.1-1.3 0.5 0 0.3-0.5 0.5-1.9 0.5-0.5-0.4-0.6-0.8-1.2-1.1-0.3-0.4-1.2-0.2-1.6-0.2-0.6 0-1.1-0.6-1.6-0.7-0.7 0-1.5-0.1-2.3 0.1-0.9 0.3-1-0.2-1-0.7-0.7-0.5-1.4-0.8-2-1.3-0.4-0.2-0.6-0.1-1.1-0.2-0.4-0.1-0.5-0.7-1.1-0.6-0.5 0.1-0.8-0.7-0.9-1-0.8-0.8-2.1-0.2-3.2-0.4-0.8-0.4-1.2-0.2-1.6-0.4-1-0.5-1.8-1.2-2.8-1.8-1-1.1-2.8-1.1-3.3-2.8-0.1-0.1-1-0.3-1.3-0.3-0.5 0-0.5-0.2-1-0.2-0.5 0-0.9-0.3-1.1-0.6-0.1-0.3 0-1-0.6-1.2-0.3-0.5-1.2-0.6-0.7-1.3-0.2-0.2-0.7-0.2-0.9-0.4-0.4-0.4-1-0.5-1.2-1-0.1-0.4 0.2-1.2 0-1.3-0.3 0-1.3-0.3-1.2-0.8 0-0.3-0.3-0.8-0.4-1-0.4-0.5-1.1-0.8-1.7-0.8-0.4 0-0.6-0.4-0.9-0.6-0.6-0.4-1.2 0.2-1.8 0.3-0.4-0.4-0.1-0.7-0.6-0.9-0.4 0-1.2 0-1.6 0.1-0.4 0.1 0.1 0.3 0.5 0.5 0.2 0.5-0.7 0.6-1.2 0.8-1-0.3-1.6 0.6-2.4 0.7-0.9 0.9-0.9 1.2-1.8 0-0.6-0.5-1.4-0.3-2-0.6-1.5-1.3-0.6 1.9-1.7-0.6-0.1-0.4-0.2-0.3-0.9-0.3-1.2 0.4 0.4 2.5-1.7 0.8-0.3-0.6-0.9-0.4-0.2-1 0.2-0.3 0.3-0.9 0.3-1 0-0.4-1.1 0.4-1.5 0.4-0.4-0.4-0.5-1.4-0.7-2 0-0.5-0.2-0.6-0.4-0.9-0.2-0.4 0.5-0.3 0.8-0.5 0.4-0.7-0.2-1.4-0.9-1.6-0.5 0-0.6 0.5-1.1 0.1-0.2-0.2-0.2-0.7-0.2-1.1 0-0.4-0.3-0.6-0.6-0.7-0.4-0.2-1-0.5-0.8-0.9 0.4-0.7 0.1-1.1-1.1-0.8-0.4 0.1 0.1-0.7-0.2-1-0.2-0.3-0.9 0-1.1-0.2-0.2-0.5-0.2-0.5-0.6-1.2-0.3-0.4-0.2-0.4-0.8-0.3-0.3 0.1-0.8 0-0.8 0-0.7-0.1-0.2-0.5 0-0.7-0.2-0.5-0.7-0.9-1-1.4 0.1-0.8 1.1-0.9 0.1-1.5-0.1 0-0.5 0.2-1 0-0.4-0.2-0.5 0.6-0.7 0.8-0.4 0.2-0.3 0.7-0.8 0.2-0.4-0.4 0-0.4 0-0.9-0.1 0-0.7 0-0.8 0-0.4-0.1-0.5 0.6-0.4 0.7 0.1 0.4 0.7 0.6 0.9 0.9 0.2 0.2 0.3 0.5 0.4 0.8 0.3 0.9 0.1 1.4-0.3 2.2-0.3 0.4 0.1 1.3-0.5 1.1-0.4-0.1-0.5 0.5-0.4 1 0.1 0.2-0.6 0.2-0.8 0.3-0.2 0.2-0.1 0.8-0.2 1.1-0.2 0.3-0.8 0-0.6 0.5 0 0.2-0.1 0.9 0 1.2 0 0.8-0.5 0.7-0.3 1.5 0.1 0.4 0.4 0.6 0.4 1 0 0.3-0.6 0.3-0.8 0.3-0.3 0.1-0.2 0.7 0 0.8 0.6 0.4 0.4 0.4-0.1 0.8-0.4 0.2-0.2 0.6-0.3 1.1 0 0.2-0.7 0.2-0.9 0.3-0.4 0.3-0.7-0.3-0.7-0.7 0-0.4-0.3-0.7-0.6-0.8-0.5 0-1.1-0.4-1.1-0.5 0.2-0.3-0.8-0.4-1.3-0.4-0.6 0 0.1-0.9-1.1-0.8-0.4 0.1-0.2-0.7-1.4-0.7-0.3 0.1-0.6-0.8-0.8-0.5-0.2 0.3 0 1.1-0.7 0.7-0.3-0.1-0.2-0.7-0.1-0.9 0.2-0.3-1.4-0.2-1.6-0.2-0.4 0-0.1 1-0.3 0.7 0 0-0.5-0.1-0.4 0.8 0.1 0.2-0.4 0.4-0.5 0.6-0.1 0.3-0.2 0.9-0.5 1.1-0.2 0.1-0.2 1.1-0.5 1.2-0.7 0.4-0.4 0.9-0.6 1.1-0.3 0.5-0.3 0.6-0.7 1-0.2 0.2-0.1 0.6-0.1 0.9-0.1 0.4-1-0.1-1.3-0.3-0.2-0.3-0.1-0.8-0.4-1-0.2-0.2-0.9 0.1-1.1-0.3-0.1-0.3-0.5-1.2-0.7-1.3-0.5-0.2-0.3-0.7-0.7-0.8-0.2-0.1-1.1 0-1.4 0-0.3 0-0.5 0.2-0.8 0.2q-0.6 0.1-1 0.6c-0.3 0.4-0.8 0-0.9 0.6-0.1 0.5-0.6 0.3-0.8 0.6-0.3 0.2-0.5 0.3-0.7 0.5-0.3 0.4-0.2 0.4-0.3 0.8 0 0.2-0.5-0.4-0.9-0.6-0.6-0.2-0.6-0.5-0.9-0.8-0.4-0.3-0.4-0.5-0.3-0.9 0.1-0.3-0.4-1-0.5-1.1-0.2-0.5-1-0.1-1.1-0.5-0.2-0.7-0.9 0-0.7-0.8 0.4-0.6-0.4-0.7-0.1-1.4 0-0.3 0.9-0.2 1.2-0.2 0.6 0 0.9 0.3 1.4 0.4 0.5 0.1 1.5 0.1 1.5 0.1 0.4 0.1 0.5 0.5 0.9 0.6 0.3-0.3 0.4-0.7 1.1-0.9 0.3-0.4 0.6-0.2 0.7-0.5 0.1-0.5 0.7 0 0.7-0.4 0-0.5-0.1-0.7 0.1-1-0.1-1.6 0.4-1.7 0.1-2.3-0.3-0.3-0.3-0.4-0.7-0.8-1.3-0.4-1.3-1.5-2.1-1.5-0.5 0.4-0.9 1.3-1.6 1.2-0.5 0.2-1 0.4-1.4 0.7-0.9 0.1-1.7 0-2.5-0.4-0.6-0.4-0.7-1.2-1.3-1.8-0.6-0.2-1.3 0-1.9-0.2-0.2-0.1-0.1-0.7-1.2-0.4-0.8-0.3-1.3-0.3-1.9 0.1-0.3 0.3-1.1-0.3-1.3-0.4-0.4-0.4-0.6-0.1-1-0.5-0.2-0.3-0.5-1-0.3-1.2 0.8-0.3 0.8-0.8 1-1.5 0.2-0.7-0.6-0.8-0.2-1.8 0-0.5-0.4-1.1-0.8-1.5-0.4-0.5 0.3-0.1 0.2-1.7 0-0.1 0.7-0.5 0.8-0.6 0.2-0.2-0.1-1-0.2-1.1-0.7-0.2-1.5 0.1-2.1 0.5-0.4 0.5-1.2-0.5-1.8-0.7-0.5-0.4-0.5 0-0.9 0-0.4 0.1-0.5 0.5-1.1 0.5-0.8 0-1.5 0.1-2.8-0.1-0.2 0-0.9 0.4-1.1 0.6-0.1 0.1-0.7-0.4-0.9-0.6-0.2-0.2 0.8-0.1 0.7-1-0.1-0.5-0.8-0.3-1-0.3-0.3 0-0.5-0.4-0.6-0.5-0.2-0.4-0.2-0.4-2.1-0.5-0.4-0.7-0.3-1.1 0-1.9 0.1-0.9-1-0.5-1.2-1.5 0-0.3-0.8-0.5-0.9-0.7-0.8-0.6-0.7-0.5-0.7 0.3-0.2 0.7 0.1 1.2-0.4 1.7-0.3 0.4-0.6 0.5-0.2 1 0.1 0.2-0.2 0.8-0.6 0.2-0.2-0.5-0.3-0.7-0.6-1-0.1-0.1 0.3-0.7-0.3-0.8-0.8 0-1.1 0-1.2-0.2 0.1-0.8-0.6-1.2-1.3-1.1-0.3 0.9-0.8 0-1.6-0.3-0.3 0.7-0.3 1.3-1.3 0.9 0 0-0.3-0.9-0.6-0.8-0.7 0.2-1.4 0-1.3-0.6-1.1 0-3.3-1-3.1 0.1-0.7 1.2-1.3 0.6-1.7 1.1-0.2 0.3-0.7 0.6-1 0.7-0.4 0.2-0.9 0.2-1.3 0.2"/>
		<path id="map_nuble_limite_biobio" fill-rule="evenodd" class="map-nuble s0" d="m1 57.4q0 0 0 0c0.1 0.1 0.3 0.2 0.4 0.2q0.2 0 0.4 0.1 0.1 0.1 0.1 0.3c-0.1 0.1 0 0.7 0.1 1.2q0 0.3 0.1 0.6 0.1 0.1 0.2 0.1 0 0 0.1 0c0.1-0.2 0.3-0.4 0.5-0.5q0.1-0.1 0.2-0.1 0.1-0.1 0.1 0c0.1 0.2 0.2 0.4 0.4 0.5 0.1 0 0.3 0.1 0.6 0.1 0.2 0 0.4-0.1 0.6-0.2 0.2 0 0.4-0.1 0.6 0 0.3 0.1 0.5 0.2 0.7 0.3q0.1 0.1 0.3 0.2 0.2 0 0.4 0 0.2 0 0.4-0.1 0.1 0 0.2-0.2c0.1-0.1 0.3-0.3 0.5-0.3 0.4-0.1 0.5-0.3 0.7-0.4q0.1 0 0.2 0.1 0.2 0 0.5 0.3l-0.2 3.2 0.9 1.5c0.1 0 0.1 0 0.1 0-0.1-0.1-0.1-0.1 0 0.1q0.3 0.2 0.3 0.4-0.1 0.1-0.2 0.3-0.1 0.1-0.1 0.2-0.1 0.1 0 0.1 0.3 0.3 0.4 0.4 0.1 0.1 0 0.1 0 0-0.2 0.1-0.1 0-0.2 0.2c0 0.1 0 0.4-0.2 0.5q0 0.1-0.2 0.2-0.1 0-0.4-0.1-0.1-0.1-0.3-0.1-0.1 0-0.2 0.1c-0.1 0.1-0.2 0.3-0.4 0.5 0 0.1-0.2 0.3-0.3 0.5-0.1 0.2-0.1 0.5-0.1 0.6 0 0.3 0.2 0.5 0.3 0.6 0 0.2 0.1 0.4 0 0.6 0 0.1-0.1 0.3-0.2 0.5q0 0.2 0 0.3 0.1 0.1 0.2 0.2c0.1 0 0.4 0.1 0.7 0.3q0.2 0.1 0.4 0.2 0.1 0.2 0.1 0.3 0 0.2 0.1 0.3 0.1 0.1 0.2 0.2c0.2 0.2 0.4 0.2 0.5 0.4 0.3 0.2 0.4 0.3 0.5 0.4 0.1 0.1 0.1 0.2 0.1 0.5 0 0.2 0.1 0.5 0.2 0.7 0.2 0.2 0.3 0.4 0.2 0.4q-0.2-0.1-0.3-0.1v3.9c0.1 0.1 0.2 0.2 0.3 0.3q0.1 0.1 0.3 0.1 0.3 0.2 0.6 0.3 0.4 0 0.8 0c0.3-0.1 0.5-0.2 0.6-0.3 0.1 0 0.3-0.1 0.6-0.1q0.4 0 0.5 0.1 0 0.2-0.2 0.4c-0.3 0.3-0.4 0.7-0.7 0.9-0.2 0.3-0.3 0.4-0.2 0.4 0 0 0.2 0.1 0.4 0.2 0.3 0.1 0.5 0.2 0.7 0.3 0.2 0 0.4 0 0.7-0.1 0.2-0.1 0.3-0.3 0.5-0.3q0.1-0.1 0.3-0.1 0.1 0 0.3 0.1c0.2 0.1 0.4 0.2 0.6 0.3q0.2 0.1 0.4 0.1 0.1 0 0.2-0.1c0.1-0.2 0.3-0.4 0.5-0.5q0 0 0 0m0 0c0.1-0.1 0.2-0.1 0.2 0q0.1 0 0.2 0.4c0.1 0.2 0.1 0.4 0.1 0.7 0 0.2 0 0.5-0.1 0.6-0.1 0.2-0.3 0.5-0.4 0.7q0 0.2 0 0.3 0 0.2 0 0.3c0.3 0.3 0.5 0.6 0.8 0.9 0.1 0.1 0.2 0.3 0.4 0.5q0.1 0.1 0.2 0.1 0.2 0.1 0.4 0 0.5-0.1 0.9-0.3 0.5-0.1 0.9-0.1c0.2 0 0.5-0.1 0.7-0.1q0.2 0 0.4 0.1 0.2 0 0.3 0.1c0.1 0.2 0.3 0.3 0.5 0.5 0.2 0.2 0.4 0.4 0.5 0.5q0.1 0.3 0.3 0.4 0.1 0.2 0.3 0.2c0.2 0.1 0.5 0.2 0.8 0.2 0.1 0 0.4-0.1 0.7-0.1q0.2 0 0.3 0 0.1 0.1 0.1 0.2 0 0.2 0 0.3 0.1 0.2 0.2 0.3c0.1 0.2 0.3 0.4 0.4 0.6 0.1 0.1 0.3 0.3 0.5 0.5 0.2 0.2 0.4 0.4 0.5 0.4 0.3 0 0.5 0 0.7 0 0.2 0.1 0.4 0.1 0.7 0.3 0.2 0.1 0.4 0.1 0.5 0.2q0.2 0.1 0.2 0.2 0.1 0.1 0.1 0.4c0 0.3 0 0.5 0.1 0.7 0.1 0.2 0.3 0.4 0.5 0.6 0.1 0.1 0.2 0.4 0.3 0.7 0 0.2 0 0.4 0.1 0.5q0.1 0.1 0.2 0.3c0.3 0.1 0.4 0.2 0.5 0.4q0.2 0.2 0.2 0.6c0 0.3 0 0.7 0.1 1q0 0.1 0 0.2m0 0c0.1 0 0.1 0.1 0.1 0.1q0.1 0.1 0.1 0c0.1-0.1 0.4-0.2 0.7-0.3q0.2 0 0.3 0 0.2 0 0.1 0.2c0 0.1-0.3 0.3-0.5 0.5q-0.2 0.2-0.3 0.3-0.1 0.2-0.1 0.3 0.1 0.1 0.3 0.2 0.2 0.1 0.4 0.1 0.2 0 0.3 0.1 0.2 0 0.1 0.1-0.1 0.2-0.3 0.4-0.2 0.3-0.2 0.5c-0.1 0.4-0.4 0.8-0.6 1.2-0.1 0.2-0.3 0.4-0.5 0.5q-0.1 0.2-0.2 0.3 0 0.1 0.1 0.2c0.1 0.1 0 0.1 0.2 0.3q0.2 0.2 0.4 0.5 0.2 0.3 0.2 0.6c0 0.2 0 0.5 0.1 0.8 0 0.3 0.1 0.6 0.2 0.7 0.1 0.1 0.3 0.3 0.4 0.4 0.1 0.2 0.1 0.4 0 0.7-0.1 0.4-0.1 0.6-0.3 1.1 0 0.3-0.1 0.5-0.1 0.6q0 0.1 0.1 0.2 0.1 0.1 0.3 0.1 0.3 0.1 0.4 0.2 0.1 0.1 0.2 0.2c0.1 0.1 0.2 0.3 0.4 0.6q0.2 0.2 0.3 0.3 0.2 0.1 0.4 0.1c0.2 0.1 0.4 0.2 0.6 0.3 0.3 0.4 0.7 0.6 1 0.8 0.2 0 0.4 0.2 0.6 0.4q0.1 0.2 0.2 0.3 0.2 0.1 0.3 0.1c0.2 0 0.6 0 0.8 0.1q0.2 0.1 0.2 0.2 0 0.2-0.3 0.3-0.2 0.1-0.5 0.1-0.3 0.1-0.7 0.1c-0.4 0-0.6 0-0.7 0.1-0.2 0-0.2 0.2-0.3 0.5q0 0.2-0.2 0.3-0.1 0.1-0.3 0.2-0.1 0.1-0.2 0.2-0.1 0.1-0.1 0.3 0.1 0.3 0.2 0.6 0.2 0.4 0.4 0.7c0.2 0.2 0.4 0.3 0.5 0.5q0.1 0.3 0.1 0.6c0 0.3-0.1 0.5-0.2 0.6-0.1 0.1-0.2 0.2-0.3 0.4q0 0.2-0.1 0.3-0.1 0.1-0.2 0.2c-0.2 0.1-0.4 0.1-0.7 0.1h-1.4q-0.3 0-0.7 0-0.4 0-0.7 0c-0.2-0.1-0.4-0.3-0.7-0.4q-0.2-0.1-0.4-0.2-0.2-0.1-0.4-0.1-0.3 0-0.7 0.1-0.3 0-0.6-0.1c-0.2 0-0.7-0.6-0.8-0.6-0.1 0.1-0.3 0.2-0.5 0.3-0.3 0.1-0.5 0.3-0.5 0.5q-0.1 0.1-0.3 0.2-0.2 0.1-0.4 0.2-0.2 0-0.3 0.1-0.2 0.1-0.1 0.2c0 0.2 0.2 0.4 0.4 0.7q0.1 0.2 0.2 0.3 0 0.2 0 0.4 0 0.1-0.2 0.2-0.2 0.1-0.3 0.2-0.2 0.1-0.3 0.2-0.1 0.1 0 0.2 0.2 0.2 0.4 0.4 0.1 0.2 0.2 0.4c0.3 0 0.5 0 0.9 0.1 0.6 0 1.4 0.1 1.9 0.3 0.6 0.1 1.2 0.2 1.9 0.2 0.6 0 1.2 0 1.8 0.2 0.7 0.1 1.1 0.4 1.4 0.4q0.3 0.1 0.5 0 0.3-0.1 0.6-0.4 0.1-0.2 0.3-0.3 0.2 0 0.3 0 0.4 0 0.7 0.1c0.4 0.3 0.7 0.6 0.8 0.7q0.2 0.2 0.5 0.2 0.3 0 0.6-0.1 0.4-0.1 0.7-0.1 0.3-0.1 0.5 0 0.2 0.1 0.3 0.3 0.1 0.1 0.2 0.2c0 0.2 0 0.4 0 0.5q0 0.1 0.1 0.1 0 0.1 0.1 0c0-0.1 0.2-0.3 0.5-0.7q0.3-0.4 0.5-0.9 0.1-0.6 0.3-1.2 0.1-0.4 0-0.6c-0.1-0.2-0.2-0.3-0.2-0.4q-0.1-0.2-0.1-0.5 0-0.2 0.3-0.6c0.3-0.5 0.4-0.7 0.7-1h2l1.1 2.3 1.2-1.3 1.3 1.1-1.7 1.4 0.4 1 0.8-1 3.1 0.6 0.2 0.9 0.9-0.4 0.2-1.5q0.4-0.2 0.8-0.4c0.5-0.3 0.8-0.3 0.9-0.5m0.2-0.5c0.2 0.1 0.5 0.2 0.8 0.4 0.4 0.2 0.8 0.4 1.1 0.7q0.2 0.3 0.3 0.5 0.2 0.3 0.2 0.6c0 0.4 0 0.6 0.1 0.8 0.1 0.1 0.2 0.2 0.3 0.3 0.1 0 0.3 0.1 0.4 0.2 0.1 0.2 0.2 0.4 0.3 0.8 0.1 0.4 0.3 0.8 0.6 1.2 0.2 0.4 0.4 0.8 0.6 1.1q0.2 0.4 0.4 0.5 0.2 0.2 0.5 0.4 0.2 0.1 0.5 0.4 0.2 0.3 0.3 0.8 0.1 0.5 0.4 0.7 0.2 0.1 0.5 0.1c0.4 0 1-0.2 1.6-0.2q0.3 0 0.6 0.2 0.3 0.1 0.6 0.3 0.3 0.2 0.7 0.4 0.4 0.2 0.8 0.3c1 0.2 1.9 0.3 2.9 0.6 0.5 0.1 1 0.3 1.4 0.5 0.5 0.3 1 0.6 1.3 0.8 0.4 0.3 0.8 0.6 1.2 1 0.4 0.3 0.7 0.5 1.2 0.8q0.3 0.1 0.6 0.2 0.3 0.1 0.6 0.1m0.2 0c-0.1 0.2-0.1 0.3-0.1 0.4q0 0.3 0.2 0.5 0.2 0.3 0.4 0.7 0.2 0.3 0.4 0.6 0.2 0.3 0.2 0.5 0 0.6-0.2 0.8c0 0.2-0.2 0.3-0.3 0.3q-0.2 0.1-0.5 0.3-0.3 0.1-0.6 0.4c-0.3 0.3-0.7 0.5-0.9 0.7q-0.3 0.2-0.5 0.3-0.2 0.2-0.3 0.5-0.3 0.6-0.4 0.9c-0.1 0.1-0.2 0.2-0.3 0.2-0.2 0.1-0.5-0.1-1.2-0.1q-0.3 0-0.5 0.1-0.2 0.1-0.4 0.2c-0.3 0.2-0.5 0.4-1.1 0.7q-0.4 0.2-0.7 0.4l0.5 1.7-1.7 2.3 1 0.4 0.3 3.1h-0.9l0.4 1-1.4 0.3 1 5.3c0.4-0.2 0.7-0.5 0.9-0.6 0.5-0.2 1-0.3 1.4-0.4q0.3-0.1 0.5-0.3 0.2-0.1 0.3-0.5 0-0.1 0.1-0.2 0.1-0.1 0.2-0.1 0.3-0.1 0.8-0.1c0.5 0 1.1 0 1.4 0q0.3 0 0.6 0.2 0.3 0.1 0.5 0.2c0.4 0.2 0.8 0.5 1 0.6q0.4 0.2 0.8 0.4 0.4 0.2 0.7 0.3 0.3 0.1 0.5-0.1 0.3-0.1 0.5-0.6 0.1-0.1 0.2-0.2 0.1-0.1 0.3-0.1 0.3-0.1 0.7 0 0.4 0 0.7 0 0.4-0.1 0.6-0.3c0.4-0.3 0.5-0.6 0.8-0.8q0.2-0.2 0.5-0.3 0.3 0 0.9 0 0.3 0 0.6-0.2 0.3-0.1 0.6-0.2c0.4-0.2 0.6-0.4 0.7-0.4q0.2-0.1 0.3-0.1 0 0.1 0 0.3 0 0.2 0 0.4 0.1 0.3 0.3 0.6 0.1 0.1 0.4 0.3 0.3 0.1 0.7 0.2c0.5 0.1 1 0.2 1.2 0.2 0.5 0 1.1 0.1 1.7 0.2 0.1 0 0.2 0 0.3 0.1 0-0.3 0.1-0.5 0.1-0.8 0.2-0.4 0.3-0.8 0.4-1.2 0.1-0.2 0-0.4-0.1-0.5-0.1-0.2-0.2-0.3-0.3-0.5q0-0.1 0-0.1 0-0.1 0.1-0.2c0.1 0 0.3-0.1 0.7-0.1 0.5 0 1 0 1.5 0.1 0.4 0 0.9 0 1.2 0.1 0.2 0.1 0.7 0.5 1.2 0.9 0.4 0.4 0.9 0.9 1.1 1.1 0.5 0.4 0.8 0.7 1.1 0.9q0.2 0.1 0.4 0.1 0.2 0 0.4-0.1 0.4-0.1 0.5-0.2 0.2-0.1 0.4-0.2 0.2-0.2 0.5-0.3 0.3 0 0.8 0c0.5 0 0.9 0.1 1.3 0.1q0.2 0.1 0.5 0 0.3-0.1 0.7-0.3c0.4-0.3 0.6-0.5 0.9-0.6 0.3-0.1 0.5-0.3 0.8-0.6q0.1-0.1 0.4-0.1 0.4 0 0.7 0.1c0.6 0 1.1 0.1 1.2 0q0.4-0.2 0.8-0.3 0.3-0.1 0.7-0.1 0.3-0.1 0.5-0.2 0.3-0.1 0.6-0.4c0.2-0.2 0.5-0.4 0.8-0.6 0.3-0.2 0.6-0.4 0.9-0.5 0.5-0.3 0.8-0.5 1-0.7 0.2-0.2 0.3-0.4 0.5-0.9q0.2-0.3 0.2-0.6 0.1-0.4 0.1-0.7 0-0.4 0-0.7 0-0.3 0.1-0.5c0.3-0.5 0.3-0.8 0.5-1q0-0.2 0.2-0.3 0.2-0.1 0.7-0.2 0.2-0.1 0.5-0.3 0.2-0.2 0.4-0.4c0.3-0.3 0.5-0.6 0.8-0.7q0.4-0.2 0.8-0.2 0.5-0.1 1-0.1c0.7 0 1.3 0.1 1.9 0.1q0.5 0 0.9 0.2 0.5 0.2 0.9 0.5c0.6 0.3 1.2 0.7 1.7 0.9q0.2 0.1 0.5 0.1 0.3 0 0.5-0.1c0.4-0.1 0.8-0.3 1.1-0.4q0.1-0.1 0.3 0 0.2 0 0.4 0.2c0.2 0.2 0.5 0.5 0.7 0.8 0.5 0.7 1 1.5 1.1 1.7q0.3 0.3 0.6 0.4 0.3 0.1 0.6 0 0.4-0.2 0.6-0.4 0.2-0.2 0.3-0.4 0.2-0.3 0.4-0.5 0.2-0.2 0.3-0.3c0.3-0.1 0.6-0.1 1.1-0.4q0.2-0.1 0.6-0.1 0.4 0 0.8 0.1c0.6 0 1.2 0.2 1.5 0.2q0.4 0.1 0.8 0.1 0.3 0 0.6-0.1 0.3-0.2 0.5-0.3 0.2-0.2 0.4-0.4 0.1-0.2 0.4-0.3 0.3-0.1 0.6-0.1c0.5-0.1 1 0 1.5 0 0.3 0 0.6 0.1 0.8 0.2 0.2 0.1 0.3 0.3 0.4 0.4q0.3 0.2 0.5 0.3 0.2 0 0.4 0 0.2 0 0.4-0.2c0.1 0 0.1-0.2 0.1-0.4-0.1-0.2-0.1-0.5-0.2-0.8-0.2-0.6-0.5-1.3-0.5-1.5 0-0.3 0.2-0.6 0.3-1 0.2-0.4 0.3-0.9 0.3-1.3 0-0.1 0.3-0.5 0.5-0.8 0.3-0.4 0.6-0.8 0.7-0.9q0.2-0.4 0.2-0.7 0-0.2 0-0.4c-0.1-0.3-0.4-0.5-0.6-1q-0.1-0.2 0-0.5 0.1-0.2 0.3-0.5 0.2-0.3 0.3-0.6 0.2-0.3 0.2-0.6c0-0.1-1.4-1.7-1.6-2.1-0.2-0.5-0.5-0.8-0.7-1.1q-0.1-0.2-0.2-0.5c0-0.1 0-0.3 0-0.4m-0.4-0.1q0.5 0.2 0.9 0.3 0.5 0.1 0.8 0.1 0.2-0.1 0.4-0.2 0.3-0.1 0.6-0.2c0.3-0.2 0.7-0.5 0.9-0.6q0.3-0.1 0.6-0.1 0.4-0.1 0.8 0c0.6 0 1.2 0.1 1.5 0.1 0-0.1 0.3-0.1 0.6-0.1 0.2 0 0.6 0.1 1 0.3q0.3 0.1 0.5 0.3 0.2 0.1 0.4 0.4 0.1 0.2 0.2 0.4 0 0.3-0.2 0.6-0.1 0-0.1 0.1 0 0.1 0.1 0.2c0.1 0.2 0.3 0.4 0.5 0.6 0.4 0.5 0.9 0.8 0.9 0.9q0.2 0.2 0.4 0.4 0.1 0.3 0.2 0.6c0.1 0.4 0.2 0.8 0.4 1.3q0.1 0.3 0.3 0.6 0.2 0.3 0.5 0.5c0.5 0.3 1 0.6 1.5 0.8 0.5 0.3 1 0.4 1.4 0.6q0.3 0.2 0.6 0.3 0.2 0.2 0.5 0.5 0.2 0.1 0.3 0.1 0.1 0.1 0.3 0c0.2-0.1 0.3-0.3 0.5-0.5 0.2-0.5 0.4-1.1 0.4-1.2q0.1-0.2 0.2-0.3 0.1-0.1 0.3-0.1c0.2 0 0.5 0 0.8 0 0.2 0.1 0.6 0.1 0.9 0.1q0.4 0.1 0.7-0.1 0.3-0.1 0.6 0 0.3 0.2 0.7 0.4 0.3 0.2 0.7 0.4 0.4 0.2 0.7 0.2 0.6 0 0.9 0.1 0.4 0 0.6 0.2 0.3 0.2 0.5 0.4 0.2 0.3 0.4 0.6 0.2 0.4 0.4 0.6c0.1 0.1 0.3 0.1 0.5 0.2 0.1 0.1 0.3 0.2 0.4 0.4q0.3 0.2 0.4 0.8 0 0.1 0.1 0.2 0.2 0.1 0.3 0.1 0.3 0 0.7 0 0.5-0.1 0.9-0.2c0.2 0 0.5 0 0.7 0.1q0.6 0.3 0.8 0.4 0.3 0.1 0.5 0.1 0.1 0 0.3-0.2 0.2-0.2 0.5-0.5 0.1-0.1 0.3-0.1 0.1 0 0.3 0.1c0.2 0.1 0.4 0.3 0.6 0.4q0.4 0.1 0.8 0.1 0.4 0 0.7-0.1c0.5-0.1 1-0.3 1.2-0.4 0.3-0.2 0.7-0.3 1.2-0.4 0.4-0.1 0.8-0.1 1.1-0.2 0.3-0.1 0.5-0.2 0.6-0.3 0.2-0.1 0.2-0.2 0.3-0.2 0.1-0.1 0.2-0.1 0.4-0.1 0.2 0.1 0.4 0.2 0.8 0.4q0.3 0.1 0.5 0.4 0.2 0.2 0.4 0.5c0.3 0.4 0.6 0.8 0.9 1q0.2 0.2 0.6 0.3 0.3 0 0.8 0c0.5 0 1.1-0.1 1.5-0.1h2.9 1.3"/>
	</g>
</svg>