<svg version="1.2" xmlns="http://www.w3.org/2000/svg" viewBox="0 0 200 250" width="200" height="250" style="width: 50%;height: 50%;">
	<style>
		.map-arica.s0 { fill: none;stroke: #3c3c3c;stroke-width: 1.6 }
		.map-arica.s1 { fill: #ffffff;stroke: #757575; stroke-width: .7 }
		.map-arica.s2 { fill: none;stroke: #757575;stroke-width: 1.8 }
	</style>
	<g id="layer_mapa_arica" class="layer_mapa_comuna">
		<path id="map_arica_camarones" fill-rule="evenodd" class="map-arica s1" data-siglaregion="AP" data-sigla="camarones" data-nombre="Camarones" d="m123.1 172.3c-0.9 0-2.8 1.9-3.2 2.3-1.8 1.3-3.4 0.1-6 2.1-6.6-0.1-9.4 1.1-14.9 4.6-3.2 0.9-13.5 2.8-16.3 4.6-8.6 2.7-6.5 4.6-11.1 4.3-5.7 4.9-9.4 1.7-11.2 3.5-3.4 1-7.3 1.1-10.4 3v5.9l-35.1-11-9.9 2.1c2 0.9 0.4 2.8 0.3 4.8 0 2.1 1.5 2.9 2.1 5.4 0.7 3 2.4 5.2 3.1 8.2 3.1 3.8 0.3 3.5 0.2 6.1 0 1.1 3.1 4.3 3.5 5.2 1.1 2.3 1.7 4.9 2.4 7.5 0.3 1.2-0.1 1.3 1.6 3 1.2 2.2 0.1 5-1.6 6.6 2.7 2-1.5 6.1-1.7 6.7 14.1-7.2 20.5-12.5 27.7-17.1 8.3-1.4 13.4-5 18-8.8 5.3 2.1 11.7-3 17.3-0.3 11.6-4.3 15-2.8 22.5-4.2 8.7-0.6 8.7 0.6 11.7 1.2 5.3-0.1 13-1.7 13.1 1.6 1.4-0.5 2.9-0.2 4.2-0.7 2.7-0.4 3.5 1.9 3.5 4 1.1 3.9 5.8 2.8 8.9 3.3 3.4 1.2 2.9 4.6 5.4 6.8 2-0.5 3.7-2.4 5.7-3.3 3.6-0.8 9.6-3.6 13.1-4 2.3-0.4 6 0.8 7.2-1.6 1-2.2 4.9-3.2 4.5-5.9-2.8-3.2-5.1-6.9-7.3-7.5-1.1-3.1-2.8-5.9-4.2-8.9 0.9-2.7 0.3-4.8 0.2-7 0.8-2.7-0.8-6.2-2.1-8.4-1.4-1.6-2.1-0.6-7.9-1.2-3.2-1.3-6.4 0.5-11.3 3.3-1.9 2.3-5.1 1.9-7.5 0.7-4.4-1.7-4-5.5-4.9-8.5-2.2-1.6-3.3-4.1-5.1-6-0.9-0.9-3.5-2.2-4.5-2.4z"/>
		<path id="map_arica_putre" fill-rule="evenodd" class="map-arica s1" data-siglaregion="AP" data-sigla="putre" data-nombre="Putre" d="m177.7 218.2c-2.8-3.2-5.1-6.9-7.3-7.5-1.1-3.1-2.8-5.9-4.2-8.9 0.9-2.7 0.3-4.8 0.2-7 0.8-2.7-0.8-6.2-2.1-8.4-1.4-1.6-2.1-0.6-7.9-1.2-3.2-1.3-6.4 0.5-11.3 3.3-1.9 2.3-5.1 1.9-7.5 0.7-4.4-1.7-4-5.5-4.9-8.5-2.2-1.6-3.3-4.1-5.1-6-0.9-0.9-3.5-2.2-4.5-2.4 0.4-1.2 0.2-2.6 0-3.9-0.7-1.8-1.4-3.9-2.6-5.5-2.4-2.7-5.4-4.5-8.7-6.2-8.9-5.2-4.4-4.8-5.3-11.2-0.2-2.7 1.8-5-0.4-7.1-1.1-3-4.2-4.7-5.3-7.6-0.5-2.2-2.5-3.6-4.4-4.6-3.2-2.5-0.9-5.2-1.3-7.8-2.1-2.2-4.8-2.1-4.2-5.5 0.9-2.2 3.4-2.7 4.2-4.9 0-4.8 0.3-7.6-0.3-12.4 0-0.6 1.8-1.4 2.3-1.8 1 0.2 2 0.1 3 0.1 1.4 0.1 2.1-0.9 1.4-2.1-1.4-0.6-2.1-1.4-2.7-2.8-0.9-2.1 0.7-3.8 1.6-5.5 0.8-1.5-0.9-2.1-0.9-3.5 0.6-2 0.7-4.1 1.4-6.1 3.7-0.1 8.1-1.1 8.9-3.3 2.7-1.3 6.2-2 9.1-0.7 1.1 0.4 1-0.4 1.7-0.6 2.5 0 5-0.5 7.4 0.2 0.5 0.1 2 1.7 2.1 2 1.9 0.5 3.3-1 6.1-1.4 1.5-0.5 2.7 0 4.7-1.1 2.2-0.2 4.4-0.3 6.5-0.6l1.3-0.3c1 1.5 2.3 2.6 4.1 3.1 1.1-2.7 2.1 5.5 6.1 2.6 5.9 2.5 13 0.5 16 7 4.2 0.8 7.2 5.6 1.4 7.5-1.4 4.9-11.9 6.6-6.1 12.4 0 7.3 12 3.2 8.6 12.2-2.1 3.7 0 5.9 3.2 7.7-4 5.6-1.6 14 1.4 20 5.3 4.3 0.1 13.2 1 19.3-5.7 3.2 3.8 4.4 2.2 9.7 3.7 6.5-1.2 6.1 7.2 18.7 2 4.7 3.4 12.8 3.9 12.3 1.9-2.1-5 4.2-4.5 7.1-0.9-0.2-1.8-0.6-2.4 0.2-0.4 1-0.5 3.7-1.2 3-0.4-0.3-1.5-1.2-3 1.7-4.6-1.1-4.3 4.2-7.8 5.8q-0.5-0.1-1.1-0.2z"/>
		<path id="map_arica_arica" fill-rule="evenodd" class="map-arica s1" data-siglaregion="AP" data-sigla="arica" data-nombre="Arica" d="m1 123.2c5.4-7.4 14.7-7.3 24.9-4.4l7.2-0.2 13.3-7.6h10.8l16-14.4 4.6-6.9 5.5-10.8c1.9 1.3 4.9 2.5 2.3 4.6 0 3-3.3 3 1.6 6.9 2.2 2.1 8.8 0.7 9.9 3.4-0.5 0.4-2.3 1.2-2.3 1.8 0.6 4.8 0.3 7.6 0.3 12.4-0.8 2.2-3.3 2.7-4.2 4.9-0.6 3.4 2.1 3.3 4.2 5.5 0.4 2.6-1.9 5.3 1.3 7.8 1.9 1 3.9 2.4 4.4 4.6 1.1 2.9 4.2 4.6 5.3 7.6 2.2 2.1 0.2 4.4 0.4 7.1 0.9 6.4-3.6 6 5.3 11.2 3.3 1.7 6.3 3.5 8.7 6.2 1.2 1.6 1.9 3.7 2.6 5.5 0.2 1.3 0.4 2.7 0 3.9-0.9 0-2.8 1.9-3.2 2.3-1.8 1.3-3.4 0.1-6 2.1-6.6-0.1-9.4 1.1-14.9 4.6-3.2 0.9-13.5 2.8-16.3 4.6-8.6 2.7-6.5 4.6-11.1 4.3-5.7 4.9-9.4 1.7-11.2 3.5-3.4 1-7.3 1.1-10.4 3v5.9l-35.1-11-9.9 2.1c-0.5-1.4-0.2-2.8-0.2-4.3-0.2-2.6-1.5-0.9-0.1-7.9 3.6-1 1.4-4.4 0.5-6.7 1.7-1 2.4-3.6 1.4-5.7-0.5-2.3-2.8-5.2-0.4-7.1 3.3-3.8-3.2-8-0.8-7.2 2.6-2 3-5.1 4.1-7.8 6-10.6-0.1-16.9-8.5-23.8z"/>
		<path id="map_arica_General_Lagos" fill-rule="evenodd" class="map-arica s1" data-siglaregion="AP" data-sigla="general_lagos" data-nombre="General Lagos" d="m147.4 68.4l1.3-0.3c-2.4-3.6-2.7-9.4-1.1-12.9 3.2-8.1-6.1-12.3-4.8-19.2l-17.2-17.3v-14.5l-26.9 22.1-16.7-2.3-5.8 6.7v7l3.7 2.1v14.7l6.2 10.4 0.2 7.1-3 6.9c1.9 1.3 4.9 2.5 2.3 4.6 0 3-3.3 3 1.6 6.9 2.2 2.1 8.8 0.7 9.9 3.4 1 0.2 2 0.1 3 0.1 1.4 0.1 2.1-0.9 1.4-2.1-1.4-0.6-2.1-1.4-2.7-2.8-0.9-2.1 0.7-3.8 1.6-5.5 0.8-1.5-0.9-2.1-0.9-3.5 0.6-2 0.7-4.1 1.4-6.1 3.7-0.1 8.1-1.1 8.9-3.3 2.7-1.3 6.2-2 9.1-0.7 1.1 0.4 1-0.4 1.7-0.6 2.5 0 5-0.5 7.4 0.2 0.5 0.1 2 1.7 2.1 2 1.9 0.5 3.3-1 6.1-1.4 1.5-0.5 2.7 0 4.7-1.1 2.2-0.2 4.4-0.3 6.5-0.6z"/>
		<path id="map_arica_LÃMITE_INTER" fill-rule="evenodd" class="map-arica s0" d="m193.2 207.7c-0.5-2.9 6.4-9.2 4.5-7.1-0.5 0.5-1.9-7.6-3.9-12.3-8.4-12.6-3.5-12.2-7.2-18.7 1.6-5.3-7.9-6.5-2.2-9.7-0.9-6.1 4.3-15-1-19.3-3-6-5.4-14.4-1.4-20-3.2-1.8-5.3-4-3.2-7.7 3.4-9-8.6-4.9-8.6-12.2-5.8-5.8 4.7-7.5 6.1-12.4 5.8-1.9 2.8-6.7-1.4-7.5-3-6.5-10.1-4.5-16-7-4 2.9-5-5.3-6.1-2.6-5.9-1.7-7.5-11-5.2-16 3.2-8.1-6.1-12.3-4.8-19.2l-17.2-17.3v-14.5l-26.9 22.1-16.7-2.3-5.8 6.7v7l3.7 2.1v14.7l6.2 10.4 0.2 7.1-8.5 17.7-4.6 6.9-16 14.4h-10.8l-13.3 7.6-7.2 0.2c-10.2-2.9-19-2.8-24.3 4.6"/>
		<path id="map_arica_path6551" fill-rule="evenodd" class="map-arica s2" d="m14.9 247.2c14.1-7.2 20.5-12.6 27.7-17.1 8.3-1.4 13.4-5 18-8.8 5.3 2.1 11.7-3 17.3-0.3 11.6-4.3 15-2.8 22.5-4.2 8.7-0.6 8.7 0.6 11.7 1.2 5.3-0.1 13-1.7 13.1 1.6 1.4-0.5 2.9-0.2 4.2-0.7 2.7-0.4 3.5 1.9 3.5 4 1.1 3.9 5.8 2.8 8.9 3.3 3.4 1.2 2.9 4.6 5.4 6.8 2-0.5 3.7-2.4 5.6-3.3 3.7-0.8 9.7-3.6 13.2-4 2.3-0.4 6 0.8 7.2-1.6 1-2.2 4.9-3.2 4.5-5.9q0.6 0.1 1.1 0.2c3.5-1.6 3.2-6.9 7.8-5.8 1.5-2.9 2.6-2 3-1.7 0.7 0.6 0.8-2 1.2-3 0.6-0.8 1.5-0.4 2.4-0.2"/>
	</g>
</svg>