<svg version="1.2" xmlns="http://www.w3.org/2000/svg" viewBox="0 0 200 400" width="200" height="400" style="width: 50%;height: 50%;">
	<style>
		.map-coquimbo.s0 { fill: none;stroke: #757575;stroke-width: 1.3 }
		.map-coquimbo.s1 { fill: #ffffff;stroke: #757575;stroke-width: .7 }
		.map-coquimbo.s2 { fill: none;stroke: #3c3c3c;stroke-width: 1.5 }
	</style>
	<g id="layer_mapa_coquimbo" class="layer_mapa_comuna" data-siglaregion="CO">
		<path id="map_coquimbo_Vicuna" fill-rule="evenodd" class="map-coquimbo s1" data-siglaregion="CO" data-sigla="vicuna" data-nombre="Vicuña" d="m162.3 163l-1.1-2c-0.5-0.9 0.5-2.6-0.5-3.1-0.9-0.5-3.4-1.4-2.6-2.9 0.8-1.6-0.1-0.9-0.5-2.6-0.3-1 0.5-2.3-0.3-3.2-1-1-0.2-1.3-1.1-2.1-0.7-0.8-0.7-2.3-1.5-3.1-0.7-0.7-3.7-0.5-4-1.1-0.8-1.8 0.4-1.7 0.1-3-2.7-2.2-1.9-6.1-4.3-6.7-2.4-0.5 0.5-0.5-0.2-2.3-0.8-2-0.9-2.2-0.3-3.7 0.4-1 3.1-0.9 2.6-1.9-1-1.6-2.6-2.2-4.4-2.6-1.2-0.3-1.9-1-1.9-1.6 0-0.4 0.6-1.9 0.6-2-0.5-1.1-0.7-3.4-1.6-3.1-0.5 0.2-0.8 3.6-3.9 1.2-0.5 0.5-1.7 1.7-2.4 1.3-1.1-0.5-2.7-2-2.9-2.1-1.8-0.7-1.8 0.2-1.8 1.1 0 0.3-1.5 2.2-1.9 2.3-1.2 0.4-3.8-0.2-4.1 1-0.2 1-3.5 0.3-4 0.9-0.2 0.2-1.6 2.4-1.3 3.1 0.5 1 0.6 2.4 1 2.9 1.6 2.1 1.7 1.6 0.8 3.4-0.5 1-0.9 1.4-1.3 2.9-0.4 1.5-0.7 2.1 0.5 3.4 1 1 1.2 1.3 0.8 2.6-0.3 1.4 0.2 1.7-0.8 2.7-0.3 0.3-1.9 1.3-1.5 2.1 0.2 0.4 0.5 2.9-0.6 3.1-3.5 0.8-2.6-0.6-3.4-0.8-1-0.2-3.4 0-4.4 0-2.9 0.1-1.7 1.6-2.9 1.7-1 0-2.1 0.8-3.2 2-0.7 0.8-3.3 0.4-4.2-0.3-2-1.5-0.4-0.1-2.3-0.2-4.6-0.5-4.6 1.4-4.6 1.4-0.1 1-0.2-0.7-2.3-1.3-1.4-0.3-2.1-0.4-3.6-0.4-3.1 0 0-0.5-2.1-1.6-0.7-0.3-2.3-1.1-3.4 0-0.6 0.6 0.8 2.2 0 2.4-1.5 0.3-0.7-1.4-4.5 1-1.3 0.9-2.7-0.9-3.9 0.3-0.5 0.5-2 0.5-1.6-1 0.4-1.5 0.6-0.7-0.2-2.4-0.9-1.7-1.5-1.1 0.2-2.4 1.2-0.9 1.5-1.1-0.1-3.4-0.8-1.2-2.8-2.1-3.8-2.1-0.9-0.1-1.1-0.7-1-1.6 2-1.1 2.7-3.3 4-5-0.3-2.2 1.3-3.8 1.7-5.8-1.3-2 1.8-1.4 1.4-2.8-2.6-2 2-3.1 0.7-5.3-2.6-1.8 1.5-3.5-0.3-5.6 1.9-0.9 2.8-3.7 1.4-5.3-2.1 0-1-1.6 0.2-2.2 2.3-0.8-1.4-2 0.8-2.9 2.2-1 4.5-1.7 6.8-2.1 3-0.5-0.1-3.7 2.1-4.9 1.7-1.9 1.8-2.7 3.8-4.1-0.9-1.9-0.1-3.4 1.9-3.9 0.5-2.1 2.7-1.6 3.8-3.1 1-2.1 4.3-0.8 6.1-2.2 3.8-1.3 5-1.2 4.4-1 2.4-0.8 5.1 1 7.4 0.6 1.6 1.9 4.3 3.6 5.1 0.2 1.2-2.6-3.3-4.2-0.2-6.2 0.1-1.5-0.5-3.4 1.2-4.3 1-1.1 2.6-3.7 1.5-4.8-2.2-1.6 2.7-4.6 1.1-7 3.1-1.1 0.5-3.7 0-5.1 3.6-2.3-2.5-5.2-0.3-8.1 1.1-2.7 2.4-5.9 5.3-6.7 1.3-1.2 1.9 0.6 2.2 1.3-1.8 2.6 9.8 9.8 8.9 2.8 5.2-2.6 10-0.4 13 3.9 2.9 3.9 5.5 8.1 8.1 12.5 2.7-0.8 4.6 3.3 6.7 0.8 5.6 2.4 10.5-2.7 15.7-2.6 2.3-0.4 0.7 2.5 1 4 0.3 1.4 1.3 1.4 1.9 2.8 0.8 1.8 0.2 3.7-0.1 7-0.5 4.8-0.8 5.1 4.2 9.3 1.7 1.6 3.8 4.5 1 8.5-3 4.4-2.6 5.2-0.7 4.7 0.8-0.2 0.1 3.1 0.1 4 0 0.9 1.8 2.2 1.4 2.5-0.2 0.2-0.7 5.5-2.7 8.3-0.7 1 3.5 2 0.2 5.1-1.4 1.3-1.8 3.6-1.4 5.3 0.5 2.2-1 4.3-2.2 5.8-2.1 2.4-3.4 0.6-0.9 3.8 0.5 0.5-1.6 5.9 3.9 1.3 1.6-1.4 4.4-0.1 4.6 0.9 0.3 1.3 2.5 2.9 4.1 1.9 2.2-1.3 3.7 4.1 1.3 4.1-1.9 0.1-1.3 1.7-0.8 2.7 0.3 0.7-0.6 2.6-1.4 4-1 2-3.1 0.6-4.5 0.8-1.5 0.2-0.2 3.4 0 4.7 0.1 0.8-0.9 1.9-1.5 3.1-1.8 4-1 5.1 0.1 6.9 1.4 2-0.5 1.7-3.1 1.7-0.8 0-2.8 3-4 4.1-1.6 1.7-1.3-0.2-2.9-0.5-1.2-0.2-3.4 1.4-3.7 1.8-0.6 1.1-4.4-0.1-5.5-1.2-0.5-0.4-2.3-3-3.4-3.9-2.3-0.8-3.4-1-3.8-0.8z"/>
		<path id="map_coquimbo_La_Higuera" fill-rule="evenodd" class="map-coquimbo s1" data-siglaregion="CO" data-sigla="la_higuera" data-nombre="La Higuera" d="m128.7 42.9c-0.6-1.4-1.3-2.1-2.2-1.3-2.9 0.8-4.2 4-5.3 6.7-2.2 2.9 3.9 5.8 0.3 8.1 0.5 1.4 3.1 4 0 5.1 1.6 2.4-3.3 5.4-1.1 7 1.1 1.1-0.5 3.7-1.5 4.8-1.7 0.9-1.1 2.8-1.2 4.3-3.1 2 1.4 3.6 0.2 6.2-0.8 3.4-3.5 1.7-5.1-0.2-2.3 0.4-5-1.4-7.4-0.6 0.1-2.6-0.4-6.7-3.6-7.1-2.9-0.5-7.5 0.9-8.6-2.8-2.2-2.1-3.8-4.5-6.5-5.6-2-2.8-5.1 1.4-6.6 2.9-1.4 2.5-5.6 4.8-7.8 1.5-0.8-2.1-2.3-3.2-3.7-0.8-2.1 0.3-3.2 1.7-4.8 3.1-0.8 3.4-5.2 0.6-6.3 3.6-2 1.2-3 4.5-6.2 3.5-0.5 3.4-5.8 0-5.9 3.1-0.8 3.8-4.1-0.9-3.8-3-0.9 0.4-1.7 0.6-1.8-0.2 0.3-1 0.6-1.8 1-2.1 3-2.4 3.8-2.9 0-5.7-1.5-1.1-1-3.4-1.4-5.5-0.5-2.9-1.4-5.7-0.3-6.8 0.6-0.7 0.9-1.6 0.7-1.9-0.3-0.4-0.1-1.5 0.3-2.4 0.7-1.4 0.5-1.9-1-3.4-1.5-1.5-1.7-2.1-1.3-5.6l0.4-3.9-4.9-4.7c-4.9-4.7-7.7-6.2-9.1-4.8-0.4 0.4-1.2 0.8-1.7 0.8-0.7 0-0.7-0.4 0.2-2 1.2-2-0.1-1.3-0.9-4.5l-1-3.5c3.2-0.4 11 2.8 11.6-1.8 1.4-3.8 4.1-3.5 6.9-1.8 2.7 5.5 7.8 2.3 12.7 3.1 1.7 4-0.5 13.7 4.5 13.2 1 1.8 3.2 0.8 5 0.3 2.4-0.7 3.7 3.1 2.3 6.1 3.4 2.8 9.3-3 8.4-7.3 5.9-2-1.4-6.6 4.3-11.1-2.8-4.4 1.2-3.8 3.9-5.3 1-3.4 2.5-2.5 5.1-2 1.9 0.5 5.1 0.6 7.1-0.3 9.1-7.9 8.9-3 9.6-7.8-3.8-2.9 4-4.2 5.9-3.2 1.7-0.4 4.6-2.3 5.4-2.3 1 0 0.5 2 3.1 1.8 1.8-0.5 3.3-1.1 4.3-0.7 1.4 0.7 1.4 3.3-0.1 5.6-0.2 5.3 8.2 8.2 4.9 13.9 5.5 3.1 0.2 8.3 3.4 11.5 3.6 2.1 1.2 2.9-0.4 5.8zm-114.5-6.3c1-1.4 1.8-3.2 2.2-1.9 0.3 1.2-0.2 3.2-1 3.2-0.3 0-1.2-0.4-1.2-1.3zm2.8-5.3c-0.2 0.9 0.1 1.4 0.9 1.7 0.3-0.8-0.2-1.4-0.9-1.7z"/>
		<path id="map_coquimbo_Paihuano" fill-rule="evenodd" class="map-coquimbo s1" data-siglaregion="CO" data-sigla="paihuano" data-nombre="Paihuano" d="m162.3 163c-1.5 1.2 0.9 3.6 2.3 5.7 1.9 4.5 0.7 7.6-4.1 9.9-1.4 0.7-2.1 1.3-2.4 1.8-0.4 0.6-1.1-1.4-2.9-0.9-1.8 0.4-2.9-1.3-4.6-1.7-1.6 0.1-3.7-1.2-2.3-3 1.4-0.8 1.1-2.3-0.2-3.1-1.4-1.3-3.5-1.7-5.4-1.3-1.2 1.1-2 2.7-3.8 3.1-1.6 0.1-2.9-0.9-4.4-1.1-2.5 0-1.1-3.3-2.9-3.9-1.2-0.5-3.3-0.1-3.8-1.8-1.9-1.9 2.1-2.1 0.8-3.6-1.4-0.8-3.2-1-4.3-2.2-0.5-2.1-1.5-3.9-2.1-5.9-1.5-1.4 0.5-2.6-0.2-4.2-0.6-1.5-1.3-3.1-1.8-4.7-0.5-1.6-1.3-0.6-1.7-1.3-0.4-0.8 1.2-1.8 1.5-2.1 1-1 0.5-1.3 0.8-2.7 0.4-1.3 0.2-1.6-0.8-2.6-1.2-1.3-0.9-1.9-0.5-3.4 0.4-1.5 0.8-1.9 1.3-2.9 0.9-1.8 0.8-1.3-0.8-3.4-0.4-0.5-0.5-1.9-1-2.9-0.3-0.7 1.1-2.9 1.3-3.1 0.5-0.6 3.8 0.1 4-0.9 0.3-1.2 2.9-0.6 4.1-1 0.4-0.1 1.9-2 1.9-2.3 0-0.9 0-1.8 1.8-1.1 0.2 0.1 1.8 1.6 2.9 2.1 0.7 0.4 1.9-0.8 2.4-1.3 3.1 2.4 3.4-1 3.9-1.2 0.9-0.3 1.1 2 1.6 3.1 0 0.1-0.6 1.6-0.6 2 0 0.6 0.7 1.3 1.9 1.6 1.8 0.4 3.4 1 4.4 2.6 0.5 1-2.2 0.9-2.6 1.9-0.6 1.5-0.5 1.7 0.3 3.7 0.7 1.8-2.2 1.8 0.2 2.3 2.4 0.6 1.6 4.5 4.3 6.7 0.3 1.3-0.9 1.2-0.1 3 0.3 0.6 3.3 0.4 4 1.1 0.8 0.8 0.8 2.3 1.5 3.1 0.9 0.8 0.1 1.1 1.1 2.1 0.8 0.9 0 2.2 0.3 3.2 0.4 1.7 1.3 1 0.5 2.6-0.8 1.5 1.7 2.4 2.6 2.9 1 0.5 0.1 2.2 0.5 3.1z"/>
		<path id="map_coquimbo_La_Serena" fill-rule="evenodd" class="map-coquimbo s1" data-siglaregion="CO" data-sigla="la_serena" data-nombre="La Serena" d="m39.8 81.2c-0.7 3.7-0.3 7.6-1.9 11.1-0.8 2-0.7 2.3 0.6 3.8 0.9 0.9 1.6 2.1 1.6 2.8 0 0.6 0.5 3.4 2.1 3.1 2.4-0.4 2.3 1.8 2.2 5.7-0.1 3.3 1.1 4.5-0.2 5.4-0.9 0.6-0.7 2.4-0.7 3.4l3.7 0.3 4.5 3.9v1.1h4.6l2.4 2.7-0.5 8 3.7-1.7 0.3 2.4-1 2.5 2.3 2.4 3.1 1.1c2-1.1 2.7-3.3 4-5-0.3-2.2 1.3-3.8 1.7-5.8-1.3-2 1.8-1.4 1.4-2.8-2.6-2 2-3.1 0.7-5.3-2.6-1.8 1.5-3.5-0.3-5.6 1.9-0.9 2.8-3.7 1.4-5.3-2.1 0-1-1.6 0.2-2.2 2.3-0.8-1.4-2 0.8-2.9 2.2-1 4.5-1.7 6.8-2.1 3-0.5-0.1-3.7 2.1-4.9 1.7-1.9 1.8-2.7 3.8-4.1-0.9-1.9-0.1-3.4 1.9-3.9 0.5-2.1 2.7-1.6 3.8-3.1 1-2.1 4.3-0.8 6.1-2.2 1.7-1.3 4.3 1.7 4.4-1 0.1-2.6-0.4-6.7-3.6-7.1-2.9-0.5-7.5 0.9-8.6-2.8-2.2-2.1-3.8-4.5-6.5-5.6-2-2.8-5.1 1.4-6.6 2.9-1.4 2.5-5.6 4.8-7.8 1.5-0.8-2.1-2.3-3.2-3.7-0.8-2.1 0.3-3.2 1.7-4.8 3.1-0.8 3.4-5.2 0.6-6.3 3.6-2 1.2-3 4.5-6.2 3.5-0.5 3.4-5.8 0-5.9 3.1-0.8 3.8-4.1-0.9-3.8-3-0.9 0.4-1.7 0.6-1.8-0.2z"/>
		<path id="map_coquimbo_Andacollo" fill-rule="evenodd" class="map-coquimbo s1" data-siglaregion="CO" data-sigla="andacollo" data-nombre="Andacollo" d="m61.2 135.7l2.3 2.4 3.1 1.1c-0.1 0.9 0.1 1.5 1 1.6 1 0 3 0.9 3.8 2.1 1.6 2.3 1.3 2.5 0.1 3.4-1.7 1.3-1.1 0.7-0.2 2.4 0.8 1.7 0.6 0.9 0.2 2.4-0.4 1.5 1.1 1.5 1.6 1 1.2-1.2 2.6 0.6 3.9-0.3 3.8-2.4 3-0.7 4.5-1l2.4 6.2-3.9 3.4-4.4-4.1-1.8-0.2-0.3 2.5-6.9 8.5 0.9 2.3-9.6 1.8 0.1-2.4-5.3-2.6 0.3-4.8-1.4-0.3 0.7-6.9 3-0.3v-6.2l-2.8-3.1 0.1-2.6-0.7-0.8 1.9-2.4h3.1z"/>
		<path id="map_coquimbo_Coquimbo" fill-rule="evenodd" class="map-coquimbo s1" data-siglaregion="CO" data-sigla="coquimbo" data-nombre="Coquimbo" d="m61.2 135.7l-4.3 3.1h-3.1l-1.9 2.4 0.7 0.8-0.1 2.6 2.8 3.1v6.2l-3 0.3-0.7 6.9-1.8-0.5-0.2 1.1-5.1 1.5-0.1 2.5h-0.9c0.6 1.2 0.7 3.2 1.8 3.6v3.1l-1.7 0.1c-3.2-1.5-2.2 3.4-3.3 5.2l-2.7 2.3c-0.5 3.2-0.6 7.9-3.8 1-2.2 1.5-5.7 5.7-6.5-1l-2.5 0.4 0.2-6.5-8.1-0.1c-1.6-1.1-2.8-3-5.1-2.7l-0.5-4.2c-2.2-0.5-3.9-1.9-6.6-1.3-1 0.2 0.6-3.2 0.8-4.9 0.3-1.7 1.2-4.1 2-5.4 1.3-2.2 1.5-2.2 2.3-1.1 0.5 0.7 0.9 1.8 0.9 2.5 0 0.7 0.6 1.8 1.3 2.6 1.1 1 1.8 1.2 3.8 0.7 4-0.9 7-1.4 7.2-4.5l1.2-2.8c1.1-6.4 0.5-2.4 2-6.2-0.6-3.7 2.1-2 2.5-0.8 0.5 1.2 3.8 0.8 4.9-0.3 1.1-1.2 1.3-7 1.6-7.3-1.3-1.5 0.5-3.7-0.3-4.9-1.8-0.7-0.6-6.5-2.7-7-4.4-1.1-0.5-5.3 0.2-4.4 1.1 1.4 2.5-2.4 2.4-1.9-0.2 3 5.1 0.9 0.4-1.5l4.2-3.5c-1 0.7-1.4 2.6-0.3 2.6 0.7 0 4.4 0 4.4-1l3.7 0.3 4.5 3.9v1.1h4.6l2.4 2.7-0.5 8 3.7-1.7 0.3 2.4z"/>
		<path id="map_coquimbo_Combarbala" fill-rule="evenodd" class="map-coquimbo s1" data-siglaregion="CO" data-sigla="combarbala" data-nombre="Combarbalá" d="m75.7 286.2c0.2-1.4 1.6-2.6 3.1-2.4 1-0.2 1-1.6 2-1.8 1.1-0.6 2.3-0.3 3.5-0.3 1.2-0.2 2.3 0.6 1.6 1.8-0.1 1.4 0.8 2.9 2.2 3 1.4 0.2-0.6 4.8 1 4.8 1.6 0.1 3.3 0.5 4.2 2 1.5 1.5 2-0.8 3-1.5 2.1-0.3 1-2.1 1.2-3.4 0.4-1.6 2.5-2 2.5-3.8 1.7 0 1.4-2.3 2.7-3 1.6-0.3 2-3.2 3.9-1.5 1.3 0.8 0 3.7 1.9 3.3 1.3-1 3.2-0.8 4.1-2.3 1.1-1.4 2.9-2 4.2-3.1-0.6-1.5 1-3.3 1.4-3.3l0.2-4-1.6-1.3 0.2-5.9c-2.2-1-1.7-2.6-2.1-4-1.6 1.2-3.2 2.2-5.3-0.4l-3.1-4.4c-5.6 0.8-7-1.7-7.2-5.2-1.8 0.2-1-0.6-2-0.7-1.1-0.2-2.2-0.8-1.4-2-0.5-1.4-2-2.2-2.7-3.5-0.8-1.4 1.1-3.2-0.5-4.3-1-1-3.2-0.4-3.6 0.8 0.4 0.8 1.9 2.5-0.1 2.1-1.3-0.1-2.8-1-1.9-2.4-0.2-1.6-2.4-0.8-3.5-1.3-1.3-1.3-2.4 0.5-3.8 0.4-1.4-0.5-2.5-1.6-3.6-2.5-1.3-0.8-1.6-2.2-2.4-3.3-1.3-0.2-2.8 0.6-3.3 1.8-0.3 1.3-1.7 2.4-2.1 0.5-0.8-1.2-0.8-2.5-0.7-3.7-0.8-0.9-3-1.7-2-3.1 0.2 0.7 1.5-4.9-5-4-2.1-0.2 0.8 3.1-1.6 2.7-1.7-0.2-3.9 0.5-2.1 1.6 1.7 2.3-1.8 2.3-2.9 3.5-1 0.7-3.8 0.4-1.8 1.8 0.4 1.4-0.2 4.4-1.9 3.3-1.5 0.1 0.4 3.7-1.9 2.3-2.5-1.4-2.3 3.1-0.7 3.8 1.3 0.9 1.9 3.1 0.5 3.9 1.4 1.6-0.1 3.4-1.1 4.2 1.6 0.4 2.8 1.6 1.5 3.1 0.7 1.3-0.8 2.1-0.4 3.5-1.3 0.9 0.5 3.5-1.8 2.9 0.2 2.3-1.9 6.7 5.1 5.5 0.8-1.1 2.4-0.5 3.5-0.8 1.3-0.2 2.2 1.3 3.5 0.8 1.1-0.2 1.6 1.3 2.9 0.7 0.9 0.5 0.4 2 1.3 2.8-0.2 1.2 2 1.4 1 2.7 0 1.3 0.5 2.5 0.9 3.7 0.6-0.7 2.9 1.2 2.6 2.7l0.2 4.4c1.4 3.3 4.3 2.4 3.2 5.1 4.8 2.3 3.9-0.9 5-2.3z"/>
		<path id="map_coquimbo_Ovalle" fill-rule="evenodd" class="map-coquimbo s1" data-siglaregion="CO" data-sigla="ovalle" data-nombre="Ovalle" d="m63.4 216l-2.1 1.1c-0.8-0.5-1.5-1.1-2.3-1.7-1.4-2.1-3.6 1.5-4.2-0.8-0.5 1.5-1.8 2.8-2.7 0.6 1.6-2.2-3-0.4-3.3-2.2 0.6-0.9 0.6-5.1-1-3-0.1 2.5-3.1 1.5-4 3.4-1.5 1.2-2.8 5.8-5.2 3.1-1.6-2-4.5-1.1-3.9 1.6 2.8 1.7 1.5 4.7 1.5 7.3-0.8 2.4 1.2 4.4 0.9 6.7-2.2-1-4.1 1.3-6.6 0.7-1.7 1.4-3.1 0.5-4.5-0.6-2.6-0.9-4.8 1.7-5 4.1 1.9 0.4 1.2 2.1 0.7 3.4-1.1 1.7-3.3 4.5-0.2 5.5-0.3 2.1-3.1 4.4-1 6.4 1 2.2 2.4-0.6 3.4 0.7 2.3 1 1.5 3.4 2.7 5 2.2 0.3 1.7 1.8 1.1 3.3 0.9 1.1 0.8 2.1 0.4 3.1-0.4 0.9-1 1.9-1.2 3-1.3-0.2-2.5-1.7-3.9-0.5-1.2-1-2.9-0.7-3.1 0.6-0.4-1.4-2.1-2.4-4.1-2.1 0.5 0.3-4.8 10.3-6.8 5.3-1.6-5-1.7-6.2-1.1-9.6 0.4-2.5 0.4-4.5-0.1-5.8-0.6-1.8-0.5-4.2 0.6-9.2 0.3-1.6 0-3.1-1.3-5.8-0.9-2-1.9-5.3-2.1-7.3-0.3-2.1-0.8-4.7-1.1-5.9-0.7-2-3.6-13.4-2-15.4 1.9-2.5 0.6-5-0.5-9.4-0.7-2.4-0.4-5.7 0-7.2 0.4-1.5 1.5-4.2 0.8-8.5-0.5-3.3 0.7-8.6 1-11.8 0.3-3.4 0.6-6.3 0.4-6.4-0.2-0.2 0.1-1.2 0.8-2.1 3-0.6 4.7 0.8 6.9 1.3l0.5 4.2c2.3-0.3 3.5 1.6 5.1 2.7l8.1 0.1-0.2 6.5 2.5-0.4c0.8 6.7 4.3 2.5 6.5 1 3.2 6.9 3.3 2.2 3.8-1l2.7-2.3c1.1-1.8 0.1-6.7 3.3-5.2l1.7-0.1v-3.1c-1.1-0.4-1.2-2.4-1.8-3.6h0.9l0.1-2.5 5.1-1.5 0.2-1.1 1.8 0.5 1.4 0.3-0.3 4.8 5.3 2.6-0.1 2.4 9.6-1.8 1.9 5.7-2.8 3.2c4.4 2.6 3.8 6.1 5.6 9.2l2.2 0.9 7.6-2.2-0.2-3.7c2.5 1.2 3.1 0.1 3.7-1.1l1.6 3.6 3.4 2c-2.5 0.1-4.3 1.4-4.6 4.2-1.8-1.1-4.6 0.8-6.8 1.6-3 1.6 0 6.1-3.2 7.6-1.7-1.1-4.8-1.4-4.4 1.6 2.3 1.8 0.5 4-0.8 5.5l-0.3 2.8z"/>
		<path id="map_coquimbo_Rio_Hurtado" fill-rule="evenodd" class="map-coquimbo s1" data-siglaregion="CO" data-sigla="rio_hurtado" data-nombre="Río Hurtado" d="m90.5 187c1.9-1.5 4.9 0.1 6.2-2.5 2.9 0.8 5.7 0.2 7.4-2.3 2.5 1.5 1.8-4.1 4.1-1.5 2.4 0.6 5.1 3.1 7.4 0.6 1.5-1.5 4.1-0.9 4.7 0.9 2.1 0.8 3.7 2.3 3.5 4.3 2.2 3.1 6.8-0.2 8.7 2.8 1.6 2.1 0.5 6.2 3.3 7.3 2.7-1 3.9 2.2 5.8 2.5 2.4-0.9 3.1 3.3 5.9 1.8 1.7 0 0.9 2.4 2.6 2.5 1.8 0.1 1.6 3.6 1.8-0.2 0.2-3.8 0.2-7.5 3-10.7 2.3-3.2 3.6-8.2 3.4-9.2-0.1-0.9-1-1.8-0.2-2.9-0.4 0.6-1.1-1.4-2.9-0.9-1.8 0.4-2.9-1.3-4.6-1.7-1.6 0.1-3.7-1.2-2.3-3 1.4-0.8 1.1-2.3-0.2-3.1-1.4-1.3-3.5-1.7-5.4-1.3-1.2 1.1-2 2.7-3.8 3.1-1.6 0.1-2.9-0.9-4.4-1.1-2.5 0-1.1-3.3-2.9-3.9-1.2-0.5-3.3-0.1-3.8-1.8-1.9-1.9 2.1-2.1 0.8-3.6-1.4-0.8-3.2-1-4.3-2.2-0.5-2.1-1.5-3.9-2.1-5.9-1.5-1.4 0.5-2.6-0.2-4.2-0.6-1.5-1.3-3.1-1.8-4.7-0.5-1.6-1.3-0.6-1.7-1.3 0.2 0.4 0.5 2.9-0.6 3.1-3.5 0.8-2.6-0.6-3.4-0.8-1-0.2-3.4 0-4.4 0-2.9 0.1-1.7 1.6-2.9 1.7-1 0-2.1 0.8-3.2 2-0.7 0.8-3.3 0.4-4.2-0.3-2-1.5-0.4-0.1-2.3-0.2-4.6-0.5-4.6 1.4-4.6 1.4-0.1 1-0.2-0.7-2.3-1.3-1.4-0.3-2.1-0.4-3.6-0.4-3.1 0 0-0.5-2.1-1.6-0.7-0.3-2.3-1.1-3.4 0-0.6 0.6 0.8 2.2 0 2.4l2.4 6.2-3.9 3.4-4.4-4.1-1.8-0.2-0.3 2.5-6.9 8.5 0.9 2.3 1.9 5.7-2.8 3.2c4.4 2.6 3.8 6.1 5.6 9.2l2.2 0.9 7.6-2.2-0.2-3.7c2.5 1.2 3.1 0.1 3.7-1.1l1.6 3.6z"/>
		<path id="map_coquimbo_Monte_Patria" fill-rule="evenodd" class="map-coquimbo s1" data-siglaregion="CO" data-sigla="monte_patria" data-nombre="Monte Patria" d="m73.5 218c1.8-0.8-2.4 3-1.1 3.4 0.8 0.7 0.6 1.8 0.1 2.6-0.8 1.2-2.2 2.1-3.6 2.5-1.4-0.1-2.6 0.5-3.2 1.8-1 1.4 1.2 2.2 2 3.1-0.1 1.2-0.1 2.5 0.7 3.7 0.4 1.9 1.8 0.8 2.1-0.5 0.5-1.2 2-2 3.3-1.8 0.8 1.1 1.1 2.5 2.4 3.3 1.1 0.9 2.2 2 3.6 2.5 1.4 0.1 2.5-1.7 3.8-0.4 1.1 0.5 3.3-0.3 3.5 1.3-0.9 1.4 0.6 2.3 1.9 2.4 2 0.4 0.5-1.3 0.1-2.1 0.4-1.2 2.6-1.8 3.6-0.8 1.6 1.1-0.3 2.9 0.5 4.3 0.7 1.3 2.2 2.1 2.7 3.5-0.8 1.2 0.3 1.8 1.4 2 1 0.1 0.2 0.9 2 0.7 0.2 3.5 1.6 6 7.2 5.2l3.1 4.4c2.1 2.6 3.7 1.6 5.3 0.4 0.4 1.4-0.1 3 2.1 4l-0.2 5.9 1.6 1.3-0.2 4 5.4 2c0.6-1 2.2-4.3 1.8-8-0.9-8.1 1-11.7 3.7-13.1 1-0.4 2.2-5 2.4-3 0.1 1.2 2.1 4.9 3.8 5.5 1.7 0.6-0.8 3.4 1.8 2.4 4.9-2 2.3-2.7 3.2-5.7 0.7-2.6 4.4-7.7 5.3-8.2 1.7-1.2 4.3 0.6 4.5-1.1 0.1-1.4-0.5-1.4-1.5-2.3-2 2.4-0.7-4-2.5-6.7-2.5 0.1-3-2.8-0.5-4.7 1.5-1.2 0.5-4.9 1.5-8.2 0.6-2.2 1.7-3.9 1.1-5.5-0.5-1-0.1-2.1 0.3-2.4 0.4-0.2 0.7-1.1 0.7-2 0-0.9 1.7-3.6 2.2-4 1.2-2.3 0-4 0.5-6.5-0.2 3.8 0 0.3-1.8 0.2-1.7-0.1-0.9-2.5-2.6-2.5-2.8 1.5-3.5-2.7-5.9-1.8-1.9-0.3-3.1-3.5-5.8-2.5-2.8-1.1-1.7-5.2-3.3-7.3-1.9-3-6.5 0.3-8.7-2.8 0.2-2-1.4-3.5-3.5-4.3-0.6-1.8-3.2-2.4-4.7-0.9-2.3 2.5-5 0-7.4-0.6-2.3-2.6-1.6 3-4.1 1.5-1.7 2.5-4.5 3.1-7.4 2.3-1.3 2.6-4.3 1-6.2 2.5-2.5 0.1-4.3 1.4-4.6 4.2-1.8-1.1-4.6 0.8-6.8 1.6-3 1.6 0 6.1-3.2 7.6-1.7-1.1-4.8-1.4-4.4 1.6 2.3 1.8 0.5 4-0.8 5.5l-0.3 2.8-7 5.7c1.3 4.8 4.8 5.2 10.1 2z"/>
		<path id="map_coquimbo_Punitaqui" fill-rule="evenodd" class="map-coquimbo s1" data-siglaregion="CO" data-sigla="punitaqui" data-nombre="Punitaqui" d="m27.9 264.1c1-0.9 2.6 1.9 4.3 1.7 0.6-1.6 3-3.1 4.6-1.6 1.3-0.3 2.2-2.6 4.1-2.3 1.9 0 3.7-0.8 5.6-1 2.3 0.6 0.5-2 1.8-2.9-0.4-1.4 1.1-2.2 0.4-3.5 1.3-1.5 0.1-2.7-1.5-3.1 1-0.8 2.5-2.6 1.1-4.2 1.4-0.8 0.8-3-0.5-3.9-1.6-0.7-1.8-5.2 0.7-3.8 2.3 1.4 0.4-2.2 1.9-2.3 1.7 1.1 2.3-1.9 1.9-3.3-2-1.4 0.8-1.1 1.8-1.8 1.1-1.2 4.6-1.2 2.9-3.5-1.8-1.1 0.4-1.8 2.1-1.6 2.4 0.4-0.5-2.9 1.6-2.7 6.5-0.9 5.2 4.7 5 4 0.6-1.3 1.8-1.9 3.2-1.8 1.4-0.4 2.8-1.3 3.6-2.5 0.5-0.8 0.7-1.9-0.1-2.6-1.3-0.4 2.9-4.2 1.1-3.4-5.3 3.2-8.8 2.8-10.1-2l-2.1 1.1c-0.8-0.5-1.5-1.1-2.3-1.7-1.4-2.1-3.6 1.5-4.2-0.8-0.5 1.5-1.8 2.8-2.7 0.6 1.6-2.2-3-0.4-3.3-2.2 0.6-0.9 0.6-5.1-1-3-0.1 2.5-3.1 1.5-4 3.4-1.5 1.2-2.8 5.8-5.2 3.1-1.6-2-4.5-1.1-3.9 1.6 2.8 1.7 1.5 4.7 1.5 7.3-0.8 2.4 1.2 4.4 0.9 6.7-2.2-1-4.1 1.3-6.6 0.7-1.7 1.4-3.1 0.5-4.5-0.6-2.6-0.9-4.8 1.7-5 4.1 1.9 0.4 1.2 2.1 0.7 3.4-1.1 1.7-3.3 4.5-0.2 5.5-0.3 2.1-3.1 4.4-1 6.4 1 2.2 2.4-0.6 3.4 0.7 2.3 1 1.5 3.4 2.7 5 2.2 0.3 1.7 1.8 1.1 3.3 1 1.2 0.7 2.3 0.2 3.5z"/>
		<path id="map_coquimbo_Canela" fill-rule="evenodd" class="map-coquimbo s1" data-siglaregion="CO" data-sigla="canela" data-nombre="Canela" d="m21.9 332.4c-0.4-1.1-0.6-2.5-0.9-4.6-0.5-3.2-0.6-6.9-1.3-8.2-0.4-0.9-3.3-2.2-2.6-3.3 0.8-1.3 2.5-3.6 1.4-5.7-1.5-2.8-0.8-5.8-1.1-6.7-3.3-8.5-5.6-15-4.6-17.8 0.9-2.8 0.5-3.5-1.1-3.3-1 0-0.9-3-1-4.4 0-1.5-0.8-5.3-1.7-8.4 2 5 7.3-5 6.8-5.3 2-0.3 3.7 0.7 4.1 2.1 0.2-1.3 1.9-1.6 3.1-0.6 1.4-1.2 2.6 0.3 3.9 0.5 0.2-1.1 0.8-2.1 1.1-2.8 0.9-0.7 2.5 2.1 4.2 1.9 0.6-1.6 3-3.1 4.6-1.6 1.3-0.3 2.2-2.6 4.1-2.3 1.9 0 3.7-0.8 5.6-1 0.2 2.3-1.9 6.7 5.1 5.5 0.8-1.1 2.4-0.5 3.5-0.8 1.3-0.2 2.2 1.3 3.5 0.8 1.1-0.2 1.6 1.3 2.9 0.7 0.9 0.5 0.4 2 1.3 2.8-0.2 1.2 2 1.4 1 2.7 0 1.3 0.5 2.5 0.9 3.7 0.6-0.7 2.9 1.2 2.6 2.7l0.2 4.4c-7-0.9-4.7 3.5-5.1 6.3l0.2 5-3.3-0.4c-0.4 2.1-0.8 4.2-3.2 5.2-1.5-2.1-2.9-5-4.8-1.1h-2.9c-1 2-2.9 4 0 6.5h2.5c2.4 0.5 1.9 2.7 1.9 4.6l-0.2 2.1-1.9 1.6 2.1 4c-4.9 1.9-5.7-2.4-9.8 0.8l-6.1-1v6.5l3.2 3.3c1.5 1 3.8 0.7 3.9 4v5c-0.8 2.9-4.6 0.8-5.2 3.3-2.3-0.5-1.2-2.3-1.2-3.7 0-4.1-2.8-3.8-5.4-4l-0.9-3.7c-3.5-3.6-3.7-0.6-3.7 2.7-1.6 0.1-3.1-0.1-5.7 2z"/>
		<path id="map_coquimbo_Los_Vilos" fill-rule="evenodd" class="map-coquimbo s1" data-siglaregion="CO" data-sigla="los_vilos" data-nombre="Los Vilos" d="m21.9 332.4c0.1 0.6 0.4 1.1 0.7 1.7 2.7 1.8 3.8 4.7 1.7 7.5-0.6 2.2-5.8 6.7-1.1 6.7 4.4 0.3 2.4 3.7 1.3 6.3-1.3 3 1.8 5.1 2.1 7.5-1.8 2.8-1.4 6.1-1.6 9.3 0 2.7-1.2 5.9 0.4 8.4-0.2 1.4-1.1 2.8-1.6 4.2 0.1 1.7-0.4 4 1.6 4.8 2.3-0.2 3.6-2.4 5.3-3.9 2.7 1.2 5.5 2.5 8.3 3.4 3.8 1.7 8.2 0.7 11.7-1.3 0.8-2.3 3.4-3 4.5-5.3 0.6-3 3-1.8 3.7 0.4 2.4 3.8 6-0.8 8.1-2.6 2-2.9 5.2-4.4 7.3-7.2 2.1-1.2 2.3-2.5 0.3-4-0.4-4.1 4.7-1.6 7.2-1.7-1.3-1 0.5-2.1 0.4-2.8-2-1.1-0.8-3.2-0.7-4.9 0.6-3.1-3.5-3.4-5.6-4.6-0.9-2.7-3.7-2-6-2.4l-0.6-2.4c-2.8-0.7-5.3 0.4-7.4 1.8-2.6-1.5-5.2-4.1-7.2-6.2 0-3.1-4.6-1.4-5.1-4.6-0.9-2.6-2.8-3.4-5.3-4.9-0.9 2.5-4.7 1.7-5.9 3.4-2.3-1.6 0.9-6.8-3.4-7.3-2 0.1-3.3-0.4-3.3-2.5-0.1-1.6-2.1-3.8-3.6-2.7-0.8 2.1 0.3 4.8-3 4.2-1.2 0.2-2.3 0.9-3.2 1.7z"/>
		<path id="map_coquimbo_Salamanca" fill-rule="evenodd" class="map-coquimbo s1" data-siglaregion="CO" data-sigla="salamanca" data-nombre="Salamanca" d="m81.8 366.6c-1.3-1 0.5-2.1 0.4-2.8-2-1.1-0.8-3.2-0.7-4.9 0.6-3.1-3.5-3.4-5.6-4.6-0.9-2.7-3.7-2-6-2.4l-0.6-2.4-0.2-2.9c-0.4-1.7-1.5-3.1-0.8-4.8-0.7-1.5 1.4-2.6 0.2-4.1 1.6-2.2 0.6-4.6 0-6.9-0.1-2.2 2.1-4.5 4.3-5 1-0.3 4.1 0.3 2-1.2-1.1-1.9 1.4-3 2.7-2.9 1.5 1.3 4.4 3.5 6.1 1.6-0.3-2.3 1.7-1.7 2.9-0.7 2.3-0.4 4.6-1.9 4.9-4.3 1.6-0.5 2.7 1.6 4.3 0.2 2.2 0.6 4.2-0.4 5.1-2.4 1.2-0.7 2.2-0.9 2.8 0.6 1.8-0.6 3.2 1.9 4.4 1.4 0.8-2.4 3.7-1.1 5.1-3 2.1-1 1.4-4.3 3.3-5.7-0.9-1.4 0.3-5.4 2.4-3 1.6 4.4 1.8-0.5 3 1-1 9.2-1.5 6.4 2.1 7.5-1.2 0.9 3.2 4.1 2.9 7.3-0.1 0.4 0.4 2 2 1.7 2.1-0.4 4 3.5 3.3 6.3-0.2 0.6-1 2.2-0.2 4.7 2.3 6.4-1.3 6.2 1 7.6 0.7 0.5 2.4 0.2 3.2 1.3 1.5 2 5.1 4.1 8.9 3.4 8-1.3 5.1 0.9 7.3 2.7 1.8 1.4 2 2.2 3.2 3.1 3.1 2.3 2.4 6.2 0.4 6.3-1.1 0-1.5 3.4-1.9 4-1.4 1.9-3.4 4.5-4.9 4.6-0.7 0-3.5-1.7-4.3-1.2-0.2 0.2-0.5-2.5-1-2.5-5.6-0.4-4.3 2.8-2.9 3 3.6 0.6 4.2 2.8 4 3.2-1.4 2-0.9 5.5 2.1 6 1.9 0.4 1.9 1.4 0.6 6.4-0.9 3.3 1.6 5 1.1 6.4-0.8 2.3-1.6 3.9-4.7 4.6-0.9 0.2-4.3 1.9-5 2.1-2.2-0.9-1.3-4.4-1.5-6.4 0-1-2.5-0.6-3.1-1.1 0.2-2.7 2.2-6.6 0.3-8.2l-3.5-1.1c-2-0.7-4.3-2.8-4.1-2 1.2 5.6 0.3 2.7-6.4 1.6-2.8-1.5-6-3.6-5.5-3.5 1.8 0.1-2.9-3.5-1.3-4.8 4.2-3.6-3-5.5-2.4-3.8 0.5 1.4-2.3-0.6-2.4-2.1-0.3-2-3.1-2.5-5.2-0.9-0.8 0.6-2.2 1-3.2 1-1 0-3.8 1-6.2 2.1-1.2 1.9-3.7 1.4-7.1 2.7-0.4 3.4-1.9 0.7-3.6-1.8-0.4-0.6-1.1-0.8-2-1z"/>
		<path id="map_coquimbo_Illapel" fill-rule="evenodd" class="map-coquimbo s1" data-siglaregion="CO" data-sigla="illapel" data-nombre="Illapel" d="m69.3 349.5c-2.8-0.7-5.3 0.4-7.4 1.8-2.6-1.5-5.2-4.1-7.2-6.2 0-3.1-4.6-1.4-5.1-4.6-0.9-2.6-2.8-3.4-5.5-4.8l-0.1-4.9c-0.1-3.3-2.4-3-3.9-4l-3.2-3.3v-6.5l6.1 1c4.1-3.2 4.9 1.1 9.8-0.8l-2.1-4 1.9-1.6 0.2-2.1c0-1.9 0.5-4.1-1.9-4.6h-2.5c-2.9-2.5-1-4.5 0-6.5h2.9c1.9-3.9 3.3-1 4.8 1.1 2.4-1 2.8-3.1 3.2-5.2l3.3 0.4-0.2-5c0.4-2.8-1.9-7.2 5.1-6.3 1.4 3.3 4.3 2.4 3.2 5.1 4.8 2.3 3.9-0.9 5-2.3 0.2-1.4 1.6-2.6 3.1-2.4 1-0.2 1-1.6 2-1.8 1.1-0.6 2.3-0.3 3.5-0.3 1.2-0.2 2.3 0.6 1.6 1.8-0.1 1.4 0.8 2.9 2.2 3 1.4 0.2-0.6 4.8 1 4.8 1.6 0.1 3.3 0.5 4.2 2 1.5 1.5 2-0.8 3-1.5 2.1-0.3 1-2.1 1.2-3.4 0.4-1.6 2.5-2 2.5-3.8 1.7 0 1.4-2.3 2.7-3 1.6-0.3 2-3.2 3.9-1.5 1.3 0.8 0 3.7 1.9 3.3 1.3-1 3.2-0.8 4.1-2.3 1.1-1.4 2.9-2 4.2-3.1-0.6-1.5 1-3.3 1.4-3.3l5.4 2c-1.1 1.6-0.8 5.6 1 8.8 0.4 0.7-2.7 5.4-3.4 7.7 3.7 4.2-2.6 0.7 0.6 14.2-1.2-1.5-1.4 3.4-3-1-2.1-2.4-3.3 1.6-2.4 3-1.9 1.4-1.2 4.7-3.3 5.7-1.4 1.9-4.3 0.6-5.1 3-1.2 0.5-2.6-2-4.4-1.4-0.6-1.5-1.6-1.3-2.8-0.6-0.9 2-2.9 3-5.1 2.4-1.6 1.4-2.7-0.7-4.3-0.2-0.3 2.4-2.6 3.9-4.9 4.3-1.2-1-3.2-1.6-2.9 0.7-1.7 1.9-4.6-0.3-6.1-1.6-1.3-0.1-3.8 1-2.7 2.9 2.1 1.5-1 0.9-2 1.2-2.2 0.5-4.4 2.8-4.3 5 0.6 2.3 1.6 4.7 0 6.9 1.2 1.5-0.9 2.6-0.2 4.1-0.7 1.7 0.4 3.1 0.8 4.8z"/>
		<path id="map_coquimbo_limite_Valparaiso" fill-rule="evenodd" class="map-coquimbo s0" d="m148.8 388.8c-0.9 2.7-1.7 4.3-4.8 5-0.9 0.2-4.3 1.9-5 2.1-2.2-0.9-1.3-4.4-1.5-6.4 0-1-2.5-0.6-3.1-1.1 0.2-2.7 2.2-6.6 0.3-8.2l-3.5-1.1c-2-0.7-4.3-2.8-4.1-2 1.2 5.6 0.3 2.7-6.4 1.6-2.8-1.5-6-3.6-5.5-3.5 1.8 0.1-2.9-3.5-1.3-4.8 4.2-3.6-3-5.5-2.4-3.8 0.5 1.4-2.3-0.6-2.4-2.1-0.3-2-3.1-2.5-5.2-0.9-0.8 0.6-2.2 1-3.2 1-1 0-3.8 1-6.2 2.1-1.2 1.9-3.7 1.4-7.1 2.7-0.4 3.4-1.9 0.7-3.6-1.8-0.4-0.6-1.1-0.8-2-1-1.5 0.1-8-1.9-6.8 0.5-1.5 1.8 1.8 2.4 1.2 3.7-2.3 1.3-2.8 2.7-3.9 4-1.2 0.1-2.7 1.5-4.3 3.8-2.8 2.5-5.4 5.1-6.9 5.1-0.8 0-1.8-0.9-2.5-2-1.4-2.5-2.1-2.7-3.2-0.4-1.7 3.8-4.4 3.1-4 4.7 0.3 1.2-4.8 3-7.8 3.2-2 0.1-5.3-1-9.8-2.9l-3.1-1.4-1.5 1.5c-4.1 4.1-4.4 2.1-5.3 0.7"/>
		<path id="map_coquimbo_limite_Internacional" fill-rule="evenodd" class="map-coquimbo s2" d="m180.9 60.3c2.5-0.4 0.9 2.5 1.2 4 0.3 1.4 1.3 1.4 1.9 2.8 0.8 1.8 0.2 3.7-0.1 7-0.5 4.8-0.8 5.1 4.2 9.3 1.7 1.6 3.8 4.5 1 8.5-3 4.4-2.6 5.2-0.7 4.7 0.8-0.2 0.1 3.1 0.1 4 0 0.9 1.8 2.2 1.4 2.5-0.2 0.2-0.7 5.5-2.7 8.3-0.7 1 3.5 2 0.2 5.1-1.4 1.3-1.8 3.6-1.4 5.3 0.5 2.2-1 4.3-2.2 5.8-2.1 2.4-3.4 0.6-0.9 3.8 0.5 0.5-1.6 5.9 3.9 1.3 1.6-1.4 4.4-0.1 4.6 0.9 0.3 1.3 2.5 2.9 4.1 1.9 2.2-1.3 3.7 4.1 1.3 4.1-1.9 0.1-1.3 1.7-0.8 2.7 0.3 0.7-0.6 2.6-1.4 4-1 2-3.1 0.6-4.5 0.8-1.5 0.2-0.2 3.4 0 4.7 0.1 0.8-0.9 1.9-1.5 3.1-1.8 4-1 5.1 0.1 6.9 1.4 2-0.5 1.7-3.1 1.7-0.8 0-2.8 3-4 4.1-1.6 1.7-1.3-0.2-2.9-0.5-1.2-0.2-3.4 1.4-3.7 1.8-0.6 1.1-4.4-0.1-5.5-1.2-0.5-0.4-2.3-3-3.4-3.9-2.3-0.8-3.4-1-3.8-0.8-1.5 1.2 0.9 3.6 2.3 5.7 1.9 4.5 0.7 7.6-4.1 9.9-1.4 0.7-2.1 1.3-2.4 1.8-0.8 1.1 0.1 2 0.2 2.9 0.2 1-1.1 6-3.4 9.2-2.8 3.2-2.8 6.9-3 10.7-0.5 2.5 0.7 4.2-0.5 6.5-0.5 0.4-2.2 3.1-2.2 4 0 0.9-0.3 1.8-0.7 2-0.4 0.3-0.8 1.4-0.3 2.4 0.6 1.6-0.5 3.3-1.1 5.5-1 3.3 0 7-1.5 8.2-2.5 1.9-2 4.8 0.5 4.7 1.8 2.7 0.5 9.1 2.5 6.7 1 0.9 1.6 0.9 1.5 2.3-0.2 1.7-2.8-0.1-4.5 1.1-0.9 0.5-4.6 5.6-5.3 8.2-0.9 3 1.7 3.7-3.2 5.7-2.6 1-0.1-1.8-1.8-2.4-1.7-0.6-3.7-4.3-3.8-5.5-0.2-2-1.4 2.6-2.4 3-2.7 1.4-4.6 5-3.7 13.1 0.4 3.7-1.2 7-1.8 8-1.1 1.6-0.8 5.6 1 8.8 0.4 0.7-2.7 5.4-3.4 7.7 3.7 4.2-2.6 0.7 0.6 14.2-1 9.2-1.5 6.4 2.1 7.5-1.2 0.9 3.2 4.1 2.9 7.3-0.1 0.4 0.4 2 2 1.7 2.1-0.4 4 3.5 3.3 6.3-0.2 0.6-1 2.2-0.2 4.7 2.3 6.4-1.3 6.2 1 7.6 0.7 0.5 2.4 0.2 3.2 1.3 1.5 2 5.1 4.1 8.9 3.4 8-1.3 5.1 0.9 7.3 2.7 1.8 1.4 2 2.2 3.2 3.1 3.1 2.3 2.4 6.2 0.4 6.3-1.1 0-1.5 3.4-1.9 4-1.4 1.9-3.4 4.5-4.9 4.6-0.7 0-3.5-1.7-4.3-1.2-0.2 0.2-0.5-2.5-1-2.5-5.6-0.4-4.3 2.8-2.9 3 3.6 0.6 4.2 2.8 4 3.2-1.4 2-0.9 5.5 2.1 6 1.9 0.4 1.9 1.4 0.6 6.4-0.9 3.3 1.6 5 1 6.8"/>
		<path id="map_coquimbo_limite_Atacama" fill-rule="evenodd" class="map-coquimbo s0" d="m181.4 60.3c-5.5-0.1-10.4 5-16 2.6-2.1 2.5-4-1.6-6.7-0.8-2.6-4.4-5.2-8.6-8.1-12.5-3-4.3-7.8-6.5-13-3.9 0.9 7-10.7-0.2-8.9-2.8 1.6-2.9 4-3.7 0.4-5.8-3.2-3.2 2.1-8.4-3.4-11.5 3.3-5.7-5.1-8.6-4.9-13.9 1.5-2.3 1.5-4.9 0.1-5.6-1-0.4-2.5 0.2-4.3 0.7-2.6 0.2-2.1-1.8-3.1-1.8-0.8 0-3.7 1.9-5.4 2.3-1.9-1-9.7 0.3-5.9 3.2-0.7 4.8-0.5-0.1-9.6 7.8-2 0.9-5.2 0.8-7.1 0.3-2.6-0.5-4.1-1.4-5.1 2-2.7 1.5-6.7 0.9-3.9 5.3-5.7 4.5 1.6 9.1-4.3 11.1 0.9 4.3-5 10.1-8.4 7.3 1.4-3 0.1-6.8-2.3-6.1-1.8 0.5-4 1.5-5-0.3-5 0.5-2.8-9.2-4.5-13.2-4.9-0.8-10 2.4-12.7-3.1-2.8-1.7-5.5-2-6.9 1.8-0.6 4.6-8.4 1.4-11.6 1.8"/>
	</g>
</svg>