<svg version="1.2" xmlns="http://www.w3.org/2000/svg" viewBox="0 0 200 140" width="200" height="140" style="width: 80%;height: 80%;">
	<style>
		.map-ohiggins.s2 { fill: none;stroke: #757575;stroke-width: 0.85 }
		.map-ohiggins.s0 { fill: none;stroke: #3c3c3c;stroke-width: 1.25 }
		.map-ohiggins.s1 { fill: #ffffff; stroke: #757575; stroke-width: .6 }
	</style>
	<g id="layer_mapa_ohiggins" class="layer_mapa_comuna" data-siglaregion="LI">
		<path id="map_ohiggins_Navidad" fill-rule="evenodd" class="map-ohiggins s1" data-siglaregion="LI" data-sigla="navidad" data-nombre="Navidad" d="m22.4 9.8c-0.6-0.6 0.2 1.7-0.9 1.6-0.6 1.3-1.6 1.6-1.2 3.3 0 1.5-1.1 2.1-1.9 2.7-0.5 0.5 0.1 1.7-1.4 1.2 0.3 0.1-0.5 1 0 1.2 0.4 1.3-0.3 1.7-0.1 2.6-1.1 2.2-2.6 2.8-2.5 3.1-0.7 1.7-1.5 1.8-2.6 2.1 0 2.1 0 3.4-0.4 4 0.3 0.3 1 0.3 1.2 0.5 0.3 0.3 0.1 0.8-0.1 1.2 0.9 1.1 2.2 0.9 3.4 2 0.7 0.1 1.1-0.5 1.6-1.2 0.5-0.4 0.4 0.1 0.8 0.3 0.4 0.2 1.1 1.3 1.6 1.6 0.3 0.3 0.4-0.2 0.6-0.1 1.6-0.8 2-1.9 3-1.9 1 0.1 2.2 0.7 3.1 0.1 0.6-0.9 0.6-2.4 2-2.4 0.5-1.6-0.3-2.6 1.1-3.1 0.7-0.6 2.1-1.3 1.7-2.4 0.6-1 2-0.9 2-2.3 0.5-0.5 1.4-0.8 2-1.2 0.5-0.4 1-1.2 0.5-1.9 0.9 0-2.7-0.8-1.1-1.4 0 0 1.7-1 0.7-1.3-1.3-0.1 0.7-1.4-0.7-1.9-1.8-0.1-1.5 0.6-2.2 0.9-0.6 0.2 0.1-1.2-0.5-2-0.6-0.8-0.6 0.4-2.3 0.3-0.5-0.1 0.6-2.2 0.3-2.3-1.1-0.2-1.9 3.3-2.8 1-0.4-1-1.8-0.8-2.4-1.7-0.4-0.5-0.4-1.2-2.1 0.7-0.5 0.6-0.8-0.3-1.3-0.6 0.5-0.8 1.7-1.3 0.9-2.7z"/>
		<path id="map_ohiggins_Litueche" fill-rule="evenodd" class="map-ohiggins s1" data-siglaregion="LI" data-sigla="litueche" data-nombre="Litueche" d="m58.9 23.3c0.7 0.2-0.1 0.7-0.6 0.8-0.4 0.1-1 0.3-1.3 0.6-0.3 0.2-1.2 0.7-1.2 1 0.1 0.4 0.1 1 0.1 1.4-0.4 0.8-0.8-0.6-1.3 0.4-0.1 0.8-0.3 2.6-1.3 2.6-0.5 0.4-0.8-0.2-1.2-0.3-0.5-0.1-0.9-0.4-1.4-0.3-0.4 0.1-0.2 1.1-0.6 1-0.8 0.1-1-0.5-2-0.3-0.2 0.3-0.7 0.9-0.4 1.3 0.6 0.1 0.3 0.6 0.7 1 0.4 0.3 1.4 0.3 1.8 0.5 0.4 0.2-0.2 1.4-0.2 1.7 0.4 0.8-0.4 0.9-1 2-0.5 1.2 0 1.5-0.2 1.5 0.4 0.8-0.8 1.7-1.7 1.6-1 0.1-1.1-0.7-2-1.1-1.2-0.1-2.4 0.1-3.6 0-1.4 0.4-1.6 0.1-2.1-0.7-0.9 0.5 0 3-0.1 3.8-0.2 1.3-1.1 1.5-1.3 0.5-0.3-0.3-2-0.1-1.5 0.4 0.2 1.2-0.6 1.3-0.1 1.8-0.8 0.1-1.2 0.9-0.9 1.7 1 0.8-1.4 0.5-1.5 1.1 0.1 0.7-0.4 1.5-0.7 1.8-1.1 0-0.8 2.1-1.8 1.4-0.9-1-1 1-1.8 0.5-0.9-0.6-1.1-0.5-2.4 0.5-1.5 0.8-0.1-2.4-1.3-2.3 0.5-1.9-0.2-2.4-1.4-2.2 0.9-1-0.1-1.1-0.7-1.5-1.5-1.1-1.6-0.8-2.3-1.1-2.1-0.5-2.2-0.1-2.2 0.4-1-0.9-2.3-0.3-3.5 0-1.1-0.4-1-2.2-2.7-1.3 0.2-0.5-0.8-0.8-2-1.1l-0.2 0.7c-0.4 0-0.7 0.3-0.6 1.1-0.6 0-0.6-0.6-0.8-1-0.7-0.3-1.3-0.5-1.5 0-0.2 0.4-1.4 0.7-1.7 0.4-0.3-0.2-0.3-3.1-0.2-3.3-0.6-0.4-1.7-1.6-0.7-1.6 0.8-0.1 1.8 0 2.3-0.7 0.1-1.2 0.9-2.5 0.3-3.4 0.7-0.6 1.5-1.7 1.3-1-0.1 0.6 1.2-0.1 1.4-0.5 0.3-0.4 0.3-1.8 0.6-1.5 0.3 0.3 1 0.3 1.2 0.5 0.3 0.3 0.1 0.8-0.1 1.2 0.9 1.1 2.2 0.9 3.4 2 0.7 0.1 1.1-0.5 1.6-1.2 0.5-0.4 0.4 0.1 0.8 0.3 0.4 0.2 1.1 1.3 1.6 1.6 0.3 0.3 0.4-0.2 0.6-0.1 1.6-0.8 2-1.9 3-1.9 1 0.1 2.2 0.7 3.1 0.1 0.6-0.9 0.6-2.4 2-2.4 0.5-1.6-0.3-2.6 1.1-3.1 0.7-0.6 2.1-1.3 1.7-2.4 0.6-1 2-0.9 2-2.3 0.5-0.5 1.4-0.8 2-1.2 0.5-0.4 1-1.2 0.5-1.9 0.9 0-2.7-0.8-1.1-1.4 0 0 1.7-1 0.7-1.3 1 1 2.9 0.1 3.7 1.1-0.5 0.5-0.6 1.4-0.2 2 0.5 0 2.2-0.4 2.9 0.6 0.5 0.8 2.2-0.2 3 1.1 1 0.4 1.6 3.6 2.6 2.2 1.5-0.1 0.9-1.4 0-2 1-0.8 1.2-2 1.3-3.2 1.4 0.6 2 2.5 3.2 3 1.5-0.8 3.4-0.8 5-0.4 0.5 0.2 1.2 0.7 1.9 0.8z"/>
		<path id="map_ohiggins_Pichilemu" fill-rule="evenodd" class="map-ohiggins s1" data-siglaregion="LI" data-sigla="pichilemu" data-nombre="Pichilemu" d="m24.6 47c0.9-1-0.1-1.1-0.7-1.5-1.5-1.1-1.6-0.8-2.3-1.1-2.1-0.5-2.2-0.1-2.2 0.4-1-0.9-2.3-0.3-3.5 0-1.1-0.4-1-2.2-2.7-1.3 0.2-0.5-0.8-0.8-2-1.1l-0.2 0.7c-0.4 0-0.7 0.3-0.6 1.1-0.6 0-0.6-0.6-0.8-1-0.7-0.3-1.3-0.5-1.5 0-0.2 0.4-1.4 0.7-1.7 0.4-0.3-0.2-0.8 0.1-0.3 0.8 0.5 0.7 0.2 1.2 0.4 2.2 0.2 0.2 0.5 0.9 0.5 1.1 0.1 0.5 0.3 0.9 0.8 1.2-0.1 0.6 0.7 0.6 0.2 1.3-0.1 1 0.6 2.2 0.4 3.1 0.2 1.1 0.4 1-0.1 1.9 0 1.1 1.5 2.6 0.6 3.8 0 1.6 0.6 3 0.3 4.6 0 0.9 0.4 2.3-0.4 2.2-0.3 0-0.9 1-1.3 1.8-0.6 0.4-2-0.2-2.1 0.5-0.1 1-0.7 0.8-1 1.1-0.4 0.6 0.2 1.7-0.3 2.3-0.3 0.4-0.4 1-0.7 1.5-0.8-0.2-1.3-0.4-1.2-0.1 0.2 0.5 0.3 1.2 0.3 1.2 2.2 3.4 0.5 2.6 1.9 4.2 0.3 1.4 0.6 3.6-0.4 4.5-0.8 1.5-1.3 2.2-1.5 3.4 0.1 0.6-0.2 1-0.3 1.2 0 0.2 0.2 0.2 1.1 0.1l-0.1-0.6h1.3l0.8 0.9c0.4-0.4 0.9-0.5 1.7 0.1 0.7-0.4 1.7-0.7 1.6-1.5 0.5 0 0.8 0.4 0.9 0.9h0.8c-0.1 0.3-0.2 0.7 0.5 1l2.5 0.1c1.6 1.6 1 1.9 1.8 1.7 0.4-1.6-0.3-4.4 1.2-4.9-0.2-1 0.3-1.4 1.5-1.1 0 0.9 0.4 1.3 0.9 1.5l0.7-1c1.1-1.2-0.1-1.4 0.2-2.1 0.7 0.1 1.3 0.1 1.2-0.3h0.5c0.3 0.6 0.4 1.2 1.3 1.7h1c-0.1 0.6-0.6 1.3 0.3 1.7 1.1 0.3 1.5-1.2 1.7-0.6 0.9 0.4 1.5 0.2 2.3 0.1l1 1c0.7 0 1.8 0.3 2.1-0.2 1.5-0.7 0.2-1.5 1-1.7l-0.5-1.5c-0.4-0.9-2-2.1-0.8-2.5-0.4-1-0.9-1.7-1.3-1.4v-0.9h-3.4c-1.1-1.2-0.7-1-1.1-1 0.1-0.8-0.2-2.2-0.7-2.6-0.2-0.2 0.4-0.7 1.2-1-0.1-2.2 2-3.5 0.8-4.7v-1.5l-0.9-1-0.3-3-1-0.2v-0.7c0.7-0.3 0.7-0.7 0.4-1h-0.1v-2.6l-1.4 1.1 0.2 0.9c-2 0.6-1.9-0.2-2.5-0.5l0.8-1.1-0.6-1.2c-0.7-0.1-0.9-0.4-1.1-1-0.2-1.2-1.7-0.4-1.3-1.4 0.1-0.5 0.2-0.8 0.4-1.1 0.3-0.5 0.3-0.7 1-0.7 0.2 0 0.7-0.5 0.7-0.7 0.3-0.4 0.9-0.6 1.1-0.9 0.2-0.4 0-0.7 0.5-0.8 0.7 0 0.5-0.9 0.8-1.3 0.2-0.9 1-0.5 0.9-1.4-0.1-0.3 0.5-1.4 0.8-1.5z"/>
		<path id="map_ohiggins_Paredones" fill-rule="evenodd" class="map-ohiggins s1" data-siglaregion="LI" data-sigla="paredones" data-nombre="Paredones" d="m19.6 82.5c-0.2 0.5 0.4 0.7 0.3 1.3-0.1 0.3-0.3 0.6-0.5 0.8l-0.7 1c-0.5-0.2-0.9-0.6-0.9-1.5-1.2-0.3-1.7 0.1-1.5 1.1-1.5 0.5-0.8 3.3-1.2 4.9q-0.2 0-0.2 0c-0.5 0.1-0.2-0.3-1.6-1.7l-2.5-0.1c-0.7-0.4-0.6-0.7-0.5-1h-0.8q0-0.1-0.1-0.2c-0.1-0.4-0.4-0.7-0.8-0.7 0.1 0.8-0.9 1.1-1.6 1.5-0.8-0.6-1.3-0.5-1.7-0.1l-0.8-0.9h-1.3l0.1 0.6c-0.9 0.1-1.1 0.1-1.1-0.1-0.6 1.3 0.1 2.3 0.7 3.2 0.7 2.6 0.6 2.1 0.1 3.6-0.6 0.8 0.3 1.6 0.2 2.9 0.7 1.6-0.4 0.9-0.6 1.6 0 0.9 0.2 1.8-0.3 1.8-0.2 0 0.8 0.4 0.4 0.9-0.3 0.4 0.8 1.1 0.9 1.6 0.8 1.3 1.3 0.7 1.9 0.3 0.5 0.3 0.3 1.1 0.5 1.7 0.3 0.7 1.7-0.8 2.1-0.7 1.1 0.1 0.3 0.4 2.2 1.5-0.6 0.6-0.6 0.8-0.8 1.6 0.6 1.5 0.4 1.3 0.5 2 0.4 0.4 0.9 0.7 1.4 1 0.4 0.1 0.9 0.1 1.4 0.2 0.6-0.3 0.8 0.9 1.4 1.5 0.2 0.3 0.5 0.4 0.7 0.6 0 0.8 0.1 1.2 0 2 0.5 0.5 0.8 0.8 1 1.4 0.7 0.6 1.3 1.1 2.1 1.5 0.6 0.2 1.6 0 2.2 0 0.2 0.2 0.3 0.4 0.7 0.5 0.9 0 1.9-0.2 2.7 0.1 0.5 0.3 0.8 0.5 0.8 1-0.2 0.3 0.3 0.8 0.4 0.8 1.4-0.3 1.9-0.1 2.6 0.2 0.5-0.1 1.2-0.6 1.9-1.3 0.7-0.7 0.5-0.6-0.3-0.6-0.8 0-1.3-1.2-0.3-1.2-0.5-1 1.1-1.7 0.1-3-0.6-1.1 0.9-1.1-0.1-2.8-1.2-0.6 0.4-2.1-1.5-2.7-1.4-0.9 0-1.8-1.5-2.8-1.2-0.9 0.4-1.9-0.6-2.8-0.4-0.7-0.9-2.9 0.5-2 0.5 0.1 1.8 1 2.1 0.9 0.1-0.1 0-0.2-0.1-0.6-0.6-0.4-1.2-1.6-1.5-2.2-0.2-0.4 0.1-1.2-0.1-1.6-0.7 0-0.7-0.4-0.9-1.1-0.3-0.6-0.5-1.1 0.3-1.3 0.2-0.9-0.7-1.6-0.6-3 0.4-0.8-0.3-2.2-1-2.2-0.3-0.3-0.4-1.1-0.6-1.4-0.4-0.7-0.9-1-1.2-1.8v-1.8c-0.1-0.5-0.5-0.9-0.8-1.2-0.4-0.1-0.5-0.8-0.5-1.2-0.3 0.1-0.7 0-1.1 0z"/>
		<path id="map_ohiggins_La_Estrella" fill-rule="evenodd" class="map-ohiggins s1" data-siglaregion="LI" data-sigla="la_estrella" data-nombre="La Estrella" d="m50.2 33c-0.4-0.2 1.2-0.2 1.3 0.2 0.1 0.3 0.5 0.9 0.6 1.3-0.7 2 2 0.3 1.7 1.8-0.3 2.1 0.2 0.9 0.7 1.4 0.2 0.3 0.8 0.4 1.4 0.1 0.5 0.2 0.4 1 1 1.3 0.5 0.2 0.1 0.9-0.4 1-0.3 1.1 0.6 1.6 0.6 2.6 1.3 0.8 0 2.1 0.8 3.1 0.3 0.5 0.6 0.8 1 1.4 0.2 0.4 0.2 1.2 0.7 1.4 0.6 0.1 0.9 0.6 0.2 0.9 0.1 0.5 0.1 0.9 0.1 1.4q-0.1 0.6-0.1 1.1c-0.1 0.4 0 0.6-0.1 1-1 0.3-1.3 1.3-0.8 1.2 0.4-0.2 1 0.7 0.6 1.1-0.4-0.1-1.2-0.1-1.1 0.2 0 0.3 0 0.9 0.2 1.2 0.4 0.3 1.1 0.4 1 0.5-0.1 0.1-1.2 0-1.7 0-0.6 0.4-1-0.3-2.1-0.4-0.7-0.1-1.3-0.1-1.9-0.1 0 0.4-0.4 0.6-0.6 0.6-0.2 0-0.9-0.4-1-0.8-0.1-0.2 0.5-0.6 0.6-0.8 0.6-1.2-0.5-1.4-1.4-1.2-0.4 0.1-0.6-0.2-1 0-1.2 0.5-0.3 1.5-1.7 2.1-0.1 0.7-0.1 1.1-0.4 1.2-0.5 0.2-1.4-0.3-1.5-0.7-0.5 0-1.5 0-2.1-0.2-0.6-0.1-0.2-1.3-1.5-1.4-0.9 0.2-2.6-0.6-2.6 0.4-1.7-0.2-1.6 1.8-2.1 2.8-0.7 0.2-1.2 0.5-1.8 1l-3.9-0.1c-0.1-0.1 0-0.3-0.1-0.4-0.2-0.3-0.7-0.1-1-0.2-0.5 0-0.4-0.5-0.6-0.7-0.4-0.5-1.1-0.7-1.3-1.3-0.1-0.4-0.5-0.5-0.6-0.9-0.1-0.2-0.6-0.6-0.7-0.8 0.1-1.1 0.2-1.4-0.6-1.6-0.1-0.4-0.3-0.8-0.6-1-0.5-0.1-0.2-0.4-0.1-0.7v-0.5c1.3-1 1.5-1.1 2.4-0.5 0.8 0.5 0.9-1.5 1.8-0.5 1 0.7 0.7-1.4 1.8-1.4 0.3-0.3 0.8-1.1 0.7-1.8 0.1-0.6 2.5-0.3 1.5-1.1-0.3-0.8 0.1-1.6 0.9-1.7-0.5-0.5 0.3-0.6 0.1-1.8-0.5-0.5 1.2-0.7 1.5-0.4 0.2 1 1.1 0.8 1.3-0.5 0.1-0.8-0.8-3.3 0.1-3.8 0.5 0.8 0.7 1.1 2.1 0.7 1.2 0.1 2.4-0.1 3.6 0 0.9 0.4 1 1.2 2 1.1 0.9 0.1 2.1-0.8 1.7-1.6 0.2 0-0.3-0.3 0.2-1.5 0.6-1.1 1.4-1.2 1-2 0-0.3 0.6-1.5 0.2-1.7z"/>
		<path id="map_ohiggins_Marchigue" fill-rule="evenodd" class="map-ohiggins s1" data-siglaregion="LI" data-sigla="marchigue" data-nombre="Marchigüe" d="m59.6 57.2c0.2-0.1 0 1.9 0 2.7l0.4 0.2q0.1 0.1-0.4 0.1l-0.1 4.1c-1.2-0.3-1.4 1.2-2.5 1.2-0.6 0.6-0.5 1.5-1.4 2.4-0.3 0.3 0.5 0.7 0.7 1.1-1.2 0.6 0.7 1.5-0.5 1.9-0.4 1-1.9 0.6-1.9 1.7-0.7 0.3-1.2-1.2-2.2-1.1-0.7-1-1.6-0.3-2.5-0.4 0.2-0.6-0.6-0.7-1-0.3 0.2 1.2-1.9 1.6-0.9 2.6-1.1 0.9 0.3 2.5-0.2 3.4 0.9 0.2-0.1 0.3 0 0.8 0.1 0.4 0.7 0.6 0.5 0.8-1 0.7-1.2 1.2-2.3 1.7-0.9-0.1-1.9 0.5-2.7 0.7-0.4 0.1-0.8 0.1-1-0.2-0.7 0-2.7-0.8-4.1-1-0.4-0.4-0.6-0.7-0.9 0.2-1.7-0.1-0.9 1-2.3 1.5-2.8 1.3-1.6 1.7-1.3 2.4 0.3 0.6-1 0.5-1 0.5l-0.5-1.5c-0.4-0.9-2-2.1-0.8-2.5-0.4-1-0.9-1.7-1.3-1.4v-0.9h-3.4c-1.1-1.2-0.7-1-1.1-1 0.1-0.8-0.2-2.2-0.7-2.6-0.2-0.2 0.4-0.7 1.2-1-0.1-2.2 2-3.5 0.8-4.7v-1.5l-0.9-1-0.3-3-1-0.2v-0.7c0.7-0.3 0.7-0.7 0.4-1h-0.1v-2.6l-1.4 1.1 0.2 0.9c-2 0.6-1.9-0.2-2.5-0.5l0.8-1.1-0.6-1.2c-0.7-0.1-0.9-0.4-1.1-1-0.2-1.2-1.7-0.4-1.3-1.4 0.1-0.5 0.2-0.8 0.4-1.1 0.3-0.5 0.3-0.7 1-0.7 0.2 0 0.7-0.5 0.7-0.7 0.3-0.4 0.9-0.6 1.1-0.9 0.2-0.4 0-0.7 0.5-0.8 0.7 0 0.5-0.9 0.8-1.3 0.2-0.9 1-0.5 0.9-1.4-0.1-0.3 0.5-1.4 0.8-1.5 1.2-0.2 1.9 0.3 1.4 2.2 1.2-0.1-0.2 3.1 1.3 2.3v0.5c-0.1 0.3-0.4 0.6 0.1 0.7 0.3 0.2 0.5 0.6 0.6 1 0.8 0.2 0.7 0.5 0.6 1.6 0.1 0.2 0.6 0.6 0.7 0.8 0.1 0.4 0.5 0.5 0.6 0.9 0.2 0.6 0.9 0.8 1.3 1.3 0.2 0.2 0.1 0.7 0.6 0.7 0.3 0.1 0.8-0.1 1 0.2 0.1 0.1 0 0.3 0.1 0.4l3.9 0.1c0.6-0.5 1.1-0.8 1.8-1 0.5-1 0.4-3 2.1-2.8 0-1 1.7-0.2 2.6-0.4 1.3 0.1 0.9 1.3 1.5 1.4 0.6 0.2 1.6 0.2 2.1 0.2 0.1 0.4 1 0.9 1.5 0.7 0.3-0.1 0.3-0.5 0.4-1.2 1.4-0.6 0.5-1.6 1.7-2.1 0.4-0.2 0.6 0.1 1 0 0.9-0.2 2 0 1.4 1.2-0.1 0.2-0.7 0.6-0.6 0.8 0.1 0.4 0.8 0.8 1 0.8 0.2 0 0.6-0.2 0.6-0.6 0.6 0 1.2 0 1.9 0.1 1.1 0.1 1.5 0.8 2.1 0.4 0.5 0 1.6 0.1 1.7 0z"/>
		<path id="map_ohiggins_Pumanque" fill-rule="evenodd" class="map-ohiggins s1" data-siglaregion="LI" data-sigla="pumanque" data-nombre="Pumanque" d="m52.3 96.6c-0.5-0.3-1-0.5-1.5-0.4-0.9 0-1.3 0.9-1.7 1.5-0.2 1.1-1.6 0.3-2.1 1.2-0.2 0.8 0.6 2-0.6 2.4-0.8 0.2-1.9 0.1-2.3-0.7-0.9-0.1-1.6 1.1-2.6 0.5-0.8 0-1.5 0.1-2.2-0.5-1.7 0.2-1.6 1.4-2 2.2 0.2 0.7-1.2 1.3-2.2 1.1-1.1-0.6-1.2 0.9-2.1 0.1-0.6-0.8-1.7 0.4-2.6 0-0.7-0.4-1.2-1.1-1.9-1.5-0.7-0.4-0.9-0.6-0.8-0.6 0.1-0.1 0-0.2-0.1-0.6-0.6-0.4-1.2-1.6-1.5-2.2-0.2-0.4 0.1-1.2-0.1-1.6-0.7 0-0.7-0.4-0.9-1.1-0.3-0.6-0.5-1.1 0.3-1.3 0.2-0.9-0.7-1.6-0.6-3 0.4-0.8-0.3-2.2-1-2.2-0.3-0.3-0.4-1.1-0.6-1.4-0.4-0.7-0.9-1-1.2-1.8v-1.8c-0.1-0.5-0.5-0.9-0.8-1.2-0.4-0.1-0.5-0.8-0.5-1.2 0.1 0 0.1-0.2 0.1-0.3h0.5c0.3 0.6 0.4 1.2 1.3 1.7h1c-0.1 0.6-0.6 1.3 0.3 1.7 1.1 0.3 1.5-1.2 1.7-0.6 0.9 0.4 1.5 0.2 2.3 0.1l1 1c0.7 0 1.8 0.3 2.1-0.2 1.5-0.7 0.2-1.5 1-1.7 0 0 1.3 0.1 1-0.5-0.3-0.7-1.5-1.1 1.3-2.4 1.4-0.5 0.6-1.6 2.3-1.5 0.3-0.9 0.5-0.6 0.9-0.2 1.4 0.2 3.4 1 4.1 1 0.2 0.3 0.6 0.3 1 0.2-0.3 0.4-0.3 0.9-0.2 1.4 0.6 0.7 1 1.1 2 1.3 0.6 0 0.7-0.5 1.2-0.8 0.2-0.1 0.9 0.1 1.2 0.2 0.2 0.4 0.1 1 0.1 1.2 0.1 0.3 0.4 0.4 0.5 0.6 0.5 0.2 0.5 0.4 0.9 0.7 0.5 0.4 0.4 0.3 0.9 0.9 0.3 0.2 0.4 0 0.6 0.2 0.1 0.1 0.1 0.5 0.1 0.6 0 0.3 0.7 0.3 0.9 0.4 0.4 0.2 0.5 0.4 0.9 0.5 0.4 0 0.6 0 1-0.1 0.2 0-0.1 0.5-0.1 0.5 0.1 0.2 0 1.9-0.3 1.5-0.2-0.2 0.1 0.5 0.3 0.7-0.2 0.1-0.4 0.5-0.5 0.6-0.2 0.6 0 0.9-0.4 1.4-0.2 0.1 0 0.4 0.1 0.7 0.1 0.3 0.1 1 0.1 1.2 0 0.2 0 0.5 0.1 0.7 0.1 0.5 0.4 0.9 0.3 1.4z"/>
		<path id="map_ohiggins_Lolol" fill-rule="evenodd" class="map-ohiggins s1" data-siglaregion="LI" data-sigla="lolol" data-nombre="Lolol" d="m52.3 96.6c-0.5-0.3-1-0.5-1.5-0.4-0.9 0-1.3 0.9-1.7 1.5-0.2 1.1-1.6 0.3-2.1 1.2-0.2 0.8 0.6 2-0.6 2.4-0.8 0.2-1.9 0.1-2.3-0.7-0.9-0.1-1.6 1.1-2.6 0.5-0.8 0-1.5 0.1-2.2-0.5-1.7 0.2-1.6 1.4-2 2.2 0.2 0.7-1.2 1.3-2.2 1.1-1.1-0.6-1.2 0.9-2.1 0.1-0.6-0.8-1.7 0.4-2.6 0-0.7-0.4-1.2-1.1-1.9-1.5-0.7-0.4-0.9-0.6-0.8-0.6-0.3 0.1-1.6-0.8-2.1-0.9-1.4-0.9-0.9 1.3-0.5 2 1 0.9-0.6 1.9 0.6 2.8 1.5 1 0.1 1.9 1.5 2.8 1.9 0.6 0.3 2.1 1.5 2.7 1 1.7-0.5 1.7 0.1 2.8 1 1.3-0.6 2-0.1 3-1 0-0.5 1.2 0.3 1.2 0.8 0 1-0.1 0.3 0.6-0.7 0.7 0.5-0.2 0.7 0.3 0.2 0.6 2.1 1.2 1 1.5 0.8 0.2 1.3 0.6 0.9 1.7-0.4 0.7 0.8 1.3 1.2 1.8 0.9 0.3 0.1 1.1 0 1 0.9 0.2 1.8 0.6 2.5 1.3-0.1 0.8 1 1 1.1 1.9 0.5 0.5 1 0.8 1.1 1.5 0.7 0.2-0.2 1.7 0.8 1.4 0.8-0.4 1.9-0.1 2.1-1.3 1.1-0.1 0.8-1.5 1.3-2.2 0.3-1.1-1.5-1-1.7-1.6 0.4-0.6 0.3-2 1.3-1.9 0.7-0.6 0.7-1.5 1.2-2.2 0.4-1.2 1.2 0.3 2.1 0 0.9 0.1 2.1 0.4 2.8 1.1 0.5 0.5-0.7 1.3 0.4 1.4 1.1 0.4 1.4-1 2.2-1.3 0.6-0.5 1.7 0.1 0.8 0.7 0.7 0.2 1.2-0.2 1.8-0.6 0.1-0.2-0.1-0.3-0.1-0.5-0.3-0.3-0.6-0.3-0.9-0.3-0.3-0.1-0.6-0.4-0.8-0.6-0.1-0.2-0.2-0.3-0.3-0.5-0.1 0.1-0.3 0.3-0.5 0.4-0.3-0.3-0.2-0.5-0.2-0.9 0.1-0.5-0.2-0.7-0.2-1.1 0.1-0.2-0.1-0.6 0.1-0.8 0.2-0.3 0.3-0.7 0.6-1 0.2-0.3 0.4-0.5 0.5-0.8 0-0.3 0-0.7 0.2-1 0-0.3 0.1-0.6 0.3-0.9 0.2-0.2 0.5-0.1 0.7-0.1 0.3 0 0.4-0.1 0.5-0.3 0.2 0 0.3 0.3 0.4 0.3 0.5 0.2 0.7 0 1-0.3 0.4-0.3 0.7-0.6 1-0.9q0.4-0.5 0.9-0.9c-0.2-0.2 0.1 0.2 0.2-0.8 0.4-0.2 0.6 0 1 0 0.5 0 0.6-0.3 0.5-0.6 0-1.4 0.4-0.1 0.9-2.1 0-0.2 0.1-0.9 0-1q-0.1-0.3-0.2-0.6-0.6-0.1-1-0.4c-0.4-0.1-0.6-0.2-0.8-0.4-0.2-0.2-0.2-0.6-0.2-0.9 0.4-0.3 1.1-0.5 1.3-0.9 0.1-0.3 0-0.6 0.2-1 0-0.3-0.2-0.5-0.5-0.7-0.4-0.4-0.5-0.7-0.4-1.2 0.1-0.6 0.1-1.1 0.1-1.7-0.4-0.1-0.6-0.2-1.3-0.4 0-0.4-0.3-0.7 0.1-0.8 0.4 0 0.2-1.7 0.2-2.6 0.1-0.1-0.3-0.2-0.4-0.5-0.1-0.3-0.1-0.6-0.2-0.9 0-0.2-0.7 0.1-0.7 0.2-0.5 0.5-1 0.3-1.5 0.4-0.5 0-0.6 0.3-1.1 0.3z"/>
		<path id="map_ohiggins_Peralillo" fill-rule="evenodd" class="map-ohiggins s1" data-siglaregion="LI" data-sigla="peralillo" data-nombre="Peralillo" d="m67 73.1c-0.1-0.2 0-0.2-0.4-0.8-0.4-0.6-1.2-0.9-1.3-1.7-0.1-0.3 0-1.5-0.3-1.6-1-0.2-0.7-0.5-0.9-1.3-0.5-0.4-0.9-0.6-0.8-1.4 0-0.6-0.3-1.1-0.2-2.3-0.6-0.8-1.1-0.1-1.8 0.1-0.6 0-1.2 0-1.8 0.2-1.2-0.3-1.4 1.2-2.5 1.2-0.6 0.6-0.5 1.5-1.4 2.4-0.3 0.3 0.5 0.7 0.7 1.1-1.2 0.6 0.7 1.5-0.5 1.9-0.4 1-1.9 0.6-1.9 1.7-0.7 0.3-1.2-1.2-2.2-1.1-0.7-1-1.6-0.3-2.5-0.4 0.2-0.6-0.6-0.7-1-0.3 0.2 1.2-1.9 1.6-0.9 2.6-1.1 0.9 0.3 2.5-0.2 3.4 0.9 0.2-0.1 0.3 0 0.8 0.1 0.4 0.7 0.6 0.5 0.8-1 0.7-1.2 1.2-2.3 1.7-0.9-0.1-1.9 0.5-2.7 0.7-0.3 0.4-0.3 0.9-0.2 1.4 0.6 0.7 1 1.1 2 1.3 0.6 0 0.7-0.5 1.2-0.8 0.2-0.1 0.9 0.1 1.2 0.2 0.2 0.4 0.1 1 0.1 1.2 0.1 0.3 0.4 0.4 0.5 0.6 0.5 0.2 0.5 0.4 0.9 0.7 0.5 0.4 0.4 0.3 0.9 0.9 0.3 0.2 0.4 0 0.6 0.2 0.1 0.1 0.1 0.5 0.1 0.6 0 0.3 0.7 0.3 0.9 0.4 0.4 0.2 0.5 0.4 0.9 0.5 0.4 0 0.6 0 1-0.1 0.3-0.1 0.2-0.2 0.6-0.7 0.3-0.4 0.7-0.5 1-1 0.2-0.1 0.1-0.8 0.2-1 0.1-0.3 0.7-0.7 0.9-0.9 0.6-0.6 1.2 0 1.6-0.7 0.2-0.3 0.5 0.4 0.7 0.5 0.6 0.1 1.2-0.4 1.6-0.7 0.2-0.5-0.5-0.7-0.5-1.3q1 0 2.1 0c0.7-0.1 0.9-0.4 1.6-0.5 0.5-0.2 1.3-0.4 1.8-0.7 0.4-0.5 0.3-0.9 0.1-1.4 0.2-0.6-0.5-1.2 0.4-1.2h3.2c0.2-0.7-0.3-1.4 0-2 0.3-0.7 0-1.4 0-2.1-0.2-0.3-0.9-1-1-1.1z"/>
		<path id="map_ohiggins_Palmilla" fill-rule="evenodd" class="map-ohiggins s1" data-siglaregion="LI" data-sigla="palmilla" data-nombre="Palmilla" d="m57.9 84.1l1.5 1c0 0 0.5 0.4 0.9 0.9 0.5 0.4 1 0.9 1.2 0.9q0.2 0 0.2-0.1 0.1-0.2 0.3-0.3 0.1-0.1 0.3 0c0.2 0 0.4 0.2 0.6 0.5q0 0 0 0.2 0 0.1 0 0.3 0.1 0.2 0.4 0.3 0.3 0.2 0.9 0.3 0 0.2-0.1 0.3-0.1 0.2-0.2 0.4c-0.2 0.2-0.5 0.3-0.7 0.5q0 0.2 0 0.3 0 0.2 0.1 0.3c0.2 0.2 0.3 0.4 0.5 0.6q0.5 0.5 1 1.1 0.2 0.1 0.3 0.2 0.1 0.1 0.3 0.1c0.2 0 0.6 0 1.2 0.1 0.4-0.1 0.6-0.2 0.8-0.4q0.2 0 0.4-0.1 0.1 0 0.4 0.1c0.4 0.4 0.4 0.8 0.8 1.2q0.2 0.2 0.2 0.3 0.1 0.2 0 0.4c-0.1 0.2-0.2 0.5-0.2 0.7q0.1 0.1 0.3 0.1 0.2-0.1 0.4-0.3c0.3-0.2 0.5-0.5 0.5-0.5 0.5-0.1 0.9-0.3 1.3-0.5 0.3-0.1 0.5-0.3 0.7-0.4 0.2-0.2 0.4-0.3 0.7-0.5 0.1 0 0.3-0.1 0.5-0.2 0.1-0.1 0.3-0.2 0.3-0.3 0.1-0.2-0.2-0.7-0.3-1q0-0.1 0-0.2 0.1 0 0.1-0.1c0.2 0 0.3 0 0.5 0q0.3 0 0.4-0.1 0.1-0.2 0.3-0.4c0.3-0.1 0.6-0.1 0.9-0.1q0.5 0 1 0c0.2-0.3 0.4-0.4 0.6-0.5 0.2-0.1 0.5-0.1 0.8-0.1 0.2 0 0.2-0.1 0.3-0.2 0-0.1 0.1-0.2 0.4-0.2q0-0.1-0.1-0.3-0.1-0.2-0.3-0.4c-0.2-0.2-0.5-0.5-0.7-0.7-0.2-0.1-0.3-0.3-0.4-0.4-0.1-0.2-0.2-0.3-0.5-0.3q-0.3-0.1-0.5-0.2-0.1-0.1-0.1-0.2 0-0.1 0-0.3 0.2-0.4 0.3-0.7 0.2-0.3 0.5-0.6 0.3-0.2 0.4-0.6 0.1-0.3 0.2-0.6c0.5-0.4 1.1-0.7 1.6-1.1 0-0.7 0.2-1.5 0.3-2.3q0.2-0.3 0.4-0.7 0.2-0.3 0.3-0.7 0.2-0.3 0.2-0.7c-0.6-1.1-1-1.7-2.5-1.5-0.5 0.1-0.8-0.7-1.4-0.7-0.3 0-0.9 0.1-1.1-0.1-1.2-0.5-1.4-1.3-1.9-1.6-0.8-0.3-1.4-0.9-2.2-1.3-1.1 0.9-1.9-0.3-3.1-0.5-0.3 0-1.4 0.2-1.5 0.1 0.4 0.6 0.3 0.6 0.4 0.8 0.1 0.1 0.9 0.8 1 1.1 0 0.7 0.3 1.4 0 2.1-0.3 0.6 0.2 1.3 0 2h-3.2c-0.9 0-0.2 0.6-0.4 1.2 0.2 0.5 0.3 0.9-0.1 1.4-0.5 0.3-1.3 0.6-1.8 0.7-0.7 0.1-0.9 0.4-1.6 0.5q-1.1 0-2.1 0c0.1 0.6 0.8 0.8 0.5 1.3-0.4 0.3-0.9 0.6-1.4 0.7z"/>
		<path id="map_ohiggins_Santa_Cruz" fill-rule="evenodd" class="map-ohiggins s1" data-siglaregion="LI" data-sigla="santa_cruz" data-nombre="Santa Cruz" d="m58.7 108.8h1.5l1.1 0.6h1l0.1 0.6h0.5c0 0 0.2-0.2 0.4-0.5 0.1-0.3 0.3-0.8 0.4-1.2 0.2-0.9 0.2-1.1 0.2-1.1l1-0.1 2.3 1.1v0.8c0 0 0.3-0.1 0.6-0.3q0.2-0.2 0.3-0.4c0.1-0.2 0.1-0.3 0-0.5q0-0.4 0.1-0.5 0.1-0.1 0.3-0.2 0.1-0.1 0.3-0.2 0.1-0.2 0.2-0.5 0-0.2 0.1-0.2 0.1-0.1 0.3-0.1 0.2 0 0.5 0.1 0.2 0 0.3-0.2 0.1-0.1 0.2-0.2c0.1-0.2 0.2-0.4 0.5-0.5q0.2 0.1 0.5 0.2 0.3 0 0.5-0.1 0.3-0.1 0.5-0.3 0.3-0.2 0.4-0.4c0.3-0.3 0.6-0.4 0.9-0.5 0.4-0.2 0.7-0.3 1-0.6q0-0.1 0.1-0.1 0.1 0 0.2 0.1c0.1 0.1 0.2 0.2 0.3 0.3q0.1 0.1 0.2 0.1 0.1-0.1 0.2-0.2c0.2-0.2 0.3-0.5 0.4-0.6 0.2-0.2 0.5-0.3 0.8-0.4q0.1 0 0.3-0.1 0.1-0.1 0.2-0.3c0.2-0.3 0.4-0.4 0.5-0.6q0.2-0.1 0.2-0.3 0-0.2 0-0.4 0-0.3-0.1-0.4-0.1-0.1-0.2-0.2-0.1-0.1-0.1-0.3 0-0.1 0.1-0.4c0.1-0.1 0.2-0.2 0.2-0.2 0-0.1-0.1-0.1-0.4-0.1-0.1 0-0.3-0.1-0.5-0.3-0.1-0.1-0.3-0.3-0.3-0.4q-0.2-0.2-0.4-0.2-0.3 0-0.6 0c-0.4 0-0.9 0.1-1.2 0.1-0.2 0-0.3-0.1-0.5-0.2q-0.2-0.2-0.4-0.4 0.3-0.1 0.5-0.3 0.2-0.2 0.4-0.5c0.3-0.4 0.7-0.7 1-1.1q0-0.2 0.1-0.4 0.1-0.1 0.3-0.3c0.2-0.1 0.4-0.3 0.6-0.5q0.1-0.1 0.2-0.1 0.1 0 0.2 0c0.2 0.1 0.4 0.3 0.5 0.4 0.4 0.1 0.9 0.2 1.3 0.2q0.3 0.1 0.6 0.2 0.4 0.1 0.7 0.3c0.2 0.1 0.4 0.3 0.6 0.4 0.2 0.2 0.4 0.4 0.7 0.5q0.1 0 0.2-0.1 0.1 0 0.2-0.2c0.1-0.2 0.2-0.4 0.3-0.4 0.7-0.5 1.2-1 1.7-1.5q0.4-0.2 0.6-0.5 0.2-0.2 0.2-0.6c-0.3-0.5-0.3-0.9-0.5-1.4-0.2-0.3-0.3-0.5-0.3-0.8-0.1-0.2-0.1-0.4-0.1-0.8 0-0.1-0.2-0.2-0.3-0.2-0.2-0.1-0.4-0.1-0.5-0.3-0.1-0.3-0.1-0.4-0.5-0.7-0.3-0.4-0.6-0.5-0.9-0.7q-0.2-0.1-0.3-0.1 0 0.1-0.1 0.1c-0.1 0.1-0.2 0.3-0.4 0.3-0.1 0-0.3 0.1-0.4 0.3-0.2 0.1-0.3 0.2-0.4 0.3q-0.2 0-0.4-0.1-0.2-0.1-0.4-0.3c-0.3-0.2-0.4-0.3-0.5-0.4q-0.3 0-0.3 0.1c-0.1 0.1-0.1 0.2-0.3 0.2-0.3 0-0.6 0-0.8 0.1-0.2 0.1-0.4 0.2-0.6 0.5q-0.5 0-1 0c-0.3 0-0.6 0-0.9 0.1q-0.2 0.2-0.3 0.4-0.1 0.1-0.4 0.1c-0.2 0-0.3 0-0.5 0q0 0.1-0.1 0.1 0 0.1 0 0.2c0.1 0.3 0.4 0.8 0.3 1 0 0.1-0.2 0.2-0.3 0.3-0.2 0.1-0.4 0.2-0.5 0.2-0.3 0.2-0.5 0.3-0.7 0.5-0.2 0.1-0.4 0.3-0.7 0.4-0.4 0.2-0.8 0.4-1.3 0.5 0 0-0.2 0.3-0.5 0.5q-0.2 0.2-0.4 0.3-0.2 0-0.3-0.1c0-0.2 0.1-0.5 0.2-0.7q0.1-0.2 0-0.4 0-0.1-0.2-0.3c-0.4-0.4-0.4-0.8-0.8-1.2q-0.3-0.1-0.4-0.1-0.2 0.1-0.4 0.1c-0.2 0.2-0.4 0.3-0.8 0.4-0.6-0.1-1-0.1-1.2-0.1q-0.2 0-0.3-0.1-0.1-0.1-0.3-0.2-0.5-0.6-1-1.1c-0.2-0.2-0.3-0.4-0.5-0.6q-0.1-0.1-0.1-0.3 0-0.1 0-0.3c0.2-0.2 0.5-0.3 0.7-0.5q0.1-0.2 0.2-0.4 0.1-0.1 0.1-0.3-0.6-0.1-0.9-0.3-0.3-0.1-0.4-0.3 0-0.2 0-0.3 0-0.2 0-0.2c-0.2-0.3-0.4-0.5-0.6-0.5q-0.2-0.1-0.3 0-0.2 0.1-0.3 0.3 0 0.1-0.2 0.1c-0.2 0-0.7-0.5-1.2-0.9-0.4-0.5-0.9-0.9-0.9-0.9l-1.5-1c-0.1 0-0.1 0-0.2 0q0 0 0 0c-0.1 0-0.2 0.1-0.2 0q0-0.2 0-0.2 0 0 0 0c-0.2-0.3-0.3-0.6-0.5-0.3-0.4 0.7-1 0.1-1.6 0.7-0.2 0.2-0.8 0.6-0.9 0.9-0.1 0.2 0 0.9-0.2 1-0.3 0.5-0.7 0.6-1 1-0.4 0.5-0.3 0.6-0.6 0.7 0.2 0-0.1 0.5-0.1 0.5 0.1 0.2 0 1.9-0.3 1.5-0.2-0.2 0.1 0.5 0.3 0.7-0.2 0.1-0.4 0.5-0.6 0.6-0.1 0.6 0.1 0.9-0.3 1.4-0.2 0.1 0 0.4 0.1 0.7 0 0.3 0.1 1 0.1 1.2 0 0.2 0 0.5 0.1 0.7 0.1 0.5 0.4 0.9 0.3 1.4 0.5 0 0.6-0.3 1.1-0.3 0.5-0.1 1 0.2 1.5-0.4 0 0 0.7-0.4 0.7-0.2 0.1 0.3 0.1 0.6 0.2 0.9 0.1 0.3 0.5 0.4 0.4 0.5 0 0.9 0.2 2.6-0.2 2.6-0.4 0.1-0.1 0.4-0.1 0.8 0.7 0.2 0.9 0.3 1.3 0.4 0 0.6 0 1.1-0.1 1.7-0.1 0.5 0 0.8 0.4 1.2 0.3 0.2 0.5 0.4 0.5 0.7-0.2 0.4-0.1 0.7-0.2 1-0.2 0.4-0.9 0.6-1.3 0.9 0 0.3 0 0.7 0.2 0.9 0.2 0.2 0.4 0.3 0.8 0.4q0.4 0.3 1 0.4 0.1 0.3 0.2 0.6c0 0 0 0 0 0.1z"/>
		<path id="map_ohiggins_Chepica" fill-rule="evenodd" class="map-ohiggins s1" data-siglaregion="LI" data-sigla="chepica" data-nombre="Chépica" d="m92.9 113q0-0.1 0-0.2 0.3-0.4 0.4-0.7 0-0.3 0.1-0.7 0.4-0.2 0.5-0.4 0.1-0.2-0.1-0.6c-0.7 0-1.4 0-2 0q-0.3 0-0.4 0.1 0 0-0.1 0.1c0 0.1-0.1 0.3-0.2 0.3-0.1 0-0.3 0-0.4 0-0.1 0-0.2-0.1-0.4 0q-0.3 0.2-0.6 0.4-0.4 0.1-0.7 0c-0.3-0.2-0.6-0.4-0.8-0.7-0.1 0-0.3-0.1-0.4-0.2-0.2 0-0.3-0.1-0.4-0.2 0-0.3-0.2-0.6-0.3-0.9q0-0.2 0-0.4c0-0.2 0-0.3 0.1-0.4 0.1-0.2 0.2-0.1 0.4-0.2q0.1-0.1 0.2-0.3 0.1-0.2 0.3-0.7c-0.1-0.3-0.2-0.5-0.3-0.9 0-0.3 0-0.6 0-0.8q-0.1-0.2-0.3-0.3-0.1-0.1-0.5-0.1 0.2-0.3 0.1-0.4-0.1-0.1-0.4-0.1c-0.3 0-0.7-0.1-1-0.2 0-0.1 0-0.3-0.1-0.4q0-0.1-0.2-0.2-0.1-0.1-0.4-0.1c-0.1 0-0.2-0.1-0.3-0.2q0-0.1-0.1-0.1 0-0.1-0.1-0.1-0.3-0.1-0.6-0.3-0.3-0.2-0.6-0.3-0.7-0.4-1.3-1c-0.1-0.1-0.2-0.2-0.3-0.4-0.1-0.1-0.3-0.3-0.4-0.3-0.6-0.2-1-0.5-1.6-0.7-0.1 0-0.7 0.1-0.8 0-0.1-0.1-0.2-0.2-0.3-0.3 0-0.2-0.1-0.3-0.2-0.3-0.2-0.1-0.4 0-0.5 0 0 0 0 0-0.1 0q-0.1 0.3-0.1 0.4 0 0.2 0.1 0.3 0.1 0.1 0.2 0.2 0.1 0.1 0.1 0.4 0 0.2 0 0.4 0 0.2-0.2 0.3c-0.1 0.2-0.3 0.3-0.5 0.6q-0.1 0.2-0.2 0.3-0.2 0.1-0.3 0.1c-0.3 0.1-0.6 0.2-0.8 0.4-0.1 0.1-0.2 0.4-0.4 0.6q-0.1 0.1-0.2 0.2-0.1 0-0.2-0.1c-0.1-0.1-0.2-0.2-0.3-0.3q-0.1-0.1-0.2-0.1-0.1 0-0.1 0.1c-0.3 0.3-0.6 0.4-1 0.6-0.3 0.1-0.6 0.2-0.9 0.5q-0.1 0.2-0.4 0.4-0.2 0.2-0.5 0.3-0.2 0.1-0.5 0.1-0.3-0.1-0.5-0.2c-0.3 0.1-0.4 0.3-0.5 0.5q-0.1 0.1-0.2 0.2-0.1 0.2-0.3 0.2-0.3-0.1-0.5-0.1-0.2 0-0.3 0.1-0.1 0-0.2 0.2 0 0.3-0.1 0.5-0.2 0.1-0.3 0.2-0.2 0.1-0.3 0.2-0.1 0.1-0.1 0.5c0.1 0.2 0.1 0.3 0 0.5q-0.1 0.2-0.3 0.4c-0.3 0.2-0.6 0.3-0.6 0.3v-0.8l-2.3-1.1-1 0.1c0 0 0 0.2-0.2 1.1-0.1 0.4-0.3 0.9-0.4 1.2-0.2 0.3-0.4 0.5-0.4 0.5h-0.5l-0.1-0.6h-1l-1.1-0.6h-1.5c0 0.1 0 0.7-0.1 0.9-0.4 2-0.8 0.7-0.8 2.1 0.1 0.3 0 0.6-0.5 0.6-0.4 0-0.6-0.2-1 0-0.1 1-0.4 0.6-0.2 0.8q-0.5 0.4-0.9 0.9c-0.3 0.3-0.6 0.6-1 0.9-0.3 0.4-0.5 0.5-1 0.3-0.1 0-0.2-0.3-0.4-0.3-0.1 0.2-0.2 0.3-0.4 0.3-0.3 0-0.6-0.1-0.8 0.1-0.2 0.3-0.3 0.6-0.3 0.9-0.2 0.3-0.2 0.7-0.2 1-0.1 0.3-0.3 0.5-0.5 0.8-0.3 0.3-0.4 0.7-0.6 1-0.2 0.2 0 0.6-0.1 0.8 0 0.4 0.3 0.6 0.2 1.1 0 0.4-0.1 0.6 0.2 0.9 0.2-0.1 0.4-0.3 0.5-0.4 0.1 0.2 0.2 0.3 0.3 0.5 0.2 0.2 0.5 0.5 0.8 0.6 0.3 0 0.6 0 0.9 0.3 0 0.2 0.2 0.3 0.1 0.5 0 0 0.4-0.5 0.8 0.6 0.2 0.6 0.9-0.1 0.6-0.4-0.2-0.2 0.3-0.6 0.3-0.6 0.1 0 0.6 1.2 1.9 0.8 0.7-0.2 0.7 0.7 2.1 1.5 0.4 0.2 1.2-0.1 1.7 0.4 0.6 0.4 1.3 0.9 1.8 0.5 0.4-0.1 0.4-0.6 0.4-1 0.1-0.4 0.3-0.6 0.6-0.8 0.4-0.1 0.8-0.2 1.1-0.5 0.2 0.5 0.2 0.2 0.6 0.7 0.1 0.5 0.3 0.4 0.6 0.8 0.2 0.5 0.3 0.8 0.2 1.1 0.2 0.1 0.3 0.2 0.5 0.2 0.2-0.4 0.2-0.6 0.7-0.7 0.5-0.3 1.1-0.4 1.5 0.1 0.6 0.1 0.7 0.6 1.1 0.9 0.4 0.4 1 0.5 1.6 0.4l0.2-1c0-0.1-0.3-0.4-0.4-0.5-0.3-0.4-0.6 0.1-1-0.3-0.2-0.1-0.2-0.5-0.4-0.7-0.3-0.3-0.1-1.1-0.1-1.5-0.7-0.8-0.4-1-0.1-1.1 0.3-0.3 0.4-0.7 0.6-1.1 0-0.3-0.1-0.7-0.2-1-0.3-0.4-0.1-0.3 0.2-0.6 0.2-0.3-0.1-0.5 0.2-0.9 0.3-0.1 0.3-0.4 0.4-0.6 0.7 0.1 1 0.3 1.1-0.4 0.1-0.3 0.4-0.2 0.6 0 0.5 0.4 0.9 0.4 1.5 0.1 0.5-0.4 1.1-0.5 1.6-0.9 0.8-0.6 0.6-1.5 0.9-2.3 0.2-0.1 0.6-0.6 0.9-0.6 0.4 0.1 1 0 1.5-0.2 0.4-0.2 0.7-0.4 0.7-0.6 0.3 0.4 0.7 0.6 1.1 0.8 0.2 0.1 0.3 0.2 0.4 0.4 0.4 1-0.1 1.7 0 2.7 0.5 0.3 1.2 0.2 1.8 0.4 0.5 0.2 0.4-0.2 0.9-0.3 1.1 0 0.8 0.3 1 0.6 0.7-0.2 0.7 0.6 1.5 0.4 0.1 0 0.4-0.8 1.4-1.4 0.6-0.6 0.5-1.2 0.7-1.9 0.1-0.3 0.5-0.2 0.9-0.3 0.4-0.2 0.8-0.3 1.3-0.2 0.5 0 1.1 0 1.5-0.4-0.1-0.8 0.7-1.2 1.2-1z"/>
		<path id="map_ohiggins_Nancagua" fill-rule="evenodd" class="map-ohiggins s1" data-siglaregion="LI" data-sigla="nancagua" data-nombre="Nancagua" d="m87.1 109.3h3.2l0.1-1c0.1-0.2 0.2-0.5 0.3-0.7-0.1-0.1 0.3-0.3 0.4-0.3 0.2 0 0.5-0.1 0.7-0.2 0.2-0.1 0.3-0.2 0.4-0.2q0-0.2 0-0.3 0.1-0.1 0.2-0.2c0.2-0.1 0.3-0.2 0.4-0.5 0.1-0.2 0.2-0.3 0.3-0.5 0.1-0.1 0.2-0.3 0.2-0.5 0.2-0.3 0.6-0.5 0.8-0.8q0.2-0.1 0.2-0.2 0.1-0.2 0-0.3 0-0.2-0.3-0.5c-0.1-0.1-0.5-0.3-0.7-0.5-0.2-0.4-0.3-0.9-0.3-1.4q-0.1-0.3-0.3-0.5-0.2-0.3-0.5-0.5c-0.2-0.2-0.6-0.3-0.8-0.5 0-0.2 0.1-0.3 0.2-0.4 0.1-0.2 0.1-0.3 0.1-0.6-0.1-0.2-0.6-0.5-0.6-0.6-0.1-0.4-0.1-0.8-0.2-1.3q-0.2-0.3-0.2-0.6-0.1-0.3-0.1-0.7c-0.1-0.3-0.2-0.6-0.3-0.8-0.1-0.3-0.2-0.5-0.4-0.7 0-0.3-0.1-0.6-0.2-0.9 0-0.3-0.1-0.6-0.1-1 0.1-0.5 0-0.8-0.1-1.1 0-0.2-0.1-0.5-0.2-0.8-0.1-0.2-0.3-0.3-0.4-0.4-0.1-0.1-0.2-0.2-0.5-0.2-0.2 0-0.4 0-0.6 0-0.4 0.1-0.8 0.2-1.1 0.2-0.4 0.1-0.8 0.1-1.4 0-0.4 0.2-0.8 0.5-1.3 0.7 0 0.1-0.2 0.1-0.3 0.2q0 0.4 0.1 0.7c0 0.3 0.1 0.5 0.3 0.8 0.2 0.5 0.2 0.9 0.5 1.4q0 0.4-0.2 0.6-0.2 0.3-0.6 0.5c-0.5 0.5-1 1-1.7 1.5-0.1 0-0.2 0.2-0.3 0.4q-0.1 0.2-0.2 0.2-0.1 0.1-0.2 0.1c-0.3-0.1-0.5-0.3-0.7-0.5-0.2-0.1-0.4-0.3-0.6-0.4q-0.3-0.2-0.7-0.3-0.3-0.1-0.6-0.2c-0.4 0-0.9-0.1-1.3-0.2-0.1-0.1-0.3-0.3-0.5-0.4q-0.1 0-0.2 0-0.1 0-0.2 0.1c-0.2 0.2-0.4 0.4-0.6 0.5q-0.2 0.2-0.3 0.3-0.1 0.2-0.1 0.4c-0.3 0.4-0.7 0.7-1 1.1q-0.2 0.3-0.4 0.5-0.2 0.2-0.5 0.3 0.2 0.2 0.4 0.4c0.2 0.1 0.3 0.2 0.5 0.2 0.3 0 0.8-0.1 1.2-0.1q0.3 0 0.6 0 0.2 0 0.4 0.2c0 0.1 0.2 0.3 0.3 0.4 0.2 0.2 0.4 0.3 0.5 0.3 0.3 0 0.4 0 0.4 0.1 0 0-0.1 0.1-0.1 0.2 0.1 0 0.3-0.1 0.5 0 0.1 0 0.2 0.1 0.2 0.3 0.1 0.1 0.2 0.2 0.3 0.3 0.1 0.1 0.7 0 0.8 0 0.6 0.2 1 0.5 1.6 0.7 0.1 0 0.3 0.2 0.4 0.3 0.1 0.2 0.2 0.3 0.3 0.4q0.6 0.6 1.3 1 0.3 0.1 0.6 0.3 0.3 0.2 0.6 0.3 0.1 0 0.1 0.1 0.1 0 0.1 0.1c0.1 0.1 0.2 0.2 0.3 0.2q0.3 0 0.4 0.1 0.2 0.1 0.2 0.2c0.1 0.1 0.1 0.3 0.1 0.4 0.3 0.1 0.7 0.2 1 0.2q0.3 0 0.4 0.1 0.1 0.1-0.1 0.4 0.4 0 0.5 0.1 0.2 0.1 0.3 0.3c0 0.2 0 0.5 0 0.8 0.1 0.4 0.2 0.6 0.3 0.9q-0.2 0.5-0.3 0.7-0.1 0.2-0.2 0.3c-0.2 0.1-0.3 0-0.4 0.2-0.1 0.1-0.1 0.2-0.1 0.4q0 0.2 0 0.4z"/>
		<path id="map_ohiggins_Placilla" fill-rule="evenodd" class="map-ohiggins s1" data-siglaregion="LI" data-sigla="placilla" data-nombre="Placilla" d="m93 101.5l1.4 0.8 2.4-2.3h2l0.8-1.3 2.1-1.9q0.5 0 0.8-0.2 0.3-0.1 0.5-0.3c0.3-0.3 0.5-0.6 0.8-0.8 0.1-0.4 0-0.8-0.1-1.1-0.1-0.4-0.2-0.7-0.3-1.1q-0.1 0 0-0.1 0-0.1 0.1-0.2c0.2-0.2 0.4-0.3 0.5-0.4-0.1-0.4-0.1-0.7 0-1q0-0.3-0.1-0.5 0-0.2-0.1-0.4c-0.4 0-0.8-0.1-1.1-0.3-0.3-0.2-0.6-0.4-0.9-0.7-0.2-0.1-0.3-0.2-0.5-0.1-0.1 0-0.2 0.1-0.4 0.2-0.1 0.1-0.3 0-0.5-0.1-0.2 0-0.4-0.1-0.5-0.1q0.2-0.3 0.4-0.7 0.1-0.4 0.4-0.8-0.1-0.4 0-0.7 0.1-0.3 0.4-0.7c0.3-0.2 0.4-0.5 0.4-0.8 0.1-0.4 0.1-0.7 0.2-1 0.1-0.2 0.1-0.5 0.1-0.7q-0.1-0.1-0.1-0.2-0.1-0.1-0.3 0c-0.2 0.1-0.3 0.2-0.4 0.3-0.1 0.1-0.2 0.2-0.4 0.3-0.2 0-0.5 0.1-0.8 0.1-0.3 0-0.6 0.1-0.8 0.2-0.3 0.1-0.4 0.2-0.6 0.3-0.1 0.1-0.3 0.1-0.8 0.1-0.3 0-0.6 0.1-0.8 0.3-0.2 0.1-0.4 0.3-0.5 0.5-0.4 0.1-0.7 0.1-1.1 0.2q-0.3 0-0.6 0.1-0.3 0.1-0.6 0.3c-0.2 0.2-0.2 0.3-0.3 0.4-0.1 0-0.2 0-0.5 0q-0.4 0-0.7 0.1c-0.1 0.1-0.2 0.3-0.4 0.5 0 0.3 0 0.5-0.1 0.6-0.1 0.1-0.1 0.2-0.1 0.6-1.3 0.4-1.8 0.5-2.2 0.6-0.1 0.1-0.3 0.2-0.4 0.3-0.1 0.1-0.1 0.2-0.2 0.2 0.1 0.1 0.1 0.1 0.2 0.2 0.1 0.3 0.2 0.6 0.2 0.8 0.1 0.3 0.2 0.6 0.1 1.1 0 0.4 0.1 0.7 0.1 1 0.1 0.3 0.2 0.6 0.2 0.9 0.2 0.2 0.3 0.4 0.4 0.7 0.1 0.2 0.2 0.5 0.3 0.8q0 0.4 0.1 0.7 0 0.3 0.2 0.6c0.1 0.5 0.1 0.9 0.2 1.3 0 0.1 0.5 0.4 0.6 0.6 0 0.3 0 0.4-0.1 0.6-0.1 0.1-0.2 0.2-0.2 0.4 0.2 0.2 0.6 0.3 0.8 0.5q0.3 0.2 0.5 0.5 0.2 0.2 0.3 0.5 0 0.2 0 0.3z"/>
		<path id="map_ohiggins_Chimbarongo" fill-rule="evenodd" class="map-ohiggins s1" data-siglaregion="LI" data-sigla="chimbarongo" data-nombre="Chimbarongo" d="m92.9 113c0.6 0.1 2.8 3.4 3.7 4 0.8-0.1 1.4-0.4 2.1-0.6 0.9-0.2 0.6-0.9 1.4-1.4 0.4-0.5 0.9-1 1.1-1.6 0.1-0.1 1.8 1.8 1.9 1.3 0.8 0.9 0.9 2.1 1.3 2.4 2-0.3 1.8 1.1 2 0.9 0.7-0.6 2.1 1.4 2.7 3 0.9 2.3 1.8 1 4.1-0.1 1.2-0.6 2.2 0 3-0.9 0.6-0.7 1.1-0.1 1.5 0 0.4 0.2 1.5-0.3 1.6-0.1 0.6 0.7 1.4 1 2.2 1.3 1.4 0.8 0.9 0.3 2.2 0.4 0.4 0.1 0.3-0.6 0.3-1.1-0.1-0.1-0.2-0.3-0.3-0.3-0.3-0.4-0.5-0.7-0.8-1.1q-0.4-0.5-0.9-0.8 0.2-0.2 0.2-0.3 0.1-0.2 0.1-0.4c-0.5-0.4-0.7-0.5-0.7-0.6 0-0.1 0-0.2 0-0.7 0-0.4 0.1-0.8 0.1-1.2q0-0.3 0-0.6 0-0.3-0.1-0.6-0.4-1.1-0.5-2.2c-0.5-0.2-1-0.4-1.5-0.5q-0.2-0.1-0.3-0.2-0.1-0.1-0.2-0.3 0-0.1-0.2-0.2-0.1-0.2-0.3-0.2-0.3-0.5-0.5-1-0.2-0.5-0.3-1 0-0.2-0.2-0.5-0.1-0.3-0.4-0.6c-0.1-0.1-0.6-0.4-0.9-0.6q-0.3-0.5-0.3-1-0.1-0.5-0.1-1c-0.1 0-0.3-0.2-0.6-0.3q-0.2-0.2-0.3-0.3-0.1-0.2 0-0.3c0.2-0.3 0.3-0.7 0.4-1.1 0.1-0.4 0.2-0.7 0.4-0.9 0.4-0.5 0.7-0.9 1.1-1.3q-0.1-0.7-0.2-1.3-0.2-0.6-0.6-1.1c-0.1-0.3-0.3-0.5-0.6-0.7-0.2-0.1-0.5-0.2-0.8-0.3-0.3 0-0.6-0.1-0.8-0.2-0.3-0.2-0.6-0.3-0.9-0.3-0.2 0-0.5 0-0.8-0.1-0.4-0.1-0.7-0.2-0.8-0.3q-0.4-0.3-0.9-0.6c-0.1-0.1-0.4-0.2-0.7-0.4-0.2-0.1-0.5-0.2-0.6-0.3q-0.2-0.4-0.4-0.7-0.3-0.3-0.6-0.6-0.3-0.2-0.6-0.4-0.3-0.1-0.7-0.3c-0.3-0.2-0.7-0.2-1.1-0.2q-0.3 0-0.6-0.1-0.3-0.1-0.5-0.3 0-0.1-0.2-0.3-0.2-0.2-0.5-0.3c-0.1 0.3-0.1 0.6 0 1-0.1 0.1-0.3 0.2-0.5 0.4q-0.1 0.1-0.1 0.2-0.1 0.1 0 0.1c0.1 0.4 0.2 0.7 0.3 1.1 0.1 0.3 0.2 0.7 0.1 1.1-0.3 0.2-0.5 0.5-0.8 0.8q-0.2 0.2-0.5 0.3-0.3 0.2-0.8 0.2l-2.1 1.9-0.8 1.3h-2l-2.4 2.3-1.4-0.8c0.1 0.4 0.2 0.8 0.3 1.1 0.2 0.2 0.6 0.4 0.7 0.5q0.3 0.3 0.3 0.5 0.1 0.1 0 0.3 0 0.1-0.2 0.2c-0.2 0.3-0.6 0.5-0.8 0.8 0 0.2-0.1 0.4-0.2 0.5-0.1 0.2-0.2 0.3-0.3 0.5-0.1 0.3-0.2 0.4-0.4 0.5q-0.1 0.1-0.2 0.2 0 0.1 0 0.3c-0.1 0-0.2 0.1-0.4 0.2-0.2 0.1-0.5 0.2-0.7 0.2-0.1 0-0.5 0.2-0.4 0.3-0.1 0.2-0.2 0.5-0.3 0.7l-0.1 1h-3.2c0.1 0.3 0.3 0.6 0.3 0.9 0.1 0.1 0.2 0.2 0.4 0.2 0.1 0.1 0.3 0.2 0.4 0.2 0.2 0.3 0.5 0.5 0.8 0.7q0.3 0.1 0.7 0 0.3-0.2 0.6-0.4c0.2-0.1 0.3 0 0.4 0 0.1 0 0.3 0 0.4 0 0.1 0 0.2-0.2 0.2-0.3q0.1-0.1 0.1-0.1 0.1-0.1 0.4-0.1c0.6 0 1.3 0 2 0q0.2 0.4 0.1 0.6-0.1 0.2-0.5 0.4-0.1 0.4-0.1 0.7-0.1 0.3-0.4 0.7 0 0.1 0 0.2z"/>
		<path id="map_ohiggins_San_Fernando" fill-rule="evenodd" class="map-ohiggins s1" data-siglaregion="LI" data-sigla="san_fernando" data-nombre="San Fernando" d="m177.5 101.3c-0.1-0.1-0.2-0.1-0.3-0.1q-0.3-0.2-0.6-0.3-0.3-0.2-0.5-0.6c-0.4-0.2-0.8-0.4-1.3-0.5-0.1-0.2-0.1-0.6-0.3-0.9q-0.2-0.2-0.3-0.4 0-0.3 0-0.6c0-0.3-0.1-0.5-0.2-0.5-0.2-0.1-0.3-0.2-0.6-0.3-0.2-0.3-0.4-0.6-0.5-0.9q-0.1-0.3-0.2-0.7c0-0.2-0.1-0.4-0.3-0.5q-0.2 0-0.4-0.2-0.1-0.1-0.2-0.3c-0.2-0.1-0.4-0.2-0.5-0.2-0.2-0.1-0.3-0.2-0.5-0.3-0.2-0.2-0.4-0.4-0.6-0.6-0.2-0.2-0.4-0.4-0.7-0.5q-0.3 0.1-0.5 0.3-0.2 0.2-0.3 0.5c-0.2 0.3-0.4 0.8-0.4 1.1-0.2 0.2-0.4 0.3-0.5 0.3-0.2 0.1-0.4 0.1-0.6 0.3 0 0-0.1 0.2-0.3 0.4-0.2 0.2-0.4 0.3-0.4 0.3q-0.2-0.1-0.2-0.3 0-0.1 0-0.2c0.1-0.2 0.1-0.4 0.1-0.7-0.1-0.1-0.2-0.2-0.2-0.2-0.1 0-0.2-0.1-0.3-0.2q-0.2-0.2-0.3-0.5-0.1-0.2 0-0.6 0-0.2 0.1-0.4 0.1-0.2 0.4-0.4-0.2-0.2-0.4-0.4-0.1-0.2-0.1-0.5c-0.3-0.2-0.5-0.3-0.6-0.4-0.2-0.1-0.3-0.2-0.3-0.4-0.2-0.2-0.4-0.4-0.5-0.6-0.1-0.1-0.3-0.3-0.5-0.4q-0.2 0.2-0.3 0.3-0.2 0.1-0.4 0.1c0-0.1-0.2-0.3-0.4-0.5-0.2-0.3-0.4-0.5-0.4-0.6-0.2-0.2-0.4-0.3-0.7-0.4-0.2 0-0.5 0-0.8 0-0.2-0.1-0.4-0.3-0.6-0.4-0.2-0.1-0.4-0.2-0.7-0.1-0.3 0-0.4 0-0.6 0.1q-0.2 0.1-0.4 0.3c-0.2 0-0.7 0-1.1 0.1-0.4 0.1-0.8 0.2-0.9 0.3-0.2 0.1-0.3 0.3-0.4 0.4 0 0.2-0.1 0.3-0.2 0.6-0.1 0.2-0.5 0.5-0.6 0.7q-0.3 0-0.5-0.2-0.2-0.2-0.4-0.3-0.1-0.2-0.3-0.4-0.2-0.2-0.5-0.3c-0.1-0.1-0.2-0.1-0.4-0.1-0.1 0.1-0.2 0.1-0.4 0.2-0.1 0-0.3 0-0.5 0q-0.2 0-0.3 0-0.1 0-0.1 0.1c-0.1 0.2-0.2 0.4-0.3 0.5-0.1 0.2-0.3 0.3-0.4 0.4q-0.5-0.1-1-0.3-0.4-0.2-0.8-0.6c-0.1 0-0.2 0-0.4-0.1-0.2 0-0.4 0-0.4-0.1-0.1-0.1-0.1-0.4-0.1-0.6 0-0.2-0.1-0.5-0.2-0.5-0.3 0-0.4-0.1-0.5-0.1-0.1-0.1-0.2-0.3-0.3-0.5-0.2 0-0.4 0-0.6 0.1q-0.2 0-0.3-0.1-0.2 0-0.4-0.2c0-0.1 0-0.2-0.1-0.2q0-0.2-0.2-0.2c-0.2 0-1 0.1-1.2 0-0.2 0-0.3 0-0.4 0.1-0.1 0-0.2 0.1-0.4 0.2-0.4 0.2-0.7 0.5-1.1 0.7-0.4 0.1-0.7 0.1-1.1 0.1-0.2 0.2-0.4 0.3-0.5 0.5 0 0.1 0 0.3 0 0.4q0 0.1-0.1 0.1 0 0.1-0.3 0.1-0.2-0.1-0.5-0.2-0.2-0.1-0.5 0-0.2-0.2-0.3-0.4-0.1-0.2 0-0.5c0.1-0.3 0.1-0.5 0.3-0.8q0.1-0.3 0.1-0.5 0-0.2-0.3-0.5c-0.2-0.3-0.1-0.7-0.2-1-0.2-0.2-0.8-0.5-0.8-0.6-0.1-0.2-0.1-0.3-0.2-0.5 0-0.1-0.1-0.2-0.3-0.3-0.5-0.1-1-0.2-1.5-0.2-0.3 0.1-0.4 0.4-0.7 0.5q-0.5 0-1.1 0c-0.3 0-0.7 0-1 0-0.2 0-0.4 0.1-0.6 0.2-0.2 0.2-0.2 0.3-0.2 0.4-0.1 0.1-0.1 0.3-0.2 0.5-0.1 0.1-0.2 0.2-0.2 0.3-0.1 0-0.1 0.1-0.1 0.3q0.1 0.1 0.1 0.2 0 0-0.1 0c-0.1 0.1-0.3 0.1-0.3 0.2-0.1 0.1-0.2 0.3-0.3 0.5-0.2 0.2-0.2 0.4-0.4 0.6q-0.2 0-0.3 0-0.2-0.1-0.3-0.3 0-0.1-0.2-0.1-0.1-0.1 0-0.2 0-0.2 0-0.3-0.1-0.1-0.1-0.3-0.3-0.2-0.5-0.2-0.2 0-0.5 0.2-0.1 0.3-0.3 0.4-0.1 0.2-0.3 0.2-0.3 0.1-0.5 0-0.3-0.1-0.6-0.2c0-0.1-0.1-0.4-0.2-0.5-0.2-0.1-0.4-0.1-0.5-0.1q-0.1 0-0.1-0.1-0.1 0-0.1-0.2c-0.1-0.3-0.2-0.5-0.4-0.8q-0.2-0.2-0.4-0.3-0.2-0.1-0.5 0c-0.8 0-1.5 0-1.8-0.1-0.2-0.3-0.5-0.5-0.7-0.8q-0.1-0.2-0.2-0.5-0.1-0.2-0.4-0.4c-0.1-0.1-0.5-0.5-0.6-0.7-0.3-0.1-0.5-0.2-0.7-0.2-0.2-0.1-0.4-0.1-0.7-0.2-0.4-0.2-0.9-0.6-1.2-0.8q-0.1-0.1-0.2-0.3-0.2-0.1-0.2-0.2-0.2-0.2-0.3-0.4-0.1-0.1-0.1-0.4c-0.2-0.4-0.3-0.9-0.6-1.4-0.1-0.1-0.2-0.1-0.2-0.1-0.1 0-0.1 0.1-0.2 0.1-0.4 0-0.6 0.1-0.9 0-0.3 0-0.8-0.1-1.6-0.2 0-0.1-0.1-0.2-0.1-0.2-0.1-0.1-0.1-0.2 0-0.2q0-0.3-0.1-0.5 0-0.2-0.2-0.4-0.2-0.3-0.6-0.6c-0.2 0.3-0.5 0.5-0.7 0.7q-0.3 0.1-0.6 0.1-0.2 0.1-0.5 0.1-0.2 0.2-0.2 0.3 0 0.2 0.1 0.4c-0.1 0.2-0.2 0.3-0.3 0.3-0.2 0-0.3 0-0.5 0.1q-0.2 0.1-0.3 0.2-0.1 0-0.3 0c-0.1 0-0.3-0.1-0.6-0.1q-0.1 0.3-0.3 0.5-0.1 0.3-0.3 0.5c-0.2 0.4-0.4 0.8-0.5 1.2-0.4 0.1-0.8 0-1.2 0q0 0 0 0 0 0 0 0c-0.2 0.1-0.7 0.1-1 0.1q-0.3-0.1-0.5 0-0.3 0.1-0.5 0.2c-0.1 0.1-0.2 0.2-0.3 0.3-0.1 0-0.3 0.1-0.3 0.1q0-0.1-0.1-0.1c-0.2-0.2-0.5-0.2-0.7-0.3q-0.3 0-0.5 0.1-0.2 0-0.3 0.2-0.3 0.2-0.4 0.8c-0.1 0.2-0.2 0.3-0.3 0.4-0.1 0.1-0.1 0.2-0.1 0.5q0 0.1 0 0.2-0.1 0.1-0.2 0.3c-0.2 0.1-0.4 0.2-0.5 0.3q-0.1 0.1-0.3 0.3 0 0-0.1 0.1 0.1 0 0.1 0c0 0.2 0 0.5-0.1 0.7-0.1 0.3-0.1 0.6-0.2 1 0 0.3-0.1 0.6-0.4 0.8q-0.3 0.4-0.4 0.7-0.1 0.3 0 0.7-0.3 0.4-0.4 0.8-0.2 0.4-0.4 0.7c0.1 0 0.3 0.1 0.5 0.1 0.2 0.1 0.4 0.2 0.5 0.1 0.2-0.1 0.3-0.2 0.4-0.2 0.2-0.1 0.3 0 0.5 0.1 0.3 0.3 0.6 0.5 0.9 0.7 0.3 0.2 0.7 0.3 1.1 0.3q0.1 0.2 0.1 0.4 0.1 0.2 0.1 0.5 0 0 0 0 0.3 0.1 0.5 0.3 0.2 0.2 0.2 0.3 0.2 0.2 0.5 0.3 0.3 0.1 0.6 0.1c0.4 0 0.8 0 1.1 0.2q0.4 0.2 0.7 0.3 0.3 0.2 0.6 0.4 0.3 0.3 0.6 0.6 0.2 0.3 0.4 0.7c0.1 0.1 0.4 0.2 0.6 0.3 0.3 0.2 0.6 0.3 0.7 0.4q0.5 0.3 0.9 0.6c0.1 0.1 0.4 0.2 0.8 0.3 0.3 0.1 0.6 0.1 0.8 0.1 0.3 0 0.6 0.1 0.9 0.3 0.2 0.1 0.5 0.2 0.8 0.2 0.3 0.1 0.6 0.2 0.8 0.3 0.3 0.2 0.5 0.4 0.6 0.7q0.4 0.5 0.6 1.1 0.1 0.6 0.2 1.3c-0.4 0.4-0.7 0.8-1.1 1.3-0.2 0.2-0.3 0.5-0.4 0.9-0.1 0.4-0.2 0.8-0.4 1.1q-0.1 0.1 0 0.3 0.1 0.1 0.3 0.3c0.3 0.1 0.5 0.3 0.6 0.3q0 0.5 0.1 1 0 0.5 0.3 1c0.3 0.2 0.8 0.5 0.9 0.6q0.3 0.3 0.4 0.6 0.2 0.3 0.2 0.5 0.1 0.5 0.3 1 0.2 0.5 0.5 1 0.2 0 0.3 0.2 0.2 0.1 0.2 0.2 0.1 0.2 0.2 0.3 0.1 0.1 0.3 0.2c0.5 0.1 1 0.3 1.5 0.5q0.1 1.1 0.5 2.2 0.1 0.3 0.1 0.6 0 0.3 0 0.6c0 0.4-0.1 0.8-0.1 1.2 0 0.5 0 0.6 0 0.7 0 0.1 0.2 0.2 0.7 0.6q0 0.2-0.1 0.4 0 0.1-0.2 0.3 0.5 0.3 0.9 0.8c0.3 0.4 0.5 0.7 0.8 1.1 0.1 0 0.2 0.2 0.3 0.3-0.1-0.3-0.1-0.7-0.1-0.8 0.7 0 2.5 1.2 2.3 1.1-0.2-0.1 0.5-0.5 1.1-0.4 0.5 0.1 0.9 0.5 1.5 1.1 0.4 0.3 0.7 0.9 1.2 1 0.5 0.1 0.1 0.7 0.4 1 0.9 0.9 2 1.4 2.5 1.4 0.4 0 0.9 1.2 1.1 2.1 0.1 0.5 0.6 0.4 0.7 0.6 0.4 1 0.8 0.6 1.5 0.6 0.5 0 1.6 2.1 2 3.7 0.3 1.3 0 0.4 2.7 2 1.5 0.8 1.2 1.7 1.7 1.2 0.3-0.3 0.4-0.8 0.5-1.3-0.3-2 0.3-1.9 2.3-2 1.9-0.3 1.9 0.3 2.1-0.5 0.4-1.2-0.9-2 1.5-1.7 0.6 0.1 0.8-0.7 1-0.8 0.4 0-0.2 1.8 0.5 2 0 0.3 1 0 1.4 0.3-0.1 0-0.7 1.1-0.2 1.6 0 0.6 2 0.7 2.9 0.7 0.5 0 0.2 0.7 0.8 1.3 0.5 0.5 0.8 1.1 1.5 1.1 1.4 0 1.3-1.1 1.5-0.9 0.1 0.1 0 0.8 0.8 0.8 0-0.3 1.3-0.6 2.6-0.7 0.7-0.8 0.9-0.2 1.9 0.4 0.7 0.5 0.9 1.3 1.5 1.1 0.4-0.1 0.4-0.7 0.8-0.6 0.5 0 2.7 1.2 3.1 1 0.1-0.1-0.1-0.6 0.3-0.6 0.8 0.5 1.6-0.8 1.7-1.2 0.5-0.8 0.1-2.2 0-4.8-0.1-1.3 0.8-0.9 1.3-1.4 0.7-1.5-0.2-2.1 2.3-4.7 0.2-0.6 0-2.1 0.5-2.5 0.8-0.5 0.5-1.9 0.5-2.4 0-0.5 0.5-0.9 1-1.9 1.2-2.5 1.5-4 1-4.6-0.9-0.2-3.4-1.2-3.9-1.9-0.4-0.2-1.1-0.1-1.3-0.4-0.4-0.6-0.1-1.6-0.1-2.5 0-0.8 2-2 3.4-2.5 0.8-0.3-0.1 0.2 0.4-1.3 1.8-2.5 0.5-1.8 1.1-2.8z"/>
		<path id="map_ohiggins_Las_Cabras" fill-rule="evenodd" class="map-ohiggins s1" data-siglaregion="LI" data-sigla="las_cabras" data-nombre="Las Cabras" d="m98 41.4c-1.5 2.6-3.4-2.3-5.7-1.6-2.5 0-7.4-0.3-8.4-3.2-3-0.6-1.6-3.6-3.7-4.9-1.2-0.3-2.4-0.2-2.2-3.2-0.4-3.3-2-0.9-3.4-3.8 0 1.3-0.7 1.6-1.6 1.8-0.9 0-1.2 1.1-2.3 0.7-0.6 0.5 0.7 1.9-0.8 1.5-1.1-0.2-2.6-0.9-3.4 0.4 0 1.2-1.8-0.6-2.2-1-0.8-0.8-1.1-2.4-0.5-2.9-1.5 0.1-2.7-1-3.5-2.1-0.2 0.4-0.8 0.4-1.4 0.2 0.7 0.2-0.1 0.7-0.6 0.8-0.4 0.1-1 0.3-1.3 0.6-0.3 0.2-1.2 0.7-1.2 1 0.1 0.4 0.1 1 0.1 1.4-0.4 0.8-0.8-0.6-1.3 0.4-0.1 0.8-0.3 2.6-1.3 2.6-0.5 0.4-0.8-0.2-1.2-0.3-0.5-0.1-0.9-0.4-1.4-0.3-0.4 0.1-0.2 1.1-0.6 1-0.8 0.1-1-0.5-2-0.3-0.2 0.3-0.7 0.9-0.4 1.3 0.6 0.1 0.3 0.6 0.7 1 0.4 0.3 1.4 0.3 1.8 0.5-0.4-0.2 1.2-0.2 1.3 0.2 0.1 0.3 0.5 0.9 0.6 1.3-0.7 2 2 0.3 1.7 1.8-0.3 2.1 0.2 0.9 0.7 1.4 0.2 0.3 0.8 0.4 1.4 0.1 0.5 0.2 0.4 1 1 1.3 0.5 0.2 0.1 0.9-0.4 1-0.3 1.1 0.6 1.6 0.6 2.6 1.3 0.8 0 2.1 0.8 3.1 0.3 0.5 0.6 0.8 1 1.4 0.2 0.4 0.2 1.2 0.7 1.4 0.6 0.1 0.9 0.6 0.2 0.9 0.1 0.5 0.1 0.9 0.1 1.4 0.5 0.5 0.8 1 0.8 1.4 0.1 0.7 0.9 1.1 2 1.3 2.1 0.1 4.6-0.2 6.1 0.3 0.6 0.5 0.7 1 1.7 1.4-0.1 0.4 0.1 0.9 1.3 1.8 0.4 0.2 0.6 0.8 1 1 0.4 0.4 0.1 1.2 0.9 1 0.2-0.1 0.5 0.6 0.9 0.7 0.4-1.5-0.4-1.6 0.5-3.9 0.3-0.7 1.5-1 2-2.4 1.8 0 0.9-1.3 1.4-1.9 2.6-0.3 6 0.1 6.8-1.5l1.4 1.3c1.4-0.1 1.7-0.5 2.1-0.9 0.3-0.1 0.6 0 0.8 0.2 0.3 0.3 0.6 0.2 0.9 0.1 0.2-0.2 0.4-0.4 0.6-0.6 0.4-0.1 0.5 0 0.7 0.3 0.5 0.2 0.5-0.2 0.9-0.5 0.2-0.1 0.4-0.1 0.6-0.2 0.8 0.1 0.6-0.9 0.9-1.5 0.6-0.5 1.5-0.7 1.3-1.2-0.1-0.1 0-0.4 0.3-0.5 0.5-0.2 0.4-1.3 0.3-1.4 0.2 0.2 0.2-0.3 0.4-0.8 0.2-0.4 0.7-0.7 0.8-1.2 0.3-0.6 0.6-1.2 0.7-1.8z"/>
		<path id="map_ohiggins_Pichidegua" fill-rule="evenodd" class="map-ohiggins s1" data-siglaregion="LI" data-sigla="pichidegua" data-nombre="Pichidegua" d="m74.6 59.8c-0.4-0.1-0.7-0.8-0.9-0.7-0.8 0.2-0.5-0.6-0.9-1-0.4-0.2-0.6-0.8-1-1-1.2-0.9-1.4-1.4-1.3-1.8-1-0.4-1.1-0.9-1.7-1.4-1.5-0.5-4-0.2-6.1-0.3-1.1-0.2-1.9-0.6-2-1.3 0-0.4-0.3-0.9-0.8-1.4q-0.1 0.6-0.1 1.1c-0.1 0.4 0 0.6-0.1 1-1 0.3-1.3 1.3-0.8 1.2 0.4-0.2 1 0.7 0.6 1.1-0.4-0.1-1.2-0.1-1.1 0.2 0 0.3 0 0.9 0.2 1.2 0.4 0.3 1.1 0.4 1 0.5 0.2-0.1 0 1.9 0 2.7l0.4 0.2q0.1 0.1-0.4 0.1l-0.1 4.1c0.6-0.2 1.2-0.2 1.8-0.2 0.7-0.2 1.2-0.9 1.8-0.1-0.1 1.2 0.2 1.7 0.2 2.3-0.1 0.8 0.3 1 0.8 1.4 0.2 0.8-0.1 1.1 0.9 1.3 0.3 0.1 0.2 1.3 0.3 1.6 0.1 0.8 0.9 1.1 1.3 1.7 0.1 0.1 1.2-0.1 1.5-0.1 1.2 0.2 2 1.4 3.1 0.5 0.8 0.4 1.4 1 2.3 1.3 0.4 0.3 0.6 1.1 1.8 1.6 0.2 0.2 0.8 0.1 1.1 0.1 0.6 0 0.9 0.8 1.4 0.7 1.5-0.2 1.9 0.4 2.5 1.6 0.3-0.5 1-1 1.5-1.4 0.3-0.7-0.1-1.4-0.3-2 0.4-0.9-0.2-1.5 0.4-2.2 0.5-0.4 1-0.6 1.6-0.6 0.4 0 0.8 0.2 1.3 0.2 0.8-0.1 1.3-0.5 1.4-1 0.1-0.4 0.8-1.1 0.9-1.5-0.2-1.5-1.3-0.2-2-1-0.6-0.5-1.4-0.8-2.1-1.3-1-0.6-2.8-1-1.7-1.9 0.4-0.8-0.9-0.4-1.1-1.4-0.3-0.7-0.4-1.6-1.3-1.7 0-0.1-0.4-0.3-0.6-0.4-0.5-0.6-0.9-0.9-1.6-1.2-0.9-0.3-1.1-0.9-2.1-0.8z"/>
		<path id="map_ohiggins_Peumo" fill-rule="evenodd" class="map-ohiggins s1" data-siglaregion="LI" data-sigla="peumo" data-nombre="Peumo" d="m87.7 69.8c-0.3 0-0.3 0.2-0.6-0.3-0.2-1.5-1.3-0.2-2-1-0.6-0.5-1.4-0.8-2.1-1.3-1-0.6-2.8-1-1.7-1.9 0.4-0.8-0.9-0.4-1.1-1.4-0.3-0.7-0.4-1.6-1.3-1.7 0-0.1-0.4-0.3-0.6-0.4-0.5-0.6-0.9-0.9-1.6-1.2-0.9-0.3-1.1-0.9-2.1-0.8 0.4-1.5-0.4-1.6 0.5-3.9 0.3-0.7 1.5-1 2-2.4 1.8 0 0.9-1.3 1.4-1.9 2.6-0.3 6 0.1 6.8-1.5l1.4 1.3c0 0 0.3 0.4 0.1 0.7-0.3 0.4-0.2 1.2-0.5 1.5-0.3 0.4 0.2 0.7 0.3 1.1-0.2 0.4-0.1 0.7-0.1 1.1 0 0.4-0.2 0.7-0.4 1-0.3 0.3-0.3 0.8 0.2 1.1 0.2 0.5 0.1 0.8 0.4 1.2q0.5 0.4 0.5 1.1c-0.1 0.2-0.5 0.6 0 0.9 0.4 0 1 0.8 1.1 0.9 0.2 0 0.2 0.3 0.4 0.5 0.1 0.2 0 1.4 0.1 1.7 0.1 0.3 0 0.9 0.2 1.1 0.2 0.2 0.6 0.4 0.4 0.7 0.1 0.5 0.4 0.9 0.8 1.3 0.3 0.5 0.8 1 1.1 1.5 0 0.3 0 0.6-0.3 0.8-0.2 0.1-0.5 0-0.8 0.2-0.3 0.1-0.5 0.4-0.8 0.4-0.4 0-0.4-0.4-0.7-0.4-0.3 0-0.7-0.1-1 0z"/>
		<path id="map_ohiggins_Coltauco" fill-rule="evenodd" class="map-ohiggins s1" data-siglaregion="LI" data-sigla="coltauco" data-nombre="Coltauco" d="m107.6 41.6c-0.1-0.7-0.7-0.6-1.2-0.6-0.2-0.1-1.4-0.5-2.6-0.6-2.1 0.3-2.6-0.6-3.2-0.8-0.1 0-0.9 1.2-2.6 1.8-0.1 0.6-0.4 1.2-0.7 1.8-0.1 0.5-0.6 0.8-0.8 1.2-0.2 0.5-0.2 1-0.4 0.8 0.1 0.1 0.2 1.2-0.3 1.4-0.3 0.1-0.4 0.4-0.3 0.5 0.2 0.5-0.7 0.7-1.3 1.2-0.3 0.6-0.1 1.6-0.9 1.5-0.2 0.1-0.4 0.1-0.6 0.2-0.4 0.3-0.4 0.7-0.9 0.5-0.2-0.3-0.3-0.4-0.7-0.3-0.2 0.2-0.4 0.4-0.6 0.6-0.3 0.1-0.6 0.2-0.9-0.1-0.2-0.2-0.5-0.3-0.8-0.2-0.4 0.4-0.7 0.8-2.1 0.9 0 0 0.3 0.4 0.1 0.7-0.3 0.4-0.2 1.2-0.5 1.5-0.3 0.4 0.2 0.7 0.3 1.1-0.2 0.4-0.1 0.7-0.1 1.1 0 0.4-0.2 0.7-0.4 1-0.3 0.3-0.3 0.8 0.2 1.1 0.2 0.5 0.1 0.8 0.4 1.2q0.5 0.4 0.5 1.1c-0.1 0.2-0.5 0.6 0 0.9 0.4 0 1 0.8 1.1 0.9 0.2 0 0.2 0.3 0.4 0.5 0.1 0.2 0 1.4 0.1 1.7 0.1 0.3 0 0.9 0.2 1.1 0.2 0.2 0.6 0.4 0.4 0.7 0.1 0.5 0.4 0.9 0.8 1.3 0.3 0.5 0.8 1 1.1 1.5 0.3 0.6 0.9-0.5 0.4-1.6-1.7 0.2-1-1.9-1.8-2.7 0.3-1.8 1.3-1.2 1.5-2.5 0.9-0.8 0.3-2.2 1.4-2.8 0.9-0.6 0.4-0.7 3.1-1.8 1 0.7 2 0.6 2.7-0.4 0.9-0.6 2.1-0.7 2.9-1.5 0.5-0.2 0.1-1.2 1-1.4 1.1-0.6 1.7-1.6 2.5-2.3 0.3-0.4 1.4-1.2 0.3-1.1-0.8-0.5 1-1.6-0.2-2.2-0.6-0.4-0.7-0.4 0.1-0.4 1.2-0.1 0.8-2.1 2-2.3 0.6-0.1 1-1.3 0.3-1.3z"/>
		<path id="map_ohiggins_Donihue" fill-rule="evenodd" class="map-ohiggins s1" data-siglaregion="LI" data-sigla="donihue" data-nombre="Doñihue" d="m105.8 50.8c0.1-0.1 0.2-0.4 0.4-0.5 0.3-0.2 0.5-0.3 0.8-0.4q0.2-0.1 0.4-0.2 0.2 0 0.4 0 0.2-0.1 0.3-0.2 0.1-0.1 0-0.4c0.2 0.1 0.4 0 0.5-0.1q0.2-0.2 0.4-0.5 0.1-0.3 0.3-0.5c0.1-0.2 0.3-0.3 0.5-0.3 0.3-0.2 0.5-0.2 1.2-0.6q0.3-0.1 0.4-0.3 0.2-0.2 0.3-0.4 0-0.2 0.2-0.4 0.2-0.1 0.5 0c1.4 0 2.7 0 4.1 0q0.2-0.3 0.5-0.5 0.2-0.2 0.5-0.3 0.3-0.2 0.6-0.3 0.2-0.2 0.5-0.5 0.2-0.1 0.2-0.2 0.1-0.1 0.1-0.3 0.1-0.1 0.2-0.3 0.1-0.1 0.3-0.1-0.3-0.4-0.5-0.5-0.2-0.2-0.4-0.3c-0.3-0.1-0.5-0.1-0.7-0.3-0.3-0.2-0.9-0.5-1.1-0.8-0.1-0.2-0.2-0.4-0.3-0.6 0-0.2-0.1-0.3-0.3-0.5q-0.2-0.1-0.2-0.2 0-0.2 0-0.3 0-0.2-0.1-0.3-0.1-0.1-0.3-0.2c-0.3-0.2-0.6-0.4-0.9-0.6-0.3-0.2-0.6-0.4-0.9-0.6q0 0.1-0.2 0.2-0.1 0-0.3-0.1-0.3-0.2-0.8-0.7-0.2-0.2-0.4-0.3c-0.4 0.3-1.7 0.6-2.6 1.5-0.5-0.2-2.5 2.1-3 2.1 0.5 0 1.1-0.1 1.2 0.6l-0.1 2.9c0.7 0 0.3 1.2-0.3 1.3-1.2 0.2-0.8 2.2-2 2.3-0.8 0-0.7 0-0.1 0.4 1.2 0.6-0.6 1.7 0.2 2.2 0.3 0 0.4 0 0.5 0.1z"/>
		<path id="map_ohiggins_Coinco" fill-rule="evenodd" class="map-ohiggins s1" data-siglaregion="LI" data-sigla="coinco" data-nombre="Coinco" d="m95.8 57.4c0 0.1 0.1 0.2 0.1 0.2q-0.1 0.2-0.1 0.4-0.1 0.1 0 0.2 0 0.2 0.3 0.2 0.2 0.2 0.4 0.4 0.2 0.2 0.4 0.4 0.1 0.2 0.3 0.4 0.1 0.2 0.4 0.4 0.2 0 0.4-0.2 0.1-0.2 0.3-0.4 0.1-0.2 0.3-0.3 0.3-0.1 0.6 0 0.2-0.1 0.4-0.2 0.2-0.1 0.4-0.1 0.3 0 0.5 0.1 0.2 0.1 0.3 0.3 0.3 0.1 0.6 0.2 0.2 0.2 0.5 0.4 0.2 0.2 0.5 0.3 0.2 0.1 0.5 0c0.3-0.1 0.4-0.3 0.6-0.4 0.1-0.2 0.2-0.4 0.4-0.5q0.3-0.1 0.6-0.2 0.3 0 0.6 0.1 0.5 0.1 0.8-0.1 0.4-0.2 0.6-0.5 0.4 0.1 0.7-0.1 0.3-0.1 0.5-0.3c0.4-0.4 0.6-0.8 0.9-1.1q0.1-0.1 0.2 0 0.1 0 0.2 0c0.2 0.1 0.3 0.3 0.4 0.3q0.3-0.2 0.4-0.4 0.2-0.2 0.2-0.4 0-0.3 0-0.6 0-0.3 0.2-0.6c0.3-0.5 0.7-1.6 0.8-1.6q0.1 0 0.3 0 0.2 0 0.4 0.1c0.1 0 0.4 0 0.7 0q0.2 0 0.3-0.1 0.1-0.1 0.2-0.2c0-0.5 0.3-1 0.3-1.5 0.1-0.2 0.1-0.4 0.2-0.7 0.1-0.2 0.2-0.4 0.3-0.5 0.1 0 0.3 0.1 0.5 0.2 0.2 0.1 0.4 0.2 0.7 0.1q0.2 0 0.3 0.1 0.1 0.1 0.1 0.3 0.1 0.1 0.1 0.3 0.1 0.1 0.2 0.2 0.4 0 0.6 0 0.3-0.1 0.5-0.3 0.1 0 0-0.2 0-0.1-0.1-0.2c-0.2-0.1-0.4-0.3-0.5-0.3q0-0.2 0-0.4-0.1-0.1-0.1-0.2-0.1-0.2 0-0.3 0-0.1 0.2-0.2l0.1-1h-1.3l-0.8-0.6v-2.3q-0.9 0-1.8 0-0.3-0.1-0.5 0-0.2 0.2-0.2 0.4-0.1 0.2-0.3 0.4-0.1 0.2-0.4 0.3c-0.7 0.4-0.9 0.4-1.2 0.6-0.2 0-0.4 0.1-0.5 0.3q-0.2 0.2-0.3 0.5-0.2 0.3-0.4 0.5c-0.1 0.1-0.3 0.2-0.5 0.1q0.1 0.3 0 0.4-0.1 0.1-0.3 0.2-0.2 0-0.4 0-0.2 0.1-0.4 0.2c-0.3 0.1-0.5 0.2-0.8 0.4-0.2 0.1-0.3 0.4-0.4 0.5 0 0.3-0.6 0.7-0.8 1-0.8 0.7-1.4 1.7-2.5 2.3-0.9 0.2-0.5 1.2-1 1.4-0.8 0.8-2 0.9-2.9 1.5-0.7 1-1.7 1.1-2.7 0.4-0.1 0 0 0-0.1 0z"/>
		<path id="map_ohiggins_Olivar" fill-rule="evenodd" class="map-ohiggins s1" data-siglaregion="LI" data-sigla="olivar" data-nombre="Olivar" d="m116 48.9c0 0 0.5-0.4 1.2-0.8q0.5-0.3 1.1-0.5 0.3-0.1 0.6-0.2 0.3 0 0.6 0.1 0.5 0.1 0.8 0 0.4-0.1 0.6-0.3c0.2-0.2 0.3-0.4 0.3-0.4 0 0 0.3 0 0.6-0.1q0.3 0 0.5-0.1 0.3-0.1 0.4-0.4c0.1-0.1 0.2-0.2 0.2-0.2q0.1 0 0.2 0.1 0 0.2 0.3 0.2c0.1 0.1 0.3 0.1 0.6 0 1.4-0.4 2.9-0.9 2.9-0.9 0 0 0.5 0.1 0.9 0.1q0.4 0 0.7-0.1 0.2 0 0.3-0.1 0.1-0.1 0.1-0.2 0.1-0.2 0.3-0.3c0.2-0.1 0.4-0.1 0.6-0.1q0.4 0.1 0.6 0.1 0.3 0.1 0.4 0.2c0 0.2-0.8-0.5-1.7-1.2-0.4-0.4-0.9-0.7-1.3-1q-0.2-0.1-0.5-0.2-0.2-0.1-0.3 0c-1.1 0-2.8-0.1-4.4 0-0.8 0.1-1.6 0.2-2.3 0.4q-0.5 0.1-1 0.4 0 0 0 0 0 0 0.1 0.1-0.2 0-0.3 0.1-0.1 0.2-0.2 0.3 0 0.2-0.1 0.3 0 0.1-0.2 0.2-0.3 0.3-0.5 0.5-0.3 0.1-0.6 0.3-0.3 0.1-0.5 0.3-0.3 0.2-0.5 0.5-1.1 0-2.3 0v2.3l0.8 0.6z"/>
		<path id="map_ohiggins_Rancagua" fill-rule="evenodd" class="map-ohiggins s1" data-siglaregion="LI" data-sigla="rancagua" data-nombre="Rancagua" d="m130.3 44.8q0.5 0.3 1 0.6 0.2 0 0.2-0.2-0.1-0.1-0.1-0.3-0.1-0.2 0-0.4 0-0.2 0.1-0.3c0.1-0.2 0.3-0.3 0.5-0.5 0.2-0.1 0.5-0.2 0.6-0.4q0.2-0.2 0.2-0.5c0-0.2 0-0.4-0.1-0.6q0.1-0.3 0.3-0.5 0.1-0.3 0.4-0.5 0.2-0.2 0.3-0.5 0.2-0.2 0.2-0.5 0.2-0.3 0.4-0.3 0.2-0.1 0.4-0.1 0.3 0 0.5 0 0.2-0.1 0.3-0.3 0.3-0.2 0.3-0.6 0-0.3-0.1-0.6 0-0.3-0.1-0.6-0.1-0.2-0.4-0.4 0.1-0.3 0-0.5 0-0.1-0.2-0.3-0.1-0.2-0.3-0.3-0.1-0.2-0.2-0.5-0.6-0.4-1.1-0.7-0.4-0.4-0.7-0.7c-0.2-0.2-0.4-0.5-0.5-0.8q-0.1-0.2-0.3-0.4-0.1-0.2-0.4-0.3-0.3 0-0.5 0-0.3 0-0.5 0.1c-0.4 0-0.7 0.2-1 0.2q-0.9 0-1.5 0.2-0.6 0.1-1 0.2-0.4 0.1-0.8 0.1-0.4 0-0.9-0.1c-0.1-0.3-0.2-0.5-0.3-0.8-0.1-0.3-0.1-0.5-0.3-0.8q-0.4 0.1-0.6 0-0.3-0.1-0.4-0.3-0.1-0.2-0.1-0.4-0.1-0.3-0.3-0.4-0.2-0.2-0.2-0.4 0.1-0.2 0.2-0.5 0.1 0 0.1-0.1 0 0-0.1-0.2c-0.1-0.1-0.3-0.3-0.3-0.3v-3.8c0 0-0.1 0.1-0.4 0q-0.2-0.1-0.6-0.3-0.3-0.3-0.7-0.8c-0.1-0.1-0.2-0.1-0.2-0.1-0.1 0-0.2 0.1-0.3 0.1-1.9-1-3.7-0.5-5.5 0.7-2.6 0.1 0.6 4.7-2.2 4.4-3.4-0.8-4.4 3.6-2.6 5.8 0.2 0.4 1.1 1.6 1.4 1.8 0.2 0.1 0.2 0.2 0.1 0.3q0.2 0.1 0.4 0.3 0.5 0.5 0.8 0.7 0.2 0.1 0.3 0.1 0.2-0.1 0.2-0.2c0.3 0.2 0.6 0.4 0.9 0.6 0.3 0.2 0.6 0.4 0.9 0.6q0.2 0.1 0.3 0.2 0.1 0.1 0.1 0.3 0 0.1 0 0.3 0 0.1 0.2 0.2c0.2 0.2 0.3 0.3 0.3 0.5 0.1 0.2 0.2 0.4 0.3 0.6 0.2 0.3 0.8 0.6 1.1 0.8 0.2 0.2 0.4 0.2 0.7 0.3q0.2 0.1 0.4 0.3 0.2 0.1 0.4 0.4 0 0 0 0 0.5-0.3 1-0.4c0.7-0.2 1.5-0.3 2.3-0.4 1.6-0.1 3.3 0 4.4 0q0.1-0.1 0.3 0 0.3 0.1 0.5 0.2c0.4 0.3 0.9 0.6 1.3 1 0.9 0.7 1.7 1.4 1.7 1.2q-0.1-0.1-0.4-0.2 0 0-0.1 0z"/>
		<path id="map_ohiggins_Graneros" fill-rule="evenodd" class="map-ohiggins s1" data-siglaregion="LI" data-sigla="graneros" data-nombre="Graneros" d="m134.7 36.1l1.3-5.2-0.7-1 0.6-1.5 0.4-2c-0.3 0-0.4-0.1-0.6 0-0.2 0-0.5 0.1-1 0.3l-1.5-0.3h-2.5l0.1-0.7 0.8-1q0.2-0.1 0.3-0.3 0-0.1 0-0.4c0-0.2-0.1-0.6-0.2-0.9q-0.2 0.2-0.3 0.4-0.2 0.1-0.4 0.2c-0.2 0.1-0.5 0.1-0.5 0.1 0-0.1-0.2-0.2-0.4-0.3-0.3-0.1-0.5-0.1-0.6-0.2-0.5-0.4-0.8-0.8-1.2-1.1q-0.2-0.2-0.5-0.4-0.4-0.1-0.8-0.1c-0.2 0-0.4-0.1-0.5-0.2-0.2-0.1-0.4-0.2-0.6-0.2q-0.5 0-0.7-0.1c-0.1-0.1-0.2-0.1-0.3-0.2q-0.1-0.2-0.3-0.3c-0.1-0.1-0.3-0.2-0.7-0.3-0.3-0.2-0.5-0.3-0.8-0.5 0.2 0.6-0.3 1.1-0.9 1.5-0.3 0.1 0.7 2-1.1 2.9 0 0 0.1 0 0.2 0.1q0.4 0.5 0.7 0.8 0.4 0.2 0.6 0.3c0.3 0.1 0.4 0 0.4 0v3.8c0 0 0.2 0.2 0.3 0.3q0.1 0.2 0.1 0.2 0 0.1-0.1 0.1-0.1 0.3-0.2 0.5 0 0.2 0.2 0.4 0.2 0.1 0.3 0.4 0 0.2 0.1 0.4 0.1 0.2 0.4 0.3 0.2 0.1 0.6 0c0.2 0.3 0.2 0.5 0.3 0.8 0.1 0.3 0.2 0.5 0.3 0.8q0.5 0.1 0.9 0.1 0.4 0 0.8-0.1 0.4-0.1 1-0.2 0.6-0.2 1.5-0.2c0.3 0 0.6-0.2 1-0.2q0.2-0.1 0.5-0.1 0.2 0 0.5 0 0.3 0.1 0.4 0.3 0.2 0.2 0.3 0.4c0.1 0.3 0.3 0.6 0.5 0.8q0.3 0.3 0.7 0.7 0.5 0.3 1.1 0.7 0.1 0.2 0.2 0.4z"/>
		<path id="map_ohiggins_Quinta_de_Tilcoco" fill-rule="evenodd" class="map-ohiggins s1" data-siglaregion="LI" data-sigla="quinta_de_tilcoco" data-nombre="Quinta de Tilcoco" d="m97.6 60q0 0 0 0.1 0.3 0.3 0.5 0.5 0.2 0.3 0.6 0.5c0 0 0 0.1-0.1 0.1-0.1 0.1-0.2 0.1-0.3 0.1q-0.1 0.3-0.1 0.5 0 0.3 0.1 0.6-0.2 0.2-0.2 0.4c-0.1 0.2 0 0.4 0 0.6q-0.1 0.1-0.2 0.2c0 0 0 0.1 0 0.2 0 0.5-0.1 0.8 0.1 1.3q0.2 0.3 0.6 0.4 0.3 0.1 0.7 0.1 0.4 0.1 0.6 0.1 0.3 0.1 0.6 0 0.3-0.1 0.6-0.1 0.4 0.1 0.7 0.2c0.2 0.3 0.3 0.6 0.5 1q0.2 0.1 0.3 0.3 0.1 0.2 0.2 0.4 0.1 0.2 0.2 0.4 0.2 0.2 0.4 0.4c0.4-0.1 0.7-0.3 1.1-0.4q0.3 0.1 0.5 0.1 0.2 0 0.4-0.1c0.3-0.1 0.5-0.3 0.8-0.3 0.2 0 0.4-0.1 0.5-0.2 0.1-0.2 0.2-0.3 0.4-0.4 0 0 0.3-0.5 0.3-0.6 0-0.1 0-0.2 0-0.2 0 0 0 0 0.1-0.1q0.3 0.2 0.4 0.2 0.2 0.1 0.3 0.1c0.2-0.1 0.4-0.3 0.7-0.4q0.2-0.4 0.6-0.6 0.3-0.2 0.6-0.4 0.3-0.2 0.4-0.5 0.2-0.2 0.2-0.5c0.1-0.3 0.1-0.3 0.2-0.6 0-0.2 0.1-0.2 0.2-0.3 0.1 0 0.1-0.1-0.1-0.3 0.1-0.3 0.2-0.5 0.3-0.8 0-0.2 0.1-0.5 0-0.7q-0.6-0.3-1.2-0.7c0-0.3 0-0.7 0-1-0.2-0.1-0.3-0.2-0.5-0.3q0-0.5 0-1c0-0.1-0.1-0.2-0.2-0.2-0.1-0.1-0.2-0.2-0.1-0.4 0-0.2 0-0.3 0-0.5q-0.1-0.1-0.3-0.2-0.1 0-0.2 0-0.1-0.1-0.2 0c-0.3 0.3-0.5 0.7-0.9 1.1q-0.2 0.2-0.5 0.3-0.3 0.2-0.7 0.1-0.2 0.3-0.6 0.5-0.3 0.2-0.8 0.1-0.3-0.1-0.6-0.1-0.3 0.1-0.6 0.2c-0.2 0.1-0.3 0.3-0.4 0.5-0.2 0.1-0.3 0.3-0.6 0.4q-0.3 0.1-0.5 0-0.3-0.1-0.5-0.3-0.3-0.2-0.5-0.4-0.3-0.1-0.6-0.2-0.1-0.2-0.3-0.3-0.2-0.1-0.5-0.1-0.2 0-0.4 0.1-0.2 0.1-0.4 0.2-0.3-0.1-0.6 0-0.2 0.1-0.3 0.3-0.2 0.2-0.3 0.4-0.2 0.2-0.4 0.2 0 0 0 0z"/>
		<path id="map_ohiggins_San_Vicente" fill-rule="evenodd" class="map-ohiggins s1" data-siglaregion="LI" data-sigla="san_vicente" data-nombre="San Vicente de Tagua Tagua" d="m101.7 84.2q0.1-0.1 0.1-0.1 0.2-0.2 0.3-0.3c0.1-0.1 0.3-0.2 0.5-0.3q0.1-0.2 0.2-0.3 0-0.1 0-0.2c0-0.3 0-0.4 0.1-0.5 0.1-0.1 0.2-0.2 0.3-0.4q0.1-0.6 0.4-0.8 0.1-0.2 0.3-0.2 0.2-0.1 0.5-0.1c0.2 0.1 0.5 0.1 0.7 0.3q0.1 0 0.1 0.1c0 0 0.2-0.1 0.3-0.1 0.1-0.1 0.2-0.2 0.3-0.3q0.2-0.1 0.5-0.2 0.2-0.1 0.5 0c0.3 0 0.8 0 1-0.1q-0.1-0.3-0.3-0.6-0.1-0.3-0.1-0.7 0-0.4 0.2-0.7 0.1-0.2 0.5-0.4c0.1-0.5 0.1-0.9 0.2-1.4q-0.1-0.3-0.2-0.6-0.1-0.2-0.1-0.6 0-0.4-0.2-0.9-0.1-0.4-0.4-0.8c-0.1-0.2-0.2-1.2-0.3-1.5-0.1-0.1 0-0.3 0-0.5q0-0.2-0.1-0.3-0.1-0.1-0.3-0.2c-0.1 0-0.3 0.1-0.5 0.2-0.1 0.1-0.3 0.2-0.4 0.1-0.1 0-0.4 0.1-0.6 0.2q-0.1 0.2-0.3 0.2-0.1 0.1-0.2 0.1c-0.3-0.1-0.6-0.4-0.8-0.6-0.2-0.2-0.5-0.5-0.9-0.7-0.3-0.2-0.6-0.2-1-0.3q-0.2-0.1-0.5-0.2-0.2-0.1-0.4-0.3-0.1-0.2-0.4-0.4-0.2-0.1-0.5-0.1-0.1-0.1-0.2-0.2-0.1-0.1-0.1-0.2c0-0.2 0-0.4 0.1-0.5 0.6-0.6 0.8-0.7 0.8-0.9 0-0.2-0.1-0.3-0.1-0.8 0.1 0 0-0.1-0.1-0.2 0-0.1-0.1-0.3-0.1-0.4 0-0.1 0.1-0.2 0.2-0.3q0.3-0.1 0.6-0.2c0.2 0 0.4 0 0.7 0q-0.1-0.1-0.2-0.2-0.3-0.1-0.7-0.2-0.3 0-0.6 0.1-0.3 0.1-0.6 0-0.2 0-0.6-0.1-0.4 0-0.7-0.1-0.4-0.1-0.6-0.4c-0.2-0.5-0.1-0.8-0.1-1.3 0-0.1 0-0.2 0-0.2q0.1-0.1 0.2-0.2c0-0.2-0.1-0.4 0-0.6q0-0.2 0.2-0.4-0.1-0.3-0.1-0.6 0-0.2 0.1-0.5c0.1 0 0.2 0 0.3-0.1 0.1 0 0.1-0.1 0.1-0.1q-0.4-0.2-0.6-0.5-0.2-0.2-0.5-0.5 0-0.1 0-0.1-0.3-0.2-0.4-0.4-0.2-0.2-0.3-0.4-0.2-0.2-0.4-0.4-0.2-0.2-0.4-0.4-0.3 0-0.3-0.2-0.1-0.1 0-0.2 0-0.2 0.1-0.4c0 0-0.1-0.1-0.1-0.2-2.6 1.1-2.1 1.2-3 1.8-1.1 0.6-0.5 2-1.4 2.8-0.2 1.3-1.2 0.7-1.5 2.5 0.8 0.8 0.1 2.9 1.8 2.7 0.5 1.1-0.1 2.2-0.4 1.6 0 0.3 0 0.6-0.3 0.8-0.2 0.1-0.5 0-0.8 0.2-0.3 0.1-0.5 0.4-0.8 0.4-0.4 0-0.4-0.4-0.7-0.4-0.3 0-0.7-0.1-1 0-0.3 0-0.3 0.2-0.6-0.3-0.1 0.4-0.8 1.1-0.9 1.5-0.1 0.5-0.6 0.9-1.4 1-0.5 0-0.9-0.2-1.3-0.2-0.6 0-1.1 0.2-1.6 0.6-0.6 0.7 0 1.3-0.4 2.2 0.2 0.6 0.6 1.3 0.3 2-0.5 0.4-1.2 0.9-1.5 1.4q0-0.1 0-0.1 0 0.4-0.2 0.7-0.1 0.4-0.3 0.7-0.2 0.4-0.4 0.7c-0.1 0.8-0.3 1.6-0.3 2.3-0.5 0.4-1.1 0.7-1.6 1.1q-0.1 0.3-0.2 0.6-0.1 0.4-0.4 0.6-0.3 0.3-0.5 0.6-0.1 0.3-0.3 0.7 0 0.2 0 0.3 0 0.1 0.1 0.2 0.2 0.1 0.5 0.2c0.3 0 0.4 0.1 0.5 0.3 0.1 0.1 0.2 0.3 0.4 0.4 0.2 0.2 0.5 0.5 0.7 0.7q0.2 0.2 0.3 0.4 0.1 0.2 0.1 0.3c-0.1 0-0.1 0.1-0.1 0.1 0.1 0.1 0.2 0.2 0.5 0.4q0.2 0.2 0.4 0.3 0.2 0.1 0.4 0.1c0.1-0.1 0.2-0.2 0.4-0.3 0.1-0.2 0.3-0.3 0.4-0.3 0.2 0 0.3-0.2 0.4-0.3q0.1 0 0.1-0.1 0.1 0 0.3 0.1c0.3 0.2 0.6 0.3 0.9 0.7 0.4 0.3 0.4 0.4 0.5 0.7 0.1 0.2 0.3 0.2 0.5 0.3 0.1 0 0.3 0.1 0.3 0.2q0 0.1 0 0.1c0.1-0.1 0.3-0.1 0.3-0.2 0.5-0.2 0.9-0.5 1.3-0.7 0.6 0.1 1 0.1 1.4 0 0.3 0 0.7-0.1 1.1-0.2 0.2 0 0.4 0 0.6 0 0.3 0 0.4 0.1 0.5 0.2q0.1 0.1 0.2 0.2c0.1 0 0.1-0.1 0.2-0.2 0.1-0.1 0.3-0.2 0.4-0.3 0.4-0.1 0.9-0.2 2.2-0.6 0-0.4 0-0.5 0.1-0.6 0.1-0.1 0.1-0.3 0.1-0.6 0.2-0.2 0.3-0.4 0.4-0.5q0.3-0.1 0.7-0.1c0.3 0 0.4 0 0.5 0 0.1-0.1 0.1-0.2 0.3-0.4q0.3-0.2 0.6-0.3 0.3-0.1 0.6-0.1c0.4-0.1 0.7-0.1 1.1-0.2 0.1-0.2 0.3-0.4 0.5-0.5 0.2-0.2 0.5-0.3 0.8-0.3 0.5 0 0.7 0 0.8-0.1 0.2-0.1 0.3-0.2 0.6-0.3 0.2-0.1 0.5-0.2 0.8-0.2 0.3 0 0.6-0.1 0.8-0.1 0.2-0.1 0.3-0.2 0.4-0.3 0.1-0.1 0.2-0.2 0.4-0.3q0.2-0.1 0.3 0 0 0 0 0.2z"/>
		<path id="map_ohiggins_Malloa" fill-rule="evenodd" class="map-ohiggins s1" data-siglaregion="LI" data-sigla="malloa" data-nombre="Malloa" d="m133.3 84.6q-0.1-0.7-0.3-1.4c-0.2-0.2-0.4-0.3-0.6-0.3-0.1-0.1-0.3-0.2-0.4-0.4-0.1-0.2 0-0.7-0.1-0.9-0.1-0.1-0.1-0.2 0-0.4 0-0.1 0-0.2-0.1-0.3-0.3 0-0.6 0-0.9 0-0.3-0.1-0.6-0.1-0.9-0.2q-0.8-0.3-1.5-0.6-0.3-0.1-0.4-0.3-0.1-0.2-0.2-0.6-0.1-0.2-0.3-0.4-0.2-0.2-0.4-0.3c-0.2-0.1-0.5-0.1-0.8-0.2-0.2-0.2-0.5-0.3-0.6-0.5-0.2-0.4-0.5-0.5-0.8-0.9q-0.3-0.4-0.7-0.8-0.8-0.8-1.5-1.7c-0.1-0.3-0.3-0.4-0.4-0.4-0.2-0.1-0.4-0.1-0.6-0.3-0.1-0.1-0.2-0.5-0.3-0.6-0.7-0.2-1.4-0.2-2.1-0.5q-0.3-0.3-0.6-0.5-0.4-0.3-0.8-0.4c-0.2-0.1-0.3-0.3-0.4-0.4q0-0.1-0.1-0.2-0.1 0-0.3 0-0.5 0-1-0.1-0.5 0-1-0.3c-0.2-0.1-0.5-0.1-0.7-0.1q-0.2-0.1-0.3-0.2-0.1-0.1-0.1-0.4c0-0.2 0-0.4 0-0.6-0.1-0.3-0.1-0.5-0.3-0.6 0-0.2 0.2-0.4 0.3-0.5q0-0.2 0-0.3 0-0.1 0-0.2c-0.3-0.1-0.4-0.2-0.5-0.3-0.1-0.2-0.1-0.4-0.2-0.6-0.4 0.1-0.7 0.3-1.1 0.5q-0.3 0.4-0.6 0.4-0.4 0.1-0.8 0c-0.3-0.1-0.6-0.1-0.9-0.1-0.3-0.1-0.6-0.1-0.8-0.2-0.1-0.1-0.3-0.4-0.3-0.6 0-0.3-0.1-0.5-0.2-0.7q0-0.1 0-0.1c-0.2 0.1-0.3 0.2-0.5 0.3q-0.1 0-0.3-0.1-0.1 0-0.4-0.2c-0.1 0.1-0.1 0.1-0.1 0.1 0 0 0 0.1 0 0.2 0 0.1-0.3 0.6-0.3 0.6-0.2 0.1-0.3 0.2-0.4 0.4-0.1 0.1-0.3 0.2-0.5 0.2-0.3 0-0.5 0.2-0.8 0.3q-0.2 0.1-0.4 0.1-0.2 0-0.5-0.1c-0.4 0.1-0.7 0.3-1.1 0.4q-0.2-0.2-0.4-0.4-0.1-0.2-0.2-0.4-0.1-0.2-0.2-0.4-0.1-0.2-0.3-0.3c-0.2-0.3-0.2-0.5-0.3-0.8-0.3 0-0.5 0-0.7 0q-0.3 0.1-0.6 0.2c-0.1 0.1-0.2 0.2-0.2 0.3 0 0.1 0.1 0.3 0.1 0.4 0.1 0.1 0.2 0.2 0.1 0.2 0 0.5 0.1 0.6 0.1 0.8 0 0.2-0.2 0.3-0.8 0.9-0.1 0.1-0.1 0.3-0.1 0.5q0 0.1 0.1 0.2 0.1 0.1 0.2 0.2 0.3 0 0.5 0.1 0.3 0.2 0.4 0.4 0.2 0.2 0.4 0.3 0.3 0.1 0.5 0.2c0.4 0.1 0.7 0.1 1 0.3 0.4 0.2 0.7 0.5 0.9 0.7 0.2 0.2 0.5 0.5 0.8 0.6q0.1 0 0.2-0.1 0.2 0 0.3-0.2c0.2-0.1 0.5-0.2 0.6-0.2 0.1 0.1 0.3 0 0.4-0.1 0.2-0.1 0.4-0.2 0.5-0.2q0.2 0.1 0.3 0.2 0.1 0.1 0.1 0.3c0 0.2-0.1 0.4 0 0.5 0.1 0.3 0.2 1.3 0.3 1.5q0.3 0.4 0.4 0.8 0.2 0.5 0.2 0.9 0 0.4 0.1 0.6 0.1 0.3 0.2 0.6c-0.1 0.5-0.1 0.9-0.2 1.4q-0.4 0.2-0.5 0.4-0.2 0.3-0.2 0.7 0 0.4 0.1 0.7 0.2 0.3 0.3 0.6 0 0 0 0c0.4 0 0.8 0.1 1.2 0 0.1-0.4 0.3-0.8 0.5-1.2q0.2-0.2 0.3-0.5 0.2-0.2 0.3-0.5c0.3 0 0.5 0.1 0.6 0.1q0.2 0 0.3 0 0.1-0.1 0.3-0.2c0.2-0.1 0.3-0.1 0.5-0.1 0.1 0 0.2-0.1 0.3-0.3q-0.1-0.2-0.1-0.4 0-0.1 0.2-0.3 0.3 0 0.5-0.1 0.3 0 0.6-0.1c0.2-0.2 0.5-0.4 0.7-0.7q0.4 0.3 0.6 0.6 0.2 0.2 0.2 0.4 0.1 0.2 0.1 0.5c-0.1 0-0.1 0.1 0 0.2 0 0 0.1 0.1 0.1 0.2 0.8 0.1 1.3 0.2 1.6 0.2 0.3 0.1 0.5 0 0.9 0 0.1 0 0.1-0.1 0.2-0.1 0 0 0.1 0 0.2 0.1 0.3 0.5 0.4 1 0.6 1.4q0 0.3 0.1 0.4 0.1 0.2 0.3 0.4 0 0.1 0.2 0.2 0.1 0.2 0.2 0.3c0.3 0.2 0.8 0.6 1.2 0.8 0.3 0.1 0.5 0.1 0.7 0.2 0.2 0 0.4 0.1 0.7 0.2 0.1 0.2 0.5 0.6 0.6 0.7q0.3 0.2 0.4 0.4 0.1 0.3 0.2 0.5c0.2 0.3 0.5 0.5 0.7 0.8 0.3 0.1 1 0.1 1.8 0.1q0.3-0.1 0.5 0 0.2 0.1 0.4 0.3c0.2 0.3 0.3 0.5 0.4 0.8q0 0.2 0.1 0.2 0 0.1 0.1 0.1c0.1 0 0.3 0 0.5 0.1 0.1 0.1 0.2 0.4 0.2 0.5q0.3 0.1 0.6 0.2 0.2 0.1 0.5 0 0.2 0 0.3-0.2 0.2-0.1 0.3-0.4 0.3-0.2 0.5-0.2 0.2 0 0.5 0.2 0 0.2 0.1 0.3 0 0.1 0 0.3-0.1 0.1 0 0.2 0.2 0 0.2 0.1 0.1 0.2 0.3 0.3 0.1 0 0.3 0c0.2-0.2 0.2-0.4 0.4-0.6 0.1-0.2 0.2-0.4 0.3-0.5 0-0.1 0.2-0.1 0.3-0.2q0.1 0 0.1 0 0-0.1-0.1-0.2c0-0.2 0-0.3 0.1-0.3 0-0.1 0.1-0.2 0.2-0.3 0.1-0.2 0.1-0.4 0.2-0.5 0-0.1 0-0.2 0.2-0.4q0.1-0.1 0.2-0.1z"/>
		<path id="map_ohiggins_Rengo" fill-rule="evenodd" class="map-ohiggins s1" data-siglaregion="LI" data-sigla="rengo" data-nombre="Rengo" d="m156.4 89.1c0-0.6 0.1-1.2 0.1-1.7 0.1-0.3 0.1-0.5 0-0.7q-0.1-0.2-0.2-0.3-0.1-0.1-0.4-0.1c-0.2-0.1-0.5-0.1-0.8-0.1q-0.2 0-0.3-0.2-0.1-0.1-0.1-0.4 0.1-0.1 0-0.3-0.1-0.1-0.3-0.3-0.1-0.1-0.1-0.2-0.1-0.2 0.1-0.4 0.4-0.2 0.5-0.6 0.1-0.4 0.2-0.8 0.1-0.2 0.1-0.4-0.1-0.2-0.2-0.4-0.1-0.2-0.1-0.4-0.1-0.2 0-0.4c0.1-0.6 0.2-1.2 0.4-1.8q-0.2-0.4-0.4-0.8-0.1-0.4-0.1-0.8 0-0.2-0.1-0.3 0-0.1-0.2-0.2c-0.2-0.1-0.5-0.1-0.7-0.1-0.4-0.2-0.7-0.3-1.2-0.4-0.2 0.1-0.3 0.3-0.5 0.4-0.1 0.2-0.3 0.3-0.5 0.3q-0.1 0.1-0.2 0.2-0.1 0-0.2-0.1-0.3-0.1-0.5-0.3c-0.3-0.3-0.6-0.7-0.7-0.7-0.3 0-0.5 0.1-0.7 0.3-0.3 0.3-0.7 0.4-1.1 0.6-0.2 0.1-0.3 0.2-0.4 0.2q-0.1 0.1-0.3-0.1-0.7-0.4-1.3-0.9c-0.2-0.4-0.2-0.8-0.3-1.2 0-0.2-0.1-0.4-0.2-0.5-0.1-0.2-0.2-0.4-0.2-0.6q0-0.7 0-1.3 0-0.3-0.1-0.3-0.1-0.1-0.3-0.1-0.7 0-1.5 0c-0.2 0-0.4-0.1-0.6-0.1-0.2-0.1-0.4-0.2-0.7-0.2-0.4 0-0.8 0.1-1.1 0.3-0.4-0.1-1-0.4-1.1-0.4q-0.1 0.4-0.4 0.6-0.3 0.2-0.6 0.3c-0.3 0.2-0.5 0.4-0.7 0.6q-0.2 0.2-0.4 0.3-0.2 0.1-0.5 0.1c-0.2 0-0.4-0.2-0.5-0.4-0.2-0.1-0.3-0.3-0.5-0.5 0-0.4 0.1-0.8 0.1-1.2 0.1-0.3 0.2-0.3 0.3-0.6 0.2-0.4 0.2-0.8 0.2-1.3-0.2-0.2-0.4-0.5-0.5-0.8 0-0.4 0.2-0.7 0.3-1q0.1-0.2 0.2-0.4 0-0.3-0.1-0.6-0.1-0.1-0.3-0.1-0.1-0.1-0.3-0.1-0.1 0-0.3 0-0.1-0.1-0.3-0.2c-0.2-0.1-0.4-0.1-0.6-0.1-0.2 0.1-0.4 0.2-0.6 0.2q-0.3-0.1-0.6-0.3-0.3-0.2-0.5-0.4c-0.3-0.3-0.6-0.5-0.9-0.7-0.3-0.2-0.6-0.3-0.8-0.6q-0.2-0.2-0.3-0.2-0.1 0-0.3 0.2 0 0.2-0.1 0.3-0.1 0.1-0.3 0.1-0.2 0-0.6-0.1c-0.2-0.3-0.5-0.5-0.8-0.6-0.3-0.2-0.6-0.4-0.9-0.6q-0.3-0.2-0.6-0.3-0.3-0.2-0.5-0.5-0.3-0.2-0.4-0.5-0.2-0.2-0.3-0.5c-0.1-0.4-0.2-0.8-0.4-1.2-0.3-0.3-0.6-0.4-0.9-0.5-0.4-0.1-0.8-0.2-1.1-0.3-0.5 0-0.9 0.1-1.4 0q-0.2-0.3-0.4-0.6-0.2-0.2-0.6-0.5c-0.3-0.1-0.5-0.1-0.7-0.1q-0.2 0-0.3-0.1-0.1-0.1-0.2-0.3c0-0.4 0.1-0.8 0.2-1.1 0.1-0.4 0.2-0.7 0.1-1.1l-6.4-1.9-2.5-0.4-0.1-0.7c-0.1 0-0.3 0-0.3 0q-0.2-0.1-0.4-0.1-0.2 0-0.3 0c-0.1 0-0.5 1.1-0.8 1.6q-0.2 0.3-0.2 0.6 0 0.3 0 0.6 0 0.2-0.2 0.4-0.1 0.2-0.4 0.4 0 0-0.1-0.1c0 0.2 0 0.3 0 0.5-0.1 0.2 0 0.3 0.1 0.4 0.1 0 0.2 0.1 0.2 0.2q0 0.5 0 1c0.2 0.1 0.3 0.2 0.5 0.3 0 0.3 0 0.7 0 1q0.6 0.4 1.2 0.7c0.1 0.2 0 0.5 0 0.7-0.1 0.3-0.2 0.5-0.3 0.8 0.2 0.2 0.2 0.3 0.1 0.3-0.1 0.1-0.2 0.1-0.2 0.3-0.1 0.3-0.1 0.3-0.2 0.6q0 0.3-0.2 0.5-0.1 0.3-0.4 0.5-0.3 0.2-0.6 0.4-0.4 0.2-0.6 0.6c-0.1 0-0.1 0-0.2 0.1q0 0 0 0.1c0.1 0.2 0.2 0.4 0.2 0.7 0 0.2 0.2 0.5 0.3 0.6 0.2 0.1 0.5 0.1 0.8 0.2 0.3 0 0.6 0 0.9 0.1q0.4 0.1 0.8 0 0.3 0 0.6-0.4c0.4-0.2 0.7-0.4 1.1-0.5 0.1 0.2 0.1 0.4 0.2 0.6 0.1 0.1 0.2 0.2 0.5 0.3q0 0.1 0 0.2 0 0.1 0 0.3c-0.1 0.1-0.3 0.3-0.3 0.5 0.2 0.1 0.2 0.3 0.3 0.6 0 0.2 0 0.4 0 0.6q0 0.3 0.1 0.4 0.1 0.1 0.3 0.2c0.2 0 0.5 0 0.7 0.1q0.5 0.3 1 0.3 0.5 0.1 1 0.1 0.2 0 0.3 0 0.1 0.1 0.1 0.2c0.1 0.1 0.2 0.3 0.4 0.4q0.4 0.1 0.8 0.4 0.3 0.2 0.6 0.5c0.7 0.3 1.4 0.3 2.1 0.5 0.1 0.1 0.2 0.5 0.3 0.6 0.2 0.2 0.4 0.2 0.6 0.3 0.1 0 0.3 0.1 0.4 0.4q0.7 0.9 1.5 1.7 0.4 0.4 0.7 0.8c0.3 0.4 0.6 0.5 0.8 0.9 0.1 0.2 0.4 0.3 0.6 0.5 0.3 0.1 0.6 0.1 0.8 0.2q0.2 0.1 0.4 0.3 0.2 0.2 0.3 0.4 0.1 0.4 0.2 0.6 0.1 0.2 0.4 0.3 0.7 0.3 1.5 0.6c0.3 0.1 0.6 0.1 0.9 0.2 0.3 0 0.6 0 0.9 0 0.1 0.1 0.1 0.2 0.1 0.3-0.1 0.2-0.1 0.3 0 0.4 0.1 0.2 0 0.7 0.1 0.9 0.1 0.2 0.3 0.3 0.4 0.4 0.2 0 0.4 0.1 0.6 0.3q0.2 0.7 0.3 1.4c0.1-0.1 0.3-0.1 0.4-0.1 0.3 0 0.7 0 1 0q0.6 0 1.1 0c0.3-0.1 0.4-0.4 0.7-0.5 0.5 0 1 0.1 1.5 0.2 0.2 0.1 0.3 0.2 0.3 0.3 0.1 0.2 0.1 0.3 0.2 0.5 0 0.1 0.6 0.4 0.8 0.6 0.1 0.3 0 0.7 0.2 1q0.3 0.3 0.3 0.5 0 0.2-0.1 0.5c-0.2 0.3-0.2 0.5-0.3 0.8q-0.1 0.3 0 0.5 0.1 0.2 0.3 0.4 0.3-0.1 0.5 0 0.3 0.1 0.5 0.2 0.3 0 0.3-0.1 0.1 0 0.1-0.1c0-0.1 0-0.3 0-0.4 0.1-0.2 0.3-0.3 0.5-0.5 0.4 0 0.7 0 1.1-0.1 0.4-0.2 0.7-0.5 1.1-0.7 0.2-0.1 0.3-0.2 0.4-0.2 0.1-0.1 0.2-0.1 0.4-0.1 0.2 0.1 1 0 1.2 0q0.2 0 0.2 0.2c0.1 0 0.1 0.1 0.1 0.2q0.2 0.2 0.4 0.2 0.1 0.1 0.3 0.1c0.2-0.1 0.4-0.1 0.6-0.1 0.1 0.2 0.2 0.4 0.3 0.5 0.1 0 0.2 0.1 0.5 0.1 0.1 0 0.2 0.3 0.2 0.5 0 0.2 0 0.5 0.1 0.6 0 0.1 0.2 0.1 0.4 0.1 0.2 0.1 0.3 0.1 0.4 0.1q0.4 0.4 0.8 0.6 0.5 0.2 1 0.3c0.1-0.1 0.3-0.2 0.4-0.4 0.1-0.1 0.2-0.3 0.3-0.5q0-0.1 0.1-0.1 0.1 0 0.3 0c0.2 0 0.4 0 0.5 0 0.2-0.1 0.3-0.1 0.4-0.2 0.2 0 0.3 0 0.4 0.1q0.3 0.1 0.5 0.3 0.2 0.2 0.3 0.4 0.2 0.1 0.4 0.3 0.2 0.2 0.5 0.2c0.1-0.2 0.5-0.5 0.6-0.7 0.1-0.3 0.2-0.4 0.2-0.6 0.1-0.1 0.2-0.3 0.4-0.4q0 0 0 0z"/>
		<path id="map_ohiggins_Requinoa" fill-rule="evenodd" class="map-ohiggins s1" data-siglaregion="LI" data-sigla="requinoa" data-nombre="Requinoa" d="m150.1 76.9q0.2-0.2 0.4-0.4 0.1-0.2 0.3-0.5c0.2-0.3 0.3-0.7 0.5-1.1 0.4-0.4 0.6-0.8 0.9-1.2 0.3-0.4 0.6-0.7 1.1-1q0.3-0.9 0.4-1.7c0.2-0.5 0.3-1 0.6-1.5q0.1-0.3 0.3-0.6 0.2-0.3 0.5-0.6c0.2-0.4 0.4-0.7 0.6-1.1q0.2-0.2 0.5-0.4 0.3-0.2 0.7-0.4c0.1-0.8 0.1-1.6 0.1-2.4 0.2-0.6 0.3-1.2 0.5-1.7 0.2-0.3 0.2-0.5 0.2-0.8-0.2-0.5-0.4-1-0.6-1.4q-0.2-0.4-0.5-0.7-0.2-0.3-0.5-0.5-0.5-0.4-0.9-0.8-0.4-0.5-0.7-1.1-0.3-0.3-0.6-0.6-0.3-0.1-0.4-0.3-0.2-0.2-0.3-0.5c0-0.2-0.1-0.4-0.2-0.7-0.1-0.2-0.3-0.4-0.5-0.6 0-0.1-1.4-0.3-1.7-0.3-0.1 0-0.4 0.1-0.7 0.1q-0.3 0-0.5-0.1-0.2-0.1-0.4-0.3-0.1-0.2-0.4-0.3-0.2-0.1-0.5-0.1c-0.3-0.1-0.7-0.1-0.7-0.1-0.1 0 0-0.1 0-0.2 0 0 0-0.1-0.2-0.3-0.2-0.1-0.6-0.2-1.3-0.4-0.7-0.1-1.8-0.3-3.3-0.5l-4.4-3.1h-0.6l-3.2-3.1h-3l-0.2-0.2c0 0 0 0-0.1 0q-0.5-0.3-1-0.6-0.2 0-0.5-0.1c-0.2 0-0.4 0-0.6 0.1q-0.2 0.1-0.3 0.3 0 0.1-0.1 0.2-0.1 0.1-0.3 0.1-0.3 0.1-0.7 0.1c-0.4 0-0.9-0.1-0.9-0.1 0 0-1.5 0.5-2.9 0.9-0.3 0.1-0.5 0.1-0.6 0q-0.3 0-0.3-0.2-0.1-0.1-0.2-0.1c0 0-0.1 0.1-0.2 0.2q-0.1 0.3-0.4 0.4-0.2 0.1-0.5 0.1c-0.3 0.1-0.6 0.1-0.6 0.1 0 0-0.1 0.2-0.3 0.4q-0.2 0.2-0.6 0.3-0.3 0.1-0.8 0-0.3-0.1-0.6-0.1-0.3 0.1-0.6 0.2-0.6 0.2-1.1 0.5c-0.7 0.4-1.2 0.8-1.2 0.8h0.3l-0.1 1q-0.2 0.1-0.2 0.2-0.1 0.1 0 0.3 0 0.1 0.1 0.2 0 0.2 0 0.4c0.1 0 0.3 0.2 0.5 0.3q0.1 0.1 0.1 0.2 0.1 0.2 0 0.2-0.2 0.2-0.5 0.3-0.2 0-0.6 0-0.1-0.1-0.2-0.2 0-0.2-0.1-0.3 0-0.2-0.1-0.3-0.1-0.1-0.3-0.1c-0.3 0.1-0.5 0-0.7-0.1-0.2-0.1-0.4-0.2-0.5-0.2-0.1 0.1-0.2 0.3-0.3 0.5-0.1 0.3-0.1 0.5-0.2 0.7 0 0.5-0.3 1-0.3 1.5q-0.1 0.1-0.2 0.2-0.1 0.1-0.3 0.1-0.2 0-0.4 0l0.1 0.7 2.5 0.4 6.4 1.9c0.1 0.4 0 0.7-0.1 1.1-0.1 0.3-0.2 0.7-0.2 1.1q0.1 0.2 0.2 0.3 0.1 0.1 0.3 0.1c0.2 0 0.4 0 0.7 0.1q0.4 0.3 0.6 0.5 0.2 0.3 0.4 0.6c0.5 0.1 0.9 0 1.4 0 0.3 0.1 0.7 0.2 1.1 0.3 0.3 0.1 0.6 0.2 0.9 0.5 0.2 0.4 0.3 0.8 0.4 1.2q0.1 0.3 0.3 0.5 0.1 0.3 0.4 0.5 0.2 0.3 0.5 0.5 0.3 0.1 0.6 0.3c0.3 0.2 0.6 0.4 0.9 0.6 0.3 0.1 0.6 0.3 0.8 0.6q0.4 0.1 0.6 0.1 0.2 0 0.3-0.1 0.1-0.1 0.1-0.3 0.2-0.2 0.3-0.2 0.1 0 0.3 0.2c0.2 0.3 0.5 0.4 0.8 0.6 0.3 0.2 0.6 0.4 0.9 0.7q0.2 0.2 0.5 0.4 0.3 0.2 0.6 0.3c0.2 0 0.4-0.1 0.6-0.2 0.2 0 0.4 0 0.6 0.1q0.2 0.1 0.3 0.2 0.2 0 0.3 0 0.2 0 0.3 0.1 0.2 0 0.3 0.1 0.1 0.3 0.1 0.6-0.1 0.2-0.2 0.4c-0.1 0.3-0.3 0.6-0.3 1 0.1 0.3 0.3 0.6 0.5 0.8 0 0.5 0 0.9-0.2 1.3-0.1 0.3-0.2 0.3-0.3 0.6 0 0.4-0.1 0.8-0.1 1.2 0.2 0.2 0.3 0.4 0.5 0.5 0.1 0.2 0.3 0.4 0.5 0.4q0.3 0 0.5-0.1 0.2-0.1 0.4-0.3c0.2-0.2 0.4-0.4 0.7-0.6q0.3-0.1 0.6-0.3 0.3-0.2 0.4-0.6c0.1 0 0.7 0.3 1.1 0.4 0.3-0.2 0.7-0.3 1.1-0.3 0.3 0 0.5 0.1 0.7 0.2 0.2 0 0.4 0.1 0.6 0.1q0.8 0 1.5 0 0.2 0 0.3 0.1 0.1 0 0.1 0.3 0 0.6 0 1.3c0 0.2 0.1 0.4 0.2 0.6 0.1 0.1 0.2 0.3 0.2 0.5 0.1 0.4 0.1 0.8 0.3 1.2q0.6 0.5 1.3 0.9 0.2 0.2 0.3 0.1c0.1 0 0.2-0.1 0.4-0.2 0.4-0.2 0.8-0.3 1.1-0.6 0.2-0.2 0.4-0.3 0.7-0.3 0 0 0.1 0.1 0.1 0.1z"/>
		<path id="map_ohiggins_Machali" fill-rule="evenodd" class="map-ohiggins s1" data-siglaregion="LI" data-sigla="machali" data-nombre="Machalí" d="m168.5 21q-0.3 0-0.6 0.1c-0.3 0.2-0.6 0.6-0.9 0.8q-0.3 0.2-0.5 0.3-0.3 0.2-0.6 0.2-0.3 0.3-0.3 0.7-0.1 0.3 0 0.7c-0.1 0.2-0.3 0.3-0.5 0.3-0.2 0.1-0.4 0.1-0.6 0.2q-0.3 0.1-0.6 0.2-0.3 0.2-0.5 0.5-0.4 0-0.7-0.1-0.3-0.1-0.6-0.3c-0.3-0.1-0.5-0.1-0.7 0-0.2 0-0.4 0.1-0.7 0.1q-0.4 0-0.6-0.1-0.3-0.1-0.6-0.4-0.2 0-0.4 0.2-0.2 0.1-0.3 0.2c-0.2 0.2-0.4 0.5-0.7 0.7q-0.3 0.2-0.5 0.4-0.2 0.2-0.3 0.6c-0.1 0.2 0 0.8 0 0.9q-0.1 0.2-0.2 0.2-0.2 0.1-0.3 0.1c-0.2 0-0.4 0-0.7 0.1-0.2 0.1-0.4 0.1-0.6 0.2-0.2 0-0.4 0-0.7 0.2q-0.3 0.2-0.7 0.2-0.3 0.1-0.7 0c-0.2 0-1.3-0.2-1.3-0.1q-0.2 0.3-0.4 0.4-0.2 0.1-0.4 0.1-0.2 0.1-0.4 0.2-0.3 0-0.5 0.2-0.3 0.1-0.4 0.4-0.1 0.2-0.2 0.5c0 0.4-0.1 0.6-0.2 0.7-0.1 0.1-0.3 0.1-0.6 0.1 0 0.2-0.1 0.5-0.2 0.7q-0.2 0.3-0.4 0.7-0.2 0.4-0.6 0.7c-0.2 0.2-0.5 0.5-0.7 0.7q-0.1 0.3-0.2 0.6-0.1 0.3-0.3 0.6c-0.2 0.2-0.3 0.5-0.3 0.7l-0.6 0.7v1.2l-3.9 0.8-6.5-0.7c0.2 0.1 0.3 0.2 0.3 0.3q0.1 0.3 0.1 0.6 0.1 0.3 0.1 0.6 0 0.4-0.3 0.6-0.1 0.2-0.3 0.3-0.2 0-0.5 0-0.2 0-0.4 0.1-0.2 0-0.4 0.3 0 0.3-0.2 0.5-0.1 0.3-0.3 0.5-0.3 0.2-0.4 0.5-0.2 0.2-0.3 0.5c0.1 0.2 0.1 0.4 0.1 0.6q0 0.3-0.2 0.5c-0.1 0.2-0.4 0.3-0.6 0.4-0.2 0.2-0.4 0.3-0.5 0.5q-0.1 0.1-0.1 0.3-0.1 0.2 0 0.4 0 0.2 0.1 0.3 0 0.1-0.1 0.2l0.2 0.2h3l3.2 3.1h0.6l4.4 3.1c1.5 0.2 2.6 0.4 3.3 0.5 0.7 0.2 1.1 0.3 1.3 0.4 0.2 0.2 0.2 0.3 0.2 0.3 0 0.1-0.1 0.2 0 0.2 0 0 0.4 0 0.7 0.1q0.3 0 0.5 0.1 0.3 0.1 0.4 0.3 0.2 0.2 0.4 0.3 0.2 0.1 0.5 0.1c0.3 0 0.6-0.1 0.7-0.1 0.3 0 1.7 0.2 1.7 0.3 0.2 0.2 0.4 0.4 0.5 0.6 0.1 0.3 0.2 0.5 0.2 0.7q0.1 0.3 0.3 0.5 0.1 0.2 0.4 0.3 0.3 0.3 0.6 0.6 0.3 0.6 0.7 1.1 0.4 0.4 0.9 0.8 0.3 0.2 0.5 0.5 0.3 0.3 0.5 0.7c0.2 0.4 0.4 0.9 0.6 1.4 0 0.3 0 0.5-0.2 0.8-0.2 0.5-0.3 1.1-0.5 1.7 0 0.8 0 1.6-0.1 2.4q-0.4 0.2-0.7 0.4-0.3 0.2-0.5 0.4c-0.2 0.4-0.4 0.7-0.6 1.1q-0.3 0.3-0.5 0.6-0.2 0.3-0.3 0.6c-0.3 0.5-0.4 1-0.6 1.5q-0.1 0.8-0.4 1.7c-0.5 0.3-0.8 0.6-1.1 1-0.3 0.4-0.5 0.8-0.9 1.2-0.2 0.4-0.3 0.8-0.5 1.1q-0.2 0.3-0.3 0.5-0.2 0.2-0.4 0.4c0.1 0.1 0.3 0.3 0.6 0.6q0.2 0.2 0.5 0.3 0.1 0.1 0.2 0.1 0.1-0.1 0.2-0.2c0.2 0 0.4-0.1 0.5-0.3 0.2-0.1 0.3-0.3 0.5-0.4 0.5 0.1 0.8 0.2 1.2 0.4 0.2 0 0.5 0 0.7 0.1q0.2 0.1 0.2 0.2 0.1 0.1 0.1 0.3 0 0.4 0.1 0.8 0.2 0.4 0.4 0.8c-0.2 0.6-0.3 1.2-0.4 1.8q-0.1 0.2 0 0.4 0 0.2 0.1 0.4 0.1 0.2 0.2 0.4 0 0.2-0.1 0.4-0.1 0.4-0.2 0.8-0.1 0.4-0.5 0.6-0.2 0.2-0.1 0.4 0 0.1 0.1 0.2 0.2 0.2 0.3 0.3 0.1 0.2 0 0.3 0 0.3 0.1 0.4 0.1 0.2 0.3 0.2c0.3 0 0.6 0 0.8 0.1q0.3 0 0.4 0.1 0.1 0.1 0.2 0.3c0.1 0.2 0.1 0.4 0 0.7 0 0.5-0.1 1.1-0.1 1.7 0.2-0.1 0.5-0.2 0.9-0.3 0.4-0.1 0.9-0.1 1.1-0.1q0.2-0.2 0.4-0.3c0.2-0.1 0.3-0.1 0.6-0.1 0.3-0.1 0.5 0 0.7 0.1 0.2 0.1 0.4 0.3 0.6 0.4 0.3 0 0.6 0 0.8 0 0.3 0.1 0.5 0.2 0.7 0.4 0 0.1 0.2 0.3 0.4 0.6 0.2 0.2 0.4 0.4 0.4 0.5q0.2 0 0.4-0.1 0.1-0.1 0.3-0.3c0.2 0.1 0.4 0.3 0.5 0.4 0.1 0.2 0.3 0.4 0.5 0.6 0 0.2 0.1 0.3 0.3 0.4 0.1 0.1 0.3 0.2 0.6 0.4q0 0.3 0.1 0.5 0.2 0.2 0.4 0.4-0.3 0.2-0.4 0.4-0.1 0.2-0.1 0.4-0.1 0.4 0 0.6 0.1 0.3 0.3 0.5c0.1 0.1 0.2 0.2 0.3 0.2 0 0 0.1 0.1 0.2 0.2 0 0.3 0 0.5-0.1 0.7q0 0.1 0 0.2 0 0.2 0.2 0.3c0 0 0.2-0.1 0.4-0.3 0.2-0.2 0.3-0.4 0.3-0.4 0.2-0.2 0.4-0.2 0.6-0.3 0.1 0 0.3-0.1 0.5-0.3 0-0.3 0.2-0.8 0.4-1.1q0.1-0.3 0.3-0.5 0.2-0.2 0.5-0.3c0.3 0.1 0.5 0.3 0.7 0.5 0.2 0.2 0.4 0.4 0.6 0.6 0.2 0.1 0.3 0.2 0.5 0.3 0.1 0 0.3 0.1 0.5 0.2q0.1 0.2 0.2 0.3 0.2 0.2 0.4 0.2c0.2 0.1 0.3 0.3 0.3 0.5q0.1 0.4 0.2 0.7c0.1 0.3 0.3 0.6 0.5 0.9 0.3 0.1 0.4 0.2 0.6 0.3 0.1 0 0.2 0.2 0.2 0.5q0 0.3 0 0.6 0.1 0.2 0.3 0.4c0.2 0.3 0.2 0.7 0.3 0.9 0.5 0.1 0.9 0.3 1.3 0.5q0.2 0.4 0.5 0.6 0.3 0.1 0.6 0.3c0.1 0 0.2 0 0.3 0.1l2.7-1.9 0.1-2c-1-3.5-0.2-2.7-0.4-3.7-0.1-0.6 1-5.3 1.3-3.9 0 0.1 1-2.8 1.4-2.9 0.3-0.1 1.2 0.4 1.3-0.3 0.2-1.5 1.4-3.5 1.9-3.9 0.5-0.8 0.7-1.6 0.7-1.8 0-0.2 0.8-1.7 1.2-2.7 0.5-0.9 0.8-2.4 0.9-2.9 0.1-0.7 0.6 1 2.1-0.2 0.9-0.2 1.1-1.5 2.8-3.2 0.9 0.6 1.3-0.6 1.4-1 0.8-0.4-0.4-1.2 0.2-1.7 0.5-0.3 1.1-0.3 1.6-0.6 1.7-0.9 2.4-1.2 2-3.3-0.2-1-1.9-1.7-1.1-4.5 0.7-2.2-0.1-4.8-0.1-5.3 0.2-0.8-2.3-1.5 0-2l0.2-0.1q-1-1-2-2c-0.6-1.7-0.8-3-0.4-3.5-0.2-0.6-0.4-1.3 0-2-2.1-1.7-0.3-1.9-1.7-2v-0.8l-1.2-0.6-0.5 0.6c-0.9 0-2 0.3-2.7-0.2-0.1-0.9 0-2-1.9-1.2l-1.3-1.1c0-1-0.6-2.7-1.6-2.3-0.7-0.1-0.5-0.3-0.6-0.6 1.2-0.3 0.5-1.3 0.3-2.1 0.7-1 3.5-2.6 1.3-2.5-0.6 0.1-0.7-0.4-0.8-0.9-0.9-0.5-0.8-1.4 0-1.9l-1.1-1.9-0.2-2.1 0.2-1.4-1.1-1.3-1.7-0.1-0.9-0.2-3.1 0.3c0.2 1.3-0.9 1.7-0.6 3q-0.1 0.1-0.2 0.1c-0.6 0.3-0.9 1-1.2 1.1q-0.1 0.1-0.1 0.1-0.1 0-0.3 0c-0.8-0.6-1.3-0.8-1.9-1.4-0.5 0.1-0.8 0.3-1 0.4q-0.1 0.1-0.2 0.1-0.3 0.1-0.5-0.1l-0.2 0.5-0.6-0.4c-0.3-1-0.8-0.7-1.2-0.1-1.5-0.4-1.7-1.1-1.5-1.9-1.3-0.5 0.8-0.4 0-1.8l0.7-0.6c1.3-0.5 1.1-1 0.6-1.6q0 0 0 0z"/>
		<path id="map_ohiggins_Codegua" fill-rule="evenodd" class="map-ohiggins s1" data-siglaregion="LI" data-sigla="codegua" data-nombre="Codegua" d="m135.3 37.4l6.5 0.7 3.9-0.8v-1.2l0.6-0.7c0-0.2 0.1-0.5 0.3-0.7q0.2-0.3 0.3-0.6 0.1-0.3 0.2-0.6c0.2-0.2 0.5-0.5 0.7-0.7q0.4-0.3 0.6-0.7 0.2-0.4 0.4-0.7c0.1-0.2 0.2-0.5 0.2-0.7 0.3 0 0.5 0 0.6-0.1 0.1-0.1 0.2-0.3 0.2-0.7q0.1-0.3 0.2-0.5 0.1-0.3 0.4-0.4 0.2-0.2 0.5-0.2 0.2-0.1 0.4-0.2 0.2 0 0.4-0.1 0.2-0.1 0.4-0.4c0-0.1 1.1 0.1 1.3 0.1q0.4 0.1 0.7 0 0.4 0 0.7-0.2c0.3-0.2 0.5-0.2 0.7-0.2 0.2-0.1 0.4-0.1 0.6-0.2 0.3-0.1 0.5-0.1 0.7-0.1q0.1 0 0.3-0.1 0.1 0 0.2-0.2c0-0.1-0.1-0.7 0-0.9q0.1-0.4 0.3-0.6 0.2-0.2 0.5-0.4c0.3-0.2 0.5-0.5 0.7-0.7q0.1-0.1 0.3-0.2 0.2-0.2 0.4-0.2 0.3 0.3 0.6 0.4 0.2 0.1 0.6 0.1c0.3 0 0.5-0.1 0.7-0.1 0.2-0.1 0.4-0.1 0.7 0q0.3 0.2 0.6 0.3 0.3 0.1 0.7 0.1 0.2-0.3 0.5-0.5 0.3-0.1 0.6-0.2c0.2-0.1 0.4-0.1 0.6-0.2 0.2 0 0.4-0.1 0.5-0.3q-0.1-0.4 0-0.7 0-0.4 0.3-0.7 0.3 0 0.6-0.2 0.2-0.1 0.5-0.3c0.3-0.2 0.6-0.6 0.9-0.8q0.3-0.1 0.6-0.1 0 0 0 0-0.1-0.1-0.1-0.1c0.6-0.4 0.7-0.9 0-1.5l-0.1-1.7h-1.3l-0.9-0.9c0-0.9 1-2.2-0.8-2.2l-0.8-0.9c0-0.5-0.3-0.9-0.6-1.2q-0.2 0.1-0.2 0.3-0.1 0.4 0 0.6 0.1 0.3 0.2 0.6 0.1 0.3 0.1 0.5 0.1 0.3 0 0.6c-0.3 0.5-0.5 0.9-0.6 1.5-0.2 0.1-0.3 0.3-0.5 0.5q-0.2 0.2-0.2 0.6 0 0.5-0.1 0.9 0 0.3-0.2 0.7-0.2 0.5-0.4 1.1-0.2 0.5-0.6 0.9c-0.1 0.1-0.3 0.2-0.5 0.3-0.2 0.1-0.5 0.2-0.6 0.1-0.5-0.2-0.8-0.3-1.2-0.3-0.3-0.1-0.6 0-1.1 0-0.7 0-1.2-0.3-1.9-0.3-0.4 0-0.9 0.1-1.1 0.1-0.3 0.1-0.6 0.2-0.9 0.4q-0.3 0-0.5 0.2-0.2 0.1-0.4 0.3c0 0.3-0.1 0.4-0.2 0.5-0.2 0-0.3 0.1-0.4 0.3-0.1 0.4-0.1 0.8-0.1 1.2q0 0.3-0.1 0.6-0.1 0.2-0.2 0.5c-0.1 0-0.4 0-0.6 0-0.2 0-0.4 0-0.4-0.2q-0.1-0.2-0.2-0.3-0.1-0.1-0.4-0.1c-0.7-0.1-1.5 0-2.2-0.1-0.3-0.1-0.5-0.3-0.7-0.4-0.2-0.2-0.4-0.4-0.7-0.5q-0.3 0.1-0.5 0.3-0.2 0.1-0.4 0.3-0.2 0.1-0.5 0.2-0.2 0.1-0.5 0.1-0.9 0-1.8 0-0.4 0.1-0.8 0.2-0.4 0-0.9 0-0.5 0-0.8 0-0.4 0-0.6-0.2-0.2-0.1-0.4-0.3-0.2-0.3-0.4-0.8-0.2-0.3-0.4-0.5-0.2-0.2-0.6-0.3c-0.5-0.2-1.1-0.1-1.7-0.3-0.3-0.2-0.5-0.4-0.8-0.5q-0.2-0.1-0.5-0.1-0.2 0-0.5 0c-0.2 0.1-0.3 0.3-0.4 0.5-0.2 0.1-0.3 0.3-0.5 0.3-0.3 0-0.5 0-0.8 0-0.2 0-0.4 0.1-0.6 0.3q-0.4 0.1-0.7 0.2c0 0.1-0.1 0.2-0.2 0.2 0.1 0.3 0.2 0.6 0.2 0.8q0 0.3 0 0.4-0.1 0.2-0.3 0.3l-0.8 1-0.1 0.7h2.5l1.5 0.3c0.5-0.2 0.8-0.3 1-0.3 0.2-0.1 0.3 0 0.6 0l-0.4 2-0.6 1.5 0.7 1-1.3 5.2q0 0 0 0.1 0.2 0.1 0.3 0.3 0.2 0.2 0.2 0.3 0.1 0.2 0 0.5c0.1 0 0.1 0.1 0.1 0.1z"/>
		<path id="map_ohiggins_Mostazal" fill-rule="evenodd" class="map-ohiggins s1" data-siglaregion="LI" data-sigla="mostazal" data-nombre="Mostazal" d="m131.7 23.2c0.1 0 0.2-0.1 0.2-0.2q0.3-0.1 0.7-0.2c0.2-0.2 0.4-0.3 0.6-0.3 0.3 0 0.5 0 0.8 0 0.2 0 0.3-0.2 0.5-0.3 0.1-0.2 0.2-0.4 0.4-0.5q0.3 0 0.5 0 0.3 0 0.5 0.1c0.3 0.1 0.5 0.3 0.8 0.5 0.6 0.2 1.2 0.1 1.7 0.3q0.4 0.1 0.6 0.3 0.2 0.2 0.4 0.5 0.2 0.5 0.4 0.8 0.2 0.2 0.4 0.3 0.2 0.2 0.6 0.2 0.3 0 0.8 0 0.5 0 0.9 0 0.4-0.1 0.8-0.2 0.9 0 1.8 0 0.3 0 0.5-0.1 0.3-0.1 0.5-0.2 0.2-0.2 0.4-0.3 0.2-0.2 0.5-0.3c0.3 0.1 0.5 0.3 0.7 0.5 0.2 0.1 0.4 0.3 0.7 0.4 0.7 0.1 1.5 0 2.2 0.1q0.3 0 0.4 0.1 0.1 0.1 0.2 0.3c0 0.2 0.2 0.2 0.4 0.2 0.2 0 0.5 0 0.6 0q0.1-0.3 0.2-0.5 0.1-0.3 0.1-0.6c0-0.4 0-0.8 0.1-1.2 0.1-0.2 0.2-0.3 0.4-0.3 0.1-0.1 0.2-0.2 0.2-0.5q0.2-0.2 0.4-0.3 0.2-0.2 0.5-0.2c0.3-0.2 0.6-0.3 0.9-0.4 0.2 0 0.7-0.1 1.1-0.1 0.7 0 1.2 0.3 1.9 0.3 0.5 0 0.8-0.1 1.1 0 0.4 0 0.7 0.1 1.2 0.3 0.1 0.1 0.4 0 0.6-0.1 0.2-0.1 0.4-0.2 0.5-0.3q0.4-0.4 0.6-0.9 0.2-0.6 0.4-1.1 0.2-0.4 0.2-0.7 0.1-0.4 0.1-0.9 0-0.4 0.2-0.6c0.2-0.2 0.3-0.4 0.5-0.5 0.1-0.6 0.3-1 0.6-1.5q0.1-0.3 0-0.6 0-0.2-0.1-0.5-0.1-0.3-0.2-0.6-0.1-0.2 0-0.6 0-0.2 0.2-0.3c-0.1-0.2-0.3-0.3-0.5-0.5-0.1-1.1-0.6-1.6 0.3-1.4-0.2-0.9 0.3-0.9 0.6-1.2-0.6-0.7-0.4-1.1-0.3-1.5-0.2-0.2-0.4-0.2-0.4-1.3-1.1-0.3-1.2-0.8-1.7 0.1-1.4-0.8-2-1.5-2-2.2q-0.4-0.2-0.6-0.4-0.1-0.1-0.2-0.2-0.1-0.2-0.1-0.4-1.1 0-1.2-0.5c-0.1 0.5-0.3-0.8-1.1 1-1 0.7-0.8-0.5-1.6 0l-0.4 0.4c0.3 0.5 0.1-0.2-1-0.2-1 0.1-2.8-0.1-2.4 1.4-0.5 0.8-1.2 2.3-2.2 1.5-0.7 1-1.4-1.1-2.4-0.4-0.7 0.2-1.1 0-1.4 0.9-0.8 0.5-1.6 1.3-2.3 0.4-1.6 0.1-1.7 0.2-2.3 1.1-0.1 0.3-0.6 0-0.8 0.2-0.5 0.4 0.2 1.3-0.8 1.4-1 0.1-1.1 0.8-1.1 1.5-0.9 0.7-2.1 2.2-2.9 0.6-0.7-0.8-1.7-1.3-1.8-2.3-0.5-0.9-2-1.6-2.6 0-0.6 0.4-0.4 0.6-1 0.7-0.3 0.7-1.8-0.3-1.8 1.1-1.5 1.7-1.9 2.1-2.8 1.3-1.1-0.2-2.6-2.1-3.1-0.3 0.1 1.3-1 1.5-1.9 1.8 0.1 0.5 0 0.8 0.3 0.9 0.3 0.2 0.7 0.7 1 0.9 2 0.3 1 1.2 1.3 2.4q0.3 0.3 0.4 0.6c0.3 0.2 0.5 0.3 0.8 0.5 0.4 0.1 0.6 0.2 0.7 0.3q0.2 0.1 0.3 0.3c0.1 0.1 0.2 0.1 0.3 0.2q0.2 0.1 0.7 0.1c0.2 0 0.4 0.1 0.6 0.2 0.1 0.1 0.3 0.2 0.5 0.2q0.4 0 0.8 0.1 0.3 0.2 0.5 0.4c0.4 0.3 0.7 0.7 1.2 1.1 0.1 0.1 0.3 0.1 0.6 0.2 0.2 0.1 0.4 0.2 0.4 0.3 0 0 0.3 0 0.5-0.1q0.2-0.1 0.4-0.2 0.1-0.2 0.3-0.4 0 0.1 0 0.1z"/>
		<path id="map_ohiggins_Internacional" fill-rule="evenodd" class="map-ohiggins s0" d="m197.5 53.5c-2.3 0.5 0.2 1.2 0 2 0 0.5 0.8 3.1 0.1 5.3-0.8 2.8 0.9 3.5 1.1 4.5 0.4 2.1-0.3 2.4-2 3.3-0.5 0.3-1.1 0.3-1.6 0.6-0.6 0.5 0.6 1.3-0.2 1.7-0.1 0.4-0.5 1.6-1.4 1-1.7 1.7-1.9 3-2.8 3.2-1.5 1.2-2-0.5-2.1 0.2-0.1 0.5-0.4 2-0.9 2.9-0.4 1-1.2 2.5-1.2 2.7 0 0.2-0.2 1-0.7 1.8-0.5 0.4-1.7 2.3-1.9 3.9-0.1 0.7-1 0.1-1.3 0.3-0.4 0.1-1.4 3-1.4 2.9-0.3-1.4-1.4 3.3-1.3 3.9 0.2 1-0.6 0.2 0.4 3.7l-0.1 2-2.9 2c-0.6 1 0.6 0.3-1.1 2.8-0.5 1.5 0.4 1-0.4 1.3-1.4 0.5-3.4 1.7-3.4 2.5 0 0.9-0.3 1.9 0.1 2.5 0.2 0.3 0.9 0.2 1.3 0.4 0.5 0.7 3 1.7 3.9 1.9 0.5 0.6 0.2 2.1-1 4.6-0.5 1-1 1.4-1 1.9 0 0.5 0.3 1.8-0.5 2.4-0.5 0.4-0.3 1.9-0.5 2.5-2.5 2.6-1.6 3.2-2.3 4.7-0.5 0.5-1.4 0.1-1.3 1.4 0.1 2.6 0.5 4 0 4.8-0.1 0.4-0.9 1.7-1.7 1.2"/>
		<path id="map_ohiggins_limite_Valparaiso" fill-rule="evenodd" class="map-ohiggins s2" d="m34.8 16.2c-1.8-0.1-1.5 0.6-2.2 0.9-0.6 0.2 0.1-1.2-0.5-2-0.6-0.8-0.6 0.4-2.3 0.3-0.5-0.1 0.6-2.2 0.3-2.3-1.1-0.2-1.9 3.3-2.8 1-0.4-1-1.8-0.8-2.4-1.7-0.4-0.5-0.4-1.2-2.1 0.7-0.5 0.6-0.8-0.3-1.3-0.6 0.5-0.8 1.7-1.3 0.9-2.7"/>
		<path id="map_ohiggins_limite_Maule" fill-rule="evenodd" class="map-ohiggins s2" d="m3.6 103c0.8 1.3 1.3 0.7 1.9 0.3 0.5 0.3 0.3 1.1 0.5 1.7 0.3 0.7 1.7-0.8 2.1-0.7 1.1 0.1 0.3 0.4 2.2 1.5-0.6 0.6-0.6 0.8-0.8 1.6 0.6 1.5 0.4 1.3 0.5 2 0.4 0.4 0.9 0.7 1.4 1 0.4 0.1 0.9 0.1 1.4 0.2 0.6-0.3 0.8 0.9 1.4 1.5 0.2 0.3 0.5 0.4 0.7 0.6 0 0.8 0.1 1.2 0 2 0.5 0.5 0.8 0.8 1 1.4 0.7 0.6 1.3 1.1 2.1 1.5 0.6 0.2 1.6 0 2.2 0 0.2 0.2 0.3 0.4 0.7 0.5 0.9 0 1.9-0.2 2.7 0.1 0.5 0.3 0.8 0.5 0.8 1-0.2 0.3 0.3 0.8 0.4 0.8 1.4-0.3 1.9-0.1 2.6 0.2 0.5-0.1 1.2-0.6 1.9-1.3-0.7 0.7 0.5-0.2 0.7 0.4 0.2 0.5 2.2 1.1 1 1.4 0.8 0.2 1.3 0.6 0.9 1.7-0.4 0.7 0.8 1.3 1.2 1.8 0.9 0.3 0.1 1.1 0 1 0.9 0.2 1.8 0.6 2.5 1.3-0.1 0.8 1 1 1.1 1.9 0.5 0.5 1 0.8 1.1 1.5 0.7 0.2-0.2 1.7 0.8 1.4 0.8-0.4 1.9-0.1 2.1-1.3 1.1-0.1 0.8-1.5 1.3-2.2 0.3-1.1-1.5-1-1.7-1.6 0.4-0.6 0.3-2 1.3-1.9 0.7-0.6 0.7-1.5 1.2-2.2 0.4-1.2 1.2 0.3 2 0 1 0.1 2.2 0.4 2.9 1.1 0.5 0.5-0.7 1.3 0.4 1.4 1.1 0.4 1.4-1 2.2-1.3 0.6-0.5 1.7 0.1 0.8 0.7 0.8 0.2 1.2-0.2 1.8-0.6 0 0 0.4-0.5 0.8 0.6 0.2 0.6 0.9-0.1 0.6-0.4-0.2-0.2 0.3-0.6 0.3-0.6 0.1 0 0.6 1.2 1.9 0.8 0.7-0.2 0.7 0.7 2.1 1.5 0.4 0.2 1.2-0.1 1.7 0.4 0.6 0.4 1.3 0.9 1.8 0.5 0.4-0.1 0.4-0.6 0.4-1 0.1-0.4 0.3-0.6 0.6-0.8 0.4-0.1 0.8-0.2 1.1-0.5 0.2 0.5 0.2 0.2 0.6 0.7 0.1 0.5 0.3 0.4 0.6 0.8 0.2 0.5 0.3 0.8 0.2 1.1 0.2 0.1 0.3 0.2 0.5 0.2 0.2-0.4 0.2-0.6 0.7-0.7 0.5-0.3 1.1-0.4 1.5 0.1 0.6 0.1 0.7 0.6 1.1 0.9 0.4 0.4 1 0.5 1.6 0.4l0.2-1c0-0.1-0.3-0.4-0.4-0.5-0.3-0.4-0.6 0.1-1-0.3-0.2-0.1-0.2-0.5-0.4-0.7-0.3-0.3-0.1-1.1-0.1-1.5-0.7-0.8-0.4-1-0.1-1.1 0.3-0.3 0.4-0.7 0.6-1.1 0-0.3-0.1-0.7-0.2-1-0.3-0.4-0.1-0.3 0.2-0.6 0.2-0.3-0.1-0.5 0.2-0.9 0.3-0.1 0.3-0.4 0.4-0.6 0.7 0.1 1 0.3 1.1-0.4 0.1-0.3 0.4-0.2 0.6 0 0.5 0.4 0.9 0.4 1.5 0.1 0.5-0.4 1.1-0.5 1.6-0.9 0.8-0.6 0.6-1.5 0.9-2.3 0.2-0.1 0.6-0.6 0.9-0.6 0.4 0.1 1 0 1.5-0.2 0.4-0.2 0.7-0.4 0.7-0.6 0.3 0.4 0.7 0.6 1.1 0.8 0.2 0.1 0.3 0.2 0.4 0.4 0.4 1-0.1 1.7 0 2.7 0.5 0.3 1.2 0.2 1.8 0.4 0.5 0.2 0.4-0.2 0.9-0.3 1.1 0 0.8 0.3 1 0.6 0.7-0.2 0.7 0.6 1.5 0.4 0.1 0 0.4-0.8 1.4-1.4 0.6-0.6 0.5-1.2 0.7-1.9 0.1-0.3 0.5-0.2 0.9-0.3 0.4-0.2 0.8-0.3 1.3-0.2 0.5 0 1.1 0 1.5-0.4-0.1-0.8 0.7-1.2 1.2-1 0.6 0.1 2.8 3.4 3.7 4 0.8-0.1 1.4-0.4 2.1-0.6 0.9-0.2 0.6-0.9 1.4-1.4 0.4-0.5 0.9-1 1.1-1.6 0.1-0.1 1.8 1.8 1.9 1.3 0.8 0.9 0.9 2.1 1.3 2.4 2-0.3 1.8 1.1 2 0.9 0.7-0.6 2.1 1.4 2.7 3 0.9 2.3 1.8 1 4.1-0.1 1.2-0.6 2.2 0 3-0.9 0.6-0.7 1.1-0.1 1.5 0 0.4 0.2 1.5-0.3 1.6-0.1 0.6 0.7 1.4 1 2.2 1.3 1.4 0.8 0.9 0.3 2.2 0.4 0.6 0.1 0.1-1.7 0.2-1.9 0.6 0 2 0.9 2.3 1.1 0-0.2 0.6-0.5 1.1-0.4 0.5 0.1 0.9 0.5 1.5 1.1 0.4 0.3 0.7 0.9 1.2 1 0.5 0.1 0.1 0.7 0.4 1 0.9 0.9 2 1.4 2.5 1.4 0.4 0 0.9 1.2 1.1 2.1 0.1 0.5 0.6 0.4 0.7 0.6 0.4 1 0.8 0.6 1.5 0.6 0.5 0 1.6 2.1 2 3.7 0.3 1.3 0 0.4 2.7 2 1.5 0.8 1.2 1.7 1.7 1.2 0.3-0.3 0.4-0.8 0.5-1.3-0.3-2 0.3-1.9 2.3-2 1.9-0.3 1.9 0.3 2.1-0.5 0.4-1.2-0.9-2 1.5-1.7 0.6 0.1 0.8-0.7 1-0.8 0.4 0-0.2 1.8 0.5 2 0 0.3 1 0 1.4 0.3-0.1 0-0.7 1.1-0.2 1.6 0 0.6 2 0.7 2.9 0.7 0.5 0 0.2 0.7 0.8 1.3 0.5 0.5 0.8 1.1 1.5 1.1 1.4 0 1.3-1.1 1.5-0.9 0.1 0.1 0 0.8 0.8 0.8 0-0.3 1.3-0.6 2.6-0.7 0.7-0.8 0.9-0.2 1.9 0.4 0.7 0.5 0.9 1.3 1.5 1.1 0.4-0.1 0.4-0.7 0.8-0.6 0.5 0 2.7 1.2 3.1 1m-42.9-16.1q0 0 0 0 0.1 0 0 0z"/>
		<path id="map_ohiggins_limite_Metropolitana" fill-rule="evenodd" class="map-ohiggins s2" d="m197.7 53.4q-1-1-2-2c-0.6-1.7-0.8-3-0.4-3.5-0.2-0.6-0.4-1.3 0-2-2.1-1.7-0.3-1.9-1.7-2v-0.8l-1.2-0.6-0.5 0.6c-1 0-2 0.3-2.7-0.2-0.1-0.9 0-2-1.9-1.2l-1.3-1.1c0-1-0.6-2.7-1.6-2.3-0.7-0.1-0.5-0.3-0.6-0.6 1.2-0.3 0.5-1.3 0.3-2.1 0.7-1 3.5-2.6 1.3-2.5-0.6 0.1-0.7-0.4-0.8-0.9-0.9-0.5-0.8-1.4 0-1.9l-1.1-1.9-0.2-2.1 0.2-1.4-1.1-1.3-1.7-0.1-0.9-0.2-3.1 0.3c0.2 1.3-0.9 1.7-0.6 3q-0.1 0.1-0.2 0.1c-0.6 0.3-0.8 1-1.2 1.2q-0.1 0-0.1 0-0.1 0-0.3 0c-0.8-0.6-1.3-0.8-1.9-1.4-0.5 0.1-0.8 0.3-1 0.5q-0.1 0-0.2 0c-0.2 0.1-0.3 0-0.5-0.1l-0.2 0.4-0.6-0.3c-0.3-1-0.8-0.7-1.2-0.1-1.5-0.4-1.7-1.1-1.5-1.9-1.3-0.5 0.8-0.4 0-1.8l0.7-0.6c1.4-0.5 1.1-1.1 0.5-1.7 0.6-0.4 0.7-0.9 0-1.5l-0.1-1.7h-1.3l-0.9-0.9c0-0.9 1-2.2-0.8-2.2l-0.8-0.9c0-0.7-0.4-1.3-1.1-1.7-0.1-1.1-0.6-1.6 0.3-1.4-0.2-0.9 0.3-0.9 0.6-1.2-0.6-0.7-0.4-1.1-0.3-1.5-0.2-0.2-0.4-0.2-0.4-1.3-1.1-0.3-1.2-0.9-1.7 0.1-1.4-0.8-2-1.5-2-2.2q-0.4-0.2-0.6-0.4-0.1-0.1-0.2-0.2-0.1-0.2-0.1-0.4-1.1 0-1.2-0.5c-0.1 0.5-0.3-0.8-1.1 1-1 0.8-0.8-0.5-1.6 0l-0.4 0.4c0.3 0.5 0.1-0.2-1-0.2-1 0.1-2.8-0.1-2.4 1.4-0.5 0.8-1.2 2.3-2.2 1.5-0.7 1.1-1.4-1.1-2.4-0.4-0.7 0.2-1.1 0-1.4 0.9-0.8 0.5-1.6 1.3-2.3 0.4-1.6 0.1-1.7 0.2-2.3 1.1-0.2 0.3-0.6 0-0.8 0.2-0.5 0.4 0.2 1.3-0.8 1.4-1 0.1-1.1 0.8-1.1 1.5-0.9 0.7-2.1 2.2-2.9 0.6-0.7-0.8-1.7-1.3-1.8-2.3-0.5-0.9-2-1.6-2.6 0-0.6 0.4-0.4 0.6-1 0.7-0.3 0.7-1.8-0.3-1.8 1.1-1.5 1.7-1.9 2.2-2.8 1.3-1.1-0.2-2.6-2.1-3.1-0.3 0.1 1.3-1 1.5-1.9 1.8 0.1 0.5 0 0.8 0.3 0.9 0.3 0.2 0.7 0.7 1 0.9 2 0.3 1 1.2 1.3 2.4 0.9 0.8 0.3 1.6-0.5 2.1-0.3 0.1 0.9 2.2-1.4 3-1.9-1-3.7-0.4-5.5 0.7-2.6 0.1 0.6 4.8-2.2 4.4-3.4-0.7-4.4 3.6-2.6 5.8 0.2 0.4 1.1 1.6 1.4 1.8 0.8 0.4-1.2 0.5-2.5 1.8-0.5-0.2-2.5 2.1-3 2.1-0.2-0.1-1.4-0.5-2.6-0.6-2.1 0.3-2.6-0.6-3.2-0.8-0.1 0-0.9 1.2-2.6 1.8-1.5 2.6-3.4-2.3-5.7-1.6-2.5 0-7.4-0.3-8.4-3.2-3-0.6-1.6-3.6-3.7-4.9-1.2-0.3-2.4-0.2-2.2-3.2-0.4-3.3-2-0.9-3.4-3.8 0 1.3-0.7 1.6-1.6 1.8-0.9 0-1.2 1.1-2.3 0.7-0.6 0.5 0.7 1.9-0.8 1.5-1.1-0.2-2.6-0.9-3.4 0.4 0 1.2-1.8-0.6-2.2-1-0.8-0.8-1.1-2.4-0.5-2.9-1.5 0.1-2.7-1-3.5-2.1-0.2 0.4-0.8 0.4-1.4 0.2-0.7-0.1-1.4-0.6-1.9-0.8-1.6-0.4-3.5-0.4-5 0.4-1.2-0.5-1.8-2.4-3.2-3-0.1 1.2-0.3 2.4-1.3 3.2 0.9 0.6 1.5 1.9 0 2-1 1.4-1.6-1.8-2.6-2.2-0.8-1.3-2.5-0.3-3-1.1-0.7-1-2.4-0.6-2.9-0.6-0.4-0.6-0.3-1.5 0.2-2-0.8-1-2.7-0.1-3.7-1.1-1.3-0.1 0.7-1.4-0.7-1.9"/>
	</g>
</svg>