<svg version="1.2" xmlns="http://www.w3.org/2000/svg" viewBox="0 0 200 170" width="200" height="170" style="width: 70%;height: 70%;">
	<style>
		.map-los-rios.s1 { fill: #ffffff;stroke: #757575; stroke-width: .7 }
		.map-los-rios.s2 { fill: none;stroke: #757575;stroke-width: 1.1 }
		.map-los-rios.s3 { fill: none;stroke: #3c3c3c;stroke-width: 1.5 }
	</style>
	<g id="layer_mapa_los_rios" class="layer_mapa_comuna">
		<path id="map_los_rios_Mariquina" fill-rule="evenodd" class="map-los-rios s1" data-siglaregion="LR" data-sigla="mariquina" data-nombre="Mariquina" d="m73.2 2c-0.2 0.4-0.9 1-1.4 1.5-0.7 0.5-1.1 1.4-1.8 1.7-0.5 0.6-1.3 0.2-1.7-0.2-0.7-0.8-1.3-0.8-1.8-1.4-0.9-0.2-1.9-0.3-2.4-0.7-0.8-0.2-1.3 0.8-1.7 0.9-0.7 0-0.6 1.3-1 1.6 0.5 0.9 0.5 0.9 0.3 1.9 0.5 1.3-1.3 0.7-1.5 1.4-0.7 0.7-0.8 1.3-1.4 2.1-0.9 0.6-0.9 1.3-1.3 2.1-0.4 0.6-0.3 1.4-1.1 2-0.5 1-1 0.3-1.9 0.6-0.3 0-1.8-0.4-1.9 0.6-0.5 0.4-0.8 0.9-1.2 1.4-0.3 0.5-1.1 0.7-1.3 0.8-0.9 0.8-1.4-1.2-2.2 0-0.5-0.6-1.3-0.1-1.5-0.3-0.8 0-0.8-1.2-1.6-1.3-0.4-0.7-0.9-0.9-1.9-0.9-0.5 0.6-0.4 1.5 0.7 1 0.6 0.2 0.6 1.1 0.8 1.7-0.6 1 0.5 1.6 0.3 2.6-0.1 0.8 0.3 2.2-0.5 2.3-1-1.1-1.2 0.5-1.6 1-0.7 0.6-1.8-0.3-2.1 0.4-0.5 0.8 0.5 0.9 1 1.3 0.1 0.8 0.7 1 0.7 2 0.4 0.5 0.5 1.9-0.1 2.3-0.8-0.4-2 0.2-0.6 0.6 0.6 0.3 0.8 1.4 0.7 2.3-0.1 0.9-0.7 1.4-1.7 1.2-0.5 0.2-2.1 0.5-0.7 1.2-0.6 0.6-1.5 0.5-1.3 1.5 1 0 0.7 1.5 1 2 0 0.7-0.9 1.4-0.7 1.7 0 0.8-2.1 0.7-1.3 1.5 0.3 1.1-1.2 0.7-1.2 1.5 0 0.8-0.8 1.7-0.1 2.4 0.5 0.5 0.7 1 1.6 1.2 1.2 0.3 1.5-0.3 2.2-0.5 0.7 0.3 1.3 0.6 2.4 0.5 0.6 0.7 1.2-0.3 1.9 0.4 0.9 0.2 0.7 1.5 1 2.1 0.3 0.7 1.1 0.9 1.9 1 0.9-0.5 0.8 0.6 1.2 1.1-0.2 1 0.3 2 0.7 2.6 0.3 0.4-1.3 1.7-0.3 1.2 0.6-0.5 0.7-1.1 1.3-1.5 0.5-0.4 0.9-0.9 1.5-1.2 0.7 0.2 1 0.8 2.1 0.7 1.1 0.2 1.1-0.6 2.1-0.9-0.4-1.3 0.4-1.7 1.4-1.3 1 0.2 1.1-0.7 1.5-1.2 0.7-0.5 0.6-1.2 1-1.7-0.2-1.2 0.3-1.5 0.7-1.9 0.5-0.5 0.3-1.5 1.4-1.5 0.3-0.6 1.5-0.6 1.3-1.5 0.5-0.2 1.1-1.3 1.5-0.3 0.3 0.6 1.1-0.7 1.3-1 0.5-0.1 0.2-2.1 0.9-1 0.3 0.9 1.4 0.3 1.4-0.5 0.2-0.6 0.9-1.1 1.3-1.4 0.5-0.7 1.4-0.4 1.9-0.3 0.4 0.3 0.9 1.6 0.1 1.7 0.1 0.4 1 1.6 1.5 0.8 0.9-0.3 1.4-0.4 2.1-0.4 0.2-0.1 2.2-0.4 2.2 0.4 1 0.5 1.5-0.1 2.2-0.3 0.7-0.3 0.9-0.8 1.3-0.4 0.7-0.6 0.6-1.4 1.7-0.8 0.2 0.7 1.5 0.3 1.8 0.9 0.2 0 1.3-0.8 1.7-0.2 0.9 0.9-0.7 0.8-0.7 1.5-1.2 0.2 0.5 0.4 0.5 1 0.9-0.2 1.1 1.2 1.7 0.5 0.2 0.8 1.2 0.8 2.2 0.7 0.9-0.5 0.4-1.4 1-2.2 0.6-0.3 0.6-1.3 1.1-1.5 0.6-0.4 1.5-0.4 2.4-0.4 0.9-0.1 1.1 1.1 2 0.8 0.7 0.1 1.4-1.2 1.6-0.6 0.8 0.1 0.5 1.1 1.2 1.5 0.9-0.1 1.4-1.1 2.3-0.5 1.2 1.1 0.7-1 1.4-1.2 0.3-0.9-0.7-1.1-1.4-1.3-0.7-0.5-1.2-0.7-1.4-1.5-0.7-0.7-1-1.1-2.3-0.9-0.4-0.4-1.4-0.5-1.7-1-0.3-0.9-1.6-0.8-2.5-0.8-0.7 0.4-1.9 0.3-2.9 0.3-1.4 0.4-1.4-0.7-2.2-1.1-0.1-1-0.3-1.3-0.9-2-0.9-0.6-0.2-1.2-1.4-1.4-0.6-0.3-1.2-0.6-1.7-1.2 0 0.6-0.7 1.7-1 0.8-1.2-0.2 0.7-0.8-0.6-1.1-1-0.3-2.1 0-2.9-0.4-0.6-0.4 1.2-0.6 0.3-1.5 0.4-0.4-0.6-1.4-0.3-2.4 0.6-0.6-0.5-0.9 0-1.9-0.2-0.8 0.3-1.2-0.3-1.8-0.4-0.8-0.7-1-0.4-2 0.3-0.8 1-1.5 0.7-2.6-0.5-0.2-0.9-0.9-1.3-1.5-1.4-0.5-1.3 0.3-1.3 1.1 0.3 1.2-1.4 0.2-1 1-0.6 0.5-1.1 0.8-1 1.8-0.8-0.3-0.4-1.3-0.6-1.6-0.5-0.9 0-1.5 0.1-2.4 0.1-1-1-1.7-0.1-2.2 0.3-0.6 0.8-0.6 1.6-1 0.7-0.1 0.8-1.2 1.4-1.7 1.2-0.3-0.4-1.1 0-2.1 0-1 1.5-0.5 1.8-1.5 0.1-0.7 1.1-1.6 0.3-2.2-0.9-0.3-0.5-1.3-0.9-2-0.8-0.6-1.8-0.6-2.8-0.6q-1.4 0-2.8 0z"/>
		<path id="map_los_rios_Lanco" fill-rule="evenodd" class="map-los-rios s1" data-siglaregion="LR" data-sigla="lanco" data-nombre="Lanco" d="m83.6 15.8c0 0.5-1 1-1.3 0.5-0.7-0.1-1.3 0-1.8 0.3-0.9 0.1-0.7 0.8-0.7 1.6-0.2 0.5-0.8 0.9-0.7 1.6-0.1 0.5-0.3 0.9 0.3 1.2-0.1 0.6 0.5 0.7 0.4 1.4-0.5 0.1 0.5 0.9-0.1 1.5-0.2 0.4 0.7 0.9 0.1 1.1 0.2 0.6-0.2 1.4 0.3 1.9 0.2 0.6-0.1 0.6 0.3 1.3 0.1 0.5-1.3 0.6-0.5 0.9 0.5 0.1 0.9 0.4 1.7 0.2 0.8-0.1 1.3 0.3 1.7 0.5 0 0.2-1.1 0.8 0 0.8 0.1 0.6 0.7 0.4 0.7-0.3 0.3-0.4 0.8-0.6 0.8 0.3 0.8-0.2 0.9 0.6 1.5 0.4 0.5 0.5 0.6 0.7 0.7 1 0.4 0.4 0.8 0.9 1 1.3 0.5 0.1-0.1 1.4 0.8 1.3 0.1 0.6 0.5 1 1.3 0.9q1.4 0 2.8 0c0.1-0.6 1.3-0.1 1.8-0.3 0.7-0.1 1 0.6 1.4 0.8 0.1 0.4 0.6 0.7 1.3 0.7 0.2 0.5 1.3 0.1 1.6 0.4 0.2 0.3 1 0.7 1 1.2 0 0.6 0.8 0.4 0.9 0.9 0.4 0.2 1.3 0.2 1.3 0.7 1-0.1 0.5 0.9 0.1 1.1-0.4 0.6 0.4 1.3-0.1 1.7-0.2 0.8 0.1 0.7 0.4 1.2 0.6 0.1 1.1 0.5 1.5 0.3 0.3 0.4 0.3-0.7 1.1-0.3 0.4-0.3 0.6-0.6 1-0.9-0.3-0.7 0.9-0.8 0.3-1.5 0.3-0.6-0.3-0.9 0.2-1.4 0.4-0.2 0.1-1.2 0.5-1.4 0.1-0.5-0.4-1.7 0.5-1.5 0.8-0.2 0.7 0.4 1.2 0.5 0.1-0.7 1.4 0.2 1.7-0.5 0.5-0.1 0.8-0.6 1-1 0.6 0.1 0.7 0.5 1 0.9 0.5 0.4 0.6-0.4 1.1-0.6 0.1-0.5 1.3 0.2 1-0.6-0.2-0.6-0.7-0.5-0.9-1.1-0.5-0.8 0-0.4 0.3-1 0.4-0.5 0.6-0.9 0.9-1.1 0.3-0.3 0.6-1 1.1-0.4 0.3 0.4 0.8 0.6 1 1 0.5 0.5 0.9-0.2 1.4-0.2 0.5-0.3 0.9-0.1 1.2-0.3 0.2-0.3 0.9 0.2 1-0.5 0-0.7 0.3-1.2 0.6-1.5 0.3-0.3 1-0.5 1.6-0.5 0-0.7 0.9-0.3 1.4-0.6 0.6-0.2 0.7-0.7 1.3-1.1 0.3-0.4 1.1 0 1.5-0.5 0.8 0 0.6-1.3-0.1-1.2-0.8 0.2-1.3-0.4-2-0.3-0.7 0-1.5 0.1-1.8-0.2-0.2-0.3-0.6-0.8-1.2-0.8-0.2-0.3-0.6-0.8-1.1-1.2-0.7-0.1-1-0.3-1.4-1-0.4 0.2-1.1 0.2-1.3-0.2-0.7-0.2-1-0.2-1.6 0.2-0.7 0.2-1.2-0.4-1.8 0-0.7 0-1.2-0.3-2-0.2-0.5-0.5-1.4-0.2-1.9 0-0.6 0.5-0.8-0.2-1-0.6-0.3-0.5 0.1-0.9-0.3-1.6 0.1-0.7 0-1.3-0.5-1.7 0.1-0.7-0.4-1.2-1.1-1-0.5 0.3-1 0.8-1.7 0.7-0.1 0.5-1.3 0-1.5 0.5-0.6-0.1-0.9 0.7-1.5 0.7-0.6-0.6-1.7 0.2-2.3-0.5-0.7-0.1-1.1 0.7-1.5 0.8 0 0.5-0.5 0.6-0.7 1-0.6-0.2-1.4 0.2-1.7 0.1-0.4-0.3-0.5-0.6-1.1-1-0.3-0.4-0.6-0.7-0.9-1.3-0.3-0.2-0.6-1-1.3-0.9-0.5-0.3-1.2-0.1-1.7-0.4-0.3-0.4-1.4-0.2-1.4 0.3-0.6 0.5-1.1 0.5-0.8 1.4-0.6 0.3-1.1-0.2-1.7-0.4-0.3 0.7-0.8-0.4-1.2-0.5-0.6 0.5-0.2-0.6-1-0.1-0.5-0.2-1.4 0.8-1 0 0-0.6 0.8-0.6 0.1-1.3-0.7-0.2-0.7-0.9-0.8-1.4 0.1-0.4-0.5-0.1-0.7-0.2z"/>
		<path id="map_los_rios_Panguipulli" fill-rule="evenodd" class="map-los-rios s1" data-siglaregion="LR" data-sigla="panguipulli" data-nombre="Panguipulli" d="m164 14.8q-0.1 0-0.3 0c-1 0.2-0.7 1.3-1.4 1.5-0.6 0.6-1.5 1.9-2.8 1.5-1.1 0-2.1 0.4-2.8 0.7-0.6 0.5-1 1.2-1.6 1.5-0.5 0.4-2 0.3-2.2 1.4-0.7 0-1.3 1-1.9 1.4-0.5 0.8-0.9 1.1-1.3 2.1-0.7 0.2-1.7 0.7-2.2 1.2-1 0.1-2 0.5-3.1 0.5-1.2 0.3-1.9 0.6-3.3 0.5-0.7 0.4-2 0.3-3 0.5-1.3 0.2-2.3-0.4-3.6-0.2-1-0.4-1.6-0.7-1.7-2-0.1-1.3-1.3-1-1.8-0.2-1.1-0.3-1.9 0.4-2.4 0.9-0.5 0.8-1 1.3-1.5 2-0.8 0.4-1.8 0.4-2.2 1.2-0.9 0.6-1.8 0.6-2.4 1-1 0.2-1.5 0.5-1.7 1.4 0 1.5-0.9 0.6-1.3 1.3-0.7-0.3-1.5 0.5-2.2 0.5-0.6-0.6-0.9-1.1-1.7-1.5-0.3 0.5-0.8 0.7-1.1 1.3-0.7 1-1.2 0.7-0.5 1.8 0.6 0.1 1.2 1.7 0.1 1.1-0.6 0-1 1.5-1.5 0.8-0.4-0.5-1-1.2-1.4-0.1-0.4 0.7-1.9 0.3-2.3 0.8-0.3-0.5-2.2-1.1-1.7 0.5q-0.2 1.4-0.8 2.4c0.4 0.6 0.2 1.6-0.2 2.2-0.4 0.6-0.7 1.2-1.8 1.1-0.1 0.5-0.9 0.5-0.7 1.4-0.6 0.1-1.1 1.4-0.2 1.5 0.3-0.8 0.6-0.6 1.5-0.7 0.5 0.5 1.3 0.8 2.2 0.9 0.1-0.1 1.2-0.5 1.4 0.2 0.6 0.6 0.3 1.5 0.5 2 0.8 0 1.6 0.5 1.1 1.4 0 0.7 0.2 1.9 1.4 1.6 0.5 0.4 0.6 1.3 0 1.7 0 0-1.5 0.6-1 1 0.3 0.4 0.3 1-0.2 1.5 0.4 0.6 1-0.7 2.1-0.2 1.3-0.3 1.6-0.2 2.2 0.4 1.1 0.3 1.1 1 2 1.5-0.5 1.2 0.3 1.1 1 1.7 0.8 0.2 1.6 0.6 2.4 0.9 0.7 0.5 1.7 0.6 2.1 1.1 0.7 0.1 1.5 0.7 2.4 1 0.6 0.4 1.5 0.6 2.6 0.7 0.9 0.4 1.3 0.7 2.3 1 0.4 0.5 1.3 0.7 1.8 1.3 0.7 0.7 1.4 1.4 1.9 1.7 0.2 0.5 1.2 0.9 1.7 1.3 0.6 0.3 1 1.2 2 1.4 0.2-0.9 0.9-1.3 1.3-1.7 0.2-1.1 0.4-1.8 1.4-2 0-0.2 0-0.5 0-0.8q2.9 2 5.8 4c1 0.6 1.6 0.9 1.1 1.9-0.2 0.5-0.8 0.6-1.2 1-0.2 0.8-0.6 0.8-0.2 1.7 0.7 0.2 1.5 0.2 1.7-0.4 0.4-0.4 1-0.6 1.3-1 0.8 0 1.4 0.3 1.9 0.6 0.1 0.6 1.1 0.6 1.2 1.3 0.4 0.7 0.7 1 1.5 1 1.1 0.2 1.1-0.6 2.1-0.5 0.6 0 0.9-0.9 1.8-0.7 0.7 0.4 1.2 0.8 1 1.7-0.3 0.5 1.8 0.1 2.4 0.3 0.2-0.6 0.9-1 1.2-1.3q0.9-0.2 1.4-1c0.8 0.1 1.6 0.5 2.2 0 0.8-0.3 0.9-0.6 1.4-1.2 0.9-0.2 1.3-0.6 2.3-0.5 0.7-0.2 1.4-0.3 2.1 0.1 0.2 0.4 0.7 1.2 0.7 2 0.8 0.6 1.4-0.3 2-0.4 0.7-0.8 0.6 0.1 1.2 0.3 0.6 0.6 1.4 0.6 1.8 1.2 0.6 0.9-0.3 1-0.3 1.7 0.6 0.2 0.6 1 1.3 1 0.9 0.3 1.5 0.6 1.2 1.7 0.4 0.5 0.6 1.2 0.5 2.2-0.9 0-1.4 0.3-1.7 0.7-0.2 0.7-1.1 0.5-1.3 1.2-0.3 1.1 1 0.6 1 1.4 0.4 0.1-0.6 1.1 0 1.4 1-0.3 1.4 0.8 1.7 1.3-0.5 0.9 0.5 0.6 0.3 1.8-0.4 0.3-0.7 1.3-0.6 2 0.2 1.1 1.3 1.1 2.1 1.5 1.2 0 2.2 0.4 3.3 0.9 0.8 0.3 1.6 0.9 2.3 1.4 0.8 0.3 1.8 0.6 2.5 0.2 1.1-0.4 1.4-1.4 1.5-2.4 0.4-1.7-0.2-3.5-0.8-5-0.4-0.7-0.8-1.6-0.5-2.4 1.2-0.4 0.6-1.8 0.8-2.7-0.8-1 0.6-1.6 0.9-2.5 0.6-0.5 1.2-1.8 1.8-1.8 0.8 0.6 1.9 0.5 2.4-0.4-0.3-0.9 1.2-1.7 0.1-2.3-0.8-0.4-0.9-1.9 0.1-2.1 1.2 0.3 1.6-0.9 1.4-1.7 1.3-1.7 0.4-4-1.1-5.2-0.8 0.1-2.1-0.2-2.2-1.1 0.2-1.1-0.8-1.6-1.8-1.3-0.6 0.6-1.7 0.6-2.5 0-0.8-0.8-0.5-2.2-0.9-3.3 0.9-0.6 1.4-1.5 2.1-2.3-0.6-0.4-1.1-1-1.7-1.5 0.3-1 0.7-2.3 0.3-3.3 0-1.2-1.4-1.6-2-2.7-0.6-1.2-0.7-2.2 0.1-3.1 0.9-0.6-0.5-2.4 1.3-2.5 1.3 0.8 2.1-1.5 0.6-1.7-1.6-0.2-0.5-2.4-1.7-2.8-1.3-0.2-1.6-1.9-1.1-2.7 1.5-0.2 1.4-1.5 1.7-2.7-0.3-1.7 0.4-3.4 0.4-5.1 0.7-1 0.5-2.3 0.5-3.5 1.2 0.1 0.7-1.3 0.3-1.9 0-1.7-1-0.7-2-0.8-0.5-0.9-1.2-1.2-1.7-1.9-0.8-0.4-1.7 0.2-2.5 0.4-1-0.1-1.4 0.3-1.7 1.2-0.7 0.1-0.9-1.1-1.5-1.2-1.2 0.2-1.6-1.4-3-1-0.9-0.3-1-1.7-1.9-1.7-0.4-0.3-1.6-0.6-1.7-1.2-0.7-0.4-0.5-1.2-1.2-1.9-0.2-0.8-0.4-1.4-1.2-1.6-1.2 0.2-1.6-0.7-2.7-0.7-1.2-0.1-1.9-0.5-2.9-0.7-0.3-0.2-0.4-0.3-0.6-0.3z"/>
		<path id="map_los_rios_Mafil" fill-rule="evenodd" class="map-los-rios s1" data-siglaregion="LR" data-sigla="mafil" data-nombre="Máfil" d="m70 39.2c-0.1 0.4-0.8 0.4-1 0.9-0.2 0.3-0.8 0.5-0.7 1-0.4 0-0.3 1.3-1.1 0.9-0.2-0.5-0.4-0.5-0.9-0.9 0.1 0.6-0.1 1.3-0.4 1.5 0 0.4-0.7 0.6-0.8 1-0.6 0.8-0.5-0.5-0.9-0.5-0.2 0.4-0.8 0.3-0.9 0.8-0.3 0.2-0.3 0.9-0.9 0.9-0.5 0.2-0.5 0.9-1.3 0.8-0.3 0.3-0.2 0.9-0.7 1.1 0 0.5-0.4 0.6-0.7 0.8 0.1 0.8-0.1 1.2-0.3 1.7 0.1 0.7-0.4 0.6-0.6 1.2-0.2 0.3-0.5 0.7-0.7 1.1-0.1 0.5-1.3-0.1-1.4 0.4 0.5 0 0.2 1.1 0.8 1.1 0.1 0.4 1.1 0 1 0.8-0.1 0.8 0.7 0.1 0.8-0.1 0.6 0 0.6-0.6 1.1-0.6 0.4-0.3 1.3 0 1.5-0.4 0.4-0.1 0.6-1.1 1.4-0.7 0.7-0.2 1.1 0.2 1.1 0.9-0.2 0.7 0.3 1.2 0.2 1.9 0.3 0.3 0.4 0.9 0.5 1.4 0.2 0.4 0.6 0.7 0.5 1.4 0.3 0.5 0.3 0.9 0.5 1.4 0 0.6 0.7 0.5 0.5 1.3 0.5 0.5 0.7 0.6 1.1 1.2 0.4 0.6-1 0.1-1.1 0.5-0.2 0.4-0.7 0.5-1.3 0.5-0.1 0.5-0.6 0.6-0.2 1 0.6 0 0.8-0.7 1.3-0.7 0.5-0.4 1.2-0.3 1.9-0.3 0.3 0.3 1.2 0.1 1.2 0.8 0.4 0.2 0.3 0.7 0.9 1.1 0.5 0.3 1.3 0 1.6 0.3 0.6 0.4-0.1 1.4 0.6 1.7 0.6 0.2 1.4 0.1 1.9 0 0.6-0.1 0.5-1 1.3-0.9 0.4-0.2 0.6-0.6 1.3-0.5q1-0.1 1.8 0.3c-0.1-0.7 0.4-0.8 0.5-1.4-0.4-0.3-0.2-0.5 0-0.7 0.2-0.1 0.5-1.2 0.2-1.2 0-0.6 0.6-0.6 0.8-1.1-0.1-0.6-0.1-1.3 0.2-1.8 0-0.6 0.4-0.8 0.5-1.5 1 0-0.1 0.8 0.4 0.8 0.2 0.4 0.4 0.9 0.6 1.1-0.5 0.4 0.2 0.7 0.5 0.9 0.3 0.6 0.7 0.1 1 0.4 0.1-0.5 1.2-0.1 1.7-0.2 0.7-0.2 1.1 0.4 1.8 0.2 0.8 0.1 0.8-0.8 1.1-1.2 0.3-0.6-0.1-0.6 0-1.4 0.2-0.7 0.8-0.4 1-1.1 0-0.7 0.7 0.6 0.7 0.1 0.2 0.2 1.3-0.1 1 0.7 0.4 0.2 0.3 0.9 0.8 0.9 0.5-0.1 0.9-0.1 1.2-0.7 0.3-0.8-0.9-0.5-1-0.9 0.2-0.5 0.3-1 0.5-1.4-0.4-0.3-0.3-0.5-0.4-0.9-0.4-0.2-0.6-0.7-0.7-0.8 0.3-0.5 0.6-0.7 1.3-0.7 0.7 0.3 1.1-0.4 1.6-0.7 0.6-0.1 0.6-0.7 1.1-0.7 0.1-0.7-0.8-0.5-0.7-1.1-0.6-0.6 0.4-0.7-0.2-1.1-0.1-0.5-0.6-0.6-0.8-0.9 0.1-0.7-0.2-1-1-0.9-0.4 0.1-1.1-0.4-0.8-0.7 0.5 0.1-0.1-0.7 0.9-0.5 0.1 0.1 0.7 0.1 1.2 0.2 0.6 0.3 0.7-0.1 1 0.5 0.3 0.1 0.5 1 1.2 0.8 0 0.5 0.6 0.5 0.9 0.2 0.5-0.6 0.3 0.3 0.6 0.3 0.6-0.2 0.7-0.3 1.3 0 0.6 0 0.5-0.7 1.1-0.8 0.3 1 0.7-0.8 0.8 0 0.5-0.5 1-0.5 1.2-1 0.4 0.2 1.7-0.3 1-0.5-0.1-0.6 0.4-1 0.6-1.2 0.6-0.1-0.2-0.6 0.1-1.2-0.7 0.2-1.1-0.2-1.5-0.5-0.3-0.3 0.1-0.9 0.2-1.3-0.5-0.2-1.1-0.3-1.6-0.7-0.6 0.3-0.8 0.4-1.3 0.6-0.5 0.4-1.2-0.2-0.9-0.7-0.3-0.3-0.6-0.5-0.8-0.8-0.4 0-0.7 0.6-1.2 0.7-0.5 0.3-1 0-1.5-0.1-0.1-0.8-0.7-0.7-1.3-0.6-0.7-0.1-0.9 0.3-1.8 0.2-0.1 0.3-0.7 0.3-0.6 1-0.4 0.1-0.4 0.8-0.9 1 0.1 0.7-0.5 0.8-0.3 1.6-0.4 0.4-1.2 0.3-1.8 0.3-0.5 0.1-0.7-0.7-1.2-0.7-0.1 0.7-0.5-0.4-0.8-0.4-0.7 0-0.7-0.5-1.1-0.6-0.3-0.4-0.8-0.3 0-0.6-0.1-0.7 0.9-0.2 1-0.7q-0.2-0.7-0.9-0.9c-0.5-0.3-1 0.9-1.1 0.3q-0.7-0.3-1.5-0.4c-0.1-0.5-0.9-0.3-1.1-0.7-0.6 0.1-0.3 1.1-0.9 1.1-0.1 0.5-0.7-1.1-0.7 0.1-0.2 0.4-0.9 0.3-1.2 0.6-0.3 0.3-1 0.3-1.5 0-0.3-0.4-0.6-0.7-1.5-0.5-0.8 0.1-0.7 0-1.3 0.2-0.4-0.2-0.8 0-1.4 0.3-0.2 0.1-0.8 0.5-1.2 0 0-0.4-0.9-0.6-0.3-0.9 0.7-0.3-0.1-0.6 0-1.3-0.1-0.4-0.6-0.7-1.1-0.3-0.2 0-0.3-0.4-0.6-0.2z"/>
		<path id="map_los_rios_Los_Lagos" fill-rule="evenodd" class="map-los-rios s1" data-siglaregion="LR" data-sigla="los_lagos" data-nombre="Los Lagos" d="m104 46.1c-0.3 0.6-0.9 0.9-1.9 0.9-0.4 0.7-1.6 0.6-1.6 1.3-0.8-0.8-1.2 1-1.9 0.3-1 0.5-1.2-0.4-1.5-0.1-0.6 0.6-1-0.2-1.8-0.5-0.6-0.8-0.6-0.9-1.5-1-0.6-0.2-1.7-0.4-1.7 0.2-1 0.2 0.4 1.2 1.3 0.8 0.2 0.7 0.5 1.2 1 1.7 0.3 0.5-0.1 1.5 0.7 1.8 0.6 0.6-0.6 1-1.1 1.3-0.6 1.1-2.2 0.3-2.6 1.1-0.6 0.5 1.2 0.8 0.5 1.5 1 0.3 0 1.2 0 1.9 1.3-0.1 1.1 1.3 0.2 1.5-1 0.3-0.9-1-1.4-1.4-0.7 0-1.1-0.6-1.5-0.3-0.7 0.5-1.3 1.5-0.9 2.1-0.2 1-0.7 2-2 1.6-0.8-0.6-2.6 0.1-3-0.2-0.2 0.6-1.5-0.7-1.3-0.9 0.3-0.5-1-1.5-0.4-1.6-0.4-1.2-1.1 0.7-1 1.2-0.4 1-0.1 2.2-1 2.5 0.5 0.6-0.4 1.6-0.4 1.7 0.3 0.5-0.2 1.3-0.5 1.8-0.9-0.6-2.4-0.4-2.8 0.2-1 0-1.1 1.4-2.5 1-1.5 0.4-0.9-1.6-1.7-2-1.2 0.4-1.8-0.7-2.1-1.2-0.6-1.2-1.7-0.3-0.4 0.4 0.6 1-0.3 1 0.1 2 0.3 0.6-0.2 1.5 0.5 2 0.9 0.2 0.4 0.8 1 1.5 0.6 0.3 0.1 0.7 0.4 1.1-0.3 1.3 1.1 1.9 0.6 2.6 0.1 1-0.7 1.7-0.4 2.6 0 0.3-0.4 1.3 0.5 1.3 1.3-0.3 1.4 0.6 1.6 1.5 0.3 0.7 1.1 0.9 1.2 1.9 0.3 1.1 0.9 1.3 1.6 1.8 0.5 0.7 1.9-0.4 2.3 0.4 0.8 0.5 1.3 0.6 2.6 0.3 0.9-1 1.3 0 1.6 0.5 0.3 0.7 0 2.3 1.2 2.5 0.7 0.5 2.2-1.2 1.8-0.5 1.1 0 0.7 1.2 1.2 1.7-0.1 1 1.4 0.5 1 2 0.7 0.5 1.8 1 2.2 0.2 1-0.2 1.7-0.1 2.5-0.2 0.2 0.8 0.9 0.6 1.9 0.4 0.1 0.4 1-1.1 1.5-1.4 0.1-1.3 0.4-2.1 0.9-0.8 0.2 0.5 1.4 1.8 0.8 2.5 0.8 0 0.9 1.2 1.5 1.5 0.9-0.1 1.4 1 2.4 0.6 1-1 1.9-1.5 2.9-1.9 1-0.3 1.6-1.6 2.8-1.4 0.5-0.4 1.2-0.6 1.5-1.2 0.3-0.5 1.3 0.6 1.7 0.4 0.3 0.2 1 0.1 1.5 0.7 0.6-0.2 0.8-1.4 2-0.7 0.7-0.4-0.3-2.5 0.8-1.3 0.8 0.7 0.7 1.6 1.8 1.6 0.4 0.3 1.3 0.1 1.5 1 0.9 0.1 1.2 0 2 0.9 1 0.3 1.6-0.1 2.8 0.3 0.9-0.4 2.2-0.4 2.8-0.8 0.7-0.2 1.2-1.4 2-1.7 1.2 0.9 1.7-0.4 2.6-0.5 1.2-0.2 1.7 0.1 3 0 0.6-0.2 1.5-0.6 1.8-1.4 0.7-0.8 1.1-1.6 1.2-2.5 1 0.3 0.2-3 1-1 0.8 0.6 0.2 1.3 0.9 1.6-0.1 1.6 0.9 1 1.1 0.2 0.6-0.3 1.3-0.5 1.9-0.8 0.6 1.2 1 0.8 2.1 0.5 0.8-0.2-0.1-2.1 0.9-2.2 0-1.1 1-0.7 1.7-0.3 0.8 0.4 1.4 0.5 1.9 1.2 0.4 0.9 1.6 0.6 1.8-0.4 0.6-0.4 1.2-1 1.5-1.7 0.5-0.7 1.4 0 1.7 0.7 1.2-0.2 1.1 1.1 2.1 0.5 0.2-0.5 1.2-1.1 1.6-1.5 0.9-0.7 0-1.7 0.2-2.8 0.6-0.2 1.1-1.5 0.6-2.1-0.7-0.8-1.6-0.4-2.3 0-0.7 0.3-1.4 0.7-2.5 0.7-0.8 0-1.1-0.6-1.6-1.2-0.4-0.8-1.2-0.9-1.5-1.4-1.1-0.5-1.5-0.1-2.2 0.2-0.3 0.6-0.8 0.8-1.5 1.2-1-0.2-1.2-1.3-0.5-1.7 0.1-0.7 1-0.7 1.2-1.4 0.8-1.1-0.9-1.5-1.7-2.2q-2.6-1.8-5.2-3.6c0.3 1.5-1.5 0.8-1.2 2.2-0.2 1.1-1.1 0.8-1.4 1.9-0.4 1.1-1.3-0.7-1.8-0.6-0.3-0.6-1.4-0.8-1.7-1.5-0.6-0.3-0.8-0.7-1.6-1.3-0.7-0.9-1.3-1.1-2.1-1.7-0.6-0.3-1.4-0.6-1.9-0.9-1-0.3-2.1-0.5-2.9-0.8-0.5-0.3-1.5-0.8-2.3-1-0.5-0.5-1.2-0.6-2-0.9-0.9-0.5-1.4-0.9-2.5-1-0.2-0.5-2-0.7-1.5-1.3 0.1-1.1-0.9-1.4-1.4-1.9-1.1 0-1-1.5-2-0.7-1 0-2.2-0.2-2.7 0.4-0.4-0.1 0.3-1.1 0.2-1.2-0.6-0.4-0.1-1.5 0.5-1.3 0.4-0.2 1.1-1 0.5-1.6-0.5-0.5-1.8-0.2-1.4-1.5-0.4-0.3 0.2-1.7-0.7-1.7-1.1-0.2-0.6-0.9-0.8-2-0.3-0.6-1.3-0.3-1.5-0.5-0.6 0.4-1.5 0-2.2-0.5-0.4-0.4-0.8 0-1.2-0.2z"/>
		<path id="map_los_rios_Valdivia" fill-rule="evenodd" class="map-los-rios s1" data-siglaregion="LR" data-sigla="valdivia" data-nombre="Valdivia" d="m36.1 46.3c-0.5 0.6-0.8 0.7-1.2 1.4-0.5 0.6-1.1 0.6-1.7 0.8-0.6 0.2-1.2 1.1-0.2 1.1 0.8-0.1 1 1.3 0.3 1.5-0.3 0.3-1.5 0.7-1.2 1.1-0.3 0.4-1 0.9-1.3 1.2-0.6-0.4-1-0.5-1.6-0.1-0.5 0.5 0.1 1.8-0.5 2 0.5 0-1.1 1.5 0.3 1.3 0.5 0.2 0.7 1 0.7 1.8 0.3 0.4 0.4 1 0.7 1.7-0.1 0.7 0.2 1.6 0.1 2.1 0 0.7-0.3 1.7 0.2 2.3-0.3 0.2 0.4 1.3-0.5 1.7-0.4-0.7-0.2 1.3-0.3 1.8 0.2 0.7-0.9 1-0.5 1.4 0.6 0.6-0.6 0.9 0.4 1.3 0.1 0.4-0.3 1.6 0.8 1.4 0.7 0.1 0.3 1.6 0.1 1.8-0.4 0.8-0.6 0.9-0.3 1.7 0.8 0.1 1.7-0.1 1.7-0.8 0.7-0.1 0.9-0.8 1.8-0.7 0.7-0.1 1.4-0.3 1.9-0.7 0.4-0.5 1.5-0.3 1.7-1 0.1-0.7 1-0.5 1.8-0.5 0.6 0.2 1.3 0.9 1.7 0.6 0.2-0.8 1-0.9 1-1.6 0.2-0.3 0.8-1.3 0.2-1.6-0.3-0.4-0.9-0.8-1.2-1.2q0-1.3 0-2.6c0.6-0.2-0.1-1.6 0.5-2.1 0.3-0.4 1-1 1-1.6 0.1-1-0.5-1.2-0.3-2.2 0.5 0.1 0.5 1.1 0.8 1.5 0.4 0.4 0.2 1.4 0.2 2.1-0.5 0.5-0.4 1.1 0 1.6-0.1 0.9 0.4 1.2 1 1.7 0.6 0.2 1.1 0.4 1.6 0.8 0.6 0.4 0.6 1.8 0.1 0.8-0.6-0.2-0.7-1.3-1.4-0.9-0.4 0.6-0.5 1-0.8 1.7-0.3 0.4-0.7 1.1-1 1.5 0.6 0.6-0.6 0.6-0.5 1.4-0.1 0.6 1.4 0.7 0.5 1.3-0.2 0.8 0.4 1.6 1 1.1 0.6-0.3 1.2 0.5 1.6 0.6 0.5 0.3 1.3 0.3 1.9 0.8 0.6 0.3 1.2 0.9 1.7 0.5 0.6-0.2 1.3-0.3 1.9-0.5 0.6 0 0.7-1.1 0.5-1.5-0.7-0.2-1.2-0.1-1.2-0.7-0.6-0.2-0.3-1.8 0-0.6 0.2 0.8 0.9 0.3 1.3 0.8 0.2 0.4 1.7 0.1 1.2 0.9 0.4 0.4 0.5 0.9 1.2 0.8 0.5-0.7 1.9 0.1 1 0.5-0.3 0.5-1 0.8-0.5 1.6 0.5 0.6 0.9 0.9 1.2 1.4 0.5 0.7 0 1-0.2 1.8-0.1 0.6-0.8-0.1-0.5 1.1-0.6-0.3-0.4-1.3-1-1.6 0-0.9 0-1.6-1-1.3-1.1-0.1-0.3-0.8-0.5-1.6-0.2-0.5-0.7-1-1.3-1.1-0.8 0-1.2 0.6-1.7 0.3-0.6 0.7-0.8 0-1.7-0.1-0.8-0.1-1-0.9-1.9-0.7-0.8 0-1.1-1-1.9-0.8-0.9 0.6-1.1-0.3-1.6-0.5 0.1-0.6 0.6-1.5 0-1.9-0.4 0.4-1 0.5-1.2 1.1-0.9-0.2-0.9 0.9-0.5 1.5 0.3 0.3 1.1 0.7 1.2 1.5 0.7 0.1 1 0.5 1.5 0.9 0.5 0.4 0.7 0.8 1.4 1.1 0.6 0.3 0.1 1.5 0.8 1.5 0.9-0.1 1.1 0.7 1.5 1.1 0.5 0.6 0.4 1.3 1.4 1.1 0.7 0.4 1.2-0.7 1.1 0.7 0.3 0.4 1.1 0.7 1.9 0.5 0.4-0.3 1.4-0.1 1.3-1 0.6-0.8 0.2 1.1 0.8 1 0.6 0.7-0.3 1.4-0.4 1.9-0.2 0.5-0.2 1.2 0.4 1.6 0.1 0.1 0.1 1.2 0.8 1.2 0.1-0.2 1.1 0.5 1.1 1 0 0.6-1.2 1.3 0.1 1.2 0.8 0.2 0.9 0.1 1.7 0.1 0.3 0.7 1.4 0.2 1.7 0.7 0.4 0.6 1.4-0.7 1.1 0.8 0 0.8 0.7 1.1 1 0.4q0.5-0.7 0.9-1.5c-0.3-0.5 0.2-0.7 0.6-1.2 0-0.3-0.3-1.3 0.1-1.5 0.9 0 1.1-0.6 1.5-1 0.7 0 0.7-0.8 1.4-0.9 0.4-0.1 1.3-0.8 1.4-0.5 1.1 0.1 1.6-0.2 0.8-0.8-0.9 0.1-1.6-0.2-1.5-1-0.4 0-1.1-1.3-0.5-1.5 0.6-0.1 1-0.7 1.5-0.9-0.2-1 0.2-1.4 1.2-1.3 0.3-0.6 0.8-0.6 1.5-0.8 0.5-0.2 1.2 0.1 1.7 0 0.5 0.1 1.3 0 1.5-0.1 0.6 0.3 1.3 0.5 1.4 1.1 0.6 1.1 0.5 0 0.3-0.6-0.6-0.7-0.8-0.9-1.2-1.5-0.2-0.6-0.1-1.5-0.9-1.5-0.9 0.2-1.7-0.2-1.1-0.7-0.4-0.6-0.2-1 0-1.7 0.1-0.6 0.2-1.3 0.5-1.8-0.1-0.6-0.9-0.7-0.7-1.7 0.1-0.9-0.6-1-0.2-1.3 0.2-0.4-0.8-0.8-0.7-1.2 0.3-0.6-0.9-0.6-1-1.2-0.4-0.7 0.3-1.1-0.1-1.9-0.5-0.6 0.6-0.7 0-1.5-0.9-0.4-0.4-1.4-1.4-1.3-0.8-0.1-1.6 0.2-2 0.5-0.6 0.8-1.3 0.3-0.6-0.2 0.3-0.4 1.1-0.4 1.5-0.8 0.4-0.4 1.5-0.1 0.5-1.1-0.8-0.1-0.7-1.2-1-1.6-0.5-0.3-0.2-1.1-0.7-1.7 0.1-0.9-0.6-1-0.5-1.9-0.4-0.4-0.3-1.1-0.7-1.7-0.1-0.7 0.2-1.7-0.4-2-0.7 0-1.8-0.2-1.9 0.7-0.5 0.3-1.4 0.1-1.8 0.5-0.5 0.2-1.1 0.5-1.3 1-1 0.1-0.2-1.4-1.4-1-0.5-0.3-0.6-1.2-1-1.6-0.8-0.4-1 0.6-0.8 1.4-0.8 0.3-1 0.8-1.7 0.9-0.9 0.1-1.5-0.1-1.9-0.5-0.8-0.5-1.1 0-1.4 0.5-0.7 0.1-1 0.5-1.2 1.3-0.4-0.1-1 1.4-1.1 0.6 0.7-0.6 0.6-0.9 0.4-1.6-0.6-0.6-0.5-1.4-0.5-2.2-0.4-0.2-0.4-1.6-0.9-1-0.7-0.1-1.5-0.1-1.8-0.5-0.5-0.4-0.4-1-0.8-1.7 0.2-0.9-1-0.8-1.2-1.3-0.5 0.6-1.2 0.1-1.9 0-0.8 0.1-1.2-0.3-1.8-0.5-0.7 0.1-0.8 0.8-1.9 0.5-0.7-0.2-1.4-0.2-1.5-0.8-0.2-0.1-0.2-0.4-0.5-0.4zm22.9 45c-1.4-0.1-0.4 1.3 0 0zm-15.5-25.3c-0.7-0.2-0.5-1-0.9-1.6-0.5-0.6-1.3-0.5-1.1 0.5-0.4 0.7 0.1 1.3 0 2.1 0.3 0.3 0.4 1.2 1 1.6 0.4 0.7 0.7 0.4 1.2-0.1-0.1-0.9 0.5-1.3 0.4-1.9-0.3-0.2-0.6-0.2-0.6-0.6zm-0.8-3.7c0.1 0.4-1.1 1.3-0.4 1.1 0.6-0.1 1-0.4 0.4-1.1zm-3.9 9.8c0.1 0.6 1.3 1.1 1.5 0.5-0.4-0.3-1.2-0.1-1.5-0.5z"/>
		<path id="map_los_rios_Corral" fill-rule="evenodd" class="map-los-rios s1" data-siglaregion="LR" data-sigla="corral" data-nombre="Corral" d="m24 73.1c-0.1 0.6 0.3 1.8-0.2 2-0.2 0.4-0.5 1-0.5 1.7-0.6 0.1-0.3 1.1-0.7 1.4-0.4 0.4-0.6 1-1 1.1-0.9-0.1-1 0.5-1.3 0.9 0 0.7-0.8 0.5-1.2 0.8-0.8-0.2-0.6 1-1.5 1 0.2 0.5-1.1 0.7-1.2 0.2-0.7 0.3-1.1 0.3-1.7 0.5-0.5 0.6-1.5 0-1.5 0.7-0.8 0.3 0.4 1 1 0.8 0.3 0.4 0.8 1 0.7 1.7 0.3 0.6 0.7 0.8 1 1.2 0.1-0.4 0.7-0.8 1.4-0.7 0.2-0.6 0.9 0.4 0.7 0.7-0.2-0.2-0.8-0.9-1.3-0.2-0.6 0.2-1.3 0.9-1.4 0-0.8 0.1-0.4-1.2-0.9-1.4-0.3-0.9-0.4-0.9-0.7-0.2 0.1 0.6-0.9 1-1.2 1-0.8-0.5-0.8 0.5-1.5 0.3-0.3-0.4-1-0.4-1.7-0.4-0.3 0.4-0.8-0.2-1.5 0.2 0.3 0.9-1 0.4-1 1-0.4-0.1-1.3 0.5-0.7 0.8-0.1 1 0.3 0.8 0 1.5-0.5 0.3-0.4 1.1-0.9 1.5-0.7 0.1-1.2 0.2-1.5 0.6 0.2 0.3-1.2 1.2-0.2 0.7 0.7-0.3 1.2 0.1 2 0 0.6 0 1.6 0.2 1.8-0.3 0.4-0.5 0.1-1.5 0.7-1.6 0.2-0.6 0.4-0.9 1.3-0.8 0.5-0.5 0.9-0.5 1.7-0.5 0.6 0.4 1.1-0.1 1.7 0.5-0.2 0.9 1 1 1.4 0.6 0.6-0.2 1.2 0.1 1.6 0.4 0.8-0.2 0.7 0.9 1.4 0.8 0.3 0.6 0.8 0.9 1.1 1.3 0.3 0.6 1 0.6 1.2 1.4 0.2 0.3 1 0.4 1.2 0.7 0.6-0.1 0.7 0.7 1.5 0.5 0.1 0.4 0.8-0.7 1.2 0 0.1 0.7 0.7 0.8 0.5 1.7-0.2 0.8 0.1 1.1 0.5 1.4 0.1 0.7 0.8 0.8 1.3 1.1 0.9 0.1-0.2 0.9 0.2 1.7-0.2 0.4-0.6 0.7-0.9 1-0.9-0.1 0.1 0.9 0.2 1 0.7-0.1 1.2 0.6 1.9 0 0 0.5 0.7 0.6 1.3 0.7 0.1-0.7 0.4-1.2 0.8-0.5 0.5 0.7 0.8 0.4 1.1 0.9 0.5 0.4 0.5-1 1-1.3-0.1-0.8 0.9-0.5 0.7-1.3 0.1-0.7 0.8-0.9 1.1-1.2 0.2-0.4 1.1-0.4 1.5-0.7 0.8-0.1 0.6-1 1-1.3 0.4-0.5 0.9-0.6 1.7-0.5 0.8 0.1 0.8 0.9 1.6 0.7 0.3-0.3 1.2-0.2 1.6-0.4 0.6 0-0.1-1.4 1-0.6 0.3 0.3 1.4 0.6 1.6 0.1 0.7-0.4 0.5 0.9 1.1 0.3 0.7-0.1 0.4 0.9 0.8 1.4 0.3 0.5-0.2 1.2 1 1 0.4 0.6 1.1-0.2 1.7 0 0.2-0.6 0.8 0.2 0.3 0.4 0 0.7 0.7 0.7 0.7 1.5 0.4-0.2 0.9-0.3 1.1-0.7 0.2-0.5 1.4-0.1 2-0.3 0.7 0.6 0.6-0.3 1.3-0.2 0.5-0.8 1.4-0.4 2-0.7 0.7-0.2 0.4-0.6 0.1-1-0.4-0.5-0.1-0.8-0.3-1.5 0.5-0.5 0-1-0.4-1.3-0.4-0.1-1-0.9-0.4-1.2 0.2-0.5 0.5-1 0-1.4 0.2-0.9 0-1.4-0.7-1.5-0.1-0.6-1.5 0.2-1-1-0.6-0.5 0.3-0.9 0.5-1.2 0.4-0.2 0.5-0.7 1.4-0.5 0.3 0.6 0.7-0.1 0.8-0.5 0.7-0.5 0-1.1-0.4-1.4-0.4-0.4-0.9 0.1-1-0.7-0.1-0.7-0.4-0.3-0.6-1.2-0.4-0.3 0-1.2 0.3-1.4 0.3-0.5 0.4-1.4 0-1.7-0.4 0-0.3-1.8-0.7-0.6 0 0.7-0.9 0.5-1.3 0.8-0.8 0.2-1.5-0.1-1.9-0.4 0-1.1-0.2-0.9-0.9-0.6-0.7-0.2-1.2-0.3-1.3-0.8-0.4-0.5-0.5-1.1-1-1.4-0.5-0.4-1.3 0-1.3-0.8 0.1-0.7-0.3-1.2-0.7-0.9-0.8-0.1-0.7 1-1 1.3-0.4 0.4-0.7 1.1-0.2 1.7-0.4 0.3-0.3 1.2-0.8 1.5-0.5 0-0.6 1.2-1.3 0.4-0.4-0.2-1.1 0-1.5 0.3-1.1-0.2-0.7 0.3-1.3 0.5-0.3-0.5-0.8-0.6-0.6-1.5-0.2-0.4-0.6-0.6-0.7-1.1 0.2-0.9-0.2-1.2-0.5-1.8-0.8-0.9-0.8 0.3-1.4 0.2-0.6-0.1-0.4-1-0.8-1.2-0.2-0.8-0.8-1-1.2-0.9-0.6-0.3-0.4 0.8-0.6 1.1-0.3 0.5 0 1.3 0.1 1.5 0 0.7 0.3 1.5 0.5 1.9 0.8 0.3-0.1 1.5-0.9 1-0.6-0.1-0.6-0.4-1.1-1 0.1-0.8-0.6-0.7-0.4-1.4-0.8 0 0.6-0.6-0.1-1.1 0.1-0.7-0.3-0.9-0.7-1.1-0.4-0.5-0.5-0.9-1.2-1 0-0.5-0.9-0.6-0.6-0.9 0.5-0.5 0.8-0.9 0.1-1.1 0.8-0.7-0.5-1-0.5-1.4-0.2-1-1.1 0.5-1.3-0.4-0.2-0.8-0.9-0.7-1.4-0.9q-0.4 0-0.8 0zm13.8 0c-0.2 0.5-1 0.5-1 1-0.4 0.3-1.1 0.4-1.8 0.5-0.7 0.2-1.3 0.6-2 0.7-0.1 0.4-1.3 0.6-0.6 0.8-0.2 0.8 1.4 0.3 1.5 0.9 0.4-0.3 1 0.3 1.2 0.5 0.7 0.1 1.1 0.5 1.8 0.4 0.1 0.5-0.5 0.3-1.1 0.1-0.1 0.8 0.9 0.5 1 1.3 0.2 0.1 0 0.6 0.5 1.1 0.7 0.4-0.3 1.1 0.1 1.6 0.4 0.2 0.5 0.7 1.1 0.7-0.2 1 1.3 0.2 1.3 0.4 0.4-0.3 1.2-0.1 1.7 0.1 0.1-0.5 1-0.9 0.7-1 0.1-0.6-0.2-1.6 0.3-1.8 0.1-0.5 0.5-1 0.7-1.6 0.3-0.5 0.9-1.1 0-1.3-0.1-0.5-0.9-0.5-1-0.9-1 0.3-0.5-1.3-1.4-1.3-0.3-0.3-0.6-1-0.7-1.4-0.4-0.1-0.7-0.9-1.5-0.8-0.6-0.2-0.5 0.4-0.8 0zm-6.6 3.7c-0.5 0.5-0.7 0.8 0 1 0.5 0.7 0.4-0.3 0.2-0.7-0.2-0.1-0.3 0-0.2-0.3z"/>
		<path id="map_los_rios_Paillaco" fill-rule="evenodd" class="map-los-rios s1" data-siglaregion="LR" data-sigla="paillaco" data-nombre="Paillaco" d="m69.8 79.3c-0.5 0.4-1.3 0.1-1.5 0.9-1-0.1-1.4 0.3-1.2 1.2-0.4 0.3-0.9 0.8-1.4 1-0.8 0 0 1.5 0.3 1.5 0.1 0.6 0.6 1.1 1.5 1 0.8 0.5 0.4 0.9-0.7 0.8-0.1-0.2-1 0.3-1.3 0.5-0.8 0-0.7 0.8-1.4 0.9-0.5 0.3-0.6 1-1.5 1-0.6 0-0.1 1.2-0.3 1.4 0.1 0.6-1.2 0.6-0.4 1.3-0.5 0.3-0.5 1.1-1 1.4-0.1 0.8-0.9 0.5-1-0.3 0.4-1.2-0.8-0.8-0.9-0.3-1.2 0.6-0.4-0.3 0-0.5-0.4-0.4-1.5 0-1.9-0.6-0.7-0.2-1 0.1-1.6-0.2-1 0.2-1.2-0.4-2.2-0.2-0.2 0.7-0.8 0.5-1.2 1.2 0.3 0.5-0.1 1.7 1.2 1.2 0.2 0.6 1.1 0.5 0.7 1.6 0.3 0.6 0.4 1.4-0.2 1.6-0.2 0.8 0.5 1.4 1.1 1 0.3 0.7 1.7-0.2 2.1 0.8 0.8 0.2 1.2-0.8 1.6-0.3 1.2-0.4 0.6 1 1.6 0.7 1 0.2 0.1 1.7 0.6 2 0 0.7 1.1 0.5 1.7 0.9 0.6 0 1 0.1 1.4-0.1 0.8 0.1 1.1-1 2-0.8 0.7 0 1-1.2 1.4-0.4-0.2 1.5-0.6 2.9-1 4.4 1.1-0.3 1.4 0.3 1.7 1.1 0.6 1.1 1.2 0.7 1.7-0.2 0.2 0.7-0.3 1.8 0.6 2.2 0.1 1.3 1-0.2 0.8-0.7 0.9 0.2 1.7-1.1 1.9 0.1 0 1.1 0.8 0.7 1.4 1.2-0.2 0.9 1.7 0 1.5 1.2 0.3 0.9 0 0.9 0.9 0.5 0.6-0.2 0.8-0.7 1.4-1 0.6-0.3 0.9 0.1 1.9 0 0.6-0.5 1.2-0.5 1.8-0.7 0.8-0.2 0.8-0.7 1.4-1.3 0.7 0.7 0.1 1.5 0.6 2.2 0.7 1-1.7 0.9-0.8 1.8 0.4 0.7 0.6 1.8 1.6 1.4 0.7-0.1 1.4-0.4 1.6-0.9 1 0.2 0.6-1 1.7-1 0-1.3 0.4 1.2 1.2 0.7 0.6 0.9 1.6 0 2.2 0.5 0.7 1.2 0.9-0.5 1-0.5 0.2-0.5 0.8-1 1.2-1.2 0.2-0.6 0.6-1 1-1.4 0.8 0 0.7-0.7 1.5-1-0.3-0.8 0.7 0.2 1.1 0.1 0.7 0 0.8 1.4 1.5 0.8 0.5 0.2 0.6 1.1 0.6 1.8 0.1 1 0.7 0.4 0.7 0.2 0.5-1 0.9 0 1.8-0.3-0.2-0.9 0.9-1.1 1.6-1 1 0 1.2-0.1 2 0 0.2-0.6 1-0.4 1.3 0 0.3 0.3 1.3 0.8 1.7 0.3 0.5-0.4 1.8 0.1 1.7-0.8 0.2-0.7 1.2-1.2 0.7-1.4-0.6-0.5-1.7-0.8-1.9-1.5 0.9 0.1 0.8-0.9 1.5-1 0.1-0.9 0.6-0.6 0-1.5-0.3-0.6-0.4-1.1-0.9-1.5-0.6-0.7 1.2-0.6 0.7-1.4 0.1-0.3-0.6-0.9-0.8-1.2-0.8 0-0.5-1.1-1.5-1-0.8 0-1.5-0.2-2.2-0.5-0.1-0.5-0.5-1.1 0-1.5 0.4-0.3 0.4-1.8-0.4-1.7-0.4-0.4-1.2-0.7-1.2-1.3-0.7-0.5-1.2 0.3-1.4-0.2-0.5-0.2-1.2-0.4-1.9-0.5-0.3-0.5-1.2-0.5-1.5-0.9-0.8 0.1-0.6-1.2-1.2-1.2-0.1-0.3-0.1-1.1-0.6-1.7 0-1-0.8-0.7-0.9-1.6-0.2-0.3-0.6 1.1-0.5 1.7-0.7 0.2-1 1-1.4 1.4-0.2-0.6-1.5 0.5-1.7-0.2-0.4-0.6-0.7-0.3-1.5-0.4-0.5 0.2-1.2 0.3-1.8 0.4-0.2 0.7-1.3-0.2-1.7-0.4 0.3-1.1-0.4-1.2-0.9-1.5-0.5-0.3-0.1-1.4-0.6-1.7-0.8-0.2-0.3-1.2-1.1-0.4-0.4 0.4-1.4 0.5-2 0.2-0.4-0.7-0.3-1.5-0.6-2 0-0.7-0.3-1.1-1-1.3-0.4 0.8-1.4 0.3-2 0.8-0.6-0.2-1-0.6-1.6-0.8-0.4-0.6-1.6 0.6-1.8-0.2-0.7-0.1-0.8-0.8-1.5-0.9-0.4-0.4-0.6-1.1-1-1.4-0.9-0.4-0.9-0.2-1.7-0.4-0.4 0.5-0.9-0.2-1.7 0.2 0.2-0.4-0.5-0.1-0.7-0.2z"/>
		<path id="map_los_rios_Futrono" fill-rule="evenodd" class="map-los-rios s1" data-siglaregion="LR" data-sigla="futrono" data-nombre="Futrono" d="m169.1 72.4c-0.6 0.5-2 0-2.7 0.7-0.8 0.3-0.7 1.1-1.6 1.2-0.6 0.8-2-0.3-2.5 0.3-0.2 0.7-1.3 0.5-1.5 1.2-0.6 0.6-1.2 1-2.5 0.8-1.2-0.2-1.6 0.5-1.5 1.7 0.5 1 0.1 1.6-0.7 1.9-0.4 0.8-1.1 1.1-1.7 1.5-0.3-0.7-1.4-0.6-1.9-1.2-0.3-1-1.5-0.3-1.6 0.3-0.2 0.9-1.4 0.6-1.6 1.8-0.6 1.2-1.4-0.6-2-0.6-0.4-0.5-1.2-0.7-2-1-0.8-0.9-0.9 0.7-1.5 0.7 0.2 1.5 0 2-1.3 2.3-0.6 0.8-1.1-1.6-1.6-0.6-0.6 0.4-1.8 0.2-1.8 1.2-0.8 1-0.6-0.8-1.2-1.2 0.5-0.3-0.7-1.1-0.7-1.9-0.4 0.9-0.4 1.8-1 2.6-0.5 0.8-0.7 1.8-1.6 2.2-0.5 0.8-1.5 0.9-2.6 0.8-0.4-0.2-2.1-0.1-2.4 0.5-0.8 0.9-2.3-0.7-2.7 0.9-0.9 0.5-1.1 1.3-2.4 1.1-0.9 0.6-2.1 0.4-3.2 0.2-0.4 0.7-1.6-0.5-2.1-0.7-0.5-0.1-1.1-0.3-1.6-0.9-0.2-0.4-1.8 0.1-1.8-1-0.7-0.1-1.1-2.1-1.7-0.9 1 1.2-0.5 1.3-1.3 1.3-0.4 1.1-1 0.4-1.6 0.2-0.6-0.1-0.8-0.3-1.5-0.4-0.7-0.8-0.9-0.1-1.3 0.5-0.7 0.5-1.7 0.2-2.5 1.1-0.9 0.9-2 1-2.9 1.6-1.1 0.8-2 1.5-0.5 1.7 0.6 0.4 0.7-0.3 1.7 0.2 0 0.9 1 0.9 1.5 1.5 1 0.9-0.9 1.8 0 2.4-0.8 0.7 1.4 1.1 2.1 1.1 1 0.2 1.3 0.9 1.8 1.4 0.6 0.3 1.1 1.3 0.1 1.5-0.7 0.5 0.2 1.1 0.4 1.5-0.1 0.8 1.1 1.2 0.5 1.7-0.4 0.5-0.7 0.8-1.2 1.5-1.3 0.1 1.4 1.5 1.9 1.7 0.7 0.2 0.7 1 1.5 1.2 0.7 0.5 1.3 1.1 2.2 1.3 1.1 0.1 2.1 0.5 3.3 0.5 1.2 0 2.2 0.4 3.4 0.4 0.3 0.7 1.3 0.6 1.2 1.5 0.4 0.8-0.3 1.9 0.2 2.7 0.7 0.3 0.6 1.8 1.7 1.5 0.5 0.5 2.5 0.4 3 0 0.8-0.1 1.2-0.4 1.6-1.1 0.7-0.8 1.1-0.9 1.4-1.8 0.6-0.2 1-1 2-1 1-0.8 2.3 0 3.4 0 0.6 0.5 0.6 2 1.2 1.5 0-1.1 1.5-0.6 1.9-1.4 0.7-0.6 0.6-1.6 1.7-1.9 0.6 0.6 1.8 0.4 2.5 0.8 0.2-1.1 1 0 1.3 0.5 1.1-0.2 1.5 0.7 2.2 1 0.6 0.2 1.2 0.8 1.7 0.9 0.5 0.7 1.4 0.9 2.4 1 0.5 0.5 0.9 0.9 1.6 1 0.8 0.7 2.2-0.5 2.7 0.5 0.6 0 1.5 1 2 1.4 0.8 0.2 1 0.6 1.7 1.1 0.6 0.4 1.1 1 1.2 1.7 0.5 0.4 1.2 1.1 1.7 1.5 0.3 0.5 1 0.7 1.7 0.9 0.5 0.8 1.2-0.3 2-0.4 1.1 0.2 2.4 0.1 3.4 0.4 1.3-0.1 2.1 0.2 2.8 0.8 1.3-0.3 1.7 0.5 2.9 0.5 0.7 0.3 2.1 0.5 2.9 0.7 1.4-0.4 1.4 0.7 2.5 1.2 0.6-0.6 0.9 0.9 2 0 0.5-0.6 1.9 0.1 2.4 0.3 1.3 0 2.4-0.1 3.4 0.4 0.8 0.6 1.7 0.5 2.7-0.3 1.1-0.2 2.5-1.2 0.9-2-0.9-0.9-0.5-2.2-1.2-3.1-0.1-1.3 0.1-2.5-0.7-3.5-0.9-0.7-1.7-1.1-2.8-1.6-1.3-0.1-0.5 1.9-1.8 2.5-1.2 0.6-2.3-0.7-2-1.9-0.4-1.3-1.8-1.9-2.4-3.1-1.3-0.2-2.1-1-2.4-2.3-1.2-0.1-1.8-1.4-1.8-2.6-0.7-1.3 1.8-1.4 2-2.7 1.3-1.1 0.6-1.9-0.8-2.3-1.3-0.9 0.1-1.9-0.2-3.1 0.5-1.1 0.8-1.7 0.3-3.1 0.1-1.9-2.2-0.5-2.2-1.7 0-1.6 1.8-1.9 2.3-3.2 0.6-0.9 0.9-1.9 1.1-2.7-0.7-0.7 0-1-0.5-1.8-0.2-1.2-2-0.4-1.6-1.4 0.6-1.2-0.6-1.2-0.9-1.8-0.2-1.3 1.3-0.7 1.3-1.7 0.4-0.7 2.1-0.1 1.7-1.6-0.5-0.8-0.3-1.8-0.9-2.5-0.9-0.3-1.3-0.7-1.8-1.1-0.9-0.6 0.8-1 0-1.7-0.2-0.9-1.2-1.1-2-1.5-0.1-0.9-1.3-0.2-1.7 0-1 1-1.4-0.6-1.7-1.5-0.1-0.5-1.1-0.7-1.8-0.7z"/>
		<path id="map_los_rios_La_Union" fill-rule="evenodd" class="map-los-rios s1" data-siglaregion="LR" data-sigla="la_union" data-nombre="La Unión" d="m9.8 89.3c-0.6 0.8-1.9 0.5-2 1.5-0.3 1.4-0.8 2.1-2.5 1.7-1.3-0.3-3 0.2-0.8 0.6 0.5 0.8 1.4 1.5 1.8 2.4 0.5 1 0.9 1.8 1.2 2.7 0.3 1.1 0.8 1.9 1 2.7 0.6 1.7-0.3 1.2-0.7 2.2 0.1 1.2 0.6 1.6 0.7 2.7 0.2 0.8 0.6 2.8 0.3 3.2 0.1 1.4-0.9 1.9-1.8 2-0.8-0.5-0.3 2-0.9 2.4-0.3 0.8-0.8 1.7-1.5 2-0.7 0.3-2.3-0.1-1.2 1.2 0.1 1.2 0.6 1.9 0.2 3-0.5 0.3 0.3 2.4 1.2 1.3 0.8-1.8 3.3-0.3 2 1.2 0.2 1.2 0.8 2.6 2.2 3 1 0.6 2 0.9 3.2 1.1 1.3 0 2 1 3.2 1 1.1-0.7 1.2-2.6 2.7-1.7 1 0.9 2.2 0.1 3.5 0.2 1.4 0.3 2.4-1 3.4-1.7 1.5 0.9 3-2.1 3.1 0.2 0.9 1.1 0.4 2 1.1 3 1.3-0.1 2.5 1.1 2.7 2.2 0.3 1.8 1.7 1 3 1 1 1 2.3 0.8 3.3-0.2 1.7 0 3.6-0.2 5.2 0.1 0.3 1.6 2 1.8 3.3 1.3 1 0.9 3-0.3 3.7 0.3 1.3 0.3 2.2-1.3 3.4-0.7 1 0.8 2.4 2 3.3 0.3 2.1-0.4 0-1.3 0.6-1.8 0.9-0.6 2.5 0 2.5-1.2 0.6-0.7 1.6-0.8 2.2-1.3 1.1-0.5 2.3 0.2 3.4 0.8 1.4-0.7 2.5-0.3 4-0.3 1 0.3 2.1 0.8 3.2 0 1.3 0.6 2.1-1.1 3.2-0.5 0 0.8 1.2 1.6 2.1 1.1 0.8-0.7 2.1-0.7 1.5-1.8 0.7-0.8 1.4-1 2.3-1.5 0.6 0.6 1.2-0.2 1.5-0.7-1.8-0.9 0.3-1.3 1.4-1-1.2-0.9 0.4-1.3 1-1.5 1.4 0.2 1-1.7 2.4-1.6 0.7-0.1 0.5 1.6 1.8 1.4 0.4-1.4 1.4 0.7 1.7-0.5 0.1-1.3 1.5-0.1 2-1 0.9-0.6 1.6-1.6 2.4-1 0.9 0.7 1 1.1 1.7 0.1 1.1-0.2-0.3-1.8 1.3-1.8 0.2-1 2-0.5 2.7-1 1 0.1 1.1 1 1.2 1.2 1.2 1 0.8-1.3 1.8-1.4-0.7 0.9 0.3 2.2 1.4 1.4 0.9 0.4 1.1 1.2 1.8 1.7 0.8 1.2 2.3 0.1 3.1-0.9q3.9-4.3 7.9-8.6c-1.6 0.1-2.9-0.4-4.2-0.5-1.1-0.2-1.9-1.1-2.7-1.5-0.5-0.5-1.1-1.7-1.9-0.3-0.2 1.5-1.7 0.9-2.5 1.5-1.2-0.1-1.3-0.9-2.1-0.9-0.7 0.8-2.2 0-3.5 0.6-0.7 1.2-1.6 0.3-2.5 1.1-0.1 1.3-0.6-0.9-0.8-1.5-0.4-0.2-1.2-1.1-2.2-1.3-0.6-0.9-1.2-0.1-1.5 0.8-1.1-0.2-1.1 0.8-1.7 1.2-0.3 0.6-1 1.1-1.5 1.5 0.5 1.7-1.1-0.3-2.2 0.5-1.7-0.5-1.5-2.3-2.9-0.8-0.3 0.8-1.2 1.1-2.2 1.5-1.4 0.5-2.7-2.4-0.9-2.6-0.1-0.5-0.2-3.9-1.1-2.1-0.8 0.6-1.7 0.8-2.6 1.2-1.2 0.1-2-0.3-2.6 0.6-0.4 0.3-1.9 1.5-1.6 0.1-0.7-1.1-1.9-1.3-2.8-1.8-0.1-1.7-1.3-1.1-2.2-0.5-0.2 2.2-1.7-0.3-1.2-1.5-0.8 1.4-2-0.5-2.7-1.2-1.5 0 0.2-2.6 0.1-3.7 0.3-2-0.7 0-1.9-0.3-0.9 0.6-1.7 1.2-2.4 0.8-0.9 0.1-2.6-0.2-2.2-1.5 0-1.5-1.2-1.8-2.2-2-0.6 0.3-1.9-0.1-3.2-0.2-1.3-0.7 0.2 0.6-0.5 1.5-0.2 0.6 1 1.6 0.5 1.9-0.6 0.7-2.7 0.5-3 1.5-1-0.5-2.5-0.3-2.9 0.2-0.7 1.2-1.3-0.5-1.5-1.2 0.5-0.9-1.1 0.1-2 0-1.3-0.1-0.7-1.5-1.5-2.2-0.4-0.4-1-0.9-1.9-0.5-1.3-0.5-1.7-0.5-2.3 0.3-1 0.5-2 0.6-2.9-0.3-1.5-0.3-2 0.6-2.4 1.7-0.8 0.4-2.1 0.3-2.3 1.3-0.9 0.4-0.9 1.3-1.4 2.2-0.8 1.4-0.9 1.1-1.8 0.7-0.8-1.9-0.6 0.4-1.9-0.2-0.5-0.8-1.8 0-2.5-0.8-1.1-0.6 0.4-0.8 0.5-1.5 0.7-1.1 0.4-2.3-1-2.4-0.6-0.9-0.9-1.5-0.7-3-0.6-1.1-1.3-0.7-2-0.7-0.8-0.5-1.6-0.5-2.2-1.2-0.5-0.6-1.6-1.2-1.7-2-0.9-0.5-1.5-1.3-2.2-1.7-1-0.6-2.8 0.6-3.2-0.8-0.7-0.7-1.6-0.2-2.7-0.5z"/>
		<path id="map_los_rios_Rio_Bueno" fill-rule="evenodd" class="map-los-rios s1" data-siglaregion="LR" data-sigla="rio_bueno" data-nombre="Río Bueno" d="m101.5 118.1c-0.4 0.8-1.6 0.7-2.2 0.5-0.2 0.2-1.7 0.6-2 1.3-0.9-1-1.8-1.2-2.9-0.3-0.7 1.6-2.5 0-2.5 1.7-0.7-0.5-2.2 1-2.7-0.5-0.5-1.3-2-0.2-2.5 0.8-1.1 0.4-2.6 0.7-1.9 1.7-2.7-0.5-1 0.9-1.7 1.5-0.6 0.8-2.1 0.1-2.9 1.4-0.2 1.2-0.7 1.4-2 2.3-1.8 0.6-1.8-2.2-3.1-1.2-1.1 0.5-2.8 0.8-3.8 0.7-1.2-0.2-2.6-0.3-4-0.5-1.2 1-2.4-0.1-3.6-0.5-1.2 0.1-2.1 0.6-3.3 1.2 0 1.5-2.2 0.8-2.9 1.7 0.3 1.1 2.3 1.3 3.6 0.8 1.7-1.1 1.6 0.4 2.7 1.6 1 1.3 2.6 1.1 3.7 2.3 1.1-0.2 2.5 0.2 3.8 0.2 1.5 0.3 2.1 2.4 3.4 3 1.5 0.4 0.5 2.5 2.2 2.7 0.6 1 2.9 0.1 2.2 2 0.6 1.2-0.4 3.2 1.3 3.7 0.6 1.2-0.2 2.4 0.9 3.3 1.1 0 1.3 1.2 2.7 1.8-1.4 0.7 0.3 0.8 1.3 1.8 0.9 1.3 3.3-0.3 2.4 1.4 0.5 0.9 2.9 1.3 2 2.7 0.4 1.5 2 1.5 2.7 2.7 1.2 0.5 2.9-0.4 3.5 1 0.8-0.1 2.1 0.1 3 0.9 1 1.4 2.5-0.7 3.8 0.3 0.7 1.2 0.9 2.3 1.3 3.5 1.1 0.2 1.6 1.6 2.7 2 1 1.8 2.2 0 3.2 0 0.9-0.8 2.7-0.5 3.7-1 1.7 0.1 3-0.1 4.4-0.3 1.1-0.4 2.4-0.7 3.4-1.2 1.1-0.6 2.7-1 3.7-0.5 1.7-0.2 3.1 0.4 4.7 0.2 1.5 0.1 2.1 1.2 3.5 1.5 2.5 1 0-1.4 1.7-1.5 0.3-1.2 1.5-2.1 2.2-1.4-0.5 1 2.5-0.4 2.4 1.4 1 1.2 2.3-0.2 3.8 0 0.8 0.8 2.5 1.1 3.1 0 1.2-0.6 2.1-0.7 3.2-0.4 1.4-0.2 2.6-1 3.7-0.5 0.7 0.8 2.4-0.3 3.2-0.5 1.1-1.1 0.3-3 2-3 0.7 0.6 2.4-1.4 2.9 0.3 0.9 0.6 2.6 0 3.5-0.3 1.8 0.2 1.2-1.9 2.7-1.9 1-1.1 1.2-1.8 1.4-3.5 1.5-0.1 2.5-1.3 3.5-0.7-0.1 1.5 2.7 1.2 3.4 0.9-0.2-1.4 0.1-2.9 1.3-3.9-1.1-0.5-2.3 1.5-3.4 0.6-0.5-1.6-2.4-1.2-2.8-2-0.6-0.6-3-1.2-2.7 0-2.3 0.6-1.4-1.5-2.4-2.2-0.9-0.7-2.2-1.5-3.3-0.6-1.4 0.3-1.2 1.7-2.9 1.8-1.3 0.7-2.4 0.8-3.8 0.4-1-0.6-1.1 1.5-2.8 1.5-0.1 0.4 0.4 2.4-0.3 3.3-0.5 1.6-2.3 0.1-2.4-0.8-0.7-0.8-1.8-1.7-2.3-2.5-0.9-0.7-2.8-0.6-3.1-1.9-1-0.4-1.5-1.4-2.8-1.8-1-0.3-2.4-0.1-3.9-0.2 0-1.1-0.5-2.4-2-2.5-1.8 0.4-1.6-1.2-2.2-2.4-0.4-1.2-0.7-2.7-0.2-4-1.1-0.5-1.5-1.5-2.8-0.9-0.8 0-2.3-0.6-3.6 0-0.6-0.7-1.4-1-2.7-1.5-0.7-0.8-2-1.3-3.2-1.5-0.9 0.2-2.8-0.1-3.5-0.7-1.2-0.6-2-1.1-3.2-1.5-1.1-0.7-2.4 1.6-3.2 0-1.2-0.4-0.8-1.7-1.7-2.5-0.1-1-1.8-2-0.9-2.8 1.2-1.5-1.4 0.2-1.3-1.3-0.8 0.3-2.1 0-2.5-1.3-0.9-0.3-1.4-0.2-1.9-1.9-0.7 0.1-1.1-1.3-0.3-2-0.1-0.6-0.4-1.5-1.4-2z"/>
		<path id="map_los_rios_Lago_Ranco" fill-rule="evenodd" class="map-los-rios s1" data-siglaregion="LR" data-sigla="lago_ranco" data-nombre="Lago Ranco" d="m119.2 109.8c-3 3.1-5.8 6.5-8.9 9.5-0.9 1.1-1.8 0.3-2.3-0.2-0.8-0.4-0.7-1.4-1.8-1.5-0.6 0.7-2-0.4-1.2-0.9-0.5-1.5-0.6 1.2-1.3 1.2-1.2 0 0-0.8-1-1-0.3-1.1-1.3 0.1-2.4-0.2-0.6 0.3-1.1 0.5-1.6 1.1-1 0.3 0.4 1.2 0.5 1.2 0.7-0.7 0.6 0.5 1.3-0.6 0.8 1.1 0.9-0.4 1.3-0.1 1.2-0.2 0.7 1.3 1.4 1.3 0 0.4-0.5 1.1-0.5 1.7 0.2 0.6 0.5 0.7 1 1.2 0.1 1.3 1 0.8 1 1.5 0.9-0.7 0.7 1.2 1.6 1 0.5 0.5 1 0.5 1.6 0.3-0.2 1.2 1.3 0.3 1.5 0.7 0 0.2-0.3 0.7-0.5 1.4 0.3 1.1 1.3 0.9 1.2 2 0.5 0.4 0.8 1.5 1 1.8 0.2 0.7 0.9 0.8 1.7 1.4 0.7-0.7 1.6-1 2.4-0.7 0.5 0.5 1.6 0.5 2 1 0.9 0.4 1.4 0.6 2.2 1.1 0.9 0.3 2.3-0.1 2.8 0.4 1-0.3 1.5 0.4 2.2 0.7 0.2 0.5 1.5 0.7 1.9 1.2 0.9 0.1 0.7 0.7 1.7 0.6 1.2-0.4 1.9 0.3 3 0.2 0.4-0.1 1.3-0.3 1.8-0.1 0.2 0.9 1.5 0.5 1.2 1.8-0.8 0.7 0.3 1.8 0 2.9 0.6 0.3 0.4 1.8 1 2.2-0.1 1.1 2 0 2.3 0.9 1 0.2 0.9 1.3 1.1 1.9 0.6 0.5 2.3 0.2 3.1 0.2 0.8 0.2 1.5 0.4 2 1 0.6 0.3 0.9 0.8 1.6 1 0.1 1.2 1.1 0.8 1.8 1.3 0.7 0.7 1.9 0.2 1.8 1.4 0.4 0.7 1.3 0.9 1.7 1.5 0.1 0.5 0.8 1.4 1.2 1.7 1.4 0.4 1.4-1.1 1.6-1.9 0.9-0.8-0.9-2 0.1-2.2 1-0.2 2-0.7 2-1.6 1 0.2 1.7 0.5 2.8 0.5 0.8-0.4 1.7-0.8 2.7-1 0.8-0.4 0.7-0.9 1.5-1.5 1-0.1 1.9-0.8 2.9 0 0.7 0.5 1.4 1 1.5 1.7-1 1.3 2 1.3 1.8 0.8-0.1-0.8 2-0.3 2.3 0.2 0.6 0.4 1 0.7 2 0.9 1.2-0.5-1-1.6-0.8-2.5-0.5-1.5 2.6 1 2.1-0.9-0.1-1.2 1.9-1.9 1-3.1-0.8-1.3 0.5-2.4 0.2-3.7-0.3-1.3 0.9-2.2 0.2-3.4 0.4-1 1-2.1 1.6-3.1 0.4-1 0.4-2.2 1.4-3.1 0.6-1 2.1 0.1 2.8 0.7 1.2-0.4 2 0.3 2.4 1.5 0.4 1.5 2 0.3 2.5-0.4 1.8-0.2 3.2-1.9 2.9-3.8 0.4-0.8 0.1-2.2-0.7-2.4-1.1-0.4-1.8-0.6-3.1-0.5-1.2 0.1-1.5-0.7-2.9-0.5-0.5 0.5-1.5 0.6-1.9 0-0.5 0.9-1.3-1-1.7-1-1.4 0.3-1.9-0.4-3.1-0.5-1 0.1-1.8-0.5-2.6-0.7-1 0.1-1.8-0.3-2.4-0.8-1.3 0.2-2.3-0.4-3.6-0.2-0.9-0.6-2.2 0-2.6 0.4-1 0.2-1.3-0.6-2.1-0.6-0.4-0.4-0.8-1-1.4-1.3-0.7-0.7-0.8-1.1-1.2-1.9-0.6-0.3-1.3-1-1.7-1.3-0.7-0.1-1.3-0.9-2.2-1.4-0.4-0.4-1.2-1.1-2-0.5-1.3 0.2-1.7-0.7-2.5-0.8-0.2-0.7-1.6-0.6-2.1-1-0.8-0.4-0.9-0.7-1.7-1.1-0.6-0.4-1.2-0.7-1.8-1.1-0.9-0.2-1.5-0.6-1.7-1.2-0.6 0.4-1.3 0.6-2 0-1-0.1-2.3-0.6-2 1-1-0.1-1 1.4-2.1 1.2-0.9 0.5-0.5 1.3-1.3 0.5 0.2-1.5-1.6-1.3-2.6-1.5-1-0.1-2 0.4-2.6 0.8-0.8 0.3-0.8 1.2-1.4 1.4-0.3 0.8-1.1 1.3-1.3 1.8-0.9 0.1-1.5 0.7-2.9 0.5-1-0.1-1.7-0.2-2.2-0.9-0.3-1-1-1.2-0.8-2.4 0.3-0.6 0.2-1.7-0.5-1.9-0.4-0.7-1.3-0.9-2.3-1-0.4 0-0.7 0.1-0.9-0.2z"/>
		<path id="map_los_rios_Region_Araucania" fill-rule="evenodd" class="map-los-rios s2" d="m187.8 31.6c0.7-1 0.5-2.3 0.5-3.5 1.2 0.1 0.7-1.3 0.3-1.9 0-1.7-1-0.7-2-0.8-0.5-0.9-1.2-1.2-1.7-1.9-0.8-0.4-1.7 0.2-2.5 0.4-1-0.1-1.4 0.3-1.7 1.2-0.7 0.1-0.9-1.1-1.5-1.2-1.2 0.2-1.6-1.4-3-1-0.9-0.3-1-1.7-1.9-1.7-0.4-0.3-1.6-0.6-1.7-1.2-0.7-0.4-0.5-1.2-1.2-1.9-0.2-0.8-0.4-1.4-1.2-1.6-1.2 0.2-1.6-0.7-2.7-0.7-1.2-0.1-1.9-0.5-2.9-0.7-0.3-0.2-0.5-0.4-0.9-0.3-1 0.2-0.7 1.3-1.4 1.5-0.6 0.6-1.5 1.9-2.8 1.5-1.1 0-2.1 0.4-2.8 0.7-0.6 0.5-1 1.2-1.6 1.5-0.5 0.4-2 0.3-2.2 1.4-0.7 0-1.3 1-1.9 1.4-0.5 0.8-0.9 1.1-1.3 2.1-0.7 0.2-1.7 0.7-2.2 1.2-1 0.1-2 0.5-3.1 0.5-1.2 0.3-1.9 0.6-3.3 0.5-0.7 0.4-2 0.3-3 0.5-1.3 0.2-2.3-0.4-3.6-0.2-1-0.4-1.6-0.7-1.7-2-0.1-1.3-1.3-1-1.8-0.2-1.1-0.3-1.9 0.4-2.4 0.9-0.3 0.5-0.7 0.9-1 1.4 0-0.4-0.3-0.7-0.6-0.6-0.8 0.2-1.3-0.4-2.1-0.3-0.6 0-1.4 0.1-1.7-0.2-0.2-0.3-0.6-0.8-1.2-0.8-0.2-0.3-0.6-0.8-1.1-1.2-0.7-0.1-1-0.3-1.4-1-0.5 0.2-1.1 0.2-1.3-0.2-0.7-0.2-1-0.2-1.6 0.2-0.7 0.2-1.2-0.4-1.8 0-0.7 0-1.2-0.3-2-0.2-0.5-0.5-1.4-0.2-1.9 0-0.6 0.5-0.8-0.2-1-0.6-0.3-0.5 0.1-0.9-0.3-1.6 0.1-0.7 0-1.3-0.5-1.7 0.1-0.7-0.4-1.2-1.1-1-0.5 0.3-1 0.8-1.7 0.7-0.1 0.5-1.3 0-1.5 0.5-0.6-0.1-0.9 0.7-1.5 0.7-0.6-0.6-1.7 0.2-2.3-0.5-0.7-0.1-1.1 0.7-1.5 0.8 0 0.5-0.5 0.6-0.7 1-0.6-0.2-1.4 0.2-1.7 0.1-0.4-0.4-0.5-0.6-1.1-1-0.3-0.4-0.6-0.7-0.9-1.3-0.3-0.2-0.7-1-1.3-0.9-0.5-0.3-1.2-0.1-1.7-0.4-0.3-0.4-1.4-0.2-1.4 0.3-0.6 0.5-1.1 0.5-0.8 1.4-0.6 0.3-1.1-0.2-1.7-0.4-0.3 0.7-0.8-0.4-1.2-0.6-0.6 0.6-0.2-0.5-1 0-0.5-0.2-1.4 0.8-1 0 0-0.6 0.8-0.6 0.1-1.3-0.7-0.2-0.7-0.9-0.8-1.4 0.1-0.4-0.5-0.1-0.7-0.2 0 0.5-1 1-1.3 0.5-0.7-0.1-1.3 0-1.8 0.3q-0.3 0.2-0.7 0.3c-0.5-0.2-0.9-0.9-1.3-1.5-1.4-0.5-1.3 0.3-1.3 1.1 0.3 1.2-1.4 0.2-1 1-0.6 0.5-1.1 0.8-1 1.8-0.8-0.3-0.4-1.3-0.6-1.6-0.5-0.9 0-1.5 0.1-2.4 0.1-0.9-1-1.7-0.1-2.2 0.3-0.6 0.8-0.6 1.6-1 0.7-0.1 0.8-1.2 1.4-1.7 1.2-0.3-0.4-1.1 0-2.1 0-1 1.5-0.5 1.8-1.5 0.1-0.7 1.1-1.6 0.4-2.2-1-0.2-0.6-1.3-1-2-0.6-0.5-1.3-0.6-2.1-0.6q-0.3 0-0.7 0-1.4 0-2.8 0c-0.2 0.4-0.9 1-1.4 1.5-0.7 0.5-1.1 1.4-1.8 1.7-0.5 0.6-1.3 0.2-1.7-0.2-0.7-0.8-1.3-0.8-1.8-1.4-0.9-0.2-1.9-0.3-2.4-0.7-0.8-0.2-1.3 0.8-1.7 0.9-0.7 0-0.6 1.3-1 1.6 0.5 0.9 0.5 0.9 0.3 1.9 0.5 1.3-1.3 0.7-1.5 1.4-0.7 0.7-0.7 1.4-1.4 2.1-0.9 0.7-0.9 1.3-1.3 2.1-0.4 0.6-0.3 1.4-1.1 2-0.5 0.9-1 0.3-1.9 0.6-0.3 0-1.8-0.4-1.9 0.6-0.5 0.4-0.8 0.9-1.2 1.4-0.3 0.5-1.1 0.7-1.3 0.8-0.9 0.8-1.4-1.2-2.2 0-0.5-0.6-1.3-0.1-1.5-0.3-0.8 0-0.8-1.2-1.6-1.3-0.4-0.7-0.9-0.9-1.9-0.9"/>
		<path id="map_los_rios_Region_Los_Rios" fill-rule="evenodd" class="map-los-rios s2" d="m4.8 120.9c0.8-1.8 3.3-0.3 2 1.2 0.2 1.2 0.8 2.6 2.2 3 1 0.6 2 0.9 3.2 1.1 1.3 0 2 1 3.2 1 1.1-0.7 1.2-2.6 2.7-1.7 1 0.9 2.2 0.1 3.5 0.3 1.4 0.2 2.4-1.1 3.4-1.8 1.5 0.9 3-2.1 3.2 0.2 0.9 1.1 0.3 2 1 3 1.3-0.1 2.5 1.1 2.7 2.2 0.3 1.8 1.7 1 3 1 1 1 2.3 0.8 3.3-0.2 1.6 0 3.6-0.2 5.2 0.1 0.3 1.6 2 1.8 3.3 1.3 1 0.9 3-0.3 3.6 0.3 1.3 0.3 2.3-1.3 3.5-0.7 1 0.8 2.4 2 3.3 0.3 1.3-1.3 1.6-0.4 4-0.8 1.7-1.1 1.6 0.4 2.7 1.6 1 1.3 2.6 1.1 3.7 2.2 1.1-0.1 2.4 0.3 3.8 0.3 1.5 0.3 2 2.4 3.4 3 1.5 0.4 0.5 2.5 2.2 2.7 0.6 1 2.9 0.1 2.2 2 0.6 1.2-0.4 3.2 1.3 3.7 0.6 1.2-0.1 2.4 0.9 3.3 1.1 0 1.3 1.2 2.8 1.8-1.5 0.7 0.1 0.8 1.2 1.8 0.9 1.3 3.3-0.3 2.4 1.5 0.5 0.8 2.9 1.2 2 2.6 0.4 1.5 2 1.5 2.7 2.7 1.2 0.5 2.9-0.4 3.5 1 0.8-0.1 2.1 0.1 3 0.9 1 1.4 2.5-0.7 3.8 0.3 0.7 1.2 0.9 2.3 1.3 3.5 1.1 0.2 1.6 1.6 2.6 2 1 1.8 2.3 0 3.2 0 1-0.8 2.8-0.5 3.8-1 1.7 0.1 3-0.1 4.4-0.3 1.1-0.4 2.3-0.7 3.4-1.2 1.1-0.6 2.7-1 3.7-0.5 1.7-0.2 3.1 0.4 4.7 0.3 1.5 0.1 2.1 1.1 3.5 1.4 2.5 1 0-1.4 1.7-1.4 0.3-1.2 1.5-2.2 2.2-1.5-0.5 1 2.5-0.4 2.4 1.4 1 1.2 2.3-0.2 3.8 0.1 0.8 0.8 2.5 1 3.1 0 1.2-0.7 2.1-0.8 3.2-0.5 1.4-0.2 2.6-1 3.7-0.5 0.7 0.8 2.4-0.3 3.2-0.5 1.1-1.1 0.3-3 2-3 0.7 0.6 2.4-1.4 2.9 0.3 0.9 0.6 2.5 0 3.5-0.3 1.8 0.2 1.2-1.9 2.7-1.9 1.1-1.1 1.2-1.8 1.4-3.5 1.5-0.1 2.5-1.3 3.5-0.7-0.1 1.5 2.7 1.2 3.4 0.9"/>
		<path id="map_los_rios_Internacional" fill-rule="evenodd" class="map-los-rios s3" d="m176 155.2c-0.2-1.4 0.1-2.9 1.3-3.9-1.1-0.5-2.3 1.5-3.4 0.6-0.3-0.5-0.7-0.9-1.1-1.2 1.2-0.5-1-1.5-0.8-2.5-0.5-1.5 2.6 1 2.1-0.9-0.1-1.2 1.9-1.9 1-3.1-0.8-1.3 0.5-2.4 0.2-3.7-0.3-1.3 0.9-2.2 0.2-3.4 0.4-1 1-2.1 1.6-3.1 0.4-1 0.4-2.2 1.4-3.1 0.6-1 2.1 0.1 2.8 0.7 1.3-0.4 2 0.3 2.4 1.5 0.4 1.5 1.9 0.3 2.5-0.4 1.8-0.2 3.2-1.9 2.9-3.8 0.3-0.6 0.1-1.7-0.3-2.2q0.8 0.2 1.9-0.6c1.1-0.2 2.4-1.2 0.9-2-0.9-0.8-0.4-2.2-1.2-3.1-0.1-1.3 0.1-2.5-0.7-3.5-0.9-0.7-1.8-1.1-2.8-1.6-1.3-0.1-0.5 1.9-1.8 2.5-1.2 0.6-2.3-0.7-2-1.9-0.3-1.3-1.8-1.9-2.4-3.1-1.3-0.2-2.1-1-2.4-2.3-1.2-0.1-1.8-1.4-1.8-2.6-0.7-1.3 1.8-1.4 2-2.7 1.3-1.1 0.6-1.9-0.8-2.3-1.2-0.9 0.1-1.9-0.2-3.1 0.5-1.1 0.8-1.7 0.3-3.1 0.1-1.9-2.2-0.5-2.2-1.7 0-1.6 1.8-1.9 2.3-3.2 1.2 0.7 0.7 0.7 2.6 1.3 1.2 0 2.2 0.4 3.3 0.9 0.8 0.3 1.6 0.9 2.3 1.4 0.8 0.3 1.8 0.6 2.5 0.2 1.1-0.4 1.4-1.4 1.5-2.4 0.4-1.7-0.2-3.5-0.8-5-0.4-0.7-0.8-1.6-0.5-2.4 1.2-0.4 0.6-1.8 0.8-2.7-0.8-1 0.6-1.6 0.9-2.5 0.6-0.5 1.2-1.8 1.8-1.8 0.8 0.6 1.9 0.5 2.4-0.4-0.3-0.9 1.2-1.7 0.1-2.3-0.8-0.4-0.9-1.9 0.1-2.1 1.2 0.3 1.6-0.9 1.4-1.7 1.3-1.7 0.4-4-1.1-5.2-0.8 0.1-2.1-0.2-2.2-1.1 0.2-1.1-0.8-1.6-1.8-1.3-0.6 0.6-1.7 0.6-2.5 0-0.8-0.8-0.5-2.2-0.9-3.3 0.9-0.6 1.4-1.5 2.1-2.3 0.1-0.9-1.5-0.4-1.8-1.4 0.4-1.1 0.8-2.4 0.4-3.4 0-1.2-1.4-1.6-2-2.7-0.6-1.2-0.7-2.2 0.1-3.1 0.9-0.6-0.5-2.4 1.3-2.5 1.3 0.8 2.1-1.5 0.6-1.7-1.6-0.2-0.5-2.4-1.7-2.8-1.3-0.2-1.6-1.9-1.1-2.7 1.5-0.2 1.4-1.5 1.7-2.7-0.3-1.7 0.4-3.4 0.4-5.1"/>
	</g>
</svg>