<svg version="1.2" xmlns="http://www.w3.org/2000/svg" viewBox="0 0 200 350" width="200" height="350" style="width: 50%;height: 50%;">
	<style>
		.map-aysen.s1 { fill: #ffffff;stroke: #757575; }
		.map-aysen.s2 { opacity: .9;fill: none;stroke: #757575;stroke-width: 1.6;stroke-dasharray: 2.2,2.2 }
		.map-aysen.s3 { fill: none;stroke: #757575;stroke-width: 1.6 }
		.map-aysen.s4 { fill: none;stroke: #3c3c3c;stroke-width: 2.0 }
	</style>
	<g id="layer_mapa_aysen" class="layer_mapa_comuna">
		<path id="map_aysen_Lago_Verde" fill-rule="evenodd" class="map-aysen s1" data-siglaregion="AI" data-sigla="lago_verde" data-nombre="Lago Verde" d="m162.9 18c-0.3 0.7-1 0.9-2 0.9-0.6-0.2-1.4-0.8-1.7 0.2 0.2 1.1 0.2 1.2-1 0.9-0.4-0.8-1.2 0.8-1.5-0.3-0.1-0.5-1.5-1.4-1.5-0.2 0.6 0.4 0.3 1.9-0.1 2.3-0.5 0.4-0.7 1-0.9 2 0.2 0.9 0.5 1.3 1.3 1.5 0.5 0.6 0.8 1.4 0.5 2.1 0 1.1-1.1 0.5-1.9 0.6-0.8 0.3-0.4 1.3-0.9 2-0.3 0.8-1 1.5-0.8 2.6-0.2 0.8-0.6 1.9-0.2 2.5 0.3 0.6 0.9 1.3 0.5 2.1-0.5 0.8-1.2 1.4-2.1 1.5-0.6 0.2-1.6 0.7-1.8 1.3-0.3 0.8-0.9 1-1.2 1.6-0.7 0.3-1.5 0.6-0.9 1.5 0.2 0.9-0.1 1.6-0.5 2.2-0.6 0.6-1.3 0.6-2.1 0.8-0.7 0.3-1.3 0.5-1.8 1.4 0 0.8 1.4 1.4 0.6 2.1-0.2 0.7-0.4 1.8 0.1 2.2 0.5 0.4 1.3 0.9 1.9 1.6-0.2 0.8-0.6 1.4-0.3 2.3 0.2 1.3-0.6 1.1-1 1.9q-0.1 1.5 0.8 2.6c1.1 0.1 0.7 1.3 0.9 1.8 0.1 0.6 1.6 1.4 0.4 1.6-0.8-0.6-1.6 1.1-2 0.2-0.1-1.3-1.3-0.1-1 0.7 0.2 0.7 0.4 1.6 0.3 2.6-0.5 0.6-0.9 1-1.5 1.7-0.8 0.5 0.2 1.8 1 1.1 1.1-0.3 2.2-0.2 3.4-0.2 0.9 0.3-0.1 1.6 0.4 2.1 0.2 0.9 1 1.1 0.6 2.1 0 0.9-0.2 2.1 0.4 2.6 0.1 0.7 1 0.9 1.6 1.3 0.3 1.2 0.7 0.7 1-0.2 0.3-0.6 0.6-1.5 1.3-2 0.3-0.6 1-1 1.7-1.2 0.7-0.1 1.5-0.6 2.5-0.5 0.9 0 1.7 0.6 2.6 0.9 0.4-0.8 0.9-1.3 1-2.2 0.8-0.9-1.6-1-0.7-2.2-0.6-1.6 0.9-0.4 1.5-0.8 0.5-0.8 0.6 1 1.1 1.6 0.7-0.7 1.4-0.2 2.2 0.1 0.6 1 1.5 0.2 1.2-0.6-0.2-0.8 1.5 0.2 1.4 0.8 0.5-0.1 1.7 0.7 2.2-0.1 1.7-0.1 0.2-1 0.6-1.6 0.8-0.2 1.2-1.5 2.1-1 0.2 0.7 1.1 0.5 1.9 0.7 0.8 0.5 1.7-0.9 2.1 0.4 0.4 1.3 1.4-0.1 2.3 0.1 1.3 0.3 1.1-0.8 1.5-1.5 1 0.5 1.8-0.6 2.5-0.6 0.6-0.7 1.5-0.6 2.3-0.6-0.1 1.3 1.6 0.7 1.6 1.8 0.9 0.3 1.1 1.2 1.7 1.5 0.9 0.4 1.7-0.3 2.4 0.7 0.8-0.1 1.7 0.7 2.2 0.1 0.9 0 1.6-0.6 1.7-1.6-0.1-1 0.9-1 1.3-1.8 0.4-0.8 0.8-1.4 0.2-2.4-1.1-0.5 0.3-1.5 0.2-2.3-0.9 0.1-1-1-1.6-1.8 0-0.9 1.4-1 0.7-2.1 1.4 0.1 0.3-1.9 1.3-1.5 0.7 0.3 1.5-0.4 2.3 0.3 0.9 0.2 1.8-0.9 1-1.6 0-0.8 0.4-1.9 0.4-2.6-0.7-0.4-0.7-1.8-1.7-1.7-1.3 0.3-1.4-1.4-0.4-1.7 1.3-0.6-1.1-0.7-1-1.8-0.6-1-2-0.5-2.9-0.9-0.2-1.1-1.4-0.8-2.1-0.3-1-0.3-1.7 0.8-2.4-0.4-1 0.6-1-0.7-1-1.4-0.7-0.4-1.4-0.8-2.1 0-0.8 0-1.8 0.4-2.6-0.3-0.5 0.8-1.4 0.6-2.3 0.7-0.6 0.8-1.9 0.9-2.7 0.3-0.8-0.2-1.9-0.1-2.6 0.5-0.8 0.5-2-0.4-2.3-0.9-0.3-1.5-0.8 0.7-1.6 0.8-0.7-0.2-1.5 0.5-1.7 0.9-1.2 0.6-1.2-0.5-0.8-1.2-1.2-0.5-0.2-1.3-1.2-1.9 0.6-0.4-0.8-1.2 0.4-1.4 1.1-0.1 1.4-0.8 1.4-1.9-0.3-0.8-0.5-1.9-0.6-2.4 0.3-0.7-1.9-1-0.1-1 0.4-0.6-0.2-2.4 0.9-2.2 0.9-0.4-0.6-1.2-0.5-2-0.6-0.7-0.5-1.7-1.5-2.1-0.1-0.6-0.2-1.5-0.4-2.2 0-1.3 1.7-0.6 1.8-1.5 0.3-1.2-0.2-1.7-1.1-2.1-0.6-0.4-0.3-1.4-0.9-2-0.5-0.4-1.1-1-0.9-2.1-0.4-0.4-0.8-1.5-0.2-2 0.3-0.6-1.3-0.4-1.3-1.2-0.5-0.1-0.4-0.8-1.3-0.6z"/>
		<path id="map_aysen_Lago_Coyhaique" fill-rule="evenodd" class="map-aysen s1" data-siglaregion="AI" data-sigla="coyhaique" data-nombre="Coyhaique" d="m154.4 73.9c-0.8 0.4-1.6 0.3-2.3 0.9-0.8 0.4-1.5 1.5-2.1 2.4 0 1-1 1.3-0.7 2.6 0.1 1.4 0 2.6-0.2 3.8 0.6 0.6-0.4 2.5 0.9 2.7 1.1-0.5 1.8 1.1 2.7 0.7 0.8-0.1 1.5-0.1 2.2 0.5 0.9 0.7 1.2-0.3 2.1-0.8 1.2-1 1.2 0.6 1.6 1.4 1.1 0.2 0.7 1.1 1.5 1.4 1.8-0.7 1.2 1 1.5 2.1-0.2 1-0.4 1.9-0.7 2.7 0 1.1-0.5 1.7-1.6 1.5-0.9-0.1-2.4-0.2-2.9 0.6 0.3 1-1 1.7-0.6 2.6 0.3 0.8 1.7-1 1.8 0.3 0.2 0.3 1.7 0.9 1.1 1.8-0.3 0.6-0.8 1.2-1.1 1.9-0.7 1.1-1.3 1.8-1.8 2.8-0.5 0.3-1.6 1-2.2 0.7-1-0.2-1.5-1-2.7-0.7-1 0.2-1.3 1.5-0.4 2.1 1.2-0.2 1.3 1.3 1.4 2.3 0.5 0.8 0.6 1.3 1 1.9 0.6-0.5 2.5-1 2 0.6-0.1 0.9-1.3 1.6-0.7 2.6 0.4 1 0 2.1-1 2.1-0.9 0.7-1.7-0.2-2.6 0-0.9 0.5-1.5-0.3-2.4-0.5-0.9 0.8-1.7-0.1-2.8 0-0.7 0.8-1 1.1-1.5 2-0.5 1 0 1.8 0.8 2.4-0.2 1-0.7 1.2-0.8 2.2-0.2 0.9-0.3 2.2-0.3 3.4-0.6 0.9-1.8 1.3-2.6 2.3-0.6 0.4-1 1.3-2.2 1-0.9 0.1-1.2 0.7-1.3 1.7 0.1 0.9-0.8 1.3-1.6 1.8-1 0.1-1.6 0.6-2.9 0.4-1.1 0.1-1.9 0.3-2.4-0.7-0.2-0.8-1-1.2-1.9-0.6q-0.8 0.5-1.6 1.2c-0.4 0.6-1.1 0.7-1.7 1.2-0.8 0.3-1.7 0.1-2.4-0.2-0.7-0.6-1.6-1-2.1-0.1-0.9 0.7-0.4 2.1-0.4 3.2-0.3 1.2-1.4 2.2-2.3 2.7-0.5 0.2-1.1 1.3-0.9 2 0 1.1 1.6 1.1 2.2 0.7 0.6-0.9 1.9-0.2 2.6-0.4 0.8 0.6 1.8 0.5 2.7 0.6 0.6 0.5 1.4 0.3 2.2 0.1 0.8-0.4 1.4-1.6 2.6-1.4 1.1 0 1.4 0.8 2.6 0.7 0.8-0.4 1.6-1.5 2.6-1 0.4 0.9 0.6 1.7 1.6 1.9 0.6 0.5 2.2 0.4 2.1 1.8-0.2 1.2-0.1 2.7-0.1 4.1 0.5 1.1 1.4 0.3 2 0 0.6-0.3 1.2 0.7 2.2 0.4 0.6-0.4 0.8-1.5 1.3-2.1 1-0.4 1.6 0.4 2 0.9 0 0.8 0.6 2 1.1 1.6 0.5-0.5 0.6-2 1.8-1.6 0.6 0.6 1.7 0.1 2.4 0 0.9-0.4 1.7-0.9 2.9-0.5 1-0.5 1.5 0.9 2.7 0.6 0.9-0.3 1.8 0.1 1.9 1.2 0.3 1 1.7 0.5 2 1.7 0.2 1.8 2.5 2.3 3.9 2.9 0.8-0.1 1.4-1.2 2.4-1.4 1.2-0.3 1.7-0.6 2.9-0.1 1.3 0.3 0.7-2.1 2.1-1.5 1.2-0.2 1-1.6 1.8-2.3 1.1-0.6 1.5-1.9 1.9-2.9-0.3-1.1-0.2-2.3 1-1.8 0.8-2.2-1.1-3.9-1.3-6-0.6-0.7-1.4-1.4-2.1-1.7-0.4-0.9-2.4 0-2.4-1.3 0.2-1.1 1.5-2.1 0.4-3 0.5-1 0-1.8-0.4-2.8-0.3-0.8-1.9-2.2-0.4-2.5 0.8-0.7 0.2-1.9-0.3-2.8 1-0.7 0.1-2.2 1-2.5 0.8-0.7 1.5-1.6 1.3-2.5 1.1-0.5-1.9 0.7-1.1-1.1 0.5-1.1 1.5-1.4 2.3-1.6 1-0.4 1-1.8 2.5-1.1 1-1.2 1.3 0.7 2.4 0.2 1 0.1 1.8 0.2 2.5-0.7 0.8-0.3 2.2-1 2.4-1.5 0.3-1.3-1.9-0.9-1.5-2.4-0.6-0.8-1.4-0.8-0.9-2.1-0.9-1 0-1.8 1.1-1.7 1-0.3 2-0.3 2.7 0.1-0.5-0.9-0.7-2.2 0.7-2.2 1.5-0.3 2.7-1.5 3.6-2.8 0.3-0.6 0.5-2.3-0.5-2.1-0.3-1 0.4-2.2-0.5-3.1-1.1-0.3-1.3-1.8-2.3-2.4-1.2-0.7-0.6-1.3-0.6-1.7-0.9-0.2-2.2-0.2-2.6-1.3-0.2-0.9-0.2-2.9-1.5-2.2-0.1-0.2 1.1-2-0.1-2.7-0.4-1-1.8-1.5-1.4-2.6 0.2-0.9-0.1-2-1-2.4-1.1 0.4-2.2-0.7-3.4-0.3-1.4 0.2-1.8-1.2-3.1-1.2-1.3 1-0.7-1.5-1.7-1.7-0.2 1.3-1.9 0.6-2-0.3-1.1-0.1-1.6 1.4-2.4 2.1-0.1 1.4-0.8-0.7-1.7-0.3-1.4 0.5-0.9-2.2-2.4-1.6-0.1-1.1-1.4-1.2-2.3-1.2-0.5 0.4-2.4-1.7-1-2 0.4-0.7-1.1-1.2-1.8-1.7-0.8-0.4-1.6-0.4-2.5-0.4z"/>
		<path id="map_aysen_Lago_Cisnes" fill-rule="evenodd" class="map-aysen s1" data-siglaregion="AI" data-sigla="cisnes" data-nombre="Cisnes" d="m123 2q-0.2 0-0.3 0c-0.8 0.7-0.4 2.1-0.9 2.9-0.4 1 0.1 2.2-0.4 2.7 0 1.3-1.6 1.2-2.2 0.5-0.4-0.6-0.5-1.8-1.2-2-1.5-0.8-0.8 1.4-2.2 1.1-0.8 0.2-1.7 0.3-2.2 0.6-0.9 1.3 1 0.7 1.5 1.5 1.2-0.3 0.9-0.4 1.4 0.4-0.5 1.1 1.6 1.4 0.6 0.3-0.1-1.4 1.7-0.1 2.1-0.7 0.7-0.5 2-0.2 2.6 0.6 1-0.5 0.4-1.6 0.7-2.6 0.2-1 0.4-2.2 0.2-3.4-0.4-1.7 0.6-0.5 0.6 0.6 0.4 1.2-0.4 1.7 0 2.8-0.1 1-0.5 1.9-0.5 2.9 1.3 1.1-0.3 1 0.5 1.6 0 1.3 1.5 0.9 2 1.1 1.6 0.2 0.9 1-0.2 0.7-1.1 0.8-1.7-1.9-2.9-1-1.4 0.8-1-1.1-1.7-1.2-0.2-0.9-1.9-0.8-1.9 0.3-1.4-0.1-0.8 1.2-2.1 1.2-0.1 0.8-0.3 1.5 0.4 2 0.8 0 1.5 1.2 2.3 0.4 1.6 0.2-0.9 2 0.7 1.8 0-1.1 1.7-1.4 1.9-0.1 0.7 0.7 0.8 1.3 1.7 1.9 0.4 0.6 1.1 0.9 1.7 1.3 1.1 0.1 0.4 1.7 1.2 1.8 0.9 0.3 1.1 0.8 1.9 1.2 1.6 0.8-0.3 0.3-0.7-0.2-0.5-0.8-2.3 0-2-1.6-1.2-0.2-1.7-1.1-2.2-1.9-0.7-0.2-2.3-0.8-2-2.1-0.9-1.7-1.2 1.3-2.3 0-0.4-1.1-0.1-1.4-1.4-1.3-1.3 0.3-1.2-1-2.1-1.4 0.3-1 0-1.8-0.8-2.1 0-0.7 0-2.9-0.8-1.4 0.4 1.6-0.2 1.4-0.5 2.4 1 0.3-0.4 2.6-0.2 1.3 0-0.2-2.4 0-1.9 0.3 0.3 1 1.5 0 1.3 1 0.5 0.2 1.2 1.5-0.2 0.5-1.2-0.2-2.1-1.3-1.5 0.5 0.4 0.8 1.2 0.9 1 2.2-0.9 1.2-1.1 2-1.9 0.8 0 0.6-1.9 1.1-0.8 1.8-0.4 0.8 0.6 1.5 0.6 2.4-0.3 0.5 1.3 2.7 0.1 1.7-0.5-0.5-0.8-1.2-1-2.2 0.1-1-1.6-1.1-1 0.1 0.2 1.2 0.7 1.7 0.4 2.8 0 0.7 0.8 1.4 0.7 2.5 0.7 0 1.7 1.8 0.9 1.9-0.3-0.6-1.4-0.8-1.7-0.3-0.8 0.7-1.1-1.1-1.3-1.7-0.8 0-2-1.5-2.5-0.3-0.7 0.6 0.1 1.8 0 2.9 0.6 1-0.1 2.3 1.5 1.8 0.5 0.7-0.9 1-1.6 0.3-0.4-0.6-0.4-2-1.6-1.4-0.4-1.1-1.8-0.3-1 0.6 1.4 0.4-1.4 1.3 0.8 1.2 0.8 1.4-0.2 1.1-0.7 0.3-0.9 0.2-0.2 1.4 0.2 1.7 0 0.9 1.6 1 1.6-0.3 0.2 1 2 0.9 2.7 0.9 1-0.6 1.6-1.6 1.9-2.7 0-0.9 0.8-2.4 1.7-2.3-0.8 0.7-0.3 1.8-1.2 2.2 0.1 1.5 0.1 1.7 1 0.7 1.7-0.7-0.8 1.2 1.2 0.5 0.5-0.7 2.3 0.3 1 0.2-0.8-0.1-1.5 0.3-2.3 0.8-1.1 0.5-0.3 1.9-0.3 2.3-1.4 0-0.3-2.4-1.5-1.4-0.6 0.6-1.2 0.8-1.8 1.7-0.9 0.4 0.2 1.3 0.3 1.9 1-0.2 1.8-0.7 2.6 0.5 0.9 0.4 2 0.1 2-0.9-0.8-0.8 0.5-2 0.9-0.5 0.2 0.7 1.1 1.7 2.1 1.7 0.8-0.1 2 0.1 2.5 1 1.2-0.3 1.3 0.7 2.1 0.8 0.5-0.5 0.6-1.5 1.8-1.4 1.5-0.1 1.1 0.9 0 0.8-1.4-0.1-0.3 2.2-1.8 2.1 0.1 0.9-0.8 2.3 0.3 2.9 0.7-0.7 1.7 0.2 2.2-0.2 0.7-0.5 1.4 0.3 2.2-0.3 0.4 0.5 2.5-0.5 1.7 0.5-0.8 0.1-2 0.1-1.6 1.2 0.2 1 1.7 0.7 2 1.6 0.5 0.6 2.5-0.5 2.3 1-0.7-0.4-2.1-0.2-1.6 0.9 0.9 0 1.6 0.8 1.3 1.6 0.2 0.3 1.7 0.4 2 0 0.2-1.2 0.2-2.3 0.8-3.2-0.8-0.3-0.6-1.4 0.4-1.9 1.3-0.4 0.4-1.8 1.3-2.4 0.6-0.7 0.6-1 1.3-1.9 0-1 1.2-1.9 0.7-0.1 0.2 0.8 0.1 1.6-0.6 2.1-0.5 0.1-0.5 2.1-0.7 2.6 0.3 1-0.6 2-0.4 3 0 1.5 0.9 1.2 1.7 2 0.6 0.5 1.9 1.8 0.4 1.3-0.5-0.6-1.5-0.5-2.5-0.4-0.4 0.6-1 1.3-1.8 1.5-0.7 0.4 0.3 1.7-0.8 2.2-0.3 0.6-1 1.5-0.6 2.5 1.4 0.8-0.6 0.7-0.4 1.8-0.9 0.7-1.5 1.4-1.3 2.7 1 0.5 0.4 1.7 1.1 2.3 1.1 0.3-0.3 1.5-0.3 2.2-0.9 1.7-0.2-0.5-1.1-0.6-1.3-0.1-1.7 1.1-2.3 1.8-0.4 0.8-1 1.2-1.5 1.7-0.6 0.4-1.1 0.9-1.7 1.5-0.3 1.2-1.1 1.6-1.9 2.1-0.6 1.4-1.3 0.5-2.6 0.6-0.4 0.6-1.7 0.8-1.8 1.6-0.2 0.9-1.4 1-1.9 1.9-0.7 0.8-1.3 1.9-1.9 2.3-1.2 0.9-1.3 0.1-1.5-0.6-0.8 0.1-1.2 1.1-2.4 0.9-0.6 0.8-1.5 1.2-2.7 1-0.8-0.5-2.4 0.6-2.8-0.6-0.7 0.8-1.9 0.4-2.7 1.2-0.3 1.2-0.8 1.3-0.6 2.7 0.4 1 0.2 2.4 1 3.2 0.6 0.7 1.2 1.9 2.5 1.1 0.4-1.3 2.2-0.7 0.6 0 0.1 1 1.5 0.6 2-0.3 0-1.6 1.3-0.6 1.6 0 0.4 0.4 1.2 1.3 1.7 0.3 0.3-0.8 0.9-1.2 1.3-2.2 0.3-0.9 1.4-1.2 2.3-0.7 0.7 0.4 1.7 0.4 2.5 0.7 1.4 0.6 2.4-0.8 3.8-0.5 1.2-0.2 1.6-0.7 2.6-0.9 1.1 0.3 2 0 2.6-0.7 0.7-0.6 1.1-1.1 2.3-1 1.2-0.5 2.1 0.1 2 1.3 0.3 0.7 1.7 1.4 2.3 0.6 0.4-1 1.7 0.5 2.4-0.1 1.1-0.2 2 0 2.4 0.9 0.4 0.9 1.4 1.3 2.3 1.4 1.2 0.5 1.6-0.4 1.7-1.5 0.4-0.9 1.2-0.8 1.5-1.9-0.3-1.4 0.2-1.9 0.4-2.8 0.2-1.1 1.2-0.6 2 0 0.8 0.8 2.1 0.7 2.8 0 0.5-0.1 1.7-1.2 2-0.2 0.6 0.6 2.1 1.7 2.5 1.3 0.1-1.2-0.5-2.1-0.2-3.1 0.2-1.3 0.2-3.2 0-4.5-0.5-1.1-1.8-0.9-2-2-0.9-1.2 0.4-3.1-0.6-3.9-0.7-1 0.4-3.2-1.6-2.7-1.2-0.2-2.2 0.2-3.4 0.3-1.1-1 0.7-1.8 1-2.4 1.1-1-0.2-2.8 0.2-3.8 0.6-1.4 1.3 1.5 2.4-0.3 1.3 0.6 1.1-0.8 0.2-1.2 0-1.1-0.3-2-1.3-2.6-0.7-0.8-0.8-2.6 0.3-2.9 0.5-0.9-0.2-2.2 0.5-3-0.1-1.3-1.8-1.5-2.1-2.3-0.6-1.3 1-2.3-0.1-3.2-1.1-1.1 0.7-1.9 1.4-2.2 1.5-0.1 2.9-1 2.7-2.7-0.6-1.1 0.2-1.5 0.9-2 0.5-0.5 1-1.1 1.4-1.8 0.8-0.9 2-0.7 3-1.6 1-0.8 0.8-2.1 0.1-2.9-0.3-1.1 0.2-2.5 0.3-3.7 0.6-1 1.1-2 1.3-3.1 0.6-0.8 2.3 0.4 2.3-1 0.3-1.2-0.5-2.2-1.3-2.3-0.9-0.9-0.5-2.5 0.3-3.2 0.5-0.6 0.8-2.1 0-2.3-0.2 1.2-1.3 0.2-1.7-0.3-0.6-0.9 0.7-1.4 1-2.1 0.4-0.7-1-0.7-1.3-1.2-0.5-1.2-1.1 0.8-1.6 0-0.9-0.5-1.7 1.6-1.6-0.4-0.5-0.8-0.7-1.4-0.7-2.1-0.8-0.1-1.3-0.6-2 0.1-0.9 0.3-1.9-0.6-1.2-1.1 0.4-0.4 2-1.1 0.9-1.8-0.6-0.4-1.8 0-2.2-0.7-0.4-0.7 0.7-1.4 0.3-2.1 0-0.8-1.4-1-0.4-1.8 0-0.4-1.1-0.8-1-1.6 0.5-0.8-0.6-1.8-1.2-1-0.7 0.4-1.2 1.2-2.1 0.9-0.7 0.4-0.4 1.7-1.1 2.4-0.7 0.2-1.6 0.6-2.1 1 0 0.9 0.1 1.6-0.3 2.2 0 0.8-0.6 1.7-1.4 1-0.7-0.6-1.5-0.7-2.4-1-0.4-0.7-1.2-1.1-2-0.9-1.4-0.2-0.9 0.8-1.7 1.3-0.9-0.3-1.5-0.7-2.6-0.6-0.5 0.7-1.6 0.5-1.9-0.1 0.3-0.9-0.7-0.8-1.3-1.4 0.2-0.5 0.9-1.4 0.9-2.3 1-1.5-0.9-1.1-0.7-2.4 0.3-0.5-0.1-1.4-0.7-1.5zm-9.8 6.6c-0.1 0 0 0.5 0.1 0.1q0-0.1-0.1-0.1zm-5.9 8.4c-1.1 0.5-1.5 0.5-2.4 1.2-0.6 0.8-1.8 0.8-2.9 1-0.5 0.2 0.9 0.9-0.4 1.7-0.4 0.9-1.1 2 0 2.6 0.2 1 1.1 1 1.9 1.8-0.3 1.6 2.5-0.1 1.4 1-1.4 0.6 0 0.9 0.6 0.2 0.5-1.5 1.8 1.3 1.9-0.3 0.1-0.8 0.3-1.7 0.2-3 1-0.8 0.6-1.9 0.8-2.8 0-1-0.3-2.5-0.5-3.1-0.4 0.2-0.4-0.3-0.6-0.3zm-5.7 8.7c-0.6 1.2 0.7 1.8 0.7 0.6 0.4 0.6 0.8 2.6 1.4 1-0.5-1-0.6-1.1-1.6-1.6q-0.2 0-0.5 0zm-42.7 1.2c-0.4 0.4-2 0.6-0.7 1.1 0.8 0.6 1.7-0.1 2.4 0.2 0.2 0.2 2.3-0.4 1.2-0.7-1.3 0.3-1.8-0.6-2.9-0.6zm-2 1.2q-0.2 0-0.5 0.1c-0.4 0.4-1.6 0.7-0.7 1.2 0.7 0.1 0.8 1 1.9 0.6 0.6 0.5 1.2 0 2-0.2 0.2-0.3 1.9-1.1 0.8-0.9-0.7-0.2-1.7-0.2-2.3-0.6-0.4-0.1-0.8-0.2-1.2-0.2zm6.7 1.7c-0.5 0.8-1.7 0.3-2 0.9-0.4 0.7-2.2-0.1-2.2 0.9 0.7 0.1 1.4 0.2 2 0.2 0.6 0.3 0.8-0.9 1.6-0.9 0.1-0.2 1.7-1 0.6-1.1zm1.7 1.5c-0.6 0.4-1.4 0.5-2.1 0.9-1.2 0.6 0.7 0.2 0.9 0.6-0.3 0.5-0.7 1.3 0.4 0.6 0.8 0.2 1.3-0.4 1.8-0.7 0.3-1.2-0.2-1.2-1-1.4zm-7.3 0.8c-0.9 0.7-1.8-0.1-2.7 0.3-0.6-0.4-1.3 0.7-1.9 0.1-0.9-0.1-1.1 0.5-0.3 1.1 0.7-0.3 1.7-0.7 2.4-0.3 0.4 0.4 1.9 0.5 2.5 0.3 0.3 0.2 2.1 0.8 2.1 0 1.6-0.3 0.6-0.6-0.1-1.2-0.7 0-1.1-0.4-2-0.3zm14.9 0.5q-0.1 0-0.2 0.1c-0.7 0.3-1.5 0.4-1.6 1.3-0.1 0.9-0.8 1.1-1.4 1.8-0.2 0.3 0.5 1.3 0.9 1.7 0.3 0.6 0.6 1.5 1.8 0.9 0.7-0.6 1.5 0.5 2.4 0 0.9 0.2 0.9 0.9 1.9 0.9 0.6-0.4 1.2-0.8 1.5-1.5-0.7-0.3-0.1-1.2-0.8-1.6-1.5-0.1 0.2 0.8 0 1.5-1-0.9-1 0.9-1.6-0.1 0.7-1.4-0.6-0.5-1.2-0.4-0.4-0.3 0.7-1.1 1.2-1.2 0.1-0.3 1.1-1.9 0.5-1.7-0.9-1-0.7 0.8-1.3 0.3 0.8-1.3-0.8-1.1-1.3-1.5-0.4-0.1-0.3-0.5-0.8-0.5zm-17.4 1.3c-0.6 0.5-1.6 0.5-2.5 0.6-1.4-0.1-1.1 0.2-1.1 1.2 0.2 1.1 0.9 0.1 1.8 0.6 0.6-0.3 1.7-0.5 2.6-0.6 0.9 0.5 1.2-0.3 2 0.5 1-0.1 1.5 0.5 2.3 0 0.4-1.1 0.2-1.3-0.9-1.3-0.8-0.1-1.7-0.4-2.4-0.6-0.7 0-1.4-0.1-1.8-0.4zm7.1 0.3q0 0-0.1 0c-0.6 0.8-0.5 0.7-0.6 1.3-0.9 0.7-0.5 1.7 0.3 0.8 0.7-0.5 0.6-0.7 0.8-1.4 0-0.3 0-0.7-0.4-0.7zm3.5 0.1c-0.1 0-0.2 0.1-0.3 0-0.5 0.5-1 0.9-1.6 1.4-1 0.2-1.2 0.7-1.6 1.5-0.3 0.8-0.8 1.7 0.6 1.7 1 0.1 0.7-1.4 1.5-1.4 0.6-0.5 0.9-1.3 1.4-1.7 0.4-0.1 1.5-1.5 0.2-1.3 0-0.1-0.1-0.2-0.2-0.2zm18 1.1c0.2 1-1.1 0.8-0.9 2-0.4-0.7-0.6-1.5-1.3-0.5 0 0.9-0.4 1.7 1 1.5 0.8-0.2 0.7 0.4 1.3-0.1 1.1-0.2 0.5-1.2 0.6-1.7 0.5-0.4-0.3-1.2-0.7-1.2zm-15.6 0.3c-0.9 0.3-1.5 0.6-1.9 1.2-0.1 0.9 1.5-0.7 1 0.8-0.5 0.9 0.6 1.3 1 1.5 0.5 0.5 0.6 1.5 1.1 1.8 0.7 0.9-1 0.2-0.8-0.6-0.4-0.5-0.9-1.1-1.4-1.4-0.7 0-0.6-1.6-1.4-0.7-0.2 0.4-1.7 0.7-1.2 1.6 0.2 1 0.1 1.8 0.6 2.4 1.5-0.3 0.6 0.9 0.8 1.7 0.4 0.2-0.6 1.4 0.3 1.8 0.8 0.3 0.8 1.2 1.7 1.4 0.6-0.2 3.1 0.4 1.4 0.4-1.4 0.1-0.5 0.9 0.4 0.5 0.7-0.2 2.1-0.3 1.6-1.1-0.7-0.2-0.4-1.7-1.2-1.8-0.3-0.6-0.3-1.6-0.9-1.9-0.5-0.5-1.3-0.1-1.8-0.8-0.8-0.8 1-0.1 1.2-0.2 0.6 0.6 1.3 0.7 2.2 0.8 0.5-0.4 1-1 1.7-1.2 0.8-0.3 1.6-0.7 2.2-0.2 0.8 0.2 1.3-1.5 0.2-1.2 0.7-0.3-0.1-1.7-0.7-1-1-0.1-1.6 0-2.7-0.2-1.1 0.2-1.4-0.5-1.7-1.3-0.4-0.4-0.9-1.1-1.3-1.5-0.7-0.1 0.5-0.9-0.4-0.8zm-12.1 0.8c-0.6 0-1.7 0.6-2.3 0.2-0.4 0.2-2.9 0.4-1.5 0.8 0.1 0.9 1.3 1.2 2.2 1.1 0.7 1-1.8-0.4-1.6 0.7 0.4 0.7-0.6 1.6 0.5 0.9 0.8 0.4 1.6-0.2 1.6-0.7 0.6-0.4 1.9-0.2 2.4-0.6 1.2-0.2 0.1-1.3 0-1.8-0.3-0.4-0.7-0.5-1.3-0.6zm46.4 1.5c-1.2 1.4 1.5 1.9 0.6 0.4q-0.3-0.3-0.6-0.4zm6 1.2c0.5 0.1 0.3 0.3 0 0zm-4.1 0.3c-1.4 0.6 0.5 2.7 0.5 1 0.1-0.7 0.1-0.8-0.5-1zm4.6 0c0.4 0.1 0.2 0.3 0 0zm-28.3 0.1c-0.3 0.7-1.1 1.3 0.2 1.4 0.7-0.5 0.9-1 0-1.4zm-19.8 0.2c-0.7 0.1-0.4 1.1 0.5 1 0.2 0.4 2.5 0.5 1.4 0-0.1-1.2-0.6-0.7-1.4-1q-0.3-0.1-0.5 0zm15.3 0.1c0 0.5-0.4 1.9 0.2 2.1 0.1-0.6 1.3-0.6 1.4-1.4-0.3-0.5-1-0.5-1.6-0.7zm25.9 0.5c-1.3 0.7 1.9 2 0.7 0.6-0.3-0.1-0.3-0.6-0.7-0.6zm-18.4 0.3c-0.6 0.3-1 1-1.8 1-0.9-0.5-1.5 0.3-1.4 1-0.1 1 0.3 0.6 0.7 1.5 0.6 0.9 1.8 1 2.3 0.1 0.4-0.5 0.7-1.3 1.5-1.5 0.4-0.5 0.4-1.7-0.4-1.7-0.3-0.1-0.4-0.5-0.9-0.4zm-28.7 0.1q-0.1 0-0.3 0c-1 1.1 1.4 0.3 1.8 0.9 0.4 0.7 0.9 0.9 1.5 1.4 1.7 0.4 1.1-0.9 0.1-0.9-1.1 0 0.1-1.5-1.1-1.4-0.5 0.3-1.3 0-2 0zm37.6 1.4q-0.1-0.1-0.3 0c-0.9 0.7-0.6 1.3 0.5 1.3 0.2-0.3 0.2-1.3-0.2-1.3zm-19.9 0c-0.8 0.2-0.5 1 0 1.3 0.8 0.1 0.8 1.7 1.8 1 0.5 0.1 1.7-0.4 1.3-1 0.6-0.5 0-1.2-0.8-0.9-0.5-0.3-1.2-0.4-2.3-0.4zm-10 0.1q-0.1 0-0.2 0c-0.6 0.7-0.4 1.2-0.8 1.8-0.7-0.1-1-0.8-1.8-0.8 0.5 0.8 0.6 1.3 1.2 1.8-0.3 0.4 0.9 0.9 1.2 1.3 0.7-0.2 1.3 0.7 1.7 0.2 0.9-0.3 0-1.4 0.5-1.7 0.3-1.2-0.4-1.1-0.8-1.8-0.4-0.1-0.5-0.7-1-0.8zm-8 0.3c-0.2 0.5-1 1.1-1.7 1-0.7-0.5-1.3-0.3-1.4 0.6-0.1 0.4-2.1 0.7-0.6 1-0.1 0.6 2.1 0.6 0.9 1.1-0.1 1.1 1.4 0.6 1.7 1.2 0.9 0.2 1.6 0.4 2.3 0 0.9 0.3 1.8-0.2 2.6 0.1 1-0.2-0.6-1 0-1.8 0.4-1.3-0.7-1.3-1.2-1.8-0.5-0.5-1.2-0.6-2-1-0.2-0.1-0.4-0.2-0.6-0.4zm22.8 0c0.1 1-1.8 0.8-1 2-0.4 0.5-1.2 0.8-1.9 0.6-0.6 0.8-1.3-0.2-1.4-0.7-0.6-0.3-0.8-1.1-1.6-1.4-0.1 0.5-1.7 0.6-1.2 1.4 0.5 0.4 0.6 1.3 1 2 0 1 1.2 0.8 2.1 1 1.1 1 1-1.6 1.7-0.7-0.9 1 0 0.9 0.8 1 0.6 0.3 1.2 1 2.1 0.6 0.8-0.2 1.1-0.7 1.3-1.2 0.1-0.5 0.6-0.8 0-1.6-0.9-0.3 0.6-1.3-0.6-1.4 0.6-1.2-1-1-1.2-1.6zm29.8 0.5c0.4 1.3-1.4-0.7-0.4 1.1 0 1.4 1 1.4 0.7 0.1 0.6 0.6 1.7 0.1 2.4 0-0.6-0.8-1.5-0.8-2.2-1.2q-0.2 0-0.5 0zm4.5 0.3c-0.4 0.4-2 0.9-1 1.3-0.1 1.3-1.1-0.1-1.6 0.5-1-0.3-1.4 0.8-0.8 1.8 0.7 0.7 1.5 0.7 0.8-0.4 0.8-0.6 1.4-0.2 2.1 0 1.2 0.9 1.1-1 2 0 0.5-1.3 1.2 0.2 1.8-0.8-0.7-0.9-0.2-0.9-0.7-2.1-0.8-0.1-1.8 0.3-2.6-0.3zm-8.2 0.6q-0.1 0-0.3 0c-0.6 1-1.5 1.1-2.1 1.5 0.1 1.1-0.9 2.4 0.3 3 0.5 1 1.7 0.5 2.5 0.2 0.6-0.7 3-0.7 1.2-0.2 0.5 0.8 2.2-0.1 1.7-1.5-1.1-0.1-0.8-1.2-1.3-1.6-0.4-2-1.1 0.3-1.9-0.7 0.3-0.3 0.4-0.7-0.1-0.7zm-19.5 1.5q-0.1 0-0.2 0c-0.1 0.9-1.5 0.4-0.8 1.4 0.5 0.6 1.3-0.3 1.6-0.6-0.4 0-0.2-0.7-0.6-0.8zm2.8 0.3c-1 0.8 0.3 0.9 0.4 1.6 1 0.2 0.3-1.4 0-1.6q-0.2 0-0.4 0zm-21.1 0.6q-0.1 0-0.2 0c0.4 0.6-0.1 1.7 0.6 2.1 0 0.9 0.3 1.5 0.8 2 0.3 0.8-0.2 1.7 1 1.7 1-0.1 1.3 0.5 2 0.9 1 0 1.9 0.1 2.2 0.9 0.2 0.5 1.1 1.6 1.4 0.4 0.9-0.5-0.1-1.3 0-2.2 0.2-0.9-0.9-1.6 0-2-0.2-0.9 1.5-1.2 0.6-1.7-0.6 0.6-1.3-1.4-1.7 0-0.6 0.8-1.7 0.4-0.9-0.3-0.6 0.2-2 0.3-2.3 0.5 0.7 0.7-1-0.2-1.1-0.5-0.4-0.6-0.9-0.9-1.5-1.5-0.4 0-0.5-0.3-0.9-0.3zm16.1 0.3c-0.4 0.3-1.2 1.4-0.5 1.5-1 0.9 0.8 0.3 0.7-0.3 0.3-0.2 0.1-1-0.2-1.2zm31.8 0.2c0.4 1.3-1.6 0-1.4 1-0.7 0.1-2-0.6-2.5-0.3-0.3 1.2-0.5 1.1 0.3 2 0.9-0.2 1.4 0.7 2.3 0.4 0.6 0.9-0.1 1.9 0.1 2.5 0.8 0.3 0.9 0.9 1.2 1.6 1 1.2-0.8 0.2-1.2 0-0.3-0.8-0.6-2-1.2-2.8-0.9 0.1-0.8-2.4-1.3-0.5-1-0.8-1.3-0.1-0.6 0.9 1.3 1.1-0.5 1.3-0.7 0-0.6-2-0.3 0.7-0.8 0.5-0.7-0.8 0.3-1.7-0.6-2-0.3-1.3-1.2 0-2.1-0.2-0.7 0.6-1.7 0.8-2.3 1.8 0 0.8-0.3 1.5-0.6 2.3 0.4 0.8 0.8 1.7 1 2 0.6 0.7 1.3 1.2 2.2 1.2 1 0.2 1.6 0.7 2.6 1.1 1.3-0.2 0.4 0.8 0.6 1.4-0.1 0.9-1.3-1.6-1.1-0.2 1.3 0.7-0.2 1.3-0.5 0.2-0.2-0.7-1.3-0.7-1.9-0.7-0.1-1-1.4 0-1.7-1.1-0.7 0.2-1.9 0.5-1.6 0.6 0.4 0.9-0.3 1.4 0.4 2.3 0.1 1.1 1.3 1 1.9 1.7 0.4 0.2 1.3 1.6-0.2 1.3-1.1 0-0.9-1.8-2.3-1.3-0.9 0.5-1.1-0.5-2.1-0.3-1.3-0.1-0.2 1.9-1 1.9-1.3-0.3 0.4-1.8-0.6-1.9-0.4-0.3 1.2-1.3-0.7-1.1-0.8 1.7 0.1-0.5-0.8-0.6-0.1 1.1-1.6 1.6-1 2.5-0.3 0.7-1 1.1-1.2 2 0.1 2.4 1.2-2.1 1.1 0.5-0.8 0.9-0.1 1.4-0.2 2.5-0.1 0.8 0.8 1.8-0.1 2.2 0.7 0.3 1.8 0.4 2 1.2 0.5-0.4 1.1-1.6 1.7-0.6-0.1 0.6-1.8 0.4-1.7 1.6 0.4 0.8 0.8 1.9 1.7 2 1.5 0.5 0.2-1.2 1.8-1 0.2-1 1.8-0.6 1.4-2 1.1-0.9-0.2 1.4 0.6 1.5 0.2 0.8 1.4 0.4 2.2 0.7 0.2 1.4 1.9 0.4 2.7 1-0.2 0.5-1.7 0.4-2.4 0.2-1-0.1-2 0.5-2.2-0.4-0.6-1-1.6 0-2.2 0.4 0 0.9-1.1 1.3-2 0.8-0.7-0.5-2.2-0.3-1.6 0.7 0.2 1 0.4 1.7 1.5 1.7 0.9 0.1 2.3 0.8 2 1.8 0.5 0.6 0.4 2.4 1.3 1.8-0.8-1.5 0.7-0.6 0.6 0.4 0.7 0.4 1.4 0.7 2.3 0.9 1-0.1 1.6-0.8 2.1-1.3 0.7-0.4 1.4-0.4 2.2-0.6 0.6-0.5 1-0.9 1.6-1.3 0.6-1.1 1.1-0.4 1.8-0.8 0.9-0.6 0.3-1.8 1.2-2.4 0.1-1 1.1-1.2 1.9-1.7 1.3 0.4 0-1.7 1.1-1.9 0.1-0.6 1.8-0.2 1.5-0.9 0-0.8 1.1 0.1 0.8-1.2 1 0.8 1.9 0.1 2.3-0.9 0.8-0.5 1.2-0.9 1.3-1.8-0.1-1.2 1-1.1 1-2.3 0.2-0.6-0.3-0.8-1.3-1.1-0.9 0.2-1.7-0.5-2.7 0-0.9-0.6-0.8-0.5-0.6-1-1.3 0.4-1.1-1.1-2.3-1.1-1.8 0.4-0.3-0.5-0.8-1.6-0.9-1 0.1-1.4 0.7-0.3-0.6 1.7 1 0.3 1.6 0.7 0.7 0.3-0.5 1.9 1.3 1.4 0.5 0.7 1.5 0.3 2.3 0.6 0.8 0.2 1.9 0.1 1.8-0.9 0.6-0.4 1.3-1 1.6-1.7 0.9-0.3 0.2-2.1 1.6-2.1 0.4-0.8 0.9-1.6 1-2.6 0.3-0.7-1.1-1.2-1.7-1.5-0.3-0.6-0.2-2-1.6-1.6 0.3-0.7-1.1-2.4-0.9-1.1-0.4-0.3-1.2-0.6-1.8-0.7-0.8-0.1-1.2-1.2-2.1-0.7 0.2 1.4-1.1 1-1.1 2.2-0.4 0.7-0.5 1.7-1.3 2.2-0.6 0.5-0.6 1.2-1.2 2.1-0.9 0.3-0.4 2.5-1.4 2.2-0.1-1.2 0.9-1.7 1-2.6-0.4-1 1.1-1.4 1.2-2.3 0.8-0.6 1-1.7 1.4-2.2-0.1-0.8 0.2-1.5-0.3-2.4-0.1-0.8-1.8-1.3-1.1-0.1 0.2 0.4 1.2 1.5 0 1.1-0.6-0.7-0.6-1.9-1-2.7 0.1-1.7-1-0.3-1.5-1.2q-0.3 0-0.7 0zm-51 0.1c0 0.9-0.8 0.8-0.6 1.8-1 0.3 0.2 1.2-0.8 1.4-0.4 0.5-0.6 1.2-0.2 1.8 0.9 0.2 1.2 0.7 2 0.8 0.9-0.1 1.4 1 2 0.9 0.6-0.2 1.3 0.4 0.8-0.8-0.4-0.4-1.1-1.3-0.8-2.1 0-0.9-0.4-1.5-0.8-2-0.2-0.7-0.6-1.3-1-1.8q-0.3 0-0.6 0zm21.6 0.2c-1.4 0.7 0.2 1 0.7 1.2 0.5 1.3-0.4 0.4-1.3 0.3-0.4-0.5-2-0.6-2 0.4-1-0.5-1.3 1.4-1.7 0.2-0.3 0.1-1.7-0.6-1.3 0.3-0.1 1 1.2 0.5 1.6 1.2 0.1 0.8 0.9 0.8 1.4 1.7 0.2 0.8 1.4 0.6 2.2 0.9 0.4 0.7 1.3-0.5 1-1.4-0.4-0.8-1.8-0.4-2.2-0.9-0.7-0.4-1.4-1.2-0.1-0.7 0.7 0.3 1.3-0.3 1.8 0 0.5 0 1.3-0.6 1.6-1.1-0.1-0.3 0-1.8-0.5-1.5-0.6 0-0.7-0.4-1.2-0.6zm-26.6 1.2c-0.5 0.8-2.5-0.4-1.6 0.6-0.5 0.6 0.7 0.3 1.6 0.1 0.6-0.1 0.8-0.7 0-0.7zm-3.2 0.4q-0.1 0-0.2 0c-0.8 0.5-0.8 1.2-1.5 1.6 0.4 0.3 1.2 0.8 1 1.6-1.2 0.2-0.5 1.2 0.3 0.8 0.8-0.2 1.1-0.9 1.7-1.1 0.6-0.5 1.7-0.3 2.2 0.1 0.9-0.4 0.1-1.8-0.5-1.8-1 0.1-1.9 0-2.4-0.7-0.3-0.1-0.2-0.5-0.6-0.5zm21 0c-0.1 0.8-1.4 0.6-1.3 1.7 1.1 0.8 0 0.6-0.3 1.5 0.1 0.9 0.8 1.6 0.2 2.4-0.7 0.9 0.3 0.1 0.8 0.6 0.8 0.2 1.5 0 2.4 0 0.6 0.3 1.8 0.1 2.1-0.6 1.4-0.1 1.1-0.4 0.7-1.3 0.3-0.9-0.9-0.5-0.8-1.5-0.9-0.7-1 0.5-1.3 1.2 0.2 0.9-1.7 1.3-0.7 0.6 0.5-0.8 0.5-1.8-0.6-1.1-0.5 0.4-1.1 0.7-1.5 1.4-1 0.3 0.5-0.5 0.3-1.2 0.8-0.1 1-1 1.8-1.1 1.1 0 0.2-1.7-0.5-1.5-0.6 0.3-0.9 1.1-1.7 1 0.5-0.3 1.1-0.8 1.4-1.3 0-0.5-0.6-0.7-1-0.8zm-24.6 2.5c0.8 0.7-0.9 1 0.1 1.5-0.7 1 0.4 0.9 0.9 0.7 1.1 0.4 1.3-1.2 0.1-1-0.6-0.3-0.2-1.4-1.1-1.2zm36.3 1.2c-1.1 0.6 0.4 0.7 0.7 1.2 0.4 1.3-0.1 0.3-0.9 0-0.5-0.6-1.7-0.7-1.8 0.2-0.6 1 0.8 1 0.8 1.7 1.3-0.2-0.1 1.5 1.5 0.8 0.8-0.1 1.4-0.5 1.6-1.3 0.1-0.7 0.1-1.6 0.1-2-0.9-0.2-1.2 0.1-2-0.6zm-30.4 0.1c-0.2 0.7-1.8 0.2-1.9 1.1-0.4-0.1-1.9 0.1-1.4 0.9 0.8 1.3-0.8 0.6-0.7 1.3-0.7 0.6-0.9 1.1-1.2 1.8-0.4 0.2 0.1-1.3 0.1-1.9-0.8 0.2-1.5-0.1-2.2-0.3-0.9 0.1-0.6 0.8-1.5 0-0.4 0.6-1 1.1-1.7 1.5-1-0.4-0.2 1.2-1.2 1.8-0.1 0.9 1 1.5 0.7 1.8 0.1 0.4 0.9 0.9 1.6 0.6 0.6 0.7 1.1 1 2 0.9 0.8 0.3 1.7-0.1 2.5 0.2 0.3 0.9 2 0.3 1.3-0.8-0.3-0.7-0.4-1.6-1.5-1.3-0.5-0.2-2.2-1.1-0.8-0.8 0.8 0.1 1.7 0.1 2.6 0.4 0.8-0.3 1.7 0.7 2-0.2 0.4 0 1-0.7 1.6-1 0.7-0.7 1.7 0.3 2.8 0 0.1-0.4 1.1-0.7 0.6-1.8-0.7-0.4-1.1-1-1.4-1.6-0.3-0.5-0.5-1.4-1-2-0.3-0.2-0.8-0.4-1.3-0.6zm5 1.4c-0.2 0.5 0.6 1.2 1 1.6 0.6 0.3 0.3 1.9 1.7 1.5 1 0 1.9 0.6 2.5-0.2 0.9-0.6 1.1 0.6 2.1 0.1 0.8-0.1 1.8-0.3 2.2 0.4 0.7 0.3-1.3 0.8 0.2 1.4 0.2 0.3-1 0.5-1.6 0.8-0.8 0.3-1.6-0.4-2.5 0-0.6 0.5-1.7 0.2-2.1-0.2 0.3-0.5 1.6 0.4 2.4-0.1 0.8-0.4 2-0.1 2.6-0.6 0.2-0.7-1-0.4-1.7-0.7-0.6 0.8-1.4 0-2 0.4-0.8 0.3-2.7-0.8-2.2 0.4 0.5 0.5-0.2 1.4 0.7 1.8 0 1.2 1.1 0.8 1.9 1.1 0.5 1 1.7 0.3 2.3 0.4 0.5-0.4 0.9-0.8 1.6-1 0.6-0.7 1.8-0.2 2.2-0.8 0-0.6 0.7-1.6 0-2.3-0.6 0.4-0.1-1.1-0.6-1.5-0.5-0.6-1.3-1-1.7-1.6-1.1-0.7-0.8 0.2-0.2 0.6 0.2 0.9-1-0.7-1.6-0.2-1-0.2-1.7 0.7-2.3-0.1-1.3 0.3-1.7-0.4-2.6-0.6-0.3-0.7-1.4-0.6-2.3-0.6zm22.1 1.9c-1.3 0.7 0.6 1 1.1 1.1 0.7 1.1 0.1 0.3-0.7 0.4-1.4-0.2-0.5 1 0 1.1 1 0.1 1.4 0.6 2 0 0.2 0.6 1.8 1 1.7-0.1 1.1-0.8-0.1-1.6-0.7-0.8-0.5-0.5-1.3-0.5-2-1.2-0.4-0.6-0.8-0.5-1.4-0.5zm-5.4 0.3c-0.4 0.3-1.9 0.4-1.3 1.4 0.2 0.7 0.6 0.8 1.1 0.6 0.8 0.5 1.2-0.1 1.4-0.8 0.1-0.2-0.9-0.6-1.2-1.2zm-2.3 0.1q-0.1 0-0.3 0.1c-0.4 0.5-2.1-0.1-2.3 0.9 0.9 0.1 0.3 1 1 1.3 0.4 0.3 1.5 1 1.6 0 1.6 0 0.2-0.6 0.5-1.2 0.3-0.5 0.2-1.1-0.5-1.1zm3.9 0.1c0 1.1 0.4 1 0.6 2 0.7 0.2 1.5 0.9 1.9 0.2 1-0.8-0.3-0.9-0.7-1.6 0.2-0.8-1.3-0.5-1.8-0.6zm19.2 0.2q-0.1 0-0.2 0.1c-0.6 0.7-1.1 1.1-1.4 1.8 1.4 1.4 0.1 0.4-0.1 1.5 1.3-0.3 0.2 0.7 1.7 0.8 0.8 0.4 1.1-1.1 0.7-1.7-1.9-0.5 0.4-1.1 0-2.1-0.4 0.2-0.4-0.4-0.7-0.4zm-37.8 0.8c0.1 1-0.3 1.1-1.1 1.5-0.6 0.7-1.9 0.3-2.6 0-1.1-0.2-1.2 1.2-2.2 1.1-0.6 0.6-2.2-0.5-1.7 1.3 0 0.8 0.7 1.4 1.2 1.9 0.6 0.3 0.5 1.4 1.7 0.9 0.6-0.1 1.3-0.4 2.3-0.3 0.8-0.3 0.8-1.4 1.9-0.8 0.5-0.4 1.6-0.1 2.5-0.3 1.4 0.8-0.1-1.1 1.2-0.4 1 0.3-0.2-0.9-0.3-1.2-1-0.3-0.3-1.7-1.1-1.8 0 1.7-0.4 0.4-0.8-0.2 0.3-1-0.7-1-1-1.7zm21.8 1.7c-0.3 0.7-1 0.8-1.7 1.2-0.7 0.4-1.9-0.5-2.3 0.2-0.4 0.5-0.9 0.8-1 1.6-0.2 0.9 1.3 0.9 0.7 2 0.3 0.9 0.2 1.4 0.1 1.8 0.9 1-0.6 1.5-0.4 0-0.8-0.2 0.3-1.3-0.6-1.7 0-0.9-0.6-1.8-1.6-1.5-0.4 0.4-2.1 0.3-1.1 1.2 0.4 0.6 0.4 1.5 1.3 1.6 0.6-0.3 1.5 0.8 0.4 1.2 0.3 0.6 1.1 0.9 1.6 1.6 0.2 0.5 0.6 1.8 1.3 1.2 0.5 0.1 1.1 1.5 0.8 1.7-0.5 0.2 0.6 1.5 1.3 1.2 0.6-0.3 1.5 0.2 2.2-0.3 0.9-0.1 1.2-0.6 1.6-1.4 0.9-0.1 1.4-0.6 2.3-0.8 0.5 0.2 1.3-0.5 0.4-1-0.1-0.5-0.7-0.4-1-0.9 0.4-1-1.4 0-1.3 0.7 0 0.8-0.9 0.7-1.4 1.3-0.4 0.5-1.1 1-1.8 1.3-1 0.4 0.6-0.9 0.9-1.2 0.4-0.8 1.1-0.8 1.6-1.3 0.4-0.8-0.1-1.7 1-1.9 0.7-0.4 1.1-0.9 0.1-1.3 0.8 0.1 2-0.8 0.9-1.6-0.6-0.8 1.6-1.2 0-1.4-0.6 0.9-0.9 0.3-1.4-0.3-0.9 0-1.3-0.9-1.9-1.2-1-0.9 0.4-0.3 0.7 0 0.8 0.5 1.1 1 1.7 0.1 0.8-0.3-0.6-1-0.9-1.2-1.1 0.1-1.3-1-2.4-0.9zm-9.5 2.7q-0.1 0-0.3 0c-0.5 0.3-1 1.1-1.7 1.4-0.9-0.1-2.2 0.8-0.6 0.7 0.7-0.5 1.2 0.9 1.9 0.8 0.6 0.1 1.4 1.5 1.6 0.5-0.2-0.4 0-1.6-0.6-2-0.1-0.5 0.2-1.4-0.3-1.4zm-2.5 2.6q-0.2 0-0.4 0c-0.8 0.3-1.6 0.4-2.4 0.6-1 0.1-1.7-0.4-2.7-0.5-1.2-0.2-1.7 0.5-2.7 0.5-0.9-0.4-2 0-2.8 0.1-0.6 0.6-1.8 0.1-2.2 0.5-0.6-0.1-2.9 0.3-1.4 0.4 0.7 0.1 0.7 1.4 0.4 1.3-0.6-0.8-1.3 0-2-0.4-0.9 0-1.5 0.3-2.2 0.2-1.1-0.1-1.8 0.9-0.5 1.1-0.4 0.9 0.9 0.1 1.2-0.2 0.5-0.6 1.2-0.3 1.2 0.3-0.9 0.1-1.7 0.4-2.5 0.6-0.8 0.6-0.1 1.2 0.2 1.8-0.7 0.2-0.2 1.2 0.3 1.5 0.9 0.5 1.3-0.5 2.4-0.3 0.5-0.4 1.4-0.1 2.2-0.3 0.7-0.2 1.6 0.4 2.2 0.5 0.1 0.5 2.9 0.3 1.1 0.6 0.1 0.3 1.7 0.8 2.2 0.4 0.8 0.1 1.1 0.6 2 0.1 0.5 0.8-1.3 0.7-1.9 0.7-0.9 0-1.4-0.7-2-0.4-0.8-0.3-1.5-0.4-2.2-0.8-0.8 0.5-1.5-0.4-2.5 0-0.6 0.5-2.4-0.4-2.4 0.9-0.1 1.1 0.1 2 0.9 2.3 0 0.8 0.6 1.2 1.3 1.5 0.8 0.4 1.3 0.5 2.3 0.7 0.7 0.4 1.6 0 2.3-0.3 0.2-0.6 1.1-1 1.6-1.3 1.1 0 1.3-0.9 2.5-0.8 1.4 0.5 1.3-0.9 2.5-0.6 0.2-0.7 0.1-1.6 1.4-1.4 0.3-0.7 0.6-0.8 1.1-1.3 0.8-0.1 1.3-1.5 0.6-1.7-0.2-0.9 0.3-2.3 0.8-1.9-0.3 0.3-0.6 1.2 0 1.9 0.7 0.4 1.3-0.6 2.6-0.3 0.9 0.2 1.1-0.5 1.5-0.4 0.6 0.3 2.1 0 1.3-0.8-0.8-0.4-0.7-0.8-1.2-1.5 0.8-0.7-0.5-0.8-0.7-1.4-0.3-0.6-1.3-0.6-1.5-1.3-0.6-0.2-1.2-0.6-1.9-0.6zm-36.1 0c-0.7 0.1-2.1 0.6-1.2 1.2-0.1 1.1-0.8 1 0 1.9 0.5 0.5-0.1 1.4 0.6 2 0.5 0.9-0.5 1.7 0.7 1.8 0.3 0.9 0.5 1.4 1.2 0.5 0.7-0.3 1.8-0.2 2-1-0.1-0.5-1.5-0.8-0.4-1.4-0.1-1-0.6-1.9 0.1-2.5-0.5-0.4-0.4-1.6-1-1.9-1 0.3-1-0.8-2-0.6zm7.3 3.4q-0.1 0-0.4 0.1c0.8 0.5-0.8 0.6-0.1 1.2-0.1 0.8 0.6 2.3-0.4 1.5-1.1-0.2-1.4-0.2-1.3 0.9-0.4 1 1.4 0.4 1.8 0.3 0 0.4 1.3 1.7 1.2 0.6 0.3-0.5 1.4-0.1 1.3 0.3 0.5 0.2 1.6 0 2.1 0.1 1.1-0.1 2.1-0.2 3.4-0.1 1.1 0.1 0.6-1.5 0.4-2-0.8-0.3 0.1-1.3-0.6-1.8-0.9-0.1-1.2 0-2-0.3-0.5-0.7-1 0-1.8-0.4-0.6-0.5-1.4 0-2 0.3-1.2 0.1-0.8-0.7-1.6-0.7zm33.6 3.2c-0.5 0.5-1.9 0.1-2.4 0.6-0.6 0.3 0.6 1.1 1 1.2 0.8 0.1 1.6-0.8 2-0.3 0.9-0.1 2 0.2 1-0.9 0.1-0.8-1.1-0.5-1.6-0.6zm10.8 0.3c-0.5 0.3-1.2 1-1.8 1.2-0.9 0.3-1.6 0.5-2.6 0.3-0.8-0.1-0.8 1.2-0.5 1.6 0.2 0.5-0.5 1.7 0.6 2.1 0.6 0.7 0.8 1.1 1.6 1.5 0 0.9 1.8 0.4 2.4 0.3 0.4-0.7 1.2-0.9 1.9-1.2 0-0.6-0.3-0.9-0.4-1.7-1.1-0.6 0.9-0.5 0.6-1.5-0.3-0.8 0-2.1-0.8-2.3-0.9 0.4-0.4-0.2-1-0.3zm-37.2 2.1q-0.1 0-0.2 0.1c0.3 0.7-0.4 1.1-1.1 0.4-0.2 0.7-0.6 1.3-1.4 1.4-1 0.4 0.2 0.8 0.1 1.5 1 0 1.5 0 1.4 0.9 1 0 0.5 1.1 1.2 1.5 0 0.4 0.6 0.9 0.8 1.7 0.5 0.5 1.4-0.4 1.9 0.4 0.1 0.6 1.1 1.2 1.5 0.6 0.8-0.4 1.5-0.2 2.3-0.4 0.1-0.8 1.6-0.7 0.9-1.7-1.1 0.3-0.6-1.4-1.5-1.5-0.7 0-2.5 0-1.8-0.8-1.2-0.3 0.1-0.6-0.7-1-0.3-0.9-1-1-1.3-1.8-0.5-0.5-0.4-1.8-1.3-1-0.4 0.1-0.5-0.3-0.8-0.3zm28 1.1c-0.3 0.9-1.8-0.5-2.2 0.6-0.8 0.1-1.6 0.6-1.5 1.7-0.2 1.3 0.5 1.5 1.5 1.6 0.2 0.3 2.1 0.8 1.3 0.9-1.3-0.1 0.3 0.9 0.2 1.5 0.5 1 1.3 0.9 2.4 0.9 0 0.7-1.4 0.2-2.1 0.7-0.2-0.7-1.4-0.8-1.5-1.4-0.1-0.6-1.2-1.1-1.8-0.4 0.4 0.4 0.5 1.1 0.8 1.9 0.4 0.4 0.7 1.4 1.6 1.7 0.4 0.7 0.7 1.1 1.5 1.5 0.6 0.7 1.6-0.1 2.2-0.2 0.6 0.5 1-0.7 1.6-0.7 0.3-0.5-0.5-1.3-0.7-1.8-0.8-1.1 1 0.3 1.2-0.2-0.1-0.8-1.3-0.9-1.5-1.5-0.2-0.6 1.8 0.8 1.5-0.1-0.4-0.7-1.6-0.5-2.2-0.9-0.2-0.8-0.8-1.4-0.7-2.3 0.3-0.6-0.3-1.5-0.6-2.1-0.7-0.2-0.3-1.2-1-1.4zm-7.5 0.8c-0.4 0.4-1.1 1-1.8 1.2-0.6 0-1 0.7-1.6 1-1.2-0.1-1.5 0.7-2.8 0.5-0.6-0.2-1.6 0.1-2 0.6-1 0.6 0.8 0.5 1 1.2 0.7 0.3 1.7-0.5 2.4 0 0.8 0.3 1.4-0.3 1.9 0.4 0.2 0.7 1.4 0.8 2.1 0.9 0.8 0 0.9-0.9 1.7-1 0.5-0.6 0.9-0.7 1.6-1.2 0.7-0.1 0.6-1.7 0.4-2.3 0-1-1.6-0.5-2.3-0.9-0.4-0.1-0.1-0.5-0.6-0.4zm11.8 2.1c-0.9 0.5 1.3 0.8 0.2 1.5-0.4 0.8 0.9 1.3 1.2 0.6-0.4 1.2 2 0.8 0.9 0 0-0.9-0.7-1.3-1.5-1.5-0.5 0.1-0.4-0.4-0.8-0.6zm-60.5 2.2c-0.9 0.1-0.2 1.4-1.3 1.2 0.1 1.1-1.1 1.1-0.7 1.9 0.9-0.1 0.7 0.9 1.4 1.4 0.3 0.5 0.6 1.2 1.2 1.7 0.6 0.4 0.6 1.5-0.3 1.5-0.8 0.4 0 1.5 0.9 1 0.3 0.5 1.6 0.5 1.8-0.1 0.2-1.1 1.4-0.7 1.6-1.4-0.2-1-0.7-1.6-0.1-2.5 0.3-1.3-1.1-0.9-1.5-1.5-0.4-0.7-0.5-1.4-1-2-0.1-0.8-1.2-0.7-1.7-1v-0.2h-0.1q-0.1 0-0.2 0zm41.8 2q-0.1 0-0.1 0c-0.6 0.5-1.3 0.6-1.8 1.1-0.4 0.5-1 1-1.1 1.7-0.5 0.8-0.4 1.1-1.2 1.3-0.3 0.7-0.7 1.1-1.1 1.9-1-0.2-1 1.1-1.9 1.1-0.7 0.3-1.3 1.6-1.9 0.8-0.7-0.2-0.5 1.6 0.2 1 0.2 0.2 1.4 0.1 0.3 0.8 0.7 0.4 1.4-0.9 1.8 0.3 0.6 0.5 1.3-0.2 2 0.1 0.9 0.4 1.9 0 2.4-0.4 0.6-0.4 1-0.8 1.4-1.5 0.7 0.6 1.1-0.5 1.7 0.1 0.5 0.8 1.7-0.4 2 0 0.9-0.1 1.7-0.3 2.5-0.1 0.6-0.1 1.4-1.5 0.1-1.5-0.8 0-1-0.7-1.7-1 0.1-0.6 1.5 0.8 1.7 0.3 0.3-0.8 0.7 1 1.5 0.8 0.3 1 1.2-0.5 1.8 0.2 0.3-0.7 1.3-0.8 1.6-1.3 0.4-0.4 1.9 0.2 1.5-1-0.6-0.4-0.2-1.1-0.9-1.5-0.9 0-0.7-1.3-1.3-1.5-0.1-1.2-1.4-0.2-2.3-0.5-0.7 0.8-2.3-0.1-2.6 0.2-0.7 0 0-1.4-1.1-1.4 0.2 1.1-0.6 1-0.6 0.2-0.9 0.2-1.5-0.5-2.3-0.1-0.3 0.2-0.4-0.1-0.6-0.1zm-4.9 1.2c-0.8 0.5-0.9 1.2-0.4 1.9-0.4 1 0.7 0.3 0.8-0.2 0.5-0.1 0.1-1.7-0.4-1.7zm34.3 0.3c-0.6 0.3-1.7 1-0.4 1.4 0.7 0.4 0.8-1.5 0.4-1.4zm-35.7 1.2c-0.3 0.6-0.8 1.5-1.3 0.6-0.7 0-1.3 1.2-1.9 0.8-0.2-0.7-1-0.6-1.8-0.9-0.6 0.2-1.4-0.4-1.2 0.6-0.1 0.9-0.2 1.6 0.7 1.6 0.5 0.2 1.7 0.8 1.1 1.1 0.8 0.9 1.3-0.1 2.3 0 0.2-0.5 1-1.8 0.8-0.5 0.4-0.1 1.5-0.9 1.4-1.2-0.6-0.5 1.2-1.7-0.1-2.1zm-14.5 3.2c-0.7 0.5-0.4 1.3 0.6 1.3 1 0.5 0.9-0.8 0.2-1-0.4 0.2-0.4-0.4-0.8-0.3zm1.4 2.2c-0.2 0-0.3 0.1-0.3 0.1 0.1 0.4 0.1 1.1 0.9 1 1.1-0.2 0.8-1.3-0.5-0.9 0.1-0.2 0-0.2-0.1-0.2z"/>
		<path id="map_aysen_Lago_Guaitecas" fill-rule="evenodd" class="map-aysen s1" data-siglaregion="AI" data-sigla="guaitecas" data-nombre="Guaitecas" d="m75.3 12.7c0.2 0.4 0.3 0.8 0.7 0.9 0.4 0.4-0.2 0.7-0.4 0.2-0.2-0.2-1.2-0.4-0.7 0 0.1 0.1 1.1 0.5 0.4 0.6-0.3-0.1-1.1-0.4-0.9 0.3-0.3 0.7-0.1-0.7-0.6-0.4-0.3-0.4-0.7-0.4-0.8 0-0.2 0.2 0 0.6 0.3 0.7 0.4 0.2 0.4 0.4 0.1 0.8 0.1 0.5-0.1 1.1-0.7 0.9-0.4-0.1-0.5 0.6-1 0.1-0.5 0.1-0.6 0.5-1.1 0.4-0.4-0.1-0.8-0.2-0.9-0.5-0.4-0.2-0.7-0.4-1.1-0.5-0.4-0.1-0.8-0.3-1.3-0.3-0.2-0.2-0.8 0-1.1-0.4-0.3-0.1-0.8-0.4-0.9 0.1-0.5 0.1-0.7-0.2-1.1-0.3-0.4 0-0.4 0.5-0.9 0.5-0.3 0.1-0.2 0.7-0.6 0.9-0.4 0.2 0.2 0.7 0 1.1-0.3 0.2-0.2 0.9-0.7 0.8-0.4 0.2-0.4 0.5-0.1 0.8 0.5 0.1-0.1 0.8 0.4 0.9 0.3-0.5 0.5 0.6 0.7-0.1-0.6-0.5 0.7-0.8 0.5-0.2 0.5 0.1 0.7 0.4 0.1 0.4-0.2 0.7 0.9 0 0.9 0.7 0.1 0.4 0.6 0.2 0.9 0.2 0.4 0.3 0.8-0.4 0.9 0.2 0.5 0 0.6-0.3 0.5-0.8 0.3-0.4 0.5 0.5 0.8 0.5 0.4 0.6 0.4-0.5 0.3-0.8 0.4-0.3 0.9 0.1 0.7 0.6-0.1 0.3-0.5 0.5-0.4 1 0 0.5 0.9 0 1 0.4 0.4 0.2 0.4 0.6 1 0.5 0.3 0.3 0.4 0.5 0.8 0.6 0.3 0.3 0.9-0.1 0.7-0.6 0-0.5 0.6-0.2 0.9-0.5-0.1-0.3-0.2-0.6-0.1-1.1 0.5-0.3 0.6 0 0.6 0.3 0.2 0.2 0.8-0.1 1 0.2 0.6-0.3 0.3-0.4 0.3-1-0.7 0-0.6-0.2-0.8-0.5-0.3-0.4-0.6-0.1-1-0.3-0.4-0.2-0.3-0.2-0.9-0.4-0.2-0.3-0.4-0.7-0.8-0.7-0.3-0.4 0.6-0.5 0.3-1.1 0.2-0.2 0.6-0.6 0.9-0.3 0.3 0.2 0.9 0.1 1.2-0.1 0.3-0.1 0.7-0.7 0.9-0.2 0.4 0.2 0.7-0.2 1.1 0.1 0.4-0.1 0.9-0.3 1.1 0-0.1-0.6 0.7-0.3 0.7-0.7 0.1-0.6 0.9-0.1 1.1-0.6-0.1-0.4-0.4-0.6-0.5-1-0.1-0.6-0.2-0.7-0.6-1-0.2-0.2-0.7-0.2-0.7-0.8-0.1-0.3-0.5-0.4-0.9-0.5q-0.1 0-0.2 0zm-6.9 1.1c-0.4 0.2 0 1-0.2 1.2-0.1 0.5 0.6 0.9 0.7 0.4 0.1-0.3 0.8-0.5 0.4-1-0.5-0.1-0.7-0.4-0.9-0.6zm10.2 1.7c-0.2 0.4 0 0.5-0.2 1.1 0.4 0.2 0.3 0.7-0.1 0.8-0.1 0.3-0.8 0.4-0.3 0 0.3-0.2 0.1-0.9-0.3-0.4-0.3 0.4-0.8-0.5-0.7 0.5-0.1 0.4-0.3 0.6-0.7 0.6-0.5 0.4-0.7-0.2-0.9-0.4-0.5 0.2-0.7 0.1-1-0.1 0 0.4-1 0.1-0.6 0.6 0.4 0.2-0.1 1 0.2 1q0.4 0.3 1.1 0.3c0.4 0.2-0.5 0.7 0.3 0.8 0.4 0 0.6-0.3 1-0.3 0.6 0 1.3 0.1 1.8-0.1 0.4-0.2 1 0.1 1.3-0.2 0.4 0.1 0.9-0.5 0.5-0.6 0.2-0.4 0.7-0.3 0.2-0.8 0.1-0.6-0.2-0.7-0.4-1.1-0.6 0.1-0.6-0.5-0.6-0.7-0.2-0.3-0.3-0.9-0.5-1zm-0.2 4.9c-0.4 0.3-0.7 0.3-1.2 0.3-0.5 0.1-0.7-0.2-1.3-0.1-0.2 0.3-0.7 0.3-0.7 0.8-0.1 0.3 0.2 0.7 0.7 0.6-0.1 0.6 0.7 0.3 0.9 0.5 0 0.7 0.7-0.1 0.7 0.5 0.2 0.4 0.8 0.1 0.6-0.4 0.5 0.1 0.8-0.4 0.9-0.8-0.4-0.2 0.4-0.4 0-0.8 0.3-0.3-0.3-0.6-0.6-0.6zm3.8 1.4c-0.3 0.2-0.3 0.8-0.7 0.8-0.2 0.3-0.4 0.6-0.6 1 0.4 0.1 0.2 0.6 0.1 0.9-0.3 0.1-0.6 0.6-0.3 0.9 0.3 0.3 1.2-0.4 1 0.2 0.3 0 1.1 0.4 0.2 0.4-0.4-0.1-0.6-0.2-0.6 0.5 0.4 0.2 0.4 0.6 0.4 0.9 0 0.3 0.5 1 0.7 0.8 0.2-0.6 0.7-0.3 0.5 0.3-0.1 0.5-0.7-0.3-0.5 0.4 0.4 0.2 0.5 0.6 1.1 0.5 0.2-0.4 1.1-0.2 0.5 0.2 0 0.4 0.9 0.4 0.2 0.8-0.1 0.1 1.1 0.4 0.3 0.6-0.4 0.6 0.1 0.4 0.5 0.3 0 0.4-0.5 0.3-0.7 0.7 0 0.7 0 1.4 0 2 0.2 0.2 0.9 0.3 1.3 0 0.4-0.3 0.6-0.6 1-0.7 0.4-0.1 0.3-0.5 0.8-0.6 0.2-0.3 0.6-0.4 0.7-0.8-0.1-0.4-0.1-1-0.3-1.2-0.8 0.2-0.5-0.4-0.1-0.4 0.5-0.2 0.1-0.5 0.1-0.9-0.3-0.1-0.4-1-0.9-0.5-0.4 0.3-1-0.3-0.6-0.5 0-0.4-0.6-0.6-0.9-0.5-0.6 0.4-0.6-0.5-0.1-0.4 0.3-0.2 0.9-0.1 1-0.6 0-0.3 0.3-0.5 0.3-1-0.2-0.2-0.5-0.4-0.7-0.7-0.3-0.2-0.3-0.6-0.8-0.7-0.4 0-0.1-0.8-0.5-1-0.3-0.2-0.9-0.1-1.2-0.3-0.2-0.2-0.5-0.4-0.5-0.9-0.3-0.1-0.1-0.6-0.7-0.5zm-9.1 0.6c-0.4 0.1-0.2 0.8-0.6 0.9 0.1 0.4-0.7 0.7 0 0.9 0.2 0.3 0.5 0.3 0.7 0.8 0.4 0.1 0.7 0.5 0.1 0.6 0 0.4 0.7 0 1-0.2 0.4 0 0.4 0.5 1 0.5 0.4 0.1 0.8-0.5 1.1 0 0.5 0 0.7 0.2 1.3 0.1 0.3-0.2-0.1-1 0.5-1 0-0.5-0.5-0.3-0.7-0.8 0-0.6-0.8-0.1-1-0.4-0.5 0-0.4-0.6-1-0.5-0.3-0.2-0.5-0.4-1-0.4-0.2-0.3-0.4-0.6-1-0.5q-0.2 0-0.4 0zm0.4 8.3c0.1 0.5-0.7 0.6-0.4 0.9 0.5 0 0.4 0.1 0.8 0.3 0.4 0 0.7-0.2 1.1 0 0.4 0 1.1 0.2 1.1-0.4-0.4-0.1 0.4-0.9-0.3-0.8-0.5 0.1-1.1-0.1-1.5 0.2 0 0.4-0.9 0.2-0.5 0 0.1-0.3-0.1-0.2-0.3-0.2zm17.7 1.2c-0.1 0.4-0.6 0.2-1 0.5-0.7-0.2-0.3 0.6-0.4 1.1 0.2 0.2 0.6 0.5 0.6 1 0.4 0.1-0.2 1 0.1 1 0.3 0.2 0.3 0.7 0.4 1.1 0.6 0.2 0.9-0.2 1.2-0.3 0.7-0.2 0.3-0.4 0.3-1 0.6-0.2-0.3-0.4-0.1-0.7 0.3-0.1 0.6-0.5 0.9-0.3 0.4 0 0.8-0.4 1-0.7-0.1 0 0.1-1-0.5-0.9-0.1 0.4-0.8-0.3-0.9 0.2 0.1 0.5-0.9 0.5-0.6 0 0.4-0.4-0.1-0.5-0.3-0.7-0.3 0-0.4-0.2-0.7-0.3zm-2.4 1.7c-0.3 0.2-0.3 0.6-0.8 0.6-0.3 0.2-1 0.5-0.4 0.7 0 0.4-0.3 0.8 0.5 0.6 0.6 0.2 0.7-0.4 1.1-0.4 0.4 0 0.4-0.7 0.2-1.1-0.1-0.1-0.3-0.5-0.6-0.4z"/>
		<path id="map_aysen_Lago_Aysen" fill-rule="evenodd" class="map-aysen s1" data-siglaregion="AI" data-sigla="aysen" data-nombre="Aysén" d="m140.5 84c-0.3 1.2-1.1 1.7-0.8 3.3-0.3 1.6-1.7 1.6-1.7 3.3-1 1.1-3.7 0-4.1-1.5-0.9-1.3-2.6 0.4-3.7-0.7-0.6 0.6-2.3 1.1-2.9 0 0-1.9-1.7-1.9-3.2-1.4-1.1 0.3-1.7 2-3.2 1.7-1.7-0.4-2.4 1-4.3 0.8-1.7 1.2-3.5 0.3-5.1 0-1.4-1.1-2.7 0.3-3.1 1.6-0.7 0.3-0.9 2.3-1.8 1.2-0.6-0.2-1.3-1.8-2.1-1-0.2 1.4-1.7 1.8-2.7 2.1-0.5 1.8 0.5 1.7 1.4 2.7-0.6 0.8-1.5 1.4-2.6 1.2 0.2 1.3 2.3 0.2 1.3 2.1-0.8 0.6-2.2-1-3.4-0.1-1.4-0.5-3.3 0.7-1.8 1.8-0.2 1.2-0.1 2.4-0.7 2.8 1.6 0.3 3.2 0.6 4.3 1.2 1.8 0.4 2.4-1 2.8-2.2 0.8-0.7 1-0.9 2.1-1.1 1.1-0.3 2 0.4 2.8 1.1 0.4 0.8 1.1 1.2 2 1.6 0.8 0.2 1.6 0.8 1.7 2.2 1.2-0.1 2.1 0.9 2.3 1.9 0.4 0.9 1.2 1 1.6 1.8 0.4 1.1 2 0.7 3 1.3 1.5 0.1 2.4 0.7 2.6-0.9 0.5-1.7 1.9-1.1 3.4-1.3 0.6 1-0.7 2.2 0.5 2.9 0.7 1.4-0.3 1.6-0.8 1.4-0.8-0.4-0.9 0.3 0 0.9-0.4 1.8-1.3 0.9-1.6 0-0.9-0.1-1.5 1.8-1.9 0.3-0.8-0.2-2.1-0.5-2.9-0.3-1.1-0.3-1.7 0.3-2.1-0.6-0.8-0.6-0.7-1.8-1.3-1.7-1.2 0-1.1-1.5-2.2-0.5-0.4-1-1.6-0.6-1.6-2.1-1.5-0.1-1.9-1.2-1.6-2.9-0.3-1.1-1.2-1.8-2.5-1.4 1.3-1.4-2.1 0.1-1.1 0.6 1.4 0-0.2 0.7-0.7 0.9-1 0.2-2.2-0.3-2.6 0.9-0.8 0.3-1.2 1.6-0.1 1.9 0.6 0.7 0.6 4.4-0.3 2.3-0.6-1.2-0.3-1.9-0.7-2.4-0.3-1-1 1-1.5 1.2-1.6 0.8 0.7 2.8 0 4.7 0.1 0.7-1.1 3.1-1 1.9 0.1-1.3 0.4-2.5 0-3.7-0.5-1.1-1.4-0.6-2.4-0.2-0.6 0.6-1.2 1.3-1.5 2.4-0.6 1-0.6 2.7-1 4 0.4 1.8-0.2 4.1-0.3 5.2 0.1 2-0.9 3-1 5 0.3 0.9-0.3 2.7-0.1 3.5 0.1 0.9-1.8 2.6 0 2.9 0.5-0.6 1.4-1.2 1.5-2 0.7-0.2 1.9-0.3 2.2-1.4 1.5-0.1 1.4-2.3 2.3-2.8 0.7-1.3 1.2-3 2.3-4 1.6-1.2 0.7 0.8 1.6 0.2 0.2-0.8 1.4-1.4 1.5-2.4 0.4-0.8 2.7-0.9 1.3 0.1-1.6-0.1-0.6 1.6-1.6 2.3 0.5 1.6 4.1-0.1 4.7 1.4 0.9 0.2 2-1.3 1.9-0.2-1.1 0.5 0.1 1.9-1.3 1.8-0.8 0.2-2.4 0.6-3-0.1-1.1 0.3-2.5 0.2-3.8 0.6-1.4-0.5-1.1 1.1-2.3 1-0.5 0.8-1.4 1.7-1.6 2.9-1.1 1-2.2 1.7-3 3-1.1 0.9-1.8 2-2.3 3 1.4 0.4-1.1 2.4 1 2.1 1.1 0 1.9 0.6 3.3 0.8-0.5 0.6-1.9-0.3-3 0-0.8-0.5-1.5 0.2-2.2-0.3-0.2 1.4-1.3 1.7-0.8 3-1 0.6 0.4 1.1 1.3 0.8-0.2 1.2-1.1 1-1.6 1-0.8 0.3-1.6 1.4-1.6 2.1 0.8 1.3 0 2.8 0.7 4.2 1 0.5-0.6 2.2 0.2 3.2-1 1.1 0.6 2.3-0.6 3.1 0.1 1.5-0.3 2.1 0 2.7 0.4 0.5 1.1 2.4 0 1.5-1.8-0.2-0.1 2.8-1.6 3.3 0.5 1.1-0.8 3.2 0 3.3 1-0.5 0.9-1.7 2.2-1.8 0.7-0.7 0.5-2.2 1.5-2.4 1.1-1.7-1.3-1.7-0.7-2.7 0.5-0.5 1.2-1.5 2-1.8 0.3-1.9 1.4-2.3 1.8-3.8 0.6-0.5 1.3-1.2 1.7-2.1 0.8-1.3 2.1-2 1.7-4.1 0.6-0.5 1.2-2 2.2-1.2 1.4-0.9-0.1-0.3 0.4-1.2 1.1 0.1 1.9 0.9 1.5 1.5 0.3 1.1-1.1 0.7-1.6 1.4-1.5-0.3-0.8 1.6-1.6 1.9-0.9 1.2-1 2.9-2 3.8-1.1 0.8 0.1 0.8 1 0.9 0.1 0.7-1.4 0.6-2 0.3-0.8 0.4-1 1.6-1.6 2.1 0 1.3-0.7 1.4-0.5 3 0 0.9-1.1 1.7-1.1 2.9 0.1-0.3 0.8 2.2 1.1 0.8 1.1-1.3 2.8-0.1 4.2-0.2 0.6 0.4 2.3 0.6 1.3 1.5-0.3-1.1-1.1-0.4-2-0.7-1.6 0.3 0.6 0.5 1 1-0.8 0.2-2.1 0.1-2.7-0.4-1 0.6-1.9 0-3-0.2-1 0.5-1.5 2-1.9 2.6-0.4 0 0.7-2.7-0.7-0.8-0.6 1.1-1.2 2-2.1 2.3 0.5 1.8-1.6 1-1.5 2.3 0.5 1.1-2.3 0.5-0.8 1.3-0.6 0.8-0.3 2.6-1.3 3.1-1.1 0.5 0.9 0.3 0.9 1.3 1 0.3 1 1.6 1.7 2 0.9 0 1.5 0.9 2.2 0.6 0.7 0.5-1.4 1.1-1.6 0.3-1.2 0.3-1.2-1.1-2.1-1.2 0.6-2-3-0.7-1.8-0.2-0.1 1.4-1.7 2-1.6 3.6-0.3 1.4-1.3 2.6-3 2.2-1.1 0 0.2-1.3-1.1-1.1-0.2 0.7-1.4-2.4-1.3 0.3-0.8 0.7-1.3 2.4-0.2 1.3 0.9 0.6 1.7 0.3 2.8 0.8 0.1 0.7 0.4 2.5-0.2 3-1.5-0.1-0.4 1.9-1.1 2.3-0.8 0.6-0.6 2.6-1.8 2.7-0.8-0.3-2.1-0.4-2-1.6-1.7-0.1-0.1-1.9-1.3-2.5 0.2-0.9 0.3-2 0.7-3 1-0.4 1.7-1.1 1.2-2.2 0.3-0.7 2.3-1.4 0.9-1.9-2.2-1.2 1 0.1 0.5-1.4-0.7-1.5 2.3-1.3 1.3-2.2-1.2-0.8 0.2-0.5 0.6-0.9-0.3-0.1 0.7-2.8 0.6-0.6 0.6 0.7 0.3 2.1 1.3 2.3 0.5-0.6-0.2-1.9-0.7-2.4 0.1-0.7-0.1-2.9 1-3.1 0.3-1 2.2-0.8 1.3-1.9 1.1-0.7 1.6-2.2 2.3-3.7 0.5-1 0.2-3.3 0.8-4 0.5-1.5 0.3-2.1 0.2-3.6-0.8-1.3-2.2-1.3-3.5-1.7-0.2-1-1.9-1.2-1.1-2.7-0.8-0.4-1.1-0.9-2.3-0.9-1.6 0.2-3.5 0.1-3.5 2.1-1 1.1-0.3 3.2-0.3 4.9 0 1.7-0.8 2.7-1.3 4-0.6 1.2-1.9 1.5-2.9 2.4-0.7-0.7 1.3-0.9 1.3-1.8 0.8-0.5 1-1.8 1.8-2.4 0.4-1.3 0.4-3.3-1.2-2.7-0.3-0.8 1.7-0.9 1.2-2.3 0.2-1.9-1.7 0.1-2.8 0.3-1.3 0.6-2.3 2.1-4 2.1-0.9 0.9-2.1 0.2-2.9 0.9-0.8 0.5-1.7 1.5-3.2 1.4-0.7-1.3-3-0.4-4-1.8-0.7-0.4-1.7-1-2-1.7-0.6-0.4-0.4-1.5-0.2-2.4 0.5-0.5 0.7 1.6 1.2 2 0.1 0.9 1.5 1.3 2.1 1.8 0.9 0.3 1.2 0.7 2.2 0.9 1.1 0.2 1.8 0.7 2.3-0.2 1.2-1.5 3.1-0.8 4.3-1.6 1.2-1.6 3.6-1.4 4.8-2.9 0.9-0.2 1.3-1.1 2-1.7 0.8-0.8 1.4-1.9 1.6-3.1 0.9-1.2 0.8-3.4 0.7-4.9-1.7-0.1-1.8-1.8-2.9-2.5-1 0-1.8 2.9-0.4 3-0.5 0.9 0.2 2.3-0.1 3.1-1.3 1.6 1.9 0.3 0.1 1.6-1.2 0.6-1.4 1-2.6 1.5-0.8 0.6-1.4 1.4-2.6 1.5 0.6-0.9-1.3-0.9-1.8-0.5-1.4 0.7-2.7 0.9-4.1 0.5-1 0.2-1.7-0.7-1.6-1.2 1 0.6 2.1 0.7 3.5 0.6 0.7 0.3 1.7-0.6 2.3-0.8 1.1-0.2 3.3 1.1 3.9-0.6 1-0.7 1.6-0.9 1.7-2.1-0.1-1.5 0.5-3.2-0.1-4.2-0.8-0.9-1.8 0.9-2.5 0.1-1 0.5-2.7 1.5-4 0.6-0.6 0.6-2.6 1.7-2.9 0.2-0.5-0.4-2.5-1.1-0.7-0.8 0.8 0.5 2.7 1.1 3.4 0 1.2 0.6 2-0.4 2.9-0.6 1.3 0.2 2.3-0.1 2.5-1 1.5 0.6 1.4-1.3 2.1-1.8 1.1 0.6 1.3-1.2 1-1.8 0-0.5-0.5-2-1.5-1.4-1 0.2-2 0.4-2.3 1.2-0.6-0.8-1.3 0.5-2.2 0.3-1.2 0.5 0.3-1.2 1-1.1 0.4-0.5 2.7-0.1 1.9-1.2-1-0.2-1.8 0.2-2.2-0.6-1 0-2.3 0.3-3 0.8-0.8-0.2-2.4 0.8-2.5 0 0.9 0 1.5-0.6 2.3-0.8 0.4 0.1 1.1-0.7 2.1-0.6 0.7-0.8 2.1-0.4 2.7-1.2 0.7-0.1 1.8-0.6 1.4-1.5-0.7-1.5-1-0.7-1.5-1.5-0.7-0.8-2.7-0.6-3.4 0.1-1.6 0.2-2.8 0.6-4 1.4-1 0.9 0.9 2.5-0.3 2.1-0.3-0.6-1.5-1.6-0.4-2.1 0.5-1.4-2-0.7-2.2-1.7-0.9 0.3-1.4 0.8-2.4 0.9-0.7 0.9-1.5-0.5-2.2 0-0.2 1 0.8 0.9 1 1.7 0.8 0.2 1.4 0.8 1.8 1.5-0.8 0.1-1.2-0.7-1.9-0.7-0.7-1-2-0.2-1.2 1 0.9 0.9 0.9 1.6 1.9 2 0.6 0.6 0.6 2.2 1.7 2.3-0.2 0.8 2.6 0.6 1.3 1.3-0.6-0.1-1.9-1-2.3 0.1 1 1.3-0.7 1.2 0 2-0.9 0.5-0.8 1.2-1 2.4-0.3 0.4-2.4 0.1-2-0.4 1 0.3 0.6-1.8 1.4-2.4 0.9-1.1 0.8-3.2-0.6-3.7-1.1-0.1-1.1 3.1-1.5 0.7-0.3-0.7 1.5-1.4 0.6-2-0.8 0.1-1.7 0.5-2.4 0.6-1.3 0.1 1.3-1.1 1.1-2.1 0.3-0.7-0.8-1.6-1.2-2-1.1-0.9-1.9 0.6-1.9 1.7-1.6 0.5-0.3-0.7-0.5-1.9-0.9-1.2-1.8 0.8-1.9-0.1-1.3-0.6-1.5 1.3-2 2.1-0.1 1.4-0.8 1.7-1.9 2.1-0.2-0.4 0.3-1.4 0.8-1.9-0.5-0.9 0.8-1.4 0.2-2.7-0.4-1.1-1.8-0.1-2.4 0.1-1.2 0.2-1.8 1-2.9 1.1 0.5 0.8 0.2 2.3 1.4 2.4 0.7 0.6-1.6 0.5-1.6-0.3-0.3-0.4-1.2-0.1-1.9 0.4-1.4 0.3 1.7 1.3-0.2 0.9-0.8-0.2-1.4-0.8-2.1-1.2 0-1.5-2.6 0.6-1 0.8 0.9 0.6 1.3 1.4 2.3 1.3 1 0.3 1.2 1 2.1 1.2 0.3 0.8 1.5 0.8 2.3 1.1 0.3 0.8-1.7 0.2-2 0-1.1-0.5-2-1.2-3.2-1.5-1 0.3-1.4-1.8-2.6-1 1 1.3-0.6 1.5-0.6 0.1-0.4-0.8-1.2-1.3-1.6-2-1-0.2-1.6 0.6-2.3 0.3-0.1 0.7-1.4 1.4-0.7 2.1-0.4 0.6 0.8 1.4 0.1 2.2 0.8 0.4 1.9 0.6 1.8 1-1.6-0.1-0.5 1.4 0.1 1.7 0.6-0.1 1.6 0.6 2-0.2 1.8-0.6-1.6-0.8 0.3-1.2 0.8-0.4 1.5-0.9 1.9 0 1.1-0.3 1.9 0.9 0.4 0.5-1.3-1.1-1.4 0.3-2 1.2-0.4 0.6-2.8-0.1-2.7 0.6 0.8 0.4 1 1.1 2.1 0.4 0.6 0.7 1.7-1.4 2 0.2 1.2-0.6 1.6 0.5 2.6 0.4 1.3-1.2 0.7-0.6 1.6-0.4 0.3-1 2.2-1.5 0.9-0.2-0.6 0.8-2.1 0.9-3.2 1.2-0.8-0.1-1.9-1.2-2.3 0.2-1.4-0.1-1.9 1.5-3.6 1-1.7-0.4-1.3 1.5-0.7 2.2-0.1 0.5 0.1 1.4 0.3 1.9 1-0.3 1 0.9 2 0.6 1.1-0.1 2.4-0.2 3.6-0.6 0.4 0.8 2 0.6 2-0.6 1.2-0.5 1.5-2.4 1.5-3.3-1.5-0.5 0.6-1.6 0.3-0.3 1.8 0.4 2.2-1.5 3.6-2 0.2-0.8 1.1-1.7 1.2-2.2 0.8-0.9 0.1-1.4-1.1-1.2 1-0.4 1.3-1.5 1.4-2.9 0.5-0.2 1.8-1.7 1.2-0.6-0.6 1.3-0.6 3.3-0.2 4.2 0.4 1 0.4 1.7-0.5 2.3-1 1.1 0.1 1.2 1.1 0.9 0.6 0.7 2.3-0.8 2.7 0.6 0.9 0.2 1.7-0.5 2.7 0.1 0 0.6-2.1 0.7-2.8 0.5-0.7-0.3-1.6-1.1-2 0.1-1.4-0.6-3.1-0.5-4.2 0.8 0.9 0.7 0.4 0.6 0.6 1.5-1.3 0.7-1.6 2.5-0.9 4.2 0.1 1.1 1 1.3 1.7 1.4 1.3 0 1.1 0.1 0.5 1.2-1.9-0.7-0.2 2.3-1.2 1.8-0.1-1.1-1.1-1.2-1.3-2.3-0.3-0.9-1-1.3-1.8-1.2-1.3-0.3-1.4-0.6-2.3 0-1.4 0.4 0.6 0.6 1.1 1 0.9 0.4 0.8 1.9-0.1 0.7 0.4-1.1-3.3-0.5-1.6-0.1 1.7 0.7-1.1 0.7-0.7 1.8-1.3 0.8 0 1.9 0.2 3.1 0.3 0.9 1.6 0.3 1.6 1.5 1 0.8-0.8 0-1.3-0.3-0.7-0.2-0.8-1.4-1.6-1.8-0.4-0.7-1.6-0.5-2.1-1.2-0.9-0.4-1.1-0.7-2.2-0.3-0.4-0.7-2.3 0.9-1 0.5 1.1-0.5-0.1 1.1-0.6 1.2 0.5 0.9-0.3 2.4 1.3 2.1 1.1-0.4 2.3 0.8 0.8 0.3-1.3 0.6-1.8-0.6-2.8 0-0.6 0.5-1.4 1.8-0.3 2.4 1.5 0.4 2.1 1.5 3.8 1.5 1.1-0.4 2.3 0.6 3.6 0.5 0.4-0.1 2.5-0.4 1.7 0.3-1.5 0-3 0.4-4.2-0.3-1 1-2.6-0.3-4-0.5-0.8-1.1-2.9-0.8-3.2-2.4 0.7-0.8-2 0.2-0.7 0.5 0.8 0.4 0.5 1.7-0.3 2.7-0.7 1.1 0.5 1.8 1.3 1.2 0.8 0.5-1.8 1-1 2.1 0.1 0.6 1.8 1.4 0.9 1.8-0.9-0.6-1.1-1.8-2-2.1 0.1-1.4 1-1.7-0.6-2-0.8 0-1.4 0.8-1.7 1.5 0.7 1.4-0.7 0.2-1.5 0.6-0.8 0.2-0.8 1.9-2 1.7 0 1.3 1 1.2 2 1.1-0.1 0.9-2.3 0.8-2.3-0.2-0.3 0.8-0.5 1.8 0.4 2.3 1.3 0.6-1.4 0.1-1.1 1-0.7 0.7-1.1-2.1-1.3 0.8-0.8 0.4-0.2 1.9-1.2 0.6-0.6-0.6-0.2 0.9-1.5 0.1-0.4-0.3-1.8 0-2.2 0.3-0.6 1.2 1.4 1 1.6 1.8 0.5 0.7 2.8 1 1.7 2.2-0.1-0.7-0.9-1.5-1.6-0.9-1.1-0.8-1.5 0.9-0.4 1.3 1.2 1.6-0.6 0.8-1-0.1-0.6-0.1-1.6-1.1-2-0.3-0.5-0.6-1.4-0.7-1.6 0-0.1-0.1-0.3-0.3-0.5-0.4-0.7-0.1-0.8 0.5-0.9 0.7-0.1 0.4 0.4 0.7 0.6 1.1 0 0-0.8 0-0.4 0.8 0.2 0.4 0.2 1 0.2 1.3 0 0.2-0.9 0.4-1.1 0.5-0.7 0.3-0.6-0.1-0.6 0.6 0 0.7 0.3 0.6-0.3 0.9-0.5 0.2-0.5 0.4-0.3 1 0.1 0.3-0.1 0.9 0.1 1.4 0.2 0.8 0.7 0.5-0.1 0.9-0.3 0.2-0.1 1 0 1.2 0.1 0.4 0.2 1 0.3 1.4 0 0-0.1 1-0.1 1.3 0 0.5-0.3 0.7-0.5 1-0.3 0.2 0.3 0.6 0.5 0.9 0.3 0.6 1.3 0 1.9 0.3 0.2 0.1 0.3 1.3 0.4 1.5 0.1 0.4 0 1.1-0.1 1.4-0.1 0.4 0.3 0.9 0.3 1.1-0.1 0.4 0.7 0.1 1.2 0.1q0 0 0.1 0c0.9 0.3 1.4 0.9 2.3 0.9 0.9 1.2-0.8 2.3 0.6 2.9 0.5 0.4 1.1-0.2 1.9 0.3 0.7 0.5 2.3-0.1 3-0.6 0.8-0.3 1.2-1.4 2.6-1.1 0.6-1.2 1.7-1.4 2.3-2.4 0.3-0.4 0.3-1.1 0.6-2 0.6-1.4-1.4-1.2-1.2-2.5-1.4 0.1 0.3 1.5-0.3 1.6 0.9 1 0.5 1-0.6 0.5-1.5-0.8-2.3 1.1-3.7 1-0.2-0.5 1.8-0.5 1.7-1.5 1.1-0.2 2.3-0.7 2.2-2.4-0.2-0.9-0.9-2.5-1.7-1.6-0.8 0-2.1 1.5-1.9 0.4 0.9-0.1 0.7-1.3 1.6-1.5-1.2-0.5-1.6 1.2-2.3 1.7-1.5 1-0.2-0.4 0.1-1.1 1-0.3 1.2-2 0.7-2.3 0.1-0.8 0.8-0.5 1.5 0.2-0.3-1 0.9-0.7 1-1.2-0.9-0.6-1.6 0.3-2.2-0.3-0.7-0.7-1.5-0.3-2.4-0.2-0.5 1.1-1.1 0.9-1 0-0.6 0-0.8-0.2-1.2-0.4-1.2 0.7-1.4 2.1-2 3 0.8 0.3 1.4 1.6 0.1 0.9-1.1-0.4-1.4 1.9-2.4 2-0.5 0-0.9 0.1-0.6-0.5 0.1-0.3 0.5-0.5 0.7-0.6q0 0.1 0 0.2c0.9-0.6 1-1.8 1.8-2.6 1.6-0.4-0.3-1.8 0.1-2 1.2 0.4 1.5-0.3 1.9-1.2 0.1-0.6 0.5-1.5 1.6-1.3 1.1-0.8 2.5-1.5 3.6-2.2 0.1-1.7 1.1 0.2 1 0.8-0.1 1.9 1.8-1.3 1.3 0.8 0.7-0.4 1.6-0.8 0.8-1.4-1.2 0.5 0.4-1.5 1-0.3 0.8-0.3 1.9 0.2 2.2-0.6 1.1 1 2.4-1.5 1-1.7 0.5-0.9 1.8 1.1 1-1.2-1.2-1.1 0-1.8 0.3-0.1 0.7 0.8 0.1 1.8 0.1 2.4 0.6 0.2 1-0.8 1.9-0.9 1.4-0.1 0.2-1.2 1.6-1.2 0.9-0.5 0.7-2.1 2-1.4 0.8-1.3 0.6-2.7 1.3-3.9-0.4 2.2 1 0 1.6-0.3 0.7-0.8 1.8-1.8 1.1-3.3 0.1-0.9 1.5-1.5 2.1-1.2-1.5 0.5-0.9 2.1-1 3.9 0 0.6-1.2 1.2-1.5 1.6-0.1 1.5-2.1 1.1-1.6 2.9-0.8 0.7-1.3 0.9-1.4 1.8-1.2 0.6-0.1 1.8-0.9 2.7 0.6 1 0.5 2.3 1.5 2.8 0.4 1.2 2.3 1.4 1.4 2.8 0.8 0.4 1.8 1.9 2.6 0.5 1.2 0.3-0.6 1.9 0.9 1.2 0.4 0 2.3-0.2 2.6 0.4-0.6 1.5 1.2 1.3 1.7 1.9 0.6-0.1 1.4-1.9 0.1-1.4-1.4-0.3 0.9-0.8 1.2-1.2 0-0.9 1.4-1.2 1.9-1.1-0.2 0.5-1.1 1.1-1.8 1.7 1 0.3 0.3 1.6 1.9 1.4 0.5 0.5 1.3 1.2 2.3 0.7 0.7 0.9 2.2 1.4 3.2 0.6 0.2-0.7-1.1-2 0.3-2.6 0.7-0.7 1.4-0.2 2.1 0.2 1-0.1 1.9-0.4 3-0.2 0.4-0.8 2.3-0.5 1.4-1.8-0.5-0.8-1.5 0.1-2.3-0.7-0.3-0.9-1.1-0.4-1.9-0.5-0.3-0.9-2.4-0.2-1-0.9 0.7-0.9 2.3 0.4 3.4-0.6 0.1 0.2 0.3 1.2 1.5 1.4 0.8 0.3 1.2 0.4 2 0.3 0.5 1.1 1.7-0.6 2.6 0.1 0.3-0.8 1.8 0.1 1.3 0.6 1.3 0.7-0.4-2.8 1-1.2 0 1.7 1.4 0.7 1.9 0.2 0.8 0.4 1.4 0.9 0.5 1.8-0.3 0.8 2 0.4 0.5 1.2-0.6-0.9-1.5 0.4-2.1-0.3-1.4-0.4-0.2 1.3 0.8 0.9 0.9 0.6 1.2 1.3 2 2 0 1.3 0.8 2.3 1.3 0.6 0.7-0.6 1.1-1.7 2.6-1.4 0.1-0.2 0.5 3.2-0.3 1.8-1-0.6-2 0.7-2.5 1.4 0.9 0.8 2.2 1.3 2.3 2.9 0.2 0.1 0.6 1.6 1.6 1.6 0.4 0.5 1.6 0.9 1.9 0 0.3-0.9 1.2-1.2 2.2-0.7 0.3 0.5 1.2 0.9 2.3 0.7 1.3-0.2 2.7-1.4 4.1-0.5 1.5 0.8 2.8 1.9 4.2 3.1 1.6 1 3.9 0.2 6.2 0.4 1.3-0.6 2.6-0.9 4.2-1 1.8 0.3 3.4 1.2 5 1.2 1.9 0.6 1.7-1.6 2.2-2.4 0.3-1.2 0.8-3.1-0.8-2.9-0.9-0.5-2.6-0.5-2.1-2.5 0.7-2.2 0.2-5.9 0.6-8.5-0.2-1.9 0.2-4-0.2-5.8 0.7-1.6 0.5-5 2.1-5.7 1.2 0.2 1.9 0.7 3.3 0.4 1 0.6 2.5 1.5 3-0.1 0.8-1.2 2.9-0.7 3.3-2 0.5-1 1.3-1.6 1.6-2.5 0-1.4 1.6-1.6 1.6-2.6-0.9-1.4 1-2.2 1.9-2.6 1.7-0.5-0.2-3 0.6-4.3-0.4-1.5-1.6-3.1-1.8-4.9-0.3-1.2-1.6-2-2.4-3 0.5-2.1-1.8-2.7-0.9-4.8 0.5-2.2-1.5-2.2-1.9-3.8 1.4-0.3 3.1-0.7 4.5-0.9 0.9-0.9 1-2.8 2.5-3.2 1.3-0.9 0.1-3.1 1.1-4.4 0.2-1.6-0.3-2.9-0.4-4.2-1.1-1.3-1-3.4 0.7-3.9 1.3-1 2.2-2.7 1.6-4.5 0.3-1.1 1.3-2.3 2.3-1.1 1.8 1 3.6 0 4.6-1 0.6-0.5 1.9-1.8 2.9-1.1 0.6 1 1.5 1.8 3.2 1.4 1.6 0 3.3-0.6 4.1-1.9-0.3-1.9 1.1-2.1 2.6-2.2 0.6-1.1 2.6-2.1 3.5-3.2-0.1-2.2 0.1-4.1 1.1-5.3-0.6-1-1.6-1.9-0.6-3.2 0.5-0.5 1.3-2 2.7-1.3 1-0.2 2.4 0.3 3.4 0.3 1.4-0.1 2.7 0.8 3.9-0.5 0.6-1-0.5-2.8 0.7-3.9 1-2.6-2.1-0.2-2.3-1.5-0.8-0.8-0.2-3.4-1.7-3.5-1.7-0.4-0.4-3.2 1.3-2.1 1.1 0.8 2.9 0.9 3.7-0.3 1.2-1.5 2.3-3.5 3.1-4.8-0.5-1-1.3-2-2.1-1.8-1.5 0.9-1-1.3-0.4-1.9-0.2-2.4 3.4-0.6 4.3-1.8 0.3-1.9 1.2-3.4 0.7-5.6-1.5-0.1-1.9-0.9-3-1.9 0.3-2.1-2-1.2-2.4-0.2-1 0.4-2.3-1.5-3.5-0.4-1.6-1.3-4.1-0.6-5.5-2.6-0.8-0.9-2 0.3-3.1 0.8-1.3 0.1-2.3-1.3-3.4-1.4zm-45.4 2.7c-1.1 0.9-0.6 2.1-1 2.9 0.7 0.5 1.4-1 1.9-1.7-0.2-0.6 0-1.2-0.9-1.2zm-11.3 0.3c-1.3 0.5-0.8 1.2-0.9 2 1-0.6 1 0.3 1.6 1.4 1.7 1.1 0.6-0.8 1.9-0.9-0.1-1-1.5 0.2-1.3-1.4 0.6-1.1-1-0.5-1.3-1.1zm-5.1 0.6c1.2 2.2-1-0.4-1.1 0.9-0.8-0.1-2.8-0.1-3.3 0.8-1.5-0.2-1.1 2-2.9 1.2-2-0.7-1.1 1.8-2.3 0.9-1.5-0.3-2 0.4-2.9-0.1-1.5-0.1-2.7 0.6-3.3 1.5 0.4 0.4-1 1.3-1.6 1.5 0 1-0.3 2.2 0.3 3.4-0.1 2 0.9 2.9 2.6 2.6 1.7-1.3-0.9-3.3 0.3-5.1-0.1-2.8 0.8-2.2 0.5-0.3 0.2 1.4 0.5 1.6-0.2 2.7 0.5 0.8 0.2 1.9 1.5 2 0.9 0.7 2.1 0.1 1.8-1.5 0.1-0.5 2.2-0.6 1.4 0-1 0.1-1.6 3-0.6 2.1 0 1.2 2.2 0 2.2 1.5 0.6-0.9 2.4-1.4 3.9-0.8 1-0.2 4.8 0.8 2.3 0.9-0.7-0.6-1.9-0.3-2.8-0.4-1.4-0.9-4.2 0.1-2.7 1.9-0.1 1.5 1.3 1.8 2.9 1.2 1.9 0.2 3.5-1.1 5.2-0.9 0.7 0.6 1.2 1.5 1.7 2.3-0.7 1.3 1.8 0.8 0.6-0.2 1.2-0.4 1.3 0.6 2.7 0 0.1-0.5 0.5-1.5-0.6-1.8-0.6-0.5-1.1-1.4 0-2.2 0.1-0.4 2.2-1.7-0.4-1.4-1.1-0.9 1.4-0.2 1.6-0.7 0.8-1.9-1.9-0.3-0.6-1.4 1-1-0.5-2-0.3-3.3-0.5-0.6-0.9-1.9-0.8-2.7-0.9-2-0.8 0.6-0.9 0.4-0.7-0.8-1-1.7-2.7-1.6 1.2-0.6 1.2-1.1-0.5-1-1.4-1.2 0.4-0.7-0.3-1.9 0-0.2-0.3-0.5-0.7-0.5zm12.9 0.9q0 0-0.1 0c-1.6 0-0.5 1.5 0.6 1.2 1.4 0.2 0-1.2-0.5-1.2zm4.1 1.6q-0.1 0-0.3 0.1c-0.8 1-1.2 1.8-0.5 2.7 1.2 0.4-0.2-1.7 0.8-1.6 0.2-0.2 0.4-1.2 0-1.2zm2.3 1.4q-0.2-0.1-0.5 0.1c-1.1 0.6-2 1.3-1.8 3.1 0.8-2 0.9-0.8 1 1.2 0.9 1 1.9 0.5 2.9 1 1.5 0.5 1.3-1.8 0.2-2.2-0.8-0.8-0.5-2.4-1.5-1.9-0.9 0.6 0.5-1.3-0.3-1.3zm-6.2 0.2c0.9 0.9-2.5 1.7-0.3 2.4 1 2 2.3 0.3 2.8-0.7-1-2.7-1.2-0.4-2.5-1.7zm-37 1.4c-0.2 0.3-0.4 2.3-1 1-1.1-0.9-0.3 1.1-0.2 1.2 0.3 0.5-1.1 1.5-0.5 2.2 1.2 0.3 1.6 1.5 2.7 1.5 1.2-0.3 1.4 1.1 2.3 0.1-0.3 1.3 1.5 1.3 2.6 1.1-0.4-0.8-1.1-2.2-0.3-3.1-0.1-1.1-1.2-1.9-2-0.9-0.3 0.5-0.5 4-1.3 1.9-0.2-1.1-1.1-1.5-1.9-2.2-0.7-1.6 0.1-1.3 0.6-0.1 0.9 0.5 1.7 1.3 1.4 0.1-0.6-1.1 1.2-0.7 1.1-0.1 0.5-1 2-0.7 0.7-1.5-1.4-0.2-1.8-0.8-3.2-0.9 0-0.3-0.7-0.3-1-0.3zm37.9 6.6c0.8 1-0.5 3 0.6 2.4 0.2 0.9 1.2-0.1 2.1 0.8 0.9-0.3-0.2-2.2-0.8-2.7-0.5-0.6-1.4-0.2-1.9-0.5zm-38.5 0.3c0.1 0.7 0.3 1.8 0 2.3 0.1 1.3-0.6 3.1 0.5 4.1 0.5 1 1.5 1.2 1.8 2.1 1.2 0.2 1.8 1.6 2.9 1.3 0-1.4-0.9-2.3-1.6-3.3-0.4-1.4 1.5 0.7 1.5 1.4 1.3-0.6-0.1-2-0.3-2.6-1.2-1.1 1.3-0.2 0.6-1.7 1.5-0.4-0.1 1.9 1.3 2.6 0.1 0.7-1.6 2.2-0.5 3.5 1 0 0.5 1.5 1.3 2 1.1 0.8 1.6-1.8 1.8-2.8-0.5-0.7 0.1-1.9-1.2-1.9-1.6 0.4-0.7-0.6 0.1-0.3 0.7-0.1 1.3-1 0.9-2.2-0.3-1.5-1.7-0.9-2.4-1.2 0.1-1-0.5-0.7-1.5-1.2-0.5 0.3-1.6-0.3-1.9-1-0.5-1.1-1.5-0.9-2.3-0.8-0.4 0-0.6 0.2-1-0.3zm-5.4 0.3c-0.8 0.6-1 2.2-2.1 2.4 0 1.4 0.8 2.1 1.5 2.4 1.2-0.1 0.8-1.6 1.7-1.6 0.1-0.9 0.5-3-0.1-2.9-0.3-0.4-0.7 0-1-0.3zm20.3 1.4c-0.8 0.9-2 1.1-3.2 1.5 0.6 1-2.1-0.1-1.1 1.9-0.2 0.8 0.7 1.9 1 2.9 1 0 1.5 1.9 0.7 1.1-0.5 1.1 1.2 1 1 1.9 0.9 0.5 0.1-1.2-0.3-1.6 0.1-2.4 0.2 0.4 1.6 0.9 1.1-0.3 2 0.8 3 1.2 1.1 0.3 2.3 0.5 3.3 0.4 1 0.3 2.2-0.5 2.2-0.9 1-0.8 2.2-0.5 3.2 0.2 0.9-0.3 1.3-1 1.2-2 0.7-1.1-1.1-1.8-0.7-3-0.5-1-0.6-1.5-1.6-1.7-0.6-0.2-2.3-0.2-2.7 0.6-1.6-0.5-3.6 1-4.9 0.2-0.9-1.2-0.9-2.7-2-3.6h-0.4zm22.4 1.3c0.1 1.4-1.2 1.2-1.5 2.4 1.2 1.4-0.9 0.3-0.4 1.7 1.3-0.3 1.4 0.4 2-0.4 0.9-0.3 2.2-0.6 2.5-1.9 0.4-1.5-1.8-1.2-2.6-1.8zm7.1 2.6c-0.8 0.1-2.6 1.1-0.8 1.1-0.5 0.9-1.7 1.4 0.2 1.8 1.1-0.3 1.3-1.4 2.4-1.5 1.3-1.8-0.2-0.9-1.6-1.4q-0.1 0-0.2 0zm-4.1 0.5c-1.2 1.1 0.4 1.9 0.9 0.6 0.6-0.5-0.9-0.4-0.9-0.6zm-48.7 1.3c0.5 1.1 2.1 1.6-0.1 0.9 2 0.9-0.9 1.1 1.3 1.4 1.6-1.1-0.4-2.1-1.2-2.3zm47 0c-0.8 0.9-3-0.3-3.2 1.5 0.4 2.2 1.7 1 3.1 0.9 1.7 1 2.4-0.5 2.7-1.5-1.2-0.4-1.5-0.7-2.6-0.9zm-38.7 0.3q-0.1 0-0.2 0c-1 0.9-2.6 0.3-3.6 1.2-0.5 0.1-1.8 1-1.5 2 0.3 1 1.4 1.2 2.2 1.8 0.5 1 1.6 1.7 3 1.8 1.3 0.5 2 1.8 3.8 1.5 0.9 0.2 3-0.4 2-1.8-1.2-0.2-0.8-2.4-1.9-2.7 0.4-1.9-0.6-1.5-0.9-2.4-0.9-0.4-1.5-0.7-2-1.2-0.4 0.1-0.6-0.2-0.9-0.2zm9.9 1.8c0.4 1-0.9 1.2-1.2 2.4-1 1.1 0.3 1.8 1.3 1.3 0.6-0.5 2.4-0.6 1.9-1.7-0.8-0.4-1-1.7-2-2zm-5.5 0.6c0.1 1.4 1.1 2.1 1.6 3.4 0.9 0.2 0.9 2.2 1.8 0.6-0.5-0.7-0.5-2.5-1.4-2.3 0.1-1.7-0.8-1.4-2-1.7zm-13.1 0.3c-1.1 0.6-1.3 1.1 0.5 1.5 1.6 1-0.2-1.5-0.5-1.5zm23.6 0.2c-1.4 0.6 0.2 0.8-0.7 1.6-0.6 1 0.5 1.1 1.1 2 1.5 0.1 1.9-1 2.6-1.8-0.7-0.6-1.2-1.1-2.6-1.5 0-0.3-0.5 0.1-0.4-0.3zm11 1.1q-0.2 0-0.3 0.1c-1 0.1-1.5 1-2.8 0.6-0.9 0.1-2-0.2-3.1 0.3-0.8 0.2-3.3 0.9-1.5 1.1-0.3 0.5-3.5 0.8-1 1.2 1.1 0.4 1.7 0.3 2.9 0.6 1.3-0.1 1.3 1.8 2.6 1.3 2.9 0 0-1.5-0.3-1.3 0.9-1 2 0.2 2.9-0.6 1.6 0.8 1.5-1.6 1.3-2.3 0.7-0.4 0-1-0.7-1zm-14.2 2.4c-1.3 0.5-1.4 0.7-0.5 1.8 0.5 0.8 1.5-1.7 0.7-1.8zm20.2 1c-0.9 1-1 1.4-1 2.4-1.4-0.2-0.4 2.2-2.1 2.1-0.2 1.1-0.8 1.4-1 3.3 0.8 1-1.2 1.5-0.1 2.3-0.2 0.8-0.9 0.9-0.6 2.8-0.7 2 0.5 1.8 0.9 2.4 1.1-0.2 1.3 1.3 2.7 0.9 0.8 0.7 1.4 2 2.2 2.4 0.5 0.8 1.2 1.7 1.6 1.8 0.4-0.4 1.7-1.4 1.8-2.4-0.3-1.8 0.7-2.5-0.4-3.8-1.1-0.6-1.1-0.9-2.1-1.5-0.7 0.1-2.2-2.6-0.2-1 0.8 1.8 1.8-0.1 2.4 0.2 0.3 1 2 1.1 1.1-0.4-1.1-1.5-0.9-0.7-0.5-2.1-0.5-0.7 0.2-1.7 0-2.1 0-1.9-0.2-1.2 0.6-2.8 0.9-0.8 0.3-3.4-1-3.4-0.4-1.2-1.4 0.1-2.4-0.3-0.3-0.7-1.3-0.3-1.9-0.8zm-15.3 0.5c-0.2 0.7-2.5 0.7-0.9 1.3 1.4 0.2 1.9 0.1 3 0.5 1.6 0.6-2.2-0.4-3.4-0.2-0.1 1.4-1.3 1.5-1.3 2.6-0.7 1.3 0.7 0.9 1 1.8 0.1-0.1-2.8 0.1-2.3 0.8-1.2 0.9 1.8 1.4-0.1 1.6-0.1 1 1 2.7 1.7 1.5-1.4-0.3 0.8-0.6 0.4-1.3-1.2 0.2 1.1-1.9 1-0.8 0.9-1.1 0.6-1 0.3-1.6 0.9-0.1 2.9-0.6 3.9-1.1 2.1 0.3 0.7 0.1-0.4 0.6-1.7 0.6 1.8 0.9 2.3 1.1 0.4-0.6 1.8-2.6 1.1-0.7-0.5 0.9-1.5 1.1-0.4 2.3 1.1-0.8 1.8 0.8 2.7 0 0.2-1.6 0.9-2.6 1.5-3.7 0.2-1.1 1-2.2 0.4-3.1-0.4 0-1.5-0.1-2.3-0.1-0.5 1.7-1.3 1.1-2.2 0.6-0.7 0.3-1.9-0.1-2.8 0.6 1.3-0.9 0.6-2-0.9-1.8-1.1 0-1.6-0.6-2.3-0.9zm-18.6 1.9c-0.6 1.2-3.2 0.3-2.7 2.4-0.8 1.2-0.4 2.5-1.3 2.9 1.7 0-0.5 0.6-0.2 1.5 0.7 0.7 0.9 1.7 1.9 2-0.2 1.5 2.1 2.4 2 0.5 0.1-1-0.6-2.2-0.4-3.1 0.6-1.2 0.7-2 1.3-3 0.6-0.6 1.6-2.2 0.9-2.9-0.6 0.1-0.9-0.2-1.5-0.3zm2.9 0.8c-1.1 0.7-1 2.5-1.9 3-0.5 1.4-0.6 2.4-0.8 3.8 0.1 1.1-0.1 3.1 1.5 2.2 0.6 1-0.7 1-1.8 1.3-1.1-0.3-1.1 0.8-0.2 1.8 1.5 0.5 1.3 0.7 1.6 2.2 1.2 1.4-1.8 1.9-0.4 3.4-0.9 0.1-2.5-0.1-1 1.2 0.6 1.3 0.7 2.1 2.4 1.2 1.6-0.1 2.9-0.3 3.5-1.4-0.5-0.5-3.8-0.7-1.9-1.2 1.1 0.5 3.9 0.6 3.6-1.5-1.3-0.1-3.3 0.7-4.6-0.4-1.5-1.2 1.7 0.4 2 0 2.3 0.5-0.3-2.1 1.3-1.1 0.5-0.8 1.9 0.3 3.3 0 1.8-0.1 2-1.4 1.9-1.5 0.7-0.7 1-3 0.4-3.3 1-1.2-1.3-1.6-0.8-2.5-1.5-0.3-3.3 0.5-4.6 0.8-1.6 0.7 0.2-1.1 1.2-0.8 0.9-1.1-1.1-0.5-1.4-0.3-3.3 0.2 0.5-0.8 1.4-1 0.7 0.9 1.5 0.8 2.9 0.4 0.3-0.9-1.4-1.2-1.3-2.4-0.6-2-0.9 0-2.2 0.2-2.8 0.4-1.9-0.5-0.1-0.6 1.2-0.5 1.8-1.4 0.9-2.3-1.4 0.3-1.9-1.3-3.3-1.1-1.4 1.2-0.2 0.1-1.6-0.1zm7.2 1.2c-0.7 1 0.3 2.2 0.9 3 1.1 0.3 1 1 1.4 1.7 1.2 1.9 0.6-1.6 0.1-2-0.8-1.9 0.5 1.9-0.4 0.8-0.6-1.3-0.1-2.1-1.3-2.7-0.1-0.5-0.5-0.6-0.7-0.8zm10.7 3.5c-0.8 0.7-1.7 0.4-2.3 1-1.2 0.6-1.1 1.7-2.1 2.1-0.5 1.1-0.2 1.4 0.3 2 1.2 1.4 0.3 4.2 1.9 5.3 0.1 1.3 2.7 0.6 3.5 0.8 1.6 0 1.5-2 3.1-1.2 0.2 0.1-0.2-2.2 0-2.9 1.1-0.7 0.1-2.3 0.7-3.3-0.1-0.4-1-1.3-1.3-2-1.5 0.7-1.7-1.6-3.6-0.8-0.3-0.6 0.8-0.9-0.2-1zm-5.1 3c-0.5 0.2 0.2 0.3 0 0zm-19.4 0.8q-0.3 0-0.6 0.1c-0.4 1-1.1 0.7-2 1.4-0.9 1-2.5 1.5-2.1 3.4-0.8 0.4-0.7 2.4-0.9 2.9 0 1.3 0 1.9 0.5 3 0.8 0.5 1.8 1.2 2-0.3 0.9-1.1 0.9-0.7 0.6 0.3-1.4 1 0.8 1 1.8 0.2 0.3-1.4 1.1-2.7 1.2-3.5 0.9-1.3 0.4-1.7-0.6-0.9 0.8-0.9-0.4-1.4 0.4-2 0.1-1.1 1-1.9 1.1-3.1-0.2-1-0.3-1.6-1.4-1.5zm-12.8 2.2c-0.8 1.6 0.4 1.1 1.1 1.7 0.6 0.1 3.2 0.1 1.4-0.6-0.3-0.8-1.6-0.9-2.5-1.1zm14.6 0.6c-0.7 0.9-0.6 2.2-0.1 3.5 0.1-1.2 1.8-1.1 1.6-2.1 0.2-0.3-1.1-0.9-1.5-1.4zm30.4 0.9c0 0.5 0.2 1.8 0.8 2.5-0.3 0.8 0.9 1.8 1.3 2.5 0.8 0.7 2.1 1.2 2.4-0.3-0.9-0.9 1.3-0.1-0.1-1.3 0-0.2-2.4-1-0.9-1.3-0.7-0.4-1.7-2-2.2-1-1.5 0-0.1-1-1.3-1.1zm-44.9 0.2c-1.2 0-1.1 1.3-0.7 2.1 1.3 0 1.7 1.5 3.1 1.4 0.6 0.8 1.3 1.2 2.2 1.8 1.1-0.3 0.1-1.7-0.2-2.6-0.9-0.2-0.4-1.5-1.5-1.8-0.6-0.8-2.2-0.3-2.9-0.9zm-2.9 0.1q-0.1 0-0.1 0c-0.3 1.1-1.8 0.4-0.5 1.4 0.9 1.3 1.7 0 1-0.9 0.1-0.3-0.2-0.5-0.4-0.5zm19.5 1.3c-1.3 0-1.5 1.5-2.1 2.2 1.1 1.2 1.6 0.6 2.3-0.1-0.2-0.8 1.1-2.1-0.2-2.1zm8.6 1.9c-1.2 0.8-0.2 2.9-2 2.9-0.7 1 0.1 3.2 1.6 3 0.4 1.6 1.1 0.5 2.4 0.3 0.5-0.7 2.4-0.6 3.5-0.8 1.6 0 1.1-0.8 0.4-1.9 0.4-1.1-1.1-1.3-2.3-1.1-1.6 0.5-0.7 1.8-2.2 0.6-1.6 0.4-2.7 0.2-0.5-0.4 0.7-1.1 1.5-0.2 2-1.1 0.3-1.2-1.5-1.1-2.6-1.5zm-11.3 1.1c0.5 1-2.2 2 0.2 1.9 0.7-0.8 1.6-1.7-0.2-1.9zm22.4 0.1q-0.3 0-0.7 0c-0.4 0.3 0 1.4-0.3 2.4 1.3 0.6-1.1 2.7-0.3 1.2 0.6-1.5-0.7-2.2-1.4-0.7-1.3 0.8-0.4 1.9 0.6 2.2 1.1 2.1 1.1-2.1 1.6 0.4-0.8 1.6 0.2 1.5 1 0.7 1.6-0.7-0.6 0.6-0.8 1.5 0.4 0.9 0.9 1.4 0.8 2.6 0.8 1 0.4 2 1.5 1.3 0.7-0.7 0.6-1.9 1.1-3 1-1.1-0.5-2.4 0.2-3 1-1.4-0.9-2.1-0.5-2.9 0.7-0.6 1.8-1.6 2.7-1.8 0.1-0.7-1.1-0.9-1.7-0.4-1.8 0.4-2.5-0.4-3.8-0.5zm7.4 1.4c-0.8 0.7-1.1 0.9-1.2 1.3-1.2-0.3-1.3 2.7-0.1 1.7 1.2-0.3 2.2-1.3 1.6-0.2-1.1 0.5-2 1-2.5 2.1 1.1 0.4 3 0.3 3.1-1.4 0.7-0.9 2.5-0.5 2.1-1.7-0.8-0.5-1.3-2-2.1-1.7-1.6 1.2-0.6 0.3-0.9-0.1zm-28.7 0.6q0-0.1-0.1 0c-1.4 0-2.3 0.9-2.5 2.2-1.4 0.9 0.4 1.6 1 1.8 1.3 0.9 3.3 0.5 3.3-1.3-0.6-1.1-0.9-2-1.4-2.4 0-0.2-0.1-0.3-0.3-0.3zm6.7 0.9q-0.1 0-0.2 0.1c-0.4 1.2-2.6 0.4-3.6 1.4 1.4 1 2.5-0.1 3.7-0.5 0.4 0.4 0.5-1 0.1-1zm27.3 0.6c-0.7 0.8-2.7 0.9-2 2.7-0.6 0.6-2 1.3-2.6 0.7-1 0-2.2-0.1-2 1.4-1.7 0.4-1.4 1.7-1.7 3.2-1.4 0.4-1.2 1.7-0.2 1 0.1 0.9 0.2 2.4 1.4 2.7 0.9-0.5 2.3-0.5 3.1-0.7 0.3-0.9 1.2-2.7-0.4-2.6-1.4-1.7 1 0.4 1.5-0.7 0-1 2.2-2.5 0-2-1.4-0.9-0.5-0.8 0.7-0.6 1.1-0.4 2.5-0.4 3.5-0.4 0.8 0.8 0.1 1.3 1.6 0.7 0.7-1.2-0.9-0.4-1-2.3 1-1.3-0.7-2.2-0.7-2.8-0.1-0.3-0.8-0.3-1.2-0.3zm-14.1 4.8c-0.9 0.3-2 0.3-3 0.9-0.1 0.8 1.7 0.7 2.7 1.2-0.4-0.7 1.7-1 0.6-1.9v-0.2zm13.5 0.3c-0.4 1.1-1.1 1.8-1.7 2.9-0.2 1.3-1.3 2.2-0.9 3.6-0.1 1.1 1.8 0.9 2.6 1.1 0.7 0.8 1.7 0.8 2.8 1.2 1.2-0.6 0.8-1.7 0.5-2.7-0.6-1.1-0.1-4.3 0.2-3.5 0.3-1.6-1.7-1.2-2.5-0.9 0.8 0.6-1 1-1.1 1.9-1.6 0.8-0.1-1.7 0.5-1.8 0.2-1.1 1.4-1.1-0.4-1.8zm-10.9 4.5c0.5 1.3 0.6 2 0.8 2.9 1.3 1.7 1.3-1.1 0.8-1.8-0.1-1-0.9-1-1.6-1.1zm4.9 2.5c-1.8-0.1-1.1 2.4-1.3 3.3-0.5 1.7-0.5 2.6 1.1 2.5 1.1 0 1.5 1 2.2 1.7-0.4 1.9 1.9 0.3 3.2 1.2 2.7 0.4-2 0.5-2.4 0.9-1 1.1 1.6 0.8 1.6 1.8 1.1-0.3 2.1 2 2.6 0.9 0.7-0.6 1.8-1.7 1-2.8-1.9-1.5 2 0.9 0.9-1.3 0.3-1 1-1.7 1.3-2.5 1.3-1.5-1.3-1.2-1.4-2.4-1.5 1.1-1.5-2-2.9-1.1-0.6 1.3-1.1 2.1-0.9 0.2 0-0.6-2.1-0.5-2.3-1.8-0.4-1-1.4 0.1-2.3-0.5q-0.2 0-0.4-0.1zm-1.7 6.4q-0.1 0-0.3 0c-0.5 1.1-0.9 2.3 0.5 1.8 0.5 0.9 2.5-0.2 1.9-1.3-0.8 0.1-1.2-0.6-2.1-0.5zm-55.1 40.2q-0.1 0-0.1 0c-0.3 0.8 1 1.5 1.8 2 0.8-0.1 2.1 2 1.8 0 0.1-1.3-1.7-1.3-2.9-1.8-0.3 0.2-0.4-0.3-0.6-0.2zm0.1 2.3c-1.5 0.4 0.5 1.2 0.8 1.9 1 0.5 1.5 1.8 2.8 1.4 0.6-0.1-0.4-1.2-0.1-1.8-0.9-0.7-2-1.3-3.1-1.5zm22.9 5.4c-1.5 0.5 0.9 0.9 1.4 1.4 0.8 0.2 0 2.3 1.5 1.6 0.8-0.7 2-1.6 2.4-0.1 0.9 0.9 2.5 0.5 3.9 0.7 0.8 0 2.7 1.2 2.9 0.2 1-1.1 2 0.4 2.7-0.8 1.6-1.4-0.6-1.3-1.7-0.9-1.1 0.9 0-1.5-1.7-0.7-1.8 0.4-2-1.3-3.9-1.2-0.9 0-1.9 0.4-3 0.7-1.4 0.5-2.3 0.2-3.2-0.4-0.1-0.4-1-0.4-1.3-0.5z"/>
		<path id="map_aysen_Lago_Rio_Ibanez" fill-rule="evenodd" class="map-aysen s1" data-siglaregion="AI" data-sigla="Río Ibáñez" data-nombre="rio_ibanez" d="m133.8 142c-0.6 0.4-1.2 0.9-1.9 1.1-1 0-1.2-0.7-2.2-0.7-1-0.3-1.6 0.7-2.2 1.1-0.5 0.4-1.4 0.6-2 0.5-0.5-0.6-1.3-0.5-2.1-0.3-0.6-0.6-1.7-0.6-2-0.6-0.9-0.2-1.6 0-2.2 0.6-0.3 0.2-2.1-0.5-1.3 0.6 0.7 0.4 0 1.5 0.5 2.1 0.2 0.6 0.4 1.6 0 2.2-0.1 0.9-0.6 1.5-0.5 2.5 0.4 0.6-0.1 1.7-0.7 1.9-0.6 0.4-1.1 1.1-1.4 1.5-0.3 0.7-0.4 1.8-1.2 1.7-0.6 0.2-1.5 0.3-2.2 0.6-0.7 0-2.2-0.1-1.9 0.7 0.4 0.8 1.2 1 1.5 1.7 0.6 0.4 0.2 1.7 0.2 2.5-0.3 1 0.4 1.6 0.8 2.1 0.4 0.7-0.2 2.1 0.6 2.4 0.5 0.6 1.2 0.9 1.5 1.6 0.4 0.6 0.5 1.2 0.8 2 0 0.7 0.5 1.3 0.7 2.1 0.3 0.7 0.9 1.1 0.7 2.1-0.4 0.6 0 1.9 0.2 2.4 0.2 1.1-0.4 1.7-1.2 1.7-0.7 0.4-1.1 0.7-1.7 1.3-0.1 1 1 1.5-0.3 2-0.6 0.4-0.7 1-1 1.8-0.3 0.7 1.4 0.2 1.8-0.1 0.7-0.4 1.4-0.6 2.3-0.5 0.6 0.4 0.5 1.3 1.1 1.8 0.7 0.1 1.5 0.3 1.3 1.5 0.4 0.6 1.1 0.9 1.7 1.2 0.7 0.2 0.6 1.5 1.5 1.6 0.8-0.1 1.4 0.3 1.8 0.9 1 0.2 1.8-0.4 2.6-0.1 0.7 0.5 1.3 0.4 2.1 0.1 0.8-0.1 1.4-0.4 2-0.8 0.3-0.5 0.8-0.9 1.1-1.7 0.4-0.8 1.3-0.8 2.3-0.7 0.8 0.2 1.1 0.7 2.1 0.6 0.8 0.1 1.7 0.4 2.4 0q1.5 0.1 2.1-0.6c0.8-0.1 1.1-1.2 1.6-1.4 0.4-0.4 0.8-1.1 1.3-1.6 0.4-0.7 0.9-1.4 1.6-1.7 0.7-0.4 1.1-0.7 1.9-0.9 0.6-0.3 1.4-0.4 1.9-0.9 0.7-0.4 1.2-1 1.9-0.6 0.9 0.2 1.5 0.4 2.5 0.3 0.8 0.1 1.4-0.5 2.1-0.6 0.4-0.5 1.1-0.7 1.5-1.2 0.7-0.3 1.1-1 1.7-1.3 0.6-0.6 1.1-0.7 1.7-1.3 0.5-0.3 1-0.9 1.7-1 0.4-0.4 1.1-0.8 1.9-1q1.8 0 3.7 0c0.6-0.4 1.7-0.2 2.6-0.2 0.8 0 2.4 0 1.4-1.1-0.3-1.5-1-2.9-1.3-4.4 0.8-1.2 1.4-2.6 1.3-4.1-0.7-1-0.5-2.4-1.3-3.4-0.8-0.4-0.4-1.7-1.3-1.8-0.9 0.6-1.5 0.2-2.4 0-1-0.2-0.8-1.5-0.8-2.2-0.3 0.1-2 0.7-1.7-0.6-0.2-0.8-1.5-0.5-2.1-1.1-1.1-0.3-2.1-1.2-2.3-2.3-0.2-1-1.3-0.7-1.8-1.2-0.1-0.8-0.5-1.8-1.4-1.7-0.7 0.4-1.7 0.1-2.3-0.4-0.5-0.2-1.4-0.1-2.2-0.2-0.9-0.1-1.2 0.6-2.1 0.6-0.5 0.4-1.7 0.3-2.2 0-1-0.2-1 0.8-1.4 1.3-0.2 1-1.2-0.2-1.2-0.7-0.3-0.8-0.4-1.4-1.3-1.5-0.8-0.4-1.1 0.4-1.4 1-0.2 0.9-0.9 1.4-1.7 1-0.6-0.3-1.3-0.8-1.8-0.1-0.3 0.7-1.7 0.3-1.4-0.7 0-1.2-0.1-2.4 0.1-3.5 0.2-1.1-0.9-1.5-1.7-1.6-0.5-0.4-1.4-0.6-1.7-1.3-0.2-0.8-0.3-1.2-1.3-1z"/>
		<path id="map_aysen_Lago_Chile_Chico" fill-rule="evenodd" class="map-aysen s1" data-siglaregion="AI" data-sigla="chile_chico" data-nombre="Chile Chico" d="m172.8 172.8c-1.4 0.3-2.9 0-4.3 0.3-0.8 0.4-2.1 0-3.1 0.1-0.9-0.1-1.6 0.4-2.2 0.7-0.5 0.3-1.2 0.7-1.7 1.1-0.6 0.4-1 0.9-1.6 1.1-0.5 0.6-1.3 1-1.6 1.5-0.7 0.3-1.1 0.8-1.8 1.1-0.4 0.5-1.3 0.6-1.9 0.9-1 0-1.9 0-2.7-0.3-0.8-0.4-1.2 0.2-2 0.4-0.6 0.6-1.1 0.9-1.9 0.9-0.6 0.4-1.2 0.7-1.8 1-0.8 0.3-1.3 0.9-1.8 1.6-0.4 0.6-0.8 1.4-1.3 1.7-0.3 0.4-0.8 1.2-1.4 1.5-0.6 0.3-1.3 0.7-2.4 0.6-0.9 0.5-2-0.2-3 0-0.6-0.3-1.2-0.8-2.3-0.6-0.8-0.2-1.4 0.7-1.7 1.2-0.3 0.8-0.8 0.9-1.3 1.5-0.6 0.4-1.4 0.4-2.1 0.6-0.9 0.6-1.3-0.6-2.3-0.3-0.6 0.3-2.1 0.4-2.3-0.4-0.6-0.5-1.5 0-2.1-0.8 0-0.9-0.8-1.1-1.4-1.5-0.9-0.1-0.9-0.9-1.1-1.7-0.2-0.7-1.7-0.3-1.8-1.5 0-0.9-1-1.1-1.8-0.8-0.6 0.2-1.3 0.6-1.9 0.8-1.1-0.2-1.6 0.6-1.9 1.2-0.3 0.8-0.6 1.3-1.3 1.5-0.4 0.7-1.4 0.5-2.2 0.8-0.4 0.7-0.8 1.6-1.6 1.5-0.8 0-1.4-0.9-2.3-0.8-0.9 0.3-1.5-0.1-2.2-0.3-0.8-0.5-1.4 0.4-1.6 0.9-0.3 0.8-0.3 1.7-0.6 2.5-0.1 1-0.3 1.8-0.5 2.6 0.3 0.9 0.1 1.6 0.2 2.6 0.2 1-0.4 2 0 3-0.1 1-0.2 2-0.2 3.2 0 1.2-0.3 2.5 0 3.7-0.2 0.9-0.5 1.4-0.4 2.6 0.3 0.9 1.1 0.8 1.6 1.1 0.6 0.2 1.8 0.2 1.6 1.1 0 0.9-0.1 1.8-0.6 2.3 0.4 0.8-0.8 2.1-0.2 2.1q2.7 0 5.4 0c0.7-0.4 1.8-0.5 2.3 0 1.1-0.2 1.5-0.2 1.9 0.7 0.3 0.8 1.5 0.6 2.4 0.6 0.4-0.6-0.1-1.5 0.9-1.6 0.4-0.3 0.5-2 1.2-1.4 0.6 0.4 1.6 1 2.1 0.3 0.6-0.3 1.5-0.4 2.3-0.6 0.9 0.1 1.5-0.6 2.5-0.4 1-0.8 1.7 0.6 1.1 1.3-0.2 1.1 0.4 2 1 1.1 0.4-0.6 1.2-0.9 1.8-1.2 0.8 0 1.4-0.5 2.4-0.5 0.7-0.2 1.4-0.4 2.2-0.4 0.7-0.4 1.9 0 2.4-0.5 0.8-0.1 0.9-1.4 1.5-1.5 0.7-0.2 1.7-0.5 1.1-1.4-0.2-0.9-0.3-2.1 0.3-2.8 0.3-0.5 0.8-1.1 0.9-2-0.6-0.7 0.6-1.6 1-0.9 0.6 0.6 1.9 0 2.3 0.9 0.6 0.6 0.4 1.4 1.3 1.8 0.8 0.3 1.4-0.2 2.2-0.1 0.6-0.3 1.2-0.7 1.5-1.4 0.1-0.7 0.3-1.4 0.6-2.1q0.8-0.9 1.9-1.2c0.6-0.5 1.4-0.7 2-0.9 0.6-0.5 1.2-0.9 2.2-0.8 0.8-0.1 1.2 0.8 1.4 1.4 0.7 0.7 1.2 1.2 1.3 2 0 0.9 0.7 1.6 1.5 1.6 1-0.1 1.7 0.3 2.2 0.6 1 0.6 2.3 0.7 3.5 0.6 0.2-0.7 0.7-1.6 0.1-2.6-0.7-0.9-0.5-1.7 0.3-2.5 0.7-0.9 0.9-1.9 0.7-3 0.2-1.1-1.5-1.4-0.1-2.2 1.2-0.3 2.3-0.4 3.4-0.3 1-0.1 1.6-1 2.4-1.5 1.5-0.6 2-2.5 3.3-3.3 0.7-0.7 1.3-1.3 2.3-1.6 1.1-0.6 0-1.9 0.4-2.8 0.4-1.2-1.3-1.9-0.6-3.1 0-1.2 0.2-2.3-0.4-3.3 0.2-1.1 0.2-2.1-0.3-3.2-0.7-1.2-0.8-2.7-1.3-4.1z"/>
		<path id="map_aysen_Lago_Tortel" fill-rule="evenodd" class="map-aysen s1" data-siglaregion="AI" data-sigla="tortel" data-nombre="Tortel" d="m79.2 211c-1.4 0.6-2.4 1.1-4.1 0.9-1.3-0.3-0.4 1.5 0.7 0.9 1.2 0.1 1.7 0.5 1.3 1.8 0.9 1-1.2 1.2-1.1 2.3-0.9 0.5-0.7 2-1.4 2.9-0.8 0.4-1.6 2.5-0.8 3 0.9-0.1 2.7-0.7 1.9 0.7 0.2 1.3 0.8 1.9 1.4 2.4 0.8-0.9 1.6-0.2 0.5 0.4-1.1 1.5-1.6 0.2-1.8-0.8-1.1-0.5-0.4-2.6-2-1.5-1 0.3-0.5 2.3-0.1 3.2-1.1 0.9-1.1-2.4-0.7-2.9-0.2-0.8-1.7-0.6-1.9 0.4-1.4 0.6-1.7 1.3-1 2.8-0.3 0.8 0.4 2.5 1.1 3 1.3-0.3 1.9 0.9 0.5 0.4-1.3-0.9-1.3 0.5-0.2 0.6 1.1-0.1 2.5-0.2 1.9 1.2 1.3-0.6 1.3 0 1.9 0.3 1.5-0.6 1 1-0.3 0.6-0.6-0.6-2.2 0.2-1.9-1-0.2-1.4-2-0.8-1.9 0.1-0.2 1 0.5 2.2 1.6 2.3 0 2-1.1 2.6-0.6 0.5-0.7-0.6-1.7-0.8-1.7-2.2 0.2-1.7-2.2 0.4-1.7-0.9 1.1 0.1 2-1 1-1.5 0.2-0.6 0.4-1.2-0.3-2.4-0.1-0.8 0.1-2.8-1.4-2.6-0.7-0.6-1.8 0.1-2.8-0.1-0.3 2.1 1.9 0 1 2.2-0.9 1.3 1.1 1.7 0.2 3.1-0.9 0.4-0.6 2.4-0.3 3.5 0.4 0.7 1.2 0.9 2 1.6-0.3 1.1-1.4-1.3-2.1-0.3-0.6-0.9-0.7-2.2-0.8-3.5 0.1-0.9 1.4-2.3 0.2-3-0.1-1.1 0-2.9-1.2-3-0.1-1.1-2.4 0.6-0.7 0.6 1.6 0.3-0.1 1.5 0 2.4-0.8 2.1-1 0.9-0.4-0.4 0.1-1.1-0.2-1.8-1-2.1-0.8-0.1-1 2-1.5 2.7-0.8 0.5-0.9 1.9-1.8 2.5-1.2 0.1-1.7 0.1-1.6 1.7 0.8 1-0.8 1.7-1 2.6-0.7 0.2-1.6 1.5-1.3 1.9 0.2 1.9-1 1.2-1.3 2.2 0.2 1.1 0.1 1.5 0.8 2.1 0 2 1.8-0.1 0.5-0.3 0.8-0.9 1.5-1.2 1.4-2.8 0.7 0.6 0 2 1.3 1.9 0.2 1 1.2-0.4 2 0 0.6 0.8 1.2 0.1 2 0 0.3-1.7 1.5-2.4 2.3-3.2 0.9-0.7-0.1 1.6 1.5 0.3-0.7 1-2.1 1-2.5 2.2-0.7 1-1.5 2.2-3.1 1.9-0.5-0.4-1.5-0.4-2.3 0.1-0.9-0.8-1 1-1.3 1.5 0.6 0.4 1.9 0.5 1.7 1.5 0.4 0.9 1.7 0.8 2.3 1.2 1.7 0.1 0.1-0.9 0-1.5-1.1 0.5-2.2 0.1-0.6-0.4 0.7-0.9 1.2 1.1 2.3 0.6 0.8-0.7 1.8 0.2 2.5-0.6 0.9-0.7 1.5-1.2 2.7-1.4 0.4 0 2.1 0.7 2-0.9 0.6 0 2-1.3 2.3-0.7-0.7 0.7-1.8 1-2.1 1.9-0.6 1.8-3.3-0.3-3.9 1.2-0.9 1-2.4 0.6-3.5 1.8-0.8 1 0.6 2.3 0.6 3.3 0.6 1.1 2 0.5 2.3-0.2 1 0.2 1.4-1.2 2.5-0.6 0.5 0.6 2.6 0.4 2.7-0.8 0.5-0.6 1.5-0.6 2.1-1.2 0.9-0.8 1-2.1 2.1-2.4 0.7-0.8 1.6-0.5 2.6-1.1 0.9 0.6 2-0.4 0.8-0.9-1.4-0.9 0.7-0.4 1.2 0.3 1 1-0.6 1.8-1.5 1.2-0.6 0.6-1.9-0.1-2.3 0.9-1.4 0.3-0.9 1.2-2 1.8-0.3 0.7-1.1 1.3-2 1.5-0.7 0.4-0.7 1.9 0.6 1.7 0.8-0.2 1.4 0.7 2.3 0.5 0.1-0.9 0.6-1.2 1.8-0.9 1.8-0.5 0.9 0.1 0 0.9-0.9 0.3-2.2 0.6-3.1 0.3-0.9 0.4-2.4-0.5-3.3-0.6-1 0.1-1.5 1.7-3.1 1.3-0.1-0.9-1.8 0.3-1.7 0.6 0.8 0.2-1.9 0.9 0.3 0.8 1.1 0.5 1.4-0.3 2.5 0 0.6-0.5 1.7 0.1 2.4-0.6 1 0.3 2.2 0.4 3 0.1 0.3 0.6-1.2 1.2-1.6 1.8-1.1 0.2-1.6 0-2.6-0.4-1.1-0.1-2.1 0.6-3.1 0.1-0.7-0.9-2.4 0-1.6 1.2 0.5 1.3 0 2.6 1.6 2.6-0.3 1.5 2 0.3 2.1 1.4 0.8-0.1 1.3-1.2 2.1-0.5 0.7 0.3 2.5-0.9 2.1 0.3-1.1 0.6-2.5 0.1-3.6 0.8 0.1 1.4-1-0.2-1.6-0.5-1.1 0.1-1.8-0.4-2.3-0.9-0.9 0.1-1.7-1-1.4-2-0.3-0.8 0.1-2.3-0.4-2.7-0.6 0.3-0.4 2.1-1.5 0.9-1 0.4-1.4 1.6-2.9 1.2-0.6 0.5-1.3 0.8-2.3 1-0.8 0.4-1.9 0.4-2.4-0.4-1.5 0.7-1.4 0.2-1.5-0.9 0.5-0.7 0-0.8-1.1-0.9 0.5-0.3 1.9-0.7 2.3-0.4 1.2 0.1-1 1.9-0.2 1.8 1-0.6 1.8 1.1 2.8 0.3 0.9-0.8 1.9-1.2 2.4-2.4 1.2-0.6 1.4-2.1 0.9-3.4 0.3-1.9-0.7-3.4-2.3-3.4-1.5-0.1-0.9 1.5-1.7 2 0.3 1 0.3 2.5 0.5 3.1-1.1 0.3-0.6-2.4-1.3-2.8-0.3-0.7 0.7-1.5 0.3-2.3-0.7 0.4-1.2-0.8-1.8 0.3-1.3 0-1 1.2-1.9 1.4-0.3 1-1.1 1-1.5 1.8-0.9 0.8 0.1 1.2 0.2 1.9 0.7 0.2 1.4 0.8 2.3 0.6 0.6-0.5-0.1 1.4-0.9 0.6-1.1-0.7-1.4 0.4-2-0.1-0.9 0.2-1.4 1.2-1.3 2.7-1 0.1-1.7 0.9-2 1.5-0.9 0.8 0.6 1.6 1 2.1 1 0.9 1.6-0.1 2.2-0.9 1-0.3 1.4-1.2 2.4-1.2 0.1 0.8-1.4 1.1-1.9 2-1.1 0.4 1.7 2.1-0.2 1.2-1.6-0.8-0.6 1 0.2 0.9 1.1 0.4 1.6 0.3 2.6 0.1 0.7 0.7 2.2 0.2 2.3-1 0.9-0.7 1.7-1.2 2.3-2.3 0.5-0.8-1.1 0.6-1.5 0.8-0.8 1-2 2-1.2 0 0.8-0.4 1.7-1.2 2.5-1.8 0.8-0.2 1.8 0.9 1 1.2-0.7 0.7-1 1.6-2.2 1.9 0 0.8-1.8 1.4-1 2.1 1.7 0.5 1.7-1.9 2.7-1.9 1-0.2 1.5-1.4 2.5-0.9 0.9-0.4 1.4-0.3 2.4-0.6 0.8 0.5 1.4 0.6 1.9 1.5-1.2 0.3-1.7-1.1-2.9-0.6-0.3 0.7-1.9 0.9-0.1 1 0.4 1.2 1.3 1.2 2.4 1.1 0.9-0.4 1.6-1.8 2.8-1.2 0.3-1.2 1.3 0.2 2 0.6 1.4-0.1 2.5-0.4 3.7-0.8 0.6-0.1 1.4 0.6 2.2 0 1.3-1 0.2-1.4 1.4 0.5 1.1 0.2-1.2 1.4 0.5 1.7 0.8 0.3 1.8 0.3 2.6 0.6 0.8 0 1.8 0.6 2.3 0.4 0.4-1.1 1.6-0.8 2.3-1.7 1.6 0.1 2.6-0.7 3.6-1.9 0.7-0.6 0.3-2.5-0.5-2.9-0.5-1.9 0.7-2.7 0.6-4.5 0.1-1.1 1.8-1.1 1.6-2.1 0.2-1.3-1.3-2.2-1.6-2.6-0.2-1.8 1.2-1.1 0.4-2.7 0.7-1.1 0.2-2.4 1.8-2.3 0.9-0.5 1.7-0.2 0.7 0.6 0.2 0.9-2.3 1-1.5 1.7 1.9 0 0.5 0.3 0 1.2 0 1.5 1.6-0.5 1.8-0.9 0.7 0.6-1.1 2-0.7 2.7-0.5 0.8-0.1 2.8 0.7 1.5 0.7-0.4 2.4-0.5 2.6 0.6-1.2 0.1-2.7 0.1-2.6 1.4-0.6 1-1.9 1-1.8 2.4-0.5 0.6-0.8 1.9-0.4 2.6 0.6 0.7 0.5 1.4 1 2.2 0.6 0.7 1.2 1.4 2 1.2 0.9-0.5 2 0.9 2.6 0.2 0.9-0.6 3.2-1 3.2 0.4-0.1 1-2.1-0.1-2.3 0.9 1.9-0.3-0.2 1.3 1.5 1.2 0.8 1 1.9 1.1 1.5 2.2 1.2-0.3 2-1.9 1.3 0.4-1.1 0.5-0.4 1.4-0.8 2-1.5-0.7-0.9 1.7 0.4 1.5 0.6 0.3 1.6 0.9 2.3 1.2 0.8 0 1.4 0.2 2.2-0.6 0.6 0.1 1.4 0.1 2.3-0.5 0.5 0.2 2 0.2 2.6 0.6 0.5 0.7 1.4 0.7 2.1 1.1 0.8 0.4-1.2 1.2-1.6 0.6-0.6-0.3-1.3-1.1-2.1-0.6-1.4 0.2-2.1-0.6-3.3 0.1-0.4 0.5-1.6 1.2-2.4 0.7 1.1-0.7-0.6-0.7-1.4-0.7-0.9-0.5-2.3-0.7-2.6-1.9-1.2-0.5 0.4-1.4 0-2.3-1.1 0.1-1.8-0.3-2.6-0.6-0.2-1-2.2-0.3-2 0.8 1.1 0.6 0.3 0.7 0.2 1.9 1 0.9-0.6 1.7-0.2 2.6 1.6 0 0.1 2 1.4 2.4 1.3 0.7 1.4-1 2.8-0.7 0.2-0.7 2.2-1.4 2-0.5-0.8 0.2-1.4 1-2.4 1.1-1.5 0.3-0.5 2.1 0.3 2.7 1.3 0.6 0.5 2.7 2 2.7 0.8 0.5 0.8 2.3 2 2.1 1.5 0.5 2.9 1.2 4.2 2 0.5 1.2 1.5-0.3 2-0.5 0.5-0.8 1.4-1.4 1-2.7 0.8-1.2 0-2.2-0.2-3.2 0.4-1-0.1-1.6 1.1-2.4 1.2-1 0.5 0.1 0 0.9-0.8 1.6 0.7 1.9 0.8 3.4-0.9 0.8 0.1 2.3-0.7 3.4-0.8 0.6-1.4 1.7-2.3 2.1-1.4 0.5 0 1.6-0.2 2.3 0.3 1.1-1.7 0.6-2.1 0-1.7 0-0.8-2.6-2.7-2.3-0.3-0.4-1.6-0.8-1.9 0.3-0.9 0.9-1.3 2-1.9 3.1 0.1 0.2 1 1.5-0.7 1-0.8-0.5-0.3-3-1.2-2.2-0.1 1.1-1 1.7-1.3 2.7-1 1-1.1 0.1-0.4-0.6 0.5-1.1 1-1.8 1.6-2.6 0.7-0.7-0.2-2 0-3.2-0.3-1.4-1.1-1.1-1.8-1.6-0.7-1.1-1.5 0.5-2.3 0-0.7-0.5-1.2-2.2-2.6-1.2-1.4 0.2-1.5 1.9-1.4 3.4-1.1 0.5-0.3-2.6-0.4-3.3 1-0.7 1.9-1.8 1.8-3.5-1.1-1.7-0.5 1.8-2 0.6-1 0.1-1.9 1.6-1.7 2.6-0.5 0.5-1.7 2.3-1.3 0.8 0.8-0.4-0.1-1.4 0.6-2.3-0.2-1.1-1.3-1.2-1.7-2.3-1.3-0.6-1.3 1.1-2.2 1.2-0.9 0.1-1.5-0.4-2.3-1-0.4-1.1-0.9 1.2-2-0.3-0.3-0.4-2.4-1.5-0.6-1.1 0.1 0.8 2.7 1.4 1.1 0-0.2-0.1 0.7-0.7-0.5-1.2-1 0.7-1.6 0.7-2.3-0.1-1-0.4-1.3 0.7-2.3 0.7 0.2 0.5 2.3 0.6 1.5 1.5-0.6-0.4-1.4-0.8-2.1-1-0.4 0 0.7 1.9 0.1 2.2-0.4 1.6 2.2 1.8 0.9 2.9-0.7 0.7-0.5-1.4-1.6-1.5-0.9-1.2 1.2-2.8-0.3-3-0.2-1.3-1.6-0.4-2.1 0.1 0.1 1-0.2 2.9-0.8 0.6-0.1-0.6-2.2-0.2-1.8 0.9 0.8 1 0.5 2.8 1.6 3.5 0.2 1.3 1.3 1.9 1.3 3.2-0.1 1.3 2.3 0.3 1.1 1.2-1.1 0-0.7 1.5 0 1.8 0.9 0.7 1.9 0.8 1.3 2 0.4 1.3 1.7-0.1 2.2-0.3 0.4-0.9 2.2-1.1 1 0.1-1.1 0-1.6 1.1-2.5 1.4-0.6 1.1-1.1-0.9-1.6-1.2-0.6-0.4-0.9-2.7-1.5-0.9-0.1 0.7 0.4 3.9-0.6 3.3-0.2-1.2-0.1-2.1-0.6-3.3 1.1 1.3 0.8-0.4 0.4-1.2 0.5-1.4 0.4-2.3-0.5-3.5-0.5-1-1.6-1.6-1.5-2.6 0.3-1.5-1.3-1.4-1.3-2.7-1.3-1.4 0.4 0 0.9-0.6-0.7-0.5-1-1.8-2.3-1.5-0.9-0.7-1.4-1-2.3-1.5-0.9-0.3-1.8 0.2-2.5-0.6-1-0.2-1.7-1-2.9-1.1-0.4 0.9-1.2 2-2 2.9-1 0.1-1.4 0.1-2 0.6-1.1 0.8-0.2 1.3-0.3 2.6 0.4 1 0.2 1.9 0.9 2.5 0.9 0.7 1.4 1 2.1 1.4 1.1-0.1 1.3-1.1 2.1-1.5 0-0.6 2.1-1.7 1.3-0.6-0.7 0-1.7 1.7-0.9 1.3 0.7-0.4 1.3-1.3 2-1.6 0.2-1.5 0.4-2.3 1.5-3.1 1.2-0.4 1.8-0.2 0.5 0.6-0.4 0.2-2.1 1.8-0.8 2 0.6-1.2 1.6 0 0.3 0.3-0.8 0.5-1.4 0.9-1.9 1.7-1.3 0-1.2 1.2-0.6 2.2 0.8 1.4 2.1 2.5 3.2 3.4 0.6 0.7 1.6 0.5 2.3 1.5 0.7 0.3 2 0.1 2.4 0.9 0.5-1.3 1.3-2 1.2 0.3-0.7 1.1 0.6 1.8 1.3 2.4 0.1 0.4 1.5 1.3 0.8 1.8 0.2 0.8-1.6 1.7-0.4 2.4 0.8-0.3 1.3-1.5 2.2-1.5 1-0.9 2.8-0.6 4.3-1 1.1 0 1.8 0.4 3 0.1 0.9 0.3 2.2-0.2 3-0.1 0.6 1.2-1.9 0.5-2.8 0.7-1.4 0.5-3.3-0.6-4.2 0.8-1.3 0.1-2.2-0.3-3.3 0.3-0.2 0.5-1.9 1.5-0.8 1.6 0.9-0.3 1.7-0.2 2.4-0.4 1.6-0.5 1 1 1.8 1.2 1 0.7 1.8 1.3 3.2 1 0.7 0.6 1.6 1.3 2.7 0.8 0.8-0.9 1.4 1 2.2-0.2 0.4-0.4 1.7-1 2-0.3 0.3 1-1.3 0.7-1.6 1.7-1.1 0.1-1.9 0.2-2.9-0.1-0.6 0.7-1.5 1-1.3 2.3 1 1.1 0.3 2.2 0 3.5-1.5 0.3 0.2 1.5 0.9 1.5 0.4 1.4 2.2 0.6 2.3 2.5 1 0.2 0 1.3-1 0.6-0.2-1.4-1.5-2-2.7-2.7-0.5 0.1-1.5-0.3-1.9-1.7 0 0.2-0.7 0.4-1.4-0.6-0.9-0.4-2-1.2-2.9-1.5-0.9 0.1-1.1 1.3-2.2 1.2-0.4 1.2-1.3 2.2 0.3 2.7 1.6-0.5 0.8 0.9-0.3 0.3-0.7-0.6-1.8-0.5-2.4 0.1-0.9 0.6-1.3 1.9-2.3 2.3 0 1.1-2.1 1.1-1.2 2.4 0.3 0.9 2.3 1 1.2 2.3-1.5 1.3 1 0.2 0.5 1.4 0.9 0.2 2-0.1 2.1-1.3-0.7-2 1.7-0.5 0.4 0.4 0.3 1.6 1.3-0.3 2.1-0.2 0.6-1.6 1.4-0.4 0.2 0.5-0.8 0.9-1.6 1.1-2.7 1.6-1.1 1.1 2 2.3 2.4 0.9 0.9-0.5 1.6-0.8 2.5-1.3 1.3 0.3 3-0.2 4 0.9 1.1 0 1 1.7 2.3 2.1 3.7 2.6 7.3 5.2 10.9 7.8 2.3 1.6 4.6 3.3 6.8 4.9 6.2-17 12.4-34 18.6-50.9 0.7-0.8 2.8-0.5 2.5-2.2 0-1.4-0.7-2.1-1.8-2.5-1-1 0.3-2.4-0.3-3.2 0-1-1.5-0.6-2-1.5-0.9-1.1 0.4-1.6 1.3-1.2 1.4-0.8 0.9-3.2 1.5-4.7-0.2-0.8 0.4-3.3-1.1-3-1.1 0.3-1.9-0.1-2.8-0.3q-1.3 0.8-3.2 0.8c-1-0.7 1.3-1.5 0-2.2 0-0.6-1.7-1.5-0.7-1.9 1.1-0.9 1.5-2.8 1.1-4.5-0.6-0.8-1.4 0.5-2.3-0.3-1.3-0.3-2 0.6-3 0.1-1.1-0.1-2.1-0.1-3-0.6-0.1-2 0.3-3.9-0.2-5.7-0.4-1.6 0.1-2.7-0.1-4.3-0.5-1.4-1.3-2.4-1.2-4.2 0.7-0.9 0.6-2.2-0.4-2.7-0.4-1.6 0.2-3 0.6-4.1 0.6-1.4 1.2-2.2 1.5-3.6-0.1-1.3-0.8-2.2-1.1-3.5-0.8-0.9-1.3-2.3-1.6-3.9-0.4-0.7 1-1.1 1.6-0.8 0.5 0.7 1.9 0.6 1.9-0.7 0.5-1.1 0.6-2.6 1.3-3 1.2-0.6 0.4-2.6-0.5-3.1-1.1-0.5 0.6-2.1-0.5-1.9-1.8 0.2-2.7-0.6-4.4-0.8-1.2-0.6-2.4-0.4-3.6-0.1-1.1 0.4-2.3 0.9-4 0.7-1.4 0-2.5 0.3-3.6-0.1-1.3-0.6-2.4-2-3.6-2.6-0.6-0.6-1.5-1-2.7-1.2zm-7.2 2.1c-2.2 1.1 0.8 1.6-0.3 2.5-1.2 1.3-0.4-0.4-0.7-1-0.3-1.2-1.6-0.5-2.5-1-1-0.1-2.2 0.7-2.2 1.5-0.4 0.9-0.5 2.5-1.1 3.2-0.1 1.1 0 1.7 0 3 0.7 0.3 3.1 0.6 2.2 1.6-0.8 1.4 1.2 1.5 1.7 0.2 0.8 0.1 0.3 1.1 0.8 0.7 0.7-0.6 1.9-1.3 2.2-2.2 0.8-1.7 0.2 1.4 1.2 0-0.2-1.2-0.1-2.5 1-2.7 0.4-1.1 1-1.9 1.1-3.2 1.6-0.7 0-0.7-0.8-1.2 0-1.5-1.9-0.5-2.5-1.4zm-11.4 2.9c-0.7 0.8-1.8-0.4-2.5 0.7-1.1 0.7-2.6 0.8-3.1 1.7-0.4 0.5-1.9 1.3-1.2 2 0 1.3 2.2 1.3 1.5 2.7 0.4 0.9 0.2 2.2-0.5 2.7 0.2 1.3 1.2-1.3 1.9-1.4 0.7-0.8 0.5-1.9 1.6-2.1 1-0.5 0.9-1.9 2-2.1 1.1-0.2 1.5-1.4 2.2-1.9 1-1-0.1-2.2-1.2-2-0.2-0.1-0.4-0.4-0.7-0.3zm3.9 6.6c-1.5 0.8 0 1.5 0.8 1.8 1.3 1 1.4-0.2 0.3-1 0.1-0.5-0.2-1-1.1-0.8zm-3.9 26.9c-1 0.5-1.1 0.2-1 1.7 1.1 0.4-0.7 2.2 0.7 2.7-1.2-0.2-2.1 1.6 0 0.7 0.7-0.7 1.5-0.9 1.9-2-0.6-0.6-1.2-1.3-1.3-2.4 0-0.4 0-0.7-0.3-0.7zm-31.4 9.1c0 1.4-2.2 0.5-1.5 1.5 0.9-0.1 1 1.2 0 1.2-0.2-0.3-2.9 0.5-0.6 0.6 1 0.4-2.1 0.5-1.8 0.9-0.1 1.1-1.6-1.6-1 0-1.6-0.7-1.6 0.7-2 1.4-1 1.2-1.6-0.6-0.5-1 0.7-0.8 0-1.3-1.4-0.7-0.6-0.4-2.6 0.9-2.2 1.1-0.2 0.6 0.8 1 0.6 2.1 0.2 1 1.6-0.1 1.9-0.5 0.7-0.5 1 1.1 2.3 0.9 1.1-0.3 1.1 1 1.4 1.7-0.9 1.2 2.3 1.7 0.9 0.6-0.6-0.2-1.5-2.6-0.3-2.1 0.6-0.2 2.5-0.2 1.9 1 1 1.1-1.1 1.2-0.9 2.3 1.4-0.3 2.7 0.2 3.3-1.1 0.9-0.6 2.2-0.5 2.5-1.6-0.2-1.3 2.4-1.2 1.3-1.8-1.1 0.9-1.1-1.1-1.9-0.6-0.6 0.6-0.7-0.7-1.6 0.6-0.4 0.4-3 0.8-1.8 0 1-0.4 2.3-1.2 3.3-1.7 0.2-0.9-0.6-1.9-1.2-2.6 0.2-1.2-1.6 0.2-0.4-1.3-0.1-0.3 0.6-1.2-0.3-0.9zm1.9 0c-0.8 0.6-0.9 1.7-0.2 2.2 0.6 0.6 0.3 1.8 1 2.3 1.2 0.2 2.2 0.8 2.8 1.5 1.1-0.1 3 0.6 2.4-1.8-0.1-1.4-0.4-1.6-0.7-2.4-0.2-0.8-2.6-1.6-1.6 0 0.9 0.3 0.7 1.2 1.2 1.6 1.1 0.8-0.8 0.9-1.1-0.3 0.7-1.1-1.6-0.9-1-2.1 0.3-1.1-1.9-0.3-2.4-1h-0.3zm6.6 3.3c-0.5 1.3 0.6 2.7 1.3 1.3 0.3-1.7-0.8-0.3-1.3-1.3zm33 0.3c-1.8 0.6-1.2 1.3 0.6 1.4 1.1 0.3 1.6 1.3 3.1 1.1 1.6 1.1-1.4 0.2-2 0-1.1-0.1-1.9-0.9-3-1.1-0.3-0.5-2.7-1.5-2.5-0.5 2.1 1-1.7-0.2-1.2 0-1.4-0.6-1.9 0.6-2.9 0.9-2 0.1 0.3 1.4 1.1 1.2 0.3 1.3 2 0.9 2.2 2 1 0.3 0.7 1.6 2.1 1.8 1.3 0.7-2.1 0.1-1.7-0.9-0.9-0.6-1.9-1.5-3.2-1.8-0.6-0.5-1.5-1.5-2.3-1.2-0.8 0.6-1.4 1.2-2.1 1.9-0.6 0.3-2.1 1.2-0.8 1.7 1 0 2.8 0.8 2.2 1.2-0.9 0.3-1.2-1.2-2.6-0.9-0.7-1.2-1.7 0.8-2.1 1.2-0.4 0.4 1.2 1.6 1.7 1.4 0.8 0.6 1.8 1.1 2.7 0.4 1.8-0.4 1.6 1.5 2.3 2.1 1.6 0.7 2.2-0.1 3.9-0.1 1.2-0.1 2.4-0.8 3.5-0.6 0.8-0.4 1.5-1.8 2.6-1.4 0.7 0.1 2 1 3 0.3 0.4 0.5 2 0.4 1.7-0.5-0.3-0.9 1.7-0.8 2-1.6 0.2-1 2.4-1.2 1.6-0.2-0.9-0.1-1.8 2.2-0.1 1.6 1.1-0.3 1.7 0.2 2.7 0.1 1-0.8 1.9-0.7 1.6-2.3-0.1-1.1 0.6-1.8 1-2.7-0.5-0.5-1.8-1.2-2.7-0.9-1.2-0.2-1.1 1.7-2.2 1.4-0.3-0.7-2.2-0.5-2.6-1.5-0.8-0.6-1.4-1.5-2.7-0.8-0.5-1.1-1.9-0.3-2.2-1.7 1.5-0.8-0.7-1-1.6-0.7-0.5 0.1-0.7-0.2-1.1-0.3zm-12.1 0.1c-0.5 1.2-1.7 1-2.6 1.4-0.1 1-1.1 2-0.7 2.7-0.3 1.1-0.9 2.7-0.6 3.8 0.8-0.7 1.5-0.8 1.7-2 0.6-0.5 1.2-0.8 1.7-1.6 0.7-0.5 1.3-1.3 2.1-1.9 0.3-1.7-1.2-1.3-1.6-2.4zm31.8 0c0.5 1.6-0.9 0.5-2 1.3-1.2 0-1.9 0.7-0.6 1.5 1 0.4 1.7-1 2.7-0.4 0.9-0.4 2-1.4 0.8-2.1-0.2 0-0.5-0.3-0.9-0.3zm3.5 1.3c-1.7 0.2-0.7 1.7 0.4 1.6 0 1.1 2 1.8 2.2 1.1-0.6-0.8-0.4-1.5-1.5-2-0.2-0.5-1.1-0.2-1.1-0.7zm-47.6 0.1c-2.1-0.1 0.4 2.7 0.6 0.8 1.3 0-0.6-0.7-0.6-0.8zm35.9 0.9c-0.5 0.6-2.7 1-0.7 1.5-0.2-0.1 2.7-1.4 1.1-1.5h-0.3zm-34.9 0.6c-0.3 1.5-1.4 0.1-1.9 1.7-0.5 0.7 0.6 1.5 0.2 2.4-0.4 0.8 1.5 2.1 0.7 0.6-0.1-2 0.7 0.6 1.6 0.1 0.5 0.6 2 0.7 1.6-0.4-1.3-0.5-0.6-2.4-1.7-2.9 1.1-1.3 1.1 0.9 1.5 0.9 0.1 0.4 0.7 1.4 1.6 2.1 1.6 0.5 2.2 0.2 2-1-0.1-1 0.6-1.9-0.1-3-0.7-1.1-1.3 0.5-1.9 0-1.3 0.1-1.2 0-2.3-0.3-0.4-0.1-0.8-0.3-1.3-0.2zm-6.9 0.5c-0.2 1.3 1.5-0.1 0 0zm0.6 0.6c0.3 1.1-1.7 0.3-2.2 0 0 0.5-0.5 1.3 0.4 1.6 0.6 0.4 2.3 1.3 0.7 1.1-1-1-1.7 0.1-0.4 0.4-0.8-0.5-1.6 2.1-1.6 0.5 1.1-1.1-0.8-0.5-1.3-0.6 0.9 1.4 0.4 0.9-0.5 1.9 1.5 1.2 0.6 0.6 0.3 1.6-0.1 0.6 1.4 0.9 1.8 1.3-1 0.3 1.3 1.1 0 1.2-0.4-0.6-1.5-1.4-2.1-1.2-0.4 0.4-1.2 1.7 0 2-0.1 1.2 1 0 1.6 1 1.4-0.3 1.9 1.4 3 1.1 0.6-0.2 2.4 0.8 2.4-0.5-0.3-1.2 0.1-2.3-0.7-3.3-0.4-0.2-3.3 1.1-1.9 0.2 1-0.3 2.3-0.7 1.6-2-1.8-0.4-0.4-1.8 0.3-0.1 1-0.1 0.9-1.2 1.2-1.7-0.8-0.5 0-1.6-0.5-2.7-0.4-1.4-0.4-1.7-2.1-1.8zm46.1 0.6c-0.4 0.9-1.3 1.8-0.7 2.7-0.6 1.3-0.4 2.2 1.1 1.5 1.1-0.1 1.8-0.8 0.7 0.6-0.4 0-2.8-0.4-1.8 0.8 0 1.3 2.1 0.1 2.1 1.6 1.8-0.3-0.5 1.4 1.5 0.3 0.5-0.5 1.4-0.9 0.8-1.6 0.5-0.5-1.1-2.2-0.7-2.3 1.4 0.7 0.6-1.6 0.3-2.3-0.3-1.1-2-0.2-2.9-1 0-0.2-0.2-0.4-0.4-0.3zm-51.2 0.7c-0.1 0.8-1.1 2.3 0.3 1.4 0.9-0.1 0.1-1.3-0.3-1.4zm-1.8 1.5c-1 0.4 0.7 1.5 0.5 1.5 1.3-0.3-0.1-1.3-0.5-1.5zm-2.5 0.2c-0.3 0.7 0 1.7-0.4 2.3 0.1 1 1.2 1.9 1 0.2 0.3-0.3 0.7-1.5 0.3-2.2 0-0.3-0.7-0.1-0.9-0.3zm-1 0.7c-0.2 2.1-1.5-0.4-1.4 1.1-0.8 1.8-0.2-0.6-1.5-0.2 0.5 1.3-0.1 0.9-1 1.4 0.5 0.7-0.1 0.5-0.4 1.4 1.2 0.1 1.8-0.1 2.7-0.9 0.5-0.8 1.6-0.9 1.7-2.2-0.1-0.1 0.2-0.7-0.1-0.6zm16.6 0.8c-1.2 0.5-0.4 1.2 0.3 1.7 0 1.8 1.4-0.2 1-0.8-0.6-0.3-0.4-1-1.3-0.9zm-13.3 0.1c-0.4 0.5-1.1 2.3-0.1 2.5 0.4 0.2 0.9 2.2 1.3 1.6 0.7-0.7 0.7-2.1-0.3-2.5-0.1-0.9-0.8-0.7-0.9-1.6zm18 0c-0.6 1.1-2 0.3-2.6 1.4-0.4 1.1 1.6 1.8 0 2.1 0 1.7 1.4 1.5 2.1 0.6-0.1-1.6 0.8-1.9 2-2.4-0.1-0.4-0.7-1.7-1.5-1.7zm-21.3 1.1c-0.7 0.5-0.6 1.2-1.8 1.5-0.8 0.5-1.2 1.1-2.5 1.2-0.3 0.8-1.8 1.1-1.9 1.7 1.1-0.3 0.3 0.5 0.7 0.4 0.7 0.3 1.1-0.8 1.9-0.9 0.8-0.4 1.1-1.1 2-1.2 0.8-0.5 1.2-1.3 1.9-1.8 0-0.4 0.1-0.9-0.3-0.9zm49.6 0.5c-1.4 0.7 0.5 0.6 0.2 1.6 1.2 0.6 1.9-0.3 2.4-1-1.7 0.8-1.4 0-2.6-0.6zm-36.8 0.1c-0.4 1.7 0.5 2.8 0.6 4.3-1 1.5 2.8 1.7 1.6 2.7-0.2-1-2.4-0.7-0.7 0 0.5 0.4 0.7 1.3 1.5 1.6 0.3-1.1-0.2-2.2-0.1-3.5 1.1-0.6 0-1.3-0.3-2.4-0.3-1.2-0.9-2-1.7-2.4-0.5 2.1-0.3 0-0.9-0.3zm-10.9 0.3c0 0.8-1 0.7-1.6 1.4-1.4 0.2 0.2 0.7-0.5 0.9-0.9-0.5-2.1 1.4-2.3 0.6-0.5-0.2-1.4 0.9-2.1 1 1.7 0 0 0.3-0.2 0.7-2.2 0.4 0 1.7 0.3 1.1 0-0.6 2.5-0.1 1.8-1.2 0-0.9 2.8-1.2 1.2-0.6-1.4 0.6 0.6 1.2 0.3 1.7-0.8-0.6-1.8 0.3-2.4 0.8-1.1 0.2-1.2 1.4-1.6 0.5-0.5 0.5-1.9 1-1.1 1.7-0.4 1.2 1.2-0.5 1.7-0.1 0.9-0.2 1.6-0.9 1.9-1.7 0.5 0.3 0.9 0.4 2.2-0.3 0.8-0.6-0.3-1.1 1.4-1.2 0.5-1.1 2.2 0 2.8 0.3 0.2-1.2 1.6 0.1 1.2 0.4 0.4 0.2 1.8 1.8 1 1.4-0.4-0.9-1.8-1.1-2.7-1 0.7-0.5-1.9-1.8-2.1-0.2 0.3 0.8 2.5 0.3 2.4 1.2-1.2-0.6-0.5 0.9-1.6-0.5-0.7-0.5-3.6 0.1-1.6 0.4 0.7 0.7 0 1.4-0.9 1.8-0.2 0.7-2.1 1-0.4 1.2 0.1-1.3 1.3 0.1 0.1 0.4 1.5 0 3.5-0.6 4.5 0.2 0.5 0.8 2.1 0.2 2 1.2-0.1 0.9 1.8 0.6 2.2 1.5 0.6 1.2 1.2-0.4 1.7-0.8-0.3-1.1-2-0.7-2.9-1.2-0.3-1.1-1.3-1.7-2.3-2.1-0.7-0.3-3.7-0.7-1.9-0.7 0.9-0.2 2.3 0.3 2.9 0.7 1.1 0.4 1.6 1.2 2.9 1.2 0.7 0.3 2 0.5 2.7-0.3 0.4-0.7 1.1-1.5 1.9-1.8 0.3-0.9-0.6-2.3-1.6-2.1-1.2-0.3-1.9-0.1-2.8-0.8-0.6-0.4-2.1-0.8-2.4-1.2-1.6 0.2-0.4-1.1-1.8-1.3-0.5-0.6-1.1-1.9-1.8-2.4-0.2-0.2-0.2-0.8-0.5-0.8zm-4.4 2.7c0.5 0.2-0.1-0.4 0 0zm63.6 1.2c-0.4 1.1-0.5 1.5 0.3 2.1 0.5 0.6 1.3 1.2 2.1 1.6 0.3 0.6 1.7 1.3 1.6 0.7-0.5-0.8 0-2.3-1.3-2.4-1.2 0-1.2-2.1-2.7-2zm-47.9 3c0.9 1-0.3 1.6 0.5 2.6 0.1 0.9 0.9 2.9 1.6 1.7 1.2-0.7 0.3-1.9-0.3-2.5-0.3-0.8-1.1-1.4-1.8-1.8zm-23.6 0.5c-0.8 0.8-2 0.5-1.6 2.3-0.6 1-0.9 2-1 3.4-0.8 0.2-0.8 1.5-1.4 2-0.4-1.2 0.9-1.7 1-2.7 1-1.7-0.3-1.4-0.4 0.1-0.5-0.8 0.9-1.7-0.6-1.2 0-2.2-0.5 0.8-0.9 0.3 0.3-2.1-1.4 2.2-1-0.1 0.1-1.4-0.8 0-0.7 0.4 0.3 0.2-1.6 1.4-2 1.7 0 0.9 0.2 1.7 0.6 2.4 0.4 0.9 1.1 1.4 0.4 2.1 0.1 0.4 0.4 2.6 1.1 1.4 1.6 0.1 0.9 1.3 0.2 2.3 1 0.6 0.7 1.1 1.5 2.1 0 1-1.2 1-1.8 2.1-0.1 0.6 0.1 2-0.1 2.5 0.3 1.8 3-0.6 0.8-0.1-0.6-1.3 1.3-1.5 1-0.2 1.3-1.3 0.4 0.1 1.3-0.3 1.7-1 0.3 0.7-0.6 0.8 0.7 0.8 2.4-1.6 1.6 0.2-0.9 0.7 1.5-0.5 1.3-1.2 0.9 0.4 0.7 0.1 1.3 0.5 1.5-0.3 0.4 1.2-0.6 0.9-0.9 0.2-2.1 0.9-2.8 1-1.3-0.4-2.7 0.4-2.8 1.6-1.7-0.1 0.4 1.9 0.5 2.6 0.6 1.2 1.8 0.1 2.3-0.8-0.4 0.3 0 2 1.1 0.8 0.7-0.8 1.3-1.4 1.7-2 0.6 1.5 1.5-0.4 2.6-0.3 0.8-0.7 0.5-2.6 1.2-3-0.4-0.4 2.3-1 1 0.1-0.5 0.6-2.1 2.5-1 2.9 1.5-1 0.2 0.3 0.7 1.1 1.5-0.1 1.4 2 0.7 2.5-0.6 0.9-0.8 2.4 0 2.8 0.6 0.9 0.9 1.9 0.6 2.4 0.1 1.3 0.6 2.2 0.6 3.6 0.6-0.5 1.3 0.2 1.6-0.9 1-0.7 0.5 0.5 0.1 1.1-1.1 0.1-2.4 0.4-1.1 1.2-0.1 1.7 1.3 0.8 1.5 0.1 1-0.7 2.1-1.3 3.1-1-0.8 0.9-2.6 0.3-2.6 1.8-1.2-0.1-2.3 1.8-0.6 1.5 0.6 0.1-0.7 1.7 0.1 2.5 1.2 0 1.9-1 2.4-1.8 0.8-0.5 1.1-0.7 2-1.5-0.7-1 1-0.5 1.1-1.8 0.5-0.9 2-1.8 1.6-3.5-0.1-0.9-0.8-2.3-1.1-2.8 0.7-0.6 0.3-2-0.8-2.2-0.8-0.3-1.5 1-1.8 1.9-1 0.2 0.3-1.3 0.5-1.7-0.2-0.3-1.3-0.3 0.2-1.1 0.5-2.2 0.1-0.1 1 0.4 1.2 0.4 1-0.6 0.6-1.6-0.7-0.6-0.9-0.9-1.3-2.1-0.5-0.4-0.8-2.4-1.6-1.2-0.6 0.8-1.2 1.2-1.6 2.3-0.6 0.5-1.4 0.2-0.1-0.5 1.7-0.9-0.9-1.6 0.4-1.8 1.2-0.1 0.9-1.3 0.7-2.1-0.4-0.4-0.8-1.9-1.3-1.7-1.1 0.6 0.3-1.8-0.9-2.4-0.6 0.5-1.6 0.5-2.1 0.9 0.2-1.3 1.9-0.4 1.4-2 0.2-1.3-0.8-1.4-1.1-2.2-0.5-0.7-0.9-2.3-1.5-0.7-0.4 1.7-1.2 0.1-0.4 0 0.8-0.7 0.4-1.7 1-2.2 0.6-0.4 0.2-2.1-0.4-1.3-0.2 1.4-2.2 1.6-0.9 0.4 0.5-0.9 1-1.5 1-2.5-0.2-0.3-2.5 0.6-0.7-0.5 0.4-1.9-2.3-0.4-0.9-1.6-0.5-1.3-0.4-1.4-1.4-2.3-0.3-1.4-0.2-1.7-0.4-2.6 0-0.5-2 0.7-0.9-0.3 0.8-0.3-0.4-0.9-0.6-1.2zm-3.9 3.6c0.5 0.1-0.1-0.4 0 0zm12.7-3.3c-0.8 0.5-1.9 0.3-2.4 1.2-1.1-0.2-2.6 1.1-1.6 1.4 1.3-0.6 1-0.3 2.1-0.8 0.9-0.8 2.7-0.6 0.6 0-1.3 0.7-0.3 0.9 0.2 0.6 0.3 1.1 0.9-1.1 1.8-1.3 1.5-0.4-0.1-1-0.7-1.1zm14.3 1.4c-1 0.5-1.6 2-0.2 1.9 0.4-0.6 1 0.8 0.9 1.4 1.6 0.8 0.6-0.9 0.3-1.7-0.5-0.2-0.3-1.4-1-1.6zm-16.7 2.1c-1-0.2-2.6 0.9-1.2 1.6 0.3 0.9 0.9 2.7 1.6 1.2 0.5-0.1-0.8 2.1 0.6 2.2 1.1-0.6 2.2-1.1 1 0.3-1.7-0.5-1.8 2.3-0.3 1.3 0.9-1.3 1.5-0.2 0.3 0.2-1.4 1-0.8 1.4 0 0.4 1.6-0.3-1.5 1.4-0.5 2.3 1.6-0.5 0.9-0.4 0.8 0.9 0.8 0.9 1.1-0.4 1.7-0.9 0.3-0.9 1.9-1.6 0.7-0.5 0.3 0.8-2.2 1.7-0.4 1.6 0.6-0.5 2.8 0.1 1.3 0.2-1.1-0.3-1.8 0.4-2.3 0.8-0.7 1.2 0.9-0.2 1.4-0.3 1.1 0 1.9-0.5 3-0.3-1.4 0.6 1.5 1.2 0.3 1.4-0.7-0.4-2.5-1.6-2.1 0.3-0.8 0.4-0.3-1.5-1.8-0.6-0.9 0.2-1 1.5-0.2 2.2 0.3 0.5 0.8 2.8 1.4 1.2 0.8-0.3 2.7 0.3 1 0.5-1.5-0.3 0 1.5 0.3 2.1 0.1 1.2 1 1.7 2 1.1-0.1 0.3-1.7 1.2-0.6 2.2 0.7 0.5 0.6 2.5 1.8 2 0.4-1.1 1.7-1.2 1.7-2.6 0.5-0.7 1.3-1.2 2-1.6 0.4-1 0.9-1.6 1.3-2.5 1.2-1.1-0.5 1.1 0.1 1.7 1-0.1 1.2-0.7 1.9-1.2 0.4-1.1 0-2.3 0.2-2.9 1.1-1.7-1.2 0.8-0.8-0.7 0.4-1.2 0.9-1.8 0.3-2.1-1.5 0.2-0.1-1 0.3-1.2 0.3-1.3-1.5-0.1-1.6 0.7-0.2 0.8-1.3 2.9-1.1 1.4 0.7-0.7 0.5-2.3 1.6-2.5 0.2-1.4 1.4-0.6 1.8-1 0.6-1-1.9-1.7-0.3-1.4 1 0.9 1.8-0.8 0.9-1.3 0.2-1.6-0.9-0.3-1.6 0-0.2 1.3-1.1 1.3-1.8 1.9-0.3 1-1.7 1.2-2.2 2.2-1 1.2-1.1 0.3-0.3-0.5 0.7-0.6 1.5-0.9 1.9-1.8 0.4-0.6 0.8-1.5 1.6-1.8 0.7-0.5 0.6-1.9 1.7-2 0.6-1-0.4-1.8-1.2-1.6-0.3 0.6-1.1 1.2-1.5 1.8-0.7 1 0.8 1.4-0.3 2.4-0.5 0.8-1.1 1.6-1.8 2.1-1.2 0.6-0.8-1.2-2-1.2-0.1-1 1.1 0.7 1.3 0.3 0.2-0.4 1.1 1 1.5-0.3 0.8-0.9 0.8-1.8 0-1.8 1.1-0.6-0.4-1.7-0.9-1.1-0.7 0.8-1.9 0.1-2.6 0 0.3-0.7 2.6 0.5 2-0.9-0.7 0.6-0.3-1.4-1.4-1.3-1.2-0.2-0.8-1.6-2-1.7-0.6-0.9-1.9-0.5-3.1-0.6 0.4 1.4 2.3 0.6 2.8 1.8 0.8 0 2 0.5 0.4 0.5-1.2-0.5-2.4-1.2-3.7-1.3-0.6-0.1-1.8 1.3-1.6 0.2 1.1-0.5 0.6-1.6-0.6-0.8-1.5 0.4-1.5-0.8-2.7-0.7zm25.9 0.3c-0.6 1.3 0.8 0.5 1.7 0.9-1.1 0.9 2.7 1 1 1.5-1.3 0-2.2-1.7-2.8-0.1-0.3 0.6 1.2 1.6 1.2 0.1 0.1 0.6 1.4 1 1.4 1.7-0.8 0-1.5-1.1-2.4 0-0.2 1.1-0.2 2 0.3 3.2 0 1-0.1 3.1 1 2.7 0.1-1.1 1.2-1.2 1.2-2.5 0.4-0.7 0.8-2.3 2-2.1 0.6-0.9 1.8-0.9 0.4-0.1-0.3 0.8-1.4 0.8-1.7 1.6-0.3 1.1-0.6 1.1-1 2.4-0.4 0.6-0.6 1.7 0.3 2 0.1 1.3 0.5 2.4 1.3 2.9 0.7 0.5 1.5-0.8 2.7-0.8 0.2-0.9 1.6-1 2.2-1.6 0.5-0.8 1-1.6 1.4-2.5 1.1-1.1-1.4-1.5-1.1-2.1-0.3-1.4-1-1.7-2-1.5-0.5-0.9-0.5-1.3-1.2-2.2-0.5-0.7-1.2-1.5-2.2-1.7-0.6-0.6-1.2-1.7-2.3-1.4-0.8 0.3-0.7-0.5-1.4-0.4zm-11.7 0.7c-0.5 0.8-1.1 1.5-1.4 2.5 0.5 1 1.6 1.3 1.9 0.3 0.4-0.7 1.1-1.2 1.4-2.2-0.7-0.5-1-0.4-1.9-0.6zm5.8 0.9c0 1.1-1.3 1.7-0.9 2.6 0.6 1.5 0 2.3-0.3 3.6-1.3 0.8 1.1 1.4 0 1.7-0.8 0.1-1.6 0.8-1.3 2-0.3 1 0.9 2.7-0.1 3.6 0.1 0.8 1 1 1.4 1.9-0.5 1.4 1.5 1.3 1.3 2.2-1.1-1.1-0.9 0.1 0 0.7 0.7 1.1 1.3-0.2 1.6 0.6 0.6 0.4 0.4 1.2 0.6 2.1 0.1 0.6-0.8 0.2-1.4 0.9 0 0.9-1 2.6 0 3.7-0.7 1.7-1-1.1-0.9-1.7 0.3-1.2-1.3-2.8-1.5-1.6 0.7 0.9 0 1.7-0.1 3.1-0.9-0.8 0.5-1.9-0.3-2.9-0.2-0.8 0.2-1.8-0.1-2.8-0.2-0.7-0.1-1.5 0-2.7-0.7 0.1-0.9-0.6-1.8-0.2-0.5 0.7-1 1.2-1.1 2-0.3-2.2-0.7 0-1.7 0-0.9 0.6-0.8 1.8-2.1 2.1-0.3 0.9-0.5 2-1.5 2.2-1.2 0.8 0.5 1-0.2 2 0.9 0.3 0.7 1.8 0.7 2.4-0.6 1.1 1 1-0.1 2.1 0.7 0.6 1.5 1 2 1.5 1.2-0.4-0.4-2.4 0.4-3.1 0.8 0.1 0 1.7 0.5 2.7-0.3 1.6 1.5 0.8 2 0.6 1 0.1 1.1-0.5 2.1 0 0.8 0.3 1.5 0.9 2.5 0.5 0.6 0.1 2.3 0.3 2.2-0.7 0.6-0.3 1.1 1.2 1.4 1.9 0.7 0.3 2.1-0.2 2.4 0.7 0.5 0.5 0.8 1.7 2.1 1.1 0.8-0.3 1.4-0.8 2.1-1.2 1.7 0.5 1.6-0.9 1.9-2 1.2-1.1-0.5-2.1-0.1-3.6 0.2-0.7-1-0.9-1.5-1.5 0.5 2 0 1.7-0.6 0.4-0.7-0.2 0 2.6 0.8 1.8 0.4 0.7 0.7 2.2-0.5 1.5-0.9 0-0.8-1.2-1.7-1.3 0.2-1.2-2.2 0.3-0.7-1.1 0-0.7-0.6-1-0.9-1.9 0-1.2-0.1-2.1 0.2-3.5 0.2-1.2-0.2-1.6-0.8-2.3-1.1 0.2 0.1-2.2-1.5-1.8-0.4 1-2.4-0.6-1.2-0.7 0.4 0.2 1.8 0.5 1.7-0.8 0.7 0.6 2 0.8 1.9-0.6 0.9-0.9-0.7-1.4-0.6-2.4 0.1-0.1 1.1 0 0-0.9 0.2-2-1.7 0.1-1.3-1.8-0.4-0.4-1.8-1-1.7-1.4 0.7-0.4-0.9-1.1 0-1.7 0.7-0.6-0.2-1.4-0.3-2.2-0.8-1.3-1 1.8-1.1 2.5-1.3 0.2 0.5-2.6-0.2-3.3-0.6-0.2-1.4-1.4-0.3-0.4 0.8 0.4 1.7-1 1.5-1.7-0.8-0.6-0.5-2-1.5-2.2-0.4-0.6-0.7-0.7-1.4-0.7zm16.7 7.9c-0.7 0.8-0.6 1.7-1.6 2.1 0 1.5-1.5 1.4 0 2.4 1 0.4 1.9 0.9 2.3 1.8 0.7 0.4 1.8 0.7 2.3 1.4 1.3 0.3 1 1.9 0.2 0.6-0.8-0.4-1.6-1.1-2.5-1.4-1.2-0.2-1.3-1.2-2.3-1.6-0.4-0.9-1.5-1.6-2.4-0.9 0 0.9-2.8 0.4-1.2 1.6 0.7 0.7 1.4 1.3 2.4 1.7 1.4 0.1 2.4 0.4 3.1 1.2 1.1 0.5 1.6-0.1 2.2 0.9 1.5 0.9-0.5 0.8-0.9 0-1.3-0.6 0.3 0.9 0.7 1.1 0.9 0.4 1.7 1.5 2.4 0.3 1.5-0.2 1.9-0.8 1.9-2.3-0.8-0.8-2.4-0.5-2.7-1.7 0.1-0.7-0.7-1.7-1-2.4-0.7-0.4-1.3-2.3-0.3-2.7-0.3-0.9-0.6-2.3-1.7-2-0.1 1.2-0.6-0.5-0.9-0.1zm7.2 4.4c-0.8 0.3-1.8 0.2-2.6 0.7-0.6 1.8 0.3 1.8 0.7 2.8 0.7 0 2.2 0.5 1.9 1.3-0.6 1.3 1.9 0.7 2 1.8 1.1 0.3 2 0.8 3.2 1.4 1.3 1.4 1.1-0.9 1-2.3-0.3-1 0.3-2.2-0.6-2.9-0.1-1.2-2.2 0.5-2.9-0.9-0.9-0.5-1.6-1.2-2.1-1.9h-0.4zm-13.7 2.7c1.5 1.5 0.1 0.8 0.5 2.6-0.3 1 1.2 1.8 2 2.1 0.3 0.7 0.9 2.3 0.4 2.8 0.2 1.1 1.7 1.9 2.8 1.5 0.5-0.7 1.5-1.1 2.3-1.6 0.7-0.5 1.7-1.9 1.3-2.3-0.2-1.2-1.8-1.1-2.6-1.8-1.2-0.4-1.2-1.6-2.5-1.5-0.8-0.4-2.1-0.3-2.4-1.2-0.8-0.2-1.1-0.6-1.8-0.6zm-46.1 2.4c-0.3 1.4 0.1 1 0.5 1.5 1.3-0.3 0.2-1.5-0.5-1.5zm47.3 3c-1.3 0.3-1.4 0.8-0.6 1.8 1.4 0.2 0.7-1.1 0.6-1.8zm-36.4 0.6c-1.3 0.2-0.9 1.1-1.6 1.8 0.5 1.6-1.4 0.4 0-0.6 0.3-1.7-1.5-0.7-2.1 0.3-1.3-0.3-1.8 1.8-0.3 0.8 0.8 0.3-1.6 0.9-2 1.2-0.9 1.8 0.1-0.1-1.3-0.3-0.1-1.7-1.3-1.2-2.5-1.2-0.7 1 0.5 2.1-0.9 2.4-1.2-0.8-1.8 0.6-0.7 1.4 0.5 1 0 1.6 0.4 2.8-0.1 1-1.8 1-0.3 1.4-0.3 1.2 0.4 1.6 1 2.4-0.3 1.1 0.7 1 1.8 1.1 0.9 0.7 1.9-0.1 2.4-0.6 0.6-0.8 1.6-1.7 2.4-2.3 0.5-0.7 1.8-1.4 2.4-2.2 0.4 0.5-0.5 1.3-1.1 1.8-1.6 0.6-1.7 1.6-3.3 3-1.1 1.2 1.6 1.5 1.9 0.3 0.8-0.7 1-1.7 2-2-0.2-1.1 1.9-2.2 1.3-1.2-0.6 0.7-0.9 1.6-1.7 2-0.4 0.4-1.7 1.4-1.1 1.8 1.4 0.2-0.9 0.8-2.1 0.6-1.5 0-2.6-0.4-3.4 0.9-0.8 0.8 0.8 1.2 1.5 1.6 0.9 0.3 2.2 1.3 3.1 0.2 0.5-0.7 1.2-1.3 2-1.7 1.4-0.2 1.3-1.5 2.4-1.9 0.7-1.2 1.7-1.8 2.3-3 0-1.6 0.2-1 1.1-0.2 0.2-1.5 0.2-2.6-0.8-3 0.5-1.8-1.8-1-1.1 0.3-0.6-0.8-2.2-0.2-1.3-1.2 0.9-0.9 0.9 0 1.7-0.9 0.1-1.4-0.9-2.3 0.3-3.5 1.2-1.3-1.2-2.8-1.4-0.9-0.2 1-1.1 2.5-0.2 3.3 0.1 0.8-3-0.2-0.8-0.6 0.4-1.2 0-2 0.7-3.3 0.5-1.1 0.2-0.6-0.7-0.8zm32.5 3.4c-0.2 1.4-0.3 1.7 0.4 2.7-0.1-0.2 0.5-2.9-0.4-2.7zm-29.2 7.6c-1.4 1.1-1.9 2-3.2 3.4-0.8 1.5-2.2 1.5-3.5 2.8-0.9 0.5-0.9 1.2-0.6 1.7-1.3 0-1.8-0.9-3.1-1.2-1.3 0.9-2-0.8-3-0.6-0.1 1.1 0 1.7 0.7 2.6-0.4 0.7 0.1 1.6-0.2 2.1-0.1 0.6 1.3 2 1.9 1.5 0.3 1.2 2.4 0.2 3.2-0.8 0.3-0.7 1.8-1.1 2-1.9 0-0.9 1.6-2.4 0.6-0.6-0.1 0.6-0.7 1.2 0.7 0.4 0.9-0.5 1.7-1.8 1.3-3 0.8-0.5 1.2-1.6 1.9-2.4 0.2-0.9 0.9-1.5 1.7-2.1-0.2-0.8-0.1-1.5-0.4-1.9zm1 1.9c-0.7 0.9-1.5 1-1.9 2.1-0.7 1-1.8 2.1-1.7 3.9 0.8 0.3 1.4-0.9 2.1-1.3 0 0.4-0.9 1.3-1.4 1.6 0.7 1.3 1.9-0.6 2.3-1.1 1-0.6 2.1-0.5 1.4-2.1-0.4-0.9-0.1-2.7-0.8-3.1z"/>
		<path id="map_aysen_Lago_Cochrane" fill-rule="evenodd" class="map-aysen s1" data-siglaregion="AI" data-sigla="cochrane" data-nombre="Cochrane" d="m151.6 200.1c-0.6 0.5-1.2 0.7-1.8 1.1-0.8 0.1-1.4 0.8-2.2 0.9-0.5 0.4-1.3 1-1.3 1.8-0.2 0.8-0.4 1.5-0.9 2.1-0.7 0.5-1.4 0.4-2.3 0.8-0.7 0-1.5-0.5-1.7-1.1-0.2-0.8-0.7-1.7-1.8-1.5-0.8 0.1-1.3-1.1-1.8-0.3-0.7 0.5 0.2 1.6-0.6 2.1-0.2 0.7-1 1.1-0.8 2.1-0.4 0.9 0.7 2 0 2.6-0.9 0.2-1.3 0.4-1.8 1.1-0.3 1.1-1.3 0.9-2.2 1-1 0-1.8 0.3-2.8 0.5-0.6 0.2-1.6 0.2-2.2 0.6-0.8-0.1-1.4 0.4-2 0.9-0.4 0.5-1.3 1.3-1.3-0.1 0-0.8 0.7-2.4-0.7-2.2-0.8 0.2-1.6 0.2-2.3 0.6-0.9 0.1-1.7 0.2-2.5 0.5-0.5 0.4-1.7 0.8-2.2-0.2-0.8-0.5-1.2 0.5-1.4 1.2-0.7 0.3-0.9 0.8-0.8 1.6-0.7 0.5-1.9 0.3-2.5-0.1-0.4-0.6-0.5-1.5-1.5-1-0.8-0.2-1.7-0.4-2.6-0.2-1.3 0.4-2.9 0.1-4.3 0.2-1.1-0.1-2.3-0.1-2.1 1.2 0.3 0.7 0.8 0.9 1.3 1.6 0.4 0.8 0.2 1.8-0.4 2.1-0.9 0.2-0.2 1.7-1.1 2.3-0.4 0.6-0.1 2-1.2 2-0.7-0.2-1.3-0.9-2.2-0.5-0.8 0.3-0.2 1.2 0 2 0.1 0.7 0.5 1.6 0.9 2 0.2 0.7 0.7 1.2 0.8 2.1 0.3 0.8 0.8 1.2 0.7 2.2-0.3 0.7-0.5 1.4-0.8 2.1-0.4 0.5-0.6 1.3-0.9 1.9-0.2 0.7-0.5 1.5-0.6 2.5 0 1 0.5 1.6 1.1 1.8 0.1 1.2-0.6 1.7-0.5 2.8 0.2 0.8 0.3 1.6 0.8 2.2 0.1 0.7 0.6 1.4 0.5 2.4-0.4 0.9-0.2 1.8 0 2.8-0.1 1.1 0.5 1.9 0.3 3.1-0.1 0.7-0.4 2.5 0.1 3 1 0.3 1.8 0.4 2.8 0.5 1 0.5 1.6-0.4 2.8-0.1 0.9 0.6 1.7-0.1 2.3 0.1 0.7 0.4 0.3 1.9 0.2 2.7-0.1 0.6-0.5 1.5-1 1.8-1.1 0.4 0.1 0.9 0.2 1.5 0.2 0.5 1.3 1.1 0.5 1.9-1.2 0.5 0.7 1.3 1.2 0.7 1 0 1.4-0.5 2.3-0.6 0.7 0.6 1.7 0.4 2.6 0.3 0.9 0.1 1.5-0.4 2.3-0.6 1-0.3 2.5-0.1 3.7-0.2 0.7-0.3 0.4-1.4-0.1-1.8-0.5-0.7-0.7-1.4-0.6-2.7 0.7-0.6-0.2-1.6 0.3-2.5 0.7-0.6 1.7-0.5 2.6-0.5 0.6 0.4 1.4 0.9 1.3 1.8-0.3 0.5-0.9 1.4-0.6 2 1.2-0.1 1.6 0.6 1.9 1.4 0.4 0.4 0.8 1.1 1.3 1.4 0.2 0.6 0.9 1 1.4 1.4 0.4 0.5 0.5 1.6 0.8 2.2 0.1 0.7 1.4 0.6 1.7 0.1 0.7-0.6 0.8-1.6 0.8-2.4 0.1-0.9 1.1-1.3 1.3-1.9 0.6-0.7 0.6-1.1 1-1.8 0.4-0.8 1-1.1 1.7-2 1.3-1.1 2.5-2.4 3.7-3.6 1.2-0.4 1.6 1.2 2.7 1.1 0.3 1.2 1.2 1 1.9 0.4 1.1-0.2 1.4-2.1 0.2-2.2-1.2 0.6-1.6-1.9-0.4-2 1.3-0.5 0.1-2 1-2.3 0.1-0.4 0.8-1.7 2-1.5 0.4-0.9 0.9-1.9 1.8-2.5-1-0.7-0.5-2.2 0-3 0.7-0.8 0.8-1.8 0.6-2.8-0.2-1.3-1.1-1.1-1.5-2-0.8-1 0.4-1.9 1.3-1.7 0.4-0.8 0.9-1.7 1.9-1.8 0.4-1.1 1.2-0.9 1.8-0.2 0.8 0.1 1.3-1.2 2.1-1.3-0.5-1.1 1.2-1.5 0.6-2.6 0.7-0.8 0.6-2.2 1.9-1.7 0.9-0.1 1.2 1.1 2.1 0.5 0.6-0.8 0.9-2.1 2-2.3 0.2-1-0.5-2-0.4-2.9 0-0.9 1-1.7 0.3-2.7-1.2-1.4 0.4-0.1 1 0 0.9 0.2 1.8 0.7 2.6 0.6 0.6 0.3 2.5 1.4 2 0-1.1 0.2-0.7-1.2-0.9-2-0.3-1.2 2-0.9 1.3-2-0.6-0.8 0.3-2-0.8-2.5 0.1-1.4-1.7-1-2.5-1.6-1.2 0.1-0.7-1.9 0.3-1.5 1.3-0.2 1.3-1.6 2-2.4 0.7-0.8 1-2 0-2.8-1.4 0.3-0.6-0.8-1.5-1.5-1 0.4-1.5-0.6-2.6-0.3-1-0.1-1.8-0.5-2.5-0.7-0.4-0.8-2-0.1-2.6-0.8-0.7-0.3-0.6-1.5-1-2-0.2-0.8-1.2-1.2-1.3-2.1-0.4-0.7-1.3-0.6-2.2-0.6z"/>
		<path id="map_aysen_Lago_OHiggins" fill-rule="evenodd" class="map-aysen s1" data-siglaregion="AI" data-sigla="ohiggins" data-nombre="O'Higgins" d="m138.4 255.8l-0.6 0.5-0.4 0.6-0.7 0.8-0.6 0.4-0.6 0.6-0.6 0.5-0.8 0.9-0.2 0.3h-0.1l-0.2 0.1v0.2h-0.1v0.1h-0.2v0.2h-0.1v0.1l-0.2 0.2v0.1l-0.1 0.2v0.1h-0.1v0.3h-0.2v0.3h-0.1v0.3h-0.2v0.2l-0.1 0.1v0.2l-0.2 0.1v0.2h-0.1v0.2h-0.1v0.1h-0.2v0.1h-0.1l-0.5 0.5v0.2h-0.1v0.2l-0.2 0.2v0.8h-0.1v0.7l-0.1 0.2v0.3l-0.3 0.3h-0.2v0.1l-0.1 0.2h-0.2v0.1h-0.1v0.2h-0.3l-0.1 0.1h-0.5l-0.1-0.1h-0.2v-0.2h-0.1v-0.1h-0.1v-0.3h-0.2v-0.3l-0.1-0.2v-0.6l-0.2-0.1v-0.3h-0.1v-0.3h-0.2v-0.2h-0.1v-0.1h-0.2v-0.2h-0.1l-0.1-0.2-0.2-0.1h-0.1v-0.1h-0.2v-0.2h-0.1v-0.1h-0.2v-0.2h-0.1v-0.2h-0.2v-0.1h-0.1v-0.1h-0.1v-0.2l-0.2-0.2v-0.1h-0.1v-0.2h-0.2v-0.1h-0.1v-0.2h-0.2v-0.1h-0.1v-0.3h-0.1v-0.2h-0.2v-0.1l-0.1-0.2v-0.3h-0.2v-0.3h-1.3v-0.3h-0.1v-0.3l0.1-0.1v-0.3l0.2-0.2v-0.3h0.1v-0.3h0.2v-0.1l0.1-0.2v-0.6h-0.1v-0.3h-0.2v-0.1h-0.1v-0.2l-0.3-0.3h-0.2l-0.1-0.1h-0.3v-0.2h-1.2-0.4l-0.1 0.2h-0.5l-0.1 0.1h-0.1l-0.3 0.3v1.2h0.1v0.8h-0.1v0.4h-0.2v1.8h0.2v0.2h0.1v0.3h0.2v0.1l0.1 0.2v0.1h0.1v0.2l0.2 0.1v0.2l0.1 0.2v0.1h0.2v0.6l-0.2 0.2h-0.1v0.1h-0.2v0.1h-3.3v0.2h-0.4l-0.1 0.2h-0.5l-0.1 0.1h-0.3l-0.2 0.2h-0.1l-0.1 0.1h-0.2v1.2l0.2 0.2v1h0.1v0.2l-0.1 0.1v0.6l-0.2 0.2v0.6l-0.1 0.1v1.1l-0.2 0.1v0.7l-0.1 0.1v0.3l-0.2 0.2v0.3l-0.1 0.1v0.2l-0.2 0.1v0.2h-0.1l-0.1 0.1h-0.5v-0.1h-1v0.1h-0.1l-0.3 0.3 0.3 0.3v0.2l0.1 0.1v0.3l0.2 0.2v0.1h0.1v0.2h0.3l0.1 0.1h0.6v0.2h0.2v0.1h0.2v0.2h0.2v0.1h0.1v0.3h0.2v0.6h0.1l-0.1 0.2v0.4h-0.3v1.2l0.1 0.2v0.1l0.2 0.2v0.1h0.1v0.2h0.2l0.1 0.2h0.2v0.1h0.1l0.1 0.2h0.2v0.1h0.3v0.1h0.1v0.2l0.2 0.2v0.3l0.1 0.1v0.3h0.2v1.4h-0.2v0.3l-0.1 0.1v0.2h-0.2l-0.1 0.1h-0.5l-0.1 0.2h-0.3l-0.1 0.1h-0.3v0.2h-0.2l-0.1 0.1h-0.2v0.2h-0.1l-18.6 50.9 19.3 13.9v-0.8l0.6-0.6 0.4-0.9 0.2-0.8 0.8-0.9 1.3-0.9 0.3-1.5 0.2-1.2h0.8l0.5-0.4 0.1-0.4 0.2-1.3v-0.9l0.2-0.8 0.3-0.1v-0.9l-0.1-0.6 0.1-1.2h0.7l0.9-1.1 0.2-0.9 0.4-0.5h0.4l0.5 0.2 0.5 0.3 2 1.2 0.8 0.3 0.7-0.3 0.4 0.2 0.7-1.6 0.8-0.9 0.7-1.2 0.7-0.7 1.4-0.6 0.5-0.3v-0.6l0.3-0.8 0.2-0.3h1.2l0.9-0.6 0.7-0.7 1.1-0.8 0.9-0.5 0.7-0.4 0.2-0.6v-6.1l-0.5-3.9-0.8-5-1-2.8 0.3-1.4 0.2-0.6h0.8l0.4 0.8 0.9 0.4 0.4 0.3h0.9l0.2-0.1 1.2 0.1 0.6 0.3 0.3-0.4 0.2-1.2 0.5-0.9 0.4-1.1h1l0.3-0.5 0.1-0.3-0.8-0.6-0.4-0.4-0.2-0.5 0.3-0.6 0.6-0.4 0.4-0.6 0.1-0.6-0.7-1.5 0.2-0.7h0.8l0.8 0.4 0.8 0.1h2.5l0.5-0.7 0.6-1.1 0.2-1.1-0.3-0.4-0.9-0.9-0.8-0.5-0.2-0.6 0.2-0.9-0.2-0.6-0.6-0.7-0.5-0.3v-0.5l0.1-0.8v-0.6l0.1-0.4 0.2-0.3v-1.8l0.1-0.3v-0.5l-0.1-0.4-0.2-0.6-0.2-0.6-0.5-0.5-0.3-0.5-0.1-0.4-0.2-0.1-0.4-0.4-0.3-0.3v-1l-0.1-0.3-0.3 0.1-0.6-0.3h-0.4l-0.2 0.2h-0.7l-0.3-0.2-0.3-0.3v-0.7l0.2-0.6 0.1-0.2 0.2-0.3-0.2-0.6 0.2-0.4 0.1-0.3v-0.3l-0.1-0.6-0.2-0.2 0.2-0.4 0.1-0.5v-0.9l-0.4-0.5-0.2-0.3-0.8-0.3-0.5 0.2h-0.4l-0.4-0.2-0.6-0.1-0.1-0.2-0.2-0.3-0.6-0.6-0.2-0.1-0.2-0.3v-1.2l0.2-0.6 0.1-0.3 0.1-0.2 0.3-0.4 0.2-0.5 0.1-0.3 0.3-0.4 0.3-0.2 0.1-0.3 0.3-0.1 0.2-0.4-0.2-0.3v-0.7l0.2-0.5 0.1-0.3v-0.9l-0.3-0.4-0.3-0.3-0.2-0.2-0.2-0.4-0.1-0.6v-0.8l-0.2-0.6-0.1-0.1-0.5-0.4v-0.2l-0.1-0.4v-0.3z"/>
		<path id="map_aysen_Lago_Region_Los_Lagos_agua" fill-rule="evenodd" class="map-aysen s2" d="m113.4 8.4c-0.3 0.3-0.7 0.4-1.7 0.3-3.1-0.4-6.3-1.2-9.5-1.8-6.5-1.2-13-2.6-19.6-4-3.9-1.2-8.2-0.8-12.1 0.6-8.3 2.9-14.3 10-20 16.5"/>
		<path id="map_aysen_Lago_Region_Los_Lagos" fill-rule="evenodd" class="map-aysen s3" d="m169 26.5c-0.2 0.1-0.5 0-0.8-0.1-0.5-0.3-0.6-0.6-0.9-1 0-0.6-0.1-1-0.4-1.4-0.2-0.4-0.8-0.2-0.8-0.9-0.3-0.6 0.1-1.3-0.5-1.7-0.2-0.3-0.3-0.9 0-1.3 0.6-0.5-0.1-0.6-0.4-0.7-0.6-0.1-0.6-0.7-1-0.7-0.2-0.3-0.4-0.8-1-0.5-0.4 0.2-0.4 0.7-1.1 0.7-0.1-0.1-0.7 0.4-1 0.1-0.5-0.1-0.7-0.6-1.3-0.3-0.7 0.4-0.2 1.1-0.2 1.6-0.5-0.2-1 0-1.4-0.4-0.6-0.2-0.7 0.7-1.1 0.2-0.4-0.1-0.3-0.8-0.7-0.8-0.2-0.5-0.8-0.2-1 0.1-0.1 0.4-0.3 0.9-0.9 0.7-0.3-0.3-0.6-0.3-0.9-0.7-0.5-0.2 0-0.8 0-1.2 0.4 0 0.6-0.4 0.7-0.7 0.8-0.4 0.2-1-0.3-1-0.4-0.2-0.9-0.4-0.9-0.8-0.3-0.4-0.8 0.2-0.8 0.5-0.6 0.2-0.9-0.9-1.2-0.1-0.4-0.1-0.7 0.7-0.9 0.4-0.3-0.5 0.2-1.4-0.5-1.4 0-0.6-0.6-0.7-0.2-1.2 0.2-0.9-0.8-0.3-1-0.6-0.3-0.3-0.8 0.2-1.1 0.2-0.6 0.1-1.2 0-1.4-0.4-0.4-0.6 0.3-0.4 0.6-1 0.4-0.1 0.6-0.4 0.9-0.7 0-0.3-0.4-0.8-0.8-0.8-0.4-0.3-0.9-0.2-1.5-0.2-0.1-0.4-0.6-0.5-0.3-1.1 0.2-0.4 0.4-0.7 0.3-1.4 0-0.4-0.4-0.6-0.5-1-0.9-0.1 0.4-0.8 0.2-1.3-0.5 0.2-1.2-0.2-0.9-0.7-0.2-0.2-0.2-0.4-0.2-0.6l0.1-0.3c0-1.1-1.7-0.9-1.7-0.1-0.7 0-1 0.8-1.8 0.5-0.7 0.4-0.3 1.4-0.7 1.9-0.2 0.6-1.1 0.3-1.5 1-1.3-0.1-0.6 0.9-1.1 1.4 0.3 0.8-0.1 1.1-0.4 2-0.2 0.9-1.2 0.3-1.6-0.1-0.7-0.2-1.3-0.5-2-0.8-0.2-0.5-0.9-0.7-1.6-0.9-0.5 0.4-1.9 0.1-1.6 0.8 0.3 1-1.3 0.7-1.4 0.1-0.6 0-1.3-0.1-1.8 0.2-0.7 0.3-1.4 0.3-1.8-0.3 0.3-1-0.4-0.9-1.2-1.3-0.2-0.7 0.9-1 0.6-1.8-0.1-0.9 1.1-1.8 0-2.1-1.1-0.3 0-1.9-0.9-2.4-1-0.2-1.2 0.7-1.2 1.5 0.2 0.7-0.7 1.7-0.4 2.3-0.4 0.9 0.2 1.6-0.5 2 0.1 1.1-1.3 0.6-1.7 0.5-0.7-0.2-0.4-1.4-1.1-1.6 0-0.9-1-0.9-1.7-0.5 0.2 1.4-0.7 0.7-1.4 1-1.5 0-1.5 0.7-2 1.1"/>
		<path id="map_aysen_Lago_Region_Magallanes_agua" fill-rule="evenodd" class="map-aysen s2" d="m14.6 331.8c1.8-0.1 5 0.5 6.4-1 1.6-1.3 2.3-2.4 4-3.6 2.1-0.5 4.6 0.1 5.8-2.4 1.7-0.9 2.9-2 3.9-3.8 1.3-1.3 2.5-4.9 5-3.4 1.8 1.2 3.9 0.5 5.8 0.6 1.9-0.3 3.7 0.4 5.5 1.1 1.9 0.9 3.7 3.2 5.8 2.3 1.2-0.9 2.8-2 5-1.5 1.9 0.5 6 1.4 8 0.8 1-0.4 2-1.2 3.1-1.1"/>
		<path id="map_aysen_Lago_Region_Magallanes" fill-rule="evenodd" class="map-aysen s3" d="m114.3 348.6l-40.1-29c-0.1 0-1.5 0-2 0"/>
		<path id="map_aysen_Lago_Internacional" fill-rule="evenodd" class="map-aysen s4" d="m114.3 348.6v-0.8l0.6-0.6 0.4-0.9 0.2-0.8 0.8-0.9 1.3-0.9 0.3-1.5 0.2-1.2h0.8l0.5-0.4 0.1-0.4 0.2-1.3v-0.9l0.2-0.8 0.3-0.1v-0.9l-0.1-0.6 0.1-1.2h0.7l0.9-1.1 0.2-0.9 0.4-0.5h0.4l0.5 0.2 0.5 0.3 2 1.2 0.8 0.3 0.7-0.3 0.4 0.2 0.7-1.6 0.8-0.9 0.7-1.2 0.7-0.7 1.4-0.6 0.5-0.3v-0.6l0.3-0.8 0.2-0.3h1.2l0.9-0.6 0.7-0.7 1.1-0.8 0.9-0.5 0.7-0.4 0.2-0.6v-6.1l-0.5-3.9-0.8-5-1-2.8 0.3-1.4 0.2-0.6h0.8l0.4 0.8 0.9 0.4 0.4 0.3h0.9l0.2-0.1 1.2 0.1 0.6 0.3 0.3-0.4 0.2-1.2 0.5-0.9 0.4-1.1h1l0.3-0.5 0.1-0.3-0.8-0.6-0.4-0.4-0.2-0.5 0.3-0.6 0.6-0.4 0.4-0.6 0.1-0.6-0.7-1.5 0.2-0.7h0.8l0.8 0.4 0.8 0.1h2.5l0.5-0.7 0.6-1.1 0.2-1.1-0.3-0.4-0.9-0.9-0.8-0.5-0.2-0.6 0.2-0.9-0.2-0.6-0.6-0.7-0.5-0.3v-0.5l0.1-0.8v-0.6l0.1-0.4 0.2-0.3v-1.8l0.1-0.3v-0.5l-0.1-0.4-0.2-0.6-0.2-0.6-0.5-0.5-0.3-0.5-0.1-0.4-0.2-0.1-0.4-0.4-0.3-0.3v-1l-0.1-0.3-0.3 0.1-0.6-0.3h-0.4l-0.2 0.2h-0.7l-0.3-0.2-0.3-0.3v-0.7l0.2-0.6 0.1-0.2 0.2-0.3-0.2-0.6 0.2-0.4 0.1-0.3v-0.3l-0.1-0.6-0.2-0.2 0.2-0.4 0.1-0.5v-0.9l-0.4-0.5-0.2-0.3-0.8-0.3-0.5 0.2h-0.4l-0.4-0.2-0.6-0.1-0.1-0.2-0.2-0.3-0.6-0.6-0.2-0.1-0.2-0.3v-1.2l0.2-0.6 0.1-0.3 0.1-0.2 0.3-0.4 0.2-0.5 0.1-0.3 0.3-0.4 0.3-0.2 0.1-0.3 0.3-0.1 0.2-0.4-0.2-0.3v-0.7l0.2-0.5 0.1-0.3v-0.9l-0.3-0.4-0.3-0.3-0.2-0.2-0.2-0.4-0.1-0.6v-0.8l-0.2-0.6-0.1-0.1-0.5-0.4v-0.2l-0.1-0.4v-0.3c0.7 0.3 1.1 1.2 2 1.1 0.3 1.2 1.2 1 1.9 0.4 1.1-0.2 1.4-2.1 0.2-2.2-1.2 0.6-1.6-1.9-0.4-2 1.3-0.5 0.1-2 1-2.3 0.1-0.4 0.8-1.7 2-1.5 0.4-0.9 0.9-1.9 1.8-2.5-1-0.7-0.5-2.2 0-3 0.7-0.8 0.8-1.8 0.6-2.8-0.2-1.3-1.1-1.1-1.5-2-0.8-1 0.4-1.9 1.3-1.7 0.4-0.8 0.9-1.7 1.9-1.8 0.4-1.1 1.2-0.9 1.8-0.2 0.8 0.1 1.3-1.2 2.1-1.3-0.5-1.1 1.2-1.5 0.6-2.6 0.7-0.8 0.6-2.2 1.9-1.7 0.9-0.1 1.2 1.1 2.1 0.5 0.6-0.8 0.9-2.1 2-2.3 0.2-1-0.5-2-0.4-2.9 0-0.9 1-1.7 0.3-2.7-1.2-1.4 0.4-0.1 1 0 0.9 0.2 1.8 0.7 2.6 0.6 0.6 0.3 2.5 1.4 2 0-1.1 0.2-0.7-1.2-0.9-2-0.3-1.2 2-0.9 1.3-2-0.6-0.8 0.3-2-0.8-2.5 0.1-1.4-1.7-1-2.5-1.6-1.2 0.1-0.7-1.9 0.3-1.5 1.3-0.2 1.3-1.6 2-2.4 0.7-0.8 1-2 0-2.8-1.4 0.3-0.6-0.8-1.5-1.5-0.5 0.2-0.9 0-1.3-0.1l0.1-0.2c0.2-0.7 0.7-1.6 0.1-2.6-0.7-0.9-0.5-1.7 0.3-2.5 0.7-0.9 0.9-1.9 0.7-3 0.2-1.1-1.5-1.4-0.1-2.2 1.2-0.3 2.3-0.4 3.4-0.3 1-0.1 1.6-1 2.4-1.5 1.5-0.6 2-2.5 3.3-3.3 0.7-0.7 1.3-1.3 2.3-1.6 1.1-0.6 0-1.9 0.4-2.8 0.4-1.2-1.3-1.9-0.6-3.1 0-1.2 0.2-2.3-0.4-3.3 0.2-1.1 0.2-2.1-0.3-3.2-0.7-1.2-0.8-2.7-1.3-4.2 0-0.2 0-0.5-0.3-0.8-0.3-1.5-1-2.9-1.3-4.4 0.8-1.2 1.4-2.6 1.3-4.1-0.7-1-0.5-2.4-1.3-3.4-0.8-0.4-0.4-1.7-1.3-1.8-0.9 0.6-1.5 0.2-2.4 0-1-0.2-0.8-1.5-0.8-2.2-0.3 0.1-2 0.7-1.7-0.6 0-0.1-0.1-0.3-0.3-0.4 0.7-0.1 1.3-1.2 2.3-1.4 1.2-0.3 1.7-0.6 2.9-0.1 1.3 0.3 0.7-2.1 2.1-1.5 1.2-0.2 1-1.6 1.8-2.3 1.1-0.6 1.5-1.9 1.9-2.9-0.3-1.1-0.2-2.3 1-1.8 0.8-2.2-1.1-3.9-1.3-6-0.6-0.7-1.4-1.4-2.1-1.7-0.4-0.9-2.4 0-2.4-1.3 0.2-1.1 1.5-2.1 0.4-3 0.5-1 0-1.8-0.4-2.8-0.3-0.8-1.9-2.2-0.4-2.5 0.8-0.7 0.2-1.9-0.3-2.8 1-0.7 0.1-2.2 1-2.5 0.8-0.7 1.5-1.6 1.3-2.5 1.1-0.5-1.9 0.7-1.1-1.1 0.5-1.1 1.5-1.4 2.3-1.6 1-0.4 1-1.8 2.5-1.1 1.1-1.2 1.3 0.7 2.4 0.2 1 0.1 1.7 0.2 2.5-0.7 0.8-0.3 2.2-1 2.4-1.5 0.3-1.3-1.9-0.9-1.5-2.4-0.6-0.8-1.4-0.8-0.9-2.1-0.9-1 0-1.8 1.1-1.7 1-0.3 2-0.3 2.7 0.1-0.5-0.8-0.7-2.2 0.7-2.2 1.5-0.3 2.7-1.5 3.6-2.8 0.3-0.6 0.5-2.3-0.5-2.1-0.3-1 0.4-2.2-0.5-3.1-1.1-0.3-1.3-1.8-2.3-2.4-1.2-0.7-0.6-1.3-0.6-1.7-0.9-0.2-2.2-0.2-2.6-1.3-0.2-0.9-0.2-2.9-1.5-2.2-0.1-0.2 1.1-1.9-0.1-2.7-0.4-1-1.8-1.5-1.4-2.6 0.2-0.9-0.1-2-1-2.4-1.1 0.4-2.2-0.7-3.4-0.3-1.4 0.2-1.8-1.2-3.1-1.2-1.3 1-0.7-1.5-1.7-1.7-0.2 1.3-1.9 0.6-2-0.3-1.1-0.1-1.6 1.4-2.4 2.1-0.1 1.4-0.8-0.7-1.7-0.3-1.4 0.6-0.9-2.2-2.4-1.6-0.1-1.1-1.4-1.2-2.3-1.2-0.5 0.4-2.4-1.7-1-2 0.2-0.4-0.3-0.8-0.7-1.2 0.4-0.8 0.9-1.3 1-2.2 0.8-0.9-1.6-1-0.7-2.2-0.6-1.6 0.9-0.4 1.5-0.8 0.5-0.8 0.6 1 1.1 1.6 0.7-0.7 1.4-0.2 2.2 0.1 0.6 1 1.5 0.2 1.2-0.6-0.2-0.8 1.5 0.2 1.4 0.8 0.5-0.1 1.7 0.7 2.2-0.1 1.7-0.1 0.2-1 0.6-1.6 0.8-0.2 1.2-1.5 2.1-1 0.2 0.7 1.1 0.5 1.9 0.7 0.8 0.5 1.7-0.9 2.1 0.4 0.4 1.3 1.4-0.1 2.3 0.1 1.3 0.3 1.1-0.8 1.5-1.5 1 0.5 1.8-0.6 2.5-0.6 0.6-0.7 1.5-0.6 2.3-0.6-0.1 1.3 1.6 0.7 1.6 1.8 0.9 0.3 1.1 1.2 1.7 1.5 0.9 0.4 1.7-0.3 2.5 0.7 0.7-0.1 1.6 0.7 2.1 0.1 0.9 0 1.6-0.6 1.7-1.6-0.1-1 0.9-1 1.3-1.8 0.4-0.8 0.7-1.4 0.2-2.4-1.1-0.5 0.3-1.5 0.2-2.3-0.8 0.1-1-1-1.6-1.8 0-0.9 1.4-1 0.7-2.1 1.4 0.1 0.3-1.9 1.3-1.5 0.7 0.3 1.5-0.4 2.3 0.3 0.9 0.2 1.8-0.9 1-1.6 0-0.8 0.4-1.9 0.4-2.6-0.7-0.4-0.7-1.8-1.7-1.7-1.3 0.3-1.4-1.4-0.4-1.7 1.3-0.6-1.1-0.7-1-1.8-0.6-1-2-0.5-2.9-0.9-0.2-1.1-1.4-0.8-2.1-0.3-1-0.3-1.7 0.8-2.4-0.4-1 0.6-0.9-0.7-1-1.4-0.7-0.4-1.4-0.8-2.1 0-0.8 0-1.8 0.4-2.6-0.3-0.5 0.8-1.4 0.6-2.3 0.7-0.6 0.8-1.9 0.9-2.7 0.3-0.8-0.2-1.9-0.1-2.6 0.5-0.8 0.5-2-0.4-2.3-0.9-0.3-1.5-0.8 0.7-1.6 0.8-0.7-0.2-1.5 0.5-1.7 0.9-1.2 0.6-1.2-0.5-0.8-1.2-1.2-0.5-0.2-1.4-1.2-1.9 0.6-0.4-0.8-1.2 0.4-1.4 1.1-0.1 1.4-0.8 1.4-1.9-0.3-0.8-0.5-1.9-0.6-2.4 0.3-0.7-1.9-1-0.1-1 0.4-0.6-0.2-2.4 0.9-2.2 0.9-0.4-0.5-1.1-0.5-2-0.6-0.7-0.4-1.7-1.5-2.1-0.1-0.6-0.2-1.5-0.4-2.2 0-1.3 1.7-0.6 1.8-1.5 0.1-0.6 0.1-1-0.1-1.3"/>
	</g>
</svg>