<svg version="1.2" xmlns="http://www.w3.org/2000/svg" viewBox="0 0 200 300" width="200" height="300" style="width: 50%;height: 50%;">
	<style>
		.map-atacama.s0 { fill: none;stroke: #757575;stroke-width: 1.6 }
		.map-atacama.s1 { fill: #ffffff;stroke: #757575; stroke-width: .7}
		.map-atacama.s2 { fill: none;stroke: #3c3c3c;stroke-width: 1.8 }
	</style>
	<g id="layer_mapa_atacama" class="layer_mapa_comuna" data-siglaregion="AT">
		<path id="map_atacama_Diego_de_Almagro" fill-rule="evenodd" class="map-atacama s1" data-siglaregion="AT" data-sigla="diego_de_almagro" data-nombre="Diego de Almagro" d="m191.3 108.8l-13.1-20.3 1.4-13 5.5-4.3 5.5-4-6.5-34.3c-0.9-2.6-2.8-2-2-6 0.4-2 0.9-1.9-0.6-3.7-0.8-0.9-1.4-2.6-1.8-4.5l-0.6-3 1.7-1.7c2-2 2.7-3.6 2-4.9-1.9-0.5-0.7-3.5-0.5-5 0.2 1.6-3.4 1.5-5.7 1.9-3.5 2.5-7.1 8.4-10.6 5.3h-5c-2.4 1.3-4.2 1.2-5.2-0.3l-3.1 0.3c1.4 1.3 2.3 2.6 0.2 3.3 2.3 3 1.4 5.6-1.3 7.9l-3.9 2.3c3.1 0.6 3.3 2.4 2.9 4.4 1.5 2 4.5 4.5 0.8 4.5 0.5 1.4 0.3 2.9-2.6 4.4-1.3 2.5-2.7 4.9-10.7 4.7l-7.8 3.1c-1-2.4-2.1-1.9-3.1-1.6 0.1 1.7-1.8 1.2-3.7 0.8 0.3 1.9 0 3-1.8 2.1l0.5 3.4c-5.6-1.8-12.7 0.1-13.8-2.1-3.1 0.1-6.9 1.3-8.8-0.5l-1.3 2.3-0.1 1.6-3.2 2.3-0.1 3c-2.9 1.8-1.8 4.9-2.3 7.4l-2.2-0.1c-1.2 3.6-3.1 4.2-5 5.1 0.1 4.1-3.3-0.3-4.9 6.4l-1.4 7.1 2.7 1.3 3.8 0.8-0.5 2.2 2.8 2.7v1.6c5.1 3.3 1.4 6.2 0.5 8.2 0.6 0.9 0.7 1.8-0.1 2.5-1.2 2.2-3.1 4.8-1.5 5.9l2.6-0.1c1.9 0.5 1.3 2.2 1 3.8 1 0 2 0.2 2.9 0.6 1 0.5 1.5-0.5 2.2-1 1 0.4 1.1 1.6 0.7 2.5-0.6 0.9-1.1 1.2-0.4 2.1 1.2 1.1 2.9 2 4.4 1 0.5-0.9 0.7-1.9 1.1-2.8 1-0.6 2.3-0.2 3.5-0.5 2-1 3.2-2.9 3.3-5.1 0.1-0.5 1.4-0.3 1.8-0.2 1 0.8 1.6 1.8 2.9 2.2 1 1.7 1.7 4.6 4.1 4.7 1.2-0.3 1.7-0.9 1.8-2.1 0.1-0.8 0.1-1.4 0.4-2.2 1.6-1.6 2.6-4.4 2.4-4.6l0.8-4 6.3-0.5 2.4-3.1h6.5c-2.2 4.3 4.2 5.5 4.5 8.2 2.1 0.3 4.1-1.2 6.1-2 0.8-0.5 0.7 0.2 1.4 0.5 1 0.3 1.9 0.6 2.4 1.5 0.4 0.5 0.8 1 1.3 1.4 1.1 0.1 1.9-0.1 2.8 0.7 0.8 0.6 1.3 0.9 2.2 0.4 1.3 0.9 3.4 0.6 4.5 1.6-0.1 1.1-0.1 3.3 0.5 4 1.4 0.1 0.5-2 1.2-3.6 0.3-0.7 0.6-1.4 0.6-2.2 0.1-1.1 0.3-2.2 1.5-2.4 1-0.1 1.8 0.3 2.6 1 0.1 0.7 1.1 1 1.7 1.3 1.2 0.2 3.1 0.2 4.3 0.2 0.8-0.2 0.4-0.7 2-1.6 1.9-0.7 3.2 0.1 5.3 0.1 1 0.1 1.8 0.7 2.4 1.4 0.8 0.5 1.5 0.6 2-0.3 0.8-0.3 1.6 0 2.3 0.2 1 0.2 1.4-0.2 2.2-0.6z"/>
		<path id="map_atacama_Chanaral" fill-rule="evenodd" class="map-atacama s1" data-siglaregion="AT" data-sigla="chanaral" data-nombre="Chañaral" d="m98.3 50.3c-2.7-1.7-4.1-2.9-4.7-3.9-2.4 0.5-5.2 0.9-6.3 2.1l-2.8 2.1-7-1.1-4-0.8c0.3-3.6-2.5-2-4.1-2.6 0 7.1-4.1 3.8-6.5 4.7-2 2.4-4.2 4.7-8.9 3.7-1.2 3-2.5 6.5-4.4 4.9-1.8 2.6-0.4 2.9 0 3.9 1.4 0.5 2.1 1.9 0.4 2.7-0.3 1.2 1.8 2.1 0.4 3.2-0.4 1.6 1.9 2.6 1.1 4.2-0.7 0.7-2.3 1.9-0.5 2.4 1.5-0.1 2.3 0.9 2.2 2.3 0.6 2-2.8 0.6-2.4 2.5 0.6 1.3-1.8 0.5-1.5 2.1-1.2 1.1 1.5 2.1 0.3 3.5-0.8 1-1.2 2.3-1.3 3.6 0.1 1.3 0.8 2.3 1.6 3.3 0.8 1.1 0.2 2.6-1.2 2.5-0.2 1 0.6 3.1-1.1 3.2 0.4 0.2 0.9 0.4 2.1 0.1 0.6 0.3 0.5 0.9 0.5 1.3 0.5 0.3 1.4-0.1 1.8 0.6 0.3 0.7 0.7 1.5 1.6 1.3 0.8-0.2 1.5 0.4 1.7 1.2 0.6 0.7 1.6 0.4 2.4 0.4 0.9-0.1 1.5 0.7 2.3 1.1 0.7 0.7 1.5 1.2 2.5 1 0.8 0.2 2-0.3 2.3 0.6 0.4 0.8 0.8 1.2 1.9 1.1 1.4 0.2 4.1 4.6 6.2 6.8 0.8 0.4 0.7 0.8 3.4 0.9 1.3 1.5 1.2 2.6 1.4 3.7l5.5-4.7c2.6-3.2 2.8 2.2 5.7-2l1.5-0.2c0.3-1.6 0.9-3.3-1-3.8l-2.6 0.1c-1.6-1.1 0.3-3.7 1.5-5.9 0.8-0.7 0.7-1.6 0.1-2.5 0.9-2 4.6-4.9-0.5-8.2v-1.6l-2.8-2.7 0.5-2.2-3.8-0.8-2.7-1.3 1.4-7.1c1.6-6.7 5-2.3 4.9-6.4 1.9-0.9 3.8-1.5 5-5.1l2.2 0.1c0.5-2.5-0.6-5.6 2.3-7.4l0.1-3 3.2-2.3z"/>
		<path id="map_atacama_Copiapo" fill-rule="evenodd" class="map-atacama s1" data-siglaregion="AT" data-sigla="copiapo" data-nombre="Copiapó" d="m155.8 157.7c0 0.3-0.1 1.6-1.6 0.4-1.5-1.1-2.5-2.9-3.7-4.4-3.4-0.7-0.7-1.6-1.8-3.8 1.8-2.7-1.6-4.1-3.5-5.7 0.8-3-0.8-4.3-2.5-6.8 0.1-2.6-2.4-3.8-5.1-3.3-2.7 2.6-4.4-0.9-5.5-0.5-2.3 2-4 4.6-5.9 7 0.4 3.8-3.7 3.6-3.3 6.8 1 2.9-1.9 4.3-1.2 10.2-2.5 2-2 6.6-5.9 6.5-1.9-2.7-3.5-0.9-5.1 0.7-3.8 3.5-4.1-1.2-6.4 1.1-0.8-1.1-7.7-0.9-4.4-2.3 0-2.1 0.6-6.1-3.1-4.8-2.2-2.3-2.7-2-4.6-0.3-2.7 3.8-4.1 0.6-5.2 0-1.6-1-3.4-2.1-5-3.3-0.2-3.1-4.1-6.6-6.6-3.2-3.6 1.7-4.5 5-5.3 8.4 0.5 2.8 0.7 5.8 0.1 8.9 3.1 1.1-0.9 3.2 1.2 5.2 5.6 1.8-1 6.3 2.5 5.5 2 2.7 0.8 5.3 4.8 2.1 4.4 0.4 0.8 4.1 3.3 6.2 3.3-0.1 2.9 2.6 2.5 5.1 2 0.8 0.6 4 2.5 3.7 2.6-1.6 2.1-0.2 1.5 1.7-0.7 1.7 0.3 0.6-1 2-3.1-0.2-5.8 2-8.8 2.4 1.3-2.8-2.4-2-3-2.3-2-1.4-3.1-0.5-3.4 0.5-2.2 2.4-5.1 3.8-7.7-0.3-3.2 0.1-4.8-4-7.6-5-1.5-0.7-4 1.4-5.6-1.6-1.4 1-3.8-4.6-4.9-0.3-0.1 1.1-0.6 1.7-1.2 2-1.2 0.6-2.9 0.4-3.8 1.7-1.6 0.3-1.9-2.9-4.2-1.6-1.8 0.6-3.3 1-4.3-1.2-0.8-4.4-8-2.4-9.3-5.5 0-0.9 1.8-2.1 0.6-3.4 1.3-2.1-0.6-4.6 2-5.8-0.2-2.4 1.6-5.4 2.7-7.3 0.4-0.9 0.1-3.6 0.4-4.5-0.1-1.6 0.6 1.6 2 2.2 0.6 0.9 1.9-3.7 2.7-0.5 0.3 1.8 4.1 3.9 1.6 5.6 0.1 3.1 3.4 5.3 6.2 3.7 1.3-2.3 4.2 1.7 5.2-1.6 2.7-1 0.2-2.4-0.7-3.4 1.9-3-0.2-6.3-0.3-9.2 3.3-2.2-1.8-4.9 0.7-8.8 0.1-2.4 0.8-3.8 0.6-5.9-0.3-2.2-1.2-3.8-1.2-3.8l8.5-10.7 11.4-7.9h1.5l10.1-9.4 5.5-4.7c2.6-3.2 2.8 2.2 5.7-2l1.5-0.2c1 0 2 0.2 2.9 0.6 1 0.5 1.5-0.5 2.2-1 1 0.4 1.1 1.6 0.7 2.5-0.6 0.9-1.1 1.2-0.4 2.1 1.2 1.1 2.9 2 4.4 1 0.5-0.9 0.7-1.9 1.1-2.8 1-0.6 2.3-0.2 3.5-0.5 2-1 3.2-2.9 3.3-5.1 0.1-0.5 1.4-0.3 1.8-0.2 1 0.8 1.6 1.8 2.9 2.2 1 1.7 1.7 4.6 4.1 4.7 1.2-0.3 1.7-0.9 1.8-2.1 0.1-0.8 0.1-1.4 0.4-2.2 1.6-1.6 2.6-4.4 2.4-4.6l0.8-4 6.3-0.5 2.4-3.1h6.5c-2.2 4.3 4.2 5.5 4.5 8.2 2.1 0.3 4.1-1.2 6.1-2 0.8-0.5 0.7 0.2 1.4 0.5 1 0.3 1.9 0.6 2.4 1.5 0.4 0.5 0.8 1 1.3 1.4 1.1 0.1 1.9-0.1 2.8 0.7 0.8 0.6 1.3 0.9 2.2 0.4 1.3 0.9 3.4 0.6 4.5 1.6-0.1 1.1-0.1 3.3 0.5 4 1.4 0.1 0.5-2 1.2-3.6 0.3-0.7 0.6-1.4 0.6-2.2 0.1-1.1 0.3-2.2 1.5-2.4 1-0.1 1.8 0.3 2.6 1 0.1 0.7 1.1 1 1.7 1.3 1.2 0.2 3.1 0.2 4.3 0.2 0.8-0.2 0.4-0.7 2-1.6 1.9-0.7 3.2 0.1 5.3 0.1 1 0.1 1.8 0.7 2.4 1.4 0.8 0.5 1.5 0.6 2-0.3 0.8-0.3 1.6 0 2.3 0.2 1 0.2 1.4-0.2 2.2-0.6l6.8 10.4c0.2 1.3-0.4 2.1-1.2 2.5-1.2 0.7-1.8 2.2-1.8 4.8 0 2 0 2-2 2-3.2 0-7.7 1.8-9.6 3.8-1.6 1.6-1.8 1.7-3.2 1.1-1.4-0.5-1.6-0.4-2.8 1.1-1.2 1.6-1.3 1.7-3 1.2-1.3-0.4-2.1-1.2-3.2-3-1.5-2.5-1.6-2.5-3.7-2.2-1.2 0.1-2.3 0.6-2.6 1.1-0.2 0.5-1.2 1.6-2 2.4-1.2 1.2-1.7 2.2-1.9 4.2-0.3 2.4-0.2 2.6 0.9 3.4 1.8 1.1 1.6 1.8-0.6 3-1.5 0.8-2 1.4-2.4 3.3-0.4 1.3-1.1 2.8-1.7 3.4-0.5 0.6-1 1.3-1 1.5 0 0.3-0.6 0.5-1.3 0.5h-1.2l1 1.9c0.5 1 1 2.1 1 2.5z"/>
		<path id="map_atacama_Tierra_Amarilla" fill-rule="evenodd" class="map-atacama s1" data-siglaregion="AT" data-sigla="tierra_amarilla" data-nombre="Tierra Amarilla" d="m112.3 232.6c-0.3 0.3-0.8 0.5-2.1 0.4-0.9 0.2-1.8 0.1-2.5 0.6-1.4 0.3-2.8 0.9-4.4 0.5-1.4-0.2-2.5-1.1-3.9-1.4-1.4 0-2.9 0.1-3.7-1.4-0.8-1.2-1.7-0.3-2.7 0-0.6 0.2-1.4 0.2-1.4-0.3 0.1-1.2-1.4-1.4 0.2-5.1 0.9-1.1-0.3-1.8-0.3-4.1-0.1-1.9-0.4-3.8-1.1-5.5-1.2-2.3-0.8-3-0.1-5.6 0.7-1.3-0.6-2.4-1.5-3.1-0.9-0.6-1.8-1-1.3-6.8 1.3-1.4 0.3-0.3 1-2 0.6-1.9 1.1-3.3-1.5-1.7-1.9 0.3-0.5-2.9-2.5-3.7 0.4-2.5 0.8-5.2-2.5-5.1-2.5-2.1 1.1-5.8-3.3-6.2-4 3.2-2.8 0.6-4.8-2.1-3.5 0.8 3.1-3.7-2.5-5.5-2.1-2 1.9-4.1-1.2-5.2 0.6-3.1 0.4-6.1-0.1-8.9 0.8-3.4 1.7-6.7 5.3-8.4 2.5-3.4 6.4 0.1 6.6 3.2 1.6 1.2 3.4 2.3 5 3.3 1.1 0.6 2.5 3.8 5.2 0 1.9-1.7 2.4-2 4.6 0.3 3.7-1.3 3.1 2.7 3.1 4.8-3.3 1.4 3.6 1.2 4.4 2.3 2.3-2.3 2.6 2.4 6.4-1.1 1.6-1.6 3.2-3.4 5.1-0.7 3.9 0.1 3.4-4.5 5.9-6.5-0.7-5.9 2.2-7.3 1.2-10.2-0.4-3.2 3.7-3 3.3-6.8 1.9-2.4 3.6-5 5.9-7 1.1-0.4 2.8 3.1 5.5 0.5 2.7-0.5 5.2 0.7 5.1 3.3 1.7 2.5 3.3 3.8 2.5 6.8 1.9 1.6 5.3 3 3.5 5.7 1.1 2.2-1.6 3.1 1.8 3.8 1.2 1.5 2.2 3.3 3.7 4.4 1.5 1.2 1.6-0.1 1.6-0.4 0 0.7-2.6 4.6-3.1 4.6-0.2 0-1.1 0.6-1.9 1.4-1.6 1.3-1.6 1.4-1.3 4.6 0.3 2.9 0.2 3.3-0.7 4-0.6 0.5-1.2 1.6-1.3 2.8-0.4 2.6-2.6 10-3.7 12.2-1 2.1-1.8 2.7-3.4 2.8-0.9 0-1.7 0.5-2.5 1.7-0.6 1-1 1.9-0.9 2.2 0.2 0.2-0.3 1.1-1 1.9-0.7 0.9-1.3 2-1.3 2.6 0 1.6-1.8 4.7-3.4 5.9-0.9 0.6-1.6 1.4-1.6 1.8 0 1.2-1.3 1.4-2.7 0.4-1.5-0.9-2.8-0.6-2.8 0.7 0 1.8-3.2 7.3-4.6 8-0.8 0.4-1.7 1.2-2 1.9-0.3 0.6-1.2 1.4-2 1.7-1.1 0.4-1.4 0.7-1.2 1.3 0.2 0.5-0.1 1.4-0.7 2.1-0.7 0.9-0.8 1.5-0.5 2.1 1 1.8 0.4 6.7-0.9 8.2z"/>
		<path id="map_atacama_Caldera" fill-rule="evenodd" class="map-atacama s1" data-siglaregion="AT" data-sigla="caldera" data-nombre="Caldera" d="m47.6 98.8c-0.4-0.2 0.9 0.7-0.2 2-1.1 1.2-3 2.9-1.1 4.4 2 2.1-1.6 0.9-1.7 2.1-0.4 2.5-1.9 4.7-2.9 7-1.9 1.8 1.6 3.7 1.4 5.5-2.1 1.6 1.7 0.4 0.8 2.1-2.4 1.7-0.9 4.7-3 6.4-1.8 0.7-1 2.7-2.4 3.6-1.5 3.1-3.9-2.7-4.9-0.5-0.1 1.9-3.4 4.5-0.9 5.8 2.6 0.7-0.2 2.6 0.9 4.1 1.7 1.5 2.7 4.4 0.2 5.7-2.2 2.2 1.7 3.8 1.7 5.7 0.4 2.2 3.5 3.6 2.6 6.1-0.8 2.4-1.1 5-1.1 7.5-2.3-0.1-0.2 2.9-2.2 2.8-2-0.1-1-0.7-0.7 1.2 0.3 1.8 4.1 3.9 1.6 5.6 0.1 3.1 3.4 5.3 6.2 3.7 1.3-2.3 4.2 1.7 5.2-1.6 2.7-1 0.2-2.4-0.7-3.4 1.9-3-0.2-6.3-0.3-9.2 3.3-2.2-1.8-4.9 0.7-8.8 0.1-2.4 0.8-3.8 0.6-5.9-0.3-2.2-1.2-3.8-1.2-3.8l8.5-10.7 11.4-7.9h1.5l10.1-9.4c-0.2-1.1-0.1-2.2-1.4-3.7-2.7-0.1-2.6-0.5-3.4-0.9-2.1-2.2-4.8-6.6-6.2-6.8-1.1 0.1-1.5-0.3-1.9-1.1-0.3-0.9-1.5-0.4-2.3-0.6-1 0.2-1.8-0.3-2.5-1-0.8-0.4-1.4-1.2-2.3-1.1-0.8 0-1.8 0.3-2.4-0.4-0.2-0.8-0.9-1.4-1.7-1.2-0.9 0.2-1.3-0.6-1.6-1.3-0.4-0.7-1.3-0.3-1.8-0.6 0-0.4 0.1-1-0.5-1.3-1.2 0.3-1.7 0.1-2.1-0.1z"/>
		<path id="map_atacama_Alto_del_Carmen" fill-rule="evenodd" class="map-atacama s1" data-siglaregion="AT" data-sigla="alto_del_carmen" data-nombre="Alto del Carmen" d="m91.6 231l-1.5 1c-1.1 0.2-0.4 1.7-1.4 2-2-0.8-1.9-4.4-4.7-3.8-3.7 1-2.6 3.4-4.9 4.8-0.4 2.4-2.4 3.8-4.9 3.3 0-2-1.7-2.5-2.3-2.5-0.8-3.4-3 0.3-4.8 0.5-0.8-1.2-1.8-2.9-3.7-3.4-2.5-0.7-0.4 2.2-5.8 1.9 0.5 1.4 0.1 2.8-1.7 2.3-1.7 2.2 2.8 2.6 3.2 4.6-0.1 1.7 2.9 3 1.7 4.4-2.7-0.7-1.8 3.8-2.5 5.5 2.8 0.8 4.6 0.7 6.2 2.5-0.8 1.1 0 3.5-2.3 3.7 2.5 0.4 0.1 3.1-1 4.1l0.2 1.2c0.9 0.3 0.9 1.8 0 3.1-0.1 3 4.7 4.7 2.8 7.9 3.1 1.8 0.1 4.7 1.9 6.5 2 1.2 0.7 1.7-0.2 3.3-1 1.5 5.5 5.6 5.1 1.6 2.9-1.5 5.6-0.2 7.3 2.2 1.7 2.2 3.1 4.6 4.6 7.1 1.5-0.5 2.6 1.8 3.8 0.5 3.2 1.3 6-1.9 9-1.8 0.9 0 1.1-1.4 0.3-2.9-0.5-0.8-0.8-2.1-0.8-2.8 0-0.7-0.4-1.5-0.9-1.9-2.4-1.6-1.5-6.1 1.5-7.7 1.4-0.7 1.5-0.9 1.3-2.7-0.3-1.7-0.1-2.1 1.5-3.6 2.3-2.2 3.6-2.9 5.5-2.9 2 0 2.5-1 2.2-4-0.1-1.7 0.1-2.9 0.9-4.4 0.7-1.6 1-2.9 0.9-5 0-2.2 0.2-3.4 1.2-5.4 0.7-1.4 1.6-3.4 1.9-4.6 0.6-2 0.6-2.2-0.5-3.4-0.9-0.9-1-1.6-0.9-3.1 0.4-2.4 1.5-5.3 2.5-6.5-0.3 0.3-0.8 0.5-2.1 0.4-0.9 0.2-1.8 0.1-2.5 0.6-1.4 0.3-2.8 0.9-4.4 0.5-1.4-0.2-2.5-1.1-3.9-1.4-1.4 0-2.9 0.1-3.7-1.4-0.8-1.2-1.7-0.3-2.7 0-0.6 0.2-1.4 0.2-1.4-0.3z"/>
		<path id="map_atacama_Vallenar" fill-rule="evenodd" class="map-atacama s1" data-siglaregion="AT" data-sigla="vallenar" data-nombre="Vallenar" d="m43 213.9c0.7 0.5 2 3.4-0.1 4.4 0.1 1.7-3.4 1.6-1.2 3.1 0.7 1.8-2.4 2.8-3.2 4.3-0.6-1.4-0.7 4.8-2.7 8.1-1.4 0.8-0.3 4.5-2.5 3.5-0.5-2.7-2.5 0.2-4.1-0.2-1.1 1-2.4 1.7-2.2 3.5-0.2 2.6 3.7 2 5.4 1.9 2.7 0.6-0.3 4-1.5 4.9-2.1 1.4 0.6 4.1-1.8 5.1 0.3 2.1 1.3 4.1 1.4 6.3 0.8 2.1 2.2 4 2.2 6.3 1.6 1.5 1 3.8-0.9 4 1.9 2-2.4 2.7-3 4.5 0.3-2-3.4-1.7-4.3-1-0.7 0.9-2.6-0.8-2.1 1 1 2.3-0.3 7.8 2.6 7.5 0.5 1 1.8 0.4 2.8 0.1 1.4-0.3 2.1 1.8 1.3 3.5 1.9 1.6 5.3-1.7 4.8-4.2 3.3-1.1-0.8-3.7 2.4-6.2-1.6-2.5 0.7-2.2 2.2-3 0.6-2 1.4-1.5 2.9-1.1 1.1 0.2 2.9 0.3 4-0.2 5.2-4.5 5.1-1.7 5.5-4.5-2.2-1.6 2.3-2.3 3.3-1.8 1-0.2 2.6-1.3 3.1-1.3 0.5 0 0.2 1.2 1.7 1 1.1-0.3 1.9-0.6 2.4-0.3l-0.2-1.2c1.1-1 3.5-3.7 1-4.1 2.3-0.2 1.5-2.6 2.3-3.7-1.6-1.8-3.4-1.7-6.2-2.5 0.7-1.7-0.2-6.2 2.5-5.5 1.2-1.4-1.8-2.7-1.7-4.4-0.4-2-4.9-2.4-3.2-4.6 1.8 0.5 2.2-0.9 1.7-2.3 5.4 0.3 3.3-2.6 5.8-1.9 1.9 0.5 2.9 2.2 3.7 3.4 1.8-0.2 4-3.9 4.8-0.5 0.6 0 2.3 0.5 2.3 2.5 2.5 0.5 4.5-0.9 4.9-3.3 2.3-1.4 1.2-3.8 4.9-4.8 2.8-0.6 2.7 3 4.7 3.8 1-0.3 0.3-1.8 1.4-2l1.5-1c0.1-1.2-1.4-1.4 0.2-5.1 0.9-1.1-0.3-1.8-0.3-4.1-0.1-1.9-0.4-3.8-1.1-5.5-1.2-2.3-0.8-3-0.1-5.6 0.7-1.3-0.6-2.4-1.5-3.1-0.9-0.6-1.8-1-1.3-6.8-3.1-0.2-5.8 2-8.8 2.4 1.3-2.8-2.4-2-3-2.3-2-1.4-3.1-0.5-3.4 0.5-2.2 2.4-5.1 3.8-7.7-0.3-3.2 0.1-4.8-4-7.6-5-1.5-0.7-4 1.4-5.6-1.6-1.4 1-3.8-4.6-4.9-0.3-0.1 1.1-0.6 1.7-1.2 2l0.4 17.2c-2.9-1.5-1.9 0.3-2.7 0.5z"/>
		<path id="map_atacama_Freirina" fill-rule="evenodd" class="map-atacama s1" data-siglaregion="AT" data-sigla="freirina" data-nombre="Freirina" d="m31.5 214.5c0.5 0.1 2.1-1.9 1.9-2.6 0.4-1.8 1.2-0.7 3.1 0 1.1-0.4 2.3-0.5 3.5-0.6 0.3 0.5 0.6 0.9 0.8 1.3 0.6 0.7 0.9 1.4 2.2 1.3 0.7 0.5 2 3.4-0.1 4.4 0.1 1.7-3.4 1.6-1.2 3.1 0.7 1.8-2.4 2.8-3.2 4.3-0.6-1.4-0.7 4.8-2.7 8.1-1.4 0.8-0.3 4.5-2.5 3.5-0.5-2.7-2.5 0.2-4.1-0.2-1.1 1-2.4 1.7-2.2 3.5-0.2 2.6 3.7 2 5.4 1.9 2.7 0.6-0.3 4-1.5 4.9-2.1 1.4 0.6 4.1-1.8 5.1 0.3 2.1 1.3 4.1 1.4 6.3 0.8 2.1 2.2 4 2.2 6.3 1.6 1.5 1 3.8-0.9 4 1.9 2-2.4 2.7-3 4.5 0.3-2-3.4-1.7-4.3-1-0.7 0.9-2.6-0.8-2.1 1-2.8-0.5-5.6 1.4-7.2-1.8-1.6-0.9-3.1-1.1-3.9 1.1-0.3 2.6-4.7 0.7-6.5 1-1.9 0.3 1.3-0.3-0.3-1.1-1.6-0.7-1.2-3.3 0.7-3 1.9-0.8 0.3-3.1-1.3-2.7 1.2-0.9 1.1-2.2 0-3.1 0.8-1.3-0.5-2.5-1.1-3.6-0.5-1-2.2 0.9-1.4-0.9 0.4-0.9 1.1-2.1-0.1-2.7-0.8-1.6 0.1-3.3 0.9-4.6 0.4-1.9 2.8-1.1 3.3-2.6 0.4-1.6 2.6-0.6 3.5-2 1-1.1 0.9-3 2.5-3.8 1-1.1 1.2-2.6 2.1-3.7 0.2-1.8 2.7-2.1 2-3.8 0.1-0.6 1.1-1.6-0.1-1.7-0.9-0.7-0.7-2.3-1.8-2.7 0.7 1.1 2.2 1.1 3.6 1 1.9 0.9 2.6 0.2 4.3-0.6 0.9 1.2 1.6 1.6 3.1 1.2 0.9-0.4-0.3-1.5-0.3-1.7 0.1-1.3-0.4-2.4-0.7-3.7 0.7-1.2 0.6-2.5 0.8-3.8 0-0.2 2.2-1 2.6-1.3 0.8-0.8 0.8-1.9 1.7-2.1 0.7-0.2 2 0.1 2.6 0-0.7-0.8-1.4-1.5-1.8-2.5-0.2-0.3 2.2-3.3 1.9-3.9z"/>
		<path id="map_atacama_Huasco" fill-rule="evenodd" class="map-atacama s1" data-siglaregion="AT" data-sigla="huasco" data-nombre="Huasco" d="m43 213.9c-1.3 0.1-1.6-0.6-2.2-1.3-0.2-0.4-0.5-0.8-0.8-1.3-1.2 0.1-2.4 0.2-3.5 0.6-1.9-0.7-2.7-1.8-3.1 0 0.2 0.7-1.4 2.7-1.9 2.6 0.3 0.6-2.1 3.6-1.9 3.9 0.4 1 1.1 1.7 1.8 2.5-0.6 0.1-1.9-0.2-2.6 0-0.9 0.2-0.9 1.3-1.7 2.1-0.4 0.3-2.6 1.1-2.6 1.3-0.2 1.3-0.1 2.6-0.8 3.8 0.3 1.3 0.8 2.4 0.7 3.7 0 0.2 1.2 1.3 0.3 1.7-1.5 0.4-2.2 0-3.1-1.2-1.7 0.8-2.4 1.5-4.3 0.6-1.4 0.1-2.9 0.1-3.6-1l1.1-1.2c1.9 0.5 3.2-2 1.8-3.3-0.8-0.6-0.5-1 0.4-1.1-0.1-1.4 1.2-1.9 1.9-3 0.8-0.8 1.6-1.2 1.5-2.5 0.8-1.2-0.5-2.8 1.2-3.3 1.8-1.1-0.4-2.8-1.2-3.8-0.7-0.4-1.1-1.4 0.2-1.2 1.1-0.7 0.8-2.5 1.1-3.7 0.3-1.2 1.1-2.5 0.3-3.6-1.1-0.6 0.4-2.3 0.2-3.4 0.4-1.1-0.3-1.1-1.3-1.4-0.3-1.2 1.5-2.1 1.9-3.2-0.5-1 0.9-2.8-0.1-4.8 0.1-1.4-0.1-2 1-2.8 1.3 3.1 8.5 1.1 9.3 5.5 1 2.2 2.5 1.8 4.3 1.2 2.3-1.3 2.6 1.9 4.2 1.6 0.9-1.3 2.6-1.1 3.8-1.7l0.4 17.2c-2.9-1.5-1.9 0.3-2.7 0.5z"/>
		<path id="map_atacama_limite_antofagasta" fill-rule="evenodd" class="map-atacama s0" d="m182.3 4c0.2 1.7-3.4 1.6-5.7 2-3.5 2.5-7.1 8.4-10.6 5.3h-5c-2.4 1.3-4.2 1.2-5.2-0.3l-3.1 0.3c1.4 1.3 2.3 2.6 0.2 3.3 2.3 3 1.4 5.6-1.3 7.9l-3.9 2.3c3.1 0.6 3.3 2.4 2.9 4.4 1.5 2 4.5 4.5 0.8 4.5 0.5 1.4 0.3 2.9-2.6 4.4-1.3 2.5-2.7 4.9-10.7 4.7l-7.8 3.1c-1-2.4-2.1-1.9-3.1-1.6 0.1 1.7-1.8 1.2-3.7 0.8 0.3 1.9 0 3-1.8 2.1l0.5 3.4c-5.6-1.8-12.7 0.1-13.8-2.1-3.1 0.1-6.9 1.3-8.8-0.5l-1.3 2.3c-2.7-1.7-4.1-2.9-4.7-3.9-2.4 0.5-5.2 0.9-6.3 2.1l-2.8 2.1-7-1.1-4-0.8c0.3-3.6-2.5-2-4.1-2.6 0 7.1-4.1 3.8-6.5 4.7-2 2.4-4.2 4.7-8.9 3.7-1.2 3-2.5 6.5-4.4 4.9"/>
		<path id="map_atacama_limite_Coquimbo" fill-rule="evenodd" class="map-atacama s0" d="m95.8 293.8c-3.1-0.1-5.9 2.8-9.1 1.5-1.2 1.3-2.3-1-3.8-0.5-1.5-2.5-2.9-4.9-4.6-7.1-1.7-2.4-4.4-3.7-7.3-2.2 0.4 4-6.1-0.1-5.1-1.6 0.9-1.6 2.2-2.1 0.2-3.3-1.8-1.8 1.2-4.7-1.9-6.5 1.9-3.2-2.9-4.9-2.8-7.9 0.9-1.3 0.9-2.8 0-3.1-0.5-0.3-1.3 0-2.4 0.3-1.5 0.2-1.2-1-1.7-1-0.5 0-2.1 1.1-3.1 1.3-1-0.5-5.5 0.2-3.3 1.8-0.4 2.8-0.3 0-5.5 4.5-1.1 0.5-2.9 0.4-4 0.2-1.5-0.4-2.3-0.9-2.9 1.1-1.5 0.8-3.8 0.5-2.2 3-3.2 2.5 0.9 5.1-2.4 6.2 0.5 2.5-2.9 5.8-4.8 4.2 0.8-1.7 0.1-3.8-1.3-3.5-1 0.3-2.3 0.9-2.8-0.1-2.9 0.3-1.6-5.2-2.6-7.5-2.8-0.5-5.6 1.4-7.2-1.8-1.6-0.9-3.1-1.1-3.9 1.1-0.3 2.6-4.7 0.7-6.5 1"/>
		<path id="map_atacama_limite_Internacional" fill-rule="evenodd" class="map-atacama s2" d="m182.3 4.2c-0.2 1.4-1.4 4.4 0.5 4.9 0.7 1.3 0 2.9-2 4.9l-1.7 1.7 0.6 3c0.4 1.9 1 3.6 1.8 4.5 1.5 1.8 1 1.7 0.6 3.7-0.8 4 1.1 3.4 2 6l6.5 34.3-5.5 4-5.5 4.3-1.4 13 13.1 20.3 6.8 10.4c0.2 1.3-0.4 2.1-1.2 2.5-1.2 0.7-1.8 2.2-1.8 4.8 0 2 0 2-2 2-3.2 0-7.7 1.8-9.6 3.8-1.6 1.6-1.8 1.7-3.2 1.1-1.4-0.5-1.6-0.4-2.8 1.1-1.2 1.6-1.3 1.7-3 1.2-1.3-0.4-2.1-1.2-3.2-3-1.5-2.5-1.6-2.5-3.7-2.2-1.2 0.1-2.3 0.6-2.6 1.1-0.2 0.5-1.2 1.6-2 2.4-1.2 1.2-1.7 2.2-1.9 4.2-0.3 2.4-0.2 2.6 0.9 3.4 1.8 1.1 1.6 1.8-0.6 3-1.5 0.8-2 1.4-2.4 3.3-0.4 1.3-1.1 2.8-1.7 3.4-0.5 0.6-1 1.3-1 1.5 0 0.3-0.6 0.5-1.3 0.5h-1.2l1 1.9c0.5 1 1 2.1 1 2.5 0 0.7-2.6 4.6-3.1 4.6-0.2 0-1.1 0.6-1.9 1.4-1.6 1.3-1.6 1.4-1.3 4.6 0.3 2.9 0.2 3.3-0.7 4-0.6 0.5-1.2 1.6-1.3 2.8-0.4 2.6-2.6 10-3.7 12.2-1 2.1-1.8 2.7-3.4 2.8-0.9 0-1.7 0.5-2.5 1.7-0.6 1-1 1.9-0.9 2.2 0.2 0.2-0.3 1.1-1 1.9-0.7 0.9-1.3 2-1.3 2.6 0 1.6-1.8 4.7-3.4 5.9-0.9 0.6-1.6 1.4-1.6 1.8 0 1.2-1.3 1.4-2.7 0.4-1.5-0.9-2.8-0.6-2.8 0.7 0 1.8-3.2 7.3-4.6 8-0.8 0.4-1.7 1.2-2 1.9-0.3 0.6-1.2 1.4-2 1.7-1.1 0.4-1.4 0.7-1.2 1.3 0.2 0.5-0.1 1.4-0.7 2.1-0.7 0.9-0.8 1.5-0.5 2.1 1 1.8 0.4 6.7-0.9 8.2-1 1.2-2.1 4.1-2.5 6.5-0.1 1.5 0 2.2 0.9 3.1 1.1 1.2 1.1 1.4 0.5 3.4-0.3 1.2-1.2 3.2-1.9 4.6-1 2-1.2 3.2-1.2 5.4 0.1 2.1-0.2 3.4-0.9 5-0.8 1.5-1 2.7-0.9 4.4 0.3 3-0.2 4-2.2 4-1.9 0-3.2 0.7-5.5 2.9-1.6 1.5-1.8 1.9-1.5 3.6 0.2 1.8 0.1 2-1.3 2.7-3 1.6-3.9 6.1-1.5 7.7 0.5 0.4 0.9 1.2 0.9 1.9 0 0.7 0.3 2 0.8 2.8 0.8 1.5 0.6 2.9-0.3 2.9"/>
	</g>
</svg>