<svg version="1.2" xmlns="http://www.w3.org/2000/svg" viewBox="0 0 210 250" width="200" height="250" style="width: 90%;height: 90%;">
	<style>
		.map-valparaiso.s0 { fill: none;stroke: #757575; stroke-width: 0.71 }
		.map-valparaiso.s1 { fill: #ffffff; stroke: #757575; stroke-width: .45 }
		.map-valparaiso.s2 { fill: #000000 }
		.map-valparaiso.s3 { fill: none;stroke: #3c3c3c; stroke-width: 0.99 }
	</style>
	<g id="layer_mapa_valparaiso" class="layer_mapa_comuna" data-siglaregion="VA">
		<path id="map_valparaiso_Santo_Domingo" fill-rule="evenodd" class="map-valparaiso s1" data-siglaregion="VA" data-sigla="santo_domingo" data-nombre="Santo Domingo" d="m23.3 247.3c-1.9-0.1-1.7 0.6-2.4 0.9-0.7 0.3 0.1-1.2-0.6-2.1-0.7-0.9-0.6 0.4-2.5 0.3-0.5-0.1 0.7-2.5 0.3-2.5-1.1-0.2-2 3.6-3 1.1-0.4-1.1-2-0.9-2.7-1.9-0.4-0.6-0.4-1.3-2.2 0.8-0.6 0.6-0.9-0.3-1.5-0.6 0.6-0.9 1.9-1.5 1-3.1 0.2-0.1-0.1-1.9-0.1-2.9 0-1.1 0.3-2.7 0.7-3.5 0.3-0.9 0.6-2.1 0.6-2.7 0-0.6 0.4-1.6 0.7-2.2 0.4-0.5 1-1.8 1.3-2.8 0.4-1.4 0.8-1.8 1.8-2.1 10.8-3.9 14.7-6.9 14.3-18.5l1.2-0.2c0.6 0.9 1.8 0.8 2.5 1.5 0.4 0.7 1.6 0.5 1.7 1.4 0.2 1.8 0.5 3.6 1.3 4.3 0.7 0.5 0 1.8 0.5 2.5 0.4 0.6 0.9 0.9 1.1 1.5 0.5 0.6 0.3 2.5 0 3.3 0.2 0.8 1.7 1.2 2.4 1.4l0.1 3.1c-0.5 0.1-0.9 0.4-1.3 1.3l-0.3 12.4-1.4 0.1c-0.4 0.4-0.5-0.5-1.1-1q-3.7 2.8-7.4 5.5c-0.9 0.8-2 1.4-2.9 2.3-1 0.3-3.1 1.2-2.1 2.4z"/>
		<path id="map_valparaiso_San_Antonio" fill-rule="evenodd" class="map-valparaiso s1" data-siglaregion="VA" data-sigla="san_antonio" data-nombre="San Antonio" d="m31.1 197.6c-1.6-2.4 0.1 0.3 1.6 0.3 1.4 0 3.1-0.1 4.4 0.4 1.3 0.9 3.2-0.2 4.3 1.2 1.3 1.6 3.6 0.3 5.2 1.4 0.9 0.6 2 1.1 3.1 1.5 1.2 0.5 2.7 2.5 3.9 0.7 0.6-1.6 3.2-0.3 3.6-2.3 0.9-0.5 2.1-1.1 3.1-1 1.1 0.1 1.8-1.4 1.4-0.7-0.4 0.8-0.2 1.6 0.2 2.4l-0.6 0.8c-0.3 1.4-0.6 2.7-1.3 2.5l-1.4 1.2c-1.5-0.1-3.6-0.6-2.5 1.9-2.1 0.7-1.3 2.3-1.6 3.5l-1.6-1.3-1.5 1.2 0.1 0.5c-2.2 2.9-0.2 2.7 0.9 3-0.1 0.9-1.2 1.3 0.7 3.1l1.9 1.2c0.5 2.6 1.5 1.2 3.3 3.1l-0.1 1.8c0.1 0.8-0.3 1.7-1.1 2.5-1.5 0.3-3.4-0.4-4.4 1.1-1.1-1-3-0.8-3-0.8h-2.5l-2-1.6h-2.2l-0.8 0.7c-0.8-1-1.6-1.7-2.4-1.6l-0.1-3.1c-0.7-0.2-2.2-0.6-2.4-1.4 0.3-0.8 0.5-2.7 0-3.3-0.2-0.6-0.7-0.9-1.1-1.5-0.5-0.7 0.2-2-0.5-2.5-0.8-0.7-1.1-2.5-1.3-4.3-0.1-0.9-1.3-0.7-1.7-1.4-0.7-0.7-1.9-0.6-2.5-1.5l-1.2 0.2c1.9-2.3 3.7-5.6 2.1-7.9z"/>
		<path id="map_valparaiso_Cartagena" fill-rule="evenodd" class="map-valparaiso s1" data-siglaregion="VA" data-sigla="cartagena" data-nombre="Cartagena" d="m31.7 193c2.1-0.4 3.7 1.6 5.6 0.6 0.7-2 3.3-0.6 4.9-0.9 0.5-1.9 2-3.9 2.8-5.5 1.3 1 4.4 3.1 5 0.5 2-0.7 2.8-3.6 5.5-2.7 1.1-0.6 4.9-2.1 5-1.6 0 1.7-0.8 3.6-0.1 4.2-1.6 1.5-1.9 3-0.7 4.5 0.2 1-1.4 2.8 1 2.8 0.4 0.7 0.8 1.9 1 4.2 0.4-0.7-0.3 0.8-1.4 0.7-1-0.1-2.2 0.5-3.1 1-0.4 2-3 0.7-3.6 2.3-1.2 1.8-2.7-0.2-3.9-0.7-1.1-0.4-2.2-0.9-3.1-1.5-1.6-1.1-3.9 0.2-5.2-1.4-1.1-1.4-3-0.3-4.3-1.2-1.3-0.5-3-0.1-4.4-0.4l-1.6-0.3c1.1-1.1 2.1-2.1 0.6-4.6z"/>
		<path id="map_valparaiso_El_Tabo" fill-rule="evenodd" class="map-valparaiso s1" data-siglaregion="VA" data-sigla="el_tabo" data-nombre="El Tabo" d="m24.2 184c-1-0.6 2.1 0.1 2.9-0.7 1.2-1.2 2.5-1.5 3.6-0.2 0.7 0.8 1.4 1.6 2.4 2 1.1 0.5 2.3 0.3 3.4 0.2 1-0.4 2.1-0.4 3 0 1.3 0.7 3.1 2.9 4.1 1.7-0.6 0.4 1.4-0.4 1.4 0.2-0.8 1.6-2.3 3.6-2.8 5.5-1.6 0.3-4.2-1.1-4.9 0.9-1.9 1-3.5-1-5.6-0.6-0.7-1.4-2.2-2.6-3.9-3.1 0-0.5-0.1-1.4-0.7-2.1-0.6-2.6-2-3.1-2.9-3.8z"/>
		<path id="map_valparaiso_El_Quisco" fill-rule="evenodd" class="map-valparaiso s1" data-siglaregion="VA" data-sigla="el_quisco" data-nombre="El Quisco" d="m24.2 184c-1-0.6 2.1 0.1 2.9-0.7 1-1.2 2.7-1.3 3.6-0.2 1.2 0.1 2-1.2 2.5-2 0.8-1 0.4-2 0-2.9-0.4-0.9-0.9 0.2-1.8-0.7-0.9-0.9-0.6 0.4-1.2 0.4-1 0-0.9 0.3-1.4 0.5-0.1 0-1.8 0.5-2 0.1 0 0-0.2-0.7-0.7-1-0.6-0.3-0.8-1.1-2.1-1.5-0.2 0-1.3-0.8-1.6-1.5 0.4 1.5-0.3 3.9-1.7 6.3 0.2 0.4 0.7 0.9 1.6 1.7 0.9 0.8 1.9 1.3 1.9 1.5z"/>
		<path id="map_valparaiso_Algarrobo" fill-rule="evenodd" class="map-valparaiso s1" data-siglaregion="VA" data-sigla="algarrobo" data-nombre="Algarrobo" d="m33.2 178.2c-0.4-0.9-0.9 0.2-1.8-0.7-0.9-0.9-0.6 0.4-1.2 0.4-1 0-0.9 0.3-1.4 0.5-0.1 0-1.8 0.5-2 0.1 0 0-0.2-0.7-0.7-1-0.6-0.3-0.8-1.1-2.1-1.5-0.2 0-1.3-0.8-1.6-1.5-0.2-0.6 4.2-0.6 4.7-3.4-0.5-2.3 0.3-4.9-0.9-6.9-0.2-0.2-0.8-0.6-1.2-1-0.5-0.4 2 0.2 0.9-0.9 0.8-0.8 2.1-1.3 3.2-0.9 0.9 0.9 0.8-0.7 1.7-0.7 0.8-0.7 2.3-1.1 2.8 0.1 1.1 1 1.7-0.5 2.7-0.6 0.9-0.1 2.6-0.5 2.9 0.7 0 1.1 0 2.1-0.2 3.2-0.1 1.2 1.6 1.8 1.6 3.1-0.1 1.4-1.3 2.4-1.6 3.7-0.1 1.2-1.2 1.8-1.7 2.8-0.8 1.2 0.9 2.2 0.6 3.2-0.9 0.8-2.3 0.4-3-0.3-1-1-1.6 0.8-1.7 1.6z"/>
		<path id="map_valparaiso_Limache" fill-rule="evenodd" class="map-valparaiso s1" data-siglaregion="VA" data-sigla="limache" data-nombre="Limache" d="m48.8 117.5c0.6 1-1.2 0.5-1.4 0.8 0.5 0.7 0.6 2.5 1.9 1.7 0.5 0.4 0.5 1.1 0.6 1.7 0.4 0.7 1.4 0.9 1.9 0.2 0.3-0.4 1.2-0.5 1.1 0.2-0.2 0.8 0.9 1.2 0.8 1.9-0.2 0.6-0.7 1.4-1.4 1.2-0.8-0.1-1.7-0.3-2.5 0-0.4 0.2-1.2 1.4-1.5 1.7-0.2 0.3 0.9 1.2 0.2 1.2l1.5 0.7 1.9 0.6c0.4-0.1 0.9-0.2 1.3 0 1.1 0.1 1.9 1 2.7 1.7 0.4 0.6 1.1 0.6 1.7 0.9 0.6 0.6 1.5 1 2.2 0.5 0.8-0.2 1-0.9 1.1-1.6 1-0.5 1-2 3.1-1.3 0 0.7 0.6 1.5 0.3 2.2-0.2 0.8-0.7 1.7-0.5 2.5 0.7 0.4 1 1.1 1 1.9 0.1 0.8 0.8 1.3 1.1 2 0.3 0.6 1.3 1 1 1.8-0.1 0.7-0.6 1.4-0.1 2 0.2-0.4 0.2 1.4 0.7 1.4 0.6 0 1.6 0.1 1.1 0.9 0.2 0.9 1.5 0.7 1.6 1.6 0.3-0.6 0.3-1.6 1.2-1.2 0.9 0.1 1.9 0.5 2.1 1.5 0.2 0.4 0.6 2.2 1.1 1.1 0-0.8 0.5-1.4 1.4-1.2 0.1-0.4-0.9-1.6 0.3-1.4 0.8-0.2 1.6 0.5 2.4 0.4 0.5-0.8 1.7-0.3 2.1-0.8-0.9-0.6-0.1-1.6 0.3-2.3 0.3-0.7-1.5 0.3-1.5 0.3v-1.1c0.5-0.7-2.6-1.3-1-2.1-0.3-0.2-1.4-0.6-1.6-1.4-1.1-0.2-1.4-0.9-1.6-1.9 1.4-0.6-0.9-0.9-0.3-1.7 0.9-1.6-1-2.3-1.7-3.5 0.8-0.4 0-0.3-0.4-0.5-1.6 0.1-0.5-1.7-1.6-2.1 0.5-0.2-0.5-1-0.3-1.7 0.8-0.5-0.5-1.4 0.3-2.1-0.5-0.5-2.2-0.2-3.2-0.3-1.5 0.5-2.3-1.1-3.5-1.3-1.4 0.6-2.6-0.2-3.4-1.2-1.3 0-3.1-0.2-3.6-1.5 0.8-1.4-2-1-2.3-2.3-0.9-1.5-1.5 1.3-2.7 0.2-1.1-0.7-2.7-0.1-3.9-0.3z"/>
		<path id="map_valparaiso_Quillota" fill-rule="evenodd" class="map-valparaiso s1" data-siglaregion="VA" data-sigla="quillota" data-nombre="Quillota" d="m47.4 118.3l0.2-2.3c-0.6-0.4-2.3-1.4-1.5-2.1 0.8-0.2 1.9 0.3 2.4-0.8 0.7-0.4 1.1-1.3 2-1.4 1 0.3 1.3-0.5 1.4-1.3 0.3-0.3 0.6-0.5 1-0.7l0.8 0.5c0.5-0.2 1.4 0.3 1.6-0.6 0.4-0.6 1.2-1.1 1.6-1.6 0.1-0.3 0.1-0.7 0-0.9h2.1v-0.6c0.8 0.1 5.1-0.3 6.3 0 0.7 0.2 1.2 0.5 1.7 1.1 1.5-0.8 1.3 1.5 2.2 1.9 1.7 0.2 3.5-0.3 4.9 1.3 0.9 0.1 2.4-1.1 3.3-0.5l1.4 1c0.3 1.4 0.2 3-0.3 4.5-0.3 0.8 0.5 2-0.5 2.3-1 0.4 1.1 2.1 2.6 2.2 1.5 0.2 0.7 1.8 0.7 1.1 0.1-0.6 0 0.8-0.4 0.7-0.7 0.2-0.8 0.4-1.1 0.9-0.8 0-1.1 0.7-1.9 0.7-0.6 0-1.5 0-1.9-0.6-0.3 0.4-0.9 0.7-1.6 0.6-0.7 0-1.5-0.2-2.1 0.1-0.6 0.3-0.2-0.2-0.9 0.4-0.5-0.5-2.2-0.2-3.2-0.3-1.5 0.5-2.3-1.1-3.5-1.3-1.4 0.6-2.6-0.2-3.4-1.2-1.3 0-3.1-0.2-3.6-1.5 0.8-1.4-2-1-2.3-2.3-0.9-1.5-1.5 1.3-2.7 0.2-1.1-0.7-2.7-0.1-3.9-0.3 0.6 1-1.2 0.5-1.4 0.8z"/>
		<path id="map_valparaiso_Hijuelas" fill-rule="evenodd" class="map-valparaiso s1" data-siglaregion="VA" data-sigla="hijuelas" data-nombre="Hijuelas" d="m86.9 94l0.9 0.7c0.1-0.3 1.1 1.2 1.1 1.4 0.2 0.5 0.3 0.8 0.8 1.1 0.2 0.2 0.4 1 0.5 1.1 0.1 0.3 0.5 0.4 0.7 0.7 0.4 0.3-0.1 0.6 0.8 0.8 0.4 0.1 0.6 0.6 0.9 1 0.3 0.2-0.3 0.9-0.3 0.9-0.2 0.5-0.2 0.4-0.3 0.7 0 0.1 0.4 1.1 0.5 1.2 0.3 0.3 0.5 0.6 0.8 0.7v1.3c-0.1 0.4-0.4 0.8-0.6 1.3-0.1 0.3-0.3 0.8-1 0.5-1-0.4-0.6-0.9-1-0.9-0.4 0-1.4-0.2-1.2 0.5 0.1 0.6 0.3 0.9 0.7 1.3 0.3 0.4 1 0.6 0.9 1 0 0.3-0.3 1-0.4 1.6 0 0.3-0.4 1.5-0.2 1.7 0.7 0.8 0.2 0.8 0.2 1.5 0 0.9-0.2 0.7-0.1 1.3 0.2 0.5-0.1 0.8 0.1 1.3 0.3 0.8 0.8 1.1 1.1 1.6 0.3 0.6 0.1 0.9 0.8 1.3 0.5 0.2 1.7 0.4 1.5 0.7-0.2 0.4-0.1 1.3-0.5 1.3-1 0-0.6 0.4-0.5 0.9l-0.4 1.4c-0.1 0.8-0.5 1.3-0.7 1.9-0.5-0.5-1 0.2-1.5 0.1-0.5 0-0.9-0.3-1.3-0.5-0.6-0.4-1.3-0.2-1.9-0.2-0.8 0.3-1.2-0.3-1.8-0.6-0.8 0.1-1.6-0.3-2.2-0.7-0.7-0.2-0.3-0.7-0.8-1.1-0.3-0.5-1.2-0.7-1.2-1.4 0 0.7 0.8-0.9-0.7-1.1-1.5-0.1-3.6-1.8-2.6-2.2 1-0.3 0.2-1.5 0.5-2.3 0.5-1.5 0.6-3.1 0.3-4.5l-0.3-1.3c0.5-0.5 0.8-2.1 2.1-1.7l-6.2-6.6 2.1-1.8c0.5 0.5 1.7 0.4 2.7 0.9 1.3 0.8 2.5 2.6 3.6 0.5 0.5-1 1.4-1.8 1.9-2.8 0.7-0.9-0.1-1.6-0.6-2.2-0.2-0.9 2.5-1.5 2.8-2.3z"/>
		<path id="map_valparaiso_Olmue" fill-rule="evenodd" class="map-valparaiso s1" data-siglaregion="VA" data-sigla="olmue" data-nombre="Olmué" d="m92.4 137.8c0-1 0-1.2 1.2-1.9 0.4-1.7 0.8-1.8 1-2.8 0.4-0.8-0.8-0.5-0.8-2.4-0.9-1.6-1-2.8-1.8-3.3 0.5-0.5 0.5-1.1 0-1.6-0.5-0.5-1 0.2-1.5 0.1-0.5 0-0.9-0.3-1.3-0.5-0.6-0.4-1.3-0.2-1.9-0.2-0.8 0.3-1.2-0.3-1.8-0.6-0.8 0.1-1.6-0.3-2.2-0.7-0.7-0.2-0.3-0.7-0.8-1.1-0.3-0.5-1.2-0.7-1.2-1.4 0.1-0.6 0 0.8-0.4 0.7-0.7 0.2-0.8 0.4-1.1 0.9-0.8 0-1.1 0.7-1.9 0.7-0.6 0-1.5 0-1.9-0.6-0.3 0.4-0.9 0.7-1.6 0.6-0.7 0-1.5-0.2-2.1 0.1-0.6 0.3-0.2-0.2-0.9 0.4-0.8 0.7 0.5 1.6-0.3 2.1-0.2 0.7 0.8 1.5 0.3 1.7 1.1 0.4 0 2.2 1.6 2.1 0.4 0.2 1.2 0.1 0.4 0.5 0.7 1.2 2.6 1.9 1.7 3.5-0.6 0.8 1.7 1.1 0.3 1.7 0.2 1 0.5 1.7 1.6 1.9 0.2 0.8 1.3 1.2 1.6 1.4-1.6 0.8 1.5 1.4 1 2.1v1.1c0 0 1.8-1 1.5-0.3 0.4-0.6 1.1-1.4 1.7-0.4 0.8 0.2 1.6-1 2.5-1 1.1-0.3 0.4-1.1 1.4-1.4 1.1-0.8 1.3 0.9 2.3 0.7 0.5-0.2 1.9-0.6 2-0.8z"/>
		<path id="map_valparaiso_La_Cruz" fill-rule="evenodd" class="map-valparaiso s1" data-siglaregion="VA" data-sigla="la_cruz" data-nombre="La Cruz" d="m59 106.5c0.8 0.1 5.1-0.3 6.3 0 0.7 0.2 1.2 0.5 1.7 1.1 1.5-0.8 1.3 1.5 2.2 1.9 1.7 0.2 3.5-0.3 4.9 1.3 0.9 0.1 2.4-1.1 3.3-0.5-0.4-1.5-0.9-2.6-1-3.5-0.2-1.2-1.9-1.6-2.8-2.5-1 0.1-1.4-1.6-4.3-2.9l-1.5 1.6c-0.9 0.7-1.5-0.7-2-2.5-0.3-0.5-0.8-0.8-1.4-0.7l-1.7 0.5c-1.1 0.6-1.2 1.2-0.7 1.8l-3.1 2.6z"/>
		<path id="map_valparaiso_Calera" fill-rule="evenodd" class="map-valparaiso s1" data-siglaregion="VA" data-sigla="la_calera" data-nombre="La Calera" d="m69.3 101.4c2.9 1.3 3.3 3 4.3 2.9 0.9 0.9 2.6 1.3 2.8 2.5 0.1 0.9 0.6 2 1 3.5l1.4 1-0.3-1.3c0.5-0.5 0.8-2.1 2.1-1.7l-6.2-6.6 2.1-1.8c0.5 0.5 1.7 0.4 2.7 0.9 1.3 0.8 2.5 2.6 3.6 0.5 0.5-1 1.4-1.8 1.9-2.8 0.7-0.9-0.1-1.6-0.6-2.2l-3-0.1v1c-1.6 0.8-1 1.6-2.2 1.5l-0.7-0.8-1.1-0.1-0.3-0.4-0.5 0.7h-3.4z"/>
		<path id="map_valparaiso_Nogales" fill-rule="evenodd" class="map-valparaiso s1" data-siglaregion="VA" data-sigla="nogales" data-nombre="Nogales" d="m88.2 94.7l0.2-0.5c0.2-0.2 0.5-0.7 0.7-0.9 0.1-0.1-0.1-0.9-0.2-1 0.3-0.7 0.2-1.3 0.2-2 0.6-0.7 0.3-1.5 0.5-2.4 0-0.1 0.6-1.1 0.6-1.4 0.3-0.9-0.2-0.8-0.9-1.5 0-0.3 0.5-1-0.8-1.4-0.9-0.4-0.1-1.6 0.3-2.4 0.2-0.5-0.5-0.6-0.8-1-0.4-0.6-0.5-1.3-0.5-1.8 0-0.5 0.4-1 0.4-1l-0.8-1.3h-1.1l-0.6 0.4c-0.2 0.6-0.4 1.2 0.2 1.7l-0.7 1.4h-2.8c-1.1-0.4 0.4-0.4-3.4-1.2l-0.1-1-1.6-0.2v-1h-1.2l-2.7 2.1-0.8-0.5h-3.5l-0.9 3.1-1.8 0.7c-1.8-0.2-2.5 0.5-1.9 2.3-0.9 0.1-1.8 0.1-1.5 1.6l-2.3 1.1 0.1 1.8 2.5-0.1c-0.3 0.7 0.6 1 1.3 1.3l0.2 2.2-3.6 2.6v2l1.7 0.2 0.5 3.7 1.7-0.5c0.7-0.1 1.1 0.2 1.5 0.7 0.5 1.8 1 3.2 1.9 2.5l1.5-1.6 3.6-3.3h3.4l0.5-0.7 0.4 0.4 1 0.1 0.7 0.8c1.2 0.1 0.7-0.7 2.2-1.5l0.1-1 2.9 0.1c-0.1-0.9 2.5-1.5 2.9-2.3z"/>
		<path id="map_valparaiso_Valparaiso" fill-rule="evenodd" class="map-valparaiso s1" data-siglaregion="VA" data-sigla="valparaiso" data-nombre="Valparaíso" d="m55.1 150.7l-1.2-0.4c-0.3-0.3-0.6-0.5-0.7-0.8-1.3-0.1-2.3-1-3.5-1.4-1.7 0.1-3-1.2-4.5-1.8-0.3-1.1-1.3-1.7-2.1-2.5 0.9-0.2 1.4-1.3-0.6-3.3-2.8-0.5-2.8-0.9-3.7 0.2-1.3 1.5-2.8-0.2-1.8-1.6 0.5-1.4-1.7-2.2-0.8-3.3-0.4-1.4-3.2-0.7-3-2.5l-1.3-1.2c-2.5 2.7-3.5 1.4-3.8 0-0.5-2.1-1.8-1.7-1.9-0.1-0.2 0.4-1.3 1.5-1.4 2.6 0.6 2.9 0.1 6.6-1.5 5.9 0.1 1.2-2.6 0.5-4.4-0.7-0.8-0.4-1.7-0.7-1.7 0 0.1 0.9 0.1 2.4 0.7 4.2 0.2 0.6 1 1 2.2 1.6-0.6 0.1 0.2 1.4 0.9 2.1l1.3 0.3c1.5-0.2 2.9 0.1 3.8 1.4 0.9 0.1 1.7-1.7 3.1-1 2.6 0.7 4.4 3 7.1 3.5 1.4 0.8 1.8 3.3 4 2.7 1.4 0 0.9-2.4 2.5-1.1 1.7 0.2 3.3-1 5.1-0.5 1.7 0.6 4.7 1.9 5.4-0.7 1-0.3 1.5-0.5 1.8-1.6zm-48.8-61.4c-0.3 0-0.3 0.6-0.4 0.6 0.5 0.1 0.9 0.2 1.4 0.2 0.3-0.6-0.4-0.8-1-0.8zm10.1 2.9c0 0-0.5 0.3-0.7 0.3 0.5 0.4 1.1 0.5 0.7-0.3z"/>
		<path id="map_valparaiso_Casablanca" fill-rule="evenodd" class="map-valparaiso s1" data-siglaregion="VA" data-sigla="casablanca" data-nombre="Casablanca" d="m21 147.7l1.3 0.3c1.5-0.2 2.9 0.1 3.8 1.4 0.9 0.1 1.7-1.7 3.1-1 2.6 0.7 4.4 3 7.1 3.5 1.4 0.8 1.8 3.3 4 2.7 1.4 0 0.9-2.4 2.5-1.1 1.7 0.2 3.3-1 5.1-0.5 1.7 0.6 4.7 1.9 5.4-0.7 1-0.3 1.5-0.5 1.8-1.6 0.5-0.5 2.4-1.2 1.3-0.2 0 1.2 2.6 0.8 1.9 2 1.7 0.6 4-0.5 5.3 1.1 1.3 0.9 2.1 2.5 3.7 2.9 5.7 2.4 5.3 0.9 4.6 1.4-0.7 0.4-0.2 1.1 0.1 1.7 0.1 0.7 0 2.6 0.3 2.7 0.1 0 0.1 0.8 0.9 1.9-0.3 1.8 1.2 2.9 1.6 3 0.2 0-0.3 0.2-0.5 1.7-0.7 0.1-1.1 0.5-0.5 1.9l-0.6 1.3c-1.3 1 0.4 1.7-1 3.1-0.6-0.7-2 0.7-2.3 1.2-0.6-0.1-1-0.7-1.7 0.1l-1.8 2.4q-0.1 0-0.2 0.2c-0.6 0.7-2.1 0.6-4 0.3-1-0.8-1.4-0.4-1.6 0.5-1.7 0.7-0.1 2.3-0.1 3.5-0.1-0.5-3.9 1-5 1.6-2.7-0.9-3.5 2-5.5 2.7-0.6 2.6-3.7 0.5-5-0.5 0-0.6-2 0.2-1.4-0.2-1 1.2-2.8-1-4.1-1.7-0.9-0.4-2-0.4-3 0-1.1 0.1-2.3 0.3-3.4-0.2-1-0.4-1.7-1.2-2.4-2 1.2 0.1 2-1.2 2.5-2 0.8-1 0.4-2 0-2.9 0.1-0.8 0.7-2.6 1.7-1.6 0.7 0.7 2.1 1.1 3 0.3 0.3-1-1.4-2-0.6-3.2 0.5-1 1.6-1.6 1.7-2.8 0.3-1.3 1.5-2.3 1.6-3.7 0-1.3-1.7-1.9-1.6-3.1 0.2-1.1 0.2-2.1 0.2-3.2-0.3-1.2-2-0.8-2.9-0.7-1 0.1-1.6 1.6-2.7 0.6-0.5-1.2-2-0.8-2.8-0.1-0.9 0-0.8 1.6-1.7 0.7-1.1-0.4-2.4 0.1-3.2 0.9 1.1 1.1-1.4 0.5-0.9 0.9-1-0.9-0.6-2.2-2.5-3.1-1-0.7-1-0.8-0.2-2.1l0.8-1.3c0.2-1.5-0.8-1.5-1.5-1.7-0.1-0.7-0.2-1.4-1.3-1.7l0.8-1.6c1.5-0.1 2.1-1.2 1.1-2z"/>
		<path id="map_valparaiso_Vina_del_Mar" fill-rule="evenodd" class="map-valparaiso s1" data-siglaregion="VA" data-sigla="vina_del_mar" data-nombre="Viña del Mar" d="m36.4 121.8l1.5 0.5c0.6 0.4 2.1 0.1 2.7 0.6 0.7 0.8 1.5 1.5 2.3 2.1 0.9 0.8 2.2 1.1 3 2 0.5 0.4 1.9 1 2.6 1.1l1.5 0.7c0.9 0.2 0 1.6-0.6 1.2-0.6-0.3-1.4-0.7-1.8 0-0.4 0.8-1 0.4-1.5 0.1-0.8-0.6-1.1 0.1-1.5 0.7-0.4 0.6-1.5 0.7-1.3 1.6 0.4 0.7 0 1.5 0 2.3 0.1 0.9 1.1 1 1.5 1.7 0.1 0.7 0.2 1.5 0 2.2-0.3 0.6-1.3 0.4-1.7 1l-0.6 0.9c-2.8-0.5-2.8-0.9-3.7 0.2-1.3 1.5-2.8-0.2-1.8-1.6 0.5-1.4-1.7-2.2-0.8-3.3-0.4-1.4-3.2-0.7-3-2.5l-1.3-1.2c1.7-1.4 1.4 0 2.4-0.6 0.9-0.6 1.2-2.5 1.9-3.4 0.7-1.4 0.9-3.5 0.2-6.3z"/>
		<path id="map_valparaiso_Concon" fill-rule="evenodd" class="map-valparaiso s1" data-siglaregion="VA" data-sigla="concon" data-nombre="Concón" d="m48.5 128.1c0.7 0-0.4-0.9-0.2-1.2 0.3-0.3 1.1-1.5 1.5-1.7 0.8-0.3 1.7-0.1 2.5 0 0.7 0.2 1.2-0.6 1.4-1.2 0.1-0.7-1-1.1-0.8-1.9 0.1-0.7-0.8-0.6-1.1-0.2-0.5 0.7-1.5 0.5-1.9-0.2-0.1-0.6-0.1-1.3-0.6-1.7-1.3 0.8-1.4-1-1.9-1.7-0.9-0.1-1.7-0.1-2.5-0.5-0.6-0.3-1.4-0.2-1.6 0.4-0.6 0.3-1.4 0.4-1.9 0-0.6-0.5-0.9-1-1-0.5-0.2 0.4-0.8-0.1-1.1 0.4-0.6 1.1-1.2 2.1-2 0.6l-1.7 1.1c0.1 0.7 0.7 1.4 0.8 2l1.5 0.5c0.6 0.4 2.1 0.1 2.7 0.6 0.7 0.8 1.5 1.5 2.3 2.1 0.9 0.8 2.2 1.1 3 2 0.5 0.4 1.9 1 2.6 1.1z"/>
		<path id="map_valparaiso_Villa_Alemana" fill-rule="evenodd" class="map-valparaiso s1" data-siglaregion="VA" data-sigla="villa_alemana" data-nombre="Villa Alemana" d="m51.9 129.4q0.3 1.3 0.2 2.6c0.3 0.6 0.2 1.3 0.4 1.9 0.7 0.8-0.9 1.3-0.3 2 0.6 0.7 1.6 0.7 2.3 1.2 0.7 0.3 1.2 1 1.4 1.7 0.3 0.6 0.5 1.5 1.3 1.6 0.7 0.2 1.4 0.6 2.1 0.8 0.7-0.1 1.4 0.2 2 0.7 0.6 0.3 0.6 0.7 1.5 0.5 0.6 0.1 1.6 0.5 2.2 0.1 0.4-0.4 1.5 0 1.8-0.5-0.5-0.6 0-1.3 0.1-2 0.3-0.8-0.7-1.2-1-1.8-0.3-0.7-1-1.2-1.1-2 0-0.8-0.3-1.5-1-1.9-0.2-0.8 0.3-1.7 0.5-2.5 0.3-0.7-0.3-1.5-0.3-2.2-2.1-0.7-2.1 0.8-3.1 1.3-0.1 0.7-0.3 1.4-1.1 1.6-0.7 0.5-1.6 0.1-2.2-0.5-0.6-0.3-1.3-0.3-1.7-0.9-0.8-0.7-1.6-1.6-2.7-1.7-0.4-0.2-0.9-0.1-1.3 0z"/>
		<path id="map_valparaiso_Quilpue" fill-rule="evenodd" class="map-valparaiso s1" data-siglaregion="VA" data-sigla="quilpue" data-nombre="Quilpué" d="m55.1 150.7l-1.2-0.4c-0.3-0.3-0.6-0.5-0.7-0.8-1.3-0.1-2.3-1-3.5-1.4-1.7 0.1-3-1.2-4.5-1.8-0.3-1.1-1.3-1.7-2.1-2.5 0.9-0.2 1.4-1.3-0.6-3.3l0.6-0.9c0.4-0.6 1.4-0.4 1.7-1 0.2-0.7 0.1-1.5 0-2.2-0.4-0.7-1.4-0.8-1.5-1.7 0-0.8 0.4-1.6 0-2.3-0.2-0.9 0.9-1 1.3-1.6 0.4-0.6 0.7-1.3 1.5-0.7 0.5 0.3 1.1 0.7 1.5-0.1 0.4-0.7 1.2-0.3 1.8 0 0.6 0.4 1.5-1 0.6-1.2l1.9 0.6q0.3 1.3 0.2 2.6c0.3 0.6 0.2 1.3 0.4 1.9 0.7 0.8-0.9 1.3-0.3 2 0.6 0.7 1.6 0.7 2.3 1.2 0.7 0.3 1.2 1 1.4 1.7 0.3 0.6 0.5 1.5 1.3 1.6 0.7 0.2 1.4 0.6 2.1 0.8 0.7-0.1 1.4 0.2 2 0.7 0.6 0.3 0.6 0.7 1.5 0.5 0.6 0.1 1.6 0.5 2.2 0.1 0.4-0.4 1.5 0 1.8-0.5 0.2-0.4 0.2 1.4 0.7 1.4 0.6 0 1.6 0.1 1.1 0.9 0.2 0.9 1.5 0.7 1.6 1.6 0.3-0.6 0.3-1.6 1.2-1.2 0.9 0.1 1.9 0.5 2.1 1.5 0.2 0.4 0.6 2.2 1.1 1.1 0-0.8 0.5-1.4 1.4-1.2 0.1-0.4-0.9-1.6 0.3-1.4 0.8-0.2 1.6 0.5 2.4 0.4 0.5-0.8 1.7-0.3 2.1-0.8-0.9-0.6-0.1-1.6 0.3-2.3 0.4-0.6 1.1-1.4 1.7-0.4 0.8 0.2 1.6-1 2.5-1 1.1-0.3 0.4-1.1 1.4-1.4 1.1-0.8 1.3 0.9 2.3 0.7 0.5-0.2 1.9-0.6 2-0.8l1.4-1.3c0.5 0.5 1.3 0.6 1.2 1.5-0.8 2.4-0.1 2.2 0.1 4.6 0.8 0.8 0 1.3 0.4 2.1 0.5 0.3 0.7 0.9 1 1.4 0.4 0.7 0.7 1.4 1.1 2.1 0.9 0.7-0.5 0.4-0.3 1.5 0.1 0.6 0 0.9-0.9 1.4-1.5-0.3-1.4 0.7-2.4 0.4 0.5 2.3-0.3 1.6-1.3 0.5-0.6 0.4-1.1 0-1.6-0.2-0.4 0.4-0.3 1.4-0.3 2.2-1.3 1.5-2.2 1-3-0.1-1.2 0-3.1-0.7-3 0.6-0.6 1-1.5 1.3-3.1 0.7l-1.3-0.6c-1.5 1.1-1.7 0.5-2.1 0.2l-1.4-0.2c-0.5 0.5-1.2 0.9-2.3 0.7 0.1 0.7-0.5 1.1-1.3 1.3 0.7-0.5 1.1 1-4.6-1.4-1.6-0.4-2.4-2-3.7-2.9-1.3-1.6-3.6-0.5-5.3-1.1 0.7-1.2-1.9-0.8-1.9-2 1.1-1-0.8-0.3-1.3 0.2z"/>
		<path id="map_valparaiso_Juan_Fernandez" fill-rule="evenodd" class="map-valparaiso s1" data-siglaregion="VA" data-sigla="juan_fernandez" data-nombre="Juan Fernández" d="m5.4 63.5c-0.6 0.1-1.5 1-1.6 1.8-0.1 1-0.1 2.2 0.8 2.8 0.5 0.3 1.7 0.3 1.9-0.4 0.2-0.7 0.5-1.3 0.1-1.9-0.5-0.3-0.7-0.8-0.7-1.4-0.1-0.3-0.2-0.9-0.5-0.9zm5.7-1.2c0.6-0.6 1.5-1 2.4-0.9 0.9 0.1 1.3-1.3 2.2-0.9 0.6 0.5 1.1 1.4 2 1.2 0.9-0.1 1.8 0.2 2.7-0.2 0.8-0.7-0.7-1.9-1.4-1.5-0.8 0.5-1.7-0.1-1.3-1-0.3-0.9-1.5-1.1-2.3-1-1-0.1-0.5 1.6-1.5 1.5-1 0.1-1.5 1.1-2.4 1.5-0.4 0.3-1 1.1-0.3 1.4m-0.3 0.7c-0.5 0.5-0.1 1.5 0.4 0.6 0-0.3-0.2-0.4-0.4-0.6z"/>
		<path id="map_valparaiso_Quintero" fill-rule="evenodd" class="map-valparaiso s1" data-siglaregion="VA" data-sigla="quintero" data-nombre="Quintero" d="m47.4 118.3l0.2-2.3c-0.6-0.4-2.3-1.4-1.5-2.1 0.8-0.2 1.9 0.3 2.4-0.8 0.7-0.4 1.1-1.3 2-1.4 1 0.3 1.3-0.5 1.4-1.3 0.3-0.3 0.6-0.5 1-0.7h-2.4c-2.1-1.1-0.1-2.9-0.4-6.3-2.1-0.1-1.3-1.6-0.5-2.6-1.3-0.1-3.4 0.2-3-0.6l-1.8 2.5-2.6-1.9 1.1-2.1-1.3-0.1c-0.6 2.1-1.8 3.6-2.6 1.3l-2.6-1.2c-0.2 2-0.5 7.1 0.8 8.2 0.3 0.1-0.1 0.5 1 0.1 1.2 2.9 2.7 7.8 1.8 10.7 0.1-0.5 0.4 0 1 0.5 0.5 0.4 1.3 0.3 1.9 0 0.2-0.6 1-0.7 1.6-0.4 0.8 0.4 1.6 0.4 2.5 0.5z"/>
		<path id="map_valparaiso_Puchuncavi" fill-rule="evenodd" class="map-valparaiso s1" data-siglaregion="VA" data-sigla="puchuncavi" data-nombre="Puchuncaví" d="m48.2 82l-0.9-0.4c0.2 0.7 1.3 1.6-0.5 1.8l-0.6 3.8c-0.7 3.3-1.8 5.7-6.1 4.2 0 0-0.8 0.5 0.2 2.1 0.2 0.8 0.1 2.2 0.6 2.6 1.7-0.7 1.4 1.6 1.1 2.5l1.3 0.1-1.1 2.1 2.6 1.9 1.8-2.5c-0.4 0.8 1.7 0.5 3 0.6-0.8 1-1.6 2.5 0.5 2.6 0.3 3.4-1.7 5.2 0.4 6.3h2.4l0.8 0.5c0.5-0.2 1.4 0.3 1.6-0.6 0.4-0.6 1.2-1.1 1.6-1.6 0.1-0.3 0.1-0.7 0-0.9h2.1l-0.1-2.4 3.1-2.6c-0.5-0.6-0.4-1.2 0.7-1.8l-0.6-3.7-1.7-0.2 0.1-2 3.5-2.6-0.1-2.2c-0.8-0.3-1.7-0.6-1.4-1.3l-2.5 0.1-0.1-1.8c-0.5 0.2-1 0.1-1.5 0.1-0.7 0.3-1.2 0.8-1.9 1.1-0.8-0.1-1-0.7-2.1-0.9-0.6 0-0.9-0.3-1.2-0.8-0.2-0.5-0.9 0.2-0.2-0.5 0.6-0.7 0.1-1.4-0.4-2-0.3-0.3-0.8-0.3-1.1-0.6-0.6-0.5-1.2-0.7-1.6-1.5 0-0.3-1 1.4-1.7 0.5z"/>
		<path id="map_valparaiso_Catemu" fill-rule="evenodd" class="map-valparaiso s1" data-siglaregion="VA" data-sigla="catemu" data-nombre="Catemu" d="m112.6 82.6l-0.2-2.8c1 1.7-1.2-0.3-2.1 0.6-1-1.1-2.6-1.3-4.1-1.6-1.2-1.8-2.3-0.5-3.4 0.6-2-0.8-3.2 1.5-5.1 1.4-1.2 0.3-3.3 0.8-3.5-0.3-0.1-0.9-1.6-1.5-3.1-1.5-0.1 1.1-0.5 3-1.9 1.8l-0.9 0.4c-0.3 0.8-1.2 2-0.2 2.4 1.3 0.4 0.7 1.1 0.8 1.4 0.6 0.7 1.2 0.6 0.9 1.5-0.1 0.3-0.6 1.3-0.7 1.4-0.2 0.9 0.2 1.7-0.4 2.4 0 0.7 0.1 1.3-0.2 2 0 0.1 0.3 0.9 0.2 1-0.2 0.2-0.5 0.7-0.8 0.9l-0.1 0.5c0.1-0.3 1.1 1.2 1.1 1.4 0.2 0.5 0.3 0.8 0.8 1.1 0.2 0.2 0.4 1 0.5 1.1 0.1 0.3 0.5 0.4 0.7 0.7 0.4 0.3-0.1 0.6 0.8 0.8 0.4 0.1 0.6 0.6 0.9 1 0.3 0.2-0.3 0.9-0.3 0.9-0.2 0.5-0.2 0.4-0.3 0.7 0 0.1 0.4 1.1 0.5 1.2 0.3 0.3 0.5 0.6 0.8 0.7v1.3l1-0.6 0.2-1.2 0.5-0.8h1.1l0.6-1.1 1.3 0.3-0.2 1.6-1.1-0.1 1.5 1.1h1.4l0.3-1.4-0.6-0.8 1.4-0.1 4.3-2.1 1.5-0.1 2.8-2.1-0.5-3.8h-0.7l-0.6-0.8 0.1-0.8 4-7.2 0.1-3.1z"/>
		<path id="map_valparaiso_Llayllay" fill-rule="evenodd" class="map-valparaiso s1" data-siglaregion="VA" data-sigla="llayllay" data-nombre="Llay-llay" d="m99.6 104.8h-1.4l-1.5-1.1 1.1 0.1 0.2-1.6-1.3-0.3-0.6 1.1h-1.1l-0.5 0.8-0.2 1.2-1 0.6c-0.1 0.4-0.4 0.8-0.6 1.3-0.1 0.3-0.3 0.8-1 0.5-1-0.4-0.6-0.9-1-0.9-0.4 0-1.4-0.2-1.2 0.5 0.1 0.6 0.3 0.9 0.7 1.3 0.3 0.4 1 0.6 0.9 1 0 0.3-0.3 1-0.4 1.6 0 0.3-0.4 1.5-0.2 1.7 0.7 0.8 0.2 0.8 0.2 1.5 0 0.9-0.2 0.7-0.1 1.3 0.2 0.5-0.1 0.8 0.1 1.3 0.3 0.8 0.8 1.1 1.1 1.6 0.3 0.6 0.1 0.9 0.8 1.3 0.5 0.2 1.7 0.4 1.5 0.7-0.2 0.4-0.1 1.3-0.5 1.3-1 0-0.6 0.4-0.5 0.9l-0.4 1.4c0.6-0.3 1.5-0.1 2.3-0.1q1.2 0.1 2.5 0.1c0.8-0.1 1.5-0.7 2.2-1 0.6-0.5 1.2 0.2 2 0.3 1.1 0.4 1.1-0.8 1.5-1.6 0.2-0.8 0.7-1 1-1.9 0.7-1.5 1.1-1.1 2-0.9 0.7 0 1.4 0.2 1.6-0.4 0.8 0-0.7-0.7 2.5-0.5 0.2 0 0.8-0.3 1-0.5 0.8-0.1 1.7 0.3 2.5 0.3 0.7 0 0.8-0.2 1.3-0.4 1.5-0.5 2.5 0.2 3.6 0.4 0.6 1.5 0.3 0 2.8-0.8l0.2-4.7-0.5-0.8h-1.2l0.1-2.2-1.7-4.4-1.4 0.6h-5.3l-0.6-0.4-0.6 0.6-1.1-0.7-1.3 0.9-1.7-0.7-1.1 1-2.6-0.1-0.3-0.3-2.1-0.2z"/>
		<path id="map_valparaiso_Panquehue" fill-rule="evenodd" class="map-valparaiso s1" data-siglaregion="VA" data-sigla="panquehue" data-nombre="Panquehue" d="m99.6 104.8l0.7 0.7 2.1 0.2 0.3 0.3 2.6 0.1 1.1-1 1.7 0.7 1.3-0.9 1.1 0.7 0.6-0.6 0.6 0.4h5.3l1.4-0.6 1.9-1.9c-0.9-0.3-1.2-1.7-1.5-3.1 0.2-1 0-2.5 1-2.5l0.7-0.1 0.7-0.5v-0.9l-2.1-3.1-1.7 0.1-0.9 1.1-1.7-0.1-2.1 2.3-3.4 2.1-2.8 2.1-1.5 0.1-4.3 2.1-1.4 0.1 0.6 0.8z"/>
		<path id="map_valparaiso_San_Felipe" fill-rule="evenodd" class="map-valparaiso s1" data-siglaregion="VA" data-sigla="san_felipe" data-nombre="San Felipe" d="m129.1 91.9c-0.7 0.5-0.4 1.7-1.8 2.3l0.2 4.6 2.5 0.7c1.1 0.1 1.8 1.4 2.7 2.2l-1.1 0.1-0.2 1.1-0.8-0.1-0.5 0.6-0.2 0.9-1.7-0.9h-4l0.1-3.3h-0.7l-1.1 1.7h-1.3l-0.9 1.1c-0.9-0.3-1.2-1.7-1.5-3.1 0.2-1 0-2.5 1-2.5l0.7-0.1 0.7-0.5v-0.9l-2.1-3.1-1.7 0.1-0.9 1.1-1.7-0.1-2.1 2.3-3.4 2.1-0.5-3.8h-0.7l-0.6-0.8 0.1-0.8 4-7.2 0.1-3.1 0.9 0.1c1.9-0.2 0.2 1.1 2.4 2.2l2.2 0.1v1.2l1.2 1.2h1.5l1.3 1.9-0.6 1.6 2.1-1.7c0.5-0.3 0.3-0.6 3.9-0.6l1.6-0.9 1.5 0.1c0 0.6 0.1 1.4-0.5 1.6z"/>
		<path id="map_valparaiso_Putaendo" fill-rule="evenodd" class="map-valparaiso s1" data-siglaregion="VA" data-sigla="putaendo" data-nombre="Putaendo" d="m172.3 52.7c0.7 0.4-0.3 2.9-0.2 4.4 0 1.4-0.2 2.1-2.3 2.6 0.9 2.7-2.1-1-2.3 1-1 0-1.9 0.1-1.6 1.4 0.2 1.7-0.7 2.1-1.4 3.6-0.9 1-0.5 1.9-1 2.4 0.2 1.6-1.1 3.1-1.9 4.3 0.5 2.2-1.6 0.6-2.2 2.1-1 0.2-1.6 3-1.8 1.4-1.7-2-2.2-3-3.2-0.9-2.7 2.5-3.1 0.2-3.9 0.2-1 0.8-2 0.7-3-0.2-0.6 1.1-1.6 1.1-2.6 0.8-0.7-0.3-1.5-0.6-2-0.8 0.2-1.1-2-1.4-1.1-1.9-0.8-1.1-4.8-1.5-4.2 0.5 0.1 0.7 0.2 1.6-0.3 1.6-1.6 0.1-1.7 1-2.7 0.9-1.6 2.3-0.6 3-1.2 4.6-0.2 1.4-1.1 2.7-1.8 3.9-1.1 0.5-2.3 1-2.7 2.4l-0.7 0.6-1.6 0.9c-3.6 0-3.4 0.3-3.9 0.6l-2.1 1.7 0.6-1.6-1.3-1.9h-1.5l-1.2-1.2v-1.2l-2.2-0.1c-2.2-1.1-0.5-2.4-2.4-2.2l-0.2-2.8c-0.1-1.9 3.4-0.8 2.2-2.6-1.5-0.6-2-3 0.1-2.9 1.4-1.2 2.8-3.4 0.8-4.8-1.3-1.2-4.2 0.2-4.6-2.4-0.1-1.1-0.7-2.2-1.2-2.8 1.7-1 0.8-3.6 2.6-4.1 1.6-0.8 1.6-2.2 1.6-2.9 0-0.6 1-0.5 1.7-0.2 2.4 0.6-0.9-2.5 1.4-1.7 1.1 0.1 2 1.2 3.1 0.9 0.4-0.1 0.5-0.6 2.4 1.4 1.3 1.5 2-2.5 3.2-0.1 1 0.6 4 3.5 3.7 0.8 1.7 0.6 2.3-0.2 2.3-2-0.7-1.3 3.1-3 1.1-4.6 1.8-0.6-0.5-2 0.5-3.3 0-1.2 0-2.2 1.6-1.7 0.8 1 2.3 2.5 2.7 0.6 0.6-0.2 1.5-0.3 2.2-0.3l2.6-2.3h2.8l0.5 0.8h2.1l1.2-0.8 0.3-1.9 2.9 0.1c0.2-0.2 0.8-1.7 0.9-2 0.4-1.3 1.3-0.9 1.7-2.2 0.3-1.3 0.8-2.1-1.4-2.9 0.8-0.2 4.2-1.9 5.2-2.1 1.4-0.4 2.3-0.9 2.7-1.4 0.4 0.9 2 2.6 2.5 2.5 1-0.3 3.3 0 3.9 0.9 0.2 0.3 1.3 1.3 2.6 2.2 1.2 0.9 2.3 1.9 2.3 2.1 0.1 0.2 0.1 2.2 0.2 4.4 0.1 2.9-0.1 4.3-0.6 5.4-0.6 1.3-0.6 1.5 0.1 2.8z"/>
		<path id="map_valparaiso_Santa_Maria" fill-rule="evenodd" class="map-valparaiso s1" data-siglaregion="VA" data-sigla="santa_maria" data-nombre="Santa María" d="m135.6 102.5c-1-0.3-0.8-1-2.9-0.8-0.9-0.8-1.6-2.1-2.7-2.2l-2.5-0.7-0.2-4.6c1.4-0.6 1.1-1.8 1.8-2.3l0.1-2.6c0.6-0.2 0.5-1 0.5-1.6l-1.5-0.1 0.7-0.6c0.4-1.4 1.6-1.9 2.7-2.4 0.7-1.2 1.6-2.5 1.8-3.9 0.6-1.6-0.4-2.3 1.2-4.6 1 0.1 1.1-0.8 2.7-0.9 0.5 0 0.4-0.9 0.3-1.6-0.6-2 3.4-1.6 4.2-0.5-0.9 0.5 1.3 0.8 1.1 1.9 0.5 0.2 1.3 0.5 2 0.8l-1.5 3.1-4.7 1.3c0.3 1.6-1.1 3.1 0.8 4.7l0.2 1.8c-0.8-0.3-0.7 0.7-0.7 1.7l-1.9 0.2c0.2 0.8 0 1.6-1.4 2.4h-1c-0.1 0.7-0.5 1.4 0.7 1.9v2.5c-1.1 0.4-1 1 0.1 2z"/>
		<path id="map_valparaiso_San_Esteban" fill-rule="evenodd" class="map-valparaiso s1" data-siglaregion="VA" data-sigla="san_esteban" data-nombre="San Esteban" d="m181.3 94.6c1.2-1.3 3.6-1.4 3-2.8q-0.5-1.7-0.5-3.3c0-3.9-0.8-7.5-2-8.7-1.4-1.6-0.7-3.8 1.7-5.3 0.8-0.6 1.2-1.1 1.2-2 0-0.7 0.2-1.8 0.4-2.4 0.3-0.9 0.2-1.6-0.4-3.3-0.5-1.2-0.9-2.7-0.9-3.3 0-1.7-1.9-4.6-3.5-5.4-0.8-0.3-2.1-1-3-1.4q-3.8-1.8-5-4c0.7 0.4-0.3 2.9-0.2 4.4 0 1.4-0.2 2.1-2.3 2.6 0.9 2.7-2.1-1-2.3 1-1 0-1.9 0.1-1.6 1.4 0.2 1.7-0.7 2.1-1.4 3.6-0.9 1-0.5 1.9-1 2.4 0.2 1.6-1.1 3.1-1.9 4.3 0.5 2.2-1.6 0.6-2.2 2.1-1 0.2-1.6 3-1.8 1.4-1.7-2-2.2-3-3.2-0.9-2.7 2.5-3.1 0.2-3.9 0.2-1 0.8-2 0.7-3-0.2-0.6 1.1-1.6 1.1-2.6 0.8l-1.5 3.1-4.7 1.3c0.3 1.6-1.1 3.1 0.8 4.7l0.2 1.8c-0.8-0.3-0.7 0.7-0.7 1.7l-1.9 0.2c0.2 0.8 0 1.6-1.4 2.4h-1c-0.1 0.7-0.5 1.4 0.7 1.9v2.5c-1.1 0.4-1 1 0.1 2l0.1 5.1c0.9 0.3 1 0.5 1.8 1.5 0.9 1 1.9 0.1 2.8 0.1 2.8 0.7 4.5 2.7 7 3.9 1.4 0.2 2.9-0.1 4.4-0.2 1.2-0.1 1.4 0.2 2.6 0.8 0.9 0.1 1.5-0.4 2.3 0.1 1.6 1.1 3.9 4.2 5.1 5.3 0.8-0.1-0.9-1.2 2.5-1.5-0.2-0.5 0.7-1.9 1-2.8 1.9-0.1 2.3-1.6 2.9-3.2 0.2-0.7 1.3-1 1.9-1.4 0.4-3.5 3.4 1.5 3.4-1.5 1.2-0.8 0.5-3.7 2.7-2.8 2 0.7-0.8-2.2 2.2-1.5-0.1-2.9 3.7-1.2 3.1-4.7z"/>
		<path id="map_valparaiso_Los_Andes" fill-rule="evenodd" class="map-valparaiso s1" data-siglaregion="VA" data-sigla="los_andes" data-nombre="Los Andes" d="m181.3 94.6c1.2-1.3 3.6-1.4 3-2.8q0.7 2.2 2.2 4.4c0.4 0.6 0.8 1.6 1 2.2 0.1 0.6 1.5 2.1 3 3.4 1.7 1.4 2.9 2.8 3.1 3.5 0.5 2.8 0.8 3.2 2.7 3.9 2.6 1 4 2.6 3.7 4.4-0.4 2.3-1.6 5.2-2.5 6.2-0.9 1-1 1.9-0.5 4.1 0.4 2.1-0.9 3.7-3.6 4.4-1.5 0.3-2 2.5-2.7 3.6l-0.8-0.1c-1.7 0.6-2.4 1.8-3.5 2.8-0.6 0-1.1 0-1.2 2-1.8 1.2-1.5 1.9-3.8 2l-2 1.3-0.5 1.4c-1.1 0.2-2 1.1-2.8 2.1-0.3 0.2-0.2 0.6 0.8 1.5-0.5 0.9-1.2 1.4-1.8 2l-0.1 2.1c-3.4 0.3-0.8-1.7-2.4-2.9l-0.3-1v-3h-1.6l-1.5-1.6-0.1-0.6-1-0.5-1.1 0.1c-0.3-0.8-0.6-0.9-0.9-1l-1.2-0.6c-0.5 1.3-1.8 1.5-3.4 1.4l-1-1.6c-1.6-0.5-1.2-2.4-2.4-3.1-1.1-1.2 1.2-2.1 0.2-3.4 0.5-1.8-1.3-2.3-2.7-2.6-0.1-0.3 0.3-2.5 1.3-2.7 0.4-1.3-1.5-2.1-2.5-2.5-1-1-1.9-2.1-3.2-2.8-1.3-0.9-0.1-2.7-1.5-3.5-0.1-2.4-1.7-3-3.2-2.8-1.1-0.4 0.3-2.3-1.1-2.7-0.7-1.1-2.1-1.3-3.2-1.8-1-1-2.7-1.2-3.7-2.3-2-0.6-7-2.5-7.6-2.6-0.6-0.2-1-0.6-1-0.6l0.2-0.9 0.5-0.6 0.8 0.1 0.2-1.1 1.1-0.1c2.1-0.2 1.9 0.5 2.9 0.8 0.9 0.3 1 0.5 1.8 1.5 0.9 1 1.9 0.1 2.8 0.1 2.8 0.7 4.5 2.7 7 3.9 1.4 0.2 2.9-0.1 4.4-0.2 1.2-0.1 1.4 0.2 2.6 0.8 0.9 0.1 1.5-0.4 2.3 0.1 1.6 1.1 3.9 4.2 5.1 5.3 0.8-0.1-0.9-1.2 2.5-1.5-0.2-0.5 0.7-1.9 1-2.8 1.9-0.1 2.3-1.6 2.9-3.2 0.2-0.7 1.3-1 1.9-1.4 0.4-3.5 3.4 1.5 3.4-1.5 1.2-0.8 0.5-3.7 2.7-2.8 2 0.7-0.8-2.2 2.2-1.5-0.1-2.9 3.7-1.2 3.1-4.7z"/>
		<path id="map_valparaiso_Rinconada" fill-rule="evenodd" class="map-valparaiso s1" data-siglaregion="VA" data-sigla="rinconada" data-nombre="Rinconada" d="m129.9 105.1c0.1-0.3 0-0.8 0-0.8l-1.7-0.9h-4l0.1-3.3h-0.7l-1.1 1.7h-1.3l-0.9 1.1-1.9 1.9 1.7 4.4-0.1 2.2h1.2l0.5 0.8-0.2 4.7h0.6c1.2 0 1.8 0.9 2.1 1.4 0.1 0.4-0.1 2 0 2.1l0.6 0.3c0.4 1.9 1.7 0.2 2.7 0.2 1.5 0.7 1.4 0.2 2.4-0.2 0.3-0.5 0-2 0.9-2.3 0.5-0.2 0.3-1 0.2-1.5-0.1-0.3-0.2-0.7-0.4-1.2-0.6-1.2-0.4-0.4-1.4-0.9-0.5-0.2-1.3-0.7-0.8-1.2 0.3-0.3 0.8-0.6 0.4-1.1-0.9-1.3 0.4-1.3 0.4-1.6-0.2-0.5-1-1.5-0.3-1.7 0.4-0.1 1-0.4 1.1-0.7 0.3-0.6 0.5-1 0.4-1.7-0.1-0.4-0.6-1.4-0.5-1.7z"/>
		<path id="map_valparaiso_Calle_Larga" fill-rule="evenodd" class="map-valparaiso s1" data-siglaregion="VA" data-sigla="calle_larga" data-nombre="Calle Larga" d="m155.6 128.6c-1.1-0.6-2.2 0.4-2.2 1.5-1.2 0.8-1.5 2.1-2.2 3.2-0.2 0.8 0.9 1.5-1.2 1.5-0.5 0 0.7 1.5-1 1.9-0.7 0.1-1.6 0.8-1.9 0.3-0.4-0.7-0.9-1.8-1.6-2.3 0.2-1.5-0.7-2.9-2.1-3.5-1.8-0.6-0.6-2.4-0.3-3.6-1.1-1.1-1.9-2.4-3-3.6-0.4-1.3-1.4-1.2-1.8-1.3-0.6-0.1 0-1.4-0.2-2-0.4-0.6-0.8-1.5-1.9-1.7-0.4 0.4-0.7 1.2-1.2 0.3-1.3-0.3-2.6 0.3-3.5 1.1-0.8 0.1-1.2 0.2-1.6 0.3 0.3-0.5 0-2 0.9-2.3 0.5-0.2 0.3-1 0.2-1.5-0.1-0.3-0.2-0.7-0.4-1.2-0.6-1.2-0.4-0.4-1.4-0.9-0.5-0.2-1.3-0.7-0.8-1.2 0.3-0.3 0.8-0.6 0.4-1.1-0.9-1.3 0.4-1.3 0.4-1.6-0.2-0.5-1-1.5-0.3-1.7 0.4-0.1 1-0.4 1.1-0.7 0.3-0.6 0.5-1 0.4-1.7-0.1-0.4-0.6-1.4-0.5-1.7 0.1-0.3 0-0.8 0-0.8 0 0 0.4 0.4 1 0.6 0.6 0.1 5.6 2 7.6 2.6 1 1.1 2.7 1.3 3.7 2.3 1.1 0.5 2.5 0.7 3.2 1.8 1.4 0.4 0 2.3 1.1 2.7 1.5-0.2 3.1 0.4 3.2 2.8 1.4 0.8 0.2 2.6 1.5 3.5 1.3 0.7 2.2 1.8 3.2 2.8 1 0.4 2.9 1.2 2.5 2.5-1 0.2-1.4 2.4-1.3 2.7z"/>
		<path id="map_valparaiso_Zapallar" fill-rule="evenodd" class="map-valparaiso s1" data-siglaregion="VA" data-sigla="zapallar" data-nombre="Zapallar" d="m47.3 81.6l0.9 0.4c0.7 0.9 1.7-0.8 1.7-0.5 0.4 0.8 1 1 1.6 1.5 0.3 0.3 0.8 0.3 1.1 0.6 0.5 0.6 1 1.3 0.4 2-0.7 0.7 0 0 0.2 0.5 0.3 0.5 0.6 0.8 1.2 0.8 1.1 0.2 1.3 0.8 2.1 0.9 0.7-0.3 1.2-0.8 1.9-1.1 0.5 0 1 0.1 1.5-0.1l2.4-1.1c-0.4-1.5 0.6-1.5 1.5-1.6-0.6-1.8 0.1-2.5 1.9-2.3l1.7-0.7 0.9-3.1h3.6l0.1-1.6c-2.7-1.6-1.8-4.2-4.7-5.6-0.9-2.2-3.3-2.7-5.2-3.7l0.2-1.1-1.2-1-0.8 0.8-0.7-0.7-0.6 1.2c-3.1 0.4-4.3 1.9-5.5 3.4 0.1 1.1-0.2 1.9-1.3 2.3h-4.3l-1.4-1.5h-0.6l-1.1-0.6-0.4-4c-1.3-1.5-1.2 0-1.5 0.5-0.3 0.2 0.1 0.7-0.1 2.1 1 1.2 1.8 3.1 1 5.5l1.6 2.8c2.1 0.7 1.5 3.2 1.9 5z"/>
		<path id="map_valparaiso_Papudo" fill-rule="evenodd" class="map-valparaiso s1" data-siglaregion="VA" data-sigla="papudo" data-nombre="Papudo" d="m44.4 65.7l0.4 4 1.1 0.6h0.6l1.4 1.5h4.3c1.1-0.4 1.4-1.2 1.3-2.3 1.2-1.5 2.4-3 5.5-3.4l0.6-1.2 0.7 0.7 0.8-0.8-0.8-2.6-2.2-2.4 0.9-1.4c1.1 1 2.5 0.2 3.9-0.5l-2.5-0.9-2.3-3.9-1.9 1.4-0.8-0.9h-1.5l-0.6-0.6-1.1 0.6c-0.6 0.2-1.3 0.2-2.5-0.6 0.2 0.9 0.2 1.3-1.6 0.9-0.8 0.6 0 4.4-1.4 5.2 0.1 2.2 1.4 9-2.3 6.6z"/>
		<path id="map_valparaiso_La_Ligua" fill-rule="evenodd" class="map-valparaiso s1" data-siglaregion="VA" data-sigla="la_ligua" data-nombre="La Ligua" d="m36 26.9c1 1.5 1.3 3.5 5.4-0.7l1.5-1.5 3.2 1.4c4.6 2 8 3.1 10 3 3.1-0.2 8.3-2.1 8-3.3-0.4-1.6 2.3-0.9 4-4.7 1.2-2.5 1.9-2.3 3.3 0.3 0.7 1.2 1.8 2.1 2.5 2.1 0.8 0-1.7 3.2-1 3.9 0.8 0.6 0.9 1.8 1.8 2.4 0.4 0.8 0.2 0.3 0.9 1.2 0 0.5-0.2 2.9-0.8 3-1 0.1-1.8 1-0.8 1.8 0.8 0.9 1.3 2 1.7 3-0.6 0.9 0 1.7 1 1.4 1.1 0.1 1.6 2.4 2.2 3.1 0.6 0.9 0.5 1 1.4 1.7 0.9 0.6 0.1 1.7 0.9 2.2q-0.1 0.5-0.2 0.9c-0.1 0.7-0.1 1.3 0.2 1.9 0.6 1.1-1.4 1.4-0.3 2.4 0.2 1 1.7 1.5 1.9 2.5l-1.2-0.1c-2.8 1.2-3.1 2.4-3.8 3.6l-0.3 5.1 2.1 1.7-0.6 0.8 0.9 1.4h2.3l3.5 2.6h0.9c3 2.3 1 3.6 0.2 4.2l-0.2 1.9h-1l-0.7 0.4c-0.1 0.6-0.4 1.2 0.3 1.7l-0.7 1.4h-2.9c-1-0.4 0.5-0.4-3.4-1.2v-1l-1.6-0.2v-1h-1.3l-2.6 2.1-0.8-0.5 0.1-1.6c-2.7-1.6-1.8-4.2-4.7-5.6-0.9-2.2-3.3-2.7-5.2-3.7l0.2-1.1-1.2-1-0.8-2.6-2.2-2.4 0.9-1.4c1.1 1 2.5 0.2 3.9-0.5l-2.5-0.9-2.3-3.9-1.9 1.4-0.8-0.9h-1.5l-0.6-0.6-1.1 0.6c-0.6 0.2-1.3 0.2-2.5-0.6-0.5-1.7-2-3.8-3.1-4.1-1-0.3-2-4.3-3.2-2.4-0.3 0.5-1-0.3-1.1-1-0.4-1.7-0.1-5.2 0-7.2 0-2.9-1.1-5.5-4-4.8-1.6 0.3-1.6-0.2-1.6-1.7z"/>
		<path id="map_valparaiso_Petorca" fill-rule="evenodd" class="map-valparaiso s1" data-siglaregion="VA" data-sigla="petorca" data-nombre="Petorca" d="m73.9 23.5c1.6 0 4.2-2.7 7.1-5.2 1.7-2.4 3.2-3.8 4.4-3.9 1.1-1.4 1.7-2.8 4-4.1 0.6-1.3-2.7-1.9-1.3-3.8-1.2-2.4 5.5-0.4 7-0.5 0.9 0.2 1.7 0.4 2.1 1 1.7 2.6 3.2 5.3 3.7 1.9 3.4-1.3 5.9-0.9 7.2-2.8 2.4-1.2 5.2-2.1 6.3-2.1 1 0 2.4-0.5 3.2-1 2.2-1.7 5.1-1.2 5.3 0.8 0.2 1.6 3 3.6 2.5 2.2-0.6-1.7 6.7 0.2 2.4 3.9-1.6 1.3 3.2 5 1.4 4.9-0.5-0.1 2.8 2.1 5.6 3.6 6.8 1.1 7.8 4 6.6-1.6-0.2-0.9 2.1 1.3 4.1 1.9l3.6 1.2c1.9 1.6-0.2 5.6-0.3 8.4 0.3 2.2-0.3-0.3-1 1.1 0 0.4 0.4 1-1.5 1.4-2.3-0.4-3.1 4-5 2.1-2.2 0.4-4.7-1.2-6.5 0.6-1.5 1.5-1.9-1.1-6 1-3.6-0.6-3.7 1.3-5.7 1.5-1.8 0-4.4-0.1-5.5 1.3-2.1 0.9-4.3-2.2-5.8-1.5-2-1.2-2.1 1.4-2.7 2.7-1.6 1.7-3.6 3.2-4.1 3-1.9-0.9-1.6 0.7-2.3 0.9-0.2 1.2-0.5 2.7-1.4 2.4-1.2-0.4-2.1 0-2.8-0.3-1.3-1.3-2.5-3-5.2-2.1-2.3 0.5-3.6 2.6-4.2 4.7-0.4 1.5-1 2.1-2.8 3.2-0.3 0.2-0.8-0.5-1.2-0.8-0.6-1.1-1.9 0.1-2.3-0.8-2.1-1.1-1.9-0.3-1.8-0.6q0.1-0.4 0.2-0.9c-0.8-0.5 0-1.6-0.9-2.2-0.9-0.7-0.8-0.8-1.4-1.7-0.6-0.7-1.1-3-2.2-3.1-1 0.3-1.6-0.5-1-1.4-0.4-1-0.9-2.1-1.7-3-1-0.8-0.2-1.7 0.8-1.8 0.6-0.1 0.8-2.5 0.8-3-0.7-0.9-0.5-0.4-0.9-1.2-0.9-0.6-1-1.8-1.8-2.4-0.7-0.7 1.8-3.9 1-3.9z"/>
		<path id="map_valparaiso_Cabildo" fill-rule="evenodd" class="map-valparaiso s1" data-siglaregion="VA" data-sigla="cabildo" data-nombre="Cabildo" d="m81 48.1c-0.1 0.7-0.1 1.3 0.2 1.9 0.6 1.1-1.4 1.4-0.3 2.4 0.2 1 1.7 1.5 1.9 2.5l-1.2-0.1c-2.8 1.2-3.1 2.4-3.8 3.6l-0.3 5.1 2.1 1.7-0.6 0.8 0.9 1.4h2.3l3.5 2.6h0.9c3 2.3 1 3.6 0.2 4.2l-0.2 1.9 0.8 1.3c0 0-0.4 0.5-0.4 1 0.1 0.5 0.1 1.2 0.5 1.8 0.4 0.4 1.1 0.5 0.8 1l0.9-0.4c1.4 1.2 1.8-0.7 1.9-1.8 1.5 0 3 0.6 3.1 1.5 0.2 1.1 2.3 0.6 3.5 0.3 1.9 0.1 3.1-2.2 5.1-1.4 1.1-1.1 2.2-2.4 3.4-0.6 1.5 0.3 3.1 0.5 4.1 1.6 0.9-0.9 3.1 1.1 2.1-0.6-0.1-1.9 3.4-0.8 2.2-2.6-1.5-0.6-2-3 0.1-2.9 1.4-1.2 2.8-3.4 0.8-4.8-1.3-1.2-4.2 0.2-4.6-2.4-0.1-1.1-0.7-2.2-1.2-2.8 1.7-1 0.8-3.6 2.6-4.1 1.6-0.8 1.6-2.2 1.6-2.9 0-0.6 1-0.5 1.7-0.2 2.4 0.6-0.9-2.5 1.4-1.7 1.1 0.1 2 1.2 3.1 0.9 0.4-0.1 0.5-0.6 2.4 1.4 1.3 1.5 2-2.5 3.2-0.1 1 0.6 4 3.5 3.7 0.8 1.7 0.6 2.3-0.2 2.3-2-0.7-1.3 3.1-3 1.1-4.6 1.8-0.6-0.5-2 0.5-3.3 0-1.2 0-2.2 1.6-1.7 0.8 1 2.3 2.5 2.7 0.6 0.6-0.2 1.5-0.3 2.2-0.3l2.6-2.3h2.8l0.5 0.8h2.1l1.2-0.8 0.3-1.9 2.9 0.1c0.2-0.2 0.8-1.7 0.9-2 0.4-1.3 1.3-0.9 1.7-2.2 0.3-1.3 0.8-2.1-1.4-2.9-2.2-0.9-1.2-4.4-1.4-6.5 0-1.1-2.6-0.6-3.2-1.1 0.3 2.2-0.3-0.3-1 1.1 0 0.4 0.4 1-1.5 1.4-2.3-0.4-3.1 4-5 2.1-2.2 0.4-4.7-1.2-6.5 0.6-1.5 1.5-1.9-1.1-6 1-3.6-0.6-3.7 1.3-5.7 1.5-1.8 0-4.4-0.1-5.5 1.3-2.1 0.9-4.3-2.2-5.8-1.5-2-1.2-2.1 1.4-2.7 2.7-1.6 1.7-3.6 3.2-4.1 3-1.9-0.9-1.6 0.7-2.3 0.9-0.2 1.2-0.5 2.7-1.4 2.4-1.2-0.4-2.1 0-2.8-0.3-1.3-1.3-2.5-3-5.2-2.1-2.3 0.5-3.6 2.6-4.2 4.7-0.4 1.5-1 2.1-2.8 3.2-0.3 0.2-0.8-0.5-1.2-0.8-0.6-1.1-1.9 0.1-2.3-0.8-2.1-1.1-1.9-0.3-1.8-0.6z"/>
		<path id="map_valparaiso_Isla_de_Pascua" fill-rule="evenodd" class="map-valparaiso s1" data-siglaregion="VA" data-sigla="isla_de_pascua" data-nombre="Isla de Pascua" d="m8.7 28.7c1.7-0.1 3.1 0.9 4.5 1.7 0.8 0.5 1.9-0.2 2.4 0.7 0.2 1-1.8 1.2-2.6 2.1-2.1-0.4-2.7 0.8-4.3 1.4-0.8 0.1-1 1.2-1.8 1.2-0.7 0.1-1.6-1.5-0.8-1.8 1.5-1.5 1.3-3.7 2.6-5.3zm2.5-13.3c-0.1 0-0.1 0.1-0.1 0.2 0.1 0.1 0.3 0.1 0.2 0 0.1-0.2 0.3-0.1 0.3 0-0.1 0.1-0.1 0.3-0.1 0.4 0 0.1 0.2 0.1 0.3 0 0-0.1 0.1-0.2 0.1-0.3 0.1-0.1-0.1-0.2-0.2-0.2-0.1-0.1-0.3-0.1-0.5-0.1z"/>
		<path id="map_valparaiso_limite_Valparaiso" fill-rule="evenodd" class="map-valparaiso s0" d="m161.6 32.2c-0.7 0.7-1.6 1.2-3 1.6-1 0.2-4.4 1.9-5.2 2.1-2.2-0.9-1.2-4.4-1.4-6.5 0-1.1-2.6-0.6-3.2-1.1 0.1-2.8 2.2-6.8 0.3-8.4l-3.6-1.2c-2-0.6-4.3-2.8-4.1-1.9 1.2 5.6 0.2 2.7-6.6 1.6-2.8-1.5-6.1-3.7-5.6-3.6 1.8 0.1-3-3.6-1.4-4.9 4.3-3.7-3-5.6-2.4-3.9 0.5 1.4-2.3-0.6-2.5-2.2-0.2-2-3.1-2.5-5.3-0.8-0.8 0.5-2.2 1-3.2 1-1.1 0-3.9 0.9-6.3 2.1-1.3 1.9-3.8 1.5-7.2 2.8-0.5 3.4-2 0.7-3.7-1.9-0.4-0.6-1.2-0.8-2.1-1-1.5 0.1-8.2-1.9-7 0.5-1.4 1.9 1.9 2.5 1.3 3.8-2.3 1.3-2.9 2.7-4 4.1-1.2 0.1-2.7 1.5-4.4 3.9-2.9 2.5-5.5 5.2-7.1 5.2-0.7 0-1.8-0.9-2.5-2.1-1.4-2.6-2.1-2.8-3.3-0.3-1.7 3.8-4.4 3.1-4 4.7 0.3 1.2-4.9 3.1-8 3.3-2 0.1-5.4-1-10-3l-3.2-1.4-1.5 1.5c-4.1 4.2-4.4 2.2-5.4 0.7"/>
		<path id="map_valparaiso_limite_Internacional" fill-rule="evenodd" class="map-valparaiso s3" d="m161 32.6c0.7 0.7 2.3 2.4 2.8 2.3 1-0.3 3.3 0 3.9 0.9 0.2 0.3 1.3 1.3 2.6 2.2 1.2 0.9 2.3 1.9 2.3 2.1 0.1 0.2 0.1 2.2 0.2 4.4 0.1 2.9-0.1 4.3-0.6 5.4-0.6 1.3-0.6 1.5 0.1 2.8q1.2 2.2 5 4c0.9 0.4 2.2 1.1 3 1.4 1.6 0.8 3.5 3.7 3.5 5.4 0 0.6 0.4 2.1 0.9 3.3 0.6 1.7 0.7 2.4 0.4 3.3-0.2 0.6-0.4 1.7-0.4 2.4 0 0.9-0.4 1.4-1.2 2-2.4 1.5-3.1 3.7-1.7 5.3 1.2 1.2 2 4.8 2 8.7q0 1.6 0.5 3.3 0.7 2.2 2.2 4.4c0.4 0.6 0.8 1.6 1 2.2 0.1 0.6 1.5 2.1 3 3.4 1.7 1.4 2.9 2.8 3.1 3.5 0.5 2.8 0.8 3.2 2.7 3.9 2.6 1 4 2.6 3.7 4.4-0.4 2.3-1.6 5.2-2.5 6.2-0.9 1-1 1.9-0.5 4.1 0.4 2.1-0.9 3.7-3.6 4.4-1.5 0.3-2 2.5-2.7 3.6"/>
		<path id="map_valparaiso_limite_Region_Metropolitana" fill-rule="evenodd" class="map-valparaiso s0" d="m191.7 131.8h-1.8c-1.7 0.6-2.4 1.8-3.5 2.8-0.6 0-1.1 0-1.2 2-1.8 1.2-1.5 1.9-3.8 2l-2 1.3-0.5 1.4c-1.1 0.2-2 1.1-2.8 2.1-0.3 0.2-0.2 0.6 0.8 1.5-0.5 0.9-1.2 1.4-1.8 2l-0.1 2.1c-3.4 0.3-0.8-1.7-2.4-2.9l-0.3-1v-3h-1.6l-1.5-1.6-0.1-0.6-1-0.5-1.1 0.1c-0.3-0.8-0.6-0.9-0.9-1l-1.2-0.6c-0.5 1.3-1.8 1.5-3.4 1.4l-1-1.6c-1.6-0.5-1.2-2.4-2.4-3.1-1.1-1.2 1.2-2.1 0.2-3.4 0.5-1.8-1.3-2.3-2.7-2.6-1.1-0.6-2.2 0.4-2.2 1.5-1.2 0.8-1.5 2.1-2.2 3.2-0.2 0.8 0.9 1.5-1.2 1.5-0.5 0 0.7 1.5-1 1.9-0.7 0.1-1.6 0.8-1.9 0.3-0.4-0.7-0.9-1.8-1.6-2.3 0.2-1.5-0.7-2.9-2.1-3.5-1.8-0.6-0.6-2.4-0.3-3.6-1.1-1.1-1.9-2.4-3-3.6-0.4-1.3-1.4-1.2-1.8-1.3-0.6-0.1 0-1.4-0.2-2-0.4-0.6-0.8-1.5-1.9-1.7-0.4 0.4-0.7 1.2-1.2 0.3-1.3-0.3-2.6 0.3-3.5 1.1-2.9 0.2-1.9 1.4-4 0.5-1 0-2.3 1.7-2.7-0.2l-0.6-0.3c-0.1-0.1 0.1-1.7 0-2.1-0.3-0.5-0.9-1.4-2.1-1.4q-0.3 0-0.6 0c-2.5 0.8-2.2 2.3-2.8 0.8-1.1-0.2-2.1-0.9-3.6-0.4-0.5 0.2-0.6 0.4-1.3 0.4-0.8 0-1.7-0.4-2.5-0.3-0.2 0.2-0.8 0.5-1 0.5-3.2-0.2-1.7 0.5-2.5 0.5-0.2 0.6-0.9 0.4-1.6 0.4-0.9-0.2-1.3-0.6-2 0.9-0.3 0.9-0.8 1.1-1 1.9-0.4 0.8-0.4 2-1.5 1.6-0.8-0.1-1.4-0.8-2-0.3-0.7 0.3-1.4 0.9-2.2 1q-1.3 0-2.5-0.1c-0.8 0-1.7-0.2-2.3 0.1-0.1 0.8-0.5 1.3-0.7 1.9 0.5 0.5 0.5 1.1 0 1.6 0.8 0.5 0.9 1.7 1.8 3.3 0 1.9 1.2 1.6 0.8 2.4-0.2 1-0.6 1.1-1 2.8-1.2 0.7-1.2 0.9-1.2 1.9 0.5 0.5 1.3 0.6 1.2 1.5-0.8 2.4-0.1 2.2 0.1 4.6 0.8 0.8 0 1.3 0.4 2.1 0.5 0.3 0.7 0.9 1 1.4 0.4 0.7 0.7 1.4 1.1 2.1 0.9 0.7-0.5 0.4-0.3 1.5 0.1 0.6 0 0.9-0.9 1.4-1.5-0.3-1.4 0.7-2.4 0.4 0.5 2.3-0.3 1.6-1.3 0.5-0.6 0.4-1.1 0-1.6-0.2-0.4 0.4-0.3 1.4-0.3 2.2-1.3 1.5-2.2 1-3-0.1-1.2 0-3.1-0.7-3 0.6-0.6 1-1.5 1.3-3.1 0.7l-1.3-0.6c-1.5 1.1-1.7 0.5-2.1 0.2l-1.4-0.2c-0.5 0.5-1.2 0.9-2.3 0.7 0.1 0.7-0.5 1.1-1.3 1.3-0.7 0.4-0.2 1.1 0.1 1.7 0.1 0.7 0 2.6 0.3 2.7 0.1 0 0.1 0.8 0.9 1.9-0.3 1.8 1.2 2.9 1.6 3 0.2 0-0.3 0.2-0.5 1.7-0.7 0.1-1.1 0.5-0.5 1.9l-0.6 1.3c-1.3 1 0.4 1.7-1 3.1-0.6-0.7-2 0.7-2.3 1.2-0.6-0.1-1-0.7-1.7 0.1l-1.8 2.4q-0.1 0-0.2 0.2c-0.6 0.7-2.1 0.6-4 0.3-1-0.8-1.4-0.4-1.6 0.5-1.7 0.7-0.1 2.3-0.1 3.5 0 1.7-0.8 3.6-0.1 4.2-1.6 1.5-1.9 3-0.7 4.5 0.2 1-1.4 2.8 1 2.8 0.4 0.7 0.8 1.9 1 4.2-0.4 0.8-0.2 1.6 0.2 2.4l-0.6 0.8c-0.3 1.4-0.6 2.7-1.3 2.5l-1.4 1.2c-1.5-0.1-3.6-0.6-2.5 1.9-2.1 0.7-1.3 2.3-1.6 3.5l-1.6-1.3-1.5 1.2 0.1 0.5c-2.2 2.9-0.2 2.7 0.9 3-0.1 0.9-1.2 1.3 0.7 3.1l1.9 1.2c0.5 2.6 1.5 1.2 3.3 3.1l-0.1 1.8c0.1 0.8-0.3 1.7-1.1 2.5-1.5 0.3-3.4-0.4-4.4 1.1-1.1-1-3-0.8-3-0.8h-2.5l-2-1.6h-2.2l-0.8 0.7c-0.8-1-1.6-1.7-2.4-1.6-0.5 0.1-0.9 0.4-1.3 1.3l-0.3 12.4-1.4 0.1c-0.4 0.4-0.5-0.5-1.1-1q-3.7 2.8-7.4 5.5c-0.9 0.8-2 1.4-2.9 2.3-1 0.3-3.1 1.2-2.1 2.5"/>
		<path id="map_valparaiso_limite_OHiggins" fill-rule="evenodd" class="map-valparaiso s0" d="m9.7 240.2c0.9 1.6-0.4 2.2-1 3.1 0.6 0.3 0.9 1.2 1.5 0.6 1.8-2.1 1.8-1.4 2.2-0.8 0.7 1 2.3 0.8 2.7 1.9 1 2.5 1.9-1.3 3-1.1 0.4 0-0.8 2.4-0.3 2.5 1.9 0.1 1.8-1.2 2.5-0.3 0.7 0.9-0.1 2.4 0.6 2.1 0.7-0.3 0.5-1 2.4-0.9"/>
		<path id="map_valparaiso_rect4262" fill-rule="evenodd" class="map-valparaiso s2" d="m3.5 25.3v0.2 13.7 0.2h0.2 14.7 0.2v-0.2-13.7-0.2h-0.2-14.7zm14.7 0.5v13.1h-14.3v-13.1z"/>
		<path id="map_valparaiso_rect5151" fill-rule="evenodd" class="map-valparaiso s2" d="m3.7 10.1v0.2 10.4 0.2h0.2 14.8 0.2v-0.2-10.4-0.2h-0.2-14.8zm14.8 0.3v10.1h-14.4v-10.1z"/>
		<path id="map_valparaiso_rect5153" fill-rule="evenodd" class="map-valparaiso s2" d="m3.4 84.5v0.2 13.6 0.2h0.2 14.7 0.2v-0.2-13.6-0.2h-0.2-14.7zm14.7 0.4v13.2h-14.3v-13.2z"/>
		<path id="map_valparaiso_rect5155" fill-rule="evenodd" class="map-valparaiso s2" d="m9.3 56.3v0.2 13.7 0.2h0.2 12.5 0.2v-0.2-13.7-0.2h-0.2-12.5zm12.5 0.4v13.2h-12.1v-13.2z"/>
		<path id="map_valparaiso_rect5157" fill-rule="evenodd" class="map-valparaiso s2" d="m0.2 56.4v0.1 13.7 0.2h0.1 8.4 0.1v-0.2-13.7-0.1h-0.1-8.4zm8.4 0.3v13.4h-8v-13.4z"/>
	</g>
</svg>