<svg version="1.2" xmlns="http://www.w3.org/2000/svg" viewBox="0 0 200 300" width="200" height="300" style="width: 50%;height: 50%;">
	<style>
		.map-tarapaca.s0 { fill: none;stroke: #757575;stroke-width: 1.6 }
		.map-tarapaca.s1 { fill: #ffffff;stroke: #757575; stroke-width: .7 }
		.map-tarapaca.s2 { fill: none;stroke: #3c3c3c;stroke-width: 1.8 }
	</style>
	<g id="layer_mapa_tarapaca" class="layer_mapa_comuna" data-siglaregion="TA">
		<path id="map_tarapaca_Colchane" fill-rule="evenodd" class="map-tarapaca s1" data-siglaregion="TA" data-sigla="colchane" data-nombre="Colchane" d="m168.2 89.3c0.4-1.1 0.3-2.1 3.6-3.2 1-0.5 2.2-0.2 3.3-0.8l0.2-1.8 1.5-0.9-0.3-1.4 3.6-5.9 1.5-0.7 12.4-16.7c2.2-0.6 4-1.3 3.2-3.2l-12.9-12-8.2-2.4c-1-0.7-0.6-1.6-0.9-2.3-4.4-4.5-8.7-9.3-13.3-13.6-2.5-5.2-8.1-6.8-13.3-8.4-2.4-4.6-3.2-9.5-6.9-12.8-0.7-0.1-1.4-0.5-1.9 0.2-0.3 0.7-0.4 2.8-0.9 2.3-0.3-0.3-1.1-0.9-2.3 1.3-3.6-0.8-3.4 3.3-6.1 4.6q-0.4-0.1-0.9-0.2c0.4 2.1-2.6 2.8-3.4 4.6-1 1.9-3.9 0.9-5.7 1.2-2.7 0.4-7.4 2.5-10.2 3.1-1.5 0.8-2.8 2.2-4.4 2.6l3.6 12 11.1 6.9c5.8-4.7 7.3-3.6 8.7-2.3l4.8 4-8.6 19.7 12.5 8 7.1 2.9c5.4 3.3 1.3 8.4 7.1 8.8l2.9 3.8z"/>
		<path id="map_tarapaca_Huara" fill-rule="evenodd" class="map-tarapaca s1" data-siglaregion="TA" data-sigla="huara" data-nombre="Huara" d="m3 34c11-5.7 15.9-9.8 21.5-13.3 6.5-1.1 10.4-3.9 14-6.9 4.2 1.6 9.1-2.3 13.5-0.2 9-3.4 11.7-2.2 17.5-3.3 6.8-0.4 6.8 0.5 9.1 0.9 4.2-0.1 10.1-1.3 10.2 1.3 1.1-0.4 2.2-0.2 3.3-0.6 2.1-0.3 2.7 1.5 2.7 3.1-4.5 7.6-0.8 10.9-14.4 18.1l-5.5 0.4-6.1 4.6h-6.1c-1.6-0.6-2.6-0.3-2.9 0.8l0.1 44.1 3.9-2 1.3-0.3 9.1-5 2-2.8 4.6-2.5c3.5-1.6 6-1.8 8.4-1.8l5-3.2 1.4 0.3c2.5-1.7 5-3.3 5.5-5.4l0.6-2c2.6-1.4 2.4-2.1 1.7-2.7 0.5-2.2 1.5-3.9 3.5-4.5 1.2-0.6 2.8-0.4 4.8 0.2l6.3-5.7 2.6-3.8c5.8-4.7 7.3-3.6 8.7-2.3l4.8 4-8.6 19.7 12.5 8 6.9 3.1c0.2 1.6-1.1 2.8-2.1 4.1l1.7 3.4v9l-4.3 6.3-6.9 3.8 0.3 2.5 3.1 3.8 0.4 1.7-2.6 0.1c-2.7 1.3-4.9 2.3-8.1 5.6-1.8 0.6-1.9 0.2-6.3 2.3l-7.5-0.3-2.1-1.4-2.3-0.2-57.2 14-6.2-5.1-19.8-1.2-3.7-2.3-0.1-3.8-1.1-1.3c-0.1-2.7 0.8-5.4-0.5-8.1 2.8-5-1.8-4.7-2.3-7.2 1-4.3 0.8-8.1 1-12.1l-2.8-3.1 1.4-0.6c-0.9-1.6-1.8-3.2-1.1-4.4-3-1.6-4.9-3.7-7.2-5.7 1.6 0.4 3 0.2 3.8-1.5 1.1-1.1-1.6-0.3 0.3-9.4-1.2-1.4-0.8-3.5-1.4-5.3-0.5-1.8-1.8-3.5-2-5.4 0-2.3-0.6-3.3-2.4-4.6-0.2-0.7-0.4-1.4 0.2-3.3l-3.2-2c0 0-0.9-2.7-0.5-4.5 0.4-1.7 0.1-2.7-0.4-4.1z"/>
		<path id="map_tarapaca_Camina" fill-rule="evenodd" class="map-tarapaca s1" data-siglaregion="TA" data-sigla="camina" data-nombre="Camiña" d="m105.9 22.9c-1.9-1.7-1.6-4.3-4.1-5.3-2.5-0.4-6.1 0.5-7-2.6-4.5 7.6-0.8 10.9-14.4 18.1l-5.5 0.4-6.1 4.6h-6.1c-1.6-0.6-2.6-0.3-2.9 0.8l0.1 44.1 3.9-2 1.3-0.3 9.1-5 2-2.8 4.6-2.5c3.5-1.6 6-1.8 8.4-1.8l5-3.2 1.4 0.3c2.5-1.7 5-3.3 5.5-5.4l0.6-2c2.6-1.4 2.4-2.1 1.7-2.7 0.5-2.2 1.5-3.9 3.5-4.5 1.2-0.6 2.8-0.4 4.8 0.2l6.3-5.7 2.6-3.8-11.1-6.9z"/>
		<path id="map_tarapaca_Alto_Hospicio" fill-rule="evenodd" class="map-tarapaca s1" data-siglaregion="TA" data-sigla="alto_hospicio" data-nombre="Alto Hospicio" d="m25 122.7l19.8 1.2-2.2 21.5-6.7 8.1-4-4-8.8 8.6-1.3-4.6v-2.5l1.2-1.8 0.3-13.9-0.7-1.1v-2.8l1.7-4.5z"/>
		<path id="map_tarapaca_Pica" fill-rule="evenodd" class="map-tarapaca s1" data-siglaregion="TA" data-sigla="pica" data-nombre="Pica" d="m150.4 255.7l34.3-21.2 3.4-13.8c-2.1-0.8-2.8-3.3-4.8-4.3-1.2-1.2-0.8-3-1.5-4.5-0.4-1.8 0.9-3.6 0.1-5.4 0-1.5 1.2-3 0.1-4.5-1.1-1.7 1.2-3.7-0.1-5.3 1.2 0 1.7 1 2.7-3 1.6-2.2 2.5-3.1 3.8-3.7 0.4 0.1 3.9-0.9 4.5-2.8-0.7-0.7-2.7-1.1-3.1-2.1-0.6-1.3-1-1.6-2.4-1.5-2.6-0.3-1.7-3.4-4.3-3.4-4.6 0.7-3.4-1.2-6-2.9-1-0.6-2.4-2.6-3.8-2.7h-2.4l-8.3-7.1v-10.5l0.9 0.2c0.3 0 2.7-0.3 3.6-0.5 1-0.1 2.2 0.1 3-0.6 1 0.6 0.7-3.3 0.2-4.9-0.4-1-1-0.5-1.9-1.7-0.9-0.7-1.3-1.3-1-2.4 0.5-1.4-0.7-2.4-1.4-3.4-0.7-1.2 1.3-1.9 0.7-3.1-0.4-1.7-0.2-2.7 1-3.8-1-1.3-0.1-3.3-1.2-4.2-1.1-0.1-3.3 0-3.9-1.2-0.3 0.1-1.7 1.2-2.6 0.4l1.7-5.8 6.4-0.6 5.2-2.1h7.4l4.5-12.1-2.9-3.2 2.1-6.7-7.1-1.6c-0.2-1.2-3.5-6.6-5.5-7-1-2.2-3.6-0.8-4.5-2.3 1.4-1.1 0.9-1.1 0.9-1.1l-13.1-2.6-2.9-3.8c-5.8-0.4-1.7-5.5-7.2-8.7 0.1 1.7-1.2 2.9-2.2 4.2l1.7 3.4v9l-4.3 6.3-6.9 3.8 0.3 2.5 3.1 3.8 0.4 1.7c3.6 1.7 1.6 4.7 1.4 7.3l0.9 5.8c-1.3 1.2-3.3 1-3.7 4.2v3.1l2.8 1.5c-0.4 2.8 1.6 2.4 3 9.1l-3 2.2-0.5 2.2-2.4 2.4c-0.9 4-5.5 3.3-9.1 4l-3.3-2.4-10.3-1.7h-6l-5 2.3-8.1-0.3-2-1.9h-2.3l0.5 52.5 2.2-1.1 6.7 0.2 4.8-2.8h2l1.5 1.3 8.4 0.7 6-1.5 7.8-0.1 4.7-2.1 3.6-0.5 1.5-1h1.3l0.1 1.4 1.4 1.8 0.4 3.3-1 3.1 0.4 2.5-1.2 1.4 1.7 2.3-0.9 31.2 4.2 5.8 1.9 6.1z"/>
		<path id="map_tarapaca_Pozo_Almonte" fill-rule="evenodd" class="map-tarapaca s1" data-siglaregion="TA" data-sigla="pozo_almonte" data-nombre="Pozo Almonte" d="m150.4 255.7l-44.1 14.4-24.7 27.3c-1.2-0.5-1.8-1.5-2.3-2.6-1-1.1-1-2.7-1.9-3.9-1.4-1.5-2.4-3.2-3.5-4.9-0.9-1.5-1.8-2.9-2.5-4.5-0.8-1.2-1.4-3.2-3-3.7-2-0.4-5-0.9-6.7-2.5-1-1-2.2-1.1-3.5-1.1-1.7 1.7-3.4 1.5-5.7 1-5.4 0.1-6.7-1.1-9.7-1.9l-1.3-0.1v-4.6l5-7.3-1.5-15.2 7.7-5.4-18-27.5-5.4-19.8 1.8-10.1c0-0.2 0.7-1.7-1-3.5l-7-21.7 8.8-8.6 4 4 6.7-8.1 2.2-21.5 6.2 5.1 57.2-14 2.3 0.2 2.1 1.4 7.5 0.3c4.4-2.1 4.5-1.7 6.3-2.3 3.2-3.3 5.4-4.3 8.1-5.6l2.6-0.1c3.6 1.7 1.6 4.7 1.4 7.3l0.9 5.8c-1.3 1.2-3.3 1-3.7 4.2v3.1l2.8 1.5c-0.4 2.8 1.6 2.4 3 9.1l-3 2.2-0.5 2.2-2.4 2.4c-0.9 4-5.5 3.3-9.1 4l-3.3-2.4-10.3-1.7h-6l-5 2.3-8.1-0.3-2-1.9h-2.3l0.5 52.5 2.2-1.1 6.7 0.2 4.8-2.8h2l1.5 1.3 8.4 0.7 6-1.5 7.8-0.1 4.7-2.1 3.6-0.5 1.5-1h1.3l0.1 1.4 1.4 1.8 0.4 3.3-1 3.1 0.4 2.5-1.2 1.4 1.7 2.3-0.9 31.2 4.2 5.8 1.9 6.1z"/>
		<path id="map_tarapaca_Iquique" fill-rule="evenodd" class="map-tarapaca s1" data-siglaregion="TA" data-sigla="iquique" data-nombre="Iquique" d="m23.1 158.1l7 21.7c1.7 1.8 1 3.3 1 3.5l-1.8 10.1 5.4 19.8 18 27.5-7.7 5.4 1.5 15.2-5 7.3v4.7c-1.7 0.2-3.4 0.4-5.1 0.7-2.9 1.8-2.8 0.7-5.6-0.2-1 0-1.6 1-2.2 1.4-0.5-0.6-0.6-1.2-0.8-1.8 0.1-0.5 0.1-1 0.1-1.5-2.4-2.4-1.8-2.4-2-3.3-0.1-1.2 0.5-0.2-1-3 0.3-0.5 0.3-0.5 0.7-0.8 0.4-0.3 0.9-0.1 1.2-0.5 1.4-0.8 1.3-2 1.3-3.1 1-0.7-2-4.5-2.3-4.6 0.3-0.5 1.1-2.2-1-4.9 0.6-1.6 0-2.9-1.4-3.9 0.1-0.7 0.1-1.4-0.4-1.8-0.1-2.4-1.4-2.3-2.1-3.5 3.8-3.6-0.6-5.9-1.6-6.2-0.9-0.2-1.4-3.4-2.1-5.6 0.7-1.3 0.2-5.4 1.3-5.5 3-0.3 0-7.3 0.2-12.2-1-1.2-1.9-2.5-3.7-2.7-0.4-1.2-1.1-2-1.9-2.6 2.6-1.9 0.9-4.1 0.3-6.2 2.5-1.7 1.3-3.1 0.1-4.4 0.4-1.2 1.5-1.9 0.5-4.2 1.9-2.8-0.7-3.6-0.5-7.4 1.2-3.6 0.6-6.2 0.6-9.1 0.3-2 2.1-1.6 3-3.6 0.9-2 1.3-7 0.7-10.6-2.2-0.9-1.8-2.2-2.4-3.2-0.6-1 4.2-3.7 4.2-4.6 1.6-18.4-2.2-6.7-2.7-17.3 1.1-11 1.3-2.8 3.1-9.4 2.5-6.9 1.3-7.2 1.3-7.3l3.7 2.3-0.7 4.2-1.7 4.5v2.8l0.7 1.1-0.3 13.9-1.2 1.8v2.5z"/>
		<path id="map_tarapaca_LÍMITE_REG" fill-rule="evenodd" class="map-tarapaca s0" d="m188.1 220.7l-3.4 13.8-34.3 21.2-44.1 14.4-24.7 27.3c-1.2-0.5-1.8-1.5-2.3-2.6-1-1.1-1-2.7-1.9-3.9-1.4-1.5-2.4-3.2-3.5-4.9-0.9-1.5-1.8-2.9-2.5-4.5-0.8-1.2-1.4-3.2-3-3.7-2-0.4-5-0.9-6.7-2.5-1-1-2.2-1.1-3.5-1.1-1.7 1.7-3.4 1.5-5.7 1-5.4 0.1-6.7-1.1-9.7-1.9-2.1 0.1-4.3 0.3-6.4 0.7-2.9 1.8-2.8 0.7-5.6-0.2-1 0-1.6 1-2.2 1.4"/>
		<path id="map_tarapaca_LÍMITE_INTER" fill-rule="evenodd" class="map-tarapaca s2" d="m188 220.9c-2.1-0.8-2.7-3.5-4.7-4.5-1.2-1.2-0.8-3-1.5-4.5-0.4-1.8 0.9-3.6 0.1-5.4 0-1.5 1.2-3 0.1-4.5-1.1-1.7 1.2-3.7-0.1-5.3 1.2 0 1.7 1 2.7-3 1.6-2.2 2.5-3.1 3.8-3.7 0.4 0.1 3.9-0.9 4.5-2.8-0.7-0.7-2.7-1.1-3.1-2.1-0.6-1.3-1-1.6-2.4-1.5-2.6-0.3-1.7-3.4-4.3-3.4-4.6 0.7-3.4-1.2-6-2.9-1-0.6-2.4-2.6-3.8-2.7h-2.4l-8.3-7.1v-10.5l0.9 0.2c0.3 0 2.7-0.3 3.6-0.5 1-0.1 2.2 0.1 3-0.6 1 0.6 0.7-3.3 0.2-4.9-0.4-1-1-0.5-1.9-1.7-0.9-0.7-1.3-1.3-1-2.4 0.5-1.4-0.7-2.4-1.4-3.4-0.7-1.2 1.3-1.9 0.7-3.1-0.4-1.7-0.2-2.7 1-3.8-1-1.3-0.1-3.3-1.2-4.2-1.1-0.1-3.3 0-3.9-1.2-0.3 0.1-1.7 1.2-2.6 0.4l1.7-5.8 6.4-0.6 5.2-2.1h7.4l4.5-12.1-2.9-3.2 2.1-6.7-7.1-1.6c-0.2-1.2-3.5-6.6-5.5-7-1-2.2-3.6-0.8-4.5-2.3 1.9-1.4-0.1-2.9 4.5-4.3 1-0.5 2.2-0.2 3.3-0.8l0.2-1.8 1.5-0.9-0.3-1.4 3.6-5.9 1.5-0.7 12.4-16.7c2.2-0.6 4-1.3 3.2-3.2l-12.9-12-8.2-2.4c-1-0.7-0.6-1.6-0.9-2.3-4.4-4.5-8.7-9.3-13.3-13.6-2.5-5.2-8.1-6.8-13.3-8.4-2.4-4.6-3.2-9.5-6.9-12.8"/>
		<path id="map_tarapaca_path6551" fill-rule="evenodd" class="map-tarapaca s0" d="m3 34c11-5.7 15.9-9.8 21.5-13.3 6.5-1.1 10.4-3.9 14-6.9 4.2 1.6 9.1-2.3 13.5-0.2 9-3.4 11.7-2.2 17.5-3.3 6.8-0.4 6.8 0.5 9.1 0.9 4.2-0.1 10.1-1.3 10.2 1.3 1.1-0.4 2.2-0.2 3.3-0.6 2.1-0.3 2.7 1.5 2.7 3.1 0.9 3.1 4.5 2.2 7 2.6 2.5 1 2.2 3.6 4.2 5.3 1.5-0.4 2.8-1.8 4.3-2.6 2.8-0.6 7.5-2.7 10.2-3.1 1.8-0.3 4.7 0.7 5.7-1.2 0.8-1.8 3.8-2.5 3.4-4.6q0.5 0.1 0.9 0.2c2.7-1.3 2.5-5.4 6.1-4.6 1.2-2.2 2-1.6 2.3-1.3 0.5 0.5 0.6-1.6 0.9-2.3 0.5-0.7 1.2-0.3 1.9-0.2"/>
	</g>
</svg>